<svg xmlns="http://www.w3.org/2000/svg" viewBox="0 0 520.6 257.53"><defs><style>.cls-1{fill:#4d4d4d;}.cls-2,.cls-4{fill:none;stroke-miterlimit:10;stroke-width:2px;}.cls-2{stroke:#d8af4b;}.cls-3{fill:#3a546f;}.cls-4{stroke:#3a546f;}</style></defs><g id="圖層_2" data-name="圖層 2"><g id="圖層_2-2" data-name="圖層 2"><path class="cls-1" d="M309.11,26.63l-1.56-4.21h-5.89l-1.54,4.21H299L304.19,13h.93l5.08,13.61Zm-4.48-12.39h0a9.55,9.55,0,0,1-.31,1L302,21.53h5.22l-2.3-6.27Z"/><path class="cls-1" d="M316,26.63h-1V13h1Z"/><path class="cls-1" d="M328.77,24.85h-3.12V27.5H325V24.85H321.7v-.64H325V22.39h-2.49V15.78H325V13.94h-3.23v-.66H325v-1.4h.67v1.41h2.71v.65h-2.71v1.84h2.49v6.61h-2.49v1.82h3.12ZM325,18.75V16.43h-1.81v2.32Zm0,3V19.4h-1.81v2.34Zm2.47-3V16.43h-1.8v2.32Zm0,3V19.4h-1.8v2.34Zm9.71-7.2h-3.85v2h3.09v9.39a1.77,1.77,0,0,1-.32,1.18,1.47,1.47,0,0,1-1.15.37h-.52l-.28-.76a4,4,0,0,0,.92.06.58.58,0,0,0,.65-.66V23.34h-2.39v3.93h-.7V23.34h-2.36V27.5h-.7v-11h3.06v-2h-3.73v-.65h3.73V11.78h.7v2.11h3.85Zm-4.55,4.93V17.19h-2.36v2.28Zm0,3.2V20.14h-2.36v2.53Zm3.09-3.2V17.19h-2.39v2.28Zm0,3.2V20.14h-2.39v2.53Zm.65-9.64-.5.48a6.72,6.72,0,0,0-1.5-1.22l.47-.47A5.68,5.68,0,0,1,336.35,13Z"/><path class="cls-1" d="M349.74,24.11q-4.22,1.5-7.78,2.49l-.25-.67a13.62,13.62,0,0,0,1.39-.38V12.45h5.3V23.91a12.14,12.14,0,0,0,1.34-.52Zm-2.07-7.73V13.15h-3.84v3.23Zm0,4V17.08h-3.84V20.4Zm0,3.73v-3h-3.84v4.25C345.33,24.92,346.61,24.5,347.67,24.13Zm9.25-8.75q0,4.7-.16,7.8a17,17,0,0,1-.34,3.42,1.57,1.57,0,0,1-.51.55,2.92,2.92,0,0,1-1.49.23l-1.26,0-.26-.71,1.69.05a1.71,1.71,0,0,0,.72-.1,1,1,0,0,0,.35-.29,1.15,1.15,0,0,0,.21-.43c0-.16.08-.95.15-2.35s.12-2.69.14-3.85,0-2.35,0-3.57h-3.13q-.17,5.16-1.38,7.43a11.56,11.56,0,0,1-3.84,4.05l-.58-.54a10.61,10.61,0,0,0,3.78-3.8c.77-1.41,1.21-3.8,1.3-7.14H349.5v-.71h2.89V11.9h.72v3.48Z"/><path class="cls-1" d="M378,14.2H362.76v-.65H370a6.92,6.92,0,0,0-.55-1.6l.72-.22a9,9,0,0,1,.59,1.82H378Zm-.93,11.85a1.29,1.29,0,0,1-1.48,1.43h-1.49l-.24-.72c.42,0,.84.06,1.25.06a2,2,0,0,0,1-.17.68.68,0,0,0,.28-.61V20.8H364.41v6.68h-.72V20.16h13.36ZM375.3,18.8h-9.86V15.54h9.86Zm-.72-.66V16.21h-8.42v1.93ZM374,25.61h-7.16V22.29H374Zm-.72-.65v-2h-5.72v2Z"/><path class="cls-1" d="M398.52,14.09H385.44v5.83a17.45,17.45,0,0,1-.43,4.31,14.12,14.12,0,0,1-1.39,3.27L383,27a11.84,11.84,0,0,0,1.4-3.47,18.41,18.41,0,0,0,.32-3.61V13.42h6.76a13.93,13.93,0,0,0-.77-1.3l.61-.37a18,18,0,0,1,.95,1.67h6.25Zm.34,12.76-.45.65a23.36,23.36,0,0,1-6.1-1.73,21.62,21.62,0,0,1-6.71,1.71l-.38-.7a20.45,20.45,0,0,0,6.23-1.38,9.32,9.32,0,0,1-3.37-3.5h-.77v-.66h9V22a8.92,8.92,0,0,1-3.26,3.37A23.08,23.08,0,0,0,398.86,26.85ZM398.52,17h-3.2v2.91h-6.25V17h-2.84V16.3h2.84V14.72h.72V16.3h4.81V14.72h.72V16.3h3.2Zm-3,4.93h-6.58A8,8,0,0,0,392.24,25,8.27,8.27,0,0,0,395.49,21.9Zm-.89-2.68V17h-4.81v2.25Z"/><path class="cls-1" d="M405.48,19.85a20,20,0,0,1-1.32,4.91l-.64-.29a22.07,22.07,0,0,0,1.3-4.8Zm3.66-1.32H407v9h-.72V18.53h-2.59v-.66h2.59v-6H407v6h2.16Zm-3.66-2.27-.66.22a20.27,20.27,0,0,0-1-3.09l.65-.27A24.34,24.34,0,0,1,405.48,16.26Zm4-2.87a16.06,16.06,0,0,1-1,3.31l-.63-.25a16,16,0,0,0,.94-3.19Zm.29,9.81-.65.31A25.55,25.55,0,0,0,407.9,20l.61-.29A23.34,23.34,0,0,1,409.75,23.2Zm8.57,3c0,.85-.54,1.27-1.62,1.27h-1.35l-.25-.7c.38,0,.81,0,1.26,0a2.39,2.39,0,0,0,1-.14.49.49,0,0,0,.21-.45V24.53h-6.4a5.73,5.73,0,0,1-1.59,2.93l-.54-.48a5.67,5.67,0,0,0,1.22-1.84,8.88,8.88,0,0,0,.38-3V19.45h7.65Zm.87-8.07h-9.35v-.63h4.38V16h-3.73v-.61h3.73V13.89h-4v-.63h4V11.88h.72v1.38h4v.63h-4v1.48h3.47V16h-3.47v1.51h4.25Zm-1.59,5.8V22.31h-6.21a11.64,11.64,0,0,1-.11,1.61Zm0-2.23V20.06h-6.21v1.63Z"/><path class="cls-1" d="M439.76,24.46h-7.47v3h-.72v-3h-7.46v-.63h7.46v-2h-1.76v-6.1a18.35,18.35,0,0,1-1.58,1.77l-.44-.6a14.65,14.65,0,0,0,3.42-5l.7.23a12.86,12.86,0,0,1-1.06,2.09h3.94a10.9,10.9,0,0,0-.81-2.07l.66-.19a11.89,11.89,0,0,1,.92,2.26h3.77v.61h-4.27v1.68h3.6v.6h-3.6v1.79h3.6v.6h-3.6v1.78h4.5v.59h-7.27v2h7.47Zm-12.35-7.15-.41.56a13,13,0,0,0-2.79-1.49l.4-.6A13.62,13.62,0,0,1,427.41,17.31Zm1,2a14.55,14.55,0,0,1-3.74,3.43l-.41-.56A15.82,15.82,0,0,0,428,18.8Zm.09-5.3-.41.59a16,16,0,0,0-2.9-2l.41-.57A15.58,15.58,0,0,1,428.54,14Zm5.8,2.45V14.77h-3.82v1.68Zm0,2.39V17.05h-3.82v1.79Zm0,2.38V19.44h-3.82v1.78Z"/><path class="cls-1" d="M315.38,40.44l-.37.7a16.61,16.61,0,0,1-7.42-5,17.24,17.24,0,0,1-7.46,5.05l-.36-.68a17.91,17.91,0,0,0,7-4.41h-2.09v-.68h3.21A15.41,15.41,0,0,0,315.38,40.44ZM315,50.35H300.12v-.67h7.09V45.93h-5.07v-.67h5.07v-3.6h-5V41H313v.68h-5v3.6h5v.67h-5v3.75H315Z"/><path class="cls-1" d="M326.63,44.44,326,45a32.73,32.73,0,0,0-2-2.72v8.44h-.72V41.85a22.6,22.6,0,0,1-2.53,4.89l-.57-.54a20.23,20.23,0,0,0,3-6h-3v-.66h3.06V36.61c-.93.24-1.7.42-2.31.53l-.32-.63a19.39,19.39,0,0,0,5.08-1.45l.41.57a18.67,18.67,0,0,1-2.14.78v3.13h2.27v.66H324v1.12A28.18,28.18,0,0,1,326.63,44.44Zm9.27,5.88H325.77v-.69h4.74V46.56H326.4v-.67h4.11V43c-1.49.14-2.75.22-3.81.23l-.26-.64a44.73,44.73,0,0,0,8.74-.94l.31.59a41.26,41.26,0,0,1-4.26.69v3h4v.67h-4v3.07h4.67Zm-1.25-10h-7.51V35.65h7.51Zm-.72-.66V36.32h-6.07v3.35Z"/><path class="cls-1" d="M350.39,38.62h-1.27v2.06H346V42h3.16V44.6h-3.19A16.88,16.88,0,0,1,344.81,46h2.63c.09-.2.19-.44.29-.72l.7.16-.25.56h2.13v.61h-2.44a7.05,7.05,0,0,1-1.78,2.19c.61.26,1.55.68,2.81,1.27l-.41.57c-1.25-.62-2.25-1.09-3-1.43a12.65,12.65,0,0,1-4.33,1.45l-.29-.66A12.21,12.21,0,0,0,344.76,49c-1.35-.57-2.19-.91-2.52-1l1.2-1.28h-2.77V46H344c.45-.54.83-1,1.13-1.44h-3V42h3.15V40.68h-3.15V38.62H340.8V38h1.33V36.12h3.15v-1H346v1h3.16V38h1.27ZM345.28,38V36.71h-2.46V38Zm0,2V38.62h-2.46v1.44Zm0,3.94V42.57h-2.46V44Zm1.84,2.65h-2.86l-1,1,2.16.87A6,6,0,0,0,347.12,46.65ZM348.43,38V36.71H346V38Zm0,2V38.62H346v1.44Zm0,3.94V42.57H346V44Zm8-5.33h-1.19a24,24,0,0,1-.52,5.81,9.92,9.92,0,0,1-1.26,3,9.56,9.56,0,0,0,2.92,2.72l-.45.58a13.84,13.84,0,0,1-2.88-2.69,10.46,10.46,0,0,1-3.13,2.65l-.51-.59a9.67,9.67,0,0,0,3.22-2.67,16.6,16.6,0,0,1-1.63-5.2l.66-.22a13.7,13.7,0,0,0,1.42,4.77,9.26,9.26,0,0,0,1.06-2.74,22.22,22.22,0,0,0,.44-5v-.4h-2.45a17.14,17.14,0,0,1-1.93,3.76l-.52-.5a16.32,16.32,0,0,0,2.8-7l.69.23a22.36,22.36,0,0,1-.81,2.89h4.07Z"/><path class="cls-1" d="M365.9,35.17a18.71,18.71,0,0,1-.86,2.24l-.6,1.28v12h-.72V40a17.93,17.93,0,0,1-2.17,2.78l-.43-.59a17.73,17.73,0,0,0,4.11-7.22Zm11.08,15H365.4v-.66h3.83a63.26,63.26,0,0,0-2.18-10.14l.46-.34h-1.87v-.66h5.55a16.77,16.77,0,0,0-1.27-3.24l.67-.29A20.83,20.83,0,0,1,372,38.41h4.71v.66H374.8l.51.25a45,45,0,0,1-2.15,10.23H377Zm-2.36-11.14h-6.93a71.75,71.75,0,0,1,2.23,10.48h2.52A45.2,45.2,0,0,0,374.62,39.07Z"/><path class="cls-1" d="M386.86,35.2c-.28.78-.87,2.13-1.76,4V50.68h-.72V40.58a27.14,27.14,0,0,1-2.07,2.9l-.51-.6a24.91,24.91,0,0,0,4.34-7.9Zm10.57,11.29a12.24,12.24,0,0,1-.25,2.52c-.17.82-.5,1.27-1,1.38a29.37,29.37,0,0,1-4.25.17l-1.38,0a1.2,1.2,0,0,1-.92-.35,1.39,1.39,0,0,1-.3-.95V35.1h.72v6.11h7.13v.67h-7.13v7.4a.51.51,0,0,0,.26.5,7.31,7.31,0,0,0,1.89.13,15.68,15.68,0,0,0,3.85-.25q.54-.24.63-3.48Z"/><path class="cls-1" d="M405.65,42.07l-.5.58a18.63,18.63,0,0,0-2.88-2.41l.48-.52A25.51,25.51,0,0,1,405.65,42.07Zm-.07,2.63A30.48,30.48,0,0,1,403,50.64l-.61-.44a25.83,25.83,0,0,0,2.57-5.82Zm.4-7.25-.5.58a16,16,0,0,0-2.76-2.47l.49-.48A17.88,17.88,0,0,1,406,37.45Zm12,10a11.27,11.27,0,0,1-.47,1.91c-.24.68-.44,1.07-.63,1.17a1.19,1.19,0,0,1-.52.14,1.14,1.14,0,0,1-.61-.18,2.58,2.58,0,0,1-.69-1.13,12.81,12.81,0,0,1-.63-2,12.83,12.83,0,0,1-3.44,3l-.49-.51a11.26,11.26,0,0,0,3.73-3.44,49.14,49.14,0,0,1-.68-8.47h-6v4.42a27.35,27.35,0,0,1-.33,4.73,10.79,10.79,0,0,1-1.27,3.46l-.62-.46a9.85,9.85,0,0,0,1.1-2.79,22.39,22.39,0,0,0,.4-4.86V37.38h6.75V35.1h.72v2.28h3.64v.67h-3.64a52.56,52.56,0,0,0,.5,7.61,16.51,16.51,0,0,0,1.73-5.58l.67.2a16.39,16.39,0,0,1-2.2,6.37,21.14,21.14,0,0,0,.7,2.36c.24.64.46,1,.64,1a.3.3,0,0,0,.24-.13,4,4,0,0,0,.36-.94,12,12,0,0,0,.38-1.83Zm-5-6.95h-4.72v-.67H413Zm-.41,6.64h-3.8V42.33h3.8Zm-.7-.67V43h-2.4v3.5Zm5.41-10-.57.44a6.78,6.78,0,0,0-1.26-1.55l.56-.38A6.92,6.92,0,0,1,417.26,36.55Z"/><path class="cls-1" d="M427.9,37a17.77,17.77,0,0,1-4.41,7l-.52-.46a18.19,18.19,0,0,0,4.28-6.81ZM436,42.78a14.84,14.84,0,0,1-4.13,4.94,21,21,0,0,1-7.28,3.09l-.47-.65q8.34-1.71,11.23-7.74Zm-4.78,2.45h-.71V35.08h.71Zm7.35-2.68L438,43a37.37,37.37,0,0,0-4.29-5.89l.55-.41A33.77,33.77,0,0,1,438.52,42.55Z"/><path class="cls-1" d="M459,50.14l-.54.56A17.25,17.25,0,0,1,451.17,39q-.78,6.79-7.3,11.75l-.49-.56a17,17,0,0,0,7.39-14.57V35.1h.74a19,19,0,0,0,1.94,8.67A17,17,0,0,0,459,50.14Z"/><path class="cls-1" d="M479.11,44a31,31,0,0,1-.22,3.79,7.12,7.12,0,0,1-.47,2.24,1.15,1.15,0,0,1-.68.55,5.66,5.66,0,0,1-1.5.14l-1.09,0-.26-.7,2,0a1,1,0,0,0,.85-.32,5.56,5.56,0,0,0,.46-2,27.35,27.35,0,0,0,.22-3H467.07a21.58,21.58,0,0,1-2.78,2.83l-.44-.67a16.29,16.29,0,0,0,5.56-8.38h-4.9v-.69h5.08a22,22,0,0,0,.52-2.78l.71.17a24.93,24.93,0,0,1-.48,2.61H477c-.15.88-.36,1.92-.63,3.11h1.78c-.11.86-.29,1.9-.54,3.11Zm-10.89-7.09-.61.38a9.75,9.75,0,0,0-1.71-1.83l.59-.38A10.3,10.3,0,0,1,468.22,36.87Zm.43,9.22a22.22,22.22,0,0,1-2,4.36l-.69-.34a18.86,18.86,0,0,0,2.1-4.19Zm8.64-4.55H469A17,17,0,0,1,467.57,44h9.28C477,43.06,477.19,42.25,477.29,41.54Zm-1.13-3.11h-6a21.84,21.84,0,0,1-.85,2.42h6.3Zm-4.84,11.84-.78.12a22.89,22.89,0,0,0-.63-4.3l.69-.14A31.9,31.9,0,0,1,471.32,50.27Zm2.84-1-.72.24A15.45,15.45,0,0,0,472.35,46l.66-.2A23.58,23.58,0,0,1,474.16,49.32Zm2.58-.89-.65.29a15.71,15.71,0,0,0-1.28-2.85l.61-.28A20.32,20.32,0,0,1,476.74,48.43Z"/><path class="cls-1" d="M490.15,37.59h-5.68v-.66H487a6.32,6.32,0,0,0-.72-1.75l.72-.29a7.36,7.36,0,0,1,.81,2h2.35Zm-.65,2.59h-4.62v-.66h4.62Zm0,2.67h-4.62v-.66h4.62Zm-.2,7.49h-.72v-1h-2.79v1.38h-.72V44.87h4.23Zm-.72-1.71V45.54h-2.79v3.09Zm11.47-2.81h-4.86q-.63,3.69-5,4.86l-.39-.59q4.05-1.05,4.64-4.27h-4.28v-.66h4.38a13.86,13.86,0,0,0,.1-1.79l0-.9H491V36.75h.72v5.06h7.43v3.35h.92ZM498.53,40h-5.22V35.54h5.22Zm-.72-.67V36.21H494v3.08Zm.6,5.87V42.47h-3.07l0,.89a16.4,16.4,0,0,1-.09,1.8Zm1.53,5-.58.48a33.34,33.34,0,0,0-3.73-3.4l.5-.47A46.6,46.6,0,0,1,499.94,50.2Z"/><path class="cls-1" d="M520.57,43.74h-11.1a8.13,8.13,0,0,1-4,6.54l-.53-.57a7.25,7.25,0,0,0,3.82-6h-3.69v-.67h7.39V41h-6.27V40.3h6.27V38.21h-6.89v-.67h14.51v.67h-6.89V40.3h6.28V41h-6.28v2.11h7.4Zm0,6.6H508.44v-.66h5.75V46.52H510v-.65h9.77v.65h-4.83v3.16h5.69Zm-9.68-13.75-.61.43a9.68,9.68,0,0,0-1.82-1.64l.59-.45A10.26,10.26,0,0,1,510.92,36.59Zm6.59-1.23A11,11,0,0,1,515.6,37l-.6-.46a9,9,0,0,0,1.89-1.63Z"/><path class="cls-1" d="M299.6,215.29a5.7,5.7,0,0,0,2.94.93,3.79,3.79,0,0,0,2.53-.81,2.75,2.75,0,0,0,.95-2.2,2.63,2.63,0,0,0-1-2.26,4.94,4.94,0,0,0-3-.79h-1.06v-.82h.94a4.31,4.31,0,0,0,2.77-.77,2.63,2.63,0,0,0,.94-2.18,2.56,2.56,0,0,0-.71-1.93,2.81,2.81,0,0,0-2-.67,5,5,0,0,0-2.68.9v-1A6.46,6.46,0,0,1,303,203a3.65,3.65,0,0,1,2.55.87,3,3,0,0,1,1,2.32,3.33,3.33,0,0,1-2.66,3.51v0a3.49,3.49,0,0,1,2.28,1,3.25,3.25,0,0,1,.86,2.3,3.73,3.73,0,0,1-1.22,2.89,4.65,4.65,0,0,1-3.23,1.1,6.22,6.22,0,0,1-2.92-.72Z"/><path class="cls-1" d="M312.81,216.81V203.19h3.42a7.25,7.25,0,0,1,5.17,1.69,6.51,6.51,0,0,1,1.77,4.93,7.62,7.62,0,0,1-.87,3.69,5.92,5.92,0,0,1-2.48,2.45,8,8,0,0,1-3.79.86Zm1-12.72v11.84h2.13a6.37,6.37,0,0,0,4.63-1.58,6,6,0,0,0,1.62-4.5q0-5.76-6.07-5.76Z"/><path class="cls-1" d="M343.63,208.44h-4.54v7.94a1.17,1.17,0,0,1-.32.89,1.68,1.68,0,0,1-1.1.37c-.53,0-1.17.05-1.92.05l-1.14,0-.27-.7c.54,0,1.1,0,1.66,0a9.17,9.17,0,0,0,2.06-.12.53.53,0,0,0,.31-.56v-7.89a17.2,17.2,0,0,1-10,7.77l-.45-.62a16.77,16.77,0,0,0,5.6-2.77,15.5,15.5,0,0,0,4.05-4.38h-7.83l.75-5.33h-1.45v-.68h13.63v.68h-3.59v4.66h4.54Zm-5.26-.67v-4.66h-7.14l-.67,4.66Z"/><path class="cls-1" d="M354.3,210.61l-.54.49a24.09,24.09,0,0,0-1.86-3.24v9.79h-.71V207.52a16.77,16.77,0,0,1-2.35,5.06l-.51-.53a22.69,22.69,0,0,0,2.78-6h-2.56v-.66h2.64v-3.35h.71v3.35H354v.66H351.9V207A18.3,18.3,0,0,1,354.3,210.61Zm9.85,2.85h-5.33a4.58,4.58,0,0,1-1.47,2.58,8.84,8.84,0,0,1-3.75,1.59l-.41-.6a8.92,8.92,0,0,0,3.51-1.33,4,4,0,0,0,1.4-2.24h-4.55v-.67h4.67a10.18,10.18,0,0,0,.1-1.47H355v-5.24h7.78v5.24H359a12.33,12.33,0,0,1-.09,1.47h5.21Zm-5.6-9.19h-1.31v1.31h-.72v-1.31h-2.76v-.67h2.76v-1.53h.72v1.53h1.31Zm3.53,4.09v-1.61h-6.34v1.61Zm0,2.3V209h-6.34v1.63Zm1.91-6.39H361.4v1.31h-.73v-1.31h-1.44v-.67h1.44v-1.53h.73v1.53H364Zm.12,12.79-.46.57a25.72,25.72,0,0,0-4.16-2.49l.45-.58A30.68,30.68,0,0,1,364.11,217.06Z"/><path class="cls-1" d="M384.67,217.15h-15.6v-.68h5a38.9,38.9,0,0,0-2.37-9.72l.48-.29h-2.47v-.68H377a19.22,19.22,0,0,0-1.56-3.59l.65-.27a23.21,23.21,0,0,1,1.64,3.86h6.43v.68h-2.48l.5.29a70.65,70.65,0,0,1-2.74,9.72h5.28Zm-3.25-10.69h-9a56.71,56.71,0,0,1,2.37,10h3.82A58.58,58.58,0,0,0,381.42,206.46Z"/><path class="cls-1" d="M397.05,216.33l-.74.28c-.16-.55-.38-1.19-.66-1.91l-5.37,2.11-.36-.79a1,1,0,0,0,.27-.62V202.48h6.18v7.74h-5.46v5.56c1.39-.49,2.88-1.06,4.49-1.7-.33-.8-.68-1.56-1.07-2.29l.67-.31A28.18,28.18,0,0,1,397.05,216.33ZM395.65,206v-2.84h-4.74V206Zm0,3.53v-2.87h-4.74v2.87Zm8.82,5.14a1.14,1.14,0,0,1-.27.8,1.06,1.06,0,0,1-.75.34c-.32,0-.72.05-1.21.05l-1.25,0-.23-.77c.63.06,1.42.1,2.36.1a.55.55,0,0,0,.62-.62V203.15h-4.36v14.63h-.72V202.41h5.81Z"/><path class="cls-1" d="M425.67,217.31H410v-.68h7.42v-3.31h-6.35v-.67h6.35v-2.59q-2.74.24-5.64.24h-.58l-.27-.64a71,71,0,0,0,13.1-1.17l.4.59c-2.12.41-4.22.72-6.29.91v2.66h6.45v.67h-6.45v3.31h7.49ZM423.78,207H411.92v-4.61h11.86Zm-.72-.67v-3.26H412.64v3.26Z"/><path class="cls-1" d="M436.71,213.32q-1.09.68-5.82,2.77l-.38-.6L433,214.4V209h-2.24v-.67H433V204h-2.44v-.66H436V204h-2.26v4.3h2V209h-2v5.13a24.28,24.28,0,0,0,2.85-1.46Zm9.45,1.1a13.87,13.87,0,0,1-.26,1.9,1.37,1.37,0,0,1-.53.94,4.7,4.7,0,0,1-1.75.19,7.08,7.08,0,0,1-1.2-.07.88.88,0,0,1-.48-.33,1.32,1.32,0,0,1-.2-.8v-4.44H439.8a5.49,5.49,0,0,1-1.07,3.55,8.58,8.58,0,0,1-3.68,2.33l-.36-.49a9.13,9.13,0,0,0,3.44-2.18,4.67,4.67,0,0,0,.95-3.05v-.16H437.3v-9.22h7.6v9.22h-2.44v4.46c0,.24.08.39.22.45a3.78,3.78,0,0,0,1,.08,5.34,5.34,0,0,0,1.23-.08c.18,0,.32-.37.42-1a11.72,11.72,0,0,0,.17-1.64Zm-2-9v-2.18H438v2.18Zm0,2.85v-2.21H438v2.21Zm0,2.89v-2.24H438v2.24Z"/><path class="cls-1" d="M303.32,235.11a26.32,26.32,0,0,1-3.11,5.86l-.61-.5a27.9,27.9,0,0,0,3.11-5.84Zm0-3-.5.63a21,21,0,0,0-3.21-2.42l.47-.54A20.73,20.73,0,0,1,303.36,232.13Zm.25-4.43-.56.54a20.74,20.74,0,0,0-2.78-2.59l.5-.51A20.46,20.46,0,0,1,303.61,227.7Zm11.81,10.09h-1.28v1.64a1.46,1.46,0,0,1-.24.9,1.2,1.2,0,0,1-.54.43,3.61,3.61,0,0,1-1.07.11l-1.06,0-.36-.66a18.34,18.34,0,0,0,2,.07.48.48,0,0,0,.54-.55v-1.91h-7.63v3.05h-.72v-3.05h-1.42v-.57h1.42v-4.43h4.18v-1.46h-5.49v-.58H307v-1.51h-2.3v-.57H307v-1.44h-2.78v-.58H307v-1.4h.71v1.4h3.89v-1.4h.72v1.4H315v.58h-2.77v1.44h2.3v.57h-2.3v1.51h3.13v.58H310v1.46h4.17v4.43h1.28ZM309.25,235v-1.67h-3.46V235Zm0,2.19V235.6h-3.46v1.62Zm2.3-8.55v-1.44h-3.89v1.44Zm0,2.08v-1.51h-3.89v1.51Zm1.87,4.28v-1.67H310V235Zm0,2.19V235.6H310v1.62Z"/><path class="cls-1" d="M336,239.79l-.27.7h-6.11a13.62,13.62,0,0,1-4-.48,7.84,7.84,0,0,1-2.77-1.55,10,10,0,0,1-2.28,2.36l-.56-.5a9,9,0,0,0,2.6-2.91,9.65,9.65,0,0,0,1.15-2.91h-3.18v-.66a37.81,37.81,0,0,0,3-3.93h-3.44v-.67h4.29v.67q-1.23,1.82-3,3.93h3v.66a12.54,12.54,0,0,1-1.28,3.4,8.2,8.2,0,0,0,2.64,1.5,11.28,11.28,0,0,0,3.45.45h4.08Zm-12.12-11.87-.55.48a19.62,19.62,0,0,0-2.54-2.56l.45-.5A22.86,22.86,0,0,1,323.91,227.92Zm11.25,9.36a1.4,1.4,0,0,1-.31,1,1,1,0,0,1-.8.35h-1.19l-.24-.74a6.56,6.56,0,0,0,.73,0,1.67,1.67,0,0,0,.87-.15.52.52,0,0,0,.22-.48v-1.95H331v3.2h-.72v-3.2H326.9v3.31h-.72v-9.23h4.23c-1.17-.76-2.21-1.39-3.11-1.87l.43-.53c.83.46,1.64,1,2.45,1.48a25.18,25.18,0,0,0,3.63-2.1h-8.18v-.67h9.26v.63a29.09,29.09,0,0,1-4.1,2.53l.75.53h3.62ZM330.32,232v-2H326.9v2Zm0,2.63v-2H326.9v2Zm4.12-2.63v-2H331v2Zm0,2.63v-2H331v2Z"/><path class="cls-1" d="M346.51,226.76H344.2a30.77,30.77,0,0,1-1.28,4.7h3.21v8h-.72v-.9h-2.16v1.26h-.74v-7.34a12.35,12.35,0,0,1-1.2,2l-.51-.55a16.82,16.82,0,0,0,2.66-7.17H341v-.66h5.49Zm-1.1,11.1v-5.73h-2.18v5.73Zm11,1.89h-7.33v1.14h-.71V232a12.06,12.06,0,0,1-1.4,1.3l-.47-.5a14.62,14.62,0,0,0,4.06-5.23h-2.66v2.2h-.72v-2.86h3.65c.16-.4.35-1,.58-1.75l.64.2a10,10,0,0,1-.44,1.55h4.32v2.86h-.72v-2.2h-3.88a15.18,15.18,0,0,1-2.35,3.73h3.57a10.77,10.77,0,0,0-.69-1.69l.65-.25a15.18,15.18,0,0,1,.76,1.94h2.89v.66H353v1.86h2.9v.66H353v1.93h2.9v.67H353v2h3.42Zm-4.14-5.95v-1.86h-3.19v1.86Zm0,2.59v-1.93h-3.19v1.93Zm0,2.7v-2h-3.19v2Z"/><path class="cls-1" d="M366.91,227.77h-5.56v-.66h2.47a6.2,6.2,0,0,0-.72-1.75l.72-.29a7.12,7.12,0,0,1,.81,2h2.28Zm-.62,2.59h-4.41v-.67h4.41Zm0,2.66h-4.41v-.66h4.41Zm-.2,7.49h-.72v-1h-2.58v1.38h-.72V235h4Zm-.72-1.71v-3.09h-2.58v3.09Zm3.4-3.72a19.24,19.24,0,0,1-1.48,4.3l-.64-.29a16.35,16.35,0,0,0,1.42-4.2Zm7.38-9.38c0,1.3-.1,2.56-.2,3.78a13.28,13.28,0,0,1-.26,2.17,1.51,1.51,0,0,1-.43.61,1.71,1.71,0,0,1-.77.35,5.69,5.69,0,0,1-1.11.1l-.92,0-.19-.7,1.16,0c.81,0,1.32-.16,1.51-.47s.36-2,.47-5.16H372.8a6.88,6.88,0,0,1-5.51,7l-.41-.59a7.88,7.88,0,0,0,3.73-2.14,12.26,12.26,0,0,0-2.24-1.95l.47-.51a12.76,12.76,0,0,1,2.21,1.88,7,7,0,0,0,1.05-3.65h-4.75v-.67Zm-1.69,11.65a10.43,10.43,0,0,1-.29,2.23,1.34,1.34,0,0,1-.59.82,4.17,4.17,0,0,1-1.6.2,3.09,3.09,0,0,1-1.71-.31,1.31,1.31,0,0,1-.4-1.12v-4.36h.72v4.43a.53.53,0,0,0,.29.51,3.63,3.63,0,0,0,1.33.15,1.46,1.46,0,0,0,1.14-.33,6.69,6.69,0,0,0,.43-2.41Zm-1.14-2-.52.48a15.91,15.91,0,0,0-2-2.44l.47-.48A11.71,11.71,0,0,1,373.32,235.39Zm3.61,3.45-.67.31a21.4,21.4,0,0,0-1.51-4.09l.63-.31A21.07,21.07,0,0,1,376.93,238.84Z"/><path class="cls-1" d="M397.45,233.06h-15.6v-.68h15.6Z"/><path class="cls-1" d="M408.21,235.2h-5.89v-.68h5.89Zm-.5-6.71h-5v-.69h5ZM418,240.33l-.41.61q-4.71-3-6-7.13a12.46,12.46,0,0,1-5.55,7.1l-.45-.59a10.5,10.5,0,0,0,3.08-2.52,10.21,10.21,0,0,0,2-3.19,11.12,11.12,0,0,0,.54-3.72v-.55H412c0,.32,0,.63,0,.95a8.15,8.15,0,0,0,1.56,5A16.75,16.75,0,0,0,418,240.33Zm-.54-11.28a8.62,8.62,0,0,1-.81,1.94,17.17,17.17,0,0,1-2.05,3.18l-.56-.41a16.29,16.29,0,0,0,2.75-4.83h-7.14a14.3,14.3,0,0,1-2.2,3.54L407,232a15.37,15.37,0,0,0,3.25-6.76l.71.17a26.52,26.52,0,0,1-1,2.89h7.52Z"/><path class="cls-1" d="M432.32,232.13l-.6.39a19.34,19.34,0,0,0-1-1.8l-2.63.43v3.07h3.59v.67h-3.59v4c1.39-.22,2.76-.47,4.11-.76v.74c-2.83.59-5.95,1.07-9.35,1.46l-.17-.72c1.94-.24,3.5-.44,4.69-.61v-4.06H423.2v-.67h4.21v-3q-2.16.28-4.17.42l-.13-.64a14.46,14.46,0,0,0,3.64-4.65H423v-.69h9.23v.69h-4.64a20.86,20.86,0,0,1-3.35,4.5q3.69-.36,6.15-.81c-.39-.64-.8-1.25-1.23-1.84l.61-.36A22.88,22.88,0,0,1,432.32,232.13Zm2,5.37h-.72V226.37h.72Zm3.61,1.81c0,1-.47,1.51-1.41,1.51l-2.45,0-.29-.74c.71,0,1.58.05,2.6.05.56,0,.84-.3.84-.91V225.27h.71Z"/><path class="cls-1" d="M448,225.34a18.71,18.71,0,0,1-.86,2.24l-.6,1.28v12h-.72V230.13a17.56,17.56,0,0,1-2.17,2.79l-.43-.59a17.83,17.83,0,0,0,4.11-7.23Zm11.08,15H447.48v-.67h3.83a63.09,63.09,0,0,0-2.18-10.13l.46-.35h-1.87v-.66h5.55a16.77,16.77,0,0,0-1.27-3.24l.67-.29a20.83,20.83,0,0,1,1.37,3.53h4.71v.66h-1.87l.51.26a44.88,44.88,0,0,1-2.15,10.22h3.82Zm-2.36-11.15h-6.93A71.75,71.75,0,0,1,452,239.72h2.52A45.09,45.09,0,0,0,456.7,229.24Z"/><path class="cls-1" d="M48.58,19.52H44.24a11.67,11.67,0,0,1-2.72,4.57A70.71,70.71,0,0,1,48.2,27l-.46.57q-2.49-1.26-6.81-2.93a14,14,0,0,1-7.48,2.88l-.38-.63a15.07,15.07,0,0,0,7.07-2.56Q37.2,23.23,35,22.6a18.37,18.37,0,0,0,2.44-3.08H33v-.66h4.82c.75-1.23,1.4-2.39,1.93-3.49l.67.36c-.71,1.33-1.3,2.37-1.76,3.13H43.7c.2-.61.36-1.13.47-1.57l.7.2c-.12.44-.25.89-.41,1.37h4.12Zm-.74-2.44h-.72V14.52H34.43V17h-.72V13.86h6.68A11.39,11.39,0,0,0,39.62,12l.66-.23a11.44,11.44,0,0,1,.9,2.11h6.66Zm-4.38,2.44H38.23a20,20,0,0,1-2,2.69q2.19.72,4.52,1.59A10,10,0,0,0,43.46,19.52Z"/><path class="cls-1" d="M56.61,17.74a33.35,33.35,0,0,1-2.54,7.69L53.42,25a26.21,26.21,0,0,0,2.49-7.45Zm9,4.68c-.07,1-.17,2-.3,2.77a3,3,0,0,1-.5,1.52,1.46,1.46,0,0,1-.66.41,12,12,0,0,1-2.16.1c-.91,0-1.62,0-2.15,0a1.65,1.65,0,0,1-1.09-.37,1.43,1.43,0,0,1-.3-1V15.94h.72v9.78c0,.39.12.62.37.7a12.89,12.89,0,0,0,2.44.12,13.88,13.88,0,0,0,1.91-.06,1,1,0,0,0,.38-.27,3.27,3.27,0,0,0,.39-1.45,21.3,21.3,0,0,0,.19-2.59ZM63.83,16.7l-.62.49a21.55,21.55,0,0,0-4-4.81l.55-.5A24.81,24.81,0,0,1,63.83,16.7Zm5.25,7.77-.75.28a36.21,36.21,0,0,0-2.9-6.81l.66-.39A40.63,40.63,0,0,1,69.08,24.47Z"/><path class="cls-1" d="M82.46,15.89l-.52.49a27.1,27.1,0,0,0-3.61-3.48,19.35,19.35,0,0,1-3,3.14h5.42v.66H78.42V19h3v.66h-3v2.25h2.65v5.56h-.72v-.86H75.78v.86h-.72V21.88H77.7V19.63H74.34V19H77.7V16.7H75.24v-.56l-.89.69-.48-.57a15.23,15.23,0,0,0,4.43-4.53L79,12l-.24.38A26.11,26.11,0,0,1,82.46,15.89Zm-2.11,10V22.55H75.78V25.9Zm9.05-7.4a20.2,20.2,0,0,1-1.22,4.59l-.67-.27a16.05,16.05,0,0,0,1.12-3.64H85.86V26a1.36,1.36,0,0,1-.39,1,1.34,1.34,0,0,1-1,.38H83l-.27-.68h.75a3.92,3.92,0,0,0,1.39-.15c.21-.1.31-.37.31-.79V19.18H82.06V18.5h4.4a22.56,22.56,0,0,0-3.59-3.35l.43-.47a29,29,0,0,1,2.36,2,30.26,30.26,0,0,0,2.19-3.51H82V12.5h6.62v.69a35.5,35.5,0,0,1-2.49,4c.45.47.77.82,1,1l-.3.27Z"/><path class="cls-1" d="M110.21,26.55l-.27.64h-6a14.44,14.44,0,0,1-3.76-.53,7.53,7.53,0,0,1-3-1.5,11,11,0,0,1-2.22,2.35l-.53-.44a9.49,9.49,0,0,0,3.57-5.87h-3v-.66a34.89,34.89,0,0,0,3-3.9h-3.4V16h4.25v.66q-.76,1.14-3,3.9h2.89v.66a11.61,11.61,0,0,1-1.18,3.39A7.18,7.18,0,0,0,101,26.28a60.92,60.92,0,0,0,7.2.28Zm-12.13-12-.48.51a22.14,22.14,0,0,0-2.52-2.54l.43-.51A22.55,22.55,0,0,1,98.08,14.58Zm11.66-.43h-2.37l.43.28a17.29,17.29,0,0,1-1.17,2h2.7v7.68a1.43,1.43,0,0,1-.33,1,1.64,1.64,0,0,1-1.16.34h-.6l-.25-.71a3.42,3.42,0,0,0,.59,0,1.76,1.76,0,0,0,.88-.13.5.5,0,0,0,.17-.43V17.05H105v1.56h2.78v.64H105V20.9h1.84v3.18h-4.38V20.9h1.84V19.25H101.5v-.64h2.77V17.05h-3.65v8.42h-.7V16.41h2.66a14.4,14.4,0,0,0-1-2l.39-.26H99.41V13.5h4.81a11,11,0,0,0-.67-1.6l.7-.21A17.94,17.94,0,0,1,105,13.5h4.77Zm-2.55,0h-5a21.08,21.08,0,0,1,1.15,2.26h2.59A15.34,15.34,0,0,0,107.19,14.15Zm-1.07,9.28V21.54h-3v1.89Z"/><path class="cls-1" d="M36.25,42.07l-.5.58a18.63,18.63,0,0,0-2.88-2.41l.48-.52A26.44,26.44,0,0,1,36.25,42.07Zm-.07,2.63a30.48,30.48,0,0,1-2.61,5.94L33,50.2a25.89,25.89,0,0,0,2.58-5.82Zm.39-7.25-.5.58a15.26,15.26,0,0,0-2.76-2.47l.5-.48A17.8,17.8,0,0,1,36.57,37.45Zm12,10a10.39,10.39,0,0,1-.47,1.91c-.23.68-.44,1.07-.62,1.17a1.23,1.23,0,0,1-.52.14,1.17,1.17,0,0,1-.62-.18,2.69,2.69,0,0,1-.68-1.13,12.81,12.81,0,0,1-.63-2,13,13,0,0,1-3.44,3L41.09,50a11.26,11.26,0,0,0,3.73-3.44,50,50,0,0,1-.69-8.47h-6v4.42a27.49,27.49,0,0,1-.32,4.73,10.58,10.58,0,0,1-1.28,3.46l-.61-.46A10.15,10.15,0,0,0,37,47.41a22.52,22.52,0,0,0,.39-4.86V37.38h6.75V35.1h.72v2.28h3.64v.67H44.85a54,54,0,0,0,.5,7.61,16.51,16.51,0,0,0,1.74-5.58l.66.2a16.4,16.4,0,0,1-2.19,6.37,21.14,21.14,0,0,0,.7,2.36c.24.64.45,1,.64,1a.3.3,0,0,0,.24-.13,4,4,0,0,0,.36-.94,12,12,0,0,0,.38-1.83Zm-5-6.95H38.84v-.67h4.72Zm-.41,6.64H39.34V42.33h3.81Zm-.7-.67V43h-2.4v3.5Zm5.41-10-.57.44A6.8,6.8,0,0,0,46,35.44l.56-.38A7,7,0,0,1,47.86,36.55Z"/><path class="cls-1" d="M58.5,37a17.77,17.77,0,0,1-4.41,7l-.52-.46a18.19,18.19,0,0,0,4.28-6.81Zm8,5.79a14.7,14.7,0,0,1-4.12,4.94,21,21,0,0,1-7.29,3.09l-.46-.65Q63,48.45,65.89,42.42Zm-4.77,2.45h-.71V35.08h.71Zm7.35-2.68-.57.45a37.37,37.37,0,0,0-4.29-5.89l.54-.41A33.82,33.82,0,0,1,69.12,42.55Z"/><path class="cls-1" d="M77.32,45.49a19.53,19.53,0,0,1-2.66,4.42l-.59-.38a18.22,18.22,0,0,0,2.57-4.32Zm11-1.11H82.17v1h-.72v-1H75.29V41.16h6.16V39.43H75.87V36.34h5.58V35h.72v1.34h5.58v3.09H82.17v1.73h6.16Zm-6.88-.66V41.83H76v1.89Zm0-5V37H76.59v1.76Zm4.48,9.31A4.63,4.63,0,0,1,85.54,50a1.27,1.27,0,0,1-.91.6,19,19,0,0,1-2.53.1,9.54,9.54,0,0,1-2.9-.24,1,1,0,0,1-.49-.93V45.23h.72v4.21a.42.42,0,0,0,.32.43A14.79,14.79,0,0,0,82.4,50a11.12,11.12,0,0,0,2.21-.11c.23-.07.4-.32.48-.75a6.43,6.43,0,0,0,.14-1.32ZM84,47.86l-.54.45a11.06,11.06,0,0,0-2-2.22l.56-.38A11.3,11.3,0,0,1,84,47.86Zm3-9.1V37H82.17v1.76Zm.58,5V41.83H82.17v1.89Zm1.89,6-.58.43a21.11,21.11,0,0,0-2.67-4.09l.58-.36A23.37,23.37,0,0,1,89.5,49.73Z"/><path class="cls-1" d="M110.12,41.05h-6a25.38,25.38,0,0,1-3.56,2.38H108v7.25h-.73v-1H98.92v1H98.2v-6.1A30.94,30.94,0,0,1,95,45.82l-.4-.64a28.09,28.09,0,0,0,8.39-4.13H94.53V40.4h6.81V37.69H96.21V37h5.13V35.1h.71V37h3.79v.67h-3.79V40.4h1.74a34,34,0,0,0,4.58-4.58l.57.44a39.22,39.22,0,0,1-4.07,4.14h5.25Zm-2.85,5.18V44.06h-8l-.4.19v2Zm0,2.8V46.88H98.92V49Z"/><path class="cls-1" d="M120.08,40.24h-3.32l-.41,3.26H120a45.7,45.7,0,0,1-.27,5.22q-.2,1.35-.66,1.65a5,5,0,0,1-2.28.31c-.45,0-.86,0-1.25,0l-.29-.75c.42,0,.93,0,1.53,0a7.94,7.94,0,0,0,1.66-.09.77.77,0,0,0,.39-.37,6.22,6.22,0,0,0,.26-1.62c.07-.88.12-2.11.15-3.68h-3.63l.59-4.59h3.21V36.23H115v-.67h5.12Zm10.46,3.91h-7.47v5.6a27.19,27.19,0,0,0,3-.94l.13.7a29.79,29.79,0,0,1-3.89,1.2l-.24-.7a.5.5,0,0,0,.28-.48V44.15h-1.6v-.69h1.6V35.54h7.71v.69h-7v1.94h6.17v.69h-6.17V40.8h6.17v.69h-6.17v2h7.47Zm.14,6.05-.36.59a9,9,0,0,1-4.74-5.63l.62-.22a7.38,7.38,0,0,0,1,2.16,13.34,13.34,0,0,0,2.51-1.92l.53.52a27.2,27.2,0,0,1-2.63,2A9.58,9.58,0,0,0,130.68,50.2Z"/><path class="cls-1" d="M149.43,50.27h-.72V48.75H138v1.52h-.72v-14h12.11Zm-.72-2.18V37H138V48.09Z"/><path class="cls-1" d="M171.84,45.93l-.43.59a46.47,46.47,0,0,0-7.15-4.91v9.07h-.72V40.33a31,31,0,0,1-7.09,6.21L156,46q7-4.47,9.18-9.72h-8.93v-.69h15.32v.69h-5.65a14,14,0,0,1-1.65,3.11v1.48A46.32,46.32,0,0,1,171.84,45.93Z"/><path class="cls-1" d="M192.29,49.75l-.27.64H186a14.44,14.44,0,0,1-3.76-.53,7.53,7.53,0,0,1-3-1.5A11,11,0,0,1,177,50.71l-.53-.44A9.45,9.45,0,0,0,180,44.4h-3v-.66a34.89,34.89,0,0,0,3-3.9h-3.4v-.66h4.25v.66q-.76,1.14-3,3.9h2.89v.66a11.61,11.61,0,0,1-1.18,3.39,7.18,7.18,0,0,0,3.57,1.69,60.92,60.92,0,0,0,7.2.28Zm-12.13-12-.48.52a21.39,21.39,0,0,0-2.52-2.55l.43-.51A22.55,22.55,0,0,1,180.16,37.78Zm11.66-.43h-2.37l.43.28a17.29,17.29,0,0,1-1.17,2h2.7V47.3a1.42,1.42,0,0,1-.33,1,1.64,1.64,0,0,1-1.16.34h-.6l-.25-.71a3.42,3.42,0,0,0,.59,0,1.94,1.94,0,0,0,.88-.12.53.53,0,0,0,.17-.44V40.25h-3.66v1.56h2.78v.64h-2.78V44.1h1.84v3.18h-4.38V44.1h1.84V42.45h-2.77v-.64h2.77V40.25H182.7v8.42H182V39.61h2.66a14.4,14.4,0,0,0-1-2l.39-.26h-2.52V36.7h4.81a11,11,0,0,0-.67-1.6l.7-.21a17.94,17.94,0,0,1,.72,1.81h4.77Zm-2.55,0h-5a21.08,21.08,0,0,1,1.15,2.26H188A15.34,15.34,0,0,0,189.27,37.35Zm-1.07,9.28V44.74h-3v1.89Z"/><path class="cls-1" d="M36.25,211.54a35.39,35.39,0,0,1-2.84,6.23l-.62-.5a36.92,36.92,0,0,0,2.85-6.22Zm0-2.62-.5.64a24.57,24.57,0,0,0-2.86-2.42l.46-.54A24.19,24.19,0,0,1,36.21,208.92Zm.16-4.34-.55.55a21.36,21.36,0,0,0-2.45-2.59l.51-.51A33.07,33.07,0,0,1,36.37,204.58Zm3.75,10.22a14.85,14.85,0,0,1-3.55,2.33l-.44-.56a13.54,13.54,0,0,0,3.47-2.27Zm2.09-7.28c-.8.15-1.61.28-2.45.39V209H39v-1l-2.5.23-.12-.65c.89-.05,1.77-.12,2.62-.21v-1.6H36.85v-.67H39v-1.32H36.68v-.66H39v-1.06h.72v1.06h2.4v.66h-2.4v1.32h2.11v.67H39.76v1.53c.85-.11,1.66-.24,2.43-.38ZM48.36,214l-.62.46c-.26-.35-.62-.81-1.08-1.39-1.36.16-2.66.3-3.92.39v3.23a1.06,1.06,0,0,1-.23.68,1,1,0,0,1-.84.31H39.89l-.24-.67,1.22,0a3.56,3.56,0,0,0,1-.08.35.35,0,0,0,.17-.35v-3.11c-1.85.14-3.53.25-5,.31l-.19-.64c2-.71,3.74-1.43,5.31-2.18-1.35.14-2.91.27-4.68.38l-.15-.54a30.55,30.55,0,0,0,4.59-2.28l.58.41a21.52,21.52,0,0,1-3.72,1.77c2.45-.19,4-.32,4.66-.4a8.06,8.06,0,0,0,1.87-1l.63.41a33.74,33.74,0,0,1-7.61,3.44c2.37-.11,5-.32,7.92-.64l-1.05-1.18.59-.4A31.42,31.42,0,0,1,48.36,214ZM48,202.77c0,1-.1,2.06-.23,3.18a6.29,6.29,0,0,1-.46,2.05,1.2,1.2,0,0,1-.67.51,4.28,4.28,0,0,1-1.13.12h-.58l-.25-.72c.3,0,.62,0,.94,0a2,2,0,0,0,.9-.12.61.61,0,0,0,.27-.34A9.71,9.71,0,0,0,47,206q.16-1.26.24-2.55h-2A7.83,7.83,0,0,1,43,208.62l-.52-.45a6.89,6.89,0,0,0,2.13-4.74H42.77v-.66Zm.64,13.82-.47.54a32.39,32.39,0,0,0-3.49-2.35l.47-.51A27.44,27.44,0,0,1,48.62,216.59Z"/><path class="cls-1" d="M57,208.92l-.51.6a21.63,21.63,0,0,0-3.13-2.4l.46-.52A21.8,21.8,0,0,1,57,208.92Zm-.29,2.83a25.79,25.79,0,0,1-2.77,6l-.58-.48a24,24,0,0,0,2.71-5.91Zm.73-7.29-.56.52a14.53,14.53,0,0,0-2.71-2.46l.51-.49A17.77,17.77,0,0,1,57.45,204.46Zm11.63,6.66H67.37V214H63.12v2.33c0,.89-.48,1.33-1.45,1.33l-1.62,0-.28-.69c.64,0,1.17.07,1.6.07a1.55,1.55,0,0,0,.82-.14.49.49,0,0,0,.21-.45V214H58v-.65H62.4v-2.23H57.27v-.65H62.4v-2.2H58v-.64h9.38v2.84h1.71Zm-1.4-8.51a39.39,39.39,0,0,1-9.61,1.06L57.8,203a36.54,36.54,0,0,0,9.53-1Zm-7.33,4.12-.66.29a10.47,10.47,0,0,0-1.32-2.27l.6-.33A10.7,10.7,0,0,1,60.35,206.73Zm3.53-.13-.69.23a9.27,9.27,0,0,0-1-2.23l.62-.28A10.54,10.54,0,0,1,63.88,206.6Zm2.77,3.87v-2.2H63.12v2.2Zm0,2.88v-2.23H63.12v2.23ZM68,204.21A14.2,14.2,0,0,1,66.35,207l-.63-.38a11.15,11.15,0,0,0,1.65-2.71Z"/><path class="cls-1" d="M80.12,217.31H79.4v-1.56H75.28v1.9h-.72V205h1.67a17.44,17.44,0,0,0,1.3-3.17l.7.24A30.18,30.18,0,0,1,77,205h3.1Zm-.72-7.47v-4.16H75.28v4.16Zm0,5.24v-4.57H75.28v4.57Zm9.67-10Q89,209,88.69,212.6a23.68,23.68,0,0,1-.51,4,2.5,2.5,0,0,1-.59.73,4,4,0,0,1-2.16.34l-1.15,0-.24-.69,1.12,0a5.36,5.36,0,0,0,1.92-.2,1.27,1.27,0,0,0,.53-.74,26,26,0,0,0,.43-3.57c.16-2,.26-4.25.29-6.67H83.5a20.35,20.35,0,0,1-2.18,3.68l-.59-.54a18.35,18.35,0,0,0,3.34-6.85l.72.16a21.78,21.78,0,0,1-1,2.86Zm-3.23,8-.65.45a21.36,21.36,0,0,0-2.56-4.17l.57-.44A19.23,19.23,0,0,1,85.84,213.08Z"/><path class="cls-1" d="M99.21,206H97.5v3c.41-.26,1-.66,1.71-1.22l.24.6c-.84.61-1.49,1.07-2,1.36v6.75q0,1.17-1.29,1.17H94.93l-.22-.72L96,217c.5,0,.75-.18.75-.56V210.2c-1.14.7-1.87,1.12-2.17,1.26l-.24-.63c.48-.24,1.29-.7,2.41-1.37V206H94.53v-.69h2.25v-3.25h.72v3.25h1.71Zm10.45,5.45h-.72v-1.64h-4.09v2.25h3.76v3.31a1,1,0,0,1-.39.92,2.49,2.49,0,0,1-1.27.24l-.59,0-.24-.72a6.11,6.11,0,0,0,.73,0c.49,0,.79,0,.89-.17a.53.53,0,0,0,.15-.37V212.7h-3v5h-.69v-5h-3v3.91h-.72v-4.54h3.76v-2.25h-4.07v1.64h-.72v-2.28h10.29Zm0-6h-1.53v2.31h-7.78v-.64h7.06v-1.67H99.68v-.63h7.76v-1.65h-7.06v-.65h7.78v2.3h1.53Z"/><path class="cls-1" d="M120.35,209.75l-2.06.94v5.78a1.37,1.37,0,0,1-.18.69.89.89,0,0,1-.48.4,4,4,0,0,1-1.14.11l-.82,0-.22-.7,1.34,0c.51,0,.77-.18.77-.56V211c-.4.17-1.19.45-2.38.84l-.23-.6c1-.34,1.91-.65,2.61-.95v-4.1h-2.41v-.67h2.41v-3.47h.73v3.47h2.36v.67h-2.36V210c.88-.36,1.52-.63,1.93-.83Zm4.73-4.93h-1.42v2.27h-.73v-2.27h-2.61v-.67h2.61v-2.08h.73v2.08h1.42Zm4.7,12.83h-.72v-.88h-7.31v.88H121v-9.72h8.75ZM125,212V208.6h-3.29V212Zm0,4.16v-3.49h-3.29v3.49Zm4-4.16V208.6h-3.3V212Zm0,4.16v-3.49h-3.3v3.49Zm1.6-11.29h-2.59v2.27h-.72v-2.27h-1.44v-.67h1.44v-2.08h.72v2.08h2.59Z"/><path class="cls-1" d="M141.13,216.34a1.16,1.16,0,0,1-1.32,1.31H139l-.19-.67.79,0c.61,0,.92-.19.92-.58V214a23.84,23.84,0,0,1-2.68,1.26l-.38-.4a7.74,7.74,0,0,1-1.24,2.83l-.62-.4a6.49,6.49,0,0,0,1.39-4.14V209.3h4.19Zm1.1-7.34h-.67v-1.3h-5.12V209h-.67v-1.93h.95v-4.59h4.56v4.59h.95Zm-1.61-4.34v-1.55h-3.23v3.94h1.25v-2.39Zm-.15,8.69v-3.41h-2.86v1.11a13.15,13.15,0,0,1,2.39.78l-.25.6a12.48,12.48,0,0,0-2.16-.74v1.59a7.55,7.55,0,0,1-.15,1.42A20.35,20.35,0,0,0,140.47,213.35Zm.15-6.3v-1.76H139.3v1.76Zm10.52,10.15h-8.78v-.65h2.88a16.53,16.53,0,0,0-.83-2h-.91v-3.1H150v3.1h-.92a13.65,13.65,0,0,1-.79,2h2.84Zm-.1-7h-8.57v-.64H151Zm-.58-1.9H143v-4.81h2.25v-1.38h.65v1.38h1.62v-1.38h.65v1.38h2.25Zm-5.17-2.72v-1.49h-1.6v1.49Zm0,2.13v-1.51h-1.6v1.51Zm4,6.26v-1.84h-5.12v1.84Zm-.92.63h-3.22a18.9,18.9,0,0,1,.77,2h1.6A10.67,10.67,0,0,0,148.39,214.56Zm-.83-9v-1.49h-1.62v1.49Zm0,2.13v-1.51h-1.62v1.51Zm2.25-2.13v-1.49h-1.6v1.49Zm0,2.13v-1.51h-1.6v1.51Z"/><path class="cls-1" d="M157.22,212.15a21.29,21.29,0,0,1-.55,4.42l-.61-.17a21.86,21.86,0,0,0,.56-4.27Zm5.28-9h-2.23v2h1.88v.64h-1.88v1.95h1.88v.64h-1.88v2h1.83v.31q0,5.59-.31,6.31c-.21.48-.74.72-1.58.72h-.74l-.22-.68c.32,0,.64,0,1,0a1.65,1.65,0,0,0,.86-.16c.16-.1.26-.82.3-2.15s.06-2.32.06-3V211H157v-8.48h5.47Zm-2.91,2v-2h-1.87v2Zm0,2.59v-1.95h-1.87v1.95Zm0,2.64v-2h-1.87v2Zm-1.73,6.07c0-.42,0-.84,0-1.28a27.36,27.36,0,0,0-.16-3l.54-.06a29.8,29.8,0,0,1,.24,3.85v.41Zm2-.94-.61.16a20.41,20.41,0,0,0-.46-3.53l.53-.1A20.17,20.17,0,0,1,159.87,215.44Zm1.18-.88-.55.16a22.82,22.82,0,0,0-.6-2.82l.5-.15A21.87,21.87,0,0,1,161.05,214.56ZM167,216l-.56.46a13.86,13.86,0,0,0-1.53-1.69,8.36,8.36,0,0,1-2.3,3l-.51-.49a8,8,0,0,0,2.92-5h-1.8v-4.09h3.31v4.09h-1.35l.51.25a12.79,12.79,0,0,1-.51,1.62A12.23,12.23,0,0,1,167,216Zm4.86-9.51-.47.56a16.89,16.89,0,0,1-4.46-3.74,13.89,13.89,0,0,1-4.27,3.74l-.51-.51a13.31,13.31,0,0,0,4.94-4.57l.56.31-.33.48A13.43,13.43,0,0,0,171.81,206.44Zm-6,5.11V208.8h-1.94v2.75Zm3.57-4.89h-4.68V206h4.68Zm2.38,10.6-.56.46A24.56,24.56,0,0,0,169,215a10.06,10.06,0,0,1-2,2.67l-.55-.49a8.9,8.9,0,0,0,2.91-5h-1.71v-4.09h3.31v4.09h-1.44l.5.25a13,13,0,0,1-.7,2A23.38,23.38,0,0,1,171.74,217.26Zm-1.55-5.71V208.8h-1.94v2.75Z"/><path class="cls-1" d="M40.7,237.4a67.84,67.84,0,0,1-7.47,2.52l-.18-.65a10.63,10.63,0,0,0,1.2-.34V226.85a32.57,32.57,0,0,0,5.87-1.68l.47.5a33.06,33.06,0,0,1-5.62,1.7v4.22h4.9v.66H35v6.44a46.06,46.06,0,0,0,5.73-2Zm7.16-.38c0,.67-.19,1.1-.56,1.29a5.84,5.84,0,0,1-2.2.28l-.82,0-.24-.71q.8.06,1.68.06a2.52,2.52,0,0,0,1.18-.17.71.71,0,0,0,.24-.61V226.67H42.28v14.2h-.72V226h6.3Z"/><path class="cls-1" d="M59.29,233.81l-.54.49a24.09,24.09,0,0,0-1.86-3.24v9.79h-.71V230.72a17,17,0,0,1-2.35,5.06l-.52-.53a22.42,22.42,0,0,0,2.79-6H53.53v-.66h2.65v-3.35h.71v3.35H59v.66H56.89v.87A18.3,18.3,0,0,1,59.29,233.81Zm9.84,2.85H63.81a4.69,4.69,0,0,1-1.47,2.58,9,9,0,0,1-3.75,1.6l-.42-.61a8.92,8.92,0,0,0,3.52-1.33,4,4,0,0,0,1.4-2.24H58.54V236h4.67a10.18,10.18,0,0,0,.1-1.47H60v-5.24h7.78v5.24H64a12.33,12.33,0,0,1-.09,1.47h5.2Zm-5.59-9.19H62.23v1.31h-.72v-1.31H58.75v-.67h2.76v-1.53h.72v1.53h1.31Zm3.53,4.09V230H60.73v1.61Zm0,2.3v-1.63H60.73v1.63ZM69,227.47h-2.6v1.31h-.72v-1.31H64.22v-.67h1.44v-1.53h.72v1.53H69Zm.12,12.79-.47.58a24.59,24.59,0,0,0-4.15-2.5l.44-.58A30.18,30.18,0,0,1,69.1,240.26Z"/><path class="cls-1" d="M89.76,236.11l-.43.59a46.64,46.64,0,0,0-7.15-4.92v9.07h-.72V230.51a31.18,31.18,0,0,1-7.09,6.2l-.46-.57q7-4.47,9.18-9.72H74.16v-.68H89.48v.68H83.83a13.76,13.76,0,0,1-1.65,3.11V231A47.07,47.07,0,0,1,89.76,236.11Z"/><path class="cls-1" d="M110.12,226.35h-7.47v2.57h5.49v6.62h2v.67h-2v3.66a.91.91,0,0,1-.28.68,1.09,1.09,0,0,1-.69.3q-.4,0-1.47,0l-.94,0-.31-.72c.36,0,.8.05,1.32.05a10.29,10.29,0,0,0,1.18,0,.63.63,0,0,0,.32-.21.54.54,0,0,0,.15-.33v-3.39H97.25v4.64h-.72v-4.64H94.59v-.67h1.94v-6.62h5.4v-2.57H94.55v-.67h15.57Zm-8.19,5.88V229.6H97.25v2.63Zm0,3.31V232.9H97.25v2.64Zm5.49-3.31V229.6h-4.77v2.63Zm0,3.31V232.9h-4.77v2.64Z"/><path class="cls-1" d="M119,234.74a25.94,25.94,0,0,1-3.49,6.23l-.61-.5a22.11,22.11,0,0,0,3.48-6.22Zm-.34-2.56-.5.63a22.74,22.74,0,0,0-3.21-2.47l.46-.54A21.9,21.9,0,0,1,118.64,232.18Zm.19-4.19-.55.53a25.9,25.9,0,0,0-2.74-2.78l.5-.51A19.16,19.16,0,0,1,118.83,228Zm11.81-.4h-2.59V230h-2.8v1.51H130v8.17a1,1,0,0,1-.4.92,3.09,3.09,0,0,1-1.47.24l-.8,0-.27-.71c.41,0,.77,0,1.1,0a2.5,2.5,0,0,0,.94-.1.33.33,0,0,0,.18-.32v-7.56h-4v8.57h-.72v-8.57h-4v8.67h-.72v-9.34h4.72V230h-2.78v-2.41h-2.59v-.67h2.59v-1.65h.72v1.65h4.86v-1.65h.72v1.65h2.59Zm-6.39,10.78-.5.47a6.48,6.48,0,0,1-1.13-3.09,8.24,8.24,0,0,1-1.3,3.09l-.5-.43a8.26,8.26,0,0,0,1.47-3.76h-1.06V234h1.69A7.36,7.36,0,0,0,124.25,238.37Zm3.08-9.06v-1.72h-4.86v1.72Zm1.62,9.06-.5.47a6.7,6.7,0,0,1-1.14-3.09,9.17,9.17,0,0,1-1.29,3.09l-.51-.43a7.92,7.92,0,0,0,1.48-3.76h-1.07V234h1.7A7.45,7.45,0,0,0,129,238.37Z"/><path class="cls-1" d="M140.63,239.61c0,.83-.47,1.24-1.42,1.24h-.9l-.18-.68c.37,0,.71,0,1,0,.51,0,.76-.17.76-.51v-5.9a19,19,0,0,1-2.39,2.34l-.34-.38a17.32,17.32,0,0,1-1,5.13l-.64-.57a18.24,18.24,0,0,0,1-6.54v-8.13h4.1Zm-.72-6.8v-1.64l-.27.32a28.53,28.53,0,0,0-2.39-2.1v4l-.05,2.12A26.8,26.8,0,0,0,139.91,232.81Zm0-2v-4.52h-2.66v2.74l.27-.29C138.3,229.37,139.1,230.06,139.91,230.83Zm11.38-1.19-.4.61a17.59,17.59,0,0,1-4.75-3.86,17.41,17.41,0,0,1-4.8,3.85l-.43-.57a16.17,16.17,0,0,0,5.41-4.57l.6.33-.38.48A15.57,15.57,0,0,0,151.29,229.64Zm-5.49,9.82-.47.46a10.92,10.92,0,0,0-1.8-1.78,10.88,10.88,0,0,1-2,2.8l-.54-.45a11.66,11.66,0,0,0,2.84-4.82l.6.29c-.15.42-.37,1-.65,1.6A12.24,12.24,0,0,1,145.8,239.46Zm-.34-4h-3.33v-4.18h3.33Zm-.69-.67V232h-2v2.84Zm3.85-4.93H143.5v-.67h5.12Zm2.56,10.55-.5.46a17.57,17.57,0,0,0-2.74-2.51,9.35,9.35,0,0,1-1.95,2.53l-.57-.47a10.21,10.21,0,0,0,3-4.76l.6.35c-.18.44-.45,1-.81,1.75A24.13,24.13,0,0,1,151.18,240.46Zm-1.08-5h-3.33v-4.18h3.33Zm-.69-.67V232h-2v2.84Z"/><path class="cls-1" d="M170.46,229.3H158.54v2.25c0,3.94-.67,7.06-2,9.37l-.52-.5a18.52,18.52,0,0,0,1.83-8.8v-5.9h12.64Zm-.72-.65v-2.28h-11.2v2.28Zm.45,11c0,.83-.45,1.24-1.34,1.24l-2.27,0-.19-.74c.38,0,1.23,0,2.54,0a.48.48,0,0,0,.54-.54v-2.78a85.82,85.82,0,0,1-8.39,2.26l-.36-.5a7.48,7.48,0,0,1-1.26,2.33l-.59-.48a7.38,7.38,0,0,0,1.19-2.26,10.84,10.84,0,0,0,.34-3v-2.29h4.53v-3.14h.72v3.14h4.54ZM163.08,232l-.54.47a10.55,10.55,0,0,0-1.95-2l.55-.44A9.68,9.68,0,0,1,163.08,232Zm6.39,4.14v-2.54h-8.35v1.21a44.06,44.06,0,0,1,6,.77l-.19.63a34.66,34.66,0,0,0-5.84-.75,12.12,12.12,0,0,1-.34,3A61,61,0,0,0,169.47,236.12Zm.74-5.73a12.27,12.27,0,0,1-2.15,2l-.57-.42a10,10,0,0,0,2.16-2Z"/><line class="cls-2" x1="241.25" y1="63.39" x2="241.25"/><line class="cls-2" x1="241.25" y1="257.53" x2="241.25" y2="194.14"/><line class="cls-2" x1="391.93" y1="128.77" x2="455.32" y2="128.77"/><line class="cls-2" y1="128.77" x2="63.39" y2="128.77"/><path class="cls-3" d="M265.51,129.15s2.4,8.91,8.47,8.91a58,58,0,0,0-9.2,1.91h0a25.16,25.16,0,0,0-.69-11Z"/><path class="cls-3" d="M271.8,133.69c2.64,2.45,34.21,2.08,34.21,2.08l-1.52,1.51h-.12a110,110,0,0,0-16.8-.24l-.39,0a131.4,131.4,0,0,0-13.2,1c-6.07,0-8.47-8.91-8.47-8.91a32.61,32.61,0,0,1-1.54-8.94A24.11,24.11,0,0,0,269.9,122S269.16,131.25,271.8,133.69Z"/><path class="cls-3" d="M264,120.21a32.61,32.61,0,0,0,1.54,8.94l-1.46-.18a19.13,19.13,0,0,0-12.44-12.5h0a68.59,68.59,0,0,1,11.61,3.34A6,6,0,0,0,264,120.21Z"/><path class="cls-4" d="M264.74,140c-.35.1-.7.21-1,.33-13.94,4.8-32.33,6.56-66.38,5.29s-39.62-1.67-39.62-1.67L156,140.45l-6.48-12.95h-19l6.65,13.21,18.8-.26"/><path class="cls-4" d="M287.18,137.05a131.4,131.4,0,0,0-13.2,1,58,58,0,0,0-9.2,1.91"/><path class="cls-4" d="M304.37,137.27c-1-.06-8.23-.47-16.8-.24"/><path class="cls-4" d="M142.7,127.76l-.15-.26-7.41-12.91s77.53-6.21,116.47,1.87a68.59,68.59,0,0,1,11.61,3.34,6,6,0,0,0,.75.41A24.11,24.11,0,0,0,269.9,122a78.34,78.34,0,0,0,16.54,1c18.13-.52,20.87,0,20.87,0s5.89-.08,10.68,6.23,8,9.3,3.13,9.3a5,5,0,0,1-3.86-2.69H306"/><path class="cls-4" d="M149.48,127.5s92-1,114.57,1.47l1.46.18s2.4,8.91,8.47,8.91"/><path class="cls-4" d="M265.51,129.15a32.61,32.61,0,0,1-1.54-8.94"/><path class="cls-4" d="M251.61,116.47A19.13,19.13,0,0,1,264.05,129a25.16,25.16,0,0,1,.69,11h0a161.38,161.38,0,0,1,22.4-2.92l.39,0a110,110,0,0,1,16.8.24h.12l1.52-1.51s-31.57.37-34.21-2.08S269.9,122,269.9,122"/></g></g></svg>