<svg xmlns="http://www.w3.org/2000/svg" viewBox="0 0 120 125.94"><defs><style>.cls-1{fill:#efe5da;}.cls-2,.cls-4{fill:none;}.cls-2{stroke:#1e3356;stroke-linejoin:round;}.cls-3{fill:#4d4d4d;}</style></defs><g id="圖層_2" data-name="圖層 2"><g id="圖層_2-2" data-name="圖層 2"><circle class="cls-1" cx="60" cy="73.11" r="46.42"/><path class="cls-2" d="M74.31,85.39a32.24,32.24,0,0,0-1.94,6.14c-.72,3.8-5.23,3.08-6.15,0s.52-12.17-5.53-12.17"/><path class="cls-2" d="M80.49,73.66a26.29,26.29,0,0,1-3.2,6.21,21.48,21.48,0,0,0-1.4,2.25"/><path class="cls-2" d="M39.53,65.76a23.19,23.19,0,0,0,3.12,11.81l2.84,4.55A35.13,35.13,0,0,1,49,91.53c.72,3.8,5.23,3.08,6.15,0s-.52-12.17,5.53-12.17"/><line class="cls-2" x1="45.99" y1="57.56" x2="51.68" y2="63.25"/><line class="cls-2" x1="46.08" y1="63.34" x2="51.59" y2="57.47"/><path class="cls-2" d="M74.92,53l3.5,4.48,2.07,16.15-4.6-12.15-4.24-3L74.92,53a8.57,8.57,0,0,0-2.35-.68c-3.93-1.11-6.94,1.9-11.52,1.83h-.72c-4.58.07-7.59-2.94-11.52-1.83-5.71.82-7.93,6.43-8.78,10.13"/><line class="cls-2" x1="79.49" y1="71.02" x2="72.64" y2="74.55"/><line class="cls-2" x1="74.74" y1="73.46" x2="72.64" y2="70.76"/><path class="cls-3" d="M33.89,15.48l-2,.91a12.37,12.37,0,0,1,.26,1.5A10.09,10.09,0,0,1,33.91,19l-.22.57a7.87,7.87,0,0,0-1.49-1,7.33,7.33,0,0,1-.13,1.87l-.5-.18a8.65,8.65,0,0,0,.11-.89,8,8,0,0,0-1.06-.41,7.68,7.68,0,0,1-.11,2L30,20.71a7.74,7.74,0,0,0-.1-3.38l-2.4,1.1-.25-.56,1.18-.54-1.2-2.61.58-.27L29,17.07l1.61-.74-1.37-3,.59-.26.49,1.08,2.13-1,.24.54-2.12,1,.62,1.36,2.48-1.13Zm3.71,9.39-.56.25-.19-.43-5,2.28-3.68-8,.55-.25,3.43,7.49,4.44-2-3.43-7.48.56-.26Zm-6.19-8.25-1.08.49a9.51,9.51,0,0,1,.26,1.29,7.6,7.6,0,0,1,1.08.36A11.82,11.82,0,0,0,31.41,16.62Zm2.94,3.79L30.81,22l-.25-.54,3.54-1.62Zm1.51,2.81-.2.56a7.1,7.1,0,0,0-1.38-.84,6.76,6.76,0,0,1-.17,1.8l-.52-.16a4.09,4.09,0,0,0,.15-.8,7.29,7.29,0,0,0-1.14-.37,8.93,8.93,0,0,1-.08,1.88L32,25.12A9.43,9.43,0,0,0,31.85,22l.52-.07a7.39,7.39,0,0,1,.19,1,6.92,6.92,0,0,1,1.22.38,11.21,11.21,0,0,0-.2-2l.5-.05a9.26,9.26,0,0,1,.16,1.15A10.93,10.93,0,0,1,35.86,23.22ZM38.65,9.64a23.62,23.62,0,0,1-2.34,1.91L37,13.16l2.13-1,1.33,2.92-2.12,1L39,17.52l2.32-1.06,2.19,4.79c.22.49.05.87-.51,1.12l-1.14.53-.36-.45,1.3-.59c.17-.08.23-.19.17-.33l-2-4.29-1.76.81,1.08,2.37.67-.56a7.47,7.47,0,0,0-.8-.93l.41-.38a13.29,13.29,0,0,1,1.59,2l-.44.38-.45-.68L39,22.15l-.42-.43c.32-.21.75-.52,1.28-.92l-1.15-2.5L37,19.11l2.29,5-.54.25-2.29-5-.51.23-.25-.52.52-.24-.27-.58.55-.25.26.58,1.77-.81-.67-1.44-2.13,1-1.34-2.92,2.14-1-.69-1.5c-.7.49-1.49,1-2.38,1.48L33,12.94a24.58,24.58,0,0,0,5.11-3.56Zm-1.06,6.17-.86-1.88-1.59.73L36,16.54Zm2.12-1L38.85,13l-1.57.72.86,1.88Z"/><path class="cls-3" d="M60.21,9.61l-4.28.46a6.62,6.62,0,0,1-.24,1.14,13.39,13.39,0,0,1,2.15,1.22l-.36.48a11.94,11.94,0,0,0-2-1.16,4.46,4.46,0,0,1-1.78,1.86l-.37-.46a3.65,3.65,0,0,0,2-3l-3.56.38a7.92,7.92,0,0,1-.21,1.06c.53.4,1,.77,1.39,1.13l-.35.46a10.37,10.37,0,0,0-1.24-1.06,4.37,4.37,0,0,1-1.8,2l-.35-.46a3.87,3.87,0,0,0,2-3l-4.73.5-.06-.58,2.76-.29-.3-2.81.64-.07.3,2.81,3.16-.34-.36-3.32.64-.07.11,1,5.09-.55.06.59-5.09.55.18,1.68L60.15,9Zm-.05,10-.64.07L59.45,19,48.4,20.16l-.89-8.37.63-.06L49,19.5l10.41-1.11-.83-7.78.64-.06Zm-1.91-5.3-8.91.95-.06-.59,8.91-.95Zm-4.89,3.29-.32.5a7.28,7.28,0,0,0-1.31-1,5.19,5.19,0,0,1-1.67,1.69l-.44-.42a4.78,4.78,0,0,0,2.15-2.9l.55.09A3.72,3.72,0,0,1,52,16.64,11.55,11.55,0,0,1,53.36,17.59Zm5.07-.13L58.1,18a12.46,12.46,0,0,0-2.17-1.32,5.1,5.1,0,0,1-1.67,1.74L53.82,18a4.21,4.21,0,0,0,2-2.9l.59.07a4,4,0,0,1-.26,1A12.72,12.72,0,0,1,58.43,17.46Z"/><path class="cls-3" d="M70.75,7c-.28.63-.64,1.31-1.06,2.05l-.63,1L66.88,20.17,66.25,20l1.87-8.65a13.43,13.43,0,0,1-1.76,1.86l-.29-.55a18.59,18.59,0,0,0,4.12-6Zm-1.53,12.4-.62-.14,2.17-10,.62.13ZM79,18.47A11.73,11.73,0,0,1,70.36,21l-.21-.62c3.54.21,6.33-.58,8.39-2.36ZM77.79,16.8a13.11,13.11,0,0,1-7,1.81L70.63,18a11.84,11.84,0,0,0,6.76-1.63Zm-1.48-1.57A12.37,12.37,0,0,1,71,16.45l-.2-.58a11.28,11.28,0,0,0,5.14-1.12Zm3.54.11-.45.51a16.24,16.24,0,0,1-3.58-2.5,14.94,14.94,0,0,1-4.51.76l-.15-.61a15.28,15.28,0,0,0,4.22-.62,8.66,8.66,0,0,1-1.33-2.06l.58-.13a7.32,7.32,0,0,0,1.34,2,7.56,7.56,0,0,0,2.86-2.13l-4.39-.95a11.86,11.86,0,0,1-2.23,1.51l-.43-.48a12.34,12.34,0,0,0,3.68-2.87L76,8a10.88,10.88,0,0,1-1,1.05l5.79,1.26-.12.58-1.2-.25a8.59,8.59,0,0,1-3.06,2.43A13.12,13.12,0,0,0,79.85,15.34Z"/><path class="cls-3" d="M93.34,30.72,81.41,23.64l.29-.48,2.63,1.56,1.32-2.23.55.33-1.32,2.23,2.59,1.54,1.82-3.07-5.48-3.26.29-.5,11.37,6.75-.3.5-5.34-3.17L89.13,25l4.42,2.63-.29.49-4.42-2.62L88,26.91l5.62,3.33Zm.72-13.49-3-1.74-.57,1,2.3,1.36L91.57,20l-2.3-1.36L89,19a23.46,23.46,0,0,1,1.51,2.44l-.53.26c-.44-.81-.87-1.53-1.29-2.18l-.92,1.56-.55-.33,1.1-1.86a16.45,16.45,0,0,1-3.75.21l-.11-.64a13,13,0,0,0,4.13-.23L86.42,16.9l1.28-2.14L90,16.12l.57-1-3-1.76.3-.5,3,1.76.54-.92.55.33-.54.92,2.94,1.75ZM89,17.78l.7-1.16-1.75-1-.69,1.17Zm2.3,1.37L92,18l-1.74-1-.7,1.17Zm5.21,6.33-.58.32a7.1,7.1,0,0,1-1.66-2.75,9.4,9.4,0,0,1-3.68-.29l-.13-.67a9.6,9.6,0,0,0,3.64.36A6.67,6.67,0,0,1,94,20l.59.05a6.69,6.69,0,0,0,.13,2.29,5.27,5.27,0,0,0,2.93-2l-2.53-1.51A9.83,9.83,0,0,1,92.49,20l-.13-.59a10.21,10.21,0,0,0,4.27-2.67l.42.44a9,9,0,0,1-1.4,1.2l3.66,2.17L99,21.1l-.78-.47a6.12,6.12,0,0,1-3.34,2.3A6.41,6.41,0,0,0,96.51,25.48Z"/><rect class="cls-4" width="120" height="125.94"/></g></g></svg>