<?xml version="1.0" encoding="utf-8"?>
<!-- Generator: Adobe Illustrator 24.3.0, SVG Export Plug-In . SVG Version: 6.00 Build 0)  -->
<svg version="1.1" id="圖層_1" xmlns="http://www.w3.org/2000/svg" xmlns:xlink="http://www.w3.org/1999/xlink" x="0px" y="0px"
	 viewBox="0 0 12.4 14.9" style="enable-background:new 0 0 12.4 14.9;" xml:space="preserve">
<style type="text/css">
	.st0{fill:#A7C464;}
</style>
<g id="圖層_2_1_">
	<g id="圖層_2-2">
		<path class="st0" d="M4.6,0.2c0,0,0.6,0.1,0.8,1.6S5.5,4,4.9,4.1S3,4,3,4.6C3,5,3.2,5.3,3.5,5.8l3.5,5c0,0,0.9,1.6,1.5,0.3
			S9,9.5,10,9.7s2.6,1.4,2.3,2.2c-0.2,1.6-1.5,2.7-3.1,2.8c-2.6,0.4-4.1-1.3-6-4.1s-5.3-6.9-1.4-9.9C2.5,0,3.6-0.2,4.6,0.2z"/>
	</g>
</g>
</svg>
