<svg xmlns="http://www.w3.org/2000/svg" viewBox="0 0 291.61 130.59"><defs><style>.cls-1{fill:#fbfdf6;}.cls-2{fill:#96c6e7;}.cls-3{fill:#95d0c0;}.cls-4{fill:#f7b146;}.cls-5{fill:none;stroke:#636363;stroke-miterlimit:10;stroke-width:0.5px;stroke-dasharray:5;}</style></defs><g id="圖層_2" data-name="圖層 2"><g id="圖層_1-2" data-name="圖層 1"><polygon class="cls-1" points="263.82 25.81 263.82 0 206.2 0 85.41 0 26.19 0 26.19 26.52 0 38.25 0 92.34 85.41 130.59 206.2 130.59 291.61 92.34 291.61 38.25 263.82 25.81"/><path class="cls-2" d="M66.23,41s38.34-3,38.85,25.1c0,0,1.26,24.73-1.77,28.21h9.58c-.62-5.66-.71-11.47-1-17.17-.16-3.67-.26-7.34-.28-11,0-3.41-.22-6.56,1.15-9.73a13.51,13.51,0,0,1,11.84-8.34l1.31-.19-2.79-2.63c-.54-.51-4.2,1-4.75,1.19a13.43,13.43,0,0,0-4.56,2.77A12.4,12.4,0,0,0,112,51.3c-.49.74-.81,1.63-1.63,2.09-1.89,1.09-4.2-.13-5.26-1.76,0,0-6-9.16-16.15-11.22,0,0-1.59-.2-.33-1.89l11.91-13L99,24.2c-4.12,4.33-8.19,8.72-12.27,13.07a6.31,6.31,0,0,1-4.65,1.84L68.3,38.43Z"/><path class="cls-2" d="M113.38,94.75h-11L103,94c2.39-2.73,2-21.06,1.66-27.89-.12-6.72-2.46-12.19-6.94-16.26-11-9.85-31.25-8.42-31.45-8.4l-1,.08L68.12,38l14,.7A6,6,0,0,0,86.44,37l3.29-3.52c2.93-3.14,6-6.38,9-9.54l.29-.31,2.24,1.86L89,38.82c-.43.58-.38.85-.35.91a1,1,0,0,0,.42.24c10.21,2.07,16.2,11,16.45,11.41,1,1.51,3,2.56,4.67,1.63a3.3,3.3,0,0,0,1.1-1.33c.12-.22.25-.43.38-.63a12.84,12.84,0,0,1,1.87-2.16,14,14,0,0,1,4.7-2.87l.18-.07c3.59-1.4,4.61-1.42,5-1l3.45,3.26-2.21.32a13.17,13.17,0,0,0-11.5,8.07C112,59.37,112,62.17,112,65.13v1c0,3.65.12,7.35.29,11,.06,1.36.11,2.73.16,4.1.16,4.3.33,8.75.8,13Zm-9.27-.89h8.28c-.43-4.16-.59-8.45-.75-12.61,0-1.36-.1-2.73-.16-4.09-.17-3.66-.26-7.36-.29-11v-1c0-3-.07-5.94,1.2-8.89a14,14,0,0,1,12.23-8.61H125l-2.09-2c-.14,0-.88-.08-4.13,1.18l-.19.07a13.12,13.12,0,0,0-4.4,2.69,11.84,11.84,0,0,0-1.74,2c-.12.18-.23.38-.34.57a4,4,0,0,1-1.44,1.66c-2.08,1.19-4.66-.06-5.86-1.91-.24-.36-6-9-15.85-11a1.42,1.42,0,0,1-1.09-.77,1.86,1.86,0,0,1,.49-1.82l11.6-12.79-.87-.73c-2.91,3.07-5.84,6.2-8.68,9.24-1.09,1.18-2.18,2.35-3.29,3.52a6.79,6.79,0,0,1-5,2L68.5,38.89l-1.32,1.63c4.31-.17,21.29-.19,31.08,8.69,4.67,4.24,7.11,9.93,7.23,16.89C105.57,67,106.63,88.54,104.11,93.86Z"/><path class="cls-3" d="M133,52.45q-7.16-7.06-14.61-13.8T103.14,25.52c-1.12-.92-2.26-1.82-3.35-2.78a34.68,34.68,0,0,0-3.12-2.55,8.46,8.46,0,0,0-3.85-1.56,5.73,5.73,0,0,0-4,1.09c-2.74,2-5.41,4.15-8.08,6.27S75.53,30.2,73,32.36q-7.65,6.41-15,13.19a15.73,15.73,0,0,0-2.71,3.16,16.64,16.64,0,0,0-1.68,3.54,29.82,29.82,0,0,0-1.4,7.66c-.18,2.49-.18,5-.24,7.47-.09,3.39-.08,6.78.11,10.17.08,1.58.24,3.16.26,4.74s0,2.95.11,4.42a13.86,13.86,0,0,0,1.12,4.75,6.78,6.78,0,0,0,2.19,2.59,11.33,11.33,0,0,0,6.11,1.83,50.46,50.46,0,0,0,6.27-.18c2.72-.17,5.44-.06,8.16,0l10.46.08h5.15a1.62,1.62,0,0,0,.25-3.23h-.25l-20.52-.16c-2,0-4,.16-6,.25-1,0-2,.08-3.08,0-.51,0-1-.1-1.52-.12h0l-.36-.06a2.92,2.92,0,0,1-.71-.16L59,92.11,58.68,92h-.16c-.19-.06.36.16.11,0a7.43,7.43,0,0,1-1.16-.67c-.22-.14.3.26,0,0l-.22-.19c-.17-.17-.31-.37-.48-.53,0,0,.24.34.1.13l-.1-.14c-.06-.09-.11-.18-.17-.26L56.43,90c0-.1-.19-.48-.07-.15a13.83,13.83,0,0,1-.57-2,1.06,1.06,0,0,0-.07-.46c-.07-.15,0,.28,0,0v-.27c0-.38-.06-.76-.08-1.15-.08-1.42,0-2.84-.07-4.27,0-1.59-.21-3.17-.29-4.76s-.13-3.34-.14-5c0-2.8.07-5.61.14-8.42,0-1.24.08-2.48.17-3.72a14.63,14.63,0,0,1,.18-1.86v-.55a6.1,6.1,0,0,1,.16-1,22.15,22.15,0,0,1,1-3.39c.09-.26.22-.52.3-.78-.13.4,0,0,.06-.13s.14-.3.22-.45a13.1,13.1,0,0,1,.89-1.54l.25-.36.1-.14c.16-.23,0,0-.05.06.23-.21.41-.5.62-.73.48-.52,1-1,1.53-1.47q1.77-1.64,3.57-3.26,3.64-3.29,7.38-6.49Q79,31.34,86.77,25.33L87.2,25l.24-.19h0l1-.79c.65-.5,1.29-1,2-1.48a6.48,6.48,0,0,1,.79-.49c.12-.07.13-.15-.07,0l.21-.08.42-.11h.2c0,.07-.36,0-.11,0h.41c.09,0,.33.07.41,0s-.34-.07-.18,0l.25.05a3.1,3.1,0,0,1,.8.25h-.09l.2.09.39.21a7.61,7.61,0,0,1,1.51,1c-.31-.29.06.05.13.11l.36.29.7.6c.45.39.88.79,1.33,1.17,2.42,2.07,4.92,4,7.34,6.1s5,4.25,7.39,6.41q7.35,6.51,14.42,13.33,1.71,1.66,3.41,3.34A1.68,1.68,0,1,0,133,52.45Z"/><path class="cls-4" d="M68.5,69.48V68.24c0-.24-.07.41,0,.05V68a6,6,0,0,1,.15-.61,1.81,1.81,0,0,1,.16-.48c0-.16.15-.1,0,.07a2.1,2.1,0,0,0,.13-.26c.07-.14.15-.28.23-.41a.86.86,0,0,1,.1-.16c.09-.14.35-.34,0,0,.22-.2.39-.46.61-.66L70,65.4c.24-.22-.32.22,0,0a4.47,4.47,0,0,1,.44-.28l.39-.21.16-.07c-.38.22-.19.08-.06,0a4.9,4.9,0,0,1,1-.26.54.54,0,0,0,.18,0c-.42.13-.22,0-.06,0h.47a3.69,3.69,0,0,1,.47,0h.24c.15,0,.45.12,0,0,.32.09.66.12,1,.21a4.13,4.13,0,0,1,.5.15L75,65c.3.11-.31-.15.06,0a28.56,28.56,0,0,0,5.49,2.33,10.05,10.05,0,0,0,5.83-.64c.83-.31,1.64-.66,2.48-.94A11.63,11.63,0,0,1,90,65.5h.24c.39-.09-.37,0,0,0s.46,0,.69,0h.27c.1.09.47.1.59.14l.28.09c.23.08-.33-.18,0,0s.41.23.62.36-.18-.16,0,0l.22.2a4.07,4.07,0,0,1,.41.42c.07.08.34.29,0,0a.86.86,0,0,1,.13.2,4.6,4.6,0,0,1,.37.6,1.77,1.77,0,0,1,.15.31s-.13-.35,0-.06a4.28,4.28,0,0,1,.23.69,6.36,6.36,0,0,1,.16.7c0,.23,0,.29.07.43v.15a23.06,23.06,0,0,1,0,3.11c-.08,2.23-.27,4.46-.53,6.68a6.47,6.47,0,0,1-.11.87v.31c0,.11-.07.54,0,.2-.08.57-.16,1.14-.25,1.72-.16,1.09-.34,2.19-.52,3.28s-.37,2.18-.57,3.27A24.14,24.14,0,0,1,91.87,92c-.11.37.12-.2,0,0l-.13.26-.07.1c-.1.14-.08.13,0,0l-.16.18c-.26.28.28-.15,0,0l-.18.11c-.29.2.33-.08,0,0l-.3.08c-.35.11.36,0,0,0h-.46L90,92.59l-.33-.11c-.34-.12.25.13,0,0s-.34-.18-.5-.28a1.42,1.42,0,0,1-.28-.2c.2.25.14.12.06,0s-.34-.33-.5-.51a2.62,2.62,0,0,1-.22-.25c-.08-.09-.24-.31-.08-.09-.56-.77-1-1.6-1.55-2.4A7.63,7.63,0,0,0,81.91,85a5.4,5.4,0,0,0-5.32,2.08,22.33,22.33,0,0,0-1.52,2.22c-.1.17-.21.33-.32.5s-.29.38,0,.07a1.56,1.56,0,0,1-.16.2c-.14.16-.28.32-.43.47l-.28.27s-.38.28-.07.06a5.8,5.8,0,0,1-.52.34h-.1c-.17.08-.15.08,0,0l-.22.08a1,1,0,0,1-.34.09h-.45c-.17-.06-.14,0,.08,0L72,91.25c-.26-.14-.06,0,0,0s-.17-.15-.2-.18l-.18-.19c-.25-.25.14.22,0,0s-.24-.37-.34-.56l-.12-.25c-.17-.33.09.25,0,0L71,89.6q-.23-.7-.42-1.44c-.29-1-.55-2.06-.79-3.1s-.46-2.09-.65-3.15c-.09-.5-.17-1-.25-1.5a4.8,4.8,0,0,0-.11-.76V79a48.63,48.63,0,0,1-.35-6.38c0-1,.08-2.11.12-3.16a1.62,1.62,0,0,0-1.61-1.61,1.65,1.65,0,0,0-1.61,1.61,59.51,59.51,0,0,0,0,6.81,58.08,58.08,0,0,0,.91,7.08q.63,3.3,1.58,6.53c.58,1.95,1.56,4,3.71,4.6,2.39.64,4.5-1,5.86-2.76.54-.72,1-1.51,1.47-2.24l.14-.19c.23-.32-.23.26,0,0s.24-.29.37-.42l.24-.23.08-.07c.14-.12.11-.1-.07,0,.11-.16.4-.25.55-.35.32-.18-.33.09,0,0l.22-.07a.93.93,0,0,1,.33-.07H81c.4,0-.33-.09,0,0a2.83,2.83,0,0,1,.7.21c-.35-.21,0,0,.07,0l.27.15.26.17c.06,0,.37.3.08,0a11.8,11.8,0,0,1,1,1c.16.19-.23-.33,0,0l.23.33c.13.18.25.37.37.56.28.45.55.91.84,1.36a10,10,0,0,0,2,2.4,5.68,5.68,0,0,0,6.13.94c2.07-1.13,2.28-3.63,2.65-5.69a141.67,141.67,0,0,0,2-14.2c.31-4.28.73-9.77-3.46-12.38a7.17,7.17,0,0,0-5.92-.47,27.31,27.31,0,0,0-2.6,1c-.41.16-.82.3-1.23.43a4.74,4.74,0,0,1-1.43.34h-.29q-.36,0-.72,0h0a2.66,2.66,0,0,1-.39-.07,6.69,6.69,0,0,1-.77-.2c-.22-.06-.43-.14-.64-.22l-.37-.14c.35.14-.07,0-.12-.06-.45-.2-.9-.42-1.35-.65a13.26,13.26,0,0,0-5.4-1.71,7.15,7.15,0,0,0-7.3,5.37,9.66,9.66,0,0,0-.32,2.78,1.61,1.61,0,0,0,3.22,0Z"/><polygon class="cls-5" points="255.57 28.57 255.57 4.57 201.97 4.57 89.63 4.57 34.56 4.57 34.56 29.23 6.25 41.49 6.25 88.57 89.63 126.02 201.97 126.02 285.09 89 285.09 41.71 255.57 28.57"/></g></g></svg>