<svg xmlns="http://www.w3.org/2000/svg" viewBox="0 0 291.61 130.59"><defs><style>.cls-1{fill:#fbfdf6;}.cls-2{fill:#96c6e7;}.cls-3{fill:#95d0c0;}.cls-4{fill:#f7b146;}.cls-5{isolation:isolate;}.cls-6{fill:none;stroke:#636363;stroke-miterlimit:10;stroke-width:0.5px;stroke-dasharray:5;}</style></defs><g id="圖層_2" data-name="圖層 2"><g id="圖層_1-2" data-name="圖層 1"><polygon class="cls-1" points="263.82 25.81 263.82 0 206.2 0 85.41 0 26.19 0 26.19 26.52 0 38.25 0 92.34 85.41 130.59 206.2 130.59 291.61 92.34 291.61 38.25 263.82 25.81"/><path class="cls-2" d="M66.23,41s38.34-3,38.85,25.1c0,0,1.26,24.73-1.77,28.21h9.58c-.62-5.66-.71-11.47-1-17.17-.16-3.67-.26-7.34-.28-11,0-3.41-.22-6.56,1.15-9.73a13.51,13.51,0,0,1,11.84-8.34l1.31-.19-2.79-2.63c-.54-.51-4.2,1-4.75,1.19a13.43,13.43,0,0,0-4.56,2.77A12.4,12.4,0,0,0,112,51.3c-.49.74-.81,1.63-1.63,2.09-1.89,1.09-4.2-.13-5.26-1.76,0,0-6-9.16-16.15-11.22,0,0-1.59-.2-.33-1.89l11.91-13L99,24.2c-4.12,4.33-8.19,8.72-12.27,13.07a6.31,6.31,0,0,1-4.65,1.84L68.3,38.43Z"/><path class="cls-2" d="M113.38,94.75h-11L103,94c2.39-2.73,2-21.06,1.66-27.89-.12-6.72-2.46-12.19-6.94-16.26-11-9.85-31.25-8.42-31.45-8.4l-1,.08L68.12,38l14,.7A6,6,0,0,0,86.44,37l3.29-3.52c2.93-3.14,6-6.38,9-9.54l.29-.31,2.24,1.86L89,38.82c-.43.58-.38.85-.35.91a1,1,0,0,0,.42.24c10.21,2.07,16.2,11,16.45,11.41,1,1.51,3,2.56,4.67,1.63a3.3,3.3,0,0,0,1.1-1.33c.12-.22.25-.43.38-.63a12.84,12.84,0,0,1,1.87-2.16,14,14,0,0,1,4.7-2.87l.18-.07c3.59-1.4,4.61-1.42,5-1l3.45,3.26-2.21.32a13.17,13.17,0,0,0-11.5,8.07C112,59.37,112,62.17,112,65.13v1c0,3.65.12,7.35.29,11,.06,1.36.11,2.73.16,4.1.16,4.3.33,8.75.8,13Zm-9.27-.89h8.28c-.43-4.16-.59-8.45-.75-12.61,0-1.36-.1-2.73-.16-4.09-.17-3.66-.26-7.36-.29-11v-1c0-3-.07-5.94,1.2-8.89a14,14,0,0,1,12.23-8.61H125l-2.09-2c-.14,0-.88-.08-4.13,1.18l-.19.07a13.12,13.12,0,0,0-4.4,2.69,11.84,11.84,0,0,0-1.74,2c-.12.18-.23.38-.34.57a4,4,0,0,1-1.44,1.66c-2.08,1.19-4.66-.06-5.86-1.91-.24-.36-6-9-15.85-11a1.42,1.42,0,0,1-1.09-.77,1.86,1.86,0,0,1,.49-1.82l11.6-12.79-.87-.73c-2.91,3.07-5.84,6.2-8.68,9.24-1.09,1.18-2.18,2.35-3.29,3.52a6.79,6.79,0,0,1-5,2L68.5,38.89l-1.32,1.63c4.31-.17,21.29-.19,31.08,8.69,4.67,4.24,7.11,9.93,7.23,16.89C105.57,67,106.63,88.54,104.11,93.86Z"/><path class="cls-3" d="M133,52.45q-7.16-7.06-14.61-13.8T103.14,25.52c-1.12-.92-2.26-1.82-3.35-2.78a34.68,34.68,0,0,0-3.12-2.55,8.46,8.46,0,0,0-3.85-1.56,5.73,5.73,0,0,0-4,1.09c-2.74,2-5.41,4.15-8.08,6.27S75.53,30.2,73,32.36q-7.65,6.41-15,13.19a15.73,15.73,0,0,0-2.71,3.16,16.64,16.64,0,0,0-1.68,3.54,29.82,29.82,0,0,0-1.4,7.66c-.18,2.49-.18,5-.24,7.47-.09,3.39-.08,6.78.11,10.17.08,1.58.24,3.16.26,4.74s0,2.95.11,4.42a13.86,13.86,0,0,0,1.12,4.75,6.78,6.78,0,0,0,2.19,2.59,11.33,11.33,0,0,0,6.11,1.83,50.46,50.46,0,0,0,6.27-.18c2.72-.17,5.44-.06,8.16,0l10.46.08h5.15a1.62,1.62,0,0,0,.25-3.23h-.25l-20.52-.16c-2,0-4,.16-6,.25-1,0-2,.08-3.08,0-.51,0-1-.1-1.52-.12h0l-.36-.06a2.92,2.92,0,0,1-.71-.16L59,92.11,58.68,92h-.16c-.19-.06.36.16.11,0a7.43,7.43,0,0,1-1.16-.67c-.22-.14.3.26,0,0l-.22-.19c-.17-.17-.31-.37-.48-.53,0,0,.24.34.1.13l-.1-.14c-.06-.09-.11-.18-.17-.26L56.43,90c0-.1-.19-.48-.07-.15a13.83,13.83,0,0,1-.57-2,1.06,1.06,0,0,0-.07-.46c-.07-.15,0,.28,0,0v-.27c0-.38-.06-.76-.08-1.15-.08-1.42,0-2.84-.07-4.27,0-1.59-.21-3.17-.29-4.76s-.13-3.34-.14-5c0-2.8.07-5.61.14-8.42,0-1.24.08-2.48.17-3.72a14.63,14.63,0,0,1,.18-1.86v-.55a6.1,6.1,0,0,1,.16-1,22.15,22.15,0,0,1,1-3.39c.09-.26.22-.52.3-.78-.13.4,0,0,.06-.13s.14-.3.22-.45a13.1,13.1,0,0,1,.89-1.54l.25-.36.1-.14c.16-.23,0,0-.05.06.23-.21.41-.5.62-.73.48-.52,1-1,1.53-1.47q1.77-1.64,3.57-3.26,3.64-3.29,7.38-6.49Q79,31.34,86.77,25.33L87.2,25l.24-.19h0l1-.79c.65-.5,1.29-1,2-1.48a6.48,6.48,0,0,1,.79-.49c.12-.07.13-.15-.07,0l.21-.08.42-.11h.2c0,.07-.36,0-.11,0h.41c.09,0,.33.07.41,0s-.34-.07-.18,0l.25.05a3.1,3.1,0,0,1,.8.25h-.09l.2.09.39.21a7.61,7.61,0,0,1,1.51,1c-.31-.29.06.05.13.11l.36.29.7.6c.45.39.88.79,1.33,1.17,2.42,2.07,4.92,4,7.34,6.1s5,4.25,7.39,6.41q7.35,6.51,14.42,13.33,1.71,1.66,3.41,3.34A1.68,1.68,0,1,0,133,52.45Z"/><path class="cls-4" d="M68.5,69.48V68.24c0-.24-.07.41,0,.05V68a6,6,0,0,1,.15-.61,1.81,1.81,0,0,1,.16-.48c0-.16.15-.1,0,.07a2.1,2.1,0,0,0,.13-.26c.07-.14.15-.28.23-.41a.86.86,0,0,1,.1-.16c.09-.14.35-.34,0,0,.22-.2.39-.46.61-.66L70,65.4c.24-.22-.32.22,0,0a4.47,4.47,0,0,1,.44-.28l.39-.21.16-.07c-.38.22-.19.08-.06,0a4.9,4.9,0,0,1,1-.26.54.54,0,0,0,.18,0c-.42.13-.22,0-.06,0h.47a3.69,3.69,0,0,1,.47,0h.24c.15,0,.45.12,0,0,.32.09.66.12,1,.21a4.13,4.13,0,0,1,.5.15L75,65c.3.11-.31-.15.06,0a28.56,28.56,0,0,0,5.49,2.33,10.05,10.05,0,0,0,5.83-.64c.83-.31,1.64-.66,2.48-.94A11.63,11.63,0,0,1,90,65.5h.24c.39-.09-.37,0,0,0s.46,0,.69,0h.27c.1.09.47.1.59.14l.28.09c.23.08-.33-.18,0,0s.41.23.62.36-.18-.16,0,0l.22.2a4.07,4.07,0,0,1,.41.42c.07.08.34.29,0,0a.86.86,0,0,1,.13.2,4.6,4.6,0,0,1,.37.6,1.77,1.77,0,0,1,.15.31s-.13-.35,0-.06a4.28,4.28,0,0,1,.23.69,6.36,6.36,0,0,1,.16.7c0,.23,0,.29.07.43v.15a23.06,23.06,0,0,1,0,3.11c-.08,2.23-.27,4.46-.53,6.68a6.47,6.47,0,0,1-.11.87v.31c0,.11-.07.54,0,.2-.08.57-.16,1.14-.25,1.72-.16,1.09-.34,2.19-.52,3.28s-.37,2.18-.57,3.27A24.14,24.14,0,0,1,91.87,92c-.11.37.12-.2,0,0l-.13.26-.07.1c-.1.14-.08.13,0,0l-.16.18c-.26.28.28-.15,0,0l-.18.11c-.29.2.33-.08,0,0l-.3.08c-.35.11.36,0,0,0h-.46L90,92.59l-.33-.11c-.34-.12.25.13,0,0s-.34-.18-.5-.28a1.42,1.42,0,0,1-.28-.2c.2.25.14.12.06,0s-.34-.33-.5-.51a2.62,2.62,0,0,1-.22-.25c-.08-.09-.24-.31-.08-.09-.56-.77-1-1.6-1.55-2.4A7.63,7.63,0,0,0,81.91,85a5.4,5.4,0,0,0-5.32,2.08,22.33,22.33,0,0,0-1.52,2.22c-.1.17-.21.33-.32.5s-.29.38,0,.07a1.56,1.56,0,0,1-.16.2c-.14.16-.28.32-.43.47l-.28.27s-.38.28-.07.06a5.8,5.8,0,0,1-.52.34h-.1c-.17.08-.15.08,0,0l-.22.08a1,1,0,0,1-.34.09h-.45c-.17-.06-.14,0,.08,0L72,91.25c-.26-.14-.06,0,0,0s-.17-.15-.2-.18l-.18-.19c-.25-.25.14.22,0,0s-.24-.37-.34-.56l-.12-.25c-.17-.33.09.25,0,0L71,89.6q-.23-.7-.42-1.44c-.29-1-.55-2.06-.79-3.1s-.46-2.09-.65-3.15c-.09-.5-.17-1-.25-1.5a4.8,4.8,0,0,0-.11-.76V79a48.63,48.63,0,0,1-.35-6.38c0-1,.08-2.11.12-3.16a1.62,1.62,0,0,0-1.61-1.61,1.65,1.65,0,0,0-1.61,1.61,59.51,59.51,0,0,0,0,6.81,58.08,58.08,0,0,0,.91,7.08q.63,3.3,1.58,6.53c.58,1.95,1.56,4,3.71,4.6,2.39.64,4.5-1,5.86-2.76.54-.72,1-1.51,1.47-2.24l.14-.19c.23-.32-.23.26,0,0s.24-.29.37-.42l.24-.23.08-.07c.14-.12.11-.1-.07,0,.11-.16.4-.25.55-.35.32-.18-.33.09,0,0l.22-.07a.93.93,0,0,1,.33-.07H81c.4,0-.33-.09,0,0a2.83,2.83,0,0,1,.7.21c-.35-.21,0,0,.07,0l.27.15.26.17c.06,0,.37.3.08,0a11.8,11.8,0,0,1,1,1c.16.19-.23-.33,0,0l.23.33c.13.18.25.37.37.56.28.45.55.91.84,1.36a10,10,0,0,0,2,2.4,5.68,5.68,0,0,0,6.13.94c2.07-1.13,2.28-3.63,2.65-5.69a141.67,141.67,0,0,0,2-14.2c.31-4.28.73-9.77-3.46-12.38a7.17,7.17,0,0,0-5.92-.47,27.31,27.31,0,0,0-2.6,1c-.41.16-.82.3-1.23.43a4.74,4.74,0,0,1-1.43.34h-.29q-.36,0-.72,0h0a2.66,2.66,0,0,1-.39-.07,6.69,6.69,0,0,1-.77-.2c-.22-.06-.43-.14-.64-.22l-.37-.14c.35.14-.07,0-.12-.06-.45-.2-.9-.42-1.35-.65a13.26,13.26,0,0,0-5.4-1.71,7.15,7.15,0,0,0-7.3,5.37,9.66,9.66,0,0,0-.32,2.78,1.61,1.61,0,0,0,3.22,0Z"/><g class="cls-5"><path class="cls-3" d="M151.25,87.66c-3.22,5.89-10.33,8.39-10.68,8.39a.44.44,0,0,1-.43-.46c0-.29.21-.39.39-.47,6.48-3.06,8.37-7.75,8.62-8.48H141c-.16,0-.55,0-.55-.45s.39-.45.55-.45h2.1V80.87c0-1.42.67-1.87,2.07-1.87h11.62c.18,0,.53.06.53.45s-.35.45-.53.45h-3.46v5.84h4.36c.18,0,.55,0,.55.45s-.35.45-.55.45h-4.36v7.78c0,1.39-.64,1.84-2.06,1.84h-2.71c-.15,0-.59,0-.59-.45s.44-.43.59-.43h1.81c.76,0,.92-.22.92-.92Zm0-7.76h-5.12c-.77,0-.93.2-.93.91v4.93h6.05Z"/><path class="cls-3" d="M176.12,90.39h3c1.37,0,1.94.53,1.94,1.77v2.16c0,1.33-.72,1.75-1.94,1.75h-10.8c-1.38,0-2-.53-2-1.75V92.16c0-1.36.71-1.77,2-1.77h2.55a3.9,3.9,0,0,0,0-.55v-.43h-5.62c-.19,0-.55,0-.55-.43s.36-.45.55-.45H182.2c.2,0,.55,0,.55.45s-.37.43-.55.43h-6.08Zm-2.4-7.09c.14,0,.51,0,.51.41s-.37.42-.51.42h-1.47a6.65,6.65,0,0,0,1.45,1.51.56.56,0,0,1,.3.47.42.42,0,0,1-.42.43A6.08,6.08,0,0,1,171,84.87a5,5,0,0,1-2.73,1.71.45.45,0,0,1-.45-.45.46.46,0,0,1,.27-.41,3.63,3.63,0,0,0,1.71-1.59h-1.59c-.16,0-.51,0-.51-.42s.37-.41.51-.41h1.89a8.26,8.26,0,0,0,.19-1.51h-.43c-.33.37-1.14,1.28-1.49,1.28a.44.44,0,0,1-.45-.44c0-.11.45-1,.55-1.25s.39-1.12.47-1.36a1,1,0,0,1,.25-.33h-1c-.7,0-.82.18-.82.82V86c0,.65.12.83.82.83h5.58c.2,0,.55,0,.55.45s-.37.45-.55.45H167.1c-1.37,0-1.79-.57-1.79-1.57V80.36c0-1.18.59-1.56,1.79-1.56h6.78c.19,0,.55.06.55.44s-.38.45-.55.45h-3.67a.79.79,0,0,1,.49.71.9.9,0,0,1-.22.56h2.83c.14,0,.51,0,.51.42s-.37.41-.51.41H172a5.82,5.82,0,0,1-.23,1.51Zm2.2,9.74c-1,0-1.67-.27-1.67-1.41v-.41h-1.71a4.88,4.88,0,0,1-3.08,2.35.45.45,0,0,1-.45-.45.45.45,0,0,1,.25-.39,3.7,3.7,0,0,0,1.44-1.51h-1.48c-.72,0-.84.21-.84.84v1.53h10.7V92.53a1.66,1.66,0,0,1-1.31.51Zm-7.54,1.38c0,.76.27.82.92.82h8.94c.61,0,.84-.14.84-.82Zm5.87-5h-1.47v.45c0,.3,0,.43,0,.53h1.49Zm6-7.17c-.79,0-1.47-.29-1.47-1.33v-.69c0-.49-.2-.61-.57-.61h-.57c-.32,0-.34.12-.43.69a3.27,3.27,0,0,1-2.16,2.31.45.45,0,0,1-.46-.43c0-.15.24-.43.42-.7a3.91,3.91,0,0,0,.57-1.91,1.06,1.06,0,0,1,1.17-.84h2.34c.86,0,1.45.43,1.45,1.29v1c0,.12,0,.38.34.38s.47,0,.55-.61c.06-.43.12-.92.72-.92a.66.66,0,0,1,.71.64,3.91,3.91,0,0,1-.31,1.1,1,1,0,0,1-1.1.65Zm-4.73,1.4c-.18,0-.51,0-.51-.42s.33-.41.51-.41h5a.79.79,0,0,1,.91.83c0,.62-1,1.61-2,2.37a9.56,9.56,0,0,0,2.5,1.08.49.49,0,0,1,.31.43.46.46,0,0,1-.45.46,11.39,11.39,0,0,1-3.67-1.16,8.12,8.12,0,0,1-3,1.12.45.45,0,0,1-.47-.46.47.47,0,0,1,.32-.43,8.87,8.87,0,0,0,2-.92c-.28-.18-1.32-.86-1.32-1.45a1,1,0,0,1,1-1,.87.87,0,0,1,.76.44,6.73,6.73,0,0,0,.85,1c.27-.26,1-.94,1-1.22a.25.25,0,0,0-.26-.27Zm1.9,8.58c.3,0,.35-.1.51-.34a.57.57,0,0,1,.53-.33.8.8,0,0,1,.57.22c-.08-.53-.43-.55-.82-.55h-2.12c0,.8,0,1,.74,1Z"/><path class="cls-3" d="M196.35,81.71c.19,0,.55.06.55.45s-.38.45-.55.45h-6.54c-.2,0-.55,0-.55-.45s.37-.45.55-.45ZM194.46,90c1.45,0,1.79.63,1.79,1.55v2.93c0,1.12-.55,1.55-1.79,1.55h-2.83c-1.33,0-1.78-.51-1.78-1.55V91.51c0-1.14.57-1.55,1.78-1.55Zm1.14-2.75c.2,0,.55.06.55.45s-.37.45-.55.45h-5.13c-.19,0-.55-.08-.55-.45s.38-.45.55-.45Zm0-8.29c.2,0,.53.06.53.45a.46.46,0,0,1-.53.46h-5.11c-.21,0-.55-.06-.55-.46s.36-.45.55-.45Zm0,5.62c.2,0,.55.06.55.43s-.39.45-.55.45h-5.13c-.15,0-.53,0-.53-.43s.36-.45.53-.45Zm-3,6.32c-.69,0-.83.16-.83.83v2.59c0,.65.12.8.83.8h1c.7,0,.82-.15.82-.8V91.69c0-.69-.14-.83-.82-.83Zm11.84-10.09a11.28,11.28,0,0,0,2.9,3.57c.22.2.28.3.28.45a.45.45,0,0,1-.43.46c-.59,0-3.36-2.32-4.89-4.54-.2-.29-.24-.33-.38-.33s-.15,0-.35.33c-1.35,1.94-4.09,4.36-4.69,4.36a.44.44,0,0,1-.46-.45c0-.2.16-.36.38-.53a13.62,13.62,0,0,0,3.34-4.68c.39-.8.64-1.12,1.82-1.12S203.22,78.35,204.42,80.77Zm3,9.54c0,.71-1.59,2.3-3.16,3.4a16.18,16.18,0,0,1-6.74,2.63.45.45,0,0,1-.43-.45c0-.35.32-.45.51-.49A12.41,12.41,0,0,0,205.2,90c.22-.39.43-.77,1-.77A1.22,1.22,0,0,1,207.46,90.31Zm-4-5.67c0,.57-.84,1.21-1.51,1.73a14.56,14.56,0,0,1-4.26,2.37.43.43,0,0,1-.43-.45.51.51,0,0,1,.29-.43,11.3,11.3,0,0,0,3.89-3.79,1,1,0,0,1,.87-.51A1.15,1.15,0,0,1,203.51,84.64Zm2.18,2.59c0,.61-1.08,1.55-1.92,2.22a16.38,16.38,0,0,1-5.85,3.08.46.46,0,0,1-.44-.45c0-.29.22-.39.38-.47a13.52,13.52,0,0,0,5.77-5,1,1,0,0,1,.87-.51A1.21,1.21,0,0,1,205.69,87.23Z"/><path class="cls-3" d="M214.93,84.66c0-1.36.55-1.75,2-1.75h2.94c1.58,0,1.93.61,1.93,1.69v3.61c0,1.24-.81,1.55-1.79,1.55H217a10,10,0,0,1-1.89,5.36c-.29.4-.68.93-1,.93a.46.46,0,0,1-.43-.46,7.26,7.26,0,0,1,.45-1,13.48,13.48,0,0,0,.83-5.18Zm6.77-5.52c.2,0,.55,0,.55.43s-.37.45-.55.45h-7c-.2,0-.55,0-.55-.43s.37-.45.55-.45ZM217,88.88h2c.77,0,.88-.2.88-.9V84.7c0-.73-.09-.89-.88-.89h-1.16c-.74,0-.88.16-.88.89Zm10.9-3h-2.44v.54a13.81,13.81,0,0,1-2,7.67c-.71,1.06-1.91,2.18-2.26,2.18a.47.47,0,0,1-.45-.45,6.13,6.13,0,0,1,.82-1.18c1.42-2,1.81-4.53,1.81-7.71V81.3c0-1.2.79-1.47,1.57-1.55a18.43,18.43,0,0,0,3.6-.63,12.27,12.27,0,0,1,1.94-.65,1,1,0,0,1,1,.94c0,.46-.25.69-.9.83a27,27,0,0,1-3.34.41c-1.47.08-1.79.1-1.79.86v3.42h5.91c.18,0,.55.06.55.45s-.35.45-.55.45H230v9.25c0,.51,0,1.3-1,1.3s-1-.8-1-1.3Z"/></g><g class="cls-5"><path class="cls-3" d="M151.25,62.27a12.24,12.24,0,0,0,1.84,4.09,24.32,24.32,0,0,0,2.82-2.3c1-.89,1-1,1.43-1a1.28,1.28,0,0,1,1.22,1.19c0,.46-.3.72-1.06,1.17a30.27,30.27,0,0,1-3.68,1.8,12.05,12.05,0,0,0,5.81,3.26c.21,0,.56.16.56.55a.53.53,0,0,1-.58.53,17.1,17.1,0,0,1-5.58-2,13,13,0,0,1-5.65-7.33h-2.69v6.57c1.48-.23,2.74-.48,4.48-.87.16,0,.23,0,.33,0a.53.53,0,0,1,.5.53c0,.41-.16.44-1.58.9-2.51.78-8.39,2.36-8.87,2.36a1.1,1.1,0,0,1-1-1.12,1,1,0,0,1,.64-1c.27-.1,2.43-.3,2.89-.37V62.27h-2.89c-.23,0-.64-.07-.64-.53s.39-.52.64-.52h2.89V53.39c0-1.59.74-2.19,2.44-2.19H158c.21,0,.64,0,.64.53s-.39.53-.64.53H146.75c-.89,0-1.06.23-1.06,1.06v1.17h11.69c.21,0,.65,0,.65.53s-.44.52-.65.52H145.69v2.25h11.69c.21,0,.65.05.65.53s-.42.51-.65.51H145.69v2.39h14.38c.21,0,.64,0,.64.52s-.41.53-.64.53Z"/><path class="cls-3" d="M170,65l-.16-11.79a1.41,1.41,0,0,1,1.08-1.44,7.85,7.85,0,0,0,2-.83,1.88,1.88,0,0,1,1-.37.86.86,0,0,1,.81.92c0,.62-.21.71-2.18,1-.33,0-.49.27-.49.64l0,2.59h1.65c.23,0,.65,0,.65.53a.54.54,0,0,1-.51.53H172.1l0,3.42h1.61c.23,0,.65.07.65.53a.52.52,0,0,1-.51.53h-1.72l0,3.7h2.6V53.16c0-1.11.37-1.84,2.09-1.84H181c1.45,0,2.09.5,2.09,1.81V65h2.53l0-3.7h-1.49c-.23,0-.64-.05-.64-.53a.52.52,0,0,1,.52-.53h1.63l.05-3.42h-1.56c-.21,0-.64,0-.64-.53a.51.51,0,0,1,.52-.53h1.68l0-2.43c0-.83-.23-1-1-1h-.64c-.23,0-.64-.05-.64-.53s.41-.53.64-.53H186c1.27,0,2.12.39,2.09,1.81L187.92,65h1c.18,0,.64,0,.64.52s-.43.53-.64.53H169c-.21,0-.64-.07-.64-.53s.41-.52.64-.52Zm3.83,5.12A18,18,0,0,1,169,71.8a.5.5,0,0,1-.48-.5c0-.26.09-.39.53-.58a13,13,0,0,0,4.73-3.23c.62-.69.85-.95,1.38-.95A1.44,1.44,0,0,1,176.53,68C176.53,68.38,176.39,68.91,173.82,70.13ZM181.29,65V53.34c0-.76-.14-1-.95-1h-2.8c-.78,0-.94.18-.94,1V65Zm-3.66-9.42c-.23,0-.64-.07-.64-.53s.44-.53.64-.53h2.6c.23,0,.64.07.64.53s-.43.53-.64.53Zm3,6.68c0,.76-.53,1.11-1.26,1.11h-.83c-.78,0-1.28-.37-1.28-1.11V58.42c0-.58.39-1.06,1.26-1.06h.85c.78,0,1.26.37,1.26,1.1Zm-1.26-3.51c0-.34-.18-.34-.55-.34s-.3.2-.3.34V62c0,.35.18.35.55.35a.3.3,0,0,0,.3-.35Zm9.37,13a20,20,0,0,1-5.35-2c-1.73-.92-1.91-1.38-1.91-1.86a1.42,1.42,0,0,1,1.38-1.35c.51,0,.64.14,1.68,1.21a12.1,12.1,0,0,0,4.29,2.94.56.56,0,0,1,.39.51A.49.49,0,0,1,188.75,71.76Z"/></g><g class="cls-5"><g class="cls-5"><path class="cls-3" d="M198.9,58a2,2,0,0,1-2.1,1.58c-1.58,0-2.48-1.13-2.48-3,0-2.25,1.29-3,2.52-3a1.85,1.85,0,0,1,2,1.46.32.32,0,0,1-.33.32c-.26,0-.31-.2-.35-.39a1.3,1.3,0,0,0-1.37-1.07c-1.63,0-1.78,1.82-1.78,2.76a3.53,3.53,0,0,0,.64,2.26,1.57,1.57,0,0,0,1.16.45,1.29,1.29,0,0,0,1.37-1.15c0-.24.11-.46.38-.46A.35.35,0,0,1,198.9,58Z"/><path class="cls-3" d="M203.27,59.26a.28.28,0,0,1-.28.29.28.28,0,0,1-.29-.29V56.57a.88.88,0,0,0-.92-1c-.13,0-.92,0-1.22,1.09v2.6a.29.29,0,0,1-.29.29.28.28,0,0,1-.29-.29V53.75a.29.29,0,0,1,.28-.3.29.29,0,0,1,.3.3V56a1.49,1.49,0,0,1,1.34-.77,1.22,1.22,0,0,1,1.37,1.35Z"/><path class="cls-3" d="M206.92,56.67c0-.71-.33-1.1-.9-1.1a.94.94,0,0,0-1,.76c0,.12-.07.31-.31.31a.3.3,0,0,1-.3-.29A1.51,1.51,0,0,1,206,55.26a1.35,1.35,0,0,1,1.47,1.38v2.22a1.27,1.27,0,0,0,0,.26c0,.05.08.21.08.25s-.12.18-.24.18-.34-.25-.38-.46a2.4,2.4,0,0,1-1.4.46c-.43,0-1.3-.1-1.3-1.1,0-1.3,1.61-1.43,2.63-1.48Zm0,.6c-.63,0-2,.12-2,1.2,0,.71.72.74.87.74a2,2,0,0,0,1.15-.43Z"/><path class="cls-3" d="M212.05,59.26a.29.29,0,0,1-.28.29.28.28,0,0,1-.29-.29V56.57a.88.88,0,0,0-.92-1c-.13,0-.92,0-1.23,1.09v2.6a.29.29,0,1,1-.57,0V55.55a.28.28,0,0,1,.28-.29.28.28,0,0,1,.29.29V56a1.52,1.52,0,0,1,1.35-.77,1.22,1.22,0,0,1,1.37,1.35Z"/><path class="cls-3" d="M216.43,56.46c0,.7-.5,1.23-1.53,1.23a1.91,1.91,0,0,1-.87-.17.34.34,0,0,0-.14.31c0,.47.68.48,1.16.49a2.49,2.49,0,0,1,1.2.2,1,1,0,0,1,.55.91c0,1-1,1.26-1.93,1.26-.79,0-1.79-.19-1.79-1.2a1,1,0,0,1,.7-1,.51.51,0,0,1-.38-.51.68.68,0,0,1,.45-.59,1.1,1.1,0,0,1-.47-.93c0-.3.13-1.19,1.57-1.19a1.77,1.77,0,0,1,1.08.31.56.56,0,0,1,.52-.4c.1,0,.36,0,.36.28a.27.27,0,0,1-.28.28c-.3,0-.34,0-.39.06A1.22,1.22,0,0,1,216.43,56.46Zm-2.71,3c0,.61.37,1,1.18,1,.34,0,1.27-.08,1.27-.91a.77.77,0,0,0-.82-.81c-.18,0-1-.05-1.18-.09A.84.84,0,0,0,213.72,59.44Zm2.08-3a.85.85,0,0,0-.88-.91.88.88,0,0,0-.91.94.81.81,0,0,0,.92.9A.86.86,0,0,0,215.8,56.46Z"/><path class="cls-3" d="M221,59.1a.34.34,0,0,1,.07.18.26.26,0,0,1-.27.27.23.23,0,0,1-.2-.1l-1.41-1.72-1.45,1.75a.21.21,0,0,1-.15.07.19.19,0,0,1-.2-.2.17.17,0,0,1,0-.12l1.5-1.81-1.4-1.72a.28.28,0,0,1-.06-.18.26.26,0,0,1,.27-.26.26.26,0,0,1,.19.09L219.23,57l1.38-1.67a.23.23,0,0,1,.15-.06.19.19,0,0,1,.2.2.17.17,0,0,1-.05.12l-1.43,1.73Z"/><path class="cls-3" d="M222.63,53.9a.46.46,0,1,1-.45-.45A.45.45,0,0,1,222.63,53.9Zm-.17,5.36a.29.29,0,0,1-.28.29.28.28,0,0,1-.29-.29V55.55a.29.29,0,1,1,.57,0Z"/><path class="cls-3" d="M227.09,59.26a.29.29,0,1,1-.58,0V56.57a.88.88,0,0,0-.91-1c-.13,0-.92,0-1.23,1.09v2.6a.28.28,0,0,1-.29.29.28.28,0,0,1-.28-.29V55.55a.28.28,0,0,1,.28-.29.28.28,0,0,1,.29.29V56a1.52,1.52,0,0,1,1.35-.77,1.22,1.22,0,0,1,1.37,1.35Z"/><path class="cls-3" d="M231.47,56.46c0,.7-.5,1.23-1.53,1.23a1.91,1.91,0,0,1-.87-.17.34.34,0,0,0-.14.31c0,.47.68.48,1.16.49a2.49,2.49,0,0,1,1.2.2,1,1,0,0,1,.55.91c0,1-1,1.26-1.93,1.26-.79,0-1.79-.19-1.79-1.2a1,1,0,0,1,.7-1,.51.51,0,0,1-.38-.51.68.68,0,0,1,.45-.59,1.08,1.08,0,0,1-.47-.93c0-.3.13-1.19,1.57-1.19a1.72,1.72,0,0,1,1.07.31.59.59,0,0,1,.53-.4c.1,0,.36,0,.36.28a.27.27,0,0,1-.28.28c-.3,0-.34,0-.39.06A1.22,1.22,0,0,1,231.47,56.46Zm-2.71,3c0,.61.37,1,1.18,1,.33,0,1.27-.08,1.27-.91a.77.77,0,0,0-.82-.81c-.18,0-1-.05-1.18-.09A.84.84,0,0,0,228.76,59.44Zm2.08-3a.85.85,0,0,0-.88-.91.88.88,0,0,0-.91.94.81.81,0,0,0,.92.9A.86.86,0,0,0,230.84,56.46Z"/></g><g class="cls-5"><path class="cls-3" d="M196.57,64.5c1.89,0,2.34,1.8,2.34,3a3.56,3.56,0,0,1-.73,2.27,2.31,2.31,0,0,1-1.64.66h-1.33c-.44,0-.63-.21-.63-.59v-4.7c0-.37.19-.59.63-.59Zm-1.16.32a.21.21,0,0,0-.19.2v4.84a.2.2,0,0,0,.19.2h1.05c1.5,0,1.77-1.43,1.77-2.55,0-1.29-.33-2.69-1.81-2.69Z"/><path class="cls-3" d="M200.33,68.47c0,.6.08,1.71,1.14,1.71a.92.92,0,0,0,1-.86c0-.2.06-.42.33-.42a.32.32,0,0,1,.32.31,1.51,1.51,0,0,1-1.63,1.28c-1.63,0-1.77-1.52-1.77-2.11,0-1.21.59-2.18,1.78-2.18a1.69,1.69,0,0,1,1.66,1.7c0,.48-.27.57-.69.57Zm2-.28a.25.25,0,0,0,.26-.29c0-.27-.05-1.39-1.06-1.39s-1.13,1-1.16,1.68Z"/><path class="cls-3" d="M207.59,70.2a.29.29,0,0,1-.28.29.28.28,0,0,1-.29-.29V67.51a.88.88,0,0,0-.92-1c-.13,0-.92,0-1.23,1.09v2.6a.29.29,0,1,1-.57,0V66.49a.28.28,0,0,1,.28-.29.28.28,0,0,1,.29.29V67a1.52,1.52,0,0,1,1.35-.77,1.22,1.22,0,0,1,1.37,1.35Z"/><path class="cls-3" d="M209.86,69.67c0,.18,0,.51.39.51a.58.58,0,0,0,.4-.15.16.16,0,0,1,.1,0,.09.09,0,0,1,.1.1c0,.09-.29.4-.85.4s-.71-.2-.71-.76V66.59h-.74a.14.14,0,0,1-.15-.14.14.14,0,0,1,.15-.14h.74v-1a.29.29,0,1,1,.57,0v1h.84a.14.14,0,0,1,0,.28h-.84Z"/><path class="cls-3" d="M214,67.61c0-.71-.33-1.1-.91-1.1a.94.94,0,0,0-.94.76c0,.12-.07.31-.31.31a.29.29,0,0,1-.3-.29,1.5,1.5,0,0,1,1.55-1.09,1.35,1.35,0,0,1,1.48,1.38V69.8a1.27,1.27,0,0,0,0,.26s.08.21.08.25-.12.18-.24.18-.34-.25-.38-.46a2.4,2.4,0,0,1-1.4.46c-.43,0-1.31-.1-1.31-1.1,0-1.3,1.62-1.43,2.64-1.48Zm0,.6c-.64,0-2,.12-2,1.2,0,.71.71.74.87.74a2,2,0,0,0,1.15-.43Z"/><path class="cls-3" d="M216.47,70.2a.29.29,0,0,1-.29.29.28.28,0,0,1-.28-.29V64.69a.28.28,0,0,1,.27-.3.29.29,0,0,1,.3.3Z"/><path class="cls-3" d="M224.66,68.91a2,2,0,0,1-2.11,1.58c-1.58,0-2.47-1.13-2.47-3,0-2.25,1.28-3,2.52-3a1.85,1.85,0,0,1,2,1.46.33.33,0,0,1-.33.32c-.27,0-.31-.2-.36-.39a1.29,1.29,0,0,0-1.37-1.07c-1.62,0-1.77,1.82-1.77,2.76a3.53,3.53,0,0,0,.64,2.26,1.54,1.54,0,0,0,1.16.45A1.29,1.29,0,0,0,223.94,69c.05-.24.1-.46.37-.46A.35.35,0,0,1,224.66,68.91Z"/><path class="cls-3" d="M226.35,70.2a.29.29,0,0,1-.29.29.28.28,0,0,1-.28-.29V64.69a.28.28,0,0,1,.28-.3.29.29,0,0,1,.29.3Z"/><path class="cls-3" d="M228.46,64.84a.45.45,0,1,1-.45-.45A.45.45,0,0,1,228.46,64.84Zm-.16,5.36a.29.29,0,0,1-.29.29.28.28,0,0,1-.29-.29V66.49a.29.29,0,0,1,.28-.29.29.29,0,0,1,.3.29Z"/><path class="cls-3" d="M232.92,70.2a.29.29,0,1,1-.57,0V67.51a.88.88,0,0,0-.92-1c-.13,0-.92,0-1.22,1.09v2.6a.29.29,0,0,1-.29.29.28.28,0,0,1-.29-.29V66.49a.29.29,0,1,1,.58,0V67a1.49,1.49,0,0,1,1.34-.77,1.22,1.22,0,0,1,1.37,1.35Z"/><path class="cls-3" d="M235,64.84a.45.45,0,1,1-.45-.45A.45.45,0,0,1,235,64.84Zm-.16,5.36a.29.29,0,0,1-.29.29.28.28,0,0,1-.28-.29V66.49a.28.28,0,0,1,.27-.29.29.29,0,0,1,.3.29Z"/><path class="cls-3" d="M239.38,69.11a1.61,1.61,0,0,1-1.7,1.38c-1,0-1.81-.62-1.81-2.13s.93-2.16,1.87-2.16a1.55,1.55,0,0,1,1.62,1.25.29.29,0,0,1-.29.3c-.24,0-.28-.16-.33-.39a1,1,0,0,0-1-.85c-1,0-1.24.9-1.24,1.88s.35,1.79,1.18,1.79a1,1,0,0,0,1-.94c0-.21.06-.45.34-.45A.31.31,0,0,1,239.38,69.11Z"/></g></g><polygon class="cls-6" points="255.57 28.57 255.57 4.57 201.97 4.57 89.63 4.57 34.56 4.57 34.56 29.23 6.25 41.49 6.25 88.57 89.63 126.02 201.97 126.02 285.09 89 285.09 41.71 255.57 28.57"/></g></g></svg>