<svg xmlns="http://www.w3.org/2000/svg" viewBox="0 0 29.47 28.09"><defs><style>.cls-1{fill:#fff;}</style></defs><g id="圖層_2" data-name="圖層 2"><g id="圖層_1-2" data-name="圖層 1"><path class="cls-1" d="M29.47,11.11V13c-.09,0,0,.11-.06.17a10.66,10.66,0,0,1-3.13,6.29,44.18,44.18,0,0,1-6.71,5.49,34,34,0,0,1-5.35,3.19H13.7a.84.84,0,0,1-.28-.51,3.17,3.17,0,0,1,.08-.69,6.2,6.2,0,0,0,.2-2c-.1-.6-.38-1-.95-1a15.7,15.7,0,0,1-1.65-.26,14.8,14.8,0,0,1-8.84-5.25,10.27,10.27,0,0,1-2-4.29A6.06,6.06,0,0,0,0,13V11c.08,0,.06-.08.06-.14A11,11,0,0,1,4,3.83,15.78,15.78,0,0,1,12.3.16,4.65,4.65,0,0,0,13.41,0h2.53a6.58,6.58,0,0,0,1.24.16,15.72,15.72,0,0,1,8.4,3.73A11.1,11.1,0,0,1,29.27,10,10.31,10.31,0,0,0,29.47,11.11Zm-14.9.23,0,0,2.13,3.06c.6.87.6.87,1.66.83h0c.18,0,.28-.06.28-.27,0-2,0-3.93,0-5.89,0-.22-.1-.3-.3-.29h-.69c-.36,0-.4,0-.4.39v3.57l-.21-.29c-.66-.95-1.37-1.87-2-2.86a1.46,1.46,0,0,0-1.63-.82c-.25,0-.35.1-.35.36,0,.74,0,1.48,0,2.22,0,1.17,0,2.35,0,3.53,0,.26.09.38.35.36s.42,0,.64,0c.39,0,.4,0,.4-.4Zm5.22.66v2.91c0,.19.05.31.27.31h3.65c.22,0,.29-.11.28-.31v-.69c0-.35,0-.39-.39-.39H21.38c-.15,0-.22,0-.21-.2a5.77,5.77,0,0,0,0-.72c0-.2.06-.24.24-.24h2.27c.23,0,.32-.09.31-.31s0-.49,0-.74-.1-.35-.35-.34c-.52,0-1,0-1.58,0-.29,0-.69.13-.85-.06s0-.56,0-.86.06-.24.24-.23h2.28c.22,0,.31-.09.3-.3s0-.5,0-.75-.1-.34-.35-.34H20.14c-.28,0-.36.11-.35.38C19.8,10.09,19.79,11,19.79,12ZM5.53,12c0,1,0,1.94,0,2.91,0,.18,0,.31.27.31H9.41c.18,0,.26-.07.26-.26s0-.51,0-.77-.09-.36-.35-.36H7.19c-.25,0-.29-.07-.29-.3,0-1.46,0-2.93,0-4.4,0-.34,0-.37-.38-.37s-.43,0-.64,0-.37.08-.37.37C5.53,10.07,5.53,11,5.53,12Zm6.6,0c0-1,0-1.93,0-2.9,0-.24-.09-.36-.34-.35a4,4,0,0,1-.69,0c-.28,0-.36.1-.36.37,0,1.2,0,2.4,0,3.6,0,.73,0,1.46,0,2.19,0,.21.07.32.3.31a4.33,4.33,0,0,1,.72,0c.28,0,.37-.1.37-.37C12.12,13.9,12.13,13,12.13,12Z"/></g></g></svg>