<svg xmlns="http://www.w3.org/2000/svg" viewBox="0 0 146.24 75.9"><defs><style>.cls-1{fill:#ce9b6d;}</style></defs><g id="圖層_2" data-name="圖層 2"><g id="圖層_2-2" data-name="圖層 2"><path class="cls-1" d="M17.85,71.06A37,37,0,0,0,36.79,75.9a36.84,36.84,0,0,0,18.66-4.75A33.92,33.92,0,0,0,68.37,58a38.61,38.61,0,0,0,4.66-19,39.22,39.22,0,0,0-4.57-19A33.23,33.23,0,0,0,55.63,6.73,36.75,36.75,0,0,0,37,2a38.65,38.65,0,0,0-19,4.67A33.76,33.76,0,0,0,4.76,19.56,36.94,36.94,0,0,0,0,38.4,38.8,38.8,0,0,0,4.76,57.69,34.68,34.68,0,0,0,17.85,71.06Zm.54-57.6q6-9,16.6-9,10.95,0,18.21,9.33t7.27,27.27Q60.47,56,55,64.69t-16.24,8.7q-12,0-19.2-10.23T12.38,37Q12.38,22.42,18.39,13.46Z"/><path class="cls-1" d="M87.21,73.57h54.72a1.38,1.38,0,0,0,1.17-.63,2.28,2.28,0,0,0,.45-1.35l2.69-18.3q0-.54-1.26-.54c-.6,0-.89.13-.89.36q-1.26,5.93-4.67,8.26T128.3,64.24q-7.73.54-27.46.54c-.6,0-1-.12-1.16-.36s0-.54.44-.9q14-10.77,21.81-17.85A69.66,69.66,0,0,0,133.77,32.3a23.09,23.09,0,0,0,4-12.56,16.74,16.74,0,0,0-5.3-12.83Q127.21,2,118.07,2A43.81,43.81,0,0,0,105,4.31a19.79,19.79,0,0,1-5.38,1.25c-1.8,0-2.7-.95-2.7-2.87a8.51,8.51,0,0,1,.18-2q.18-.18-.27-.45a1.83,1.83,0,0,0-1-.27q-.72,0-.72.36l-7,27.27q-.18.72,1.44.72c.47,0,.72-.06.72-.18Q96.53,5.92,110.71,5.92a15.12,15.12,0,0,1,11.4,4.58,16.26,16.26,0,0,1,4.39,11.75,25.38,25.38,0,0,1-3.77,12.92Q119,41.63,110.35,49.79T86,70.88a1.3,1.3,0,0,0-.18,1.7A1.62,1.62,0,0,0,87.21,73.57Z"/></g></g></svg>