<svg xmlns="http://www.w3.org/2000/svg" viewBox="0 0 60 60"><defs><style>.cls-1{fill:#d4a88c;}.cls-2{fill:none;}.cls-3{fill:#fff;}</style></defs><g id="圖層_2" data-name="圖層 2"><g id="圖層_1-2" data-name="圖層 1"><circle class="cls-1" cx="30" cy="30" r="30"/><rect class="cls-2" x="14.42" y="14.42" width="31.16" height="31.16"/><path class="cls-3" d="M51.72,27.17h0v-.11h0l-.05-.42,0-.29,0-.09h0a16.65,16.65,0,0,0-4.25-8.36,21.74,21.74,0,0,0-8.47-5.58A25.73,25.73,0,0,0,30,10.75a25,25,0,0,0-11.67,2.81C11.61,17.12,7.65,23.67,8.23,30.25a17.16,17.16,0,0,0,3.85,9.36,20.81,20.81,0,0,0,8.16,6,31.6,31.6,0,0,0,6.08,1.64l.25,0c.57.11.73.27.77.33a.75.75,0,0,1,0,.47c0,.11-.05.23-.08.34A6.9,6.9,0,0,0,27,51.36,2,2,0,0,0,29,53.25h0a7.69,7.69,0,0,0,3.42-1.31l.12-.07c2.13-1.25,4.13-2.66,5.64-3.74,3.3-2.38,7-5.07,9.84-8.56A16.88,16.88,0,0,0,51.72,27.17Zm-30,6.63H18a1,1,0,0,1-1-1v-7.9a1,1,0,1,1,2.06,0v6.87h2.74a1,1,0,1,1,0,2.06Zm3.93-1a1,1,0,0,1-2.06,0V24.84a1,1,0,1,1,2.06,0Zm9.32,0a1,1,0,0,1-.72,1,1.12,1.12,0,0,1-.31,0,1,1,0,0,1-.84-.43l-3.7-5.11v4.5a1,1,0,0,1-2.06,0V25.07a1,1,0,0,1,1.86-.6L33,29.58V24.85a1,1,0,1,1,2.06,0Zm7.51.87h-5.1a1,1,0,0,1-1-1v-7.9a1,1,0,0,1,1-1h4.94a1,1,0,1,1,0,2.06H38.45v1.89h3.17a1,1,0,1,1,0,2.06H38.45v1.9h4.07a1,1,0,0,1,0,2.06Z"/></g></g></svg>