<svg xmlns="http://www.w3.org/2000/svg" viewBox="0 0 45 45"><defs><style>.cls-1{fill:none;}.cls-2{fill:#d8af4b;}</style></defs><g id="圖層_2" data-name="圖層 2"><g id="圖層_1-2" data-name="圖層 1"><rect class="cls-1" width="45" height="45"/><g id="圖層_2-2" data-name="圖層 2"><g id="圖層_2-2-2" data-name="圖層 2-2"><path class="cls-2" d="M17.59.67s1.7.39,2.54,4.9.37,6.54-1.6,6.72S13,12.11,12.84,14c0,1.09.48,1.94,1.66,3.66L25,32.67s2.81,4.81,4.63.75,1.42-4.78,4.45-4,8,4.29,7.08,6.78a10,10,0,0,1-9.29,8.59C24,46,19.44,40.81,13.66,32.51S-2.63,11.05,9.11,2A8,8,0,0,1,17.59.67Z"/></g></g></g></g></svg>