<svg id="圖層_1" data-name="圖層 1" xmlns="http://www.w3.org/2000/svg" viewBox="0 0 100 100"><defs><style>.cls-1{fill:#efb79b;}</style></defs><path class="cls-1" d="M82.13,54.76a41.26,41.26,0,0,0-13.24-5.11c1.79-.47,3.45-1,5-1.54a26,26,0,0,0,6.64-3.58c4.58-3.3,6.89-7.52,6.89-12.6,0-6.63-4-11.83-12-15.47a47.78,47.78,0,0,0-10.15-3.14,61.21,61.21,0,0,0-11.75-1.05H9.83v3.3h10.9V84.52c-2.27,0-9,0-10.18,0l-.72,0v3.18H56.26a54.25,54.25,0,0,0,21.9-4.19c8-3.58,12-8.78,12-15.47C90.17,62.62,87.47,58.15,82.13,54.76ZM69.9,79.66a20.29,20.29,0,0,1-6.22,3.66,21.83,21.83,0,0,1-7.42,1.23H40.61c-5,0-7.54-1.94-7.54-5.79v-57c0-2.83,1.3-6.22,7.54-6.22h13A22.08,22.08,0,0,1,61,16.77a19.21,19.21,0,0,1,6.25,3.76c3.8,3.11,5.76,7,5.76,11.4s-2,8.41-5.76,11.68A20.36,20.36,0,0,1,53.6,48.38H49.24v3.3h7.09A20.18,20.18,0,0,1,70,56.58,14.43,14.43,0,0,1,75.72,68.1C75.65,72.51,73.7,76.39,69.9,79.66Z"/></svg>