<svg width="322" height="20" viewBox="0 0 322 20" fill="none" xmlns="http://www.w3.org/2000/svg">
<path d="M174 18.8398C175.05 18.7298 175.73 18.5398 176.05 18.2698C176.37 18.0098 176.53 17.3298 176.53 16.2498V3.45984C176.53 2.40984 176.38 1.73984 176.07 1.43984C175.76 1.13984 175.07 0.949844 174 0.879844V0.339844H181.76C184.37 0.339844 186.58 0.769844 188.39 1.62984C191.65 3.17984 193.28 5.93984 193.28 9.91984C193.28 11.3498 192.99 12.7198 192.4 14.0098C191.82 15.2998 190.93 16.3898 189.75 17.2798C189 17.8398 188.22 18.2698 187.42 18.5598C185.95 19.0998 184.14 19.3698 182 19.3698H174V18.8398ZM179.8 18.0798C180.03 18.2298 180.5 18.2998 181.23 18.2998C183.48 18.2998 185.33 17.8498 186.78 16.9598C189.01 15.5898 190.12 13.2498 190.12 9.93984C190.12 6.98984 189.2 4.76984 187.37 3.26984C185.79 2.01984 183.7 1.37984 181.11 1.37984C180.46 1.37984 180.02 1.44984 179.8 1.58984C179.57 1.72984 179.45 2.03984 179.45 2.51984V17.1598C179.45 17.6198 179.57 17.9298 179.8 18.0798Z" fill="#585E4F"/>
<path d="M201.84 18.8398C202.9 18.7298 203.58 18.5398 203.9 18.2698C204.21 18.0098 204.37 17.3298 204.37 16.2498V3.45984C204.37 2.43984 204.21 1.76984 203.91 1.45984C203.6 1.14984 202.91 0.949844 201.85 0.879844V0.339844H217.14L217.24 4.45984H216.51C216.27 3.18984 215.9 2.36984 215.41 1.99984C214.92 1.62984 213.84 1.43984 212.15 1.43984H208.23C207.81 1.43984 207.55 1.50984 207.45 1.63984C207.35 1.77984 207.3 2.02984 207.3 2.40984V8.82984H211.74C212.97 8.82984 213.75 8.64984 214.09 8.28984C214.43 7.92984 214.7 7.18984 214.91 6.07984H215.58V12.7298H214.91C214.69 11.6198 214.42 10.8798 214.08 10.5198C213.74 10.1598 212.97 9.97984 211.75 9.97984H207.31V17.0998C207.31 17.6698 207.49 18.0098 207.85 18.1098C208.21 18.2098 209.29 18.2698 211.09 18.2698C213.04 18.2698 214.48 18.0598 215.41 17.6298C216.34 17.1998 217.17 16.1698 217.91 14.5298H218.71L217.4 19.3898H201.84V18.8398Z" fill="#585E4F"/>
<path d="M226.6 18.8398C227.79 18.7198 228.55 18.4498 228.89 18.0298C229.23 17.6098 229.4 16.6498 229.4 15.1298V2.45984L229.01 1.99984C228.59 1.49984 228.23 1.19984 227.94 1.07984C227.64 0.959844 227.2 0.899844 226.61 0.879844V0.339844H231.52L242.62 14.0998V4.53984C242.62 2.96984 242.38 1.93984 241.92 1.46984C241.61 1.15984 240.93 0.959844 239.87 0.869844V0.339844H246.63V0.879844C245.53 0.989844 244.8 1.25984 244.44 1.67984C244.07 2.09984 243.89 3.06984 243.89 4.56984V19.7198H243.4L230.66 3.92984V15.1298C230.66 16.6998 230.89 17.7298 231.35 18.1998C231.65 18.5098 232.32 18.7198 233.36 18.8298V19.3598H226.6V18.8398Z" fill="#585E4F"/>
<path d="M254.82 0.339844H271.09L271.24 5.22984H270.55C270.21 3.69984 269.78 2.68984 269.26 2.22984C268.74 1.76984 267.65 1.52984 265.98 1.52984H264.38V16.2498C264.38 17.3598 264.55 18.0498 264.9 18.3098C265.25 18.5798 266.01 18.7498 267.18 18.8298V19.3598H258.79V18.8298C260.01 18.7398 260.77 18.5398 261.06 18.2298C261.36 17.9198 261.51 17.1498 261.51 15.9098V1.52984H259.9C258.31 1.52984 257.22 1.75984 256.65 2.21984C256.07 2.67984 255.64 3.67984 255.35 5.22984H254.65L254.82 0.339844Z" fill="#585E4F"/>
<path d="M277.16 19.38V18.85C277.9 18.77 278.46 18.49 278.82 18.02C279.19 17.55 279.82 16.25 280.72 14.13L286.72 0H287.29L294.46 16.31C294.94 17.39 295.32 18.06 295.61 18.32C295.9 18.58 296.38 18.75 297.05 18.84V19.37H289.73V18.84C290.57 18.77 291.11 18.67 291.36 18.57C291.6 18.46 291.73 18.2 291.73 17.78C291.73 17.64 291.68 17.39 291.59 17.04C291.5 16.69 291.37 16.31 291.2 15.92L290.05 13.15H282.47C281.72 15.03 281.28 16.18 281.13 16.6C280.99 17.01 280.91 17.34 280.91 17.59C280.91 18.07 281.11 18.41 281.5 18.6C281.74 18.71 282.2 18.8 282.87 18.85V19.38H277.16ZM289.55 11.99L286.25 4.07L282.94 11.99H289.55Z" fill="#585E4F"/>
<path d="M305.03 18.8398C306.09 18.7298 306.77 18.5398 307.09 18.2698C307.4 18.0098 307.56 17.3298 307.56 16.2498V3.45984C307.56 2.43984 307.4 1.76984 307.1 1.45984C306.79 1.14984 306.1 0.949844 305.04 0.879844V0.339844H313.16V0.879844C312.1 0.939844 311.39 1.10984 311.03 1.39984C310.67 1.68984 310.49 2.30984 310.49 3.26984V17.0998C310.49 17.4198 310.54 17.6698 310.65 17.8498C310.76 18.0298 311 18.1498 311.36 18.1998C311.58 18.2298 311.8 18.2498 312.04 18.2598C312.28 18.2698 312.73 18.2698 313.38 18.2698C315.94 18.2698 317.67 18.0598 318.57 17.6398C319.47 17.2198 320.34 16.1398 321.19 14.4098H321.92L320.51 19.3998H305.03V18.8398Z" fill="#585E4F"/>
<path d="M18.1669 10.6769C17.2675 10.1117 16.1556 9.67808 14.8393 9.39161C15.289 9.27547 15.7059 9.15159 16.0984 9.00448C16.7279 8.77221 17.2839 8.47025 17.7663 8.10636C18.9191 7.27791 19.4996 6.2172 19.4996 4.93969C19.4996 3.27506 18.4858 1.96659 16.4827 1.05297C15.6896 0.704564 14.8311 0.433578 13.9318 0.263244C13.0242 0.0851671 12.035 0 10.9803 0H0V0.828443H2.73893V18.1561C2.16662 18.1561 0.474203 18.1483 0.17987 18.1561L0 18.1638V18.9613H11.667C13.7355 18.9613 15.5833 18.6051 17.1694 17.9083C19.1725 17.0102 20.1863 15.7017 20.1863 14.0216C20.1863 12.6512 19.5077 11.5285 18.1669 10.6769ZM15.0927 16.9328C14.6104 17.3431 14.0871 17.6528 13.5311 17.8541C12.9752 18.0554 12.3456 18.1638 11.667 18.1638H7.73442C6.47533 18.1638 5.83761 17.676 5.83761 16.7082V2.39242C5.83761 1.68011 6.16464 0.828443 7.73442 0.828443H10.9884C11.6589 0.828443 12.2884 0.929095 12.8525 1.1304C13.4085 1.3317 13.9318 1.6414 14.4223 2.07498C15.3789 2.85697 15.8695 3.82478 15.8695 4.93969C15.8695 6.07009 15.3789 7.05338 14.4223 7.87408C13.4903 8.67156 12.3375 9.07417 10.9966 9.07417H9.90104V9.90261H11.6834C13.0079 9.90261 14.1607 10.313 15.1091 11.1337C16.0657 11.9156 16.5562 12.8912 16.5562 14.0293C16.5399 15.1365 16.0493 16.1121 15.0927 16.9328Z" fill="#585E4F"/>
<path d="M56.9858 0.828443H59.7248V18.1561H56.9858V18.9613H65.5624V18.1561H62.8234V0.828443H65.5624V0H56.9858V0.828443Z" fill="#585E4F"/>
<path d="M115.281 0.828443H117.995V8.60962C117.946 8.75672 117.782 8.86512 117.603 8.8806H107.873C107.644 8.86512 107.464 8.71801 107.456 8.51671V0.828443H110.195V0H101.619V0.828443H104.358V18.1561H101.619V18.9613H110.195V18.1561H107.456V10.2588C107.464 10.0575 107.661 9.90261 107.906 9.90261H117.562C117.766 9.90261 117.946 10.0187 117.995 10.1736V18.1561H115.281V18.9613H123.833V18.1561H121.118V0.828443H123.833V0H115.281V0.828443Z" fill="#585E4F"/>
<path d="M150.282 0H131.943L131.346 2.96536H132.286C132.286 2.70212 132.458 2.16015 132.581 1.88142C132.777 1.3859 133.439 0.828443 134.077 0.828443H139.571V18.1561H136.857V18.9613H145.392V18.1561H142.678V0.828443H148.172C148.802 0.828443 149.464 1.3859 149.668 1.88916C149.791 2.16015 149.963 2.70212 149.963 2.96536H150.903L150.282 0Z" fill="#585E4F"/>
<path d="M90.6955 9.32158C89.2974 9.32932 87.9075 9.33706 86.5258 9.33706H86.3377V10.181H89.183V16.2588C89.183 16.8472 88.766 17.3737 88.1364 17.5673C85.5528 18.3803 83.141 18.2177 81.1542 17.1105C79.0939 15.9569 77.5405 13.9051 77.0008 11.6056C76.5185 9.54611 76.7637 7.3008 77.7122 5.11742C78.7668 2.68629 81.4158 1.02166 84.3101 0.98295C86.5094 0.95198 88.6597 1.83462 90.0332 3.35989C90.1477 3.48376 90.2622 3.63087 90.3766 3.77798L90.7282 4.24253C90.8427 4.38963 90.9408 4.54448 91.0389 4.70707L91.3087 5.17162C91.3904 5.31098 91.464 5.45035 91.5294 5.58971C91.554 5.65165 91.5867 5.70585 91.603 5.75231C91.6357 5.81424 91.6602 5.86844 91.6848 5.92264L91.7338 6.03103H92.5024V0.177734H91.6112L91.603 0.340326C91.5785 0.688737 91.5131 0.990693 91.4395 1.12231C91.3577 1.25394 91.2596 1.32362 91.1206 1.34685C91.0307 1.36233 90.9326 1.36233 90.8263 1.35459C90.72 1.34685 90.6137 1.33136 90.5156 1.30039C90.393 1.26942 90.2703 1.23071 90.1477 1.192C90.0251 1.16103 89.927 1.13006 89.8288 1.09134C89.0767 0.866813 88.3 0.696479 87.6295 0.549372C82.1108 -0.642966 76.8537 1.1378 74.2292 5.0942C72.8311 7.20014 72.5613 9.97969 73.5016 12.5347L73.5261 12.6044C74.5235 15.2368 76.682 17.1492 79.7643 18.1325C81.3423 18.6358 83.1328 18.8913 84.9969 18.8913C86.1497 18.8913 87.327 18.7906 88.5043 18.597C88.8723 18.5351 89.2157 18.4577 89.5182 18.3725C89.7961 18.2873 90.0496 18.2099 90.2949 18.1402C90.5483 18.0706 90.7854 17.9931 91.0062 17.908C91.2515 17.8151 91.4967 17.7299 91.7502 17.637C91.9955 17.5518 92.2407 17.4666 92.5024 17.3815L92.625 17.3428V13.7967C92.625 13.7812 92.6577 12.016 92.6577 11.2107C92.6577 10.421 93.2627 10.1423 93.7778 10.1423H95.0533V9.29835H94.8652C93.4835 9.30609 92.0936 9.31384 90.6955 9.32158Z" fill="#585E4F"/>
<path d="M48.3363 18.0864C47.8621 17.9238 47.1671 17.0179 47.1671 15.9727V14.0293C47.1671 11.7143 45.6873 10.2046 42.7521 9.51548C43.2345 9.40709 43.6842 9.28321 44.1012 9.1361C44.7716 8.90383 45.3766 8.60187 45.8917 8.25346C47.1835 7.39405 47.8457 6.27914 47.8457 4.93969C47.8457 3.27506 46.8319 1.96659 44.8288 1.05297C44.0358 0.704564 43.1773 0.433578 42.2779 0.263244C41.3786 0.0851671 40.3893 0 39.3346 0H28.3544V0.828443H31.0933V18.1561H29.5644C29.5644 18.1561 28.8858 18.1483 28.5261 18.1561L28.3462 18.1638V18.9613H36.9227V18.1561H36.7428C36.7428 18.1561 36.3504 18.1483 35.59 18.1561H35.5819C35.2221 18.1561 34.8787 18.0244 34.6171 17.7767C34.3391 17.5134 34.1838 17.1573 34.1838 16.7934V2.73309C34.1838 1.43236 34.8542 0.828443 36.2932 0.828443H39.3264C40.005 0.828443 40.6264 0.929095 41.1905 1.1304C41.7465 1.3317 42.2698 1.6414 42.7603 2.07498C43.7169 2.85697 44.2075 3.82478 44.2075 4.93969C44.2075 6.07009 43.7169 7.05338 42.7603 7.87408C41.8283 8.67156 40.6755 9.07416 39.3346 9.07416H36.563V9.90261H38.6478C39.9723 9.90261 41.1251 10.313 42.0735 11.1337C43.0301 11.9156 43.5207 12.8912 43.5207 14.0293C43.5207 15.4617 43.6515 16.9482 45.164 18.0399C46.1533 18.7522 47.6168 19 48.5734 19H50.74V18.1793C50.74 18.1716 48.7451 18.2258 48.3363 18.0864Z" fill="#585E4F"/>
</svg>
