<svg width="23" height="176" viewBox="0 0 23 176" fill="none" xmlns="http://www.w3.org/2000/svg">
<path d="M10.049 21.599C10.7346 20.5298 11.2605 19.2078 11.608 17.6428C11.7489 18.1774 11.8991 18.6731 12.0776 19.1397C12.3593 19.8882 12.7256 20.5492 13.167 21.1227C14.1719 22.4933 15.4586 23.1835 17.0082 23.1835C19.0274 23.1835 20.6145 21.9781 21.7227 19.5966C22.1454 18.6537 22.4741 17.6331 22.6807 16.5638C22.8967 15.4848 23 14.3086 23 13.0547L23 0L21.9951 -3.56632e-08L21.9951 3.25638L0.976724 3.25638C0.976724 2.57594 0.986116 0.56379 0.976725 0.213851L0.967335 -7.81923e-07L1.90735e-06 -8.16253e-07L1.16053e-06 13.8712C1.02813e-06 16.3305 0.432013 18.5273 1.27726 20.4131C2.36668 22.7947 3.95386 24 5.99183 24C7.65414 24 9.01592 23.1932 10.049 21.599ZM2.4606 17.9441C1.96284 17.3706 1.58718 16.7485 1.343 16.0875C1.09882 15.4265 0.967334 14.678 0.967334 13.8712L0.967334 9.19563C0.967334 7.69866 1.559 6.94046 2.73295 6.94046L20.098 6.94046C20.962 6.94046 21.9951 7.32928 21.9951 9.19563L21.9951 13.0644C21.9951 13.8615 21.873 14.61 21.6288 15.2807C21.3846 15.9417 21.009 16.5638 20.4831 17.147C19.5345 18.2843 18.3606 18.8676 17.0082 18.8676C15.637 18.8676 14.4443 18.2843 13.4488 17.147C12.4814 16.0389 11.9931 14.6683 11.9931 13.0741L11.9931 11.7716L10.9882 11.7716L10.9882 13.8906C10.9882 15.4654 10.4904 16.836 9.49489 17.9635C8.54634 19.1009 7.363 19.6841 5.98244 19.6841C4.63944 19.6646 3.4561 19.0814 2.4606 17.9441Z" fill="#EFB79B"/>
<path d="M21.9951 67L21.9951 70.1935L0.976724 70.1935L0.976725 67L1.90735e-06 67L1.36896e-06 77L0.976724 77L0.976724 73.8065L21.9951 73.8065L21.9951 77L23 77L23 67L21.9951 67Z" fill="#EFB79B"/>
<path d="M21.9951 134.99L21.9951 138.167L12.5566 138.167C12.3781 138.11 12.2466 137.919 12.2278 137.708L12.2278 126.321C12.2466 126.053 12.4251 125.842 12.6693 125.833L21.9951 125.833L21.9951 129.038L23 129.038L23 119L21.9951 119L21.9951 122.206L0.976724 122.206L0.976725 119L1.90735e-06 119L1.3669e-06 129.038L0.976724 129.038L0.976724 125.833L10.5561 125.833C10.8003 125.842 10.9882 126.072 10.9882 126.359L10.9882 137.66C10.9882 137.9 10.8473 138.11 10.6595 138.167L0.976724 138.167L0.976724 134.99L1.04644e-06 134.99L5.07539e-07 145L0.976723 145L0.976723 141.823L21.9951 141.823L21.9951 145L23 145L23 134.99L21.9951 134.99Z" fill="#EFB79B"/>
<path d="M23 175.269L23 153.702L19.4031 153L19.4031 154.106C19.7224 154.106 20.3798 154.308 20.7179 154.452C21.3189 154.683 21.9951 155.462 21.9951 156.212L21.9951 162.673L0.976755 162.673L0.976755 159.481L3.2076e-05 159.481L3.15356e-05 169.519L0.976754 169.519L0.976754 166.327L21.9951 166.327L21.9951 172.788C21.9951 173.529 21.3189 174.308 20.7085 174.548C20.3798 174.692 19.7224 174.894 19.4031 174.894L19.4031 176L23 175.269Z" fill="#EFB79B"/>
<path d="M11.7617 105.874C11.7522 104.23 11.7427 102.595 11.7427 100.97L11.7427 100.749L10.7054 100.749L10.7054 104.095L3.23542 104.095C2.51221 104.095 1.86512 103.605 1.62722 102.864C0.628051 99.8253 0.827886 96.9884 2.18866 94.6515C3.60654 92.2281 6.12826 90.4009 8.95449 89.7662C11.4857 89.1988 14.2453 89.4873 16.9288 90.6029C19.9168 91.8434 21.9628 94.9593 22.0103 98.3636C22.0484 100.951 20.9636 103.48 19.089 105.095C18.9367 105.23 18.7559 105.365 18.5751 105.499L18.0041 105.913C17.8233 106.047 17.633 106.163 17.4332 106.278L16.8622 106.596C16.6909 106.692 16.5197 106.778 16.3484 106.855C16.2722 106.884 16.2056 106.922 16.1485 106.942C16.0724 106.98 16.0058 107.009 15.9392 107.038L15.806 107.096L15.806 108L23 108L23 106.951L22.8002 106.942C22.3719 106.913 22.0008 106.836 21.8391 106.749C21.6773 106.653 21.5916 106.538 21.5631 106.374C21.5441 106.269 21.5441 106.153 21.5536 106.028C21.5631 105.903 21.5821 105.778 21.6202 105.663C21.6583 105.518 21.7058 105.374 21.7534 105.23C21.7915 105.086 21.8295 104.97 21.8771 104.855C22.1531 103.97 22.3624 103.057 22.5432 102.268C24.0087 95.7767 21.82 89.5931 16.9574 86.5061C14.3691 84.8617 10.9528 84.5443 7.81258 85.6503L7.72693 85.6791C4.49152 86.8523 2.14108 89.3912 0.932561 93.0167C0.314027 94.8727 1.26324e-06 96.9788 1.14534e-06 99.1714C1.07243e-06 100.527 0.123708 101.912 0.361606 103.297C0.437734 103.73 0.532893 104.134 0.637568 104.489C0.742244 104.816 0.837401 105.115 0.923045 105.403C1.00869 105.701 1.10385 105.98 1.20852 106.24C1.32271 106.528 1.42739 106.817 1.54158 107.115C1.64625 107.403 1.75093 107.692 1.8556 108L1.90319 108.144L6.26148 108.144C6.28051 108.144 8.45014 108.182 9.4398 108.182C10.4104 108.182 10.753 108.894 10.753 109.5L10.753 111L11.7902 111L11.7902 110.779C11.7807 109.154 11.7712 107.519 11.7617 105.874Z" fill="#EFB79B"/>
<path d="M1.10595 56.2092C1.30277 55.6586 2.39935 54.8518 3.66463 54.8518L6.01712 54.8518C8.81948 54.8518 10.6471 53.1336 11.4813 49.7258C11.6125 50.2859 11.7624 50.808 11.9405 51.2921C12.2217 52.0705 12.5872 52.7729 13.009 53.3709C14.0493 54.8708 15.3989 55.6396 17.0204 55.6396C19.0355 55.6396 20.6194 54.4626 21.7253 52.1369C22.1471 51.2161 22.4751 50.2194 22.6813 49.1752C22.8969 48.1311 23 46.9825 23 45.7579L23 33.0095L21.9971 33.0095L21.9971 36.1895L1.0216 36.1895L1.0216 34.4144C1.0216 34.4144 1.03097 33.6265 1.0216 33.2088L1.01223 33L0.0468655 33L0.0468649 42.9576L1.0216 42.9576L1.0216 42.7488C1.0216 42.7488 1.03097 42.2932 1.0216 41.4104L1.0216 41.4009C1.0216 40.9832 1.18093 40.5845 1.48085 40.2808C1.79951 39.958 2.23065 39.7777 2.67115 39.7777L19.6915 39.7777C21.2661 39.7777 21.9971 40.556 21.9971 42.2267L21.9971 45.7484C21.9971 46.5363 21.8753 47.2578 21.6316 47.9127C21.3879 48.5582 21.013 49.1658 20.4882 49.7353C19.5416 50.8459 18.37 51.4155 17.0204 51.4155C15.652 51.4155 14.4617 50.8459 13.4682 49.7353C12.5029 48.6532 12.0155 47.3147 12.0155 45.7579L12.0155 42.54L11.0126 42.54L11.0126 44.9606C11.0126 46.4984 10.5159 47.8368 9.52241 48.9379C8.5758 50.0486 7.39487 50.6181 6.01712 50.6181C4.28321 50.6181 2.4837 50.77 1.16219 52.5261C0.299922 53.6747 7.02781e-07 55.3739 6.42987e-07 56.4845L5.07556e-07 59L0.993481 59C1.00285 59 0.937247 56.6838 1.10595 56.2092Z" fill="#EFB79B"/>
</svg>
