<svg xmlns="http://www.w3.org/2000/svg" viewBox="0 0 60 60"><defs><style>.cls-1{fill:#4c4f46;}.cls-2{fill:none;}.cls-3{fill:#fff;}</style></defs><g id="圖層_2" data-name="圖層 2"><g id="圖層_1-2" data-name="圖層 1"><circle class="cls-1" cx="30" cy="30" r="30"/><rect class="cls-2" x="14.42" y="14.42" width="31.16" height="31.16"/><g id="圖層_2-2" data-name="圖層 2"><g id="圖層_2-2-2" data-name="圖層 2-2"><path class="cls-3" d="M25.85,11.55s1.43.33,2.15,4.15.31,5.52-1.36,5.67-4.68-.15-4.81,1.46c0,.92.41,1.64,1.41,3.1l8.83,12.66s2.38,4.07,3.91.64,1.2-4,3.76-3.35,6.73,3.63,6,5.73a8.49,8.49,0,0,1-7.86,7.26c-6.57,1-10.46-3.4-15.34-10.41S8.76,20.33,18.69,12.68A6.73,6.73,0,0,1,25.85,11.55Z"/></g></g></g></g></svg>