<svg width="121" height="553" viewBox="0 0 121 553" fill="none" xmlns="http://www.w3.org/2000/svg">
<path d="M87.173 472.886C82.0723 472.886 76.9716 474.625 72.5086 478.102C67.4079 481.579 63.5824 486.215 59.7569 491.431C57.8441 494.328 55.9314 496.647 54.0186 499.544C52.1059 502.442 50.8307 505.339 49.5555 508.237C48.2804 511.135 47.0052 514.032 45.73 516.35C44.4549 518.668 43.8173 520.986 43.1797 523.304C42.5421 526.202 40.6294 529.1 38.7166 533.156C38.7166 533.736 38.0791 533.736 38.0791 534.315C38.0791 534.895 37.4415 535.474 37.4415 536.054C36.8039 537.213 36.1663 538.372 36.1663 538.951C35.5287 542.428 34.8911 544.167 34.8911 545.326C34.8911 547.065 35.5287 548.803 36.8039 549.962C38.079 551.121 39.3542 552.28 41.267 552.28C43.1797 552.86 44.4549 552.86 45.73 552.86C47.0052 552.86 47.6428 552.86 48.2804 552.86C48.918 552.86 49.5556 552.86 50.8307 552.28C52.1059 552.28 52.7435 551.701 53.3811 551.701C54.0186 551.701 54.6562 551.701 55.2938 551.701C55.9314 551.701 57.2065 551.701 57.8441 551.121C59.1193 551.121 59.7569 551.121 60.3945 550.542C61.0321 550.542 61.6696 550.542 61.6696 550.542C62.9448 550.542 64.8575 549.962 67.4079 549.962C69.9582 549.383 73.7837 548.803 78.2468 548.224C80.7971 547.644 83.3475 547.644 85.8978 547.065C88.4481 546.485 91.6361 545.906 94.824 545.326C94.824 545.326 95.4616 545.326 96.0991 545.326C96.7367 545.326 97.3743 545.326 97.3743 544.747C98.6495 544.167 99.2871 544.167 100.562 544.167C101.2 544.167 102.475 544.167 103.113 544.167C103.75 544.167 104.388 544.167 105.025 544.747C105.663 545.326 106.3 545.906 106.938 546.485C107.576 547.065 108.213 547.644 108.213 548.224C108.851 548.803 109.488 548.803 110.126 548.803C112.039 548.803 113.314 548.224 115.227 547.065C117.139 545.906 117.777 544.747 117.777 543.008C117.777 541.27 117.777 538.951 117.139 536.054C116.502 533.156 116.502 531.418 116.502 530.259C116.502 528.52 116.502 525.622 117.139 521.566C117.139 518.089 117.777 515.191 117.777 513.453C117.777 508.237 117.139 503.021 116.502 498.385C115.864 493.749 113.951 489.692 111.401 485.636C110.764 484.477 109.488 483.318 108.213 481C106.938 479.261 103.75 476.943 99.2871 475.204C93.5488 474.045 90.3609 472.886 87.173 472.886ZM87.173 482.159C92.9112 482.159 96.7367 483.897 99.9246 487.954C103.113 491.431 105.025 496.067 105.663 501.283C106.3 503.601 106.3 506.498 106.938 508.816C106.938 511.135 107.576 514.032 107.576 516.93C107.576 517.509 107.576 518.668 107.576 519.827C107.576 520.986 107.576 521.566 107.576 522.725C107.576 524.463 106.938 526.782 106.938 528.52C106.938 530.259 106.3 531.997 106.3 534.315C103.75 534.895 101.2 535.474 98.0119 536.054C95.4616 536.633 92.2736 537.213 89.0857 537.792C88.4481 537.792 87.173 537.792 85.8978 538.372C84.6226 538.372 83.3475 538.951 81.4347 538.951C79.522 539.531 78.2468 539.531 76.3341 539.531C75.0589 539.531 73.7837 540.11 72.5086 540.11C71.2334 540.11 69.9582 540.69 68.6831 540.69C67.4079 540.69 66.1327 541.27 64.22 541.27C62.9448 541.27 61.6696 541.269 59.7569 541.849C58.4817 541.849 57.2066 541.849 55.9314 541.849C52.7435 541.849 50.8307 541.269 48.918 540.69C49.5555 537.792 50.1931 535.474 50.8307 532.577C51.4683 531.418 51.4683 529.679 52.1059 527.941C52.7435 526.202 53.3811 525.043 54.0186 523.304C54.6562 521.566 55.2938 519.827 55.9314 518.668C56.569 517.509 56.569 516.35 57.2066 515.191C61.0321 504.18 64.8575 496.647 68.683 493.169C69.3206 492.59 69.9582 492.01 70.5958 491.431C71.2334 490.851 72.5085 489.692 73.7837 489.113C76.334 487.374 78.8844 486.215 81.4347 485.056C83.9851 482.738 85.8978 482.159 87.173 482.159Z" fill="white" fill-opacity="0.5"/>
<path d="M78.2475 392.913C77.6099 392.913 76.3347 393.493 75.0596 394.072C72.5092 395.811 69.9589 397.549 66.771 399.288C63.5831 401.606 61.0327 403.924 57.8448 406.242C54.6569 409.14 52.1066 411.458 49.5562 414.355C47.0059 417.253 44.4556 420.151 42.5428 423.628C40.6301 426.525 38.7173 429.423 37.4421 432.9C36.167 435.798 35.5294 438.695 35.5294 441.593L35.5294 442.172C35.5294 448.547 37.4421 453.183 41.2677 456.081C45.0932 458.978 50.8314 460.717 57.8448 460.717C60.3951 460.717 63.5831 460.717 66.771 460.137C69.9589 459.558 73.1468 458.978 76.3347 457.819C79.5227 456.66 82.7106 455.501 85.8985 453.763C89.0864 452.024 92.2743 449.706 95.4622 447.388C97.375 445.649 99.2877 443.331 100.563 441.013C101.838 438.695 102.476 436.957 102.476 434.638C102.476 434.059 102.476 434.059 102.476 433.479C102.476 432.9 101.838 432.32 101.838 432.32C101.838 431.741 101.2 431.161 100.563 431.161C99.9253 430.582 99.9253 430.582 99.2877 430.002C98.0126 428.843 96.7374 428.264 95.4622 427.684C94.1871 427.105 92.9119 427.105 90.9991 427.105C88.4488 427.105 86.5361 427.684 84.6233 428.264C82.7106 428.843 80.7978 429.423 78.8851 430.582C76.9723 431.741 75.0596 432.9 73.1468 434.638C71.2341 436.377 69.3213 438.116 67.4086 439.854C66.771 440.434 66.1334 441.593 64.8582 442.172C64.2206 443.331 62.9455 443.911 62.3079 445.07C61.0327 446.229 60.3951 447.388 59.12 448.547C57.8448 449.706 57.2072 450.865 55.9321 452.024C48.9186 451.445 45.0931 447.967 45.0931 441.013C45.0931 436.957 46.3683 432.9 48.2811 428.843C49.5562 426.525 50.8314 424.787 52.1066 423.048C53.3817 421.31 55.2945 419.571 56.5696 417.833C57.2072 416.673 58.4824 416.094 59.12 414.935C60.3951 413.776 61.0327 412.617 62.3079 411.458C63.5831 410.299 64.8582 409.14 65.4958 407.981C66.771 406.822 68.0461 405.663 68.6837 405.083C69.3213 404.504 69.9589 403.924 70.5965 403.345C71.2341 402.765 71.8717 401.606 73.1468 401.027L76.3347 398.129C78.2475 396.39 78.8851 395.231 78.8851 394.072C79.5226 392.913 78.8851 392.913 78.2475 392.913ZM87.1736 434.638C88.4488 434.638 89.724 435.218 90.3616 435.798C90.9991 436.377 91.6367 436.957 91.6367 438.116C91.6367 438.695 91.6367 439.275 90.9991 440.434C90.3616 441.593 89.724 442.172 87.8112 443.331C84.6233 445.649 81.4354 447.388 76.9723 449.126C72.5092 450.865 68.0461 452.024 62.9455 452.604C64.8582 450.286 66.771 448.547 68.6837 446.808C70.5965 445.07 71.8717 443.911 73.1468 442.752C74.422 441.593 75.0596 441.013 76.3347 440.434C77.6099 439.854 78.2475 438.695 79.5227 438.116C80.7978 437.536 82.073 436.957 83.3481 436.377C84.6233 434.639 85.8985 434.638 87.1736 434.638Z" fill="white" fill-opacity="0.5"/>
<path d="M75.6966 307.144C75.0591 307.144 74.4215 307.144 73.1463 307.724C72.5087 307.724 71.8711 308.303 70.596 308.883C69.9584 309.462 69.3208 309.462 68.0456 310.042C67.4081 310.621 66.7705 310.621 66.1329 311.201C64.2202 312.36 62.3074 313.519 60.3947 314.678C58.4819 315.837 56.5691 317.575 54.6564 319.314C52.7437 321.053 51.4685 322.791 49.5557 324.53C48.2806 326.268 46.3678 328.007 45.7302 329.745C44.4551 330.904 43.8175 332.063 43.1799 333.222C42.5423 334.381 41.9048 335.54 41.2672 336.699C40.6296 337.859 39.992 339.018 39.992 340.177C39.3544 341.336 39.3544 343.074 39.3544 344.233C39.3544 347.131 39.992 349.449 41.9047 351.767C42.5423 352.926 43.8175 353.505 45.0927 354.085C46.3678 354.664 47.643 355.244 49.5557 355.824C51.4685 356.403 52.7437 356.983 54.6564 356.983C56.5692 357.562 58.4819 357.562 60.3947 358.142C62.945 358.721 64.8577 358.721 66.1329 359.301C68.0457 359.88 69.3208 359.88 70.596 360.46C71.8711 361.039 72.5087 361.039 73.1463 361.619C73.7839 362.198 74.4215 362.778 74.4215 363.937C74.4215 364.516 74.4215 365.096 74.4215 365.675C74.4215 366.255 73.7839 366.834 73.1463 367.414C72.5087 367.993 71.8711 368.573 71.2336 369.732C70.596 370.311 69.3208 371.47 68.0457 372.629C66.7705 373.789 64.8577 374.948 62.945 376.107C61.0322 377.266 58.4819 379.004 55.294 380.743C54.0188 381.902 52.1061 382.481 50.8309 384.22C48.9182 385.379 47.643 386.538 45.7302 388.276C44.4551 389.435 43.1799 390.595 41.9047 392.333C40.6296 393.492 39.992 394.651 39.992 395.81C40.6296 399.287 45.0927 400.446 53.3812 400.446C55.294 400.446 58.4819 400.446 62.945 399.867C64.8577 399.867 66.7705 399.287 69.3208 399.287C71.2336 399.287 73.7839 398.708 75.6967 398.128C77.6094 397.549 80.1597 396.969 82.0725 396.39C83.9852 395.81 85.898 395.231 87.8107 394.651C88.4483 394.072 89.0859 394.072 89.7235 393.492C90.3611 392.913 90.3611 392.913 90.9986 392.333C90.9986 391.754 91.6362 391.754 91.6362 391.174C91.6362 390.594 91.6362 390.015 91.6362 390.015C91.6362 389.435 90.9986 388.856 90.3611 388.276C89.7235 387.697 88.4483 387.697 86.5356 387.697C85.2604 387.697 84.6228 387.697 83.9852 387.697C83.3476 387.697 82.0725 388.276 81.4349 388.276C80.7973 388.276 79.5222 388.856 78.8846 388.856C77.6094 389.435 76.9718 389.435 75.6967 390.015C74.4215 390.015 73.1463 390.595 71.8712 390.595C70.596 390.595 69.3208 391.174 68.0457 391.174C66.7705 391.174 65.4953 391.754 64.2202 391.754C62.945 391.754 61.6698 391.754 60.3947 391.754C59.7571 391.754 59.1195 391.754 58.4819 391.174C58.4819 390.015 60.3947 388.276 63.5826 385.958C65.4953 384.799 66.7705 383.64 68.6832 381.902C70.596 380.743 72.5087 379.004 75.0591 377.266C76.9718 376.107 78.247 374.948 80.1597 373.788C81.4349 372.629 82.7101 371.47 83.9852 369.732C85.2604 368.573 85.898 366.834 86.5356 365.675C87.1731 363.937 87.8107 362.778 87.8107 361.039C87.8107 359.301 87.1731 357.562 86.5356 356.403C85.898 355.244 84.6228 354.085 82.7101 353.505C81.4349 352.926 79.5221 352.346 76.9718 351.767C75.0591 351.187 72.5087 351.187 69.9584 350.608C67.4081 350.608 65.4953 350.028 63.5826 350.028C61.6698 350.028 59.1195 349.449 57.8443 348.869C55.9316 348.29 54.6564 347.71 53.3812 346.551C52.1061 345.392 51.4685 343.654 51.4685 341.915C51.4685 340.177 52.1061 338.438 52.7437 337.279C53.3812 335.54 54.6564 333.802 55.9316 332.063C57.2067 330.325 59.1195 328.007 61.0322 326.268C62.945 324.53 64.8577 322.212 67.4081 319.894C68.0456 319.314 69.3208 318.155 70.596 316.996C71.8711 315.837 73.1463 315.257 74.4215 314.098C75.6966 312.939 76.9718 312.36 77.6094 311.201C78.247 310.621 78.8846 309.462 78.8846 309.462C78.8846 309.462 78.8846 308.883 78.247 308.303C76.9718 307.724 76.3342 307.144 75.6966 307.144Z" fill="white" fill-opacity="0.5"/>
<path d="M87.8106 267.737C86.5354 267.737 85.8978 267.737 85.2602 268.317C84.6226 268.896 83.985 269.476 83.985 270.055C83.3475 270.635 83.3475 271.214 83.3475 271.794C83.3475 272.373 83.3475 272.953 83.3475 273.533C83.3475 276.43 82.7099 279.907 82.7099 282.805C82.7099 285.702 82.0723 288.6 82.0723 291.497C82.0723 294.395 81.4347 296.134 81.4347 297.872C81.4347 299.611 80.7971 300.19 80.7971 300.19C79.522 300.19 78.2468 300.77 76.3341 301.349C74.4213 301.929 72.5085 301.929 70.5958 302.508C68.683 303.088 66.7703 303.667 64.22 303.667C62.3072 304.247 60.3945 304.247 58.4817 304.826C56.569 305.406 54.6562 305.406 53.381 305.406C52.1059 305.406 50.8307 305.985 49.5555 305.985C48.918 305.985 47.6428 305.985 46.3676 305.985C45.0925 305.985 43.8173 305.406 43.1797 305.406C41.9045 304.826 41.267 304.247 40.6294 303.667C39.9918 303.088 39.3542 301.929 39.3542 300.19C39.3542 299.611 39.3542 298.452 39.9918 297.293C40.6294 296.134 41.267 294.975 41.9045 293.816C42.5421 292.657 43.8173 290.918 45.0925 289.759C46.3676 288.6 47.6428 286.861 49.5555 285.702C50.1931 285.123 50.8307 284.543 51.4683 283.384C52.1059 282.805 52.7435 281.646 52.7435 280.487C52.7435 279.328 52.1059 278.748 50.8307 278.748C50.1931 278.748 49.5555 278.748 48.918 279.328C48.2804 279.328 47.6428 279.907 47.0052 280.487C46.3676 281.066 45.73 281.066 45.0925 281.646C44.4549 282.225 43.8173 282.805 43.1797 283.384C42.5421 283.964 41.9045 284.543 41.267 285.123C40.6294 285.702 39.3542 286.861 38.7166 287.441C37.4414 288.6 36.8039 289.759 35.5287 290.918C34.2535 292.077 33.616 293.236 32.9784 294.975C32.3408 296.134 31.7032 297.872 31.0656 299.031C30.428 300.77 30.428 301.929 30.428 303.667C30.428 305.985 31.0656 307.724 31.7032 308.883C32.3408 310.042 32.9784 311.201 34.2535 312.36C35.5287 313.519 36.8039 314.099 38.079 314.678C39.3542 315.258 40.6294 315.258 42.5421 315.837C43.8173 315.837 45.0925 316.417 47.0052 316.417C48.2804 316.417 49.5555 316.417 50.8307 316.417C52.1059 316.417 53.381 316.417 55.2938 315.837C57.2065 315.837 59.1193 315.258 61.032 315.258C62.9448 314.678 64.8575 314.678 66.7703 314.099C68.6831 313.519 70.5958 313.519 72.5085 312.939C74.4213 312.36 75.6965 312.36 77.6092 312.36C78.8844 312.36 80.1595 311.78 81.4347 311.78C82.0723 311.78 82.0723 311.781 82.0723 312.36C82.0723 312.94 82.0723 313.519 82.0723 314.099C82.0723 314.678 82.0723 315.837 81.4347 316.417C81.4347 317.576 81.4347 318.155 81.4347 319.314C81.4347 319.894 81.4347 320.473 82.0723 321.053C82.0723 321.632 82.7099 322.212 83.3475 322.791C83.985 323.371 84.6226 323.371 85.2602 323.95C85.8978 323.95 86.5354 324.53 87.8106 324.53C89.0857 324.53 89.7233 323.95 90.3609 323.371C90.9985 322.791 90.9985 322.212 90.9985 321.053L90.9985 308.303C90.9985 308.303 91.6361 307.724 92.2736 307.724C92.9112 307.144 94.1864 307.144 94.824 306.565C96.0991 305.985 97.3743 305.985 98.6495 305.406C99.9246 304.826 101.2 304.247 103.113 304.247C104.388 303.667 106.3 303.088 107.576 303.088C108.851 302.508 110.764 301.929 112.039 301.929C113.951 301.349 115.864 300.77 116.502 299.611C117.139 299.031 117.777 297.872 117.777 296.713C117.777 296.134 117.777 294.975 117.139 294.395C116.502 293.816 116.502 293.236 115.864 293.236C115.227 292.656 114.589 292.656 114.589 292.656C113.951 292.656 113.314 292.656 113.314 292.656C113.314 292.656 112.676 292.656 112.039 293.236C111.401 293.236 110.126 293.816 108.851 294.395C107.576 294.975 106.3 294.975 105.025 295.554C103.75 296.134 101.837 296.713 100.562 296.713C99.2871 297.293 98.0119 297.872 96.0991 297.872C94.824 298.452 93.5488 298.452 92.2736 299.031C92.2736 295.554 92.9112 292.656 92.9112 290.338C92.9112 288.02 93.5488 285.702 93.5488 284.543C93.5488 282.805 94.1864 281.646 94.1864 280.487C94.1864 279.328 94.1864 278.169 94.1864 277.01C94.1864 275.271 94.1864 274.112 94.1864 272.953C94.1864 271.794 93.5488 271.214 93.5488 270.635C93.5488 270.055 92.9112 269.476 92.2736 269.476C89.0857 267.737 88.4481 267.737 87.8106 267.737Z" fill="white" fill-opacity="0.5"/>
<path d="M34.8914 130.971C32.9787 130.971 32.3411 131.55 31.0659 133.289C30.4283 135.028 29.7907 136.187 29.7907 137.925C29.7907 139.664 30.4283 141.982 31.0659 143.72C32.3411 145.459 33.6162 147.777 34.8914 150.095C35.529 151.254 36.8042 152.993 38.7169 154.731C39.9921 156.47 41.9048 158.788 44.4552 161.106C45.0927 161.685 45.7303 162.844 47.6431 164.583C48.9182 166.321 51.4686 168.64 54.0189 171.537C59.1196 177.332 61.6699 180.809 62.3075 181.389C62.9451 182.548 62.9451 184.286 62.9451 187.184C62.9451 187.764 62.9451 188.343 62.9451 190.082C62.9451 191.241 62.9451 192.979 62.3075 194.718C63.5827 195.877 64.8578 196.456 68.0457 196.456C70.5961 196.456 71.8712 195.877 71.8712 194.138C71.8712 194.138 71.8712 193.559 71.8712 192.979C71.8712 192.4 71.8712 191.82 71.8712 191.82C71.8712 191.241 71.8712 190.661 71.8712 190.082C71.8712 189.502 71.8712 188.923 71.8712 188.343C72.5088 183.707 74.4216 179.071 76.3343 175.594C76.9719 174.435 77.6095 172.696 78.8847 171.537C79.5222 170.378 80.7974 168.64 81.435 167.481C83.3477 164.583 85.2605 162.265 87.8108 160.526C90.3612 158.208 92.2739 157.629 94.8242 157.629C96.737 157.629 98.0121 158.208 99.9249 158.788C101.2 159.947 103.113 161.106 104.388 162.265C105.663 163.424 106.938 165.162 107.576 166.901C108.213 168.64 108.851 170.378 109.489 171.537C110.126 174.435 110.764 176.753 110.764 179.65C110.764 180.23 110.764 181.389 110.764 182.548C110.764 183.707 110.764 184.866 110.126 186.605C110.126 187.764 109.489 189.502 109.489 190.661C109.489 191.82 108.851 192.979 108.851 194.138C108.851 195.297 108.213 196.456 108.213 197.615C108.213 198.774 107.576 199.933 107.576 201.672C106.301 201.092 103.75 199.933 100.562 199.354C97.3746 198.774 94.8242 198.195 92.9115 198.195C91.6363 198.195 90.3611 198.195 89.7236 198.195C88.4484 198.195 87.8108 198.195 86.5356 198.195C85.2605 198.195 84.6229 198.195 83.3477 198.774C82.0726 198.774 81.435 198.774 80.1598 199.354C77.6095 199.933 75.0592 199.933 71.8712 200.513C66.133 201.672 61.0323 202.252 57.8444 202.252C55.9317 202.252 54.6565 202.831 52.7437 202.831C50.831 202.831 49.5558 202.831 48.2807 202.831C45.7303 202.831 43.18 202.831 41.2672 202.252C39.3545 201.672 36.8042 201.092 34.8914 199.933C34.2538 200.513 33.6162 201.093 32.9787 202.252C32.3411 203.411 32.3411 203.99 32.3411 205.149C32.3411 207.467 32.9787 209.206 34.2538 210.365C35.529 211.524 36.8042 212.103 38.7169 212.683C40.6297 212.683 42.5424 213.262 45.7303 213.262C47.6431 213.262 50.1934 213.262 52.1062 212.683C54.6565 212.683 56.5692 212.103 58.482 212.103C60.3947 211.524 62.3075 211.524 64.2202 210.944C64.8578 210.944 66.133 210.365 67.4082 210.365C68.6833 210.365 70.5961 209.785 71.8712 209.785C75.6967 209.206 78.8847 208.626 82.0726 208.626C85.2605 208.047 88.4484 208.047 90.9987 208.047C93.5491 208.047 96.0994 208.047 98.6497 208.047C101.2 208.047 103.75 208.626 106.938 208.626C105.663 212.683 105.026 215.001 105.026 215.58C105.026 216.739 105.663 217.319 106.301 217.898C106.938 218.478 108.213 218.478 109.489 218.478C110.764 218.478 112.677 217.319 113.952 214.421C114.589 213.262 115.227 212.103 115.864 210.365C116.502 209.206 117.14 208.047 117.14 206.308C118.415 203.411 119.052 199.354 119.69 194.718C120.328 190.082 120.965 186.025 120.965 182.548C120.965 176.753 120.328 171.537 119.052 166.322C117.777 161.106 115.227 157.049 111.401 152.993C107.576 149.516 103.113 147.777 96.737 147.777C92.9115 147.777 89.086 148.936 85.8981 151.834C82.0726 154.731 79.5222 157.629 76.3343 161.106C73.784 164.583 71.2337 168.64 68.6833 172.696C66.7706 170.378 64.2202 166.901 61.0323 162.844C59.1196 160.526 57.8444 158.788 56.5692 157.049C55.2941 155.311 54.0189 153.572 52.7437 151.834C51.4686 150.095 50.1934 148.356 48.9182 146.618C47.6431 144.879 45.7303 142.561 44.4552 140.243C42.5424 137.925 41.2672 135.607 39.9921 133.869C36.8042 133.869 36.1666 132.13 34.8914 130.971Z" fill="white" fill-opacity="0.5"/>
<path d="M80.7965 47.5204C79.5213 47.5204 78.2462 48.0999 76.3334 48.6794C75.0582 49.2589 73.1455 50.4179 71.8703 50.9974C68.6824 53.3155 65.4945 55.6335 62.3066 57.9516C59.7562 60.2697 56.5683 63.1673 54.018 65.4854C51.4677 68.3829 49.5549 70.7011 47.6422 73.5987C46.367 76.4962 45.7294 78.8143 45.7294 80.5528C45.7294 81.7119 45.7294 82.2914 46.367 83.4504C47.0046 84.6095 47.6422 85.189 48.2797 85.7685C48.9173 86.348 50.1925 87.5071 50.8301 88.0866C52.1052 88.6661 52.7428 89.2456 54.018 89.2456C54.6556 89.2456 55.2932 89.8251 55.9307 89.8251C56.5683 89.8251 57.2059 90.4046 57.8435 90.4046C58.4811 90.4046 59.1187 90.9842 59.7562 90.9842C60.3938 90.9842 60.3938 91.5636 60.3938 91.5636C60.3938 91.5636 60.3938 92.1431 59.7562 92.7227C59.1187 93.3022 58.4811 93.8817 57.8435 94.4612C57.2059 95.0408 55.9307 95.6203 55.2932 96.7794C54.018 97.3589 53.3804 97.9384 52.1052 99.0974C50.8301 99.6769 50.1925 100.256 49.5549 100.836C48.9173 101.415 48.2797 101.995 47.6422 101.995C46.367 103.154 45.0918 104.313 43.1791 106.052C41.9039 107.79 40.6287 108.949 39.3536 110.688C38.0784 112.426 37.4408 113.585 36.1657 114.744C35.5281 115.903 34.8905 117.062 34.8905 117.642C34.8905 118.801 34.8905 120.54 35.5281 121.699C36.1657 122.858 36.8032 124.017 37.4408 125.176C38.716 126.335 39.3536 126.914 41.2663 127.494C42.5415 128.073 44.4542 128.653 46.367 128.653C49.5549 128.653 52.7428 128.073 56.5683 126.914C60.3938 125.755 64.2193 124.596 68.0448 122.858C71.8703 121.119 75.6958 118.801 79.5213 117.062C83.3468 114.744 86.5347 112.426 89.0851 110.108C92.273 107.211 94.1857 104.313 95.4609 100.836C96.7361 97.9384 97.3737 94.4613 97.3737 90.9842C97.3737 90.4047 97.3737 89.8251 96.7361 89.2456C96.7361 88.6661 96.0985 88.6661 95.4609 88.0866C94.8233 87.5071 94.8233 87.507 94.1857 86.9275C93.5482 86.9275 92.9106 86.348 92.273 86.348C91.6354 86.348 91.6354 85.7685 90.9978 85.189C90.3602 84.6095 90.3602 84.03 89.7227 83.4504C89.0851 82.8709 89.0851 82.2914 88.4475 82.2914C87.8099 81.7119 87.8099 81.7119 87.1723 81.7119C86.5347 81.7119 85.2596 81.7119 84.622 82.2914C83.3468 82.8709 82.7092 82.8709 80.7965 83.4504C79.5213 84.03 78.2462 84.0299 76.3334 84.6095C74.4207 85.189 72.5079 85.189 70.5952 85.189C69.32 85.189 67.4072 85.189 65.4945 84.6095C63.5817 84.6095 61.669 84.03 60.3938 83.4504C58.4811 82.8709 57.2059 82.2914 55.9307 81.7119C54.6556 81.1323 54.018 79.9733 54.018 78.8143C54.018 77.6552 54.6556 76.4962 55.2932 75.3371C55.9307 74.1781 57.2059 72.4396 58.4811 71.2805C61.669 67.8034 64.8569 64.3263 68.6824 61.4287C72.5079 57.9516 76.3334 55.0541 79.5213 51.577C80.1589 50.9974 80.7965 50.4179 80.7965 49.8384C82.7092 48.0998 82.0717 47.5204 80.7965 47.5204ZM87.8099 90.4046C87.8099 90.4046 87.8099 90.4046 88.4475 90.4046C89.0851 90.4046 89.0851 90.4047 89.7227 90.9842C90.3602 90.9842 90.3602 91.5636 90.9978 91.5636C90.9978 92.1432 91.6354 92.1431 91.6354 92.7227C91.6354 93.8817 90.9978 95.6203 90.3602 96.7794C89.7227 98.5179 88.4475 99.6769 86.5347 101.415C84.622 103.154 82.7092 104.893 80.1589 106.631C77.6086 108.37 74.4207 110.688 70.5952 112.426C69.32 113.006 68.0448 113.585 66.7697 114.744C65.4945 115.324 63.5817 116.483 62.3066 117.062C60.3938 117.642 59.1187 118.221 57.2059 118.801C55.2932 119.38 53.3804 119.381 51.4677 119.381C50.1925 119.381 49.5549 118.801 48.9173 118.221C48.2797 117.642 47.6422 116.483 47.6422 115.903C47.6422 114.744 48.2797 113.585 49.5549 112.426C50.8301 110.688 52.1052 109.529 54.018 107.79C55.9307 106.052 57.8435 104.313 60.3938 102.575C62.9442 100.836 64.8569 99.0974 67.4072 97.9384C69.9576 96.1998 72.5079 95.0408 74.4207 93.8818C76.971 92.7227 78.8837 92.1432 80.7965 91.5636C81.4341 91.5636 82.0717 91.5637 82.7092 90.9842C83.3468 90.9842 84.622 90.9841 85.2596 90.4046C85.8972 90.4046 86.5347 90.4046 87.8099 89.8251C87.1723 90.4046 87.1723 90.4046 87.8099 90.4046Z" fill="white" fill-opacity="0.5"/>
<path d="M85.2613 1.1592C85.2613 1.1592 84.6237 1.1592 83.9861 1.1592C83.3485 1.1592 82.711 1.15915 82.0734 1.73867C81.4358 1.73867 80.7982 2.31822 79.523 2.31822C78.8855 2.31822 78.2479 2.89769 77.6103 2.89769C76.3351 3.47721 75.0599 3.47728 73.7848 4.0568C72.5096 4.63632 70.5969 5.21577 68.6841 5.79529C66.7714 6.37481 64.8586 6.95434 62.9459 7.53386C61.0331 8.11338 59.1204 8.69292 57.2076 9.27244C55.2949 9.85196 53.3821 10.4315 52.1069 11.011C50.1942 11.5905 48.919 12.17 47.6439 12.17C46.3687 12.7496 45.0935 12.7495 43.1808 13.3291C41.268 13.9086 39.3553 14.4881 37.4425 15.0676C35.5298 15.6472 33.617 16.2267 31.0667 16.8062C29.1539 17.3857 26.6036 17.9653 24.6909 18.5448C22.7781 19.1243 20.2278 19.7038 18.315 20.2833C16.4023 20.8628 14.4895 21.4423 12.5768 22.0218C11.3016 22.6014 10.0264 22.6014 8.75126 22.6014C7.4761 22.6014 6.20094 23.1809 4.92578 23.7604C3.65061 24.3399 3.01303 24.9195 1.73786 25.499C1.10028 26.0785 0.462691 27.2375 0.462691 28.9761C0.462691 29.5556 0.462706 30.1351 1.10029 30.7146C1.73787 31.2942 1.73785 31.8737 2.37543 31.8737C3.01301 32.4532 3.65062 32.4532 4.28821 32.4532C4.92579 32.4532 5.56337 32.4532 6.20095 32.4532C6.83853 32.4532 8.11369 32.4532 10.0264 31.8737C11.3016 31.2941 13.2144 30.7147 15.1271 30.1352C17.0399 29.5557 18.9526 28.9761 20.8654 28.3966C22.7781 27.8171 24.6909 27.2375 26.6036 26.658C29.7915 25.499 32.3419 24.9195 34.8922 23.7604C37.4425 23.1809 39.9929 22.0219 41.9056 21.4424C43.8184 20.8629 45.7311 20.2833 47.0063 19.7038C48.2815 19.1243 48.919 19.1243 49.5566 19.1243C50.1942 19.1243 50.1942 19.1243 50.8318 19.1243L51.4694 19.7038C51.4694 19.7038 51.4694 20.2833 50.8318 21.4424C50.1942 22.0219 49.5566 23.1809 48.2814 24.34C47.6439 25.499 46.3687 27.2376 45.0935 28.3966C43.8184 30.1352 43.1808 31.2942 41.9056 33.0328C41.268 34.7713 39.9929 36.5098 39.3553 38.2484C38.7177 39.987 38.7177 41.146 38.7177 42.8846C38.7177 45.2027 39.3553 46.9412 39.9929 48.6798C40.6304 50.4183 41.9056 51.5774 43.1808 53.3159C44.4559 54.475 45.7311 55.634 47.6439 56.2135C48.919 56.7931 50.8318 57.3726 52.1069 57.3726C53.3821 57.3726 54.6573 57.3725 56.57 56.793C58.4828 56.793 60.3955 56.2135 62.3083 55.634C64.221 55.0545 66.7714 54.4749 68.6841 53.8954C70.5969 53.3159 73.1472 52.7364 75.06 52.1568C76.9727 51.5773 78.8854 50.9978 80.7982 49.8388C82.711 49.2593 83.9861 48.6798 85.2613 47.5207C87.174 46.3617 87.8116 45.7822 88.4492 44.6232C89.0868 44.0436 89.7244 42.8845 89.7244 42.305C89.7244 41.7255 89.7244 41.146 89.0868 40.5664C89.0868 39.9869 88.4492 39.9869 87.8116 39.4074C87.174 39.4074 86.5365 38.828 85.8989 38.828C85.2613 38.828 84.6237 38.828 83.9861 38.828C83.3485 38.828 82.711 39.4075 81.4358 39.987C80.1606 40.5665 78.2479 41.146 76.3351 42.305C74.4224 42.8845 72.5096 44.0436 69.9593 44.6232C67.409 45.7822 64.8586 46.3617 62.3083 46.9412C61.0331 47.5207 59.7579 47.5207 57.8452 47.5207C56.57 47.5207 54.6573 47.5207 53.3821 47.5207C52.107 47.5207 51.4694 47.5207 50.1942 46.9412C49.5566 46.3617 48.919 45.7821 48.2814 45.2026C47.6439 44.6231 47.6439 43.4641 47.0063 42.8846C47.0063 42.3051 47.0063 41.7255 47.0063 41.146C47.0063 39.4074 47.0063 38.2484 47.6439 36.5098C48.2815 34.7713 48.919 33.6122 50.1942 31.8737C50.8318 30.1351 52.107 28.9761 53.3821 27.2376C54.6573 26.0785 55.2949 24.3399 55.9324 23.1809C56.57 22.0218 57.8452 20.8628 59.1204 19.1242C60.3955 17.9652 61.6707 16.8062 62.9459 15.6472C63.5835 15.0677 64.8586 14.4881 66.1338 13.9086C68.0465 13.3291 69.9593 12.7496 71.872 12.17C73.7848 11.5905 76.3351 11.011 78.2479 10.4315C80.1606 9.85194 82.7109 9.2724 83.9861 8.69288C85.8989 8.11337 87.8116 7.53388 88.4492 6.37484C89.7244 5.2158 89.7244 4.63632 89.7244 4.0568C89.7244 2.89776 89.7244 2.31819 89.0868 1.73867C88.4492 1.15915 88.4492 0.579647 87.8116 0.579647C87.174 0.579647 86.5365 9.16921e-05 85.8989 9.172e-05C86.5365 1.15913 85.8989 1.1592 85.2613 1.1592Z" fill="white" fill-opacity="0.5"/>
</svg>
