<svg width="306" height="244" viewBox="0 0 306 244" fill="none" xmlns="http://www.w3.org/2000/svg">
<path d="M163.247 132.978C163.247 132.978 187.648 67.5328 274.409 86.6208C359.362 104.8 369.303 262.049 242.777 320.222C238.258 322.04 229.221 326.585 229.221 326.585L231.932 312.951C236.451 288.409 250.007 231.145 209.338 252.96C209.338 252.96 227.413 226.6 248.2 241.143C268.986 255.687 243.681 305.679 243.681 305.679C244.585 303.861 250.911 301.134 252.718 300.225C282.542 277.502 315.078 236.599 315.078 196.604C315.078 177.516 312.366 158.428 302.425 142.067C293.388 126.615 279.831 113.89 262.66 108.436C249.103 103.891 233.74 103.891 219.279 104.8C209.338 104.8 200.301 107.527 191.263 112.072C183.129 115.707 165.958 124.797 163.247 132.978Z" fill="#99612D" fill-opacity="0.2"/>
<path d="M227.413 208.42C227.413 208.42 179.514 125.705 118.963 147.52C101.791 153.883 90.0424 170.244 90.0424 188.423C90.0424 229.326 123.481 289.317 174.092 324.767L200.301 257.504L168.669 292.044C168.669 292.044 92.7536 201.149 124.385 170.244C137.038 161.155 170.477 147.52 227.413 208.42Z" fill="#99612D" fill-opacity="0.2"/>
<path d="M287.965 22.994C281.639 11.1775 271.698 3.90589 258.141 1.17902C194.878 -10.6374 151.498 70.2596 151.498 70.2596C151.498 70.2596 202.108 20.2671 240.97 21.176C279.831 22.085 274.409 65.7149 274.409 65.7149C287.965 65.7149 298.81 72.0776 298.81 72.0776C298.81 72.0776 297.003 54.8074 296.099 51.1716C295.195 42.991 292.484 32.0835 287.965 22.994Z" fill="#99612D" fill-opacity="0.2"/>
<path d="M87.3311 261.14C79.1973 248.415 68.3522 231.145 61.1222 215.693C53.8921 200.24 47.5658 184.788 43.047 169.336C34.9132 141.158 28.587 104.8 49.3734 80.2581C52.9884 75.7133 58.4109 71.1685 63.8335 68.4417C106.31 48.4446 152.402 89.3477 152.402 89.3477C152.402 89.3477 99.08 14.8133 31.2982 55.7163C-35.5798 96.6193 15.9344 227.509 81.0049 292.954C81.9086 293.863 81.9086 293.863 82.8124 294.772L98.1762 310.224C98.1762 310.224 108.118 290.227 91.8499 266.594C90.0424 264.776 89.1387 262.958 87.3311 261.14Z" fill="#99612D" fill-opacity="0.2"/>
</svg>
