<svg xmlns="http://www.w3.org/2000/svg" viewBox="0 0 26.5 26.5"><defs><style>.cls-1{fill:#fff;}</style></defs><g id="圖層_2" data-name="圖層 2"><g id="圖層_1-2" data-name="圖層 1"><path class="cls-1" d="M26.43,19.61a7.66,7.66,0,0,1-6.83,6.85c-.59,0-1.18,0-1.77,0l-.12-.14V16.88c.09,0,.21.06.26-.08l-.24-.06a11.53,11.53,0,0,1,2.69-.09c.46,0,.67-.09.74-.6.15-1,.39-2,.62-3s-3-.57-3.5-.55-.63-.15-.59-.61c.11-1.36-.14-2.88,1.48-3.42.7-.23,2.75.28,2.73-.76s0-2.27,0-3.41c.11-.07.07-.1,0-.13-1.33,0-2.67-.07-4,0-2.64.16-4.59,3.11-4.47,5.61,0,.72.69,2.54-.41,2.79a2.1,2.1,0,0,1-.79,0c-.64-.08-2.2-.48-2.07.59s-.34,2.2,0,3.24a.3.3,0,0,0,.12.2.43.43,0,0,0,.19,0H13c.42,0,.55.13.55.55q0,4.41,0,8.82c0,.39-.12.51-.5.5-2,0-4,0-6,0a7.58,7.58,0,0,1-7-6.85c.12-.09.12-.18,0-.27,0-.5,0-1,0-1.5v-10A7.62,7.62,0,0,1,7.79,0C11.41,0,15,0,18.66,0c.22,0,.45,0,.68,0s.17.14.26,0a7.61,7.61,0,0,1,6.83,6.83s0,0,0,0a.41.41,0,0,0,.05.09c0,2.16,0,4.32,0,6.47,0,2,.07,4-.05,6l0,0Z"/></g></g></svg>