<svg xmlns="http://www.w3.org/2000/svg" viewBox="0 0 60 60"><defs><style>.cls-1{fill:#968757;}.cls-2{fill:none;}.cls-3{fill:#fff;}</style></defs><g id="圖層_2" data-name="圖層 2"><g id="圖層_1-2" data-name="圖層 1"><g id="圖層_2-2" data-name="圖層 2"><g id="圖層_1-2-2" data-name="圖層 1-2"><circle class="cls-1" cx="30" cy="30" r="30"/><rect class="cls-2" x="14.42" y="14.42" width="31.16" height="31.16"/><path class="cls-3" d="M51.72,27.17h0v-.11h0l0-.42v-.38h0a16.64,16.64,0,0,0-4.25-8.36A21.8,21.8,0,0,0,39,12.32a25.8,25.8,0,0,0-9-1.57,25.06,25.06,0,0,0-11.67,2.81C11.61,17.12,7.65,23.67,8.23,30.25a17.08,17.08,0,0,0,3.85,9.36,20.84,20.84,0,0,0,8.16,6,31.22,31.22,0,0,0,6.08,1.64h.25c.57.11.73.27.77.33a.76.76,0,0,1,0,.47,1.4,1.4,0,0,1-.08.34,6.94,6.94,0,0,0-.26,3,2,2,0,0,0,2,1.89h0a7.59,7.59,0,0,0,3.42-1.31l.12-.07c2.13-1.25,4.13-2.66,5.64-3.74,3.3-2.38,7-5.07,9.84-8.56A16.9,16.9,0,0,0,51.72,27.17Zm-30,6.63H18a1,1,0,0,1-1-1V24.9a1,1,0,0,1,2.06,0v6.87H21.8a1,1,0,0,1,0,2.06Zm3.93-1a1,1,0,0,1-2.06,0v-8a1,1,0,1,1,2.06,0Zm9.32,0a1,1,0,0,1-.72,1,1.61,1.61,0,0,1-.31,0,1,1,0,0,1-.84-.43l-3.7-5.11v4.5a1,1,0,0,1-2.06,0V25.07a1,1,0,0,1,1.86-.6L33,29.58V24.85a1,1,0,0,1,2.06,0Zm7.51.87h-5.1a1,1,0,0,1-1-1v-7.9a1,1,0,0,1,1-1h4.94a1,1,0,0,1,0,2.06H38.45v1.89h3.17a1,1,0,1,1,0,2.06H38.45v1.9h4.07a1,1,0,0,1,0,2.06Z"/></g></g></g></g></svg>