<svg xmlns="http://www.w3.org/2000/svg" viewBox="0 0 154.32 105.69"><defs><style>.cls-1{fill:#ce9b6d;}</style></defs><g id="圖層_2" data-name="圖層 2"><g id="圖層_2-2" data-name="圖層 2"><path class="cls-1" d="M153.6,63.7q-11.13.36-15.26.36V1.26a.86.86,0,0,0-.53-.81,2.4,2.4,0,0,0-1.08-.27,1.47,1.47,0,0,0-1.08.36L83.26,68a1,1,0,0,0-.18,1.43,1.69,1.69,0,0,0,1.43.72q32,0,43.25.36v33.73q0,1.44.54,1.44l1.07-.36,7.54-3.77a2.36,2.36,0,0,0,1.43-2.51V70.7q9.69.36,15.08.72.36,0,.63-1.44a15.49,15.49,0,0,0,.27-2.87C154.32,64.84,154.07,63.7,153.6,63.7Zm-25.84.72q-19,.36-34.45.36a1.43,1.43,0,0,1-1.17-.36q-.27-.36.27-.9L127.76,18.3Z"/><path class="cls-1" d="M55.63,4.76A36.75,36.75,0,0,0,37,0a38.65,38.65,0,0,0-19,4.67A33.69,33.69,0,0,0,4.76,17.59,36.94,36.94,0,0,0,0,36.43,38.82,38.82,0,0,0,4.76,55.72,34.65,34.65,0,0,0,17.85,69.08a37.05,37.05,0,0,0,18.94,4.85,36.74,36.74,0,0,0,18.66-4.76A33.79,33.79,0,0,0,68.37,56,38.61,38.61,0,0,0,73,37a39.28,39.28,0,0,0-4.57-19A33.2,33.2,0,0,0,55.63,4.76Zm-.63,58q-5.47,8.71-16.24,8.71-12,0-19.2-10.23T12.38,35q0-14.54,6-23.51t16.6-9q10.95,0,18.21,9.33t7.27,27.28Q60.47,54,55,62.71Z"/></g></g></svg>