<svg xmlns="http://www.w3.org/2000/svg" viewBox="0 0 15.5 15.09"><defs><style>.cls-1{fill:#ce9b6d;}</style></defs><g id="圖層_2" data-name="圖層 2"><g id="圖層_2-2" data-name="圖層 2"><path class="cls-1" d="M15.46,5.83h0v0h0l0-.15V5.5h0a5.91,5.91,0,0,0-1.51-3,8,8,0,0,0-3-2A9.29,9.29,0,0,0,7.74,0,8.91,8.91,0,0,0,3.6,1,6.29,6.29,0,0,0,0,6.93a6.14,6.14,0,0,0,1.37,3.33,7.34,7.34,0,0,0,2.9,2.12A10.14,10.14,0,0,0,6.45,13l.09,0c.2,0,.26.1.27.12s0,.12,0,.16l0,.13a2.5,2.5,0,0,0-.1,1,.73.73,0,0,0,.74.67h0a2.78,2.78,0,0,0,1.21-.46l0,0a22.34,22.34,0,0,0,2-1.33,17.4,17.4,0,0,0,3.5-3A6,6,0,0,0,15.46,5.83ZM4.83,8.19H3.49a.37.37,0,0,1-.37-.37V5a.37.37,0,0,1,.74,0V7.46h1a.37.37,0,0,1,0,.73Zm1.39-.38a.37.37,0,1,1-.73,0V5a.37.37,0,1,1,.73,0Zm3.31,0a.37.37,0,0,1-.25.35l-.12,0A.35.35,0,0,1,8.87,8L7.55,6.21v1.6a.37.37,0,1,1-.73,0V5.09a.37.37,0,0,1,.25-.35.36.36,0,0,1,.41.13L8.8,6.69V5a.37.37,0,1,1,.73,0Zm2.67.31H10.39A.36.36,0,0,1,10,7.76V5a.37.37,0,0,1,.37-.37h1.75a.37.37,0,1,1,0,.74H10.75V6h1.13a.37.37,0,0,1,0,.73H10.75v.67H12.2a.37.37,0,0,1,0,.73Z"/></g></g></svg>