<svg xmlns="http://www.w3.org/2000/svg" viewBox="0 0 191.55 22.95"><defs><style>.cls-1{fill:#3a3a3a;}</style></defs><g id="圖層_2" data-name="圖層 2"><g id="圖層_2-2" data-name="圖層 2"><path class="cls-1" d="M.84,4.45H6V7.07a.73.73,0,0,0,.82.79.73.73,0,0,0,.82-.79V4.45H14V7.07a.73.73,0,0,0,.82.79.72.72,0,0,0,.8-.79V4.45h5.25a.75.75,0,0,0,.8-.85.72.72,0,0,0-.8-.79H15.63v-2a.74.74,0,0,0-.8-.82A.75.75,0,0,0,14,.82v2H7.59v-2A.75.75,0,0,0,6.77,0,.75.75,0,0,0,6,.82v2H.84A.72.72,0,0,0,0,3.6.75.75,0,0,0,.84,4.45Z"/><path class="cls-1" d="M20.83,21.12a23,23,0,0,1-8.61-3.42,19,19,0,0,0,5.36-8.09,1,1,0,0,0,0-.8.81.81,0,0,0-.5-.37.83.83,0,0,0-1.12.63,16.86,16.86,0,0,1-5,7.59A17.93,17.93,0,0,1,5.8,9.11a.83.83,0,0,0-.43-.51.73.73,0,0,0-.58,0,.73.73,0,0,0-.45,1A19.83,19.83,0,0,0,9.55,17.7,26.25,26.25,0,0,1,.86,21.19c-.44.09-.71.25-.81.5a.7.7,0,0,0,.1.68.92.92,0,0,0,.83.49,1.22,1.22,0,0,0,.32,0,27,27,0,0,0,9.56-4.08,23.15,23.15,0,0,0,9.52,4,1,1,0,0,0,1.11-.38.78.78,0,0,0,.18-.74Q21.52,21.23,20.83,21.12Z"/><path class="cls-1" d="M28.91,1.88A14.26,14.26,0,0,1,30.54,3a13.23,13.23,0,0,1,1.31,1.12.66.66,0,0,0,.48.27h0a.86.86,0,0,0,.6-.3.7.7,0,0,0,.12-1A15.82,15.82,0,0,0,29.73.63a.79.79,0,0,0-.94.11.71.71,0,0,0-.32.61A.72.72,0,0,0,28.91,1.88Z"/><path class="cls-1" d="M49.07,20.77c-3.76.2-7.26.23-10.39.1s-5.38-1-6.55-2.81V12.9a1.22,1.22,0,0,0-.35-.92,1.25,1.25,0,0,0-.9-.33H28a.72.72,0,0,0-.8.79.73.73,0,0,0,.8.8h2.35c.08,0,.1,0,.1.12v4.79c-.87.86-1.86,1.78-2.95,2.73A1,1,0,0,0,28,22.46a.85.85,0,0,0,.72-.28c.78-.73,1.69-1.62,2.7-2.65,1.58,1.84,4.05,2.82,7.35,2.93,1.1,0,2.34.05,3.71.05,1.92,0,4.1,0,6.51-.1a.8.8,0,0,0,.53-.15,1.14,1.14,0,0,0,.28-.47,1,1,0,0,0,0-.76C49.63,20.74,49.21,20.77,49.07,20.77Z"/><path class="cls-1" d="M28.1,6.94a15.26,15.26,0,0,1,3.14,2.21.66.66,0,0,0,.48.21h0A.89.89,0,0,0,32.36,9a.7.7,0,0,0,0-1,10,10,0,0,0-1.56-1.22h0a19.3,19.3,0,0,0-2-1.2.76.76,0,0,0-.94.22.73.73,0,0,0-.25.62A.78.78,0,0,0,28.1,6.94Z"/><path class="cls-1" d="M36.35,18H47a1.22,1.22,0,0,0,.92-.35,1.27,1.27,0,0,0,.33-.91v-11a1.25,1.25,0,0,0-.33-.9A1.18,1.18,0,0,0,47,4.46h-4.7V.84a.74.74,0,0,0-.8-.82.75.75,0,0,0-.82.82V4.46H36.35a1.19,1.19,0,0,0-1.26,1.25v11A1.2,1.2,0,0,0,36.35,18Zm6-11.89h4.24c.08,0,.1,0,.1.13v4.11H42.33Zm0,5.81h4.34v4.34c0,.12,0,.12-.1.12H42.33ZM36.69,6.2c0-.13,0-.13.1-.13h3.92v4.24h-4Zm0,5.68h4v4.46H36.79c-.09,0-.1,0-.1-.12Z"/><path class="cls-1" d="M67.62,13.15h0a.64.64,0,0,0-.27.52.63.63,0,0,0,.29.48.75.75,0,0,0,.45.16.73.73,0,0,0,.5-.22,14.55,14.55,0,0,0,2-2.06,10.71,10.71,0,0,1,1.24,1.06.64.64,0,0,0,.46.2.67.67,0,0,0,.48-.25.61.61,0,0,0,0-.92,13.53,13.53,0,0,0-1.34-1.19,17,17,0,0,0,1-1.63.56.56,0,0,0-.39-.9.69.69,0,0,0-.83.32,11.8,11.8,0,0,1-.93,1.47,13.18,13.18,0,0,0-1.47-.86.69.69,0,0,0-.86.22.55.55,0,0,0,.2.92q.31.15,1.35.81A12.57,12.57,0,0,1,67.62,13.15Z"/><path class="cls-1" d="M72,19.19a.61.61,0,0,0,.46.22A.68.68,0,0,0,73,19.1a.63.63,0,0,0,0-.87A12.11,12.11,0,0,0,71.65,17a14,14,0,0,0,1-1.88.65.65,0,0,0,0-.56.68.68,0,0,0-.46-.33.65.65,0,0,0-.85.41,12,12,0,0,1-.82,1.54c-.72-.51-1.22-.84-1.53-1a.69.69,0,0,0-.91.19.61.61,0,0,0-.15.49.63.63,0,0,0,.34.42c.32.18.82.53,1.51,1a12.71,12.71,0,0,1-1.15,1.33h0a8,8,0,0,1-1,.92.8.8,0,0,0-.35.59.62.62,0,0,0,.28.49.75.75,0,0,0,.47.18.72.72,0,0,0,.49-.21,14.71,14.71,0,0,0,2.26-2.48A10,10,0,0,1,72,19.19Z"/><path class="cls-1" d="M59.53,13.06a.67.67,0,0,0-.3.52.69.69,0,0,0,.35.52.78.78,0,0,0,.42.13.62.62,0,0,0,.4-.16,23.73,23.73,0,0,0,2-2,9.11,9.11,0,0,1,1.16,1,.62.62,0,0,0,.45.2.77.77,0,0,0,.52-.32.62.62,0,0,0,0-.87A12.09,12.09,0,0,0,63.19,11a17.7,17.7,0,0,0,1.07-1.63.67.67,0,0,0,0-.56.74.74,0,0,0-1.3,0c-.13.23-.44.71-.91,1.44l-1.35-.8a.71.71,0,0,0-.66.06.66.66,0,0,0-.35.5.62.62,0,0,0,.34.6c.42.23.83.46,1.21.71A19.45,19.45,0,0,1,59.53,13.06Z"/><path class="cls-1" d="M63.27,17.06c.4-.67.75-1.31,1-1.91a.67.67,0,0,0,0-.6.6.6,0,0,0-.45-.3.7.7,0,0,0-.89.42c-.19.42-.46.95-.81,1.57-.76-.53-1.22-.84-1.45-1a.67.67,0,0,0-.88.18.68.68,0,0,0-.18.54.59.59,0,0,0,.31.37c.22.13.71.48,1.47,1a14.78,14.78,0,0,1-2,2.18.7.7,0,0,0-.33.55.69.69,0,0,0,.32.55.68.68,0,0,0,.43.16.67.67,0,0,0,.48-.22,17.74,17.74,0,0,0,2.18-2.4,14,14,0,0,1,1.14,1.08.62.62,0,0,0,.49.23.68.68,0,0,0,.47-.31.6.6,0,0,0,0-.88A13.9,13.9,0,0,0,63.27,17.06Z"/><path class="cls-1" d="M77.18,6.56a39,39,0,0,0-5.83-3.37,1,1,0,0,0-1.09.25.62.62,0,0,0-.21.56.74.74,0,0,0,.47.5,39.86,39.86,0,0,1,3.74,2H67.07V3.12h9.39a.72.72,0,0,0,.77-.82.71.71,0,0,0-.77-.8H56.17a.71.71,0,0,0-.77.8.72.72,0,0,0,.77.82H65.4V6.54H59A20.83,20.83,0,0,0,62,4.35a.73.73,0,0,0,.26-.58.69.69,0,0,0-.37-.48.83.83,0,0,0-1.1.1,17.79,17.79,0,0,1-5.16,3.29c-.34.16-.51.35-.55.58a.74.74,0,0,0,.32.64.87.87,0,0,0,1,.15l.5-.26.28-.13V22.13a.73.73,0,0,0,.82.79.72.72,0,0,0,.79-.79V8.1H65.4v14a.76.76,0,0,0,.85.82.75.75,0,0,0,.82-.82V8.1h7v13c0,.17,0,.26-.28.27-.53,0-1.34,0-2.41,0a1.44,1.44,0,0,0-.79.2.58.58,0,0,0-.23.76c.1.27.38.59,1.09.59a15.28,15.28,0,0,0,3.21-.2c.46-.13,1-.51,1-1.66V7.44l.44.3a.8.8,0,0,0,1.08-.06A.83.83,0,0,0,77.48,7,.59.59,0,0,0,77.18,6.56Z"/><path class="cls-1" d="M104,10.18H97.77V3.6h5c.44,0,.68-.26.68-.74a.63.63,0,0,0-.68-.71H86.15a.64.64,0,0,0-.71.71.65.65,0,0,0,.71.74H96.32v6.58H87.86c.39-1.36.78-2.87,1.16-4.47A.65.65,0,0,0,89,5.15a.7.7,0,0,0-.51-.26.69.69,0,0,0-.82.54c-.64,2.72-1.25,5-1.81,6.72a.44.44,0,0,0,0,.42.43.43,0,0,0,.23.21,1.75,1.75,0,0,0,.36.11.66.66,0,0,0,.79-.46c.11-.38.2-.66.26-.83h7.42A28.19,28.19,0,0,1,90.21,16a28.68,28.68,0,0,1-5.8,3.46.72.72,0,0,0-.48.45.73.73,0,0,0,.21.64.75.75,0,0,0,1,.26,33.68,33.68,0,0,0,6.26-4A29.25,29.25,0,0,0,96.32,12v8.55c0,.27-.11.38-.4.4-.52,0-1.33,0-2.43,0a1.25,1.25,0,0,0-.74.19.49.49,0,0,0-.17.67,1,1,0,0,0,1.07.56,15.9,15.9,0,0,0,3.11-.19,1.53,1.53,0,0,0,1-1.65v-9H104a.64.64,0,0,0,.69-.73A.63.63,0,0,0,104,10.18Z"/><path class="cls-1" d="M133.24,3.11a.47.47,0,0,0-.48,0c-.17.09-.26.3-.28.66a1.52,1.52,0,0,1-.06.49.32.32,0,0,1-.13.22,1.94,1.94,0,0,1-.55,0H131c-.26,0-.31,0-.31,0h0a1.06,1.06,0,0,1-.06-.48V2.47a1.09,1.09,0,0,0-.3-.82,1.12,1.12,0,0,0-.82-.3h-4a.61.61,0,0,0-.68.68v.72a2.22,2.22,0,0,1-1,1.86,1.59,1.59,0,0,0-.56.48.62.62,0,0,0,0,.71.55.55,0,0,0,.45.19,1.46,1.46,0,0,0,.65-.19,3.44,3.44,0,0,0,1.76-3V2.72c0-.09,0-.11.11-.11h2.9c.13,0,.17,0,.17.16V3.83c0,.83.13,1.3.39,1.47a1.54,1.54,0,0,0,1.12.37h1.06a2.06,2.06,0,0,0,.93-.15.92.92,0,0,0,.6-.58,4.72,4.72,0,0,0,.17-1.12A.66.66,0,0,0,133.24,3.11Z"/><path class="cls-1" d="M114.75,11.23h8.12a.53.53,0,0,0,.57-.59.52.52,0,0,0-.57-.58h-7.78c-.14,0-.19,0-.19-.18V3c0-.11,0-.16.19-.16H117a.59.59,0,0,0-.25.32,6.28,6.28,0,0,1-1,1.64.66.66,0,0,0-.24.53.56.56,0,0,0,.31.41.6.6,0,0,0,.79-.13L117,5h1.48v.93h-2.74a.52.52,0,0,0-.57.57.51.51,0,0,0,.57.57h2.54A3.68,3.68,0,0,1,116,8.88c-.2.07-.46.18-.5.39a.34.34,0,0,0,.14.33,1,1,0,0,0,1,.22,5.66,5.66,0,0,0,2.43-1.75,24.45,24.45,0,0,1,2.57,1.64c.13.09.39.19.72-.16a.52.52,0,0,0,0-.79,18.78,18.78,0,0,0-2.81-1.7V7h2.85a.52.52,0,0,0,.57-.57.52.52,0,0,0-.57-.57h-2.69V5h2.11a.5.5,0,0,0,.55-.55.51.51,0,0,0-.55-.57h-4.18l.06-.11.08-.2a1,1,0,0,0,.07-.21.6.6,0,0,0,0-.23.41.41,0,0,0-.17-.24l-.07,0h5.14a.54.54,0,0,0,.58-.62.52.52,0,0,0-.58-.57h-8a1.08,1.08,0,0,0-.83.31,1.13,1.13,0,0,0-.3.81v7.39a1.09,1.09,0,0,0,.3.82A1.11,1.11,0,0,0,114.75,11.23Z"/><path class="cls-1" d="M132.71,12.09H113.53a.55.55,0,0,0-.6.6.57.57,0,0,0,.6.64h6.83v.92h-4.79a1.13,1.13,0,0,0-.83.31,1.17,1.17,0,0,0-.29.82v5.2a1.16,1.16,0,0,0,.29.81,1.09,1.09,0,0,0,.83.31H131a1.09,1.09,0,0,0,.83-.31,1.13,1.13,0,0,0,.3-.81v-5.2A1.05,1.05,0,0,0,131,14.25h-5.31v-.92h7a.57.57,0,0,0,.6-.64A.55.55,0,0,0,132.71,12.09Zm-11.07,1.24h2.77v.92h-2.77Zm9.14,7c0,.12,0,.16-.16.16H116c-.16,0-.19-.05-.19-.16v-.62h15Zm0-1.79h-15v-3c0-.11,0-.16.19-.16h4.25c-.3.82-1.26,1.43-2.83,1.82a2.24,2.24,0,0,0-.8.33.58.58,0,0,0-.25.34.48.48,0,0,0,.1.35c.2.25.56.31,1.09.17,2.4-.64,3.75-1.65,4-3h2.81v.85c0,.6.16,1,.48,1.18a4,4,0,0,0,1.75.25h4.14Zm-.16-3.16c.12,0,.16,0,.16.16v1l0,0a2.87,2.87,0,0,1-.53,0h-3.59a2.27,2.27,0,0,1-.82-.08s-.1-.05-.1-.24v-.88Z"/><path class="cls-1" d="M123.6,10.8a.56.56,0,0,0,.09.54.67.67,0,0,0,.8.33,14.55,14.55,0,0,0,3.45-1.24A13.54,13.54,0,0,0,132.2,12l.17,0a.78.78,0,0,0,.63-.31.65.65,0,0,0,.14-.62c-.08-.19-.29-.31-.63-.37a13.09,13.09,0,0,1-3.33-1,7.55,7.55,0,0,0,2.25-2.51,1.08,1.08,0,0,0,0-1,.91.91,0,0,0-.81-.32h-6.12a.55.55,0,0,0-.59.62.54.54,0,0,0,.59.59h.35l0,.06a.57.57,0,0,0,.08.49,7.64,7.64,0,0,0,1.83,2,13.16,13.16,0,0,1-2.64.87A.64.64,0,0,0,123.6,10.8ZM126.05,7h4.08A7.35,7.35,0,0,1,128,9,6.62,6.62,0,0,1,126.05,7Z"/><path class="cls-1" d="M162.5,7.22a18.79,18.79,0,0,1-3.15-2.66,19.46,19.46,0,0,1-2.63-3.37.91.91,0,0,0-.84-.47h-.07a.93.93,0,0,0-.9.53,16.2,16.2,0,0,1-2.37,3.37h0a17.59,17.59,0,0,1-3.09,2.78.72.72,0,0,0-.37.47.49.49,0,0,0,0,.12.61.61,0,0,0-.52-.23h-5.68a.61.61,0,0,0-.67.67.59.59,0,0,0,.67.64h5.68a.58.58,0,0,0,.64-.64V8.35l0,.05a.65.65,0,0,0,1,.16,20.7,20.7,0,0,0,3.33-3.05,17.4,17.4,0,0,0,2.31-3.2,19.38,19.38,0,0,0,2.46,3.16,23.54,23.54,0,0,0,3.33,2.93.73.73,0,0,0,.54.15.8.8,0,0,0,.47-.35.83.83,0,0,0,.15-.58A.64.64,0,0,0,162.5,7.22Z"/><path class="cls-1" d="M142.92,2.91h5.52a.61.61,0,0,0,.65-.67.58.58,0,0,0-.65-.62h-5.52a.58.58,0,0,0-.64.62A.6.6,0,0,0,142.92,2.91Z"/><path class="cls-1" d="M151.61,15.41c-.28.12-.45.27-.49.46a.65.65,0,0,0,.22.58.69.69,0,0,0,.52.24,1,1,0,0,0,.38-.09,19.74,19.74,0,0,0,7-5.29.6.6,0,0,0,.16-.53.71.71,0,0,0-.46-.43.65.65,0,0,0-.82.21A18,18,0,0,1,151.61,15.41Z"/><path class="cls-1" d="M161.35,13.76a.66.66,0,0,0-.92.31,13.69,13.69,0,0,1-3.9,4.08,21.09,21.09,0,0,1-5.76,2.78c-.38.1-.6.25-.67.46a.63.63,0,0,0,.15.59.81.81,0,0,0,.68.35,1,1,0,0,0,.3,0c4.83-1.54,8.34-4.08,10.44-7.54h0a.66.66,0,0,0,.1-.56A.69.69,0,0,0,161.35,13.76Z"/><path class="cls-1" d="M157.11,6.83a.65.65,0,0,0-.8.16,17.09,17.09,0,0,1-5,3.87c-.26.14-.4.3-.42.49a.63.63,0,0,0,.28.54.73.73,0,0,0,.48.19A.66.66,0,0,0,152,12a22,22,0,0,0,3-1.92h0a18.93,18.93,0,0,0,2.42-2.28.59.59,0,0,0,.16-.53A.67.67,0,0,0,157.11,6.83Z"/><path class="cls-1" d="M150,5.28a.59.59,0,0,0-.66-.64h-7.5a.59.59,0,0,0-.67.64.62.62,0,0,0,.67.69h7.5A.61.61,0,0,0,150,5.28Z"/><path class="cls-1" d="M148.05,14h-4.73a1.13,1.13,0,0,0-.82.3,1.09,1.09,0,0,0-.31.82v4.74A1.05,1.05,0,0,0,143.32,21h4.73a1.07,1.07,0,0,0,1.13-1.13V15.12a1.08,1.08,0,0,0-.32-.82A1.09,1.09,0,0,0,148.05,14Zm-.2,5.49c0,.13,0,.17-.17.17h-4c-.16,0-.19-.05-.19-.17v-4c0-.11,0-.16.19-.16h4c.13,0,.17,0,.17.16Z"/><path class="cls-1" d="M148.56,10.87h-5.73a.58.58,0,0,0-.64.64.58.58,0,0,0,.64.64h5.73a.57.57,0,0,0,.62-.64A.57.57,0,0,0,148.56,10.87Z"/><path class="cls-1" d="M179.8,13.56a1.17,1.17,0,0,0,.3-.83V7.65A1.07,1.07,0,0,0,179,6.52h-6.12V4.28a45.69,45.69,0,0,0,6.59-1.89.7.7,0,0,0,.41-.29.43.43,0,0,0,0-.41,1.53,1.53,0,0,0-.34-.36.81.81,0,0,0-.86-.2,40.54,40.54,0,0,1-6.12,1.94.9.9,0,0,0-.8,0,.83.83,0,0,0-.28.72V11.4c0,4.13-.51,7.28-1.5,9.38a.78.78,0,0,0,.13,1,.68.68,0,0,0,.47.22h.08a.76.76,0,0,0,.5-.46,19.9,19.9,0,0,0,1.67-7.71H179A1.13,1.13,0,0,0,179.8,13.56Zm-1.08-1.24c0,.12,0,.16-.16.16h-5.73c0-.28,0-.64,0-1.08V7.9h5.71c.12,0,.16,0,.16.16Z"/><path class="cls-1" d="M190.84,8.75h-8.08v-4a43.79,43.79,0,0,0,7.43-2.32c.12-.06.48-.21.44-.5a1,1,0,0,0-.4-.56.8.8,0,0,0-.89-.15,37.53,37.53,0,0,1-6.73,2.25,1,1,0,0,0-.86.06.9.9,0,0,0-.36.82V9.44c0,1,0,1.94-.11,2.78a25.1,25.1,0,0,1-.39,2.79,12.26,12.26,0,0,1-.93,3,12.28,12.28,0,0,1-1.62,2.67c-.55.64-.26,1.05-.05,1.23a.73.73,0,0,0,.51.19,1,1,0,0,0,.62-.39c2.13-2.72,3.26-6.6,3.34-11.54h4.52V21.68a.71.71,0,1,0,1.42,0V10.15h2.14a.63.63,0,0,0,.71-.69A.64.64,0,0,0,190.84,8.75Z"/></g></g></svg>