<svg xmlns="http://www.w3.org/2000/svg" xmlns:xlink="http://www.w3.org/1999/xlink" viewBox="0 0 181.93 237.57"><defs><style>.cls-1{fill:#ce9b6d;}.cls-2{opacity:0.5;}.cls-3{fill:url(#未命名漸層_160);}.cls-4{fill:url(#未命名漸層_160-2);}.cls-5{fill:url(#未命名漸層_160-3);}.cls-6{fill:url(#未命名漸層_160-4);}.cls-7{fill:url(#未命名漸層_160-5);}.cls-8{fill:url(#未命名漸層_160-6);}.cls-9{fill:url(#未命名漸層_160-7);}.cls-10{fill:url(#未命名漸層_160-8);}.cls-11{fill:url(#未命名漸層_160-9);}.cls-12{fill:url(#未命名漸層_160-10);}.cls-13{fill:url(#未命名漸層_160-11);}</style><linearGradient id="未命名漸層_160" x1="0.82" y1="211.15" x2="0.82" y2="246.52" gradientUnits="userSpaceOnUse"><stop offset="0.19" stop-color="#fff" stop-opacity="0"/><stop offset="0.23" stop-color="#faf4ef" stop-opacity="0.11"/><stop offset="0.33" stop-color="#eeddcd" stop-opacity="0.34"/><stop offset="0.44" stop-color="#e4c9b0" stop-opacity="0.54"/><stop offset="0.55" stop-color="#dcb898" stop-opacity="0.71"/><stop offset="0.65" stop-color="#d6ab85" stop-opacity="0.84"/><stop offset="0.76" stop-color="#d2a278" stop-opacity="0.93"/><stop offset="0.88" stop-color="#cf9d70" stop-opacity="0.98"/><stop offset="1" stop-color="#ce9b6d"/></linearGradient><linearGradient id="未命名漸層_160-2" x1="14.5" y1="211.15" x2="14.5" y2="246.52" xlink:href="#未命名漸層_160"/><linearGradient id="未命名漸層_160-3" x1="31.79" y1="211.15" x2="31.79" y2="246.52" xlink:href="#未命名漸層_160"/><linearGradient id="未命名漸層_160-4" x1="47.08" y1="211.15" x2="47.08" y2="246.52" xlink:href="#未命名漸層_160"/><linearGradient id="未命名漸層_160-5" x1="63.55" y1="211.15" x2="63.55" y2="246.52" xlink:href="#未命名漸層_160"/><linearGradient id="未命名漸層_160-6" x1="91.8" y1="211.15" x2="91.8" y2="246.52" xlink:href="#未命名漸層_160"/><linearGradient id="未命名漸層_160-7" x1="109.09" y1="211.15" x2="109.09" y2="246.52" xlink:href="#未命名漸層_160"/><linearGradient id="未命名漸層_160-8" x1="126.04" y1="211.15" x2="126.04" y2="246.52" xlink:href="#未命名漸層_160"/><linearGradient id="未命名漸層_160-9" x1="143.86" y1="211.15" x2="143.86" y2="246.52" xlink:href="#未命名漸層_160"/><linearGradient id="未命名漸層_160-10" x1="160.05" y1="211.15" x2="160.05" y2="246.52" xlink:href="#未命名漸層_160"/><linearGradient id="未命名漸層_160-11" x1="176.51" y1="211.15" x2="176.51" y2="246.52" xlink:href="#未命名漸層_160"/></defs><g id="圖層_2" data-name="圖層 2"><g id="圖層_2-2" data-name="圖層 2"><path class="cls-1" d="M76.89,25.87a.84.84,0,0,1,.32-.22c.29-.12.58-.24.87-.38a13,13,0,0,0,1.55-.86,16.88,16.88,0,0,0,2.7-2.13A41.39,41.39,0,0,0,86.76,17c.44-.6.86-1.21,1.32-1.79a36.2,36.2,0,0,1,12-10.08A44,44,0,0,1,114.83.37a35.81,35.81,0,0,1,15.37,1.1,33.47,33.47,0,0,1,13.41,7.62,30.36,30.36,0,0,1,7.53,11.85c3.62,10.2,2.78,20.38-1,30.2C146.61,60.05,140,66.49,132,71.68c-8.73,5.67-18.47,8.69-28.31,11.6C94.84,85.9,86,88.52,77.35,91.66a39,39,0,0,0-18.66,13.89c-3,4.11-4.31,8.5-3.07,13.62a9.9,9.9,0,0,1-.41,4.77,2.87,2.87,0,0,1-2,1.81,3.5,3.5,0,0,1-2.52-1.37c-1.34-1.75-1.26-3.88-.8-5.93a33.61,33.61,0,0,1,7.27-14c1-1.21,2.07-2.36,3.22-3.66a143.45,143.45,0,0,1-12.34-9.5A73.11,73.11,0,0,1,35,75.94a41.18,41.18,0,0,1-6.26-17.22C27.54,47,30,36.23,39.38,28.2a26.62,26.62,0,0,1,17.78-6.82,23.46,23.46,0,0,1,9.45,2,50.38,50.38,0,0,1,8.64,5.94C78,31.48,80.88,33.43,84.39,34a16.64,16.64,0,0,0,9.36-1.29,27,27,0,0,0,4.18-2.3c.67-.45,1.32-.92,2-1.41q.48-.36,1-.75c.1-.08.32-.35.46-.35.82,0-.59,1.85-.79,2.15a22.72,22.72,0,0,1-1.76,2.37c-3.94,4.59-9.83,6.14-15.7,5.79-5.63-.34-10.72-2.47-15.66-5-5.54-2.89-10.91-2.86-16.32.6-7.1,4.55-10.33,11.12-10.9,19.3-.67,9.67,2.07,18.48,7,26.61C50.65,85.27,55.35,89.82,60.39,94c.69.57,1.36,1.17,2.08,1.7a3.71,3.71,0,0,0,1.06.64,1.77,1.77,0,0,0,1.2-.06,4.19,4.19,0,0,0,.86-.58l.9-.67c.6-.44,1.21-.88,1.82-1.3s1.18-.8,1.78-1.18c1.65-1.06,3.32-2.07,5-3s3.75-2,5.67-2.89c.92-.43,1.84-.85,2.78-1.26,6.62-2.88,13.55-4.85,20.32-7.29,2.84-1,5.68-2.09,8.49-3.22A60.54,60.54,0,0,0,136.3,58c6.9-8.14,9-20.19,6.61-30.43a28.48,28.48,0,0,0-6.32-12.42,25.81,25.81,0,0,0-12.34-7.31,39.16,39.16,0,0,0-4.67-1,34.6,34.6,0,0,0-11.66.14c-8.31,1.56-14.64,6.2-20.2,12.26a30.93,30.93,0,0,1-6.18,5.47,10.6,10.6,0,0,1-4.15,1.57.66.66,0,0,1-.37,0C76.79,26.11,76.79,26,76.89,25.87Z"/><path class="cls-1" d="M133.25,115.57a10.78,10.78,0,0,1-1.14.53l-1.19.56c-1.3.62-2.59,1.27-3.89,1.89a36,36,0,0,0-3.79,2l0,0c-1.58,1-3.17,1.92-4.67,3a24.61,24.61,0,0,0-2.61,2.17,18.82,18.82,0,0,0-2.47,2.5c-.16.21-.27.55,0,.67a.47.47,0,0,0,.33,0l14-3.88c.12,0,.06.19,0,.26a77,77,0,0,1-15.84,8.21,4.74,4.74,0,0,0-2.82,3.2c-2.46,6.93-2.34,14.3,1.59,20.67.51.82,1,1.66,1.51,2.54-1.8-.22-4.84-2.68-7.41-5.91-3.57-4.47-4.12-10.34-3.29-15.84.11-.69.59-2.36-.57-2.49l-2.44-.27c-2.37-.26-4.81-.28-7-1.37-4-1.92-5.5-4.51-5.1-10.26a21.66,21.66,0,0,1,4.46-12.15c-9.22-1.12-17.53-4.24-25.84-8.33a40.55,40.55,0,0,1,3.21-2.76,2.07,2.07,0,0,1,1.6,0c4.26,1.6,8.42,3.49,12.76,4.83,13.95,4.31,27.47,3.37,40.4-3.81,5.08-2.82,10.54-5.88,14.28-10.45.5-.62,1.21-1.62.83-2.46s-1.26-.88-1.94-.91c-4.21-.23-8,1.37-11.72,3-7.43,3.2-14.26,7.35-19.74,13.46a2.66,2.66,0,0,1-1.48.91c-2,.2-4,.26-6.07.36-.37,0-.69-.16-.53-.58a1.3,1.3,0,0,1,.32-.42A63.37,63.37,0,0,1,110,94.29a56,56,0,0,1,8.26-4,52.23,52.23,0,0,1,8.79-2.42c2.91-.55,6.14-1.27,9.11-1a4.4,4.4,0,0,1,1.92.55c2.11,1.29.29,4.08-.61,5.55a29.38,29.38,0,0,1-9,8.79,68.22,68.22,0,0,1-15,7.39,45.68,45.68,0,0,1-10.89,2.44,2.3,2.3,0,0,0-2.15,1.45,28.74,28.74,0,0,0-1.33,3.44,24.23,24.23,0,0,0-1.33,8.26,5.42,5.42,0,0,0,2.29,4.42,4.94,4.94,0,0,0,4.86.35c1.39-.73,2.38-2.1,3.6-3.06s2.63-2.07,4-3a49,49,0,0,1,9-4.69A60.86,60.86,0,0,1,133,115.59Z"/><path class="cls-1" d="M1.65,194.08v17.15q0,.78-.84.78T0,211.23V194.08q0-.75.81-.75T1.65,194.08Z"/><path class="cls-1" d="M12.29,212H8.61a1.17,1.17,0,0,1-.81-.27,1,1,0,0,1-.29-.76V194.35c0-.68.38-1,1.13-1h3.62c3,0,5.32.81,6.88,2.44a9.42,9.42,0,0,1,2.35,6.82,9.67,9.67,0,0,1-2.35,6.9C17.58,211.17,15.29,212,12.29,212Zm-.19-17.4H9.15v16.1H12.1q3.86,0,5.75-2.15a8.76,8.76,0,0,0,1.89-6,8.48,8.48,0,0,0-1.89-5.88Q16,194.61,12.1,194.61Z"/><path class="cls-1" d="M36.8,212H27.22a1.24,1.24,0,0,1-.83-.27,1,1,0,0,1-.31-.78V194.35q0-1,1.14-1h9.31c.45,0,.68.21.68.62a.6.6,0,0,1-.68.68h-8.8v6.81H35c.47,0,.7.22.7.65s-.23.65-.7.65H27.73v7.94H36.8c.47,0,.7.22.7.65S37.27,212,36.8,212Z"/><path class="cls-1" d="M51,205.73H43.15l-2.08,5.7a.86.86,0,0,1-.89.58c-.67,0-.89-.29-.68-.88L46,194.05a1.07,1.07,0,0,1,1.13-.72h.08a1,1,0,0,1,1,.65l6.45,17.08c.25.63,0,.95-.73.95a.88.88,0,0,1-.92-.63Zm-7.4-1.23h7l-1.21-3.38q-.88-2.31-2.21-6.41H47c-.68,2.17-1.41,4.3-2.19,6.41Z"/><path class="cls-1" d="M68.23,212h-9a1.21,1.21,0,0,1-.82-.27,1,1,0,0,1-.31-.78V194.08q0-.75.81-.75t.84.75v16.6h8.45c.49,0,.73.22.73.65S68.72,212,68.23,212Z"/><path class="cls-1" d="M89.59,212H85.92a1.18,1.18,0,0,1-.82-.27,1,1,0,0,1-.29-.76V194.35c0-.68.38-1,1.13-1h3.62q4.53,0,6.89,2.44a9.46,9.46,0,0,1,2.34,6.82,9.71,9.71,0,0,1-2.34,6.9Q94.1,212,89.59,212Zm-.19-17.4h-3v16.1h3q3.85,0,5.75-2.15a8.76,8.76,0,0,0,1.89-6,8.48,8.48,0,0,0-1.89-5.88Q93.26,194.61,89.4,194.61Z"/><path class="cls-1" d="M114.1,212h-9.58a1.24,1.24,0,0,1-.83-.27,1,1,0,0,1-.31-.78V194.35q0-1,1.14-1h9.31c.45,0,.68.21.68.62a.6.6,0,0,1-.68.68H105v6.81h7.29c.47,0,.7.22.7.65s-.23.65-.7.65H105v7.94h9.07c.47,0,.7.22.7.65S114.57,212,114.1,212Z"/><path class="cls-1" d="M132.87,194v17.18a.8.8,0,0,1-.23.58.85.85,0,0,1-.61.22H132a1.26,1.26,0,0,1-1.16-.63q-1.11-1.77-3.2-5c-1.4-2.16-2.66-4.12-3.78-5.9s-2.17-3.48-3.12-5.1h-.13c.14,3.21.21,5,.21,5.44v10.46c0,.49-.26.73-.78.73s-.78-.24-.78-.73V194.1c0-.51.28-.77.83-.77h.08a1.26,1.26,0,0,1,1.16.6l7.86,12.25,2.24,3.75h.14c-.15-2.47-.22-4.31-.22-5.53V194c0-.47.27-.7.81-.7S132.87,193.56,132.87,194Z"/><path class="cls-1" d="M137.35,193.33h13c.45,0,.68.21.68.62a.6.6,0,0,1-.68.68h-5.67v16.6c0,.52-.28.78-.83.78s-.87-.26-.87-.78v-16.6h-5.64a.6.6,0,0,1-.68-.68C136.67,193.54,136.9,193.33,137.35,193.33Z"/><path class="cls-1" d="M163.94,205.73h-7.83l-2.07,5.7a.86.86,0,0,1-.9.58c-.66,0-.89-.29-.67-.88l6.45-17.08a1.09,1.09,0,0,1,1.14-.72h.08a.94.94,0,0,1,1,.65l6.46,17.08c.25.63,0,.95-.73.95a.88.88,0,0,1-.92-.63Zm-7.39-1.23h7l-1.21-3.38q-.9-2.31-2.22-6.41H160c-.69,2.17-1.42,4.3-2.19,6.41Z"/><path class="cls-1" d="M181.2,212h-9a1.21,1.21,0,0,1-.82-.27,1,1,0,0,1-.31-.78V194.08q0-.75.81-.75t.84.75v16.6h8.45c.48,0,.73.22.73.65S181.68,212,181.2,212Z"/><g class="cls-2"><path class="cls-3" d="M.81,237.57q-.81,0-.81-.75V219.67q0-.78.81-.78t.84.78v17.15Q1.65,237.57.81,237.57Z"/><path class="cls-4" d="M19.14,221.41a9.7,9.7,0,0,1,2.35,6.9,9.42,9.42,0,0,1-2.35,6.82c-1.56,1.63-3.86,2.44-6.88,2.44H8.64c-.75,0-1.13-.34-1.13-1V219.92a1,1,0,0,1,.29-.75,1.13,1.13,0,0,1,.81-.28h3.68C15.29,218.89,17.58,219.73,19.14,221.41Zm-1.29,12.78a8.48,8.48,0,0,0,1.89-5.88,8.72,8.72,0,0,0-1.89-6q-1.89-2.16-5.75-2.16H9.15V236.3H12.1Q16,236.3,17.85,234.19Z"/><path class="cls-5" d="M37.5,219.57c0,.43-.23.65-.7.65H27.73v7.94H35c.47,0,.7.21.7.65s-.23.65-.7.65H27.73v6.81h8.8a.6.6,0,0,1,.68.68c0,.42-.23.62-.68.62H27.22q-1.14,0-1.14-1V219.94a1,1,0,0,1,.31-.77,1.19,1.19,0,0,1,.83-.28H36.8A.61.61,0,0,1,37.5,219.57Z"/><path class="cls-6" d="M53,219.52a.88.88,0,0,1,.92-.63c.74,0,1,.32.73,1L48.2,236.92a1,1,0,0,1-1,.65h-.08a1.07,1.07,0,0,1-1.13-.72L39.5,219.77c-.21-.59,0-.88.68-.88a.86.86,0,0,1,.89.58l2.08,5.71H51Zm-8.18,10.27Q46,232.94,47,236.2h.11q1.32-4.11,2.21-6.41l1.21-3.38h-7Z"/><path class="cls-7" d="M69,219.57c0,.43-.24.65-.73.65H59.78v16.6q0,.75-.84.75t-.81-.75V219.94a1,1,0,0,1,.31-.77,1.17,1.17,0,0,1,.82-.28h9C68.72,218.89,69,219.12,69,219.57Z"/><path class="cls-8" d="M96.45,221.41a9.74,9.74,0,0,1,2.34,6.9,9.46,9.46,0,0,1-2.34,6.82q-2.36,2.44-6.89,2.44H85.94c-.75,0-1.13-.34-1.13-1V219.92a1,1,0,0,1,.29-.75,1.13,1.13,0,0,1,.82-.28h3.67Q94.09,218.89,96.45,221.41Zm-1.3,12.78A8.48,8.48,0,0,0,97,228.31a8.72,8.72,0,0,0-1.89-6q-1.89-2.16-5.75-2.16h-3V236.3h3Q93.26,236.3,95.15,234.19Z"/><path class="cls-9" d="M114.8,219.57c0,.43-.23.65-.7.65H105v7.94h7.29c.47,0,.7.21.7.65s-.23.65-.7.65H105v6.81h8.8a.6.6,0,0,1,.68.68c0,.42-.23.62-.68.62h-9.31q-1.14,0-1.14-1V219.94a1,1,0,0,1,.31-.77,1.19,1.19,0,0,1,.83-.28h9.58A.61.61,0,0,1,114.8,219.57Z"/><path class="cls-10" d="M132.11,237.57c-.54,0-.81-.23-.81-.7V226.51c0-1.22.07-3.07.22-5.54h-.14l-2.24,3.76L121.28,237a1.26,1.26,0,0,1-1.16.6H120c-.55,0-.83-.26-.83-.77V219.62c0-.49.26-.73.78-.73s.78.24.78.73v10.47q0,.61-.21,5.43h.13q1.43-2.43,3.12-5.1c1.12-1.77,2.38-3.74,3.78-5.89s2.46-3.83,3.2-5a1.26,1.26,0,0,1,1.16-.63H132a.85.85,0,0,1,.61.23.78.78,0,0,1,.23.57v17.18C132.87,237.34,132.62,237.57,132.11,237.57Z"/><path class="cls-11" d="M136.67,237a.6.6,0,0,1,.68-.68H143v-16.6q0-.78.87-.78c.55,0,.83.26.83.78v16.6h5.67a.6.6,0,0,1,.68.68c0,.42-.23.62-.68.62h-13C136.9,237.57,136.67,237.37,136.67,237Z"/><path class="cls-12" d="M166,219.52a.88.88,0,0,1,.92-.63c.73,0,1,.32.73,1l-6.46,17.08a.94.94,0,0,1-1,.65h-.08a1.09,1.09,0,0,1-1.14-.72l-6.45-17.08c-.22-.59,0-.88.67-.88a.86.86,0,0,1,.9.58l2.07,5.71h7.83Zm-8.18,10.27q1.16,3.15,2.19,6.41h.1q1.32-4.11,2.22-6.41l1.21-3.38h-7Z"/><path class="cls-13" d="M181.93,219.57c0,.43-.25.65-.73.65h-8.45v16.6q0,.75-.84.75t-.81-.75V219.94a1,1,0,0,1,.31-.77,1.17,1.17,0,0,1,.82-.28h9C181.68,218.89,181.93,219.12,181.93,219.57Z"/></g></g></g></svg>