<svg xmlns="http://www.w3.org/2000/svg" viewBox="0 0 50 63.98"><defs><style>.cls-1{fill:#ce9b6d;}</style></defs><g id="圖層_2" data-name="圖層 2"><g id="圖層_2-2" data-name="圖層 2"><path class="cls-1" d="M19.37,10.35a.38.38,0,0,1,.13-.09l.35-.15c.21-.1.42-.22.62-.34a6.91,6.91,0,0,0,1.08-.86A17.82,17.82,0,0,0,23.32,6.8c.17-.24.34-.49.53-.72a14.47,14.47,0,0,1,4.8-4,17.59,17.59,0,0,1,5.9-1.9A14.22,14.22,0,0,1,40.7.59a13.29,13.29,0,0,1,5.36,3.05,12.08,12.08,0,0,1,3,4.74,16.83,16.83,0,0,1-.42,12.08,17.61,17.61,0,0,1-7.24,8.22C37.92,31,34,32.15,30.08,33.32c-3.53,1-7.07,2.09-10.53,3.35a15.63,15.63,0,0,0-7.46,5.55,6.34,6.34,0,0,0-1.23,5.46,4,4,0,0,1-.16,1.9,1.15,1.15,0,0,1-.79.73,1.42,1.42,0,0,1-1-.55,2.81,2.81,0,0,1-.32-2.38,13.44,13.44,0,0,1,2.91-5.6c.4-.49.83-.94,1.29-1.47a56.68,56.68,0,0,1-4.93-3.8,28.93,28.93,0,0,1-5.23-6.13,16.38,16.38,0,0,1-2.5-6.89c-.49-4.69.49-9,4.25-12.21a10.67,10.67,0,0,1,7.11-2.73,9.31,9.31,0,0,1,3.78.82,20.3,20.3,0,0,1,3.45,2.37,8.36,8.36,0,0,0,3.66,1.87,6.67,6.67,0,0,0,3.74-.52,10.52,10.52,0,0,0,1.68-.92c.26-.18.53-.37.78-.56l.38-.3s.13-.14.19-.15c.33,0-.24.75-.32.87a7.9,7.9,0,0,1-.7.94,7.43,7.43,0,0,1-6.28,2.32,15.73,15.73,0,0,1-6.27-2A6.06,6.06,0,0,0,9,13.51a9.34,9.34,0,0,0-4.36,7.72A17.67,17.67,0,0,0,7.5,31.87a23.54,23.54,0,0,0,5.27,5.73c.27.23.54.47.83.68a1.83,1.83,0,0,0,.42.26.69.69,0,0,0,.49,0,1.56,1.56,0,0,0,.34-.23l.36-.27.73-.52.71-.47c.66-.42,1.33-.83,2-1.21s1.5-.79,2.27-1.15l1.12-.5c2.64-1.16,5.42-1.94,8.12-2.92,1.14-.41,2.28-.84,3.4-1.29a24.11,24.11,0,0,0,9.57-6.77A14.23,14.23,0,0,0,45.78,11a11.32,11.32,0,0,0-2.53-5,10.28,10.28,0,0,0-4.93-2.92,17.29,17.29,0,0,0-1.87-.4,14.09,14.09,0,0,0-4.67,0A14.56,14.56,0,0,0,23.7,7.68a12.55,12.55,0,0,1-2.47,2.19,4.36,4.36,0,0,1-1.66.63.38.38,0,0,1-.15,0C19.33,10.45,19.33,10.39,19.37,10.35Z"/><path class="cls-1" d="M41.92,46.23a3.88,3.88,0,0,1-.46.22l-.47.22-1.56.75a16.9,16.9,0,0,0-1.52.8h0c-.63.4-1.27.77-1.87,1.22a9.7,9.7,0,0,0-1,.86,7.27,7.27,0,0,0-1,1c-.06.08-.11.22,0,.26a.19.19,0,0,0,.13,0L39.71,50s0,.07,0,.1a30.47,30.47,0,0,1-6.34,3.28,1.91,1.91,0,0,0-1.12,1.28A9.4,9.4,0,0,0,32.86,63c.21.33.4.67.61,1a6.33,6.33,0,0,1-3-2.36,8.07,8.07,0,0,1-1.31-6.34c0-.28.23-1-.23-1l-1-.11a8,8,0,0,1-2.79-.54c-1.58-.77-2.2-1.81-2-4.11a8.67,8.67,0,0,1,1.79-4.86A31.88,31.88,0,0,1,14.6,41.33a15.11,15.11,0,0,1,1.29-1.11.82.82,0,0,1,.63,0c1.71.64,3.38,1.4,5.11,1.93a19.88,19.88,0,0,0,16.16-1.52,18.93,18.93,0,0,0,5.71-4.18c.21-.25.49-.65.34-1s-.51-.36-.78-.37a10.49,10.49,0,0,0-4.69,1.19,22.13,22.13,0,0,0-7.9,5.38,1.06,1.06,0,0,1-.58.37c-.81.08-1.63.1-2.44.14-.14,0-.27-.06-.21-.23a.55.55,0,0,1,.13-.17,25.74,25.74,0,0,1,5.26-4.08,21.8,21.8,0,0,1,3.3-1.59,21.49,21.49,0,0,1,3.51-1,13.27,13.27,0,0,1,3.65-.39,1.85,1.85,0,0,1,.77.22c.84.52.11,1.64-.25,2.22A11.67,11.67,0,0,1,40,40.73a27.45,27.45,0,0,1-6,3,18.13,18.13,0,0,1-4.35,1,.93.93,0,0,0-.87.58,13.54,13.54,0,0,0-.53,1.38,9.75,9.75,0,0,0-.53,3.3,2.17,2.17,0,0,0,.92,1.77,2,2,0,0,0,1.94.14,10.44,10.44,0,0,0,1.44-1.22c.53-.42,1.05-.83,1.61-1.2a19,19,0,0,1,3.6-1.88,24.94,24.94,0,0,1,4.56-1.29Z"/></g></g></svg>