<?xml version="1.0" encoding="utf-8"?>
<!-- Generator: Adobe Illustrator 24.3.0, SVG Export Plug-In . SVG Version: 6.00 Build 0)  -->
<svg version="1.1" id="圖層_1" xmlns="http://www.w3.org/2000/svg" xmlns:xlink="http://www.w3.org/1999/xlink" x="0px" y="0px"
	 viewBox="0 0 60 60" style="enable-background:new 0 0 60 60;" xml:space="preserve">
<style type="text/css">
	.st0{fill:#F4B22C;}
	.st1{fill:none;}
	.st2{fill:#FFFFFF;}
</style>
<g id="圖層_1-2">
	<circle class="st0" cx="30" cy="30" r="30"/>
	<rect x="14.4" y="14.4" class="st1" width="31.2" height="31.2"/>
	<g id="圖層_2-2">
		<g id="圖層_2-2-2">
			<path class="st2" d="M25.9,12c0,0,1.4,0.3,2.1,4s0.3,5.4-1.3,5.6S22.1,21.4,22,23c0,0.9,0.4,1.6,1.4,3L32,38.4c0,0,2.3,4,3.8,0.6
				s1.2-4,3.7-3.3s6.6,3.6,5.9,5.6c-0.6,3.9-3.8,6.9-7.7,7.1c-6.4,1-10.2-3.3-15-10.2S9.2,20.5,18.9,13.1C20.9,11.4,23.6,11,25.9,12
				z"/>
		</g>
	</g>
</g>
</svg>
