<svg xmlns="http://www.w3.org/2000/svg" viewBox="0 0 60 60"><defs><style>.cls-1{fill:#67b868;}.cls-2{fill:#fff;}</style></defs><g id="圖層_2" data-name="圖層 2"><g id="圖層_1-2" data-name="圖層 1"><circle class="cls-1" cx="30" cy="30" r="30"/><g id="圖層_2-2" data-name="圖層 2"><g id="圖層_2-2-2" data-name="圖層 2-2"><path class="cls-2" d="M25,7.33s1.9.31,2.53,5.05.32,6.95-1.58,7.27-6-.32-6,1.58c0,1.26.63,2.21,1.58,3.79L32.62,40.81s2.84,5.06,4.73.95,1.58-5,4.74-4.42,8.21,4.42,7.27,6.95a10.17,10.17,0,0,1-9.8,8.84c-8.21,1.27-13-4.1-19-13S3.87,18.38,16.19,8.91A8.17,8.17,0,0,1,25,7.33Z"/></g></g></g></g></svg>