<svg xmlns="http://www.w3.org/2000/svg" viewBox="0 0 248.48 47.13"><defs><style>.cls-1{fill:#1e3356;}</style></defs><g id="圖層_2" data-name="圖層 2"><g id="圖層_1-2" data-name="圖層 1"><path class="cls-1" d="M9.28,42.28a.57.57,0,0,0-.14-.37.52.52,0,0,0-.32-.2l-1.34-.26V41h5.15v.45l-1.22.26a.6.6,0,0,0-.46.57v2.88c0,.4,0,.73,0,1a9.34,9.34,0,0,1-1,.38c-.39.12-.79.23-1.21.32a13,13,0,0,1-1.3.22,11.69,11.69,0,0,1-1.32.08,6.06,6.06,0,0,1-2.36-.47A5.69,5.69,0,0,1,1.81,45.3,6.43,6.43,0,0,1,.49,43.12a8.73,8.73,0,0,1,0-5.74,6.5,6.5,0,0,1,1.34-2.2,6.1,6.1,0,0,1,2-1.43,6.33,6.33,0,0,1,2.52-.5c.53,0,1,0,1.46.06s.85.11,1.21.18a10.06,10.06,0,0,1,1,.24l.85.27v3.08h-.53l-.59-1.73a.58.58,0,0,0-.17-.25l-.25-.16a3.45,3.45,0,0,0-.72-.34,7.54,7.54,0,0,0-.88-.27,9.6,9.6,0,0,0-1-.17,8,8,0,0,0-1-.06A3.32,3.32,0,0,0,3,35.55a5.57,5.57,0,0,0-.82,1.82,10.09,10.09,0,0,0-.29,2.54,10.71,10.71,0,0,0,.28,2.55,6.55,6.55,0,0,0,.83,2,4.12,4.12,0,0,0,1.33,1.33,3.43,3.43,0,0,0,1.82.47,4.4,4.4,0,0,0,.94-.09A8.07,8.07,0,0,0,8,46c.27-.08.53-.18.75-.27s.38-.17.5-.23Z"/><path class="cls-1" d="M15.88,46.37l1.22-.26a.63.63,0,0,0,.33-.2.59.59,0,0,0,.13-.37V34.81a.62.62,0,0,0-.13-.38.63.63,0,0,0-.33-.2L15.88,34v-.45h4.88a9.84,9.84,0,0,1,1.73.13,6.31,6.31,0,0,1,1.28.37,3.46,3.46,0,0,1,.89.55,2.94,2.94,0,0,1,.56.68,3.12,3.12,0,0,1,.29.77,4.34,4.34,0,0,1,.08.8,3.36,3.36,0,0,1-.3,1.45,3.73,3.73,0,0,1-.74,1.1,4.24,4.24,0,0,1-1,.73,4,4,0,0,1-1,.4l3.65,4.83a1.6,1.6,0,0,0,.22.24,3.07,3.07,0,0,0,.26.25A2.22,2.22,0,0,0,27,46a.85.85,0,0,0,.27.11l1.08.24v.46h-2a3.5,3.5,0,0,1-.72-.07,1.47,1.47,0,0,1-.49-.22,1.52,1.52,0,0,1-.39-.37l-.42-.55L20.86,40.9l-1.57-.3v4.94a.57.57,0,0,0,.12.37.54.54,0,0,0,.3.2l1.43.26v.46H15.88ZM19.29,40a1.68,1.68,0,0,0,.3,0c.13,0,.27,0,.42,0l.43,0h.34a3.13,3.13,0,0,0,1.31-.25,2.59,2.59,0,0,0,.92-.65,2.68,2.68,0,0,0,.55-.94,3.38,3.38,0,0,0,.18-1.1,3.75,3.75,0,0,0-.21-1.33,2.18,2.18,0,0,0-.61-.91,2.48,2.48,0,0,0-1-.53,5,5,0,0,0-1.34-.17h-1.3Z"/><path class="cls-1" d="M29.72,46.37l.83-.24a.74.74,0,0,0,.34-.22,1,1,0,0,0,.23-.35l3.83-10,1.17-2.22h.38l4.73,12.24a1,1,0,0,0,.22.35.8.8,0,0,0,.34.22l.83.24v.46h-4.7v-.46l1.68-.32L38,41.88H33.33L31.83,46l1.64.35v.46H29.72Zm8-5.22-1.58-4.07-.48-1.31h0l-2,5.38Z"/><path class="cls-1" d="M56.34,44.23V45a9.56,9.56,0,0,1-.92.7,9.36,9.36,0,0,1-1.13.67,7.78,7.78,0,0,1-1.3.5,5,5,0,0,1-1.4.2A6.88,6.88,0,0,1,49,46.63a5.62,5.62,0,0,1-2-1.37,6.24,6.24,0,0,1-1.28-2.17,8.72,8.72,0,0,1-.45-2.89,8,8,0,0,1,.49-2.82,6.52,6.52,0,0,1,1.35-2.2,6,6,0,0,1,2-1.43,6.16,6.16,0,0,1,2.52-.5,9.9,9.9,0,0,1,1,.06q.57.07,1.14.18c.38.07.75.15,1.09.24s.65.18.91.27v3.08h-.51l-.62-1.69a.51.51,0,0,0-.15-.27,2.49,2.49,0,0,0-.24-.17,6.6,6.6,0,0,0-.7-.32,7,7,0,0,0-.81-.28,8.64,8.64,0,0,0-.85-.19,6,6,0,0,0-.83-.06,3.38,3.38,0,0,0-2.83,1.44,5.93,5.93,0,0,0-.81,1.81,10.09,10.09,0,0,0-.29,2.54,6.84,6.84,0,0,0,1.29,4.53,4.54,4.54,0,0,0,3.67,1.52,5.45,5.45,0,0,0,1.41-.17,4.84,4.84,0,0,0,1.11-.43,5.19,5.19,0,0,0,.87-.55l.67-.56Z"/><path class="cls-1" d="M59.7,46.37l1.23-.26a.57.57,0,0,0,.32-.2.54.54,0,0,0,.13-.37V34.81a.58.58,0,0,0-.45-.58L59.7,34v-.45h9.69v3.11h-.54l-.68-2a.57.57,0,0,0-.14-.24.31.31,0,0,0-.26-.1H63.12v5.28h3.05a.38.38,0,0,0,.28-.09.69.69,0,0,0,.14-.22l.55-1.58h.47v4.53h-.47l-.55-1.57a.86.86,0,0,0-.14-.25.38.38,0,0,0-.28-.09H63.12v5.83H68.6a.33.33,0,0,0,.26-.09.55.55,0,0,0,.14-.25l.64-2.32h.55v3.4H59.7Z"/><path class="cls-1" d="M81.36,46.37l1.23-.26a.57.57,0,0,0,.32-.2.54.54,0,0,0,.13-.37V34.81a.58.58,0,0,0-.45-.58L81.36,34v-.45h5.52a8.8,8.8,0,0,1,1.39.12,7.42,7.42,0,0,1,1.47.43,6.57,6.57,0,0,1,1.41.79,5.45,5.45,0,0,1,1.2,1.24,6.23,6.23,0,0,1,.83,1.76,8,8,0,0,1,.31,2.36A7.53,7.53,0,0,1,93,43.17a5.62,5.62,0,0,1-3.55,3.26,8.38,8.38,0,0,1-2.57.4H81.36ZM87,46.11a4.94,4.94,0,0,0,2-.37,3.87,3.87,0,0,0,1.43-1.09,4.89,4.89,0,0,0,.85-1.76,9.45,9.45,0,0,0,.28-2.37,8.87,8.87,0,0,0-.37-2.62,6,6,0,0,0-1-2,4.54,4.54,0,0,0-1.63-1.25,5,5,0,0,0-2.1-.44H84.78V46.11Z"/><path class="cls-1" d="M97.18,46.37l1.22-.26a.63.63,0,0,0,.33-.2.59.59,0,0,0,.13-.37V34.81a.62.62,0,0,0-.13-.38.63.63,0,0,0-.33-.2L97.18,34v-.45h9.69v3.11h-.54l-.69-2a.68.68,0,0,0-.13-.24.33.33,0,0,0-.26-.1h-4.66v5.28h3a.36.36,0,0,0,.28-.09.55.55,0,0,0,.14-.22l.55-1.58h.47v4.53h-.47l-.55-1.57a.68.68,0,0,0-.14-.25.36.36,0,0,0-.28-.09h-3v5.83h5.49a.36.36,0,0,0,.26-.09.65.65,0,0,0,.13-.25l.65-2.32h.54v3.4H97.18Z"/><path class="cls-1" d="M111.27,46.37l1.23-.32a.64.64,0,0,0,.32-.2.56.56,0,0,0,.13-.37V34.85a.52.52,0,0,0-.13-.37.64.64,0,0,0-.32-.2l-1.33-.3v-.45h3.25l6.38,9.16.9,1.33V34.87a.52.52,0,0,0-.13-.37.57.57,0,0,0-.32-.2L120,34v-.45h4.2V34L123,34.3a.63.63,0,0,0-.33.2.55.55,0,0,0-.14.37v9.75l-.29,2.3h-.54L114.79,37l-1-1.48v10a.55.55,0,0,0,.13.38.59.59,0,0,0,.32.19l1.23.32v.46h-4.19Z"/><path class="cls-1" d="M130.27,46.37l1.42-.26a.56.56,0,0,0,.32-.19.58.58,0,0,0,.13-.38V34.25h-3.08a.34.34,0,0,0-.28.1.55.55,0,0,0-.13.24l-.7,2.13h-.51V33.53h11.17v3.19h-.52l-.69-2.13a.68.68,0,0,0-.13-.24.32.32,0,0,0-.27-.1h-3.12V45.54a.55.55,0,0,0,.13.38.56.56,0,0,0,.33.19l1.42.26v.46h-5.49Z"/><path class="cls-1" d="M139.77,46.37l.83-.24a.74.74,0,0,0,.34-.22,1,1,0,0,0,.23-.35l3.83-10,1.17-2.22h.37l4.73,12.24a1,1,0,0,0,.23.35.74.74,0,0,0,.34.22l.83.24v.46H148v-.46l1.68-.32-1.6-4.17h-4.67L141.88,46l1.64.35v.46h-3.75Zm8-5.22-1.58-4.07-.49-1.31h0l-2,5.38Z"/><path class="cls-1" d="M155.22,46.37l1.23-.26a.6.6,0,0,0,.32-.2.54.54,0,0,0,.13-.37V34.81a.57.57,0,0,0-.13-.38.6.6,0,0,0-.32-.2L155.22,34v-.45h5.16V34l-1.28.25a.57.57,0,0,0-.33.2.58.58,0,0,0-.13.38V46.09h4.88a.31.31,0,0,0,.17-.05.41.41,0,0,0,.12-.14,1.19,1.19,0,0,0,.08-.16c0-.06,0-.11.05-.16l.73-2.55h.51v3.8h-10Z"/><path class="cls-1" d="M187.17,44.23V45a10.74,10.74,0,0,1-.91.7,10.36,10.36,0,0,1-1.14.67,7.78,7.78,0,0,1-1.3.5,5,5,0,0,1-1.4.2,6.92,6.92,0,0,1-2.63-.48,5.62,5.62,0,0,1-2-1.37,6.24,6.24,0,0,1-1.28-2.17,8.72,8.72,0,0,1-.45-2.89,8,8,0,0,1,.49-2.82,6.52,6.52,0,0,1,1.35-2.2,6,6,0,0,1,2-1.43,6.2,6.2,0,0,1,2.52-.5,10.09,10.09,0,0,1,1.05.06l1.13.18c.38.07.75.15,1.1.24s.64.18.9.27v3.08h-.51l-.62-1.69a.51.51,0,0,0-.15-.27,2.49,2.49,0,0,0-.24-.17,6.6,6.6,0,0,0-.7-.32,6.42,6.42,0,0,0-.81-.28,8.64,8.64,0,0,0-.85-.19,6,6,0,0,0-.83-.06,3.38,3.38,0,0,0-2.83,1.44,5.93,5.93,0,0,0-.81,1.81,10.09,10.09,0,0,0-.29,2.54,6.84,6.84,0,0,0,1.29,4.53,4.54,4.54,0,0,0,3.67,1.52,5.45,5.45,0,0,0,1.41-.17,4.67,4.67,0,0,0,1.11-.43,5.19,5.19,0,0,0,.87-.55l.67-.56Z"/><path class="cls-1" d="M190.53,46.37l1.23-.26a.57.57,0,0,0,.32-.2.54.54,0,0,0,.13-.37V34.81a.58.58,0,0,0-.45-.58L190.53,34v-.45h5.17V34l-1.29.25a.58.58,0,0,0-.32.2.59.59,0,0,0-.14.38V46.09h4.89A.28.28,0,0,0,199,46a.41.41,0,0,0,.12-.14.6.6,0,0,0,.08-.16,1.42,1.42,0,0,0,.05-.16L200,43h.52v3.8h-10Z"/><path class="cls-1" d="M203.65,46.37l1.23-.26a.6.6,0,0,0,.32-.2.54.54,0,0,0,.13-.37V34.81a.57.57,0,0,0-.13-.38.6.6,0,0,0-.32-.2L203.65,34v-.45h5.1V34l-1.22.25a.54.54,0,0,0-.32.21.5.5,0,0,0-.14.37V45.54a.57.57,0,0,0,.13.38.69.69,0,0,0,.33.19l1.22.26v.46h-5.1Z"/><path class="cls-1" d="M212.29,46.37l1.23-.32a.57.57,0,0,0,.32-.2.56.56,0,0,0,.13-.37V34.85a.52.52,0,0,0-.13-.37.57.57,0,0,0-.32-.2L212.2,34v-.45h3.24l6.38,9.16.91,1.33V34.87a.57.57,0,0,0-.13-.37.63.63,0,0,0-.33-.2L221.05,34v-.45h4.2V34L224,34.3a.63.63,0,0,0-.33.2.54.54,0,0,0-.13.37v9.75l-.29,2.3h-.54L215.82,37l-1-1.48v10a.6.6,0,0,0,.13.38.61.61,0,0,0,.33.19l1.22.32v.46h-4.19Z"/><path class="cls-1" d="M228.58,46.37l1.22-.26a.63.63,0,0,0,.33-.2.59.59,0,0,0,.13-.37V34.81a.62.62,0,0,0-.13-.38.63.63,0,0,0-.33-.2L228.58,34v-.45h5.09V34l-1.21.25a.59.59,0,0,0-.33.21.55.55,0,0,0-.14.37V45.54a.57.57,0,0,0,.14.38.6.6,0,0,0,.33.19l1.21.26v.46h-5.09Z"/><path class="cls-1" d="M248.48,44.23V45a9.56,9.56,0,0,1-.92.7,9.36,9.36,0,0,1-1.13.67,7.78,7.78,0,0,1-1.3.5,5.09,5.09,0,0,1-1.4.2,6.88,6.88,0,0,1-2.63-.48,5.62,5.62,0,0,1-2-1.37,6.24,6.24,0,0,1-1.28-2.17,8.72,8.72,0,0,1-.45-2.89,8,8,0,0,1,.49-2.82,6.37,6.37,0,0,1,1.35-2.2,6,6,0,0,1,2-1.43,6.16,6.16,0,0,1,2.52-.5,9.76,9.76,0,0,1,1,.06q.57.07,1.14.18c.38.07.75.15,1.09.24s.65.18.91.27v3.08h-.51l-.62-1.69a.51.51,0,0,0-.15-.27,2.49,2.49,0,0,0-.24-.17,6.6,6.6,0,0,0-.7-.32,7,7,0,0,0-.81-.28,8.64,8.64,0,0,0-.85-.19,6,6,0,0,0-.83-.06,3.38,3.38,0,0,0-2.83,1.44,5.93,5.93,0,0,0-.81,1.81,10.09,10.09,0,0,0-.29,2.54,6.84,6.84,0,0,0,1.29,4.53,4.54,4.54,0,0,0,3.67,1.52,5.45,5.45,0,0,0,1.41-.17,4.67,4.67,0,0,0,1.11-.43,5.19,5.19,0,0,0,.87-.55l.67-.56Z"/><path class="cls-1" d="M30,11.46H16.39v6.59A37.75,37.75,0,0,0,22,16.29l.14,1.16a51.7,51.7,0,0,1-6.86,2.15l-.51-1.28a1.32,1.32,0,0,0,.49-1.08v-15h6.84A10.15,10.15,0,0,0,20.88.64L22,.09a17.83,17.83,0,0,1,1.5,2.12H30Zm-1.16-8.1H16.39v2.8H28.83Zm0,4H16.39v3H28.83Zm4.05,11.3-.67,1.05q-7.55-2.21-10.46-6.8l1-.66a11.13,11.13,0,0,0,2.94,3.19,19.86,19.86,0,0,0,4.49-3.3l.87.77a23,23,0,0,1-4.25,3.27,23.82,23.82,0,0,0,6.1,2.48"/><path class="cls-1" d="M57.6,13.46a20.9,20.9,0,0,1-3.05,5.25l-.95-.62a21.11,21.11,0,0,0,3-5.09Zm13.6-2.2H55.33V.74H71.2ZM70,1.87H56.54v8.26H70ZM69,8.45l-.64,1a36,36,0,0,0-5.52-2.95,9.38,9.38,0,0,1-4.78,2.91l-.7-1a7.48,7.48,0,0,0,5-3.27H57.58v-1h5.34a10.73,10.73,0,0,0,.5-1.63l1.06.25a6.12,6.12,0,0,1-.36,1.38H69v1H63.68a2.11,2.11,0,0,1-.24.44A56,56,0,0,1,69,8.45m-.51,7.82a5,5,0,0,1-.47,2.11,1.75,1.75,0,0,1-1.08.9,17.22,17.22,0,0,1-3.1.17c-.86,0-1.69,0-2.48-.05A2.73,2.73,0,0,1,59.75,19a1.5,1.5,0,0,1-.45-1.2V12.59h1.13v5.06a.58.58,0,0,0,.42.59,15.71,15.71,0,0,0,3.24.17,13,13,0,0,0,2.27-.11,1.06,1.06,0,0,0,.64-.47,4.92,4.92,0,0,0,.42-1.94Zm-2.5-1-1,.54a16.32,16.32,0,0,0-2.43-3.3l1-.57A15.16,15.16,0,0,1,66,15.22m6.81,2.94-1,.53a28.53,28.53,0,0,0-3.23-5.05l1-.58a27,27,0,0,1,3.25,5.1"/><path class="cls-1" d="M113.4,8.37h-5.46v9.45a1.76,1.76,0,0,1-.36,1.06,1.59,1.59,0,0,1-.88.63,17.82,17.82,0,0,1-3,.14c-.49,0-1,0-1.42,0l-.45-1.19c.74,0,1.48.06,2.24.06,1.12,0,1.78,0,2,0a.82.82,0,0,0,.52-.34,1,1,0,0,0,.2-.57v-9a20.64,20.64,0,0,1-12.15,9.26l-.74-1q8.19-2.36,11.6-8.41H96.09L97,1.89H95.39V.66h16.83V1.89h-4.28V7.21h5.46Zm-6.63-1.16V1.89H98.24l-.77,5.32Z"/><path class="cls-1" d="M153.9,10.91h-7.21V12.1h5.43v7.57H151v-.8H137.57v.8h-1.14V12.1h5.7c0-.57.07-1,.07-1.19h-7.61v-1H153.9Zm-8.84-9.36h-5.67l.6.38a5.28,5.28,0,0,1-.36.6h4.57v.91h-2.45a8.06,8.06,0,0,1-.15,1h3v1h-2.81A18.77,18.77,0,0,1,144.2,7l-.65.74a13.13,13.13,0,0,0-2.65-1.83A6.19,6.19,0,0,1,138,7.66l-.6-.85a5.22,5.22,0,0,0,2.68-1.44h-2.68v-1h3.13a2.32,2.32,0,0,0,.21-1h-1.94A6.52,6.52,0,0,1,138,4l-.82-.63A6.09,6.09,0,0,0,139,1.55h-2.38v6a.51.51,0,0,0,.17.37.5.5,0,0,0,.36.16h7V9h-7a1.46,1.46,0,0,1-1.62-1.67V1.55h-.68v-1h10.17ZM151,17.9V15.29h-3.78c-.69,0-1.14-.15-1.35-.46a2.07,2.07,0,0,1-.31-1.17V13.1H143c-.5,1.44-2,2.41-4.37,2.93l-.55-1c1.89-.27,3.15-.9,3.78-1.9h-4.27v4.8ZM148.82,17h-9.15v-1h9.15Zm-3.25-4.91V10.91H143.3a10.48,10.48,0,0,1-.08,1.19Zm8.16-8.56h-2c-.79,0-1.19-.43-1.19-1.29V1.6h-3.12A3.83,3.83,0,0,1,145.87,4L145,3.31A2.59,2.59,0,0,0,146.34.62h5.22V2.29c0,.2.11.3.32.3h1.85Zm-.15,5.1-.59.81a29.58,29.58,0,0,0-3-1.66,15.12,15.12,0,0,1-4.49,1.58L145,8.45a16.76,16.76,0,0,0,3.78-1.21A23.39,23.39,0,0,0,145.82,6l.45-.6h-1v-1h7.55v1a8.64,8.64,0,0,1-1.92,1.75c.59.3,1.47.8,2.64,1.48M151,14.31V13.1h-4.32v.81a.35.35,0,0,0,.4.4Zm.33-8.9h-4.41c1.72.72,2.69,1.13,2.92,1.24a8.11,8.11,0,0,0,1.49-1.24"/><path class="cls-1" d="M182.32,3.63H175V2.53h3.29a17.32,17.32,0,0,0-.89-2.06L178.43,0a16.66,16.66,0,0,1,1.06,2.53h2.83Zm-.77,3.18h-6.18V5.69h6.18Zm0,3.23h-6.18V8.94h6.18Zm-.17,9.1h-1.13V17.92h-3.63V19.6h-1.11V12.13h5.87Zm-1.13-5.87h-3.63V16.8h3.63ZM194.36,6.5l-.73.91A21.27,21.27,0,0,1,188.39,2,21.55,21.55,0,0,1,183,7.26l-.89-.83A17,17,0,0,0,188.24,0l1.09.43a2.06,2.06,0,0,1-.26.57,19,19,0,0,0,5.29,5.46m-.11,6.34a27.35,27.35,0,0,1-10.75,6.74l-.85-.93A24.89,24.89,0,0,0,193.45,12Zm-1.91-3.92a22.07,22.07,0,0,1-8.82,6.15l-.8-.89a21.68,21.68,0,0,0,8.79-6Zm-2.08-3a20.82,20.82,0,0,1-6.56,4.92l-.83-.88a18.69,18.69,0,0,0,6.46-4.75Z"/><path class="cls-1" d="M224.58,1.23A23.24,23.24,0,0,1,218,2.93V5.59h5.83v6.47H218a18,18,0,0,1-1.76,7.46l-1-.69a16.28,16.28,0,0,0,1.62-7.51V2a22.71,22.71,0,0,0,7.24-1.8Zm-1.91,5.44H218v4.26h4.7Zm12.12,1.67h-2.53v11.4h-1.1V8.34h-4a22.3,22.3,0,0,1-.76,6.79,20.8,20.8,0,0,1-2.36,4.61l-.94-.76a14.5,14.5,0,0,0,2.4-4.78A24.8,24.8,0,0,0,226,8.59V1.8a23.87,23.87,0,0,0,7.9-1.58l.61,1a25.17,25.17,0,0,1-7.36,1.59V7.26h7.62Z"/></g></g></svg>