<?xml version="1.0" encoding="utf-8"?>
<!-- Generator: Adobe Illustrator 22.0.1, SVG Export Plug-In . SVG Version: 6.00 Build 0)  -->
<svg version="1.1" id="圖層_1" xmlns="http://www.w3.org/2000/svg" xmlns:xlink="http://www.w3.org/1999/xlink" x="0px" y="0px"
	 viewBox="0 0 60 60" style="enable-background:new 0 0 60 60;" xml:space="preserve">
<style type="text/css">
	.st0{fill:#74B52A;}
	.st1{fill:none;}
	.st2{fill:#FFFFFF;}
</style>
<g id="圖層_2_1_">
	<g id="圖層_1-2">
		<circle class="st0" cx="30" cy="30" r="30"/>
		<rect x="14.4" y="14.4" class="st1" width="31.2" height="31.2"/>
		<g id="圖層_2-2">
			<g id="圖層_2-2-2">
				<path class="st2" d="M25.9,11.6c0,0,1.4,0.3,2.1,4.2s0.3,5.5-1.4,5.7s-4.7-0.1-4.8,1.5c0,0.9,0.4,1.6,1.4,3.1l8.8,12.7
					c0,0,2.4,4.1,3.9,0.6s1.2-4,3.8-3.3s6.7,3.6,6,5.7c-0.6,4-3.9,7-7.9,7.3c-6.6,1-10.5-3.4-15.3-10.4S8.8,20.3,18.7,12.7
					C20.7,10.9,23.4,10.5,25.9,11.6z"/>
			</g>
		</g>
	</g>
</g>
</svg>
