<svg width="430" height="59" viewBox="0 0 430 59" fill="none" xmlns="http://www.w3.org/2000/svg">
<path fill-rule="evenodd" clip-rule="evenodd" d="M25.0002 1C11.7454 1 1.00024 11.7452 1.00024 25V34C1.00024 47.2548 11.7454 58 25.0002 58H354H381H429.49C415.219 56.725 406.067 52.7436 400.217 48.3806C403.221 44.3728 405 39.3942 405 34V25C405 11.7452 394.255 1 381 1H25.0002Z" fill="white"/>
<path d="M429.49 58L429.535 57.502L429.49 58.5V58ZM400.217 48.3806L399.918 48.7814L399.516 48.4818L399.816 48.0807L400.217 48.3806ZM0.500244 25C0.500244 11.469 11.4693 0.5 25.0002 0.5V1.5C12.0216 1.5 1.50024 12.0213 1.50024 25H0.500244ZM0.500244 34V25H1.50024V34H0.500244ZM25.0002 58.5C11.4692 58.5 0.500244 47.531 0.500244 34H1.50024C1.50024 46.9787 12.0215 57.5 25.0002 57.5V58.5ZM354 58.5H25.0002V57.5H354V58.5ZM381 58.5H354V57.5H381V58.5ZM429.49 58.5H381V57.5H429.49V58.5ZM400.515 47.9798C406.279 52.2777 415.337 56.2337 429.535 57.502L429.446 58.498C415.1 57.2164 405.856 53.2095 399.918 48.7814L400.515 47.9798ZM405.5 34C405.5 39.506 403.683 44.5891 400.617 48.6805L399.816 48.0807C402.758 44.1564 404.5 39.2824 404.5 34H405.5ZM405.5 25V34H404.5V25H405.5ZM381 0.5C394.531 0.5 405.5 11.469 405.5 25H404.5C404.5 12.0213 393.979 1.5 381 1.5V0.5ZM25.0002 0.5H381V1.5H25.0002V0.5Z" fill="#BB8080"/>
</svg>
