<svg xmlns="http://www.w3.org/2000/svg" xmlns:xlink="http://www.w3.org/1999/xlink" viewBox="0 0 258.07 258.07"><defs><style>.cls-1{fill:none;}.cls-2{fill:#fff;}.cls-3{clip-path:url(#clip-path);}.cls-4{clip-path:url(#clip-path-2);}.cls-5{fill:#64b558;}.cls-6{fill:#4b8d43;}.cls-7{fill:#f4b22c;}.cls-8{fill:#42803b;}.cls-9{fill:#6cb75a;}</style><clipPath id="clip-path"><rect class="cls-1" x="19.71" y="55.99" width="218.66" height="146.09"/></clipPath><clipPath id="clip-path-2"><rect class="cls-1" x="-99.23" y="13.46" width="455.16" height="256.03"/></clipPath></defs><g id="圖層_2" data-name="圖層 2"><g id="圖層_1-2" data-name="圖層 1"><rect class="cls-2" width="258.07" height="258.07"/><g class="cls-3"><g class="cls-4"><g class="cls-4"><path class="cls-5" d="M123.31,163.36l0,0c-.09.1-.27.37,0,0"/><path class="cls-5" d="M101.89,111l.26-.15h0l-.24.14"/><path class="cls-5" d="M125.7,161.44h0"/><path class="cls-5" d="M125.7,161.44h0"/><path class="cls-5" d="M123.31,163.36l0,0c-.09.1-.27.37,0,0"/><path class="cls-5" d="M151.41,139.34l0-.06v0c-.19.34-.11.23-.05.1"/><path class="cls-5" d="M111.32,177.48h0"/><path class="cls-5" d="M102.15,110.84h0l-.24.14.26-.15"/><path class="cls-5" d="M111.85,177.38c0-.06,0-.08,0,0"/><path class="cls-6" d="M158.14,110.12a15.76,15.76,0,0,0-9-6.75,25.13,25.13,0,0,0-9.19-.78c-1.86.14-3.72.45-5.52.76-1,.17-2.06.35-3.1.49-2,.28-4,.43-5.9.56h-.21l-.44,0H124c-.53,0-1.05,0-1.55-.06s-1-.08-1.5-.15l-.17,0h-.07l-.45-.07c-.69-.1-1.38-.22-2.07-.33a73.22,73.22,0,0,0-9.28-1.09c-5.33-.16-9.5.79-12.73,2.92-6.82,4.49-7.78,13.74-7.39,20.71a42.69,42.69,0,0,0,2.39,11.61c.63,1.84,1.37,3.68,2.09,5.45s1.37,3.4,2,5.16a17.82,17.82,0,0,1,4.66-5.05c-.2-.52-.41-1-.62-1.55A70.64,70.64,0,0,1,95.64,131a40.51,40.51,0,0,1-.88-7.19,32.33,32.33,0,0,1,.76-8.07c.15-.66.33-1.3.53-1.9.09-.3.2-.59.31-.88l0-.13a2.14,2.14,0,0,0,.1-.22l.11-.24a15.64,15.64,0,0,1,.85-1.63c.15-.25.31-.49.48-.73s.16-.23.25-.34l.06-.08a13.88,13.88,0,0,1,1.2-1.22l.06,0,.29-.21.42-.27.28-.16h0l.41-.19.42-.18c.5-.15,1-.29,1.65-.43l.48-.07,1-.11,1,0H106a41.73,41.73,0,0,1,4.21.26c.66.07,1.35.16,2.09.26l.52.08,1,.16,1.32.21,2.43.38a41.22,41.22,0,0,0,10.35.12c2.32-.24,4.65-.62,6.9-1l1.45-.23c1-.16,1.74-.26,2.47-.33l1.08-.08.44,0h.31a24.38,24.38,0,0,1,2.93.18l.31.06.84.17c.58.14,1.15.31,1.7.5l.35.14c.29.13.57.26.84.4a13.53,13.53,0,0,1,1.65,1l.27.2.16.12c.26.22.52.45.77.69a13.91,13.91,0,0,1,1.43,1.62,13.35,13.35,0,0,1,.92,1.39,18,18,0,0,1,1.68,7.61,51.84,51.84,0,0,1-1.61,13l-.13.6a23.5,23.5,0,0,1-.84,3h0l0,0,0,.11a.36.36,0,0,1,0,.09c-.09.21-.19.43-.28.65-.18.38-.35.76-.53,1.15l-.12.25c-.62,1.34-1.14,2.54-1.59,3.65a27.85,27.85,0,0,0-2.06,8.73,94.34,94.34,0,0,1-1,10.45,50.17,50.17,0,0,1-2.48,9.48l-.27.67c-.17.41-.35.83-.53,1.24-.35.78-.66,1.4-1,2a11.67,11.67,0,0,1-.82,1.31.44.44,0,0,1-.08.11l0,0-.13.13c-.31,0-.66,0-1,0-.08-.11-.14-.21-.19-.29a15.75,15.75,0,0,1-.95-2.54c-.28-1-.53-2-.76-3-.13-.53-.25-1-.39-1.57a28.53,28.53,0,0,0-2.34-6.33,14.36,14.36,0,0,0-3.47-4.62,8.27,8.27,0,0,0-6-1.9c-4.54.34-8.32,3.74-11.56,10.4a94.57,94.57,0,0,0-3.65,9c-.08.23-.17.46-.26.69v0h-.19l0,0a4.22,4.22,0,0,1-.48-.31l-.13-.1c-.16-.14-.32-.3-.49-.47a15.78,15.78,0,0,1-1.88-2.48c-.23-.37-.47-.78-.74-1.27a41.27,41.27,0,0,1-2.53-5.84,24.62,24.62,0,0,1-1.29-5c0-.23,0-.48-.06-.77,0-1.14,0-2.3.1-3.42.06-1.32.13-2.69.08-4a17.66,17.66,0,0,0-.39-3.44l-.14-.6-.45.41a17.17,17.17,0,0,0-5,7.41l0,.1a17.44,17.44,0,0,0-.21,1.88,24.76,24.76,0,0,0,.13,4A27.2,27.2,0,0,0,98,169a40.1,40.1,0,0,0,3.23,6.88,12.26,12.26,0,0,0,4.18,4.63,6.63,6.63,0,0,0,3.76.69l.5,0h.22q.52,0,1,0a5.54,5.54,0,0,0,4.65-2.69,17.59,17.59,0,0,0,.8-2l.14-.36c.43-1.21.87-2.39,1.33-3.57l.4-1,0-.1-.34-.13.36.08.14-.33c.09-.24.2-.48.3-.72.36-.85.71-1.63,1.08-2.37a32.07,32.07,0,0,1,2.18-3.82l.53-.75.24-.3,0-.06,0,0h0a11.94,11.94,0,0,1,1-1.08l.36-.32.11-.09.14-.11.4-.25.09,0h.1l.23.06.13,0,.29.13c.16.09.31.19.47.3s.26.18.37.24l.11.09.42.4a11.86,11.86,0,0,1,1.55,2c.18.28.37.58.57.95a37.77,37.77,0,0,1,2.93,8.64l.07.3a22.78,22.78,0,0,0,1.45,4.46,4.32,4.32,0,0,0,2,2.27,5.34,5.34,0,0,0,2.22.42c.39,0,.77,0,1.13-.06l.3,0h0a11.37,11.37,0,0,0,2.68-.31,8,8,0,0,0,4.39-3,22.12,22.12,0,0,0,2.68-5.1,54.3,54.3,0,0,0,3.52-14c.31-2.44.46-4.85.61-7.52a25.4,25.4,0,0,1,1.22-6.29c.13-.41.27-.83.43-1.25.07-.2.15-.4.23-.6l0-.11a1.57,1.57,0,0,1,.09-.23h0a.37.37,0,0,0,0-.11c.28-.67.6-1.39,1-2.28l.36-.79a26.07,26.07,0,0,0,1.37-3.26,51.62,51.62,0,0,0,1.46-6.17,48.94,48.94,0,0,0,1-10c0-2.93-.35-6.73-2.37-10.08m-33.2,50.58h0l0,.1h0Zm-.06.11,0-.08,0,.06Zm0,.06h0v0h0Zm0,0v0l0,.15Z"/><path class="cls-2" d="M213.11,129.44a12.79,12.79,0,0,0-4.13.64v-.39H198.32v3.89a9.25,9.25,0,0,0-1.38-1.57l-.07-.06a10.4,10.4,0,0,0-3.37-1.87,13.07,13.07,0,0,0-4.14-.64,12.24,12.24,0,0,0-5.36,1.1c-.21.1-.41.21-.61.32l.34-1.17H172.42l-.89,3.71-.79-3.71h-8.48l-.92,4.1-1-4.1H149l.34,1.17-.6-.32a13.63,13.63,0,0,0-10.73,0,9.2,9.2,0,0,0-3.71,3.11c-.07.1-.13.21-.19.31V121.19H105.08v12.42a7.09,7.09,0,0,0-1.91-2.41,7.44,7.44,0,0,0-2.73-1.39,10.46,10.46,0,0,0-5-.12H66.59a8.64,8.64,0,0,0-3.31-6l0,0a12.34,12.34,0,0,0-3.59-2,13.3,13.3,0,0,0-4.49-.74,13.69,13.69,0,0,0-4.95.83,10.36,10.36,0,0,0-3.67,2.31,9.49,9.49,0,0,0-2.34,3.55,11.56,11.56,0,0,0-.74,4.11A11.24,11.24,0,0,0,45,137.8c1.11,1.77,3.13,3.15,6,4.1l1.44.47H43.2v4.29a8.36,8.36,0,0,0,1,4.06,10.07,10.07,0,0,0,2.55,3,11.52,11.52,0,0,0,3.69,2,14,14,0,0,0,4.39.68,15,15,0,0,0,5.22-.84A10,10,0,0,0,63.93,153h0a8.32,8.32,0,0,0,1.24-1.74,8.33,8.33,0,0,0,.32.8,7.28,7.28,0,0,0,2,2.55A7.76,7.76,0,0,0,70.22,156a10.29,10.29,0,0,0,2.67.37,10.6,10.6,0,0,0,2.33-.25h40.53v-12.6h7.73v4.25a9.74,9.74,0,0,0,.8,4.16,6.74,6.74,0,0,0,2.58,2.9,9.05,9.05,0,0,0,3.49,1.28,25.62,25.62,0,0,0,3.56.26h2.81v-1.88a10.06,10.06,0,0,0,1.33.77,13.63,13.63,0,0,0,10.73,0,9.21,9.21,0,0,0,3.71-3.12,7.63,7.63,0,0,0,1.19-2.92,15.31,15.31,0,0,0,.26-2.87h0l2.86,9.77h8.81l.78-3.35.77,3.35H176l2.87-9.77h0a15.26,15.26,0,0,0,.25,2.87,7.8,7.8,0,0,0,1.19,2.92,9.28,9.28,0,0,0,3.71,3.12,12.31,12.31,0,0,0,5.37,1.1,12.64,12.64,0,0,0,4.13-.65,10.48,10.48,0,0,0,3.3-1.84,8.56,8.56,0,0,0,1.53-1.6v3.84H209V140.94a1.62,1.62,0,0,1,.14-.78,1.53,1.53,0,0,1,.49-.52l.07,0a2.17,2.17,0,0,1,.79-.35,5.18,5.18,0,0,1,1.15-.16,2.44,2.44,0,0,1,.71.1l3.59,1.07V129.43ZM55,130.59a2.27,2.27,0,0,1,.78.1,1.21,1.21,0,0,1,.21.76v1.84l-.73-.24a7,7,0,0,1-1.06-.41,9.11,9.11,0,0,1,0-.94,3.73,3.73,0,0,1,.09-.84.83.83,0,0,1,0-.12l.14-.09a2,2,0,0,1,.57-.06m-1.09,12.25.88.29c.56.19.91.34,1.13.43A13.25,13.25,0,0,1,56,145a14.33,14.33,0,0,1-.07,1.55v0a3.86,3.86,0,0,1-1,.1,2.92,2.92,0,0,1-.91-.11.33.33,0,0,1-.08-.21Zm8.87-6.91a11.3,11.3,0,0,0-1.47-.82h3.52v2.7a9.27,9.27,0,0,0-2.05-1.88m53-5.34h7.73v3.54h-7.73Z"/><path class="cls-7" d="M61.88,151.12a6.55,6.55,0,0,0,1.47-2.68,12.18,12.18,0,0,0,.46-3.44,17.57,17.57,0,0,0-.2-2.86,6.75,6.75,0,0,0-.76-2.23,5.71,5.71,0,0,0-1.67-1.65,10.81,10.81,0,0,0-2.8-1.26l-4-1.28a10.3,10.3,0,0,1-1.64-.67,2.68,2.68,0,0,1-.93-.82,2.56,2.56,0,0,1-.4-1.07,11.72,11.72,0,0,1-.08-1.46,6.78,6.78,0,0,1,.16-1.45,2.89,2.89,0,0,1,1.69-2.11A4,4,0,0,1,55,127.8a3.55,3.55,0,0,1,2.92,1.08,4,4,0,0,1,.87,2.57v.86h5.06v-2a5.78,5.78,0,0,0-2.33-4.49,9.34,9.34,0,0,0-2.77-1.52,10.57,10.57,0,0,0-3.55-.58,11.12,11.12,0,0,0-3.95.64,7.74,7.74,0,0,0-2.72,1.7,6.82,6.82,0,0,0-1.67,2.54,8.59,8.59,0,0,0-.56,3.12,8.49,8.49,0,0,0,1.14,4.57c.76,1.21,2.27,2.19,4.5,2.93l3.75,1.24a15.15,15.15,0,0,1,1.58.63,2.74,2.74,0,0,1,1,.77,2.88,2.88,0,0,1,.43,1.25,14.15,14.15,0,0,1,.11,1.91c0,.66,0,1.27-.08,1.82a2.83,2.83,0,0,1-.51,1.43,2.71,2.71,0,0,1-1.19.92,5.73,5.73,0,0,1-2.12.32,3.79,3.79,0,0,1-2.91-1,3.11,3.11,0,0,1-.87-2.15v-1.24H46v1.49a5.56,5.56,0,0,0,.68,2.71,7.48,7.48,0,0,0,1.86,2.2,8.66,8.66,0,0,0,2.8,1.47,11.08,11.08,0,0,0,3.51.54,12,12,0,0,0,4.24-.66,7.13,7.13,0,0,0,2.79-1.8"/><path class="cls-7" d="M77.76,151.33l0,0H78v2h5.07V132.49H78v14a3.65,3.65,0,0,1-.58,2.2,2.54,2.54,0,0,1-2.13.79,2.7,2.7,0,0,1-2-.69,2.56,2.56,0,0,1-.7-1.89V132.49H67.59v16a5.46,5.46,0,0,0,.45,2.34,4.44,4.44,0,0,0,1.21,1.57,4.66,4.66,0,0,0,1.72.87,7.13,7.13,0,0,0,1.93.27,6,6,0,0,0,2.91-.63,6.81,6.81,0,0,0,2-1.62"/><path class="cls-7" d="M95.36,136.29a2.66,2.66,0,0,1,2,.69,2.55,2.55,0,0,1,.69,1.89v14.46h5.07v-16a5.46,5.46,0,0,0-.45-2.34,4.55,4.55,0,0,0-1.21-1.57,4.66,4.66,0,0,0-1.72-.87,7.13,7.13,0,0,0-1.93-.27,6,6,0,0,0-2.91.63,6.85,6.85,0,0,0-2,1.62l0,0h-.23v-2H87.58v20.84h5.07V139.28a3.61,3.61,0,0,1,.58-2.21,2.55,2.55,0,0,1,2.13-.78"/><polygon class="cls-6" points="122 136.92 112.95 136.92 112.95 127.8 123.33 127.8 123.33 123.99 107.88 123.99 107.88 153.33 112.95 153.33 112.95 140.73 122 140.73 122 136.92"/><path class="cls-6" d="M128.35,152.47a6.16,6.16,0,0,0,2.43.88,21.2,21.2,0,0,0,3.14.23v-3.81a3.93,3.93,0,0,1-2-.57,2.13,2.13,0,0,1-.57-1.71V124h-5.07v23.79a7.11,7.11,0,0,0,.53,3,3.91,3.91,0,0,0,1.54,1.72"/><path class="cls-6" d="M150.17,150.59a4.86,4.86,0,0,0,.76-1.87,12.3,12.3,0,0,0,.21-2.35v-6.92a12.22,12.22,0,0,0-.21-2.35,4.86,4.86,0,0,0-.76-1.87,6.34,6.34,0,0,0-2.61-2.17,10.91,10.91,0,0,0-8.3,0,6.34,6.34,0,0,0-2.61,2.17,4.86,4.86,0,0,0-.76,1.87,13.12,13.12,0,0,0-.2,2.35v6.92a13.12,13.12,0,0,0,.2,2.35,4.86,4.86,0,0,0,.76,1.87,6.41,6.41,0,0,0,2.61,2.17,10.91,10.91,0,0,0,8.3,0,6.42,6.42,0,0,0,2.61-2.17m-4.1-3.56a2.33,2.33,0,0,1-.72,1.87,3.29,3.29,0,0,1-3.87,0,2.33,2.33,0,0,1-.72-1.87v-8.24a2.37,2.37,0,0,1,.72-1.88,2.89,2.89,0,0,1,1.93-.62,2.85,2.85,0,0,1,1.93.62,2.34,2.34,0,0,1,.73,1.88Z"/><polygon class="cls-6" points="174.63 132.49 171.49 145.55 171.25 145.55 168.47 132.49 164.5 132.49 161.57 145.55 161.33 145.55 161.31 145.48 158.15 132.49 152.78 132.49 158.9 153.33 163.39 153.33 166.27 140.85 166.51 140.85 166.52 140.92 169.38 153.33 173.88 153.33 179.99 132.49 174.63 132.49"/><path class="cls-6" d="M197.09,147.41H192a3.37,3.37,0,0,1-.6,1.37,2.34,2.34,0,0,1-2,.75,3.1,3.1,0,0,1-1.93-.56,1.94,1.94,0,0,1-.73-1.6v-3h10.39V138.7a6,6,0,0,0-2-4.62,7.56,7.56,0,0,0-2.46-1.35,10.34,10.34,0,0,0-3.24-.49,9.62,9.62,0,0,0-4.15.82,6.34,6.34,0,0,0-2.61,2.17,4.86,4.86,0,0,0-.76,1.87,13.12,13.12,0,0,0-.2,2.35v6.92a13.12,13.12,0,0,0,.2,2.35,4.86,4.86,0,0,0,.76,1.87,6.42,6.42,0,0,0,2.61,2.17,9.62,9.62,0,0,0,4.15.82,10,10,0,0,0,3.21-.49,7.57,7.57,0,0,0,2.44-1.36,5.4,5.4,0,0,0,2.08-4.32m-10.39-8.63a2.33,2.33,0,0,1,.73-1.86,2.84,2.84,0,0,1,1.93-.63,2.8,2.8,0,0,1,1.93.63,2.3,2.3,0,0,1,.73,1.86v2.5H186.7Z"/><path class="cls-6" d="M208.07,137.3a5.33,5.33,0,0,1,1.75-.78,8,8,0,0,1,1.8-.23,5.39,5.39,0,0,1,1.5.22v-4.27a9.46,9.46,0,0,0-3.68.66,15.57,15.57,0,0,0-3.12,1.81l-.14.1v-2.32h-5.06v20.84h5.06V140.94a4.27,4.27,0,0,1,.53-2.2,4.47,4.47,0,0,1,1.36-1.44"/><path class="cls-2" d="M163.51,88.58a21.93,21.93,0,0,1-13.81,12.55C137,105,132.46,114.86,136.12,123.64c0,0-.94-9.53,10.71-14.07,10.86-4.24,15.77-7.26,16.68-21"/><path class="cls-7" d="M170.15,73.21s-7.68,4.8-3.65,12.1c0,0,7.25-3.52,3.65-12.1"/><path class="cls-7" d="M159.21,72.86s-4.29,8,2.84,12.29c0,0,4.54-6.69-2.84-12.29"/><path class="cls-7" d="M149.53,78.05s.26,9.09,8.57,9.2c0,0,.62-8.07-8.57-9.2"/><path class="cls-7" d="M143.72,87.42s4.74,7.72,12,3.63c0,0-3.46-7.28-12-3.63"/><path class="cls-7" d="M143.32,98.43s8,4.29,12.22-2.89c0,0-6.62-4.55-12.22,2.89"/><path class="cls-7" d="M168.68,114.34s4.29-8-2.84-12.29c0,0-4.54,6.68,2.84,12.29"/><path class="cls-7" d="M178.35,109.14s-.26-9.08-8.56-9.2c0,0-.62,8.07,8.56,9.2"/><path class="cls-7" d="M184.17,99.78s-4.74-7.72-12-3.64c0,0,3.46,7.28,12,3.64"/><path class="cls-7" d="M184.56,88.76s-7.94-4.29-12.22,2.9c0,0,6.63,4.55,12.22-2.9"/><path class="cls-7" d="M179.43,79s-9,.29-9.16,8.65c0,0,8,.6,9.16-8.65"/><path class="cls-8" d="M147.08,107.68l.52.25a13.53,13.53,0,0,1,1.65,1l.27.2.16.12c.26.22.52.45.77.69a13.91,13.91,0,0,1,1.43,1.62,11.88,11.88,0,0,1,.76,1.14,35.59,35.59,0,0,0,5.36-2.77,14.83,14.83,0,0,0-4.75-4.67q-.56.21-1.14.39a27.79,27.79,0,0,0-5,2.05"/><path class="cls-9" d="M164.79,91.8A21.94,21.94,0,0,1,151,104.35c-12.71,3.86-17.24,13.74-13.58,22.52,0,0-.94-9.54,10.71-14.08,10.86-4.24,15.77-7.25,16.69-21"/></g></g></g></g></g></svg>