<?xml version="1.0" encoding="utf-8"?>
<!-- Generator: Adobe Illustrator 19.0.0, SVG Export Plug-In . SVG Version: 6.00 Build 0)  -->
<svg version="1.1" id="圖層_1" xmlns="http://www.w3.org/2000/svg" xmlns:xlink="http://www.w3.org/1999/xlink" x="0px" y="0px"
	 viewBox="0 0 200 200" enable-background="new 0 0 200 200" xml:space="preserve">
<g>
	<path d="M151.7,0.7c-6.9-1.5-13.2,0.1-19.7,2.1c-14.8,4.6-29.8,9.2-45.6,5.2c-7.8-2-15.6-4.4-23.4-6.3c-3.8-0.9-7.8-1.9-11.7-1.5
		C29.4,2.3,13.6,24.4,18.6,46c1.8,7.5,4.6,14.7,7.1,22.1c3.5,10.4,6.5,20.9,4,31.8c-2.2,9.5-2.9,18.9-3,28.6
		C26.5,153.3,38,173.8,50,194.2c2.2,3.8,5.9,6.7,10.8,5.5c5.1-1.3,5.7-5.8,6.6-10.1c0.1-0.3,0.1-0.7,0.1-1
		c0.5-7.9,0.9-15.8,1.4-23.7c-0.1,0-0.1,0-0.2,0c0.3-5.5,0.4-11,0.8-16.5c0.8-10.2,2.8-20,7.7-29.2c9.1-17.1,37.2-16.8,44.9,0.8
		c2.9,6.5,5.5,13.5,6.3,20.5c1.5,13,1.5,26.1,2.4,39.2c0.3,4.9,0.9,10,2.2,14.7c1.5,5.5,6,7.3,10.9,4.3c2.8-1.7,5.6-4.3,7.1-7.2
		c5.2-9.7,10.2-19.5,14.6-29.6c8.3-19.3,9.7-39.1,4.3-59.6c-1.5-5.9-1.5-12.8-0.3-18.9c1.6-8.7,5-17.1,7.6-25.7
		c1.7-5.7,4.5-11.4,5-17.2C183.9,20.6,166.8,4,151.7,0.7z M174.6,47.2c-2.7,9.4-6.1,18.6-8.9,28c-3.2,10.4-3.5,20.9-0.4,31.5
		c4.1,14.1,4,28.5-1,42.2c-4.9,13.2-11.2,25.8-17.2,38.6c-1.4,3-3.4,6-7.3,6.8c-3.1-3.1-3-7-3.2-10.7c-0.5-8.6-0.2-17.3-1-25.8
		c-0.9-9.9-2.3-19.8-4-29.6c-0.7-3.8-2.5-7.5-4.4-11c-5.9-10.8-15.1-16.2-27.4-16.2c-12.5,0-21.9,5.4-27.8,16.4
		c-6.1,11.2-7.5,23.5-8.2,36c-0.6,10.1-0.7,20.3-1.3,30.4c-0.2,3.5-1.3,6.9-2,10.3c-0.6,0.2-1.1,0.4-1.7,0.6
		c-1.7-1.5-3.8-2.7-4.9-4.6C43,171.9,33,153.1,31.6,131.4c-0.5-8.3,0.8-16.8,2.5-25c1.8-8.6,2.7-16.9,0.2-25.5
		c-3.5-12-7.2-24.1-10.4-36.2c-3.2-12,1.2-22.1,9.7-30.4c8.1-7.8,17.7-11,28.9-7.4c12.6,4.1,25.3,7.8,38.8,8.6c-5.7,4-12.4,3-19.3,4
		c-0.2,1.3-0.3,2.7-0.5,4c0.9,0.3,1.4,0.6,1.9,0.7c9.9,0.8,19.3-1,27.5-6.9c9.1-6.6,19.8-8.8,30.2-11.5c8.1-2,15.8,1,22.1,6.3
		C174.3,21.4,178.7,33.1,174.6,47.2z"/>
	<path d="M155.4,67.3c3.5-9-0.6-17.1-9.1-21.7c-6.9-3.8-14-4.1-21.5-2c-14.3,4-28.8,4.7-43.5,1.7c-3.9-0.8-7.7-1.9-11.6-2.6
		c-17.6-3.3-30.2,10.2-25.6,27.3c0.4,1.3,0.8,2.6,1.3,3.9c2.7,7.2,2.8,14.4,0.2,21.7c-4.4,12.4-5.8,25.2-4.9,38.2
		c0.7,10.4,2.9,20.4,7.6,29.8c1.3,2.6,2.6,5.5,7.5,4.1c0.3-1.8,1-4.1,1.1-6.3c0.1-8.3-0.6-16.6,0.3-24.8c1-9,2.5-18.1,5.4-26.7
		c4.3-12.6,13.6-20.6,26.9-23c4.5-0.8,9.3-0.9,13.9-0.7c16.3,0.7,27.8,8.9,33.2,24.2c2.8,7.8,4.3,16.3,5.1,24.6
		c0.9,8.9,0.2,17.9,0.4,26.9c0,2.1,0.7,4.1,1.1,6c5.4,0.9,6.3-2.3,7.5-4.9c8.9-19.2,10.3-39.4,4.7-59.5
		C152,91.2,150.7,79.7,155.4,67.3z M150.4,148.6c-0.4,1.7-1.1,3.4-2.3,4.9c-0.4-7.5-0.3-15-1.2-22.4c-0.9-7.1-2-14.4-4.4-21.1
		c-8.3-23.5-26.6-31.7-50.2-29.2c-20,2.2-31.6,14.4-37.1,33.2c-3.4,11.7-4,23.7-3.9,35.8c0,1.2,0,2.3,0,3.5
		c-0.4,0.1-0.7,0.1-1.1,0.2c-3.2-9.1-4.8-18.7-4.1-28.2c0.7-9.2,2.4-18.4,4.7-27.4c2.3-8.8,3-17.2-0.1-25.8c-0.5-1.5-1-2.9-1.5-4.4
		c-3-10,2.1-18.3,12.7-19.7c3.3-0.4,6.9-0.2,10.2,0.7c18.2,4.7,36.4,4.9,54.6,0c5.2-1.4,10.2-1.5,15.2,0.7
		c7.7,3.3,10.6,9.6,8.3,17.6c-1.3,4.6-3.5,9.2-3.7,13.9c-0.2,5.7,0.5,11.7,2.2,17.2C153.6,114.9,154.5,131.6,150.4,148.6z"/>
</g>
</svg>
