<?xml version="1.0" encoding="utf-8"?>
<!-- Generator: Adobe Illustrator 19.0.0, SVG Export Plug-In . SVG Version: 6.00 Build 0)  -->
<svg version="1.1" id="圖層_1" xmlns="http://www.w3.org/2000/svg" xmlns:xlink="http://www.w3.org/1999/xlink" x="0px" y="0px"
	 viewBox="0 0 230 230" enable-background="new 0 0 230 230" xml:space="preserve">
<g id="XMLID_2_">
	<path id="XMLID_3_" d="M211.9,44.8c-0.2-9.5-1.8-18.9-6.4-27.6c-4.1-7.9-10.4-12.8-19.1-13.9c-5.2-0.6-10.6-0.6-15.7,0.3
		c-10,1.8-19.8,4.4-29.7,6.7c-11.4,2.7-22.8,5-34.6,2.5C98.3,11.2,90.1,9.2,82,7.4C72.2,5.3,62.6,2.2,52.4,3
		c-10,0.7-17.9,4.8-22.8,14c-4.3,8.3-6.3,17.2-6.9,26.4c-1.3,20.6,2.3,40.5,9,60c6.8,19.9,17.1,37.7,33.1,51.7c3.7,3.3,8,6,12.4,9.2
		c2-5.1,3.4-9.3,5.3-13.3c1.2-2.7,0.9-4.7-0.5-7.3c-5.5-9.7-6.1-19.7,1.6-28.4c4.5-5.2,6.1-10.5,5.3-16.9c-0.1-1-0.1-2,0-3
		c1-12.3,10.4-18.3,19.1-17.6c6.7,0.6,13.5,0.2,20.2,0.1c7.9,0,14.1,4.7,16.6,12.2c1.1,3.1,2.7,6.3,4.9,8.8
		c7.7,9.1,9.1,19.6,3.2,30.1c-1.8,3.1-1.8,5.5-0.1,8.6c4.2,7.5,5.6,15.3,1.8,23.5c-0.5,1-0.6,2.2-1.1,4.5
		c9.6-4.2,16.9-9.7,22.9-16.6C202.4,119.2,212.8,83.8,211.9,44.8z"/>
	<path id="XMLID_6_" d="M133.4,176.9c-3.1-0.6-4.1-2.1-3.8-5c0.2-1.8,0.2-3.6,0-5.4c-0.4-3,0.7-5.1,3.4-6.3c1-0.5,2-1.1,2.9-1.8
		c6.1-4.3,5.6-12.6-1.4-15.2c-4.5-1.7-5.2-4.2-5.4-8.4c-0.2-5.1,1.3-8.4,6-10.5c3.6-1.7,5.2-4.9,5-8.9c-0.2-3.7-2.6-6.5-5.8-7.1
		c-4.7-1-5.7-3.5-5.1-7.6c0.1-1-0.1-2,0-3c0.2-2.2-0.9-2.9-2.9-2.9c-5.7,0.1-11.5,0.1-17.2,0c-2.9,0-3.6,1.4-3.5,4
		c0.2,4.3-0.2,8.6,0.1,12.8c0.4,4.7-0.6,8.1-5.4,10.2c-3.6,1.6-6.1,4.5-5.5,9c0.6,4.4,3,7,7.3,8.3c1.1,0.3,2.9,1.3,3,2
		c0.3,3.7,0.7,7.7-0.1,11.3c-0.4,1.7-3.1,3.1-5.1,4.2c-3.9,2.2-5.5,5.4-5.1,9.8c0.4,4.3,3.6,5.9,7,7.3c1.2,0.5,3.1,1.1,3.1,1.8
		c0.4,3.6,0.7,7.3,0.1,10.8c-0.3,1.6-2.7,3-4.3,4.2c-3.2,2.2-6.3,4.3-6,8.8c0,4.6,2.2,7.9,6.9,8.8c3.5,0.7,4.4,2.3,3.9,5.3
		c-1.1,5.7,1.3,9.8,5.9,12.9c1.4,0.9,2.6,2.1,3.7,3.2c1.6,1.6,2.7,1.6,4.5,0c6.4-5.5,11.8-11.4,9.6-20.9c-0.1-0.6,0-1.3,0-2
		c-0.7-6.1,0.1-11.2,6.7-14c3.3-1.4,4.7-4.9,4.1-8.8C139.4,180.1,137,177.6,133.4,176.9z"/>
</g>
</svg>
