<svg id="圖層_1" data-name="圖層 1" xmlns="http://www.w3.org/2000/svg" viewBox="0 0 511.37 239.82"><title>微笑</title><path d="M508.69,39.07C467.41,21.48,424.86,8.26,380.24,2.44c-25.19-3.29-50.41-3.77-75.4,1.83-18.25,4.1-34.92,11.59-49.32,24.13A105.4,105.4,0,0,0,222.36,9.06c-27.58-9.9-56-10.5-84.69-7.38C89.69,6.89,44.15,21.06,0,40.08v2a12.64,12.64,0,0,1,.91,1.7C6.66,59.85,11.16,76.51,18.36,91.91c28.4,60.8,72.73,105.6,136.1,129.66,52.81,20.05,107.2,23,162.38,11.66,40.43-8.32,76.86-25.25,108.51-52,35.52-30,60.19-67.53,76.46-110.78,3.71-9.85,6.41-20.08,9.56-30.06C509.87,39.66,509.3,39.32,508.69,39.07Zm-378.94-15c21.68-2.95,43.32-4,65.05-.26,19.51,3.32,36.84,10.88,51.24,24.7,2.87,2.76,5.94,5.31,9.24,8.24a27.58,27.58,0,0,0,3.46-2.69c25.77-27.34,58.79-33.94,94.36-32.55,34.27,1.34,67.4,9,99.93,19.46.71.24,1.38.61,3.25,1.44-15.73,3.37-30.18,6.75-44.75,9.51C372.38,59.34,333.16,66.39,294,73.75c-28.91,5.43-57.62,3.25-86.2-2.17C158.37,62.2,109,52.53,59.61,43c-1-.19-1.86-.57-4.08-1.26C80.6,33.62,104.85,27.47,129.75,24.08ZM436.26,88.25a4,4,0,0,1-1.84,2.62c-9.3,5.74-18.66,11.38-28,17-.36.22-.92.11-1.66.19V75.24l31.62-6.66C436.35,75.49,436.42,81.87,436.26,88.25Zm-53.11,30.17a3.53,3.53,0,0,1-1.82,2.53c-13.17,5.81-26.4,11.51-40.72,17.71,0-17.22-.05-32.84.11-48.46a4,4,0,0,1,2.39-3c13.17-2.64,26.38-5.06,40.12-7.64C383.23,92.86,383.27,105.64,383.15,118.42Zm-64-26.76v53.67L266.6,154V98.58Zm-74.68,6.62v54.61c-17.84-.6-35.15-3.87-52.61-8.42V90.9ZM170.21,86.86v51.72c-14-6.07-27.11-11.68-40.11-17.41a4.07,4.07,0,0,1-2.23-2.76c-.15-13.08-.1-26.15-.1-39.67ZM74.6,67.92c10.15,2.1,19.57,4,28.91,6.13a4.73,4.73,0,0,1,2.87,3.45c.23,10.11.13,20.22.13,31.07a46,46,0,0,1-4.28-1.95C94.14,101.74,86.14,96.71,78,91.94a6.25,6.25,0,0,1-3.45-6.41C74.76,79.92,74.6,74.3,74.6,67.92Zm-40.9-8.7,19.07,4.07V74.6L33.32,60Zm419.13,60c-37.49,54.22-89.24,85.61-154.16,95.64-51.29,7.91-101.15,2.87-148.78-18.22-46.55-20.6-80.64-54.81-105-99.1-.36-.66-.6-1.37-1.45-3.36l8,5.54c37.83,26,77.81,47.77,121.81,61.52,36.25,11.34,73.18,16.36,111.16,11.67,34.1-4.21,66.41-14.45,97.56-28.64a505.82,505.82,0,0,0,79.73-46,12,12,0,0,1,5.77-2.44C462.58,103.64,458.05,111.67,452.83,119.22Zm6.07-45.09c-2.77-8.17-1.78-10.07,6-11.78,3.7-.82,7.42-1.55,11.12-2.32.13.31.26.63.38.95Z"/></svg>