<svg id="圖層_1" data-name="圖層 1" xmlns="http://www.w3.org/2000/svg" viewBox="0 0 409.1 488.02"><defs><style>.cls-1{stroke:#000;stroke-miterlimit:10;}</style></defs><title>美白</title><path class="cls-1" d="M354,118.09l54.18-11a5,5,0,0,0-3.05-1.87Q377.05,99.55,348.94,94c-3.55-.7-6.19-1.88-8.18-5.42a75.68,75.68,0,0,0-21.43-24,11.4,11.4,0,0,1-4.81-7.64c-2.35-12.23-4.81-24.45-7.28-36.66-1.32-6.57-2.73-13.14-4.11-19.7l-1,0Q297.08,25.3,292,50.06a11.49,11.49,0,0,1-2.41,0,104.44,104.44,0,0,0-45-1.71c-17.33,3-33.21,8.94-46.48,21.18-4.54,4.18-10.57,6.74-15.93,10-2.32,1.42-4.57,1.18-7,.13-7-2.94-12.93-7.34-18.75-12.13a79,79,0,0,0-15.25-10.21A104.67,104.67,0,0,0,83,47.24C54.88,50.26,32.55,63,17.28,87.12,1.6,111.89-2.22,139,2.23,167.61a219.29,219.29,0,0,0,13.23,46.91c7.35,18.53,15,36.94,22.16,55.55,5.51,14.32,9.4,29,9.23,44.62-.13,12.13.38,24.28,1.1,36.39,1.26,21.4,3,42.76,6.65,63.93,2.67,15.74,5.9,31.35,12,46.19,2.73,6.63,6,12.95,11,18.3,9.13,9.87,23.59,13.13,31.06-4.9a103.44,103.44,0,0,0,7-24.33c3.8-26,6.78-52,10.16-78.06,2.16-16.64,4.5-33.26,9.19-49.42,2.42-8.31,5.4-16.42,10.85-23.37A17.27,17.27,0,0,1,160,292.34q18.72-.06,37.43,0a17.09,17.09,0,0,1,13.82,6.77c4.16,5.12,6.84,11,9,17.14,6.79,19.61,9.27,40.09,11.94,60.5,2.89,22.07,5.11,44.23,8.3,66.25,1.39,9.64,4.07,19.15,6.91,28.49a34,34,0,0,0,6.76,11.45c3.57,4.24,8.51,5.49,14,3.92,6.07-1.72,10.52-5.53,14.18-10.44,5-6.74,8.35-14.35,11-22.24,7.1-20.9,10.4-42.59,12.82-64.39a664.42,664.42,0,0,0,4.17-75.16,89.72,89.72,0,0,1,4.54-29.93c5.23-15.05,10.92-30,16.86-44.75,8-19.89,16.32-39.65,21-60.66,2.91-13,4.86-26.15,3.67-39.54C355.8,132.68,354.86,125.64,354,118.09ZM331.69,89.83a4.56,4.56,0,0,1-1.26.27C321,88.65,321,88.65,319.16,79.27c-.26-1.28-.53-2.56-.83-4C322.46,77.28,328,83.33,331.69,89.83Zm8.67,103.7c-7.08,20.21-15.26,40-23.07,60-5.58,14.24-11.2,28.46-13.65,43.66a103.05,103.05,0,0,0-1.36,12.37c-.51,14.29-.43,28.61-1.29,42.88-1.76,29.37-4.46,58.67-12,87.24a176.39,176.39,0,0,1-9,25.27A33.65,33.65,0,0,1,271.74,476c-6.21,5.62-11.85,4.59-15-3.13a102.24,102.24,0,0,1-6.87-23.31c-3.24-21-5.67-42.13-8.34-63.22-2.73-21.58-5-43.25-10.88-64.29-2.57-9.14-5.8-18-11.31-25.91-5.33-7.63-12.43-11.87-21.8-11.92q-19-.1-37.92,0c-9,.07-15.91,4-21.14,11.27-5.85,8.09-9.23,17.28-11.86,26.75a290.85,290.85,0,0,0-8.17,43.53c-2.2,18.31-4.56,36.6-6.64,54.91-1.62,14.21-3.5,28.37-7.33,42.17a54.12,54.12,0,0,1-4.6,11.52c-3,5.51-7.32,6.59-12.47,2.92a32.41,32.41,0,0,1-8.08-8.63c-5.11-7.88-7.89-16.83-10.31-25.82C63.71,423.2,60.84,403.16,58.75,383c-2.6-25.16-3.59-50.39-4-75.66-.17-11.05-2.93-21.76-6.8-32.05-6.26-16.63-12.91-33.11-19.51-49.62C21.56,208.36,15,191,11.41,172.62c-4.58-23.71-3.89-47,6.34-69.31,13-28.34,34.81-44.52,66-47.95,16.73-1.85,32.79.72,48.39,6.66A58.92,58.92,0,0,1,152,74.2a65,65,0,0,0,23.76,14.27,8.57,8.57,0,0,0,5.17.23c8.09-2.75,15.77-6.51,22-12.45,10.7-10.27,23.62-15.82,37.8-19a96.17,96.17,0,0,1,45.9.38c1.1.28,2.14.78,3.65,1.34-1.8,9.13-3.57,17.74-5.16,26.38-.51,2.77-2.46,3.3-4.61,3.74q-15.37,3.1-30.77,6.15-25.16,5-50.31,10.11a3.26,3.26,0,0,0-2.15,1.71c4.9,1,9.78,2.15,14.7,3.14,22.3,4.47,44.62,8.85,66.91,13.4,6,1.22,5.49.72,6.59,6.26,5.14,26.06,10.46,52.09,15.73,78.13a8.65,8.65,0,0,0,2.08,4.3c5.85-29,11.71-57.95,17.68-87.5l24.73-5c.88,5.79,1.9,10.81,2.39,15.87C349.94,155.53,346.89,174.9,340.36,193.53Zm2.13-81.42c-8.13,1.65-16.23,3.48-24.41,4.83-3.23.53-4.43,2-5,5-3.29,16.94-6.73,33.84-10.12,50.75l-.58,0q-4-19.74-8-39.48c-.75-3.75-1.52-7.48-2.18-11.24-.5-2.89-1.7-4.43-5-5-16.62-3.14-33.17-6.63-49.9-10.9l53.89-11,11.1-54.59.64,0q4,19.95,8.06,39.9c.72,3.58,1.53,7.15,2.08,10.75.43,2.83,1.7,4.19,4.68,4.76,16,3.07,31.89,6.38,47.83,9.61a3.68,3.68,0,0,1,2.28,1.37Q355.21,109.5,342.49,112.11Z"/><path class="cls-1" d="M221,174.94c-3.84-18.92-7.58-37.37-11.33-55.82l-1.08.08q-5.67,27.9-11.34,55.78l-55.69,11.3,0,1.14,55.69,11.3c3.78,18.66,7.53,37.12,11.27,55.59l1.14.07c3.78-18.59,7.57-37.17,11.32-55.61,18.83-4.16,37.33-7.27,55.57-11.49l-.12-1.05Zm-2.53,15.91c-3.35.54-4.8,2-5.33,5.32a139.81,139.81,0,0,1-4.28,18.48c-1.35-6.52-2.85-13-4-19.57-.46-2.62-1.71-3.62-4.15-4.06-6.34-1.17-12.65-2.52-19-3.8l0-.73c6.49-1.36,13-2.79,19.48-4a3.79,3.79,0,0,0,3.5-3.48,191.35,191.35,0,0,1,4.65-19.59c1,4.57,2,9.12,2.87,13.71,1.66,8.63,1.62,8.64,10.51,10.5l15.36,3.2C230.81,188.34,224.66,189.84,218.44,190.85Z"/></svg>