<svg id="圖層_1" data-name="圖層 1" xmlns="http://www.w3.org/2000/svg" viewBox="0 0 500.96 221.06"><title>隱形矯正</title><path d="M493.09,37C485.18,19.4,472.33,7.78,453.21,3.27,436.94-.56,420.52-.52,404.11.82A334.65,334.65,0,0,0,347.31,11a459.44,459.44,0,0,0-65.53,22c-9.58,4.1-19.47,6.8-29.88,7a76.77,76.77,0,0,1-31.47-6.5,453.48,453.48,0,0,0-100-29.59A243.58,243.58,0,0,0,76.78.09,127.47,127.47,0,0,0,47.14,3.43C32.65,7.06,21.11,14.71,13,27.49,4.52,40.93.57,55.68.06,71.38a116.87,116.87,0,0,0,13.66,58.53,20,20,0,0,1,2.43,10,205.06,205.06,0,0,0,2.78,35.23c1.09,7,4.81,11.86,11,15A48.7,48.7,0,0,0,36.25,193c15.92,5.43,32.1,8.3,48.75,4.31,10.84,8.48,23.58,11.25,36.68,13.08s26.41,2.57,39.39-1.66a25.49,25.49,0,0,0,16.45,9.08c19.61,3,39.3,4.32,59.11,2.27a26.27,26.27,0,0,0,10.73-3.7c1.12-.66,2.21-1.35,3.21-2,5.88,3.83,9,5.21,13.43,5.61,4.8.43,9.61.76,14.42.94a223.63,223.63,0,0,0,37.3-2c8.9-1.17,18-2,23.87-10.06,3.93.81,7.45,1.81,11,2.23,14.88,1.78,29.49-.1,43.93-3.72,7.81-2,15.14-4.93,20.74-9.65,6.23.52,11.32,1.2,16.42,1.28a83.2,83.2,0,0,0,12.4-.95,81.91,81.91,0,0,0,26.2-7.53c6.69-3.33,10.71-8.4,11.83-16.07a224.11,224.11,0,0,0,2.68-35.74,15,15,0,0,1,1.83-7.59,121.61,121.61,0,0,0,13.65-44.46C502.15,69.46,500.22,52.85,493.09,37ZM32.15,177.14c-2.26-4.52-2.57-9.74-3-14.81-.66-8.11-1.08-16.26-.95-24.39.12-7.27.39-14.61,2.52-21.7,2.61-8.68,8.75-12.54,17.76-11.34,12.91,1.71,27.06,12.15,31,29.34a22.73,22.73,0,0,1,0,6.94,190,190,0,0,0,.11,38.3c.21,2,.26,4,.41,6.14C70.58,189.91,39.63,184.55,32.15,177.14Zm60.58,10.6c-.54-3.73-1.55-8.11-1.76-12.53-.79-16.94-.41-33.86,2.85-50.58a97.56,97.56,0,0,1,2.63-9.57c1.81-5.94,6.21-8.92,12-9.74,19.81-2.78,42.34,10.87,46.52,30.54a35.38,35.38,0,0,1,.74,7.88c-.13,8.3-.72,16.6-.66,24.89.07,9.45.65,18.89,1,28.67C140.86,203.24,104.17,197.94,92.73,187.74Zm151.59,6c-.18,3.93-1.08,7.82-1.57,11.24a14.7,14.7,0,0,1-8.84,3.36c-18.3,1.7-36.47.43-54.57-2.36-7.15-1.11-11.06-5.09-11.42-12.27-1-19.74-1.59-39.49.84-59.18a85,85,0,0,1,1.61-9.81c2.93-12,12.58-19.39,24.88-19.68a44.86,44.86,0,0,1,44.63,35.28A212.67,212.67,0,0,1,244.32,193.71Zm89.06-9c-.11,3.16-.1,6.33-.45,9.47-.79,7.06-4.33,10.65-11.4,11.77a234.78,234.78,0,0,1-46.7,2.95,84.33,84.33,0,0,1-9.93-.83c-2.07-.32-4-1.32-6.54-2.2-.64-4-1.52-7.37-1.7-10.82a200,200,0,0,1,4.66-55.95A44.53,44.53,0,0,1,309,105.16c11.86,1.21,20.57,10.82,22.41,23.8C334,147.49,334,166.07,333.38,184.69ZM410.09,173c-.2,5.11-.55,10.27-2.28,15.22-3.8,3.75-8.24,5.35-12.67,6.6-14.31,4-28.84,6.34-43.76,4.32-2.11-.29-4.19-.83-6.51-1.3a32.41,32.41,0,0,1-.34-3.53c.21-15.93.94-31.87.55-47.79-.43-17.42,7.92-28.93,22.53-36.71a40.91,40.91,0,0,1,23.1-4.66c7.19.62,12.44,3.88,14.19,11.1A217.39,217.39,0,0,1,409,137.64C410.63,149.35,410.54,161.17,410.09,173Zm60.7-2.71a54.33,54.33,0,0,1-1.7,6.61c-7.9,7.84-39.28,13-48.08,8.79.1-1.92.08-4,.31-6.15a178.87,178.87,0,0,0,.06-38.29c-1.08-10.29,3.49-18.43,10.22-25.47a34.4,34.4,0,0,1,21.31-10.84c8.75-1,15.15,2.82,17.17,11.4a111.46,111.46,0,0,1,2.62,19.18A178.33,178.33,0,0,1,470.79,170.24ZM483.6,107.7c-.42,1.38-1.07,2.7-1.68,4.22-.43-.47-.71-.64-.78-.87C476.73,97,462.49,89.78,446.56,93.76a48.88,48.88,0,0,0-26.19,16.35c-.94,1.12-1.91,2.21-3.23,3.73-.7-1.52-1.28-2.62-1.72-3.78-4-10.51-12.13-15.72-22.79-16.69-19.82-1.81-36.06,5.52-48.92,20.57-.65.76-1.23,1.57-1.89,2.32a4.8,4.8,0,0,1-1.09.67c-.62-1.32-1.16-2.65-1.85-3.89C332,100.56,321.45,93.75,307.14,93.1A56.4,56.4,0,0,0,252,129c-.29.77-.65,1.51-1.34,3.1-.88-1.8-1.52-3-2.06-4.22-7.45-17.09-20.14-28.24-38.15-33-9.26-2.45-18.71-3-28,.4a35.65,35.65,0,0,0-21,19.37c-.34.75-.75,1.47-1.33,2.57l-2.94-3.39C145,99.7,129.8,92.41,111.11,93.16c-12.59.51-21.9,6-26.21,18.49-.2.57-.5,1.12-1,2.21l-3.78-4.27C72,100.44,62.06,94.62,49.79,93c-13.67-1.79-24.6,4.53-29.74,17.27-.19.45-.34.92-.73,2-.7-1.62-1.29-2.72-1.67-3.9C11.44,89,9.78,69.4,16,49.63A76.49,76.49,0,0,1,20.21,39c6.66-13.66,17.64-21.6,32.48-24.6,10.18-2.05,20.44-2.43,30.76-2.2,24.57.55,48.48,5.3,72.13,11.53A428.23,428.23,0,0,1,214.39,44c10.47,4.46,21.29,7.5,32.72,8a81.29,81.29,0,0,0,31.77-5c14.95-5.5,29.71-11.52,44.78-16.66a366.08,366.08,0,0,1,72.2-16.56,188.72,188.72,0,0,1,39.82-1.07A110.66,110.66,0,0,1,453.76,16c11,2.81,19.15,9.57,24.93,19.31A72.81,72.81,0,0,1,487.9,62C490.26,77.55,488.18,92.75,483.6,107.7Z"/></svg>