<svg id="圖層_1" data-name="圖層 1" xmlns="http://www.w3.org/2000/svg" viewBox="0 0 480.89 140.16"><title>隱形矯正</title><path d="M479.69,36A72,72,0,0,0,476,20.57,31.26,31.26,0,0,0,446.84.11a50.32,50.32,0,0,0-33.1,11.73c-1.66,1.35-3.27,2.76-5,4.26-5.39-8.73-13.33-13.35-22.92-14.76-17.47-2.58-33.27,1.78-47.15,12.75-2.16,1.71-4.06,3.76-6.24,5.8-.87-1-1.62-1.9-2.33-2.79C321.32,6.17,309.86.32,296,.32c-21.68,0-39.12,9-52.29,26.26-1,1.27-1.95,2.54-3.18,4.13-1.09-1.36-1.91-2.34-2.69-3.36-.91-1.18-1.71-2.46-2.68-3.59-11-12.91-24.8-20.66-41.76-23-13.81-1.88-26.06,1.25-36.67,10.27-3,2.55-5.48,5.69-8.45,8.83-1.62-1.67-3.09-3.45-4.81-4.92A59.17,59.17,0,0,0,108,.78C93.61-.19,81,3.13,72.17,16c-.84-.68-1.65-1.25-2.36-1.91A52.65,52.65,0,0,0,42,.56C23-2.63,8,8.26,4,23.43A120.81,120.81,0,0,0,1,38.05c-1.7,12.26-1,24.56.1,36.82.53,5.77,1.71,11.48,2.63,17.22a20.3,20.3,0,0,0,9.79,14.39A60.54,60.54,0,0,0,27,112.92c15.17,4.79,30.65,7.3,45.8,4.39,24.52,13.4,50,15.62,76.86,12a32.57,32.57,0,0,0,16,7.52c17.1,3,34.33,3.67,51.65,3.17,8-.23,15.92-.95,23.11-4.93a38.87,38.87,0,0,0,17.32,4.65c11.47.11,23,.39,34.4-.14,8.27-.39,16.5-1.82,24.71-3.07,5.85-.9,10.8-4,15.16-7.6,13.16,3.11,26.1,2.49,39,.64,13-1.88,25.76-5,36.08-12.11,5.51.42,10.15,1.19,14.76,1a116.57,116.57,0,0,0,26.58-3.76c6.6-1.76,13-4,18.71-7.93,5.27-3.62,8.9-8.29,10.16-14.76A178.4,178.4,0,0,0,479.69,36ZM466.21,87.1c-.92,5.73-4,9.3-8.92,11.69-8.32,4-17.22,6-26.33,7.06-5.93.68-11.89,1.25-17.88.13-3.15-.59-6.15-1.33-8.67-4-2.47,5.31-7.1,7.86-12.1,9.85-12.19,4.86-25,6.77-38,7.05a132.08,132.08,0,0,1-15.39-.87A16.55,16.55,0,0,1,328,113c-3,8-8.81,11.57-16.67,12.36-2.48.25-4.93.76-7.39,1.09-15.73,2.08-31.51,2.06-47.3,1.2a33.2,33.2,0,0,1-6.78-1.54,10.65,10.65,0,0,1-6.68-4.84,20.67,20.67,0,0,0-2.48-2.78c-1,.92-2.1,1.51-2.6,2.41-1.76,3.17-4.64,4.73-7.92,5.56a33.36,33.36,0,0,1-7.83,1.29c-11,.12-22,.38-32.91-.12a198,198,0,0,1-23.22-2.91c-6.4-1.07-10.63-5.14-13.06-11.49-6,5-13.24,5.57-20.58,5.74a120.19,120.19,0,0,1-38.35-5.13,57.84,57.84,0,0,1-8.34-3.25c-3.76-1.82-7.33-4-9-8.53-5.11,4.42-11.14,4.56-17,4.46a93.68,93.68,0,0,1-31.23-5.61l-1.4-.52c-7.53-2.65-12-7.41-13-15.82-2-17.24-3.3-34.41-.36-51.65.22-1.3.57-2.59.86-3.88,2.95-13.23,13.78-19,26.41-16.51,14.51,2.84,24.68,11.61,31.17,24.79.78,1.58,1.66,3.11,2.46,4.58,2.7-.46,2.55-2.34,3-3.87,1-3.84,2-7.7,3.1-11.52,2.4-8.16,8.47-12.11,16.37-13.38,13.32-2.15,25.35,1.42,36.24,9.1a31.7,31.7,0,0,1,10.2,12.7c1.85,3.89,3.34,8,5,11.92.61,1.44,1.34,2.84,2.4,5.07.94-1.67,1.64-2.4,1.76-3.22.48-3.12.58-6.3,1.17-9.39,3.35-17.41,15.7-27.86,33.5-27,21,1,36.5,11.23,45.32,30.59,1.83,4,2.49,8.57,3.64,12.89a38,38,0,0,0,1.11,4.85,12.85,12.85,0,0,0,2.25,3c2.62-.4,3.44-1.62,3.77-3.47.5-2.78,1.25-5.51,1.77-8.28C249.56,29.65,268.87,16,286.09,13a40.93,40.93,0,0,1,18.26.58c13.3,3.67,21.75,14.29,23,28.75.25,2.89.18,5.87,1.89,9.31a17.07,17.07,0,0,0,2.31-3c1.23-2.9,2.27-5.88,3.42-8.81,6.26-16,18.59-24.05,35-26.78a37.91,37.91,0,0,1,16.78.78C393.27,15.69,398,19.49,400,26.12c1.2,4,2.16,8,3.26,12,.34,1.24.82,2.44,1.23,3.65,2.82,0,3.07-2,3.77-3.61a44.64,44.64,0,0,1,17.37-20c6-3.77,12.49-6.13,19.72-6,10.34.13,18,5.59,20.47,15.61a106.25,106.25,0,0,1,2.84,19.68A189.11,189.11,0,0,1,466.21,87.1Z"/></svg>