<svg xmlns="http://www.w3.org/2000/svg" viewBox="0 0 120 125.94"><defs><style>.cls-1{fill:#efe5da;}.cls-2,.cls-4{fill:none;}.cls-2{stroke:#1e3356;stroke-linecap:round;stroke-linejoin:round;}.cls-3{fill:#4d4d4d;}</style></defs><g id="圖層_2" data-name="圖層 2"><g id="圖層_2-2" data-name="圖層 2"><circle class="cls-1" cx="60" cy="73.36" r="46.42"/><path class="cls-2" d="M69.69,86.77a31.08,31.08,0,0,0-1.94,6.14c-.72,3.8-5.24,3.08-6.15,0s.51-12.16-5.53-12.16"/><path class="cls-2" d="M76.32,73.65a26.17,26.17,0,0,1-3.65,7.6,21.48,21.48,0,0,0-1.4,2.25"/><path class="cls-2" d="M35.41,63.86c.85-3.7,3.07-9.31,8.78-10.13,3.93-1.11,6.93,1.9,11.51,1.83h.73c4.58.07,7.59-2.94,11.51-1.83a8.82,8.82,0,0,1,2.35.68"/><path class="cls-2" d="M34.9,67.14A23.27,23.27,0,0,0,38,79l2.84,4.55a35.13,35.13,0,0,1,3.52,9.41c.72,3.8,5.23,3.08,6.15,0S50,80.75,56.07,80.75"/><circle class="cls-2" cx="79.19" cy="58.42" r="2.77"/><circle class="cls-2" cx="79.19" cy="58.42" r="5.92"/><path class="cls-2" d="M77.31,70.65H81a1,1,0,0,1,1,1V93a2.48,2.48,0,0,1-2.48,2.48h-.59A2.48,2.48,0,0,1,76.42,93V71.54A.89.89,0,0,1,77.31,70.65Z"/><line class="cls-2" x1="79.19" y1="64.34" x2="79.19" y2="70.65"/><path class="cls-3" d="M37.09,16l-3.55,1.92,3.36,6.2a1.13,1.13,0,0,1,.13.84,1.54,1.54,0,0,1-.71.75c-.4.25-.89.53-1.48.85l-.9.47-.51-.44c.43-.2.87-.43,1.32-.66a8.66,8.66,0,0,0,1.56-1,.49.49,0,0,0,0-.57L33,18.17a15.25,15.25,0,0,1-4.53,10.3l-.62-.3a14.85,14.85,0,0,0,3.22-4.53,13.75,13.75,0,0,0,1.31-5.13l-6.12,3.3-1.66-4.49-1.15.62-.28-.53,10.66-5.76.29.53-2.81,1.51,2,3.66,3.55-1.92Zm-4.39,1.7-2-3.65-5.59,3L26.59,21Z"/><path class="cls-3" d="M56.67,18.8a1,1,0,0,1-.14.79,1.42,1.42,0,0,1-.91.5c-.46.11-1.08.23-1.86.37l-.29-.64,1.29-.2.75-.15c.4-.09.57-.3.52-.62L55,12.71,44.72,14.5a17.83,17.83,0,0,1-.12,7.62L44,21.83a17.38,17.38,0,0,0,.05-7.56l-1-5.72,11.48-2ZM49,10.35,48.6,8.24l-4.8.83.37,2.11Zm.47,2.72-.37-2.14-4.8.83.37,2.14ZM54,18.25l-6.48,1.12-.63-3.64,6.48-1.12Zm-.73-.49-.42-2.43-5.22.91L48,18.66ZM54.39,9.4,54,7.3l-4.79.83.37,2.11Zm.47,2.73L54.49,10l-4.79.83L50.07,13Z"/><path class="cls-3" d="M65.31,15.13a28.89,28.89,0,0,1-3.72,4.76l-.48-.52a25.83,25.83,0,0,0,3.73-4.74Zm.34-2.49-.53.49a20,20,0,0,0-2.65-2.66l.49-.41A23,23,0,0,1,65.65,12.64Zm1-3.92-.55.4a17.46,17.46,0,0,0-2.32-2.59l.51-.38A19.44,19.44,0,0,1,66.68,8.72Zm7,12.86-.63-.1.15-1-6.55-1-.15,1-.64-.09.89-6,7.82,1.16Zm2.23-7.19-.64.27c-.29-.79-.52-1.38-.69-1.79q-3.61.06-7.92-.13l-.13-.47A12.91,12.91,0,0,0,70.73,7l.6.37a14.84,14.84,0,0,1-3.65,4.73q3.18.18,6.66.14a30.83,30.83,0,0,0-1.56-3.22l.58-.27A36.66,36.66,0,0,1,75.92,14.39ZM73.3,19.87l.55-3.75-6.55-1-.55,3.75Z"/><path class="cls-3" d="M95.79,18.39l-9.8-5-2.2,4.34A12.53,12.53,0,0,1,81.54,21a8.65,8.65,0,0,1-3,1.89l-.28-.66a8,8,0,0,0,4.6-4.16,23.67,23.67,0,0,1-2.55.28l0-.62a16.09,16.09,0,0,0,2.94-.32l2.45-4.82,4.86,2.47a4.75,4.75,0,0,0-.06-1.31h.65a5.49,5.49,0,0,1,0,1.61l4.89,2.49ZM84.74,23.54a9.08,9.08,0,0,1-3.48.43l-.08-.59A9.36,9.36,0,0,0,84.51,23ZM83.3,15.71l-.63.07A16.88,16.88,0,0,0,83,12.86l.62-.08A16.75,16.75,0,0,1,83.3,15.71Zm10,7.5-.56.27A16.21,16.21,0,0,1,91.72,22l-1.53,3-2.72-1.38-1.11,2.18a.94.94,0,0,1-1.41.47l-1.18-.61.07-.63c.42.25.74.43,1,.55a1.42,1.42,0,0,0,.66.23.36.36,0,0,0,.27-.23l1.14-2.25L84.14,22l1.51-3a9.34,9.34,0,0,1-1.63.14l-.17-.6a16.51,16.51,0,0,0,2.26-.24,13.32,13.32,0,0,0-.65-1.79l.53-.16a11.11,11.11,0,0,1,.69,1.82,7.9,7.9,0,0,0,2.3-1l-2.92-1.49.26-.51,3.19,1.63a5.4,5.4,0,0,0,.76-.72l.5.35a4.65,4.65,0,0,1-.66.67l4.72,2.4-.25.51-3.53-1.79a6,6,0,0,0,.55,2.31,11.39,11.39,0,0,0,2-.41l.19.54a13.21,13.21,0,0,1-1.93.39A12.91,12.91,0,0,0,93.34,23.21Zm-3.46,1L90.5,23l-4.9-2.49L85,21.74Zm.88-1.75.55-1.06L86.4,18.94,85.86,20ZM91,20.62A6.11,6.11,0,0,1,90.48,18l-.89-.45a8.31,8.31,0,0,1-2.45,1.15Zm-.43,7.7-.59.23a15.66,15.66,0,0,0-1.9-3l.52-.31A17,17,0,0,1,90.57,28.32Z"/><rect class="cls-4" width="120" height="125.94"/></g></g></svg>