<svg xmlns="http://www.w3.org/2000/svg" viewBox="0 0 120 125.94"><defs><style>.cls-1{fill:#efe5da;}.cls-2,.cls-3,.cls-5{fill:none;}.cls-2,.cls-3{stroke:#1e3356;stroke-linejoin:round;}.cls-3{stroke-linecap:round;}.cls-4{fill:#4d4d4d;}</style></defs><g id="圖層_2" data-name="圖層 2"><g id="圖層_2-2" data-name="圖層 2"><circle class="cls-1" cx="60" cy="73.41" r="46.42"/><path class="cls-2" d="M43.4,76.79a8.82,8.82,0,0,1-4.27,4.31,8.09,8.09,0,0,1,4.27,4.71s2.06-4.31,4.27-4.51C47.67,81.3,44.43,79.68,43.4,76.79Z"/><path class="cls-2" d="M68.12,57.9a6.66,6.66,0,0,1-3.24,3.28,6.14,6.14,0,0,1,3.24,3.59s1.57-3.29,3.25-3.44A7.23,7.23,0,0,1,68.12,57.9Z"/><path class="cls-2" d="M76.87,51a9.17,9.17,0,0,1-4.43,4.48,8.35,8.35,0,0,1,4.43,4.89S79,55.92,81.3,55.72C81.3,55.72,77.94,54,76.87,51Z"/><path class="cls-3" d="M73.62,86.82A32.24,32.24,0,0,0,71.68,93C71,96.75,66.45,96,65.53,93S66.05,80.79,60,80.79"/><path class="cls-3" d="M78.29,58.05a20.91,20.91,0,0,1,2.87,9.14A24,24,0,0,1,76.6,81.3a21.48,21.48,0,0,0-1.4,2.25"/><path class="cls-3" d="M39.34,63.91c.85-3.7,3.07-9.31,8.78-10.13,3.93-1.11,6.94,1.9,11.52,1.83h.72c4.58.07,7.59-2.94,11.52-1.83a8.93,8.93,0,0,1,2.35.67"/><path class="cls-2" d="M42,79a23.19,23.19,0,0,1-3.12-11.81"/><path class="cls-2" d="M60,80.79c-6,0-4.62,9.1-5.53,12.17S49,96.75,48.32,93a34.67,34.67,0,0,0-3.52-9.41"/><path class="cls-4" d="M24.64,18.87l-.16.65A13.38,13.38,0,0,0,21,19l.11-.58A18,18,0,0,1,24.64,18.87Zm1.6,3.73-.1.66a16.75,16.75,0,0,0-3.48-.46l.09-.58A20.56,20.56,0,0,1,26.24,22.6ZM37.71,21a14.59,14.59,0,0,1,.64,1.33,2.75,2.75,0,0,1,.36,1.24,1.18,1.18,0,0,1-.2.48,6.34,6.34,0,0,1-1.33.88,7,7,0,0,1-1.16.59.9.9,0,0,1-.53,0A1,1,0,0,1,35,25l-2.8-4.83-2,1.16a8,8,0,0,1,1.4,4.4,7.32,7.32,0,0,1-1.36,3.5l-.65-.12A6.7,6.7,0,0,0,31,25.64,7,7,0,0,0,29.8,22l-.19-.31-2.4,1.39-.3-.52,4.2-2.43-1.56-2.69L26.87,19a11.52,11.52,0,0,1-.39,2.73l-.59-.11a11.25,11.25,0,0,0,.07-5.5l.63-.12a13.44,13.44,0,0,1,.28,2.29l2.38-1.38-1.37-2.36.55-.32,1.37,2.36,3.57-2.06.31.52-3.57,2.07,1.55,2.68,3.89-2.25.3.53-3.12,1.81,2.83,4.89a.31.31,0,0,0,.28.18,4.24,4.24,0,0,0,1.06-.51A5,5,0,0,0,38,23.67c.06-.1,0-.31-.08-.64a17.28,17.28,0,0,0-1-1.91Zm-9.62,3.5a25,25,0,0,1-.29,6.17l-.64-.08a22.27,22.27,0,0,0,.26-6.16Z"/><path class="cls-4" d="M54.53,11.88l-4,.81L52,19.6a1.07,1.07,0,0,1-.12.84A1.52,1.52,0,0,1,51,21c-.46.12-1,.25-1.66.38l-1,.19L48,21c.47-.07,1-.15,1.45-.25a8,8,0,0,0,1.78-.48.47.47,0,0,0,.16-.54L50,12.82a15.32,15.32,0,0,1-7.32,8.55l-.5-.47a14.94,14.94,0,0,0,4.39-3.4A13.89,13.89,0,0,0,49.26,13l-6.82,1.4-.29-4.78-1.27.26-.12-.59L52.63,6.82l.12.59-3.12.64.83,4.06,3.95-.81Zm-4.7.36L49,8.17,42.78,9.45,43,13.63Z"/><path class="cls-4" d="M63,14.74A31.28,31.28,0,0,1,59.86,20l-.49-.5a33.72,33.72,0,0,0,3.16-5.2Zm.24-2.31-.5.51a20.89,20.89,0,0,0-2.28-2.43l.47-.43A21.62,21.62,0,0,1,63.25,12.43Zm.6-3.81L63.3,9a20.12,20.12,0,0,0-1.89-2.55l.5-.38A26.88,26.88,0,0,1,63.85,8.62ZM66.09,18a13.06,13.06,0,0,1-3.37,1.7l-.34-.55a11.8,11.8,0,0,0,3.3-1.64Zm7.36.12-.6.34c-.18-.33-.45-.78-.81-1.34-1.21,0-2.37,0-3.49-.06l-.33,2.85a1,1,0,0,1-.29.58.93.93,0,0,1-.77.19l-1.57-.18-.14-.61,1.07.15a3.2,3.2,0,0,0,.88,0,.32.32,0,0,0,.19-.3l.33-2.74c-1.65-.07-3.14-.15-4.47-.25l-.11-.58q2.72-.63,4.92-1.37c-1.21,0-2.61-.07-4.18-.16L64,14.21a26.81,26.81,0,0,0,4.29-1.54l.47.43a20.56,20.56,0,0,1-3.47,1.17c2.18.09,3.57.14,4.16.14a8,8,0,0,0,1.75-.73l.52.43a30,30,0,0,1-7.08,2.24q3.15.22,7.06.27l-.8-1.16.56-.29A28.1,28.1,0,0,1,73.45,18.14Zm-4.76-6.32c-.72,0-1.45.08-2.2.09l-.11.95-.63-.07.1-.87-2.24-.06,0-.59q1.2.08,2.34.09L66.08,10l-1.94-.23.07-.59,1.94.23.14-1.16L64.2,8l.07-.58,2.09.24.11-.93.63.07L67,7.69l2.11.25L69,8.52l-2.11-.25-.13,1.16,1.85.22-.07.59L66.72,10l-.16,1.35c.75,0,1.48,0,2.18-.08Zm5.59-3.59A26.4,26.4,0,0,1,73.74,11a5.63,5.63,0,0,1-.61,1.77,1.07,1.07,0,0,1-.65.38,3.81,3.81,0,0,1-1,0L71,13.07l-.14-.67a7,7,0,0,0,.82.14,1.8,1.8,0,0,0,.81,0,.66.66,0,0,0,.28-.27,11.63,11.63,0,0,0,.38-1.3c.19-.73.35-1.47.48-2.23l-1.76-.2a6.88,6.88,0,0,1-2.6,4.33l-.41-.45a6.14,6.14,0,0,0,2.38-4l-1.59-.18.07-.59ZM73.4,20.49l-.46.43a28.6,28.6,0,0,0-2.84-2.44l.47-.4A23.61,23.61,0,0,1,73.4,20.49Z"/><path class="cls-4" d="M92.52,20.88l-3.65-1.72-3,6.38a1.05,1.05,0,0,1-.59.6,1.53,1.53,0,0,1-1-.12q-.64-.27-1.56-.69l-.91-.45,0-.67c.43.23.86.45,1.32.67a7.91,7.91,0,0,0,1.71.68c.19,0,.34-.1.46-.33l3-6.34a15.28,15.28,0,0,1-11,2.46l-.12-.67a15,15,0,0,0,5.55-.1,14,14,0,0,0,4.92-2l-6.3-3,2.63-4-1.18-.56.26-.54,11,5.16-.25.55-2.89-1.36-1.77,3.75,3.65,1.72Zm-4-2.53,1.76-3.75-5.74-2.71-2.31,3.5Z"/><rect class="cls-5" width="120" height="125.94"/></g></g></svg>