<svg xmlns="http://www.w3.org/2000/svg" xmlns:xlink="http://www.w3.org/1999/xlink" viewBox="0 0 65.71 65.71"><defs><style>.cls-1{fill:#fff;}.cls-2{fill:url(#未命名漸層_2);}.cls-3{fill:url(#未命名漸層_2-2);}.cls-4{fill:#dddbda;}.cls-5{fill:#8c6623;}.cls-6{fill:#a4792b;}.cls-7{fill:#9a7127;}</style><linearGradient id="未命名漸層_2" x1="-6130.18" y1="-6066.66" x2="-6129.18" y2="-6066.66" gradientTransform="matrix(13.9, 0.26, -0.26, 13.9, 83662.07, 85948.55)" gradientUnits="userSpaceOnUse"><stop offset="0" stop-color="#fff"/><stop offset="1" stop-color="#231815"/></linearGradient><linearGradient id="未命名漸層_2-2" x1="-5983.25" y1="-6065.37" x2="-5982.25" y2="-6065.37" gradientTransform="matrix(10.19, 0.19, -0.19, 10.19, 59842.76, 62973.78)" xlink:href="#未命名漸層_2"/></defs><g id="圖層_2" data-name="圖層 2"><g id="圖層_1-2" data-name="圖層 1"><rect width="65.71" height="65.71"/><g id="圖層_2-2" data-name="圖層 2"><g id="圖層_1-2-2" data-name="圖層 1-2"><path class="cls-1" d="M27.25,36.23c-.36-.29-.73-.57-1.07-.88a8.93,8.93,0,0,1-2.34-3.5,9.1,9.1,0,0,1-.48-4.2,8.5,8.5,0,0,1,13.23-6.21l.08.07.1.11c-.29.57-.59,1.13-.89,1.72L35.24,23a6.42,6.42,0,0,0-3.83-.89,6.55,6.55,0,0,0-5.26,3.29,6.58,6.58,0,0,0-1,2.88A10.84,10.84,0,0,0,25,30.37a9.28,9.28,0,0,0,.62,2.89A9.73,9.73,0,0,0,27.27,36a.52.52,0,0,1,.06.13l-.07.08"/><path class="cls-2" d="M27.25,36.23h0c-.36-.29-.73-.57-1.07-.88a8.89,8.89,0,0,1-2.88-6.59,10.32,10.32,0,0,1,.06-1.11A8.61,8.61,0,0,1,31.84,20a8.13,8.13,0,0,1,1.1.07,8.53,8.53,0,0,1,3.66,1.39l.08.07.1.11c-.29.57-.59,1.13-.89,1.72L35.25,23a6.34,6.34,0,0,0-3.31-.9h-.52a6.55,6.55,0,0,0-5.26,3.29,6.58,6.58,0,0,0-1,2.88A14.23,14.23,0,0,0,25,30v.4a9.28,9.28,0,0,0,.62,2.89A9.73,9.73,0,0,0,27.27,36a.52.52,0,0,1,.06.13l-.07.08h0l.07-.08a.52.52,0,0,0-.06-.13,9.73,9.73,0,0,1-1.62-2.76A9.28,9.28,0,0,1,25,30.36V30a14.23,14.23,0,0,1,.13-1.73,6.58,6.58,0,0,1,1-2.88,6.55,6.55,0,0,1,5.26-3.29h.52a6.34,6.34,0,0,1,3.31.9l.64.38c.3-.59.6-1.15.89-1.72l-.1-.11-.08-.07a8.53,8.53,0,0,0-3.66-1.39,8.13,8.13,0,0,0-1.1-.07,8.61,8.61,0,0,0-8.48,7.67,10.32,10.32,0,0,0-.06,1.11,8.89,8.89,0,0,0,2.88,6.59C26.52,35.66,26.89,35.94,27.25,36.23Z"/><path class="cls-1" d="M33.71,36.36l.66-.35a7.53,7.53,0,0,0,2.94-2.63,9.3,9.3,0,0,0,1.33-3.71,19.13,19.13,0,0,0,.1-2c-1.73,0-6.17.16-7.83.17v-.08l1.22-1.71c1.79-.12,6.38-.19,8.22-.32.07.43.16.81.19,1.19a9,9,0,0,1-2,6.63,8.61,8.61,0,0,1-4.12,2.7,4.58,4.58,0,0,1-.63.1Z"/><path class="cls-3" d="M33.71,36.36h0l.66-.35a7.53,7.53,0,0,0,2.94-2.63,9.3,9.3,0,0,0,1.33-3.71,19.13,19.13,0,0,0,.1-2c-1.73,0-6.17.16-7.83.17v-.08l1.22-1.71c1.79-.12,6.38-.19,8.22-.32.07.43.16.81.19,1.19s0,.58,0,.88a9,9,0,0,1-2,5.75,8.61,8.61,0,0,1-4.12,2.7,4.58,4.58,0,0,1-.63.1h0a4.58,4.58,0,0,0,.63-.1,8.61,8.61,0,0,0,4.12-2.7,9,9,0,0,0,2.11-5.78c0-.3,0-.59,0-.88a7.9,7.9,0,0,0-.19-1.19c-1.84.13-6.43.2-8.22.32L31,27.73v.08c1.66,0,6.1-.13,7.83-.17a19.13,19.13,0,0,1-.1,2,9.3,9.3,0,0,1-1.33,3.71A7.53,7.53,0,0,1,34.44,36l-.66.35Z"/><path class="cls-1" d="M41.66,9.15a15.06,15.06,0,0,0-2,.52h-.08a19.84,19.84,0,0,1-15.28,0h-.08a16.38,16.38,0,0,0-2.06-.53A14.08,14.08,0,0,0,5,23.05a33.87,33.87,0,0,0,.48,4.71C7.91,43.44,19.71,60.83,22.7,60.22,24.86,59.77,25,53.09,25,51a7.13,7.13,0,0,1,6.3-7.18h1.39A7.14,7.14,0,0,1,39,51v3.69c0,2.07.34,5.1,2.3,5.51,3.23.68,17.23-20.46,17.57-37.11a14.1,14.1,0,0,0-17.18-14M31.93,38.44A10.29,10.29,0,1,1,42.22,28.15h0A10.29,10.29,0,0,1,31.93,38.44"/><path class="cls-4" d="M33.39,15.5c1.29-.53,3-1.16,4.49-1.72a.75.75,0,0,0-.24-1.45c-1.79,0-4,0-6.12.19a13.7,13.7,0,0,1-8.13-2.08c5.95,4,7.06,6.25,10,5.06"/><path class="cls-5" d="M36.6,10.71l2.71-.83a4.06,4.06,0,0,0-2.71.83"/><path class="cls-5" d="M58.5,27.56l.28-3.32a4.1,4.1,0,0,1-.28,3.32"/><path class="cls-6" d="M40.5,8.57a19.08,19.08,0,0,0-3.9,2.11,3.91,3.91,0,0,1,4-.17,57.55,57.55,0,0,1,9.67,5.61,51.1,51.1,0,0,1,7.91,7.51c1.45,1.79.24,3.45.25,4a21.89,21.89,0,0,0,1.66-4.43,3.32,3.32,0,0,0-1.54-3.47c-.69-.53-7-4.93-7-4.93s-7-5.61-7.53-5.93c-1.78-1-2.36-.75-3.54-.33"/><path class="cls-6" d="M51.13,14.57a18.68,18.68,0,0,0-1-5.34c-.93-3-3.37-3.88-4.2-3.73.34.08.8.19,1.46,1.54a61.79,61.79,0,0,1,2.44,7.76Z"/><path class="cls-6" d="M45.93,5.5C44.67,5.5,43.5,7.19,44.57,9a60.37,60.37,0,0,0,4.83,6l1.72-.65L46.5,9.23c-.91-1-1.67-2-1.41-2.87s.87-.84.87-.84"/><path class="cls-6" d="M51.5,15.22a18.19,18.19,0,0,1,5.17-1.72c3.1-.7,5,1,5.3,1.83-.25-.26-.56-.61-2.07-.51A59.46,59.46,0,0,0,52,16.5Z"/><path class="cls-6" d="M62,15.3c.67,1.07-.24,2.94-2.4,2.91A60.68,60.68,0,0,1,52,17l-.27-1.82,6.8,1.52c1.35.31,2.6.45,3.19-.18A1,1,0,0,0,62,15.3"/><path class="cls-6" d="M52.34,15.62a3.46,3.46,0,0,0-2.68,0c-1.23.65-6.38,5.86-9.73,5.25,1.62-.78,2.57-2.26,4.83-4.55s6.66-2.34,7.58-.71"/><path class="cls-6" d="M51,14.3a3.45,3.45,0,0,1,.46,2.64c-.42,1.31-4.65,7.3-3.47,10.49.47-1.73,1.79-2.93,3.65-5.55s1.14-7-.64-7.58"/><path class="cls-7" d="M52.64,14.74a2.22,2.22,0,0,0-1.72-1.13,6,6,0,0,0-1.42,2.1A13,13,0,0,1,51.38,17a3.55,3.55,0,0,0,1.27-2.21"/><path class="cls-5" d="M5.14,32.16a2.89,2.89,0,0,1,.63-2.53L7,34.5a4.77,4.77,0,0,1-1.88-2.37"/><path class="cls-6" d="M5.77,29.63s-4.44,6.58,15.05,9.06c-2.3.8-3,1-3,1L19,41.06c-3.54.09-9.72-1-13.46-3.82-4.25-3.15-.61-6.42.25-7.59"/></g></g></g></g></svg>