<svg xmlns="http://www.w3.org/2000/svg" viewBox="0 0 129.03 90.54"><defs><style>.cls-1{fill:#60a993;}.cls-2{fill:#badbab;}</style></defs><g id="圖層_2" data-name="圖層 2"><g id="圖層_1-2" data-name="圖層 1"><path class="cls-1" d="M30.38,46.46l1.79,2.78c.35-.22,35-22.43,64.48-27l-.51-3.27C80.36,21.4,63.32,28.75,51.79,34.49c-12.44,6.2-21.32,11.91-21.41,12"/><path class="cls-1" d="M54.38,34.73s4.89-19.22,5.08-23.64S65.19-5.48,73.84,2.85s-8.77,33.3-19.46,31.88"/><path class="cls-1" d="M129,21.29s2.91,11.47-28.09,7.17S111.2-3.83,129,21.29"/><path class="cls-1" d="M54.53,34.9S70.36,46.83,73.28,50.17s14.83,9.34,16.37-2.57S62,27.11,54.53,34.9"/><path class="cls-2" d="M37.49,20.31a7.29,7.29,0,0,0-2.63,1.27C29.19,25.58,27.18,33,27,40a13.94,13.94,0,0,1,0,1.71c0-.56,0-1.13,0-1.71a16.48,16.48,0,0,0-8.5-13.6c-2.73-1.45-6.07-2.07-8.93-.9A11.29,11.29,0,0,0,6,27.89,19.22,19.22,0,0,0,0,41.11,16.8,16.8,0,0,0,5.83,54.28a10.17,10.17,0,0,0,5.43,2.4,11.13,11.13,0,0,1,3-.52,6,6,0,0,1-3,.52,12.25,12.25,0,0,0-8.63,9.88C2,72.2,6.46,78.05,12.12,78.5a17.41,17.41,0,0,0,5.27-.57,12.38,12.38,0,0,0,5.91-2.77,7.69,7.69,0,0,1,1.31-2.29,4.91,4.91,0,0,1-1.31,2.29,9.88,9.88,0,0,0,.51,7.68,14.66,14.66,0,0,0,7.87,6.73,10,10,0,0,0,7.06.54,6.72,6.72,0,0,0,3.62-8.72l.51-1.07C47.22,82,52.25,82.9,56.51,81s7-7.5,4.68-11.55c-1.62-2.78-4.94-4-8-5a17.88,17.88,0,0,0,14.21-2.63c1.73-1.19,3.35-2.93,3.38-5a7.65,7.65,0,0,0-1.16-3.61c-2.32-4.34-5.46-8.54-10-10.48-4.08-1.75-9.46-1-12.2,2.33-.25.4-.51.79-.79,1.17A7.27,7.27,0,0,1,47.44,45a18.35,18.35,0,0,0,2.77-12.08A15.81,15.81,0,0,0,42.82,21.5a7.5,7.5,0,0,0-5.33-1.19M32.55,66a.59.59,0,0,1-.25-.27.49.49,0,0,1,.14-.48,1.41,1.41,0,0,1,.45-.25,1.72,1.72,0,0,1,1.32-.16.43.43,0,0,1,.25.26.53.53,0,0,1,0,.33l-.19.55-.27.33A2.05,2.05,0,0,1,32.55,66m-1.06-2.87a1.94,1.94,0,0,1,.18.51,1.65,1.65,0,0,1-.21,1.43,1.9,1.9,0,0,1-1.48.43v-.28a1.32,1.32,0,0,1-.43-2.54,1.66,1.66,0,0,1,.7-.11,1.42,1.42,0,0,1,1.23.56m4.46.53a1.65,1.65,0,0,1,1.85.51,1.44,1.44,0,0,1-.16,1.87.73.73,0,0,1-.56.23.08.08,0,0,1,0,.06.21.21,0,0,1-.16,0,2.71,2.71,0,0,1-1.28-.57A1.19,1.19,0,0,1,36,63.69m-3.87-4.13a1.53,1.53,0,0,1,.55.39A.87.87,0,0,1,32.58,61a.86.86,0,0,1-1.08.14l.38.25c.05.07,0,.17-.08.22a.43.43,0,0,1-.25,0,6.07,6.07,0,0,1-1.82-.54,1.33,1.33,0,0,1-.55-.41.9.9,0,0,1,.24-1.11,1.8,1.8,0,0,1,1.16-.36,3.7,3.7,0,0,1,1.5.31m3.25.64a.67.67,0,0,1,.24.37.56.56,0,0,1-.29.65l.13.23a1.57,1.57,0,0,1-1.8-.13,1.44,1.44,0,0,1,.61-1.09,1,1,0,0,1,1.11,0m3.12,1.1a.59.59,0,0,1-.26.74l-.17.33a2,2,0,0,1-.93-.18.68.68,0,0,1-.34-.8A.73.73,0,0,1,37,61.1a1.17,1.17,0,0,1,.8-.26.76.76,0,0,1,.67.46m-6.57-5.25a.81.81,0,0,1-.59,1.45L31,57.37a3.82,3.82,0,0,1-.72-.67.39.39,0,0,1-.12-.28c0-.13.12-.21.23-.28a1.39,1.39,0,0,1,1.52-.09m2.32,1.73a.86.86,0,0,1,.1-.41,1,1,0,0,1,.46-.5,1.15,1.15,0,0,1,1,.2.84.84,0,0,1,.41.42c.06.19-.06.44-.26.44l-.41.52a2.23,2.23,0,0,1-.78-.09.74.74,0,0,1-.49-.58m.38-2.84a.77.77,0,0,1,.09.6,1.26,1.26,0,0,1-1.22.93l-.25-.41-.12,0a.68.68,0,0,1-.7-.48,1,1,0,0,1,.17-.87.75.75,0,0,1,.3-.26,1.17,1.17,0,0,1,.78,0l.41.13a1,1,0,0,1,.54.29m5.62,2.34a.63.63,0,0,1,.2.23.75.75,0,0,1,0,.3A4.49,4.49,0,0,1,40.3,59a2.28,2.28,0,0,1-1.11,1.36l.07-.11a.34.34,0,0,1-.25,0c-.6-.12-1.3-.31-1.54-.89a1.4,1.4,0,0,1,.1-1.09,2.22,2.22,0,0,1,1.09-1.13,1.62,1.62,0,0,1,1.54.13m-1.76-2.61a.48.48,0,0,1,.2.2.41.41,0,0,1,0,.34.77.77,0,0,1-.83.44l-.14.15-1.09-.37a.69.69,0,0,1-.28-.15.53.53,0,0,1-.13-.27c-.06-.49.46-.9,1-.9a2.31,2.31,0,0,1,1.34.56"/></g></g></svg>