<?xml version="1.0" encoding="utf-8"?>
<!-- Generator: Adobe Illustrator 24.3.0, SVG Export Plug-In . SVG Version: 6.00 Build 0)  -->
<svg version="1.1" id="圖層_1" xmlns="http://www.w3.org/2000/svg" xmlns:xlink="http://www.w3.org/1999/xlink" x="0px" y="0px"
	 viewBox="0 0 60 60" style="enable-background:new 0 0 60 60;" xml:space="preserve">
<style type="text/css">
	.st0{fill:#67B868;}
	.st1{fill:none;}
	.st2{fill:#FFFFFF;}
</style>
<g id="圖層_1-2">
	<circle class="st0" cx="30" cy="30" r="30"/>
	<rect x="14.4" y="14.4" class="st1" width="31.2" height="31.2"/>
	<path class="st2" d="M51.7,27.2L51.7,27.2v-0.1l0,0l0-0.4v-0.3v-0.1l0,0c-0.6-3.1-2.1-6-4.3-8.4c-2.3-2.5-5.2-4.4-8.5-5.6
		c-2.9-1.1-5.9-1.6-9-1.6c-4.1,0-8.1,0.9-11.7,2.8C11.6,17.1,7.7,23.7,8.2,30.3c0.3,3.4,1.7,6.7,3.9,9.4c2.2,2.6,5,4.7,8.2,6
		c2,0.7,4,1.3,6.1,1.6h0.3c0.6,0.1,0.7,0.3,0.8,0.3c0.1,0.2,0.1,0.3,0,0.5c0,0.1,0,0.2-0.1,0.3c-0.3,1-0.4,2-0.3,3
		c0.1,1.1,0.9,1.9,2,1.9l0,0c1.2-0.2,2.4-0.6,3.4-1.3l0.1-0.1c2.1-1.3,4.1-2.7,5.6-3.7c3.3-2.4,7-5.1,9.8-8.6
		C50.9,36.1,52.2,31.6,51.7,27.2z M21.7,33.8H18c-0.6,0-1-0.4-1-1v-7.9c0-0.6,0.5-1,1-1c0.6,0,1,0.5,1,1v6.9h2.7c0.6,0,1,0.5,1,1
		C22.8,33.4,22.4,33.8,21.7,33.8L21.7,33.8z M25.7,32.8c0,0.6-0.5,1-1,1c-0.6,0-1-0.5-1-1v-8c0-0.6,0.5-1,1-1c0.6,0,1,0.5,1,1V32.8z
		 M35,32.8c0,0.5-0.3,0.9-0.7,1c-0.1,0-0.2,0-0.3,0c-0.3,0-0.6-0.2-0.8-0.4l-3.7-5.1v4.5c0,0.6-0.5,1-1,1c-0.6,0-1-0.5-1-1v-7.7
		c-0.1-0.5,0.3-1,0.9-1.1c0.4,0,0.8,0.2,1,0.5l3.8,5.1v-4.7c0-0.6,0.5-1,1-1c0.6,0,1,0.5,1,1L35,32.8z M42.5,33.7h-5.1
		c-0.6,0-1-0.4-1-1v-7.9c0-0.6,0.4-1,1-1h4.9c0.6,0,1,0.5,1,1c0,0.6-0.5,1-1,1h-3.9v1.9h3.2c0.6,0,1,0.5,1,1c0,0.6-0.5,1-1,1h-3.2
		v1.9h4.1c0.6,0,1,0.5,1,1C43.5,33.3,43.1,33.7,42.5,33.7L42.5,33.7z"/>
</g>
</svg>
