<svg xmlns="http://www.w3.org/2000/svg" viewBox="0 0 109.24 61.57"><defs><style>.cls-1{fill:#fff;}.cls-2{fill:#f4bbd2;}</style></defs><g id="圖層_2" data-name="圖層 2"><g id="圖層_1-2" data-name="圖層 1"><path class="cls-1" d="M98.26,34.15c.72.83,1.84,1.63,2.08,2.51.42,1.49-.87,2-2.18,2.42-1,.28-1.84.7-2.76,1.05l.35.65a4.15,4.15,0,0,1,1.35-.1c.83.22,2.11.46,2.35.94A2.43,2.43,0,0,1,99,43.83a3.76,3.76,0,0,1-2.08,1c-1.72.37-2.69,1.24-2.58,2.68l8.84,4.57c1.12.59,2.26,1.14,3.37,1.76,2.42,1.35,3.39,3.93,2.24,5.89s-3.78,2.49-6.13.9c-3.88-2.62-7.19-5.73-9.11-9.67-1.16,1.86-2.3,3.73-3.5,5.55a9.27,9.27,0,0,1-1.59,1.84,2.75,2.75,0,0,1-4-.16c-1.42-1.28-1.09-2.46-.25-3.71C86,51.79,87.66,49,89.5,46.05a26,26,0,0,1-4.13-.59,8,8,0,0,1-2.17-1.54,6.91,6.91,0,0,1,1.84-1c1.67-.34,3.44-.42,5.1-.77A6.59,6.59,0,0,0,92,41.05l-.3-.49a8.8,8.8,0,0,1-2.68-.2,14.68,14.68,0,0,1-2.68-1.81c.63-.65,1.1-1.6,1.92-1.89A29.13,29.13,0,0,1,93,35.8c-.06-1.49-.11-2.91-.17-4.5a23,23,0,0,1-4.42-.58c-1-.29-1.74-1.27-2.61-1.94a12.75,12.75,0,0,1,2.07-1.29,7.07,7.07,0,0,1,2-.26c3.62-.26,3.63-.26,3.7-3.92A23.92,23.92,0,0,1,89,22.17a4.66,4.66,0,0,1-2.33-2.45c-.37-1.39,1.16-1.24,2.23-1.47A30.14,30.14,0,0,0,93,16.79c-.84-1.34-1.67-2.5-2.3-3.72a31.06,31.06,0,0,1-2.41-5.32C88.07,7,89,6.21,89.36,5.44c.89.5,2.07.83,2.62,1.53,1.5,1.9,2.73,4,4.45,6.53,1.19-2.38,2.07-4.23,3-6,.6-1.1.94-3,2.84-2.17,2.13.92.77,2.5.45,3.62-1.13,3.91-2.32,7.85-7.13,9.14.09.15.17.31.25.46,1.45-.29,2.93-.54,4.35-.9.77-.2,1.42-.67,2.19-.91A2.58,2.58,0,0,1,105.73,18c.37.86.17,2.5-.47,2.84A73,73,0,0,1,97.69,24c0,.26,0,1.09.06,2a4.5,4.5,0,0,1,1.08-.42c.89-.08,1.79-.09,2.69-.12a8.62,8.62,0,0,1,.15,2.79c-.17.66-.91,1.19-1.54,1.6-2.32,1.52-2.35,1.49-1.87,4.3"/><path class="cls-1" d="M62.59,32.74c.52-1.07,1.17-2.39,1.82-3.7.58-1.16,1.1-2.36,1.76-3.47s1.44-3,3.31-2.23c2.12.82,1.14,2.6.72,4-.89,3-1.93,5.87-2.9,8.8a3.06,3.06,0,0,0,3.17,4.08l.18,0c1.31-.12,2.71-.37,3.31,1.24.42,1.16-.67,2.82-2.4,3.26A7.1,7.1,0,0,1,68,44.54a18.12,18.12,0,0,1-3.42-1.93c-1,2.41-2.09,4.81-3.12,7.22-.61,1.42-1.13,2.87-1.8,4.27-1.18,2.47-3.54,3.3-5.62,2.06s-2.35-3.69-.9-6c2.32-3.64,4.48-7.39,6.75-11.06a1.89,1.89,0,0,0-.25-2.6c-2.47-2.83-4.84-5.73-7.2-8.64-.82-1-2.16-2.23-.77-3.5s2.53,0,3.5,1c2.54,2.47,5,5,7.43,7.37"/><path class="cls-1" d="M58.88,9.17a1.66,1.66,0,0,0,.29.08c4.93-.49,4.93-.49,4.9-5.44a4.56,4.56,0,0,1,.06-1.66A14.37,14.37,0,0,1,65.49,0a8.93,8.93,0,0,1,1.44,1.92,14.38,14.38,0,0,1,.45,2.74c.12.72.28,1.44.46,2.4l3.68-1.48c1.36-.54,2.59-.5,3.35.94S75,9.28,73.41,10c-1.34.63-2.81,1-4.1,1.73a3,3,0,0,0-1.37,1.79c-.27,1.13,0,2.38-.31,3.49-.2.75-1.11,2-1.49,1.88a3.34,3.34,0,0,1-2.3-1.6c-.42-1.16-.19-2.54-.25-4.06l-4.15.59c-.37,1.78,1.22,4.28-1.82,4.77-1.5.24-2-.82-2.35-4.57-2-.41-3.93-.79-5.89-1.26a7.39,7.39,0,0,1-2.58-1c-.55-.39-.79-1.23-1.17-1.88.65-.32,1.31-1,1.94-.92,2.16.11,4.3.45,6.45.69.41.05.84,0,1.49,0a43.51,43.51,0,0,1-.77-4.46c-.05-.6.45-1.25.7-1.88.59.35,1.46.55,1.7,1.06a47.71,47.71,0,0,1,1.74,4.76"/><path class="cls-2" d="M23.33,57.84c-4-1.48-6.48-4-6.57-8.58,0-2-.67-4-.78-6,0-.79.63-1.62,1-2.43.78.44,2,.7,2.26,1.35a50.46,50.46,0,0,1,2,7.07c.65,3.06,3.1,4.09,6,3,5.36-2.13,7.4-6.83,9.52-11.49.79-1.76-.83-2.76-2.56-4.3-2.14-1.9-.59-5.72,1.3-7.73a5.19,5.19,0,0,1,7.27-.23c3.29,2.83,4.77,8.19,3.06,12.21-3.32,7.8-8.24,14.19-16.62,17.06-1.78.61-3.82.5-5.74.72,0-.21,0-.42-.07-.64"/><path class="cls-1" d="M0,29.71c.08-.92-.16-2.06.3-2.53A3.43,3.43,0,0,1,3,26.13a83.75,83.75,0,0,1,9.69,2.92,17.31,17.31,0,0,0,9.5,1.15c2.3-.42,3.64.26,3.88,1.8.28,1.85-.78,3.31-2.91,3.7a19.64,19.64,0,0,1-10.41-.82c-3.3-1.22-6.61-2.41-9.9-3.67A30.11,30.11,0,0,1,0,29.71"/><path class="cls-1" d="M28.37,23.43c-1.72.08-3.48.47-5.1.16-5.54-1.05-10.34-3.94-15.16-6.68-1.19-.68-2.21-1.79-1.53-3.31s2.14-1.36,3.45-.82c1.63.66,3.18,1.51,4.83,2.11,3.94,1.43,7.92,2.77,11.9,4.14.39.14.91.1,1.2.35.6.51,1.37,1.09,1.52,1.76s-.58,1.27-1.11,2.29"/><path class="cls-1" d="M9.51,59.49c-.8.3-1.9,1.12-2.89,1C5,60.31,4.68,58.9,4.91,57.4Q6.07,49.69,7.17,42a35.46,35.46,0,0,0,.22-3.58c0-1.23.39-2.54,1.76-2.32A3,3,0,0,1,11,38.3c0,5.18-.31,10.37-.61,15.54-.09,1.68-.52,3.33-.9,5.65"/></g></g></svg>