<svg xmlns="http://www.w3.org/2000/svg" viewBox="0 0 66.82 37.66"><defs><style>.cls-1{fill:#60a993;}.cls-2{fill:#f4bbd2;}</style></defs><g id="圖層_2" data-name="圖層 2"><g id="圖層_1-2" data-name="圖層 1"><path class="cls-1" d="M60.11,20.89c.44.51,1.12,1,1.27,1.53.26.92-.53,1.25-1.33,1.49-.59.17-1.13.42-1.69.64l.21.39a3,3,0,0,1,.83-.06c.51.14,1.29.28,1.43.58a1.47,1.47,0,0,1-.29,1.35,2.29,2.29,0,0,1-1.28.6c-1,.23-1.64.76-1.57,1.64l5.4,2.8c.69.35,1.39.69,2.06,1.07,1.49.83,2.08,2.41,1.38,3.61a2.52,2.52,0,0,1-3.76.55,15.82,15.82,0,0,1-5.57-5.92c-.71,1.14-1.4,2.28-2.14,3.4a5.74,5.74,0,0,1-1,1.12,1.68,1.68,0,0,1-2.44-.1,1.52,1.52,0,0,1-.15-2.27c1.11-1.63,2.12-3.34,3.25-5.14a16.74,16.74,0,0,1-2.53-.36,5.15,5.15,0,0,1-1.33-.94A4.18,4.18,0,0,1,52,26.25c1-.21,2.1-.26,3.12-.47a4,4,0,0,0,1.16-.67l-.18-.3a5.24,5.24,0,0,1-1.64-.12,8.61,8.61,0,0,1-1.64-1.11c.38-.4.67-1,1.18-1.16a18.87,18.87,0,0,1,2.86-.52c0-.91-.06-1.78-.1-2.75a14.26,14.26,0,0,1-2.71-.36,6.11,6.11,0,0,1-1.59-1.19,7.92,7.92,0,0,1,1.27-.79A4.51,4.51,0,0,1,55,16.66c2.22-.16,2.22-.16,2.27-2.4a14.74,14.74,0,0,1-2.84-.7A2.85,2.85,0,0,1,53,12.06c-.22-.85.71-.76,1.37-.89a20.38,20.38,0,0,0,2.52-.9c-.52-.82-1-1.53-1.41-2.27A19.3,19.3,0,0,1,54,4.74c-.13-.43.42-.94.66-1.41a5.15,5.15,0,0,1,1.6.93c.92,1.17,1.68,2.43,2.73,4,.73-1.46,1.26-2.59,1.86-3.68.36-.67.57-1.83,1.73-1.33,1.31.57.48,1.54.28,2.22-.69,2.39-1.42,4.8-4.36,5.59l.15.28c.89-.18,1.79-.33,2.66-.55.47-.12.87-.41,1.34-.56a1.59,1.59,0,0,1,2,.78c.22.53.1,1.53-.29,1.74a43,43,0,0,1-4.63,1.9c0,.17,0,.67,0,1.25a3.19,3.19,0,0,1,.67-.25c.54-.05,1.09-.06,1.64-.08a5.6,5.6,0,0,1,.1,1.71c-.11.41-.56.73-1,1-1.42.93-1.43.91-1.14,2.63"/><path class="cls-1" d="M38.29,20l1.11-2.27c.35-.71.67-1.44,1.08-2.12s.88-1.81,2-1.36.69,1.59.43,2.44c-.54,1.81-1.17,3.59-1.77,5.38a1.87,1.87,0,0,0,1.94,2.5l.11,0c.8-.07,1.66-.22,2,.76.26.71-.41,1.73-1.46,2a4.29,4.29,0,0,1-2.19-.1,10.31,10.31,0,0,1-2.09-1.18q-1,2.22-1.91,4.42c-.37.87-.69,1.76-1.1,2.61a2.35,2.35,0,0,1-3.44,1.26c-1.27-.76-1.44-2.26-.55-3.64,1.42-2.23,2.74-4.52,4.13-6.77a1.16,1.16,0,0,0-.15-1.59c-1.51-1.73-3-3.5-4.41-5.29-.5-.62-1.32-1.36-.47-2.13s1.55,0,2.14.59C35.3,17,36.82,18.57,38.29,20"/><path class="cls-1" d="M36,5.61a1,1,0,0,0,.18,0c3-.3,3-.3,3-3.33a2.8,2.8,0,0,1,0-1A9.7,9.7,0,0,1,40.06,0a5.61,5.61,0,0,1,.88,1.17,9.21,9.21,0,0,1,.28,1.68c.07.44.17.88.28,1.47l2.25-.91c.83-.33,1.58-.3,2,.58a1.52,1.52,0,0,1-.89,2.13c-.83.38-1.72.62-2.51,1a1.89,1.89,0,0,0-.84,1.1c-.16.69,0,1.46-.19,2.13-.12.46-.68,1.2-.91,1.16a2.1,2.1,0,0,1-1.41-1,8.82,8.82,0,0,1-.15-2.48l-2.54.36c-.23,1.1.75,2.62-1.11,2.92-.92.15-1.22-.5-1.44-2.8-1.19-.25-2.4-.48-3.6-.76a4.63,4.63,0,0,1-1.58-.6c-.34-.24-.48-.76-.72-1.15.4-.2.81-.59,1.19-.57,1.32.07,2.63.28,3.94.43.26,0,.52,0,.91,0-.17-1-.4-1.84-.47-2.73,0-.37.28-.77.43-1.15.36.21.9.34,1.05.65A30.18,30.18,0,0,1,36,5.61"/><path class="cls-2" d="M14.27,35.38c-2.44-.9-4-2.46-4-5.25,0-1.22-.41-2.43-.47-3.65,0-.48.38-1,.59-1.48.48.26,1.24.43,1.39.82A30.55,30.55,0,0,1,13,30.15c.4,1.87,1.89,2.5,3.64,1.8,3.28-1.3,4.53-4.17,5.82-7,.49-1.08-.5-1.69-1.56-2.63-1.31-1.17-.36-3.5.79-4.73a3.18,3.18,0,0,1,4.45-.14A6.84,6.84,0,0,1,28,24.89c-2,4.78-5,8.69-10.16,10.44a16.21,16.21,0,0,1-3.51.44c0-.13,0-.26-.05-.39"/><path class="cls-1" d="M0,18.17c.05-.56-.1-1.26.18-1.55A2.11,2.11,0,0,1,1.83,16a49.28,49.28,0,0,1,5.93,1.78,10.52,10.52,0,0,0,5.81.7c1.4-.25,2.22.16,2.37,1.11a1.93,1.93,0,0,1-1.78,2.26,12,12,0,0,1-6.37-.51c-2-.74-4-1.47-6-2.24A16.91,16.91,0,0,1,0,18.17"/><path class="cls-1" d="M17.35,14.33a13.6,13.6,0,0,1-3.11.1C10.85,13.79,7.91,12,5,10.34c-.73-.41-1.35-1.09-.94-2s1.31-.83,2.12-.5c1,.4,1.94.92,3,1.29,2.41.87,4.85,1.69,7.28,2.53.24.08.55.06.73.21.37.31.84.67.93,1.08s-.35.78-.68,1.4"/><path class="cls-1" d="M5.82,36.39c-.49.18-1.16.69-1.77.61-1-.11-1.19-1-1-1.89.47-3.14.94-6.29,1.38-9.44a17.76,17.76,0,0,0,.14-2.19c0-.75.24-1.55,1.08-1.42a1.83,1.83,0,0,1,1.14,1.37c0,3.17-.19,6.34-.37,9.51-.06,1-.32,2-.55,3.45"/></g></g></svg>