<svg xmlns="http://www.w3.org/2000/svg" xmlns:xlink="http://www.w3.org/1999/xlink" viewBox="0 0 58.68 54.73"><defs><style>.cls-1{fill:#fff;}.cls-2{fill:url(#未命名漸層_2);}.cls-3{fill:url(#未命名漸層_2-2);}.cls-4{fill:#dddbda;}.cls-5{fill:#8c6623;}.cls-6{fill:#a4792b;}.cls-7{fill:#9a7127;}</style><linearGradient id="未命名漸層_2" x1="-5554.96" y1="6652.09" x2="-5553.96" y2="6652.09" gradientTransform="matrix(13.9, 0.26, 0.26, -13.9, 75511.1, 93916.91)" gradientUnits="userSpaceOnUse"><stop offset="0" stop-color="#fff"/><stop offset="1" stop-color="#231815"/></linearGradient><linearGradient id="未命名漸層_2-2" x1="-5424.6" y1="6662.72" x2="-5423.6" y2="6662.72" gradientTransform="matrix(10.19, 0.19, 0.19, -10.19, 54033.34, 68935.09)" xlink:href="#未命名漸層_2"/></defs><g id="圖層_2" data-name="圖層 2"><g id="圖層_1-2" data-name="圖層 1"><path class="cls-1" d="M23.75,30.73c-.36-.29-.73-.57-1.07-.88a8.86,8.86,0,0,1-2.34-3.5,9.07,9.07,0,0,1-.48-4.2,8.63,8.63,0,0,1,1.57-4.09,8.54,8.54,0,0,1,8-3.51,8.53,8.53,0,0,1,3.66,1.39l.08.07.1.11c-.29.57-.59,1.13-.89,1.72l-.64-.38a6.42,6.42,0,0,0-3.83-.89,6.56,6.56,0,0,0-5.26,3.29,6.65,6.65,0,0,0-1,2.88,11.66,11.66,0,0,0-.12,2.13,9.41,9.41,0,0,0,.62,2.89,9.59,9.59,0,0,0,1.62,2.76.52.52,0,0,1,.06.13l-.07.08"/><path class="cls-2" d="M23.75,30.73h0c-.36-.29-.73-.57-1.07-.88a8.89,8.89,0,0,1-2.88-6.59,10.32,10.32,0,0,1,.06-1.11,8.63,8.63,0,0,1,1.57-4.09,8.56,8.56,0,0,1,6.91-3.58,10.32,10.32,0,0,1,1.1.07,8.53,8.53,0,0,1,3.66,1.39l.08.07.1.11c-.29.57-.59,1.13-.89,1.72l-.64-.38a6.39,6.39,0,0,0-3.31-.9h-.52a6.56,6.56,0,0,0-5.26,3.29,6.65,6.65,0,0,0-1,2.88,14.39,14.39,0,0,0-.13,1.73c0,.14,0,.27,0,.4a9.41,9.41,0,0,0,.62,2.89,9.59,9.59,0,0,0,1.62,2.76.52.52,0,0,1,.06.13l-.07.08h0l.07-.08a.52.52,0,0,0-.06-.13,9.59,9.59,0,0,1-1.62-2.76,9.41,9.41,0,0,1-.62-2.89c0-.13,0-.26,0-.4a14.39,14.39,0,0,1,.13-1.73,6.65,6.65,0,0,1,1-2.88,6.56,6.56,0,0,1,5.26-3.29h.52a6.39,6.39,0,0,1,3.31.9l.64.38c.3-.59.6-1.15.89-1.72l-.1-.11-.08-.07a8.53,8.53,0,0,0-3.66-1.39,10.32,10.32,0,0,0-1.1-.07,8.56,8.56,0,0,0-6.91,3.58,8.63,8.63,0,0,0-1.57,4.09,10.32,10.32,0,0,0-.06,1.11,8.89,8.89,0,0,0,2.88,6.59c.34.31.71.59,1.07.88Z"/><path class="cls-1" d="M30.21,30.86l.66-.35a7.46,7.46,0,0,0,2.94-2.63,9.21,9.21,0,0,0,1.33-3.71,19.17,19.17,0,0,0,.1-2c-1.73,0-6.17.16-7.83.17,0,0,0,0,0-.08l1.22-1.71c1.79-.12,6.38-.19,8.22-.32.07.43.16.81.19,1.19A9,9,0,0,1,35,28.05a8.61,8.61,0,0,1-4.12,2.7,4.35,4.35,0,0,1-.63.1Z"/><path class="cls-3" d="M30.21,30.86h0l.66-.35a7.46,7.46,0,0,0,2.94-2.63,9.21,9.21,0,0,0,1.33-3.71,19.17,19.17,0,0,0,.1-2c-1.73,0-6.17.16-7.83.17,0,0,0,0,0-.08l1.22-1.71c1.79-.12,6.38-.19,8.22-.32.07.43.16.81.19,1.19a8.64,8.64,0,0,1,0,.88A9,9,0,0,1,35,28.05a8.61,8.61,0,0,1-4.12,2.7,4.35,4.35,0,0,1-.63.1h0a4.35,4.35,0,0,0,.63-.1A8.61,8.61,0,0,0,35,28.05a9,9,0,0,0,2.11-5.78,8.64,8.64,0,0,0,0-.88c0-.38-.12-.76-.19-1.19-1.84.13-6.43.2-8.22.32l-1.22,1.71s0,.06,0,.08c1.66,0,6.1-.13,7.83-.17a19.17,19.17,0,0,1-.1,2,9.21,9.21,0,0,1-1.33,3.71,7.46,7.46,0,0,1-2.94,2.63l-.66.35Z"/><path class="cls-1" d="M38.16,3.65a16.78,16.78,0,0,0-2,.52l-.08,0a19.84,19.84,0,0,1-15.28,0l-.08,0a17.29,17.29,0,0,0-2.06-.53A14.07,14.07,0,0,0,1.52,17.55,34.79,34.79,0,0,0,2,22.26c2.41,15.68,14.21,33.07,17.2,32.46,2.16-.45,2.29-7.13,2.29-9.2a7.14,7.14,0,0,1,6.3-7.18q.35,0,.69,0l.7,0a7.14,7.14,0,0,1,6.29,7.18v3.69c0,2.07.34,5.1,2.3,5.51C41,55.4,55,34.26,55.34,17.61a14.11,14.11,0,0,0-17.18-14M28.43,32.94A10.29,10.29,0,1,1,38.72,22.65,10.29,10.29,0,0,1,28.43,32.94"/><path class="cls-4" d="M29.89,10c1.29-.53,3-1.16,4.49-1.72a.75.75,0,0,0-.24-1.45c-1.79,0-4,0-6.12.19a13.65,13.65,0,0,1-8.13-2.08c5.95,4,7.06,6.25,10,5.06"/><path class="cls-5" d="M33.1,5.21l2.71-.83a4.09,4.09,0,0,0-2.71.83"/><path class="cls-5" d="M55,22.06l.28-3.32A4.07,4.07,0,0,1,55,22.06"/><path class="cls-6" d="M37,3.07A19.58,19.58,0,0,0,33.1,5.18a3.92,3.92,0,0,1,4-.17,57.84,57.84,0,0,1,9.67,5.61,51.49,51.49,0,0,1,7.91,7.51c1.45,1.79.24,3.45.25,4a21.35,21.35,0,0,0,1.66-4.43,3.33,3.33,0,0,0-1.54-3.47c-.69-.53-7-4.93-7-4.93s-7-5.61-7.53-5.93c-1.78-1-2.36-.75-3.54-.33"/><path class="cls-6" d="M47.63,9.07a18.69,18.69,0,0,0-1-5.34C45.7.69,43.26-.15,42.43,0c.34.08.8.19,1.46,1.54A62.14,62.14,0,0,1,46.33,9.3Z"/><path class="cls-6" d="M42.43,0C41.17,0,40,1.69,41.07,3.54a59.26,59.26,0,0,0,4.83,6l1.72-.65S43.91,4.75,43,3.73s-1.67-2-1.41-2.87.87-.84.87-.84"/><path class="cls-6" d="M48,9.72A18.62,18.62,0,0,1,53.17,8c3.1-.7,5,1,5.3,1.83-.25-.26-.56-.61-2.07-.51A61.67,61.67,0,0,0,48.47,11Z"/><path class="cls-6" d="M58.46,9.8c.67,1.07-.24,2.94-2.4,2.91a58.62,58.62,0,0,1-7.59-1.26L48.2,9.63,55,11.15c1.35.31,2.6.45,3.19-.18a1,1,0,0,0,.3-1.17"/><path class="cls-6" d="M48.84,10.12a3.48,3.48,0,0,0-2.68,0c-1.23.65-6.38,5.86-9.73,5.25,1.62-.78,2.57-2.26,4.83-4.55s6.66-2.34,7.58-.71"/><path class="cls-6" d="M47.54,8.8A3.45,3.45,0,0,1,48,11.44c-.42,1.31-4.65,7.3-3.47,10.49C45,20.2,46.32,19,48.18,16.38s1.14-7-.64-7.58"/><path class="cls-7" d="M49.14,9.24a2.23,2.23,0,0,0-1.72-1.13A6.09,6.09,0,0,0,46,10.21a13.57,13.57,0,0,1,1.88,1.24,3.53,3.53,0,0,0,1.27-2.21"/><path class="cls-5" d="M1.64,26.66a2.9,2.9,0,0,1,.63-2.53L3.52,29a4.73,4.73,0,0,1-1.88-2.37"/><path class="cls-6" d="M2.27,24.13s-4.44,6.58,15.05,9.06c-2.3.8-3,1-3,1l1.2,1.37c-3.54.09-9.72-1-13.46-3.82-4.25-3.15-.61-6.42.25-7.59"/></g></g></svg>