<svg width="142" height="98" viewBox="0 0 142 98" fill="none" xmlns="http://www.w3.org/2000/svg">
<circle cx="71" cy="49" r="48.5" stroke="white"/>
<path d="M79.215 41.82C79.215 43.29 78.42 44.61 76.83 45.78C75.27 46.95 73.695 47.775 72.105 48.255C73.335 48.975 74.265 49.65 74.895 50.28C75.555 50.91 75.885 51.63 75.885 52.44C75.885 54.42 74.775 56.16 72.555 57.66C70.335 59.13 67.95 59.865 65.4 59.865C64.17 59.865 62.94 59.67 61.71 59.28C60.51 58.89 59.67 58.425 59.19 57.885L61.215 55.995C61.635 56.415 62.19 56.79 62.88 57.12C63.6 57.45 64.215 57.615 64.725 57.615C66.495 57.615 68.1 57.165 69.54 56.265C71.01 55.335 71.745 54.225 71.745 52.935C71.745 52.155 71.385 51.465 70.665 50.865C69.945 50.265 68.985 49.8 67.785 49.47C67.095 49.26 66.75 48.915 66.75 48.435C66.75 47.775 68.1 47.13 70.8 46.5C71.79 46.26 72.705 45.87 73.545 45.33C74.385 44.76 74.805 44.145 74.805 43.485C74.805 42.795 74.565 42.27 74.085 41.91C73.635 41.52 73.065 41.325 72.375 41.325C71.685 41.325 70.62 41.7 69.18 42.45C67.77 43.17 66.3 44.115 64.77 45.285L64.05 43.8C65.31 42.3 67.02 40.98 69.18 39.84C71.37 38.7 73.125 38.13 74.445 38.13C75.765 38.13 76.89 38.505 77.82 39.255C78.75 39.975 79.215 40.83 79.215 41.82Z" fill="white"/>
</svg>
