<?xml version="1.0" encoding="utf-8"?>
<!-- Generator: Adobe Illustrator 24.3.0, SVG Export Plug-In . SVG Version: 6.00 Build 0)  -->
<svg version="1.1" id="圖層_1" xmlns="http://www.w3.org/2000/svg" xmlns:xlink="http://www.w3.org/1999/xlink" x="0px" y="0px"
	 viewBox="0 0 2371 1028" style="enable-background:new 0 0 2371 1028;" xml:space="preserve">
<style type="text/css">
	.st0{fill:#ECF3E6;}
</style>
<path class="st0" d="M2371,63.4l-3.4-1.5c0.8,1.3-0.2,4.8-1.7,5.6c-5.9,4.7-8.7-1.9-9-4.1l4.4-1.5c-4.7-12.5-17.8,2.3-26.8,1.7
	l3.6-9.2l-9.1,7.7c-2-2.3-3.4-7.4,1-8.9c-6.5-4.4-5.6,3.3-11.2-1.6c-0.6-0.8-0.4-1.2,0.2-1.6L2313,53c1.2-2-1.1-6.5,2.8-5.2
	c-11.3-5.1-18,7.2-22.4,0.3l0.9-0.6c-15.6,3.3-1.4,6.7-13,14.8l-8.1-16.4l-1.5,6.7c-1.6-0.2-4.8-0.7-4.2-3.4
	c-5.9,4.7,1.1,2.9-2.4,7.3c-7.8-6-21.3,3.2-23.2-7.5c-2.7,5.2,7.4,3.8-0.8,7.5c-2.5-11.5-9.5,2.1-16.6-3.1c2.1-6,8.9-2.9,1.7-8.1
	c-4.2,10.1-13.8-2-19.7,0c-0.2,8-12.9,3.5-22.9,6.3c0.6-2.7-18.9-4.1-28.2-6.8l0.2-1.3c-1.7,8.1-11.4,6.7-18.3,8.5
	c0.2-4.9,1.5-6.8,5.2-9l-6.6,0.1c-1.5,2.6-3.6,4-7.8,5l1.6-6.1c-8.8,0.5-17.6,7.3-28.9,3.5c-0.6,5.6,9.1,15.5-2.8,19.5
	c-0.5-3-1-8.2,2.1-9.5c-1,0.4-3.6,2.6-5.7,1.3l4.7-5.2c-5.1-2.2-2.6,4.3-6.8,3.9c0-4.3-3.1-3.1-2.5-6.5c1-0.4,3.6,1.8,5.1,0
	c-4.6-0.7-10.2-3.2-12.1-6.5c0.4,2.5,0.1,5.8-3.3,6.5c-8.8,0.4-3.1-5.2-8.2-7.3c-2.1,3-7.7,0-7.8,6.5c-2.6,0-3.1-3-4.1-4.8
	c-4.5,2.9-21.2,1.1-16,8l1.2,0.4c-0.2,0.1-0.5,0.2-0.7,0.3c-14.8,6.7-30.9-3.3-45.6-0.3v-2.2c-8.8,2.6-19.6,1.7-25.8,6.4
	c-2.6,0-6.2-3.9-5.1-6.5c-6.7,1.7-7.4,4.2-17.2,0.7c6.7-3.9-2.3-3.3,6.9-2.8c-8.8-1.8-10.8-5.2-20.1,0.8c3.2-5.6-6.6-6.9-10.8-5.2
	l6.1,3.9c-4.7,0.9-8.8,0.4-12.9,0l2.2-7.3c-17.9-8.7-32.1,15.5-45.8,0.7c-4.7,5.2,9.7,3.5,5.5,9.5c-8.2-0.9-16.9-11.3-19.4-11.3
	c-11.3-4-10.4,10.8-22.2,8.1c1.5,2.6,3,9.5-5.8,12.1c-8.2-0.9-10.2-10.8-5-13c2-0.2,2.9,0.6,2.8,1.5c2.7-1,6.1-2.1,2.9-4.9l-1.1,2.6
	c-4.1-2.6-15.4-2.2-12.8-6.6c-5.3,2.2-3.4,3.8,0.1,5c-9.4-2.7-15.3,0.5-25.5-1.8c1.7,1.4,3.3,4.5,1.6,4.5c-15.9-3.1-7,5-17.8,6.3
	c-6.2-3.9,2.2-9.5-8.7-6.1c-6.7-2.6-1.4-6.9,1.2-9.1c-9.9,5.1-18.5-3.2-24.2-4.1l5.2-2.1c-2.6,1-5.4,1.4-8.3,1.2l3,5.2
	c-3.1-0.9-5.7-0.9-5.6-3.1c-3.1,3.4,2.4,8.7-3.8,13.4c-4.1-2.6-12.4,2.9-13.9-4c11.6,2.1,1-5.3,7-7.6c-1.8,0.1-3.6-0.1-5.3-0.6
	c-0.5-0.8,0.4-1.4,1.3-1.8c-12.3-6.1-5.6,7.9-18.3,7.8c1.6-3.9-3-7.4-5.1-6.5c5.1,0,2.5,6.5-2.2,9.5c-8.2-3-8.9,2.3-13.1,2l4.9,1.4
	c-1.6,3.9-5.7,3.4-11.4,4.7c-0.2-0.7,0.2-1.5,0.8-1.8c-5.9,2.3-13-8.1-20.8-4c-4.1-2.6-0.4-7.3-4-9.1c-9.8,5.1-10.7-5.3-21.1-1
	c3,5.2,3.5,4-3.8,9.1l17-3.8l-10.9,7.7c5.2,0,10.8-3.4,13.9-2.5c-5.2,4.3-4.7,3-2.2,7.3c-7.1-7.8-14,4.7-22.1-0.6l0.2-13
	c-12.3-5.8-21.7,6.7-37.6,3.4l5.1,2.2c-2.1,5.2-9.8,0.7-15,2.8c0.5-4.4-2.7-5.9-4.9-8.6c0.3,3.2-11.6-0.3-13.1,8.4l-7.1-5.7
	c-12.8-2.3-14.7,12.4-27,10.9c3.7-4.7-1.9-7.8,6.4-11.2c-4.1,0-7.8-0.8-7.9,2.2c-2.4-2.7-11.4,5.9-15.2,1.8
	c-1.7,1.9-2.3,6.5-6.9,6.1c-0.2-0.5-0.3-1.1-0.1-1.7c-1,1.8-6.8,2.8-3,7.2c-12.7-13.6-35.5,0.9-46.5-10.8c-9.3,1.5-18.6,2.6-28,3.1
	c0.5-1.3,0-2.2,1.6-1.7c-11.2-4.1-7,12.4-19.8,7.9c-6.5-7,6.8-3.8,2.7-6.4c-1.7-14.3-15.5,1.9-24-6.5l2.1-0.8
	c-6.6-4.9-16.1,5.4-26.9,4.2c0.3-0.7,0.3-1.5,0.1-2.2c-7.4,7.2-21.3,9.5-31.7,11.4c3.2-5.6,4.7-2.9,2.8-8.6c-4.7,0.8,1.3,9.1-8,10.6
	c-3-3.1-9.7-5.8-10.5-11.9l8.7-0.2c-4.4-7.9-11.3,0.2-15.9-1.2l0.6-3.4c-13.4,1-13.7,9.6-28,8.9l1.5,2.6c-7.9,8.5-6.6-4.9-14.5,1.4
	l-2.3-8.7c-5.2,2-18.2,8.3-27.6,9.7c5.3-6.3,16.3-9.5,23-13.3c-5.1-0.1-17.5,0.5-20.2,4.7c2.1-0.8,4.7-2.9,6.8-1.5
	c-6.4,6.7-14.7,10-25,9.6c2-16.8-26.7-4.7-34-17.8c-18.2,6-36-3.2-57.1-2.5c7.3,13.2-6.2,0.3-5,13.8c-4.9,0.8-6.8,0.5-7.2-0.3l1,0.6
	c-0.4-0.3-0.7-0.4-1.1-0.7l0,0l-14.8-8.4c-3.5-4,4.7-2.8,4.3-5.9c-10.8-1.3-4.4-5.8-11.5-9.5c1.4,4.8-3.8,6.8-9.9,4.8l8.6,6.4
	c-15.2,6.8-12.8-11.6-28.1-4.8l4.9-4.1c-7.8,2.3-28.7-0.7-36.5,9.9c-1.4-1.6-3.1-5.3,0.3-6.2c-18.6-2.1-41.6,10.6-56,3.5l1.5-3.2
	c-3.5,0.8-6.2,6-10.4,2.5c0.2-1.3,1.5-3.2-0.2-3.5c-1.8,1.1-9.3,5.5-13.9,3.4l4-3.6c-18-4.9-28,8.2-43.3,10c0.2-9.7-14-13.3-21.1-15
	l0.3-1.4c-6-0.5-12.1-0.2-18,0.9c10.3,34.6,15.6,70.6,15.5,106.7c0,204.5-164.6,370.3-367.7,370.3S160.9,335.5,160.9,131
	c0-43,7.4-85.8,21.9-126.3c-16.2,0.7-32.4,1.2-48.1-4.2c-9.2-2.2-10.1,3.1-15.6,7.2L117,1.1c-3.1,2.7-6.2,5.2-9.3,8
	C101,12.3,95,8.5,88.5,5.4S75.1,0.2,66.8,6.2l2.5,4.3c-3.1-0.2-7.9,1-11.9,1.5s-7.1,0.5-6.7-2.2c-0.6,0.9-1.7,4.9-4.2,2.8L46,9.2
	c-4.9,2.5-9.7,5.3-14.5,7.9c-5.9-0.5-5.9-3.9-6.4-7.1s-1.8-6.1-10.4-5C8.4,7.4-2.3,18.1,0.4,20c2.6-0.3,6.8,1,7.4,4.4l-5.5,2.8
	c0.2,10.3-2.7,21.4,11.9,26.1l8.9-7.8l3.3,4V50c-2.6,0.5-5.1,1.1-7.6,1.6c3.4,2.6,5.6,1.3,7.7-0.8l2.2,951.1
	c-1.5,1.8-2.1,3.3-1.2,3.7c0.4-0.1,0.8-0.2,1.2-0.2v4.8l-0.2,1l0.2-0.1v1.3l0.9-0.2c0.2,7.2-1,14.8,12.2,15.9l8.3-7.1l3.7,2.7
	l-7.7,2.5c5,2,7.2-1.7,9.9-4.6c1,1.6,2.7,2.6,4.6,2.8l7.7-9.6c1.6,2.5-3,6.9,3.4,6.7c3.6-4.5-5.3-5.2,1.3-9.4c5,2.1,4.2,5.2,8.9,1.1
	c1.1,1.7,0.2,3.2-1.7,4.5c4.2-3.4,12-4,13.8-8.5c5.3,3,15.4-4.9,16.1,2.1c1.3-1.8,2.8-3.3,4.6-4.7c2-1.8,4.4-3.2,6.9-4.1
	c-6.5,10,16.1-2.8,15.3,6.6c2.3-4.4,7.4-6.3,13.1-7.9c2.9-0.8,5.9-1.5,8.8-2.5c1.4-0.5,2.9-1,4.2-1.6c1.4-0.5,2.7-1.2,3.9-1.9
	c-0.4,0.6-1.2,1.7-2,1.8c5.5-0.2,7.5,1.7,11.3,2.5c0-6.4,8.9-9.3,13.3-14c7.8,4.8-3.5,8.1-0.6,13.5c-0.9-5,11.8-7.1,8.9-11
	c5.8,2.8,4.9,1,8.2,5.8c0.1-8.1,4.9-2,9-7.5c8.3,2.8,2.7,7.1,11.2,3.5c4.3,1.9-3.1,5.7-3.1,5.7c8.8-1,3.6-6.3,5.1-10
	c10.4-3.1,5.3,3.7,9.1,6.2c6.4-2.4,11-8.6,16-8.9c0.4,0.9,1.4,1.2,0.4,2.5c6.6-5.4,20.7-2.3,28.4-9.1c0.5,0.3,0.9,0.8,1.2,1.4
	c-1.3-2.5-1.9-5.2-1.8-8c4-0.5,7.2-4.5,8.9-0.8c-2.5,0.1-2.6,1.7-3.6,3l4.1-2.1c4.1,5.2-5.6,2.5-5.3,6.7c4-1.3,8.3-3.4,12.4-4.9
	s8-2.5,11.2-2c1.6,5.4-14.5,2.9-5.9,7.2c-3.3-0.4-6.5-1-9.8-1.3c7.9,7.9-5.9,0,1.4,8.5c12.8,0.6,14-3.9,26.8-3.2
	c2.7-3.2-1.2-4.4,1.5-7.7c17.8-6.8,14.8,12.6,27.7,4.7c3.3-3.8,4.4-10.8,14-7.6l-3,6.3c12.3,0,6.8-9.2,19.8-5.7
	c-2.2,2.5-9.6,2.5-7.7,3.2c8.5,4.5,5.8-3.8,12.2-4.1l1.5,5.4c13.1-1.2,27.5-5.6,42-7c-0.8,1.7-3.3,3.4,0.2,5
	c9.1-1.5,19-1.4,28.7-0.5c4.9,0.4,9.7,1,14.4,1.7s9.3,1.6,13.8,2.4l6.8-4.7c1.6,0.1,2.9,2.2,1.2,3.1c6.9,1.8,0.4-3,3.7-4.8
	c3.9-0.3,5.2,2.8,2.7,4.2c7.7-2.5,15.6-4.1,23.6-5c8.8-0.8,17.6-0.6,24,2.1l-2.5,1.5c10,2.1,11.4-9.5,20.7-4.9l-1.8,0.8
	c21.7,2.7,45.8-1,62.2,6.8c3.3-6.7,21.5,3.8,23.1-5.6c12.3,5.2,8.7,6.8,26.1,10.6c4.7,0.6,7.1-5.7,12.9-6.4v5l8-4.9l4,6.1l5.5-1
	c-2.2-0.4-4.5-2.4-4.2-3.8c8.5-1.9,20.5,4.3,20.7,6.9l20.2-3.3c-0.4,1.5-2.3,2.1-4.4,2.9c7.4-2.3,0.4,5.8,9.5,1.9
	c-1.3-1.2,0.8-2.9,1-3.9c4.8,3.2,15.9,3.7,24.2,2.7l-1.7,3.4c14.8,1.5,31.4-0.4,48.1,0.3c-5.9-1.8-4.4-7.7,0.5-8.1l1.8,5.3
	c3.2-3.1-5-2.2,1.5-5.9c6.2,0.8,4,6.1,0.4,7.7l7.6-1.5c0.4,1.6-1.4,2.3-1.9,4.3c3.2-3.1,13,5.8,17.6,0.3l0.4,1.6
	c16.7,0.6,24.3-0.9,37.9-0.7c0.4-4.5,5.7-3.3,9.8-6.8c10,1.8,21,5.8,33,5.8c8.5-2,2.5-3.8,6.4-6.3c0.5,4.1,12.6,4.2,6.3,6.9
	c14.5-0.2,18.5-0.2,36.8-3c-2-1.8-4.2-2.6-3-3.9c3.3-0.6,7.5,2,7,3.9l-0.9,0.4c20.2-5.5,46.1,12.8,62.7,5.8l17-4
	c7.8,0.9-4.7,3,1,5.7c18.4-6.4,28.8,1.8,44-2.4c11.4,12.5,41.3,0.3,57,8.3l-0.9-2.9c4.1-2.7,4.9,1.7,7.9,2.5
	c-0.4-2.2-4.4-2.7-1.8-4.2c17.2-1.4,35,0.1,52.8,2.2c8.9,1.1,17.9,2.4,26.8,3.6s17.8,2.3,26.6,3.1c12.9,1,7.5-14.7,23.7-7.6
	l-4.7,5.2c26.1-6,53.3,1.2,78.8-4c-1.5,1.2-1.6,2.8-4.1,2.8c5.4,3.9,19.9,0.4,20-2.7c4,0.4,0.9,2.9,3.3,4.5
	c5.4,2.3,13.6-4.8,16.4-0.9c0.3,0.4-0.4,0.8-1.2,1.1c4.6-1,14.7,0.7,11.7-3.4c9.6,2.2,18.3-1.8,25.9,1c5-4.9,16.4,2.5,18-4.5
	c-0.7,7.3,16.7,6,22.8,2.6c-2,2.2,5.2,2.3,2.9,5.4c6.9,0,13.2-1.3,12.1-5.1c12.7,8.8,25.6-6.8,32.7,4.4c20.5-3.7,39.5-6.4,58-8
	c-0.7,7.3-20.4,0.7-19.6,8.3c17.5-2.9,27.6-9.2,45-7.3c4.5,1-2.6,3.1-4.1,4.4c17.5-3,33.8,0.8,49.4-3.2c-2.8-4.4,11.3-9.1,13-11.6
	c-4.5,9,15.4,2.2,7.3,14c2-0.6,4.6-2.2,4.1-4.4c3,0.7,4,1.9,0.9,4.5c11-1.8,7.1-5.3,17-5.3c0,1.6-2,2.2-3.1,4.1
	c5-3.1,10.1-6.2,18.5-4.9c-0.4,0.8,0.2,1.9-1.2,2.2c14-0.8,24.1-8.2,39.6-5.3c-4.7,7,5.4,2.3,6.2,8.3l8.5-1.9l-3.4-2.9
	c7.5,0,14-4.4,20.5-2.5l-5.5,2.5l14-1.2l-7.9-2.2c7.5-3.2-0.8-7.6,9.1-6c-2,0.6,7.5,0,11.4,3.5l0,0c3.7-1.9,7.5-4,13-2.5
	c1.4,1.9-1.1,6.7-0.2,7.9c3.6-5.1,17.5-1.5,22.1-6.9c-1.5,1.3-1.6,4.4-1.1,5.1l3-4.1c3.5,1.3,4,1.9,3.4,4.4c10.4,0.6-3.3-7.6,9-4.4
	c-1,0.3-0.5,0.9-2.5,1.6c12.4,1.6,23.9-2.9,35.3-1c3.4,6-9.9,1.6-6.1,6.7c16.4-1.3,34-7.6,49.9-6.4l-3-0.6c2.1-8.6,11.9,4.1,19.9,0
	c-2,0.7-2.5,4.8-2,3.8c10.9,1.2,22.2-2.4,38.7-5.4l-2,2.2c6.4,1.9,16.9,0.9,23.8,1.8c2-2.2,6-1.9,3.6-5.1
	c10.8,6.1,20.9,4.3,30.8,2.2s19.4-4.5,29,0.5c-2.3,0.1-5.4,2-3.6,2l16.1-2.3c-1.3-3.7-2.1-2.2-5.6-5c1.8-1.7,3.9-2.9,6.3-3.5h2.7
	c-4.5,2.5,1.9,5.5,4.8,7.3c-0.5-1.1,0.5-2.4,0.2-3.6c6.5,4.9,3.9-2,7.3-3.7h4.3c0.4,0.1,0.8,0.2,1.3,0.4l-0.6,2
	c2.3-0.6,4.5-1.6,6.7-2.3h6.5c0.6,3-4.9,1.5-5.1,4.7c3.9-0.2,7.8-3.2,11.5-4.7h6.6c0.2,0.1,0.5,0.2,0.7,0.4
	c-2.8,1.3-6.7,1.4-9.5,2.6c6.5,4.9,7.2,3.6,12,4.3l-0.5-0.1l11.1,2.1l-2.8-1.3c7-10,14.4-4.4,23.4-7.9h1c-5.5,4.4,1.2,2.5,0.6,6.8
	c2.8,1.3,7.1,2.7,5.9,4.1c5.1-4.1,8.7,2.9,16-3c0.4,1.6,5.6,0,4.5,4c6.7-1.4-1.6-2.7-1.1-4.7c10.3-5.6,24.6,5.9,39.5-1.8
	c4.3-1.1,8.4-2.8,12.3-5.1l15.1,0c2.9,0.6,5.9,0.6,8.9,0h4.8c0.2,0.9,1.1,1.8,2.4,2.9c2.5-0.3,3.3-1.7,4.3-2.9h5
	c-1.1,2.1-2.5,4-4.3,5.6c5-1.4,9.9-3.9,15-5.6h2.7c0.4,2.2-4,3.7-5.9,5.4c5.6-1.2,13.8-2.5,17.7-5.3h6.5c-0.6,1.7-0.4,3.5,0.5,5
	c2.4-3.2,3.6-3.7,5.2-5l19.7,0.1l-1.5,3.5l5.2-1.6c0.4-0.5,0.6-1.2,0.5-1.9h3.9V72.3C2360.6,70.7,2369.2,68.6,2371,63.4z
	 M425.2,967.1l4.3-0.5v0.1L425.2,967.1z M439.4,966.2c-0.6-1.6,0-3.2,1.8-3.1c-1,1,3.2,1.9,5.8,3.2
	C444.9,966.2,442.2,966.2,439.4,966.2z M2051.8,981.8c-0.2-1.1-0.4-2.2-0.3-3.4h5.7C2056.6,979.8,2055.1,981,2051.8,981.8z
	 M2137.9,65.2h-7.6c2.7-3,6.4-4.8,10.4-4.9C2137.5,61.8,2137.1,63.5,2137.9,65.2L2137.9,65.2z M2167.6,65.1l-17.7,0.1
	c0.7-2.9,2-6,7.8-3.1l-0.6,2.7c4.4-1.4,8.5-5,13.3-4.3C2171.8,64.1,2169.5,64.2,2167.6,65.1z M2177,65.1h-4.8
	c4.3-2.9,8.6-6.4,12.6-2.6C2182.6,63.8,2179.6,64.1,2177,65.1L2177,65.1z M2219,64.9l-15,0.1c6-1.8,12.5,1.6,20.1-5.3
	C2221.1,62.2,2219.6,63.8,2219,64.9L2219,64.9z M2310.8,980.4c-4.2,2.6-6.7,0.7-7.9-1.1h9.1C2311.6,979.7,2311.2,980.1,2310.8,980.4
	L2310.8,980.4z M2313.2,63.5c0.9,0.4,1.9,0.8,2.9,1.1h-15.3c4.6-3.3,8.5-6.8,15.8-9C2320.8,59,2313.2,63.5,2313.2,63.5L2313.2,63.5z
	 M2331,64.6h-3c1.1-0.3,2.3-0.8,3.5-1.2C2331.2,63.7,2331,64.1,2331,64.6L2331,64.6z M2343.5,64.6h-4.9c1-1,2.3-1.4,5-0.2
	L2343.5,64.6z M2353.8,70.6v-4.7c1-0.4,1.9-0.8,2.9-1.1C2357.8,67.2,2355.8,68.9,2353.8,70.6L2353.8,70.6z"/>
<path class="st0" d="M528.6,501.3c203.1,0,367.7-165.8,367.7-370.3c0-36.2-5.2-72.1-15.5-106.8c-12.7,2.2-24.1,7-37.7,9.1
	c-11.9-11-41-6-60.4-12.6c2.9,1.9-0.7,7.5-4.2,8.4c-4.5-2.1-12.8,6.2-11.9-2.6l1.6,0.2c-3.2-8.8-12.7-6.9-20-7.4l-1.5,11.6
	c-9.4-8.8-22-7.9-33.5-6.6s-22,2.7-27-5.1c-4.7,2.7-10.5,2.4-15.2,5l0.5-6.2c-12.8-2.2-19.2-3.3-35.1-2.6l3.4-4.3
	c-8.9-0.8-11.9,17.4-20.2,17.4l-2.2-9.3c-15.6-0.6-31.1-9.8-46.9-2.2c0.3-1.4,0.9-4,3.4-4.2c-7.1-0.6-26.7-7.4-26.2,3.7
	c-1.6-6.3-16.4-0.3-24.5,2.7l1.6-6.1c-7.4,7.4-7.8,9.5-17.8,11.1c-2.1-0.8-1.9-4.2,0.3-3.6c-6.7-2.5-5.9,5.6-14.9,2l3.7-3.7
	c-8.1-0.9-7.5,1.2-12.1,5.5c-5.2,2.2-15.3-2.6-16.2-8.2c-1.2,3.3-5.9,7.5-10.5,5.6c-0.5-2.1,1.2-3.3,2.1-3.9
	c-13.3-5.1-20.4,5.7-29.4-0.9c-0.1-2-0.7-3.1-1.4-3.8c9.9,0.8,17.9,1.7,18.5,2.1c0.1-5.6-8.3-7.2-1.1-14.4
	c-7.1,3.8-19.5,12.2-27.8,9c-0.4-0.6-0.8-1.3-1-2l0.9-0.6c-1.8-0.6-3.7-0.4-5.4,0.6c-2.7-1.1-4.3-1.9-6.9-2.2
	c-0.8-4.7-9.8-3.2-14.1-3.7c0.1,6.1-5.4,4.9-0.6,10.1c-0.1-0.4,1.4-0.5,3.9-0.6c0.6-0.1,1.3-0.2,1.9-0.5c-0.1,0.2-0.2,0.4-0.3,0.5
	c2.9,0,6.5,0.1,10.8,0.3c-3.6,2.9-7.3,5.3-11.9,1.6c-2.4,3.8-5,7.7-6.5,9.6c-5.5-9-16.7-14.4-18-19.9C357.4,5.5,339.5,3,330.6,14
	c-3.8,1.2-4.1-3.6-5.5-5.6c2.2-1,4.8-0.6,6.1-2.2c-7.7,2.4-22.3-0.5-24.5,7.5c-9.3-4.3,5.7-7.1-7.4-6.7l1.9-2.3
	c-12.5-7.5-23.2-3-34.2,1c-10.6,3.9-21.4,7.3-34.7-0.5c0.8,0.4,1.4,1.2,1.7,2.1C226,5.1,217.7,4,209.4,4c-4.2-0.1-8.3-0.1-12.5,0.1
	l-12.6,0.6l-1.5,0.1c-14.6,40.5-22,83.2-21.9,126.3C160.9,335.5,325.6,501.3,528.6,501.3z M399.4,5.8c-0.1,0.2-0.3,0.5-0.4,0.7
	c0.2-1.1,0.7-2.1,1.3-3c2.9-0.7,3.8,0.6,4.2,1.9C402.8,5.5,401.1,5.6,399.4,5.8z M265.4,29.8c4.1,0.1,7.9-4.6,9.2,0.8
	c-0.4-0.1-0.8,0-1.2,0.1l-8.1-0.2C265.3,30.3,265.3,30.1,265.4,29.8L265.4,29.8z"/>
<rect x="2343.5" y="70.5" class="st0" width="49.9" height="989"/>
<rect x="-106.4" y="943.4" class="st0" width="2595.1" height="192"/>
<rect x="-87.8" y="14.4" class="st0" width="136.3" height="1121"/>
</svg>
