<svg id="圖層_1" data-name="圖層 1" xmlns="http://www.w3.org/2000/svg" viewBox="0 0 2371 1028"><defs><style>.cls-1{fill:#f3ede6;}</style></defs><path class="cls-1" d="M2371,63.38l-3.35-1.51c.82,1.34-.21,4.77-1.67,5.64-5.95,4.73-8.68-1.91-9-4.06l4.42-1.45c-4.7-12.5-17.81,2.3-26.75,1.72l3.62-9.21-9.08,7.74c-2-2.35-3.37-7.44,1-8.89-6.46-4.41-5.63,3.34-11.2-1.6-.62-.78-.35-1.22.22-1.59L2313,53c1.2-2-1.12-6.45,2.75-5.18-11.3-5.1-18,7.15-22.35.29l.93-.58c-15.55,3.34-1.43,6.74-13,14.81l-8.05-16.44-1.47,6.74c-1.61-.22-4.8-.67-4.24-3.36-5.94,4.69,1.05,2.9-2.38,7.29-7.81-6-21.31,3.18-23.18-7.49-2.73,5.15,7.45,3.82-.79,7.5-2.48-11.47-9.52,2.12-16.65-3.06,2.11-6,8.85-2.93,1.71-8.12-4.16,10.11-13.8-2-19.74,0-.19,8-12.93,3.53-22.92,6.35.6-2.69-18.89-4.1-28.22-6.85l.25-1.34c-1.72,8.11-11.35,6.73-18.32,8.5.23-4.86,1.47-6.77,5.24-9l-6.57.13c-1.53,2.61-3.56,4-7.82,5l1.6-6.06c-8.75.45-17.55,7.35-28.85,3.48-.58,5.64,9.1,15.55-2.77,19.48-.47-3-1-8.24,2.15-9.53-1,.41-3.61,2.58-5.68,1.32l4.7-5.19c-5.15-2.18-2.64,4.32-6.75,3.9,0-4.35-3.07-3.06-2.51-6.51,1-.43,3.59,1.75,5.15,0-4.63-.71-10.24-3.22-12.12-6.48.42,2.47.06,5.85-3.32,6.45-8.76.44-3.05-5.18-8.18-7.35-2.09,3-7.69,0-7.79,6.5-2.56,0-3.07-3-4.07-4.77-4.5,2.93-21.15,1.11-16,8l1.16.43c-.22.13-.47.15-.74.29-14.79,6.67-30.87-3.26-45.57-.31V49.66c-8.77,2.59-19.55,1.69-25.79,6.44-2.61,0-6.17-3.91-5.08-6.5-6.71,1.71-7.45,4.16-17.18.7,6.73-3.86-2.35-3.34,6.9-2.85-8.76-1.78-10.76-5.23-20.09.81,3.15-5.6-6.63-6.92-10.76-5.22l6.14,3.92c-4.65.87-8.75.42-12.9,0l2.18-7.35c-17.92-8.7-32.11,15.54-45.82.74-4.69,5.17,9.74,3.51,5.54,9.54-8.23-.9-16.86-11.34-19.43-11.34-11.29-4-10.44,10.79-22.23,8.12,1.52,2.59,3,9.55-5.81,12.08-8.23-.89-10.18-10.85-5-13,2-.23,2.94.58,2.85,1.47,2.66-1,6.14-2.11,2.86-4.92l-1.05,2.61c-4.1-2.63-15.41-2.25-12.78-6.56-5.31,2.18-3.44,3.79.09,5-9.42-2.66-15.27.47-25.47-1.82,1.73,1.42,3.34,4.47,1.62,4.47-15.94-3.09-7,5-17.77,6.26-6.15-3.92,2.15-9.52-8.7-6.09-6.65-2.63-1.45-6.91,1.18-9.07-9.86,5.14-18.51-3.18-24.16-4.07l5.2-2.13a20,20,0,0,1-8.26,1.25l3,5.2c-3.06-.89-5.66-.9-5.61-3.07-3.14,3.44,2.45,8.67-3.78,13.38-4.1-2.63-12.42,2.92-13.86-4,11.64,2.06,1-5.32,7-7.6a14.13,14.13,0,0,1-5.28-.6c-.46-.78.42-1.44,1.26-1.84-12.31-6.13-5.62,7.86-18.34,7.78,1.6-3.92-3-7.39-5.06-6.55,5.13,0,2.47,6.51-2.22,9.52-8.17-3-8.86,2.31-13.14,2l4.89,1.41c-1.64,3.9-5.72,3.41-11.41,4.68a1.67,1.67,0,0,1,.84-1.83c-5.91,2.26-13-8.1-20.81-4-4.08-2.63-.41-7.34-4-9.11-9.85,5.11-10.7-5.3-21.07-1,3,5.23,3.53,3.95-3.77,9.09l17-3.78-10.94,7.69c5.16,0,10.85-3.37,13.94-2.49-5.2,4.31-4.66,3-2.19,7.35-7.07-7.85-14,4.68-22.11-.63l.22-13c-12.26-5.77-21.74,6.69-37.63,3.44l5.11,2.25c-2.12,5.17-9.82.74-15,2.83.48-4.36-2.74-5.92-4.94-8.63.27,3.22-11.64-.27-13.07,8.4l-7.1-5.72c-12.84-2.32-14.65,12.4-27,10.93,3.72-4.72-1.89-7.8,6.38-11.19-4.12,0-7.82-.83-7.89,2.18-2.4-2.72-11.42,5.87-15.22,1.75-1.73,1.91-2.3,6.47-6.93,6.1a2.49,2.49,0,0,1-.14-1.66c-1,1.81-6.77,2.79-3,7.23-12.68-13.59-35.47.86-46.5-10.81a253.92,253.92,0,0,1-28,3.06c.53-1.3,0-2.17,1.57-1.71-11.25-4.09-7,12.43-19.76,7.89-6.52-7.05,6.81-3.78,2.74-6.44-1.72-14.31-15.47,1.89-24-6.48l2.09-.85c-6.58-4.86-16.1,5.37-26.87,4.22a2.92,2.92,0,0,0,.07-2.15c-7.39,7.21-21.34,9.5-31.72,11.43,3.25-5.56,4.73-2.91,2.79-8.61-4.65.77,1.31,9.14-8,10.65-3-3.09-9.66-5.82-10.51-11.89l8.74-.25c-4.42-7.89-11.31.15-15.91-1.25l.6-3.42c-13.39,1-13.65,9.62-28,8.87l1.47,2.6c-7.93,8.5-6.56-4.87-14.46,1.42l-2.31-8.7c-5.21,2-18.25,8.26-27.58,9.7,5.34-6.33,16.26-9.5,23-13.27-5.14-.11-17.5.47-20.21,4.69,2.08-.8,4.71-2.89,6.75-1.52-6.36,6.73-14.71,9.95-25,9.64,2-16.8-26.7-4.65-34-17.85-18.21,6-36-3.2-57.08-2.53,7.34,13.21-6.17.27-5,13.75-4.9.77-6.78.52-7.22-.35l1,.58c-.44-.27-.7-.42-1.06-.66v0l-14.79-8.36c-3.48-4,4.72-2.85,4.31-5.88-10.76-1.28-4.44-5.8-11.52-9.53,1.39,4.83-3.84,6.8-9.95,4.82l8.55,6.4c-15.15,6.81-12.85-11.58-28.12-4.84l4.86-4.12c-7.82,2.32-28.71-.74-36.51,9.89-1.36-1.59-3.12-5.29.32-6.19-18.57-2.07-41.61,10.65-55.95,3.5l1.46-3.25c-3.49.84-6.15,6-10.43,2.55.25-1.35,1.46-3.23-.15-3.48-1.85,1.08-9.33,5.48-13.89,3.43l4-3.58c-18-4.85-28,8.17-43.3,10,.24-9.68-14-13.26-21.06-15l.28-1.37a69.6,69.6,0,0,0-18,.85A372.63,372.63,0,0,1,896.28,131c0,204.53-164.63,370.33-367.69,370.33S160.9,335.53,160.9,131A372.21,372.21,0,0,1,182.82,4.74c-16.25.74-32.37,1.2-48.1-4.23-9.21-2.18-10.13,3.11-15.62,7.2L117,1.13c-3.13,2.68-6.25,5.25-9.34,8C101,12.3,95,8.54,88.5,5.44S75.08.18,66.81,6.15l2.49,4.28c-3.11-.23-7.93,1-11.88,1.54s-7.06.46-6.74-2.16c-.57.89-1.65,4.86-4.25,2.79L46,9.16c-4.88,2.53-9.73,5.29-14.54,7.91-5.94-.45-5.85-3.93-6.38-7.1S23.32,3.83,14.68,5C8.38,7.41-2.26,18.08.43,20,3,19.71,7.2,21,7.8,24.43L2.28,27.19C2.48,37.5-.38,48.58,14.14,53.34L23,45.52l3.26,4V50c-2.56.49-5.1,1.06-7.65,1.58,3.44,2.63,5.65,1.33,7.66-.77l2.19,951.06c-1.5,1.84-2.15,3.29-1.22,3.65a7.58,7.58,0,0,1,1.22-.2v4.77l-.25,1,.25-.13v1.26l.86-.17c.23,7.17-1,14.78,12.24,15.92l8.26-7.14,3.67,2.67L45.83,1026c5.05,2,7.22-1.71,9.93-4.64a5.92,5.92,0,0,0,4.6,2.77l7.66-9.64c1.63,2.55-3,6.88,3.37,6.68,3.62-4.48-5.26-5.23,1.34-9.42,5,2.07,4.24,5.23,8.91,1.06,1.06,1.71.18,3.18-1.72,4.52,4.2-3.4,12-4,13.76-8.49,5.3,3,15.45-4.94,16.13,2.14a23.26,23.26,0,0,1,4.59-4.68,20.71,20.71,0,0,1,6.9-4.06c-6.53,10,16.1-2.81,15.34,6.6,2.32-4.36,7.43-6.28,13.15-7.89,2.86-.8,5.87-1.53,8.78-2.45,1.45-.46,2.87-1,4.24-1.57a25.15,25.15,0,0,0,3.9-1.9c-.42.59-1.17,1.65-2,1.85,5.51-.21,7.48,1.69,11.26,2.47,0-6.37,8.85-9.33,13.3-14,7.79,4.85-3.49,8.08-.59,13.51-.94-5,11.75-7.14,8.88-11,5.84,2.82,4.89,1,8.22,5.76.13-8.06,4.93-2,9-7.48,8.28,2.81,2.74,7.08,11.18,3.53,4.34,1.86-3.09,5.67-3.09,5.67,8.81-1,3.58-6.35,5.15-10,10.4-3.09,5.27,3.71,9.11,6.25,6.43-2.42,11-8.61,16-8.92.45.93,1.43,1.19.4,2.53,6.62-5.42,20.68-2.35,28.43-9.11a3.25,3.25,0,0,1,1.16,1.37,15.52,15.52,0,0,1-1.79-8c4-.51,7.17-4.51,8.92-.77-2.45.13-2.56,1.72-3.63,3l4.08-2.12c4.11,5.21-5.58,2.51-5.31,6.65,4-1.29,8.3-3.44,12.41-4.93s8-2.55,11.19-2c1.6,5.36-14.51,2.91-5.9,7.16-3.27-.44-6.53-1-9.79-1.32,7.88,7.88-5.88,0,1.43,8.54,12.76.56,14-3.87,26.76-3.23,2.7-3.24-1.17-4.43,1.54-7.67,17.81-6.78,14.76,12.6,27.71,4.68,3.28-3.81,4.38-10.81,14-7.61l-3,6.35c12.33,0,6.75-9.25,19.78-5.72-2.23,2.55-9.62,2.52-7.74,3.18,8.49,4.48,5.8-3.83,12.24-4.1l1.48,5.44c13.09-1.22,27.48-5.57,42-7-.79,1.66-3.26,3.44.17,5,9.15-1.47,19-1.37,28.68-.55,4.86.42,9.7,1,14.43,1.71s9.34,1.6,13.77,2.43l6.78-4.68c1.57.07,2.91,2.16,1.2,3.06,6.89,1.84.37-3,3.69-4.83,3.93-.31,5.18,2.76,2.68,4.16a119.9,119.9,0,0,1,23.58-5c8.78-.85,17.64-.56,24,2.11L546,972.91c10,2.13,11.44-9.48,20.67-4.86l-1.8.8c21.7,2.71,45.83-1,62.25,6.85,3.32-6.71,21.45,3.84,23.09-5.61,12.3,5.17,8.7,6.75,26.11,10.63,4.65.63,7.12-5.65,12.93-6.4v5l8-4.89,4,6.11,5.47-1c-2.16-.38-4.52-2.43-4.16-3.85,8.53-1.88,20.55,4.34,20.68,6.9l20.16-3.35c-.38,1.46-2.31,2.14-4.39,2.87,7.36-2.33.39,5.81,9.55,1.9-1.28-1.18.8-2.93,1-3.93,4.8,3.2,15.93,3.67,24.21,2.74l-1.68,3.36c14.85,1.46,31.41-.39,48.11.33-5.94-1.84-4.42-7.72.49-8.1l1.82,5.33c3.25-3.12-5-2.19,1.54-5.89,6.22.85,4,6.14.41,7.7l7.63-1.52c.4,1.59-1.4,2.33-1.92,4.32,3.2-3.14,13,5.8,17.59.3l.39,1.58c16.69.63,24.31-.91,37.92-.7.38-4.52,5.67-3.32,9.81-6.84,10,1.79,21,5.75,33,5.79,8.51-2,2.55-3.76,6.42-6.31.54,4.14,12.56,4.18,6.26,6.93,14.46-.17,18.47-.24,36.83-3-2-1.76-4.16-2.57-3-3.93,3.33-.58,7.5,2,7,3.93l-.88.39c20.25-5.45,46.13,12.8,62.69,5.78l17-4c7.79.92-4.74,3,1,5.69,18.4-6.41,28.85,1.75,44-2.44,11.44,12.47,41.35.26,57,8.33l-.86-2.89c4.11-2.74,4.89,1.74,7.88,2.47-.39-2.24-4.36-2.67-1.82-4.18,17.24-1.37,35,.06,52.84,2.25,8.93,1.09,17.87,2.38,26.81,3.58s17.82,2.29,26.64,3.09c12.91,1,7.51-14.72,23.7-7.59l-4.68,5.24c26.13-6,53.28,1.17,78.84-4-1.53,1.2-1.59,2.81-4.08,2.76,5.36,3.94,19.92.43,20-2.74,4,.41.9,2.87,3.34,4.51,5.38,2.35,13.6-4.77,16.45-.89.3.39-.38.78-1.18,1.09,4.64-1,14.73.65,11.74-3.4,9.56,2.25,18.33-1.76,25.94,1,5-4.93,16.38,2.54,18-4.51-.73,7.29,16.74,6,22.82,2.63-2,2.19,5.24,2.33,2.86,5.36,6.91,0,13.25-1.35,12.06-5.11,12.68,8.82,25.61-6.84,32.73,4.4,20.54-3.72,39.53-6.41,58-8-.67,7.28-20.4.67-19.63,8.3,17.53-2.94,27.64-9.16,45-7.34,4.49,1-2.56,3.14-4.08,4.39,17.5-3,33.82.8,49.38-3.22-2.8-4.41,11.33-9.1,13-11.62-4.49,9,15.44,2.17,7.29,14,2-.63,4.55-2.2,4.08-4.42,3,.65,4,1.93.91,4.46,11-1.82,7.08-5.33,17-5.27,0,1.6-2,2.22-3.07,4.11,5-3.13,10.1-6.25,18.51-4.92-.44.85.24,1.9-1.22,2.15,14-.79,24.1-8.2,39.64-5.35-4.66,7,5.39,2.26,6.25,8.27l8.52-1.86-3.43-2.9c7.47.05,14-4.38,20.48-2.45l-5.54,2.51,14-1.23-7.93-2.24c7.54-3.15-.84-7.61,9.1-6-2,.62,7.47,0,11.38,3.55h0c3.69-1.94,7.47-4,13-2.52,1.44,1.92-1.12,6.66-.18,7.94,3.61-5.06,17.48-1.51,22.06-6.9-1.53,1.26-1.6,4.43-1.08,5.07l3-4.1c3.47,1.27,4,1.9,3.43,4.43,10.4.63-3.35-7.6,9-4.44-1,.34-.5.94-2.51,1.59,12.41,1.57,23.93-2.86,35.34-1,3.4,6-9.94,1.59-6.07,6.67,16.43-1.28,34-7.64,49.88-6.38l-3-.64c2.13-8.59,11.88,4.11,19.88-.05-2,.67-2.54,4.79-2,3.82,10.89,1.21,22.24-2.44,38.7-5.4l-2,2.23c6.44,1.87,16.91.87,23.84,1.77,2-2.23,6-1.94,3.56-5.09,10.75,6.08,20.92,4.26,30.79,2.17s19.42-4.52,29,.5c-2.27.06-5.38,2-3.58,2l16.13-2.34c-1.33-3.7-2.15-2.2-5.58-5a13.64,13.64,0,0,1,6.3-3.47h2.72c-4.49,2.5,1.93,5.48,4.82,7.32-.54-1.13.52-2.4.23-3.56,6.48,4.9,3.88-2,7.31-3.72h4.31c.4.12.81.24,1.27.41l-.58,2c2.28-.58,4.46-1.59,6.7-2.35l6.5,0c.57,3-4.9,1.45-5.12,4.7,3.94-.22,7.77-3.23,11.51-4.68H2135c.24.14.47.25.71.41-2.75,1.26-6.74,1.36-9.49,2.6,6.51,4.93,7.24,3.63,12,4.34l-.48-.1,11.1,2.06-2.84-1.31c7-10,14.4-4.43,23.4-7.89h1c-5.54,4.39,1.24,2.47.58,6.78,2.84,1.29,7.13,2.71,5.93,4.1,5.14-4.07,8.74,2.9,16-3,.35,1.57,5.56,0,4.46,4,6.74-1.41-1.65-2.7-1.1-4.68,10.33-5.64,24.61,5.91,39.47-1.84a47,47,0,0,0,12.28-5.06l15.12.05a23.08,23.08,0,0,0,8.88,0h4.79c.17.87,1.15,1.75,2.42,2.88,2.48-.28,3.28-1.74,4.28-2.87l5,0a18.53,18.53,0,0,1-4.32,5.61c5-1.39,9.92-3.89,15-5.59l2.73,0c.38,2.25-4,3.69-5.92,5.36,5.57-1.18,13.84-2.46,17.7-5.32l6.54,0a6.12,6.12,0,0,0,.47,5c2.35-3.23,3.64-3.67,5.22-5l19.67.06-1.48,3.51,5.2-1.57a2.55,2.55,0,0,0,.5-1.92h3.85V72.28C2360.56,70.65,2369.18,68.55,2371,63.38ZM425.19,967.06l4.31-.46v.09Zm14.23-.81c-.62-1.57,0-3.18,1.79-3.12-.95,1,3.2,1.92,5.82,3.22C444.9,966.19,442.24,966.19,439.42,966.25Zm1612.4,15.55a13.28,13.28,0,0,1-.31-3.38l5.73,0C2056.64,979.78,2055.06,981,2051.82,981.8Zm86.1-916.62-7.64,0a14.77,14.77,0,0,1,10.45-4.93C2137.52,61.76,2137.09,63.48,2137.92,65.18Zm29.7-.1-17.69.06c.74-2.88,2-6,7.81-3.1l-.61,2.68c4.45-1.43,8.51-5,13.34-4.34C2171.76,64.1,2169.51,64.23,2167.62,65.08Zm9.37,0h-4.76c4.34-2.92,8.55-6.42,12.64-2.59C2182.61,63.79,2179.58,64.14,2177,65Zm42-.14-15,.06c6-1.76,12.47,1.57,20.05-5.29C2221.08,62.22,2219.6,63.81,2219,64.9Zm91.79,915.42c-4.19,2.62-6.74.74-7.95-1.07l9.09,0A3.22,3.22,0,0,1,2310.75,980.32Zm2.43-916.86a25.7,25.7,0,0,0,2.9,1.1l-15.33,0c4.64-3.33,8.47-6.79,15.77-9C2320.75,59,2313.18,63.46,2313.18,63.46Zm17.74,1.05h-3c1.13-.33,2.28-.75,3.48-1.23A2.8,2.8,0,0,0,2330.92,64.51Zm12.55,0h-4.91c1-1,2.29-1.39,5-.17Zm10.28,6V65.9c1-.4,1.93-.79,2.9-1.1C2357.76,67.23,2355.82,68.94,2353.75,70.52Z"/><path class="cls-1" d="M528.64,501.31C731.7,501.31,896.33,335.5,896.33,131a373.38,373.38,0,0,0-15.54-106.8c-12.73,2.18-24.12,7-37.74,9.11-11.88-11-41-6-60.38-12.65,2.93,1.87-.7,7.52-4.2,8.36-4.52-2.14-12.85,6.23-11.87-2.61l1.63.22c-3.2-8.83-12.68-6.89-20-7.41l-1.55,11.56c-9.37-8.76-22-7.87-33.54-6.63s-22,2.7-27-5.1c-4.73,2.68-10.48,2.38-15.17,5l.45-6.21c-12.79-2.21-19.18-3.29-35.11-2.57l3.4-4.3c-8.94-.84-11.93,17.41-20.21,17.38L617.3,19c-15.64-.59-31.13-9.78-46.89-2.21.3-1.35.86-4,3.41-4.23-7.1-.64-26.73-7.41-26.16,3.69-1.57-6.28-16.44-.27-24.54,2.71l1.56-6.05c-7.44,7.42-7.76,9.53-17.79,11.14-2.07-.83-1.93-4.17.3-3.63-6.7-2.52-5.85,5.65-14.85,2l3.71-3.71c-8.06-.93-7.5,1.2-12.15,5.5-5.19,2.19-15.26-2.57-16.22-8.17-1.23,3.3-5.85,7.51-10.54,5.59-.55-2.13,1.23-3.31,2.13-3.89-13.32-5.09-20.4,5.74-29.42-.91-.1-2-.66-3.09-1.41-3.76,9.86.8,17.93,1.66,18.53,2.09.14-5.56-8.32-7.16-1.13-14.44-7.14,3.77-19.46,12.21-27.79,9a7.31,7.31,0,0,1-1-2l.91-.58a6.55,6.55,0,0,0-5.38.55c-2.66-1.11-4.33-1.92-6.91-2.17-.78-4.73-9.82-3.19-14.12-3.72.06,6.14-5.41,4.87-.65,10.11-.1-.35,1.37-.51,3.9-.56a5.28,5.28,0,0,0,1.87-.51,4.87,4.87,0,0,1-.32.52c2.85,0,6.54.13,10.76.32-3.56,2.9-7.26,5.29-11.87,1.55-2.41,3.81-5,7.73-6.51,9.55-5.5-9-16.66-14.44-18-19.86-13.36,2.6-31.19.11-40.09,11.07-3.83,1.21-4.14-3.64-5.47-5.57,2.24-1,4.81-.63,6.07-2.22-7.66,2.41-22.32-.49-24.52,7.49-9.29-4.33,5.7-7.09-7.39-6.68l1.88-2.35C288.68-2.84,278,1.64,267,5.63c-10.6,3.92-21.43,7.3-34.7-.49A3.44,3.44,0,0,1,234,7.25,97.93,97.93,0,0,0,209.42,4q-6.24-.14-12.52.08l-12.57.59-1.47.07a372.2,372.2,0,0,0-21.93,126.25C160.94,335.5,325.57,501.31,528.64,501.31ZM399.42,5.82a7.28,7.28,0,0,0-.37.74,9.14,9.14,0,0,1,1.28-3c2.91-.68,3.82.61,4.16,1.89A42.25,42.25,0,0,0,399.42,5.82Zm-134.06,24c4.14.13,7.91-4.62,9.23.79a2.65,2.65,0,0,0-1.22.09l-8.1-.19C265.31,30.31,265.33,30.07,265.36,29.85Z"/><rect class="cls-1" x="2343.54" y="70.52" width="49.94" height="989.03"/><rect class="cls-1" x="-106.39" y="943.42" width="2595.1" height="192"/><rect class="cls-1" x="-87.81" y="14.39" width="136.26" height="1121.03"/></svg>