<svg xmlns="http://www.w3.org/2000/svg" viewBox="0 0 355.42 157.68"><defs><style>.cls-1{fill:#fff;}.cls-2{fill:#666;}</style></defs><g id="圖層_2" data-name="圖層 2"><g id="圖層_2-2" data-name="圖層 2"><path class="cls-1" d="M28.16,55.33V0H45q29.3,0,29.29,27,0,13-8.34,20.66t-21.38,7.7Zm8.58-48V48h7.53q9.79,0,15.38-5.48t5.59-15.34q0-9.69-5.32-14.74t-15.43-5Z"/><path class="cls-1" d="M119.6,55.33H89V0h29.4V7.36H97.53V23.65h19.32V31H97.53V48H119.6Z"/><path class="cls-1" d="M180.46,55.33h-9.57L144.42,14.54a24.83,24.83,0,0,1-2.14-3.9h-.22a64.47,64.47,0,0,1,.32,8.08V55.33h-8.32V0h10.15l25.68,40q1.81,2.85,2.43,4h.18a56.15,56.15,0,0,1-.4-7.93V0h8.36Z"/><path class="cls-1" d="M233.57,7.36H217.68v48h-8.61v-48H193.21V0h40.36Z"/><path class="cls-1" d="M285.15,55.33h-9.43l-5.18-14.4H248.39l-4.93,14.4H234L254.89,0h9.54Zm-17-21.5L260.43,12a23.65,23.65,0,0,1-.86-4.18h-.25a20.91,20.91,0,0,1-.89,4.11l-7.68,21.9Z"/><path class="cls-1" d="M327.44,55.33H297.25V0h8.57V48h21.62Z"/><path class="cls-1" d="M8.57,109.35v48.33H0V102.35H8.57Z"/><path class="cls-1" d="M77.08,157.68V122q0-4.68.5-11.11h-.21a47.21,47.21,0,0,1-1.68,6L58.86,157.68H53.25L36.36,117.21a43.62,43.62,0,0,1-1.68-6.36h-.21q.35,5,.35,12.07v34.76h-8V102.35h12l15,36.54A41.21,41.21,0,0,1,56.11,146h.25c.45-1.5,1.29-3.91,2.5-7.22l15.22-36.43h11.5v55.33Z"/><path class="cls-1" d="M112.4,137.43v20.25h-8.57V102.35h16.71q9.4,0,14.4,4.34t5,12.59a16.69,16.69,0,0,1-6,13.38,21,21,0,0,1-14.76,4.77Zm0-27.9v20.75h6.14q12.4,0,12.4-10.64,0-10.11-11.9-10.11Z"/><path class="cls-1" d="M184.16,157.68H154V102.35h8.58v48h21.61Z"/><path class="cls-1" d="M243.8,157.68h-9.42l-5.18-14.39H207.05l-4.93,14.39h-9.43l20.86-55.33h9.54Zm-17-21.5-7.71-21.83a23.65,23.65,0,0,1-.86-4.18H218a20.59,20.59,0,0,1-.89,4.11l-7.68,21.9Z"/><path class="cls-1" d="M302.31,157.68h-9.57l-26.47-40.79a24,24,0,0,1-2.14-3.9h-.22a64.47,64.47,0,0,1,.32,8.08v36.61h-8.32V102.35h10.14l25.69,40q1.81,2.85,2.43,4h.17a58.11,58.11,0,0,1-.39-7.93v-36h8.36Z"/><path class="cls-1" d="M355.42,109.71h-15.9v48h-8.6v-48H315.06v-7.36h40.36Z"/><path class="cls-2" d="M73.45,60.54a21.61,21.61,0,0,0-4.28-2.48,14.08,14.08,0,0,0-3.74-1,14.7,14.7,0,0,0-3.57,0c-1.18.15-2.42.34-3.74.56a28.85,28.85,0,0,0-3.35.88,13.35,13.35,0,0,0-3.25,1.55,8,8,0,0,0-2.36,2.41,4.83,4.83,0,0,0-.61,3.37,4.56,4.56,0,0,0,1.38,2.26,17.24,17.24,0,0,0,2.81,2.18,31.39,31.39,0,0,0,3.76,2c1.39.65,2.81,1.27,4.26,1.89s2.9,1.18,4.32,1.7L69,77.38l2.49.94a18.61,18.61,0,0,1,1.85.76A27.65,27.65,0,0,1,78.18,82a26,26,0,0,1,4,3.7,22.33,22.33,0,0,1,3.07,4.41,20.36,20.36,0,0,1,1.89,5,21.63,21.63,0,0,1,.27,9.38,24,24,0,0,1-3.15,8.15,22.51,22.51,0,0,1-5.5,6.13A18,18,0,0,1,72,122a17.29,17.29,0,0,1-6.75.15,21,21,0,0,1-6.87-2.4,21.46,21.46,0,0,1-5.87-4.87,18.85,18.85,0,0,1-3.81-7.25,18,18,0,0,1,.25-8.7,24.34,24.34,0,0,1,3.86-7.89,32.31,32.31,0,0,1,6.44-6.52,34.79,34.79,0,0,1,8-4.61l-3.44-1.41C62.43,78,61,77.36,59.46,76.65s-3-1.47-4.56-2.3a39.27,39.27,0,0,1-4.17-2.63,18,18,0,0,1-3.14-2.85,6.19,6.19,0,0,1-1.51-3,6.89,6.89,0,0,1,.47-3.81,9.32,9.32,0,0,1,2.27-3.16,13.26,13.26,0,0,1,3.52-2.31,15.87,15.87,0,0,1,4.24-1.29A34.15,34.15,0,0,1,64,54.14a18,18,0,0,1,5,.53,10.8,10.8,0,0,1,3.47,1.59c.94.68,1.89,1.35,2.84,2ZM51.34,106.9a16.75,16.75,0,0,0,14.19,12.7,18.31,18.31,0,0,0,5.6-.08A14.39,14.39,0,0,0,77,116.87a19.82,19.82,0,0,0,4.78-5.08,22.36,22.36,0,0,0,2.93-6.69,18.09,18.09,0,0,0,.34-7.44,21.62,21.62,0,0,0-1.79-5.92,19.07,19.07,0,0,0-3.11-4.63,20.66,20.66,0,0,0-4.31-3.55,34.16,34.16,0,0,0-5.34-2.69,55.74,55.74,0,0,0-8.15,5,37.78,37.78,0,0,0-6.71,6.27,22.92,22.92,0,0,0-4.07,7.15A12.73,12.73,0,0,0,51.34,106.9Z"/><path class="cls-2" d="M118.36,82.72c.18-.61.6-.7,1.27-.28.37.24.46.66.28,1.28a101.49,101.49,0,0,1-8.14,16.78,54.19,54.19,0,0,1-9.29,11.83q-4.73,4.33-8.67,3.77a7.13,7.13,0,0,1-6-4.5,16.69,16.69,0,0,1-.78-9.38A58.2,58.2,0,0,1,90.11,91a45.83,45.83,0,0,1,5.65-10.55,23.82,23.82,0,0,1,6.86-6.81,6.94,6.94,0,0,1,6.21-.84q3.11,1.08,2.53,4.55-.77,4.36-7.1,10.68A96,96,0,0,1,92.21,98.41Q89,112,94,113.39a4.9,4.9,0,0,0,4.4-.59,24.74,24.74,0,0,0,4.56-3.39,31.32,31.32,0,0,0,4.27-5.09q2.13-3.09,3.74-5.79t2.92-5.37c.53-1.07,1-2.19,1.56-3.35s1-2.44,1.59-3.83S118,83.5,118.36,82.72ZM107.6,74.2q-3-.77-7.42,6A64.61,64.61,0,0,0,93,95.55q14.53-11.2,16-17.84C109.47,75.89,109,74.73,107.6,74.2Z"/><path class="cls-2" d="M120.14,101.24Q133,69.56,139.72,66.56a2.74,2.74,0,0,1,2.56-.08,2.67,2.67,0,0,1,1.26,1.82,12.62,12.62,0,0,1,.34,3.74c0,1.54-.15,3.21-.33,5s-.42,3.86-.73,6.22-.62,4.62-.94,6.79-.66,4.59-1,7.25-.65,5-.82,7.1q-.76,8.28,2.12,7.08,3.33-1.41,9.32-13.22,3.09-6.32,6.2-13.68t3.8-9.43a.86.86,0,0,1,1.21-.56c.54.14.72.51.53,1.13a167.27,167.27,0,0,1-9.14,21.77q-9.78,19.82-14.85,15.4a8.14,8.14,0,0,1-2.44-4.15,22.85,22.85,0,0,1-.73-6.76q.09-4,.33-7.42a79.49,79.49,0,0,1,1.12-8.36c.58-3.28,1-5.67,1.33-7.17s.73-3.49,1.27-6q1.68-8-3.84-1a60.17,60.17,0,0,0-6.17,11q-3.44,7.44-6.61,15.54t-4.24,10.24l0,.29c0,.2,0,.65-.08,1.36-.67,1-1.84,1.33-3.53.87a51.21,51.21,0,0,1,.33-14.3q1.2-8.67,2.61-14.42c.93-3.83,1.34-5.74,1.22-5.71l.85-1.81c.55-1,1.06-1,1.51,0a17.68,17.68,0,0,0,.64,1.82,7.35,7.35,0,0,1,.21,2.68c0,1.35-.13,2.46-.22,3.34s-.25,2.19-.47,3.92-.44,3.22-.65,4.44-.46,2.82-.76,4.8S120.33,99.79,120.14,101.24Z"/><path class="cls-2" d="M177.65,35.88q-.83,1.89-4.33,12.41a45.71,45.71,0,0,0,4.69.49,7.21,7.21,0,0,0,3.19-.7,3.91,3.91,0,0,0,2.18-2.67c.07-.53.4-.76,1-.7s.92.46.8,1.06a6.18,6.18,0,0,1-1.36,2.69,6.07,6.07,0,0,1-2,1.53,7.53,7.53,0,0,1-2.8.52,26.6,26.6,0,0,1-2.91,0c-.75-.06-1.87-.17-3.37-.35q-3.95,12.51-7.16,24.77-4,17-3.82,26.43.14,6.27,3.13,4.28,3.26-2.16,7.86-10.71a269.64,269.64,0,0,0,11.06-25.25.86.86,0,0,1,1.21-.55c.54.13.72.51.54,1.12q-1,3.18-3.39,8.91T176,92.8a52.41,52.41,0,0,1-7.77,12.4q-4,4.45-6.77,2.21-6.67-5.59.49-35.53,2.16-10.12,5.7-22.26-6.91-.19-9.31,5c-.18.61-.55.79-1.12.53a.85.85,0,0,1-.55-1.21q2.89-6.37,11.53-6.17,3-10,4-12.33c0-.25.48-.49,1.42-.69a5.15,5.15,0,0,1,1.82-.21c.06,0,.2,0,.41.14s.41.22.59.3a6.29,6.29,0,0,0,.58.26,1.44,1.44,0,0,1,.51.32C177.66,35.7,177.7,35.8,177.65,35.88Z"/><path class="cls-2" d="M191.58,57.54q-1.92,3.85-3.78,13.2a86.1,86.1,0,0,0-1.89,16.12q-.14,8.52,3,7.13t8.95-12.9c.37-.66,1.61-3.32,3.74-8s3.29-7.22,3.52-7.65a1.1,1.1,0,0,1,.77-.6,1.07,1.07,0,0,1,.77.21c.23.17.32.33.29.46q-2.91,7.62-7,15.87-5,9.78-8.93,13.23-2.55,1.89-4.24,1.55a4.21,4.21,0,0,1-2.79-2.68,19.59,19.59,0,0,1-1.52-4.73,25,25,0,0,1-.41-4.49q-.17-10.75,5.21-28.36a1.89,1.89,0,0,1,1.7-.75A3.64,3.64,0,0,1,191,56C191.64,56.45,191.84,57,191.58,57.54ZM191,49A3,3,0,0,1,190,46.29a4.94,4.94,0,0,1,1.37-3.07,2,2,0,0,1,2.57-.7,2.06,2.06,0,0,1,.82,2.44A7.08,7.08,0,0,1,193,48C192.13,48.92,191.48,49.26,191,49Z"/><path class="cls-2" d="M231.28,48.33q-2.19,4.39-5,18.15t-2.7,21.36c.06,2.28.44,3.69,1.17,4.23a2,2,0,0,0,2.52-.27,12.73,12.73,0,0,0,2.85-3.3,124,124,0,0,0,9.27-17.56q5.29-11.71,6.24-14.78a.94.94,0,0,1,1.2-.65.86.86,0,0,1,.55,1.22c-.22.74-.59,1.81-1.11,3.2s-1.25,3.22-2.18,5.49-1.91,4.54-2.94,6.81-2.17,4.68-3.42,7.24A66.45,66.45,0,0,1,234,86.21a49.41,49.41,0,0,1-3.81,5.23,8.53,8.53,0,0,1-3.63,2.85,3.68,3.68,0,0,1-3.21-.49q-4.68-3.93-2.34-21.06l-2,4q-4.84,9.66-8.84,13.21a6.85,6.85,0,0,1-3,1.67,2.68,2.68,0,0,1-2.32-.59,6.57,6.57,0,0,1-1.67-2.16A14.46,14.46,0,0,1,202,85.75c-.29-1.18-.52-2.26-.67-3.25a20.12,20.12,0,0,1-.24-2.81q-.07-11.62,5.29-28.47a1.74,1.74,0,0,1,1.65-.75,3.64,3.64,0,0,1,2.13.78c.65.49.84,1,.59,1.59Q208.87,56.69,207,66a87.25,87.25,0,0,0-1.9,16.13q-.12,8.52,3,7.13t9-12.9l5.28-11.57q1.84-9,4.61-18.11a1.72,1.72,0,0,1,1.65-.74,3.54,3.54,0,0,1,2.14.81C231.36,47.31,231.55,47.82,231.28,48.33Z"/><path class="cls-2" d="M268.48,66.4q14.37-35.34,21-32a2.63,2.63,0,0,1,1.26,1.82,12.61,12.61,0,0,1,.35,3.75c0,1.53-.15,3.2-.33,5s-.43,3.86-.74,6.22-.62,4.63-.94,6.79-.66,4.59-1,7.25-.64,5-.82,7.1c-.51,5.52.21,7.88,2.13,7.08q3.31-1.41,9.31-13.22,3.1-6.32,6.2-13.68t3.8-9.43a.87.87,0,0,1,1.22-.56c.66.11.83.49.53,1.13a168.23,168.23,0,0,1-9.15,21.77q-9.77,19.82-14.85,15.4A8.33,8.33,0,0,1,284.08,77a20,20,0,0,1-.76-6.51c0-2.69.09-4.94.13-6.77a60.62,60.62,0,0,1,1-8.15q1-5.41,1.23-6.76T287,42.47c.15-.74.26-1.27.31-1.6.62-2.68.59-4.08-.1-4.18s-1.88,1-3.55,3.17a48.22,48.22,0,0,0-5.57,9.43q-2.93,6.2-6.57,15.25t-4.15,10.22l-.16,2.33L267,78.46l-3.53.87Q262,70.11,267,48.78c.6-2.49.66-3.89.17-4.2s-1.67.58-3.57,2.65a48.82,48.82,0,0,0-6.29,10.22q-3.48,7-6.74,14.71t-4.28,9.63q0,.28-.09,1.35c-.61,1-1.79,1.26-3.53.87a51.27,51.27,0,0,1,.34-14.3q1.2-8.65,2.6-14.41c.94-3.84,1.35-5.74,1.23-5.72l.84-1.8c.56-1,1.06-1,1.52-.05.23.77.44,1.41.61,1.92a8.23,8.23,0,0,1,.17,2.73c-.06,1.32-.12,2.47-.18,3.48s-.23,2.37-.48,4.11-.49,3.28-.71,4.6-.48,3-.78,4.94-.53,3.72-.71,5.22q15.31-35.83,22.08-32.45a2.26,2.26,0,0,1,.89.8,4,4,0,0,1,.52,1.51,18.39,18.39,0,0,1,.23,1.91,21.06,21.06,0,0,1,0,2.49q-.09,1.55-.24,2.82c-.1.85-.24,1.94-.42,3.29s-.34,2.51-.48,3.49-.32,2.27-.58,3.86S268.63,65.35,268.48,66.4Z"/></g></g></svg>