<svg width="98" height="98" viewBox="0 0 98 98" fill="none" xmlns="http://www.w3.org/2000/svg">
<circle cx="49" cy="49" r="48.5" fill="#585E4F" stroke="white"/>
<path d="M53.395 38.715C53.305 39.225 52.69 40.53 51.55 42.63C47.95 49.11 46.045 54.63 45.835 59.19L42.955 59.64C42.775 59.16 42.685 58.365 42.685 57.255C42.685 54.585 44.425 49.71 47.905 42.63C46.765 43.08 45.835 43.305 45.115 43.305C44.395 43.305 43.72 43.185 43.09 42.945L44.08 40.65C44.44 40.74 44.8 40.785 45.16 40.785C46.12 40.785 47.095 40.485 48.085 39.885C49.075 39.285 49.84 38.61 50.38 37.86C50.92 37.11 51.385 36.735 51.775 36.735C52.165 36.735 52.54 36.87 52.9 37.14C53.29 37.41 53.485 37.71 53.485 38.04C53.485 38.37 53.455 38.595 53.395 38.715Z" fill="white"/>
</svg>
