<svg width="325" height="18" viewBox="0 0 325 18" fill="none" xmlns="http://www.w3.org/2000/svg">
<path d="M175.652 17.1967C176.711 17.0963 177.397 16.9229 177.719 16.6764C178.042 16.4391 178.204 15.8184 178.204 14.8326V3.15777C178.204 2.19932 178.052 1.58774 177.74 1.3139C177.427 1.04006 176.731 0.866626 175.652 0.80273V0.309814H183.478C186.111 0.309814 188.34 0.702321 190.165 1.48733C193.453 2.90218 195.097 5.42153 195.097 9.05449C195.097 10.3598 194.805 11.6104 194.21 12.7879C193.625 13.9654 192.727 14.9604 191.537 15.7727C190.781 16.2839 189.994 16.6764 189.187 16.9411C187.704 17.4341 185.879 17.6805 183.72 17.6805H175.652V17.1967ZM181.502 16.503C181.734 16.6399 182.208 16.7038 182.944 16.7038C185.213 16.7038 187.079 16.293 188.542 15.4806C190.791 14.2301 191.91 12.0941 191.91 9.07275C191.91 6.37997 190.982 4.35354 189.137 2.98434C187.543 1.84333 185.435 1.25913 182.823 1.25913C182.167 1.25913 181.724 1.32303 181.502 1.45082C181.27 1.57861 181.149 1.86158 181.149 2.29973V15.6632C181.149 16.0831 181.27 16.3661 181.502 16.503Z" fill="#585E4F"/>
<path d="M203.731 17.1967C204.8 17.0963 205.486 16.9229 205.808 16.6764C206.121 16.4391 206.282 15.8184 206.282 14.8326V3.15777C206.282 2.22671 206.121 1.61513 205.818 1.33216C205.506 1.04919 204.81 0.866626 203.741 0.80273V0.309814H219.162L219.263 4.07057H218.527C218.285 2.91131 217.911 2.16281 217.417 1.82507C216.923 1.48733 215.834 1.3139 214.129 1.3139H210.176C209.752 1.3139 209.49 1.3778 209.389 1.49646C209.288 1.62425 209.238 1.85246 209.238 2.19932V8.05954H213.716C214.956 8.05954 215.743 7.89523 216.086 7.56662C216.429 7.23801 216.701 6.56253 216.913 5.54932H217.589V11.6195H216.913C216.691 10.6063 216.419 9.93079 216.076 9.60218C215.733 9.27357 214.956 9.10926 213.726 9.10926H209.248V15.6084C209.248 16.1287 209.429 16.4391 209.792 16.5304C210.155 16.6217 211.245 16.6764 213.06 16.6764C215.027 16.6764 216.479 16.4847 217.417 16.0922C218.355 15.6997 219.192 14.7595 219.939 13.2625H220.745L219.424 17.6988H203.731V17.1967Z" fill="#585E4F"/>
<path d="M228.703 17.1967C229.903 17.0872 230.67 16.8407 231.013 16.4574C231.356 16.074 231.527 15.1977 231.527 13.8102V2.24496L231.134 1.82507C230.71 1.36867 230.347 1.09483 230.055 0.985291C229.752 0.875754 229.308 0.820986 228.713 0.80273V0.309814H233.665L244.861 12.87V4.1436C244.861 2.71049 244.619 1.7703 244.155 1.34129C243.842 1.05832 243.156 0.875754 242.087 0.793602V0.309814H248.905V0.80273C247.796 0.903138 247.059 1.1496 246.696 1.53297C246.323 1.91635 246.141 2.80177 246.141 4.17098V18H245.647L232.798 3.58679V13.8102C232.798 15.2433 233.03 16.1835 233.494 16.6125C233.796 16.8955 234.472 17.0872 235.521 17.1876V17.6714H228.703V17.1967Z" fill="#585E4F"/>
<path d="M257.165 0.309814H273.575L273.726 4.77344H273.03C272.687 3.37684 272.254 2.45491 271.729 2.03502C271.205 1.61513 270.105 1.39605 268.421 1.39605H266.807V14.8326C266.807 15.8458 266.979 16.4756 267.332 16.7129C267.685 16.9594 268.451 17.1146 269.631 17.1876V17.6714H261.169V17.1876C262.4 17.1054 263.166 16.9229 263.459 16.6399C263.761 16.3569 263.913 15.6541 263.913 14.5222V1.39605H262.289C260.685 1.39605 259.586 1.606 259.011 2.02589C258.426 2.44578 257.992 3.35859 257.7 4.77344H256.994L257.165 0.309814Z" fill="#585E4F"/>
<path d="M279.697 17.6902V17.2064C280.443 17.1334 281.008 16.8778 281.371 16.4488C281.744 16.0197 282.38 14.8331 283.288 12.8979L289.339 0H289.914L297.145 14.8879C297.63 15.8737 298.013 16.4853 298.305 16.7226C298.598 16.9599 299.082 17.1151 299.758 17.1973V17.6811H292.375V17.1973C293.222 17.1334 293.767 17.0421 294.019 16.9508C294.261 16.8504 294.392 16.6131 294.392 16.2297C294.392 16.1019 294.342 15.8737 294.251 15.5542C294.16 15.2347 294.029 14.8879 293.857 14.5319L292.698 12.0034H285.053C284.296 13.7195 283.852 14.7692 283.701 15.1526C283.56 15.5268 283.479 15.8281 283.479 16.0563C283.479 16.4944 283.681 16.8048 284.074 16.9782C284.316 17.0786 284.78 17.1608 285.456 17.2064V17.6902H279.697ZM292.193 10.9445L288.865 3.71512L285.527 10.9445H292.193Z" fill="#585E4F"/>
<path d="M307.806 17.1967C308.875 17.0963 309.561 16.9229 309.884 16.6764C310.196 16.4391 310.358 15.8184 310.358 14.8326V3.15777C310.358 2.22671 310.196 1.61513 309.894 1.33216C309.581 1.04919 308.885 0.866626 307.816 0.80273V0.309814H316.006V0.80273C314.937 0.857498 314.221 1.01267 313.858 1.27739C313.494 1.5421 313.313 2.10804 313.313 2.98434V15.6084C313.313 15.9005 313.363 16.1287 313.474 16.293C313.585 16.4574 313.827 16.5669 314.19 16.6125C314.412 16.6399 314.634 16.6582 314.876 16.6673C315.118 16.6764 315.572 16.6764 316.228 16.6764C318.81 16.6764 320.555 16.4847 321.462 16.1014C322.37 15.718 323.247 14.7321 324.105 13.153H324.841L323.419 17.7079H307.806V17.1967Z" fill="#585E4F"/>
<path d="M18.4817 9.7459C17.5746 9.22998 16.4532 8.83421 15.1256 8.57271C15.5791 8.4667 15.9996 8.35363 16.3954 8.21935C17.0304 8.00733 17.5911 7.7317 18.0776 7.39953C19.2403 6.64332 19.8258 5.67509 19.8258 4.50898C19.8258 2.9895 18.8033 1.79511 16.783 0.961162C15.9831 0.64313 15.1173 0.395772 14.2102 0.24029C13.2949 0.077741 12.2972 0 11.2334 0H0.158936V0.756208H2.92137V16.573C2.34414 16.573 0.637208 16.5659 0.340349 16.573L0.158936 16.58V17.308H11.9261C14.0123 17.308 15.8759 16.9829 17.4757 16.3468C19.496 15.527 20.5185 14.3326 20.5185 12.799C20.5185 11.5481 19.8341 10.5233 18.4817 9.7459ZM15.3812 15.4563C14.8947 15.8309 14.3669 16.1136 13.8062 16.2973C13.2454 16.4811 12.6105 16.58 11.9261 16.58H7.95972C6.68982 16.58 6.04663 16.1348 6.04663 15.2514V2.18382C6.04663 1.53362 6.37647 0.756208 7.95972 0.756208H11.2417C11.9178 0.756208 12.5528 0.848084 13.1218 1.03184C13.6825 1.21559 14.2102 1.49828 14.705 1.89405C15.6698 2.60786 16.1646 3.49128 16.1646 4.50898C16.1646 5.54081 15.6698 6.43837 14.705 7.18751C13.7649 7.91545 12.6023 8.28295 11.2499 8.28295H10.1449V9.03916H11.9426C13.2784 9.03916 14.4411 9.41373 15.3977 10.1629C16.3625 10.8767 16.8572 11.7672 16.8572 12.8061C16.8407 13.8167 16.346 14.7072 15.3812 15.4563Z" fill="#585E4F"/>
<path d="M57.6339 0.756208H60.3964V16.573H57.6339V17.308H66.2841V16.573H63.5216V0.756208H66.2841V0H57.6339V0.756208Z" fill="#585E4F"/>
<path d="M116.429 0.756208H119.166V7.85891C119.117 7.99319 118.952 8.09213 118.77 8.10627H108.958C108.727 8.09213 108.545 7.95785 108.537 7.7741V0.756208H111.299V0H102.649V0.756208H105.412V16.573H102.649V17.308H111.299V16.573H108.537V9.36426C108.545 9.18051 108.743 9.03916 108.991 9.03916H118.729C118.935 9.03916 119.117 9.14517 119.166 9.28652V16.573H116.429V17.308H125.054V16.573H122.316V0.756208H125.054V0H116.429V0.756208Z" fill="#585E4F"/>
<path d="M151.73 0H133.234L132.632 2.7068H133.581C133.581 2.46651 133.754 1.9718 133.877 1.71737C134.075 1.26506 134.743 0.756208 135.386 0.756208H140.928V16.573H138.19V17.308H146.799V16.573H144.061V0.756208H149.603C150.238 0.756208 150.906 1.26506 151.112 1.72444C151.235 1.9718 151.409 2.46651 151.409 2.7068H152.357L151.73 0Z" fill="#585E4F"/>
<path d="M91.6327 8.50915C90.2227 8.51622 88.8208 8.52329 87.4272 8.52329H87.2376V9.29363H90.1072V14.8415C90.1072 15.3786 89.6867 15.8592 89.0517 16.0359C86.446 16.778 84.0134 16.6296 82.0096 15.6189C79.9316 14.5659 78.3648 12.693 77.8206 10.594C77.3341 8.71411 77.5815 6.66457 78.538 4.67157C79.6017 2.45242 82.2735 0.93294 85.1926 0.897603C87.4108 0.869334 89.5795 1.67501 90.9648 3.06728C91.0802 3.18036 91.1957 3.31464 91.3111 3.44892L91.6657 3.87296C91.7812 4.00724 91.8801 4.14859 91.9791 4.297L92.2512 4.72105C92.3336 4.84826 92.4079 4.97547 92.4738 5.10268C92.4986 5.15922 92.5315 5.20869 92.548 5.2511C92.581 5.30764 92.6058 5.35711 92.6305 5.40658L92.68 5.50552H93.4551V0.162598H92.5563L92.548 0.311012C92.5233 0.629044 92.4573 0.904671 92.3831 1.02482C92.3007 1.14496 92.2017 1.20857 92.0615 1.22977C91.9708 1.2439 91.8719 1.2439 91.7647 1.23684C91.6575 1.22977 91.5503 1.21563 91.4513 1.18737C91.3276 1.1591 91.2039 1.12376 91.0802 1.08842C90.9566 1.06015 90.8576 1.03188 90.7586 0.996546C90 0.791593 89.2166 0.636111 88.5405 0.501831C82.9744 -0.586543 77.6722 1.03895 75.0252 4.65037C73.6151 6.57269 73.343 9.10988 74.2913 11.4421L74.316 11.5057C75.322 13.9086 77.499 15.6543 80.6078 16.5518C82.1992 17.0112 84.0051 17.2444 85.8852 17.2444C87.0479 17.2444 88.2354 17.1525 89.4228 16.9759C89.7939 16.9193 90.1402 16.8486 90.4453 16.7709C90.7257 16.6932 90.9813 16.6225 91.2287 16.5589C91.4843 16.4953 91.7234 16.4246 91.9461 16.3469C92.1935 16.262 92.4408 16.1843 92.6965 16.0995C92.9439 16.0218 93.1912 15.944 93.4551 15.8663L93.5788 15.8309V12.5941C93.5788 12.58 93.6118 10.9686 93.6118 10.2336C93.6118 9.51272 94.222 9.25829 94.7415 9.25829H96.0279V8.48795H95.8382C94.4446 8.49502 93.0428 8.50208 91.6327 8.50915Z" fill="#585E4F"/>
<path d="M48.9098 16.5094C48.4315 16.3609 47.7306 15.5341 47.7306 14.58V12.8061C47.7306 10.6929 46.2381 9.31479 43.2777 8.68579C43.7642 8.58685 44.2178 8.47377 44.6383 8.33949C45.3145 8.12747 45.9247 7.85184 46.4442 7.53381C47.7471 6.74933 48.415 5.73163 48.415 4.50898C48.415 2.98949 47.3925 1.79511 45.3722 0.961161C44.5724 0.64313 43.7065 0.395772 42.7995 0.24029C41.8924 0.077741 40.8946 0 39.8309 0H28.7564V0.756208H31.5189V16.573H29.9768C29.9768 16.573 29.2924 16.5659 28.9296 16.573L28.7482 16.58V17.308H37.3983V16.573H37.2169C37.2169 16.573 36.8211 16.5659 36.0542 16.573H36.0459C35.6831 16.573 35.3368 16.4528 35.0729 16.2267C34.7925 15.9864 34.6359 15.6613 34.6359 15.3291V2.49478C34.6359 1.30746 35.312 0.756208 36.7633 0.756208H39.8226C40.5071 0.756208 41.1338 0.848084 41.7027 1.03184C42.2635 1.21559 42.7912 1.49828 43.286 1.89405C44.2508 2.60786 44.7455 3.49128 44.7455 4.50898C44.7455 5.54081 44.2508 6.43837 43.286 7.18751C42.3459 7.91545 41.1832 8.28295 39.8309 8.28295H37.0355V9.03916H39.1382C40.4741 9.03916 41.6368 9.41373 42.5933 10.1629C43.5581 10.8767 44.0529 11.7672 44.0529 12.8061C44.0529 14.1135 44.1848 15.4705 45.7103 16.467C46.7081 17.1172 48.1841 17.3433 49.1489 17.3433H51.3341V16.5942C51.3341 16.5871 49.3221 16.6366 48.9098 16.5094Z" fill="#585E4F"/>
</svg>
