<svg xmlns="http://www.w3.org/2000/svg" viewBox="0 0 120 125.94"><defs><style>.cls-1{fill:#efe5da;}.cls-2,.cls-4{fill:none;}.cls-2{stroke:#1e3356;stroke-linejoin:round;}.cls-3{fill:#4d4d4d;}</style></defs><g id="圖層_2" data-name="圖層 2"><g id="圖層_2-2" data-name="圖層 2"><circle class="cls-1" cx="60" cy="73.39" r="46.42"/><path class="cls-2" d="M73.18,89.5a31.61,31.61,0,0,0-2,6.14c-.71,3.79-5.23,3.07-6.14,0s.51-12.17-5.53-12.17"/><path class="cls-2" d="M77.84,60.73a21,21,0,0,1,2.88,9.14A24,24,0,0,1,76.16,84a23.26,23.26,0,0,0-1.41,2.25"/><path class="cls-2" d="M38.9,66.59c.85-3.7,3.07-9.31,8.78-10.13,3.92-1.11,6.93,1.89,11.51,1.83h.73a12,12,0,0,0,3.31-.45"/><path class="cls-2" d="M38.39,69.87a23.29,23.29,0,0,0,3.13,11.81l2.84,4.55a35,35,0,0,1,3.52,9.41c.72,3.79,5.23,3.07,6.14,0s-.51-12.17,5.54-12.17"/><rect class="cls-2" x="63.23" y="49.93" width="7.57" height="10.27"/><rect class="cls-2" x="70.8" y="53.07" width="18.09" height="4"/><line class="cls-2" x1="67.03" y1="60.21" x2="67.03" y2="79.69"/><path class="cls-2" d="M59.79,65h-.47c-2.94,0-4.88-1.89-7.4-1.18-3.68.53-5.11,4.14-5.65,6.52,0,0-1,6.79,5.25,7.78s4.36-2.25,8-2.25"/><path class="cls-2" d="M59.58,65h.47c2.94,0,4.88-1.89,7.4-1.18,3.68.53,5.11,4.14,5.65,6.52,0,0,1,6.79-5.25,7.78s-4.37-2.25-8-2.25"/><line class="cls-2" x1="51.52" y1="78.16" x2="50.83" y2="98.22"/><line class="cls-2" x1="66.93" y1="78.35" x2="67.62" y2="98.22"/><path class="cls-3" d="M29.47,23.08l-.21.66A17,17,0,0,0,26,21.82l4.24,7.32-.56.32L25.32,22a12.7,12.7,0,0,1,.11,4.8l-.64-.26a12.61,12.61,0,0,0-.18-5.63l-2,1.15-.29-.51,2-1.18-1.66-2.87.56-.32L24.93,20l1.75-1,.3.51-1.76,1,.33.56A18.5,18.5,0,0,1,29.47,23.08ZM34.6,18l-5,2.91,3.31,5.72A29,29,0,0,0,34.76,24l.33.58a31,31,0,0,1-2.32,3.21l-.53-.34a.52.52,0,0,0,0-.57L26,16.08l5.58-3.23Zm-2.23-2.57-1-1.76-4.47,2.59,1,1.75Zm1.37,2.36L32.68,16l-4.46,2.58,1.05,1.83Zm5.44,5.62-.07.67q-3.49.22-6.93-3.22l.41-.5a14.55,14.55,0,0,0,1.72,1.51,8.57,8.57,0,0,0,1.13-3.16l.65.1a10.64,10.64,0,0,1-1.28,3.39A7.08,7.08,0,0,0,39.18,23.43Z"/><path class="cls-3" d="M46.75,9.4l-4.47.92a11.72,11.72,0,0,1-1.41,2.23l-.62-.3a10.16,10.16,0,0,0,2-3.76l.66.09a8.22,8.22,0,0,1-.37,1.09l4.07-.83Zm7.56,4-.63.13-.46-2.26L41.76,13.58l.46,2.25L41.6,16,41,13.12l5.92-1.21a6.16,6.16,0,0,0-.7-.95l.6-.34a8.78,8.78,0,0,1,.8,1.15l6.09-1.25Zm-.25,6.21-8.83,1.8.15.72-.63.13-1.54-7.54,9-1.84.54,2.62-8.38,1.71.29,1.4,8.82-1.8Zm-8.71-8.18-.49.41a5.83,5.83,0,0,0-1.15-1.07l.47-.42A6.14,6.14,0,0,1,45.35,11.39ZM52,15l-.3-1.49L44,15.12l.31,1.49Zm1.31,4.1L53,17.47l-8.19,1.68.34,1.66ZM53.63,8l-5,1a9.44,9.44,0,0,1-1,1.58L47,10.31a8.65,8.65,0,0,0,1.62-3.16l.66.08a9.71,9.71,0,0,1-.39,1.14l4.59-.94ZM51.7,10.19l-.5.38a6.64,6.64,0,0,0-1.12-1.18l.47-.4A6.86,6.86,0,0,1,51.7,10.19Z"/><path class="cls-3" d="M63.49,15.07a28.92,28.92,0,0,1-3.59,4.86l-.49-.5A25.31,25.31,0,0,0,63,14.58Zm.26-2.5-.52.5a20.84,20.84,0,0,0-2.72-2.58l.47-.42A22.58,22.58,0,0,1,63.75,12.57Zm.91-4L64.12,9a17.67,17.67,0,0,0-2.39-2.53l.49-.38A18.26,18.26,0,0,1,64.66,8.62Zm7.39,12.64-.63-.07.12-1L65,19.38l-.12,1-.64-.07.71-6,7.85.93Zm2-7.25-.63.3c-.31-.78-.56-1.38-.74-1.78q-3.61.17-7.92.11l-.14-.46a13,13,0,0,0,4-5.37l.6.35A15,15,0,0,1,65.77,12q3.17.09,6.65-.05a31.84,31.84,0,0,0-1.65-3.18l.56-.29A36.16,36.16,0,0,1,74.06,14Zm-2.45,5.56.44-3.77L65.47,15,65,18.79Z"/><path class="cls-3" d="M94.05,17.42l-10-4.69L82,17.14a12.62,12.62,0,0,1-2.15,3.32,8.83,8.83,0,0,1-2.92,2l-.29-.66a8,8,0,0,0,4.47-4.3,22.3,22.3,0,0,1-2.54.36l-.06-.62a15.55,15.55,0,0,0,2.93-.41l2.3-4.89,4.94,2.32a4.67,4.67,0,0,0-.1-1.3h.65a5.65,5.65,0,0,1,.08,1.61l5,2.34ZM83.15,22.9a9.19,9.19,0,0,1-3.46.53l-.1-.59a9.37,9.37,0,0,0,3.32-.51Zm-1.67-7.79-.63.09a17.44,17.44,0,0,0,.27-2.93l.62-.1A17.85,17.85,0,0,1,81.48,15.11Zm10.26,7.21-.56.28a16.45,16.45,0,0,1-1.09-1.43l-1.45,3.06-2.76-1.3-1,2.21a.93.93,0,0,1-1.39.52l-1.2-.57,0-.63c.42.23.75.41,1,.52a1.48,1.48,0,0,0,.67.21.39.39,0,0,0,.27-.25l1.07-2.28-2.79-1.32,1.42-3a9.22,9.22,0,0,1-1.63.19l-.18-.6a15.79,15.79,0,0,0,2.25-.3,13.5,13.5,0,0,0-.71-1.77l.53-.18a10.43,10.43,0,0,1,.74,1.8,7.41,7.41,0,0,0,2.27-1l-3-1.4.24-.51,3.24,1.52a5.13,5.13,0,0,0,.74-.73l.51.33a4.64,4.64,0,0,1-.64.69l4.79,2.26-.24.51L89.3,17.43a6,6,0,0,0,.62,2.29,10.78,10.78,0,0,0,2-.47l.2.54a15,15,0,0,1-1.91.45A13,13,0,0,0,91.74,22.32Zm-3.43,1.12.59-1.25-5-2.34-.59,1.24Zm.83-1.77.51-1.08-5-2.34-.51,1.08Zm.18-1.88a6.09,6.09,0,0,1-.6-2.63l-.89-.43A8.32,8.32,0,0,1,85.41,18Zm-.19,7.71-.59.25a15,15,0,0,0-2-3l.51-.33A17.32,17.32,0,0,1,89.13,27.5Z"/><rect class="cls-4" width="120" height="125.94"/></g></g></svg>