<svg xmlns="http://www.w3.org/2000/svg" viewBox="0 0 120 125.94"><defs><style>.cls-1{fill:#efe5da;}.cls-2,.cls-4{fill:none;}.cls-3{fill:#1e3356;}.cls-4{stroke:#1e3356;stroke-linecap:round;stroke-linejoin:round;}.cls-5{fill:#4d4d4d;}</style></defs><g id="圖層_2" data-name="圖層 2"><g id="圖層_2-2" data-name="圖層 2"><circle class="cls-1" cx="59.26" cy="73.18" r="46.42"/><rect class="cls-2" x="56.99" y="75.68" width="4.53" height="0.75"/><path class="cls-2" d="M59.26,93.66l1.85-2.32H57.4Z"/><path class="cls-2" d="M64.74,78.7a1,1,0,0,0-.95-1H54.73a.95.95,0,1,0,0,1.9h9.06A1,1,0,0,0,64.74,78.7Z"/><path class="cls-2" d="M53.78,89.27a1,1,0,0,0,.95,1h9.06a1,1,0,0,0,0-1.9H54.73A1,1,0,0,0,53.78,89.27Z"/><rect class="cls-2" x="56.8" y="80.77" width="4.92" height="1.15"/><path class="cls-2" d="M64.74,84a1,1,0,0,0-.95-1H54.73a.95.95,0,1,0,0,1.9h9.06A1,1,0,0,0,64.74,84Z"/><rect class="cls-2" x="56.8" y="86.05" width="4.92" height="1.15"/><path class="cls-3" d="M63.79,86.05a2.07,2.07,0,0,0,0-4.14h-.95V80.77h.95a2.07,2.07,0,0,0,0-4.14h-.95v-.76H61.72v.76H56.8v-.76H55.68v.76h-1a2.07,2.07,0,0,0,0,4.14h1v1.14h-1a2.07,2.07,0,0,0,0,4.14h1V87.2h-1a2.07,2.07,0,0,0,0,4.14H56l2.85,3.56a.57.57,0,0,0,.87,0l2.85-3.56h1.25a2.07,2.07,0,1,0,0-4.14h-.95V86.05Zm-9.06-6.4a1,1,0,1,1,0-1.9h9.06a.95.95,0,0,1,0,1.9Zm7,1.12v1.14H56.8V80.77ZM59.26,93.66,57.4,91.34h3.71Zm4.53-5.34a.95.95,0,0,1,0,1.9H54.73a1,1,0,1,1,0-1.9Zm-7-1.12V86.05h4.92V87.2Zm-2.07-2.27a1,1,0,1,1,0-1.9h9.06a.95.95,0,0,1,0,1.9Z"/><path class="cls-4" d="M73.74,51.06a7.9,7.9,0,0,1-3.82,3.86,7.21,7.21,0,0,1,3.82,4.21s1.84-3.86,3.81-4A8.42,8.42,0,0,1,73.74,51.06Z"/><path class="cls-4" d="M75,57.11A18,18,0,0,1,77.44,65a20.09,20.09,0,0,1-2.7,10.17"/><path class="cls-4" d="M41.41,62.15c.73-3.19,2.64-8,7.57-8.73,3.38-1,6,1.64,9.91,1.58h.63c3.94.06,6.53-2.53,9.91-1.58a7.39,7.39,0,0,1,2,.59"/><path class="cls-4" d="M41,65a20.09,20.09,0,0,0,2.7,10.17H74.74"/><path class="cls-5" d="M15.12,32.6l0,.68a17.86,17.86,0,0,0-2.82-.52l6.18,6-.45.45L11.6,33a20,20,0,0,1,1.77,4.5h-.66a19.69,19.69,0,0,0-2.13-5.41L9.05,33.68l-.42-.41,1.57-1.62L8.08,29.57l.44-.45,2.13,2.08L11.86,30l.42.41-1.21,1.24.61.59A24.06,24.06,0,0,1,15.12,32.6Zm10.66-1.92L19,37.62l-.42-.4,1.05-1.07-6.37-6.23,1.92-2-1-1.42L11.4,29.42,11,29l2.91-3-1-1.55.56-.3.91,1.38,2.76-2.82.42.4-2.84,2.91,1,1.42L18,25.12l6.37,6.22,1.05-1.07Zm-6.69-3.55L17.91,26l-3.79,3.88L15.29,31Zm1.59,1.56L19.5,27.53l-3.79,3.89,1.18,1.15Zm1.6,1.55L21.1,29.09,17.3,33l1.18,1.16Zm1.59,1.56-1.19-1.16-3.79,3.88,1.19,1.17Z"/><path class="cls-5" d="M30.52,19.46l-.53.27-.52-1-4,2.08.51,1-.52.28-.79-1.53.76-.38-1.87-3.63,3.61-1.85L29,18.31l.75-.39Zm-3-2.77-.63-1.23L24.3,16.77l1.6,3.12,1-.51-1-1.89Zm5.15,9a1,1,0,0,1-.51,1.57l-.68.34L31,27.18l.64-.3c.48-.24.64-.52.48-.82l-1-1.91a20.91,20.91,0,0,1-1.62,2.08l-.45-.16a6.86,6.86,0,0,1,.16,2.74l-.65-.07A5.72,5.72,0,0,0,28,24.91l-1.57-3.06,3.32-1.7Zm-4.18-7.14-.71-1.4-1,.54.72,1.39Zm2.44,5-1.39-2.7-2.25,1.16.45.88a12,12,0,0,1,2.2-.36l.06.58a10.88,10.88,0,0,0-2,.3l.64,1.25a6.92,6.92,0,0,1,.46,1.18A17.85,17.85,0,0,0,30.89,23.62Zm5.84-8.08-5.87,3-1.95-3.81,1.78-.91-.56-1.09.51-.26.56,1.09,1.28-.66-.56-1.09.52-.26L33,12.65l1.78-.92Zm-5.19-.06-.61-1.18L29.67,15l.6,1.19Zm.86,1.69L31.79,16l-1.27.65.62,1.2ZM38,16.81l-6.78,3.48-.26-.51L37.7,16.3Zm-4.63-2.25-.61-1.18L31.45,14l.6,1.18Zm.87,1.69-.62-1.2-1.28.66.62,1.19Zm6.7,6.08L34,25.9l-.27-.52L36,24.22A15.3,15.3,0,0,0,34.5,23l-.72.37L32.52,20.9l5.15-2.65,1.26,2.45-.73.38A11.6,11.6,0,0,1,38.39,23l2.25-1.15Zm-5.79-8.68-.61-1.18-1.26.65.61,1.18Zm3,6.84L37.37,19l-4,2.08.74,1.45ZM36,15.33l-.61-1.19-1.27.65L34.71,16Zm1.68,6L35.1,22.67a14.48,14.48,0,0,1,1.42,1.26l1.27-.65A10,10,0,0,0,37.65,21.36Z"/><path class="cls-5" d="M45.37,7.65c-.07.79-.15,1.51-.25,2.16L45,10.7l1.66,10.6-.63.1-1.4-9a14.07,14.07,0,0,1-1,2.63l-.47-.41A19.85,19.85,0,0,0,44.75,7.5Zm6.79,9.52-3.67.58.5,3.18-.63.1L46.28,7.73l4.1-.65.68,4.35L47.59,12l.35,2.25,3.33-.52.1.58L48,14.81l.37,2.35,3.67-.57Zm-1.82-6.23-.5-3.17L47,8.21l.5,3.17Zm5.53-.26-4,.62-.09-.59,3.34-.52L54.65,7l-3.33.52L51.22,7l4-.62ZM58,19.07l-.37.57a8.59,8.59,0,0,1-2.77-1.93,13,13,0,0,1-2.31,2.71L52,20a10.56,10.56,0,0,0,2.42-2.82,10.65,10.65,0,0,1-2-3.74l-.58.09L51.83,13l4.43-.69a9,9,0,0,1-1,4.84A9.3,9.3,0,0,0,58,19.07ZM55.66,13l-2.53.4a9.57,9.57,0,0,0,1.65,3.2A8.68,8.68,0,0,0,55.66,13Z"/><path class="cls-5" d="M76.41,13.81l-4-.67-1.18,7a1.1,1.1,0,0,1-.41.73,1.49,1.49,0,0,1-1,.16q-.7-.07-1.68-.24l-1-.19L67,19.91c.48.1,1,.2,1.45.28a7.81,7.81,0,0,0,1.83.2c.19,0,.31-.19.35-.45L71.8,13a15.26,15.26,0,0,1-9.91,5.33l-.3-.61a14.9,14.9,0,0,0,5.32-1.6,13.83,13.83,0,0,0,4.2-3.23l-6.86-1.17L65.7,7.19,64.42,7l.1-.59,12,2-.1.6-3.14-.53-.69,4.09,4,.67ZM71.9,12.45l.7-4.09L66.33,7.3l-1.27,4Z"/><path class="cls-5" d="M81.34,20.55a16.86,16.86,0,0,1-2.76,2.78l-.4-.54a13.35,13.35,0,0,0,2.66-2.65Zm4.14.95-.63-.05c.07-.36.12-.73.16-1.11a45.52,45.52,0,0,1-4.53-1.07l.07-.59a33.51,33.51,0,0,0,4.79-2.08c-1-.25-2-.56-3-.92l.15-.61a36.09,36.09,0,0,0,4.86-3l.44.51a52.68,52.68,0,0,1-4.56,2.81c1.15.37,2.11.65,2.87.84a25.25,25.25,0,0,0,2.15-1.34l.37.56A37.94,37.94,0,0,1,81.47,19a32.25,32.25,0,0,0,3.59.8l0-1.18.6,0A16.6,16.6,0,0,1,85.48,21.5Zm-3.79,2.88-.64-.2A19.11,19.11,0,0,0,82.22,21l.59.19A19.77,19.77,0,0,1,81.69,24.38Zm2.37.44-.67-.06a23.42,23.42,0,0,0,.35-3.06l.62.05A22.81,22.81,0,0,1,84.06,24.82Zm6.78,3.82-5.67-3-.44.83-.57-.3,4.45-8.36a19.66,19.66,0,0,1-2,1l-.29-.59a20.38,20.38,0,0,0,5.5-3.75l.43.47a24,24,0,0,1-2.37,2l2.73,1.45a13.78,13.78,0,0,0,.41-2.82l.67.08a22.12,22.12,0,0,1-.46,3.07l2.07,1.1-.27.52L92.57,19l-1.11,2.1,2.24,1.18-.28.53-2.24-1.19L90,23.83,92.24,25l-.28.52-2.24-1.19-1.25,2.36,2.64,1.41ZM87.9,26.41l1.26-2.36-2.46-1.3-1.25,2.36Zm1.54-2.88,1.18-2.22L88.16,20,87,22.23Zm1.46-2.75L92,18.69l-2.46-1.3-1.11,2.09Z"/><path class="cls-5" d="M96,34.16l-.44-.46.67-.64-1.43-1.49-.88.85L93.46,32l3.74-3.56,2.31,2.42Zm.66-1.51,2-1.9-1.43-1.49-2,1.9Zm6.43,8.65-.61.14a17.91,17.91,0,0,1-2.17-3.76,20.22,20.22,0,0,1-4-2.76l.16-.6a21.2,21.2,0,0,0,3.63,2.61,6.87,6.87,0,0,1-.22-3.29L99.17,33l.39-.38L105,38.32l-.4.37a8.71,8.71,0,0,1-3.57-.66A22.41,22.41,0,0,0,103.08,41.3Zm-2.15-11.6L98.38,27l.43-.4,2.55,2.67Zm1.72-1.64-2.55-2.67.43-.41,2.55,2.68Zm1.41,10-3.71-3.89a7,7,0,0,0,.43,3.11A9.12,9.12,0,0,0,104.06,38.08Zm2.22,0-5.64-5.91,2.87-2.74a7.59,7.59,0,0,1-1.79-.05l0-.6a9.28,9.28,0,0,0,4.28-.36l.27.53a4.6,4.6,0,0,1-1.09.3l2,2.09a3.72,3.72,0,0,0,.37-1.06l.53.28a5.19,5.19,0,0,1-.44,1.27l2.21,2.32-.4.37L107.07,32l-.75.72,2.19,2.3-.39.37-2.19-2.29-.76.72,2.19,2.29-.39.37-2.19-2.29-.78.74,2.67,2.79Zm-1.81-11.3-3-3.2.43-.41,1.38,1.45A6.5,6.5,0,0,0,104,23l.61.27a8.59,8.59,0,0,1-.88,1.84l1.18,1.24Zm-.91,7.67.78-.75-2.09-2.18-.77.74Zm1.17-1.12.75-.72-2.08-2.18-.76.71Zm1.15-1.09.75-.72-2.08-2.19-.76.72Zm1.22-2.46-.44-.46.69-.67-1.92-2,.39-.37,1.92,2,.72-.68.44.46Zm4.44,3.26-1.79-1.88-.7.67-.44-.47,1.8-1.72.44.47-.71.68,1.78,1.88Z"/><rect class="cls-2" width="120" height="125.94"/></g></g></svg>