<svg xmlns="http://www.w3.org/2000/svg" viewBox="0 0 39.6 35.38"><defs><style>.cls-1{fill:#1e3356;}</style></defs><g id="圖層_2" data-name="圖層 2"><g id="圖層_2-2" data-name="圖層 2"><path class="cls-1" d="M8.09,8.61A6.22,6.22,0,0,1,5,9.38,4.34,4.34,0,0,1,1.7,8.14,4.53,4.53,0,0,1,.48,4.82,4.7,4.7,0,0,1,1.83,1.35,4.71,4.71,0,0,1,5.31,0,6.33,6.33,0,0,1,7.82.45V1.89a4.88,4.88,0,0,0-2.6-.66,3.07,3.07,0,0,0-2.35,1A3.52,3.52,0,0,0,2,4.73,3.59,3.59,0,0,0,2.8,7.26a3,3,0,0,0,2.27.9,3.35,3.35,0,0,0,1.6-.35V5.54H4.75V4.34H8.09Z"/><path class="cls-1" d="M17,9.23H15.32L13.84,6.76a3.27,3.27,0,0,0-.79-1,1.3,1.3,0,0,0-.81-.27h-.76V9.23H10.07V.15H13a3.3,3.3,0,0,1,2.18.64,2.17,2.17,0,0,1,.77,1.8,2.34,2.34,0,0,1-.53,1.56,2.73,2.73,0,0,1-1.49.91v0a3.22,3.22,0,0,1,1.37,1.43ZM11.48,1.31v3h1.25A1.67,1.67,0,0,0,14,3.88a1.52,1.52,0,0,0,.47-1.14c0-1-.56-1.43-1.69-1.43Z"/><path class="cls-1" d="M25.43,9.23H23.88L23,6.87H19.4l-.81,2.36H17L20.47.15H22ZM22.64,5.7,21.38,2.12a3.8,3.8,0,0,1-.15-.68h0a3.25,3.25,0,0,1-.14.67L19.79,5.7Z"/><path class="cls-1" d="M32.82,8.87a5.6,5.6,0,0,1-2.54.51,4.14,4.14,0,0,1-3.15-1.24,4.49,4.49,0,0,1-1.19-3.27,4.9,4.9,0,0,1,1.31-3.5A4.51,4.51,0,0,1,30.64,0a5.71,5.71,0,0,1,2.18.36V1.79a4.27,4.27,0,0,0-2.13-.54,3.08,3.08,0,0,0-2.38,1,3.61,3.61,0,0,0-.89,2.56,3.49,3.49,0,0,0,.84,2.43,2.88,2.88,0,0,0,2.25.93,4.42,4.42,0,0,0,2.31-.6Z"/><path class="cls-1" d="M39.6,9.23h-5V.15h4.82V1.36H36V4h3.17v1.2H36V8H39.6Z"/><path class="cls-1" d="M5.89,14.36H2.47v2.82H5.63v1.2H2.47v3.85H1.07V13.15H5.89Z"/><path class="cls-1" d="M7,17.8a5,5,0,0,1,1.2-3.47A4.14,4.14,0,0,1,11.41,13a3.91,3.91,0,0,1,3.07,1.29,4.72,4.72,0,0,1,1.16,3.3,5,5,0,0,1-1.18,3.47,4.08,4.08,0,0,1-3.2,1.32A4,4,0,0,1,8.15,21.1,4.61,4.61,0,0,1,7,17.8Zm1.47-.09a3.83,3.83,0,0,0,.77,2.46,2.49,2.49,0,0,0,2.07,1,2.61,2.61,0,0,0,2.14-.92,3.82,3.82,0,0,0,.76-2.49,4,4,0,0,0-.74-2.54,2.49,2.49,0,0,0-2.09-.94,2.6,2.6,0,0,0-2.12,1A3.87,3.87,0,0,0,8.43,17.71Z"/><path class="cls-1" d="M24.22,22.23H22.58L21.1,19.76a3.27,3.27,0,0,0-.79-1,1.3,1.3,0,0,0-.81-.27h-.76v3.73H17.33V13.15h2.89a3.3,3.3,0,0,1,2.18.64,2.17,2.17,0,0,1,.77,1.8,2.34,2.34,0,0,1-.53,1.56,2.73,2.73,0,0,1-1.49.91v0a3.22,3.22,0,0,1,1.37,1.43Zm-5.48-7.92v3H20a1.67,1.67,0,0,0,1.24-.46,1.52,1.52,0,0,0,.47-1.14c0-1-.57-1.43-1.69-1.43Z"/><path class="cls-1" d="M7.29,26.15l-3,5.77v3.31H2.91V32L0,26.15H1.61L3.44,30s.07.21.22.62h0A3.28,3.28,0,0,1,3.9,30l1.9-3.86Z"/><path class="cls-1" d="M7.6,30.8a5,5,0,0,1,1.2-3.47A4.17,4.17,0,0,1,12.05,26a3.94,3.94,0,0,1,3.08,1.29,4.76,4.76,0,0,1,1.16,3.3,5.07,5.07,0,0,1-1.18,3.47,4.09,4.09,0,0,1-3.2,1.32A4.06,4.06,0,0,1,8.79,34.1,4.66,4.66,0,0,1,7.6,30.8Zm1.48-.09a3.82,3.82,0,0,0,.76,2.46,2.52,2.52,0,0,0,2.08,1,2.6,2.6,0,0,0,2.13-.92,3.76,3.76,0,0,0,.76-2.49,4,4,0,0,0-.73-2.54,2.5,2.5,0,0,0-2.1-.94,2.56,2.56,0,0,0-2.11,1A3.81,3.81,0,0,0,9.08,30.71Z"/><path class="cls-1" d="M24.88,31.47q0,3.91-3.58,3.91c-2.28,0-3.43-1.26-3.43-3.78V26.15h1.41v5.41q0,2.58,2.13,2.58t2.07-2.49v-5.5h1.4Z"/></g></g></svg>