<svg width="142" height="98" viewBox="0 0 142 98" fill="none" xmlns="http://www.w3.org/2000/svg">
<circle cx="71" cy="49" r="48.5" stroke="white"/>
<path d="M70.395 38.715C70.305 39.225 69.69 40.53 68.55 42.63C64.95 49.11 63.045 54.63 62.835 59.19L59.955 59.64C59.775 59.16 59.685 58.365 59.685 57.255C59.685 54.585 61.425 49.71 64.905 42.63C63.765 43.08 62.835 43.305 62.115 43.305C61.395 43.305 60.72 43.185 60.09 42.945L61.08 40.65C61.44 40.74 61.8 40.785 62.16 40.785C63.12 40.785 64.095 40.485 65.085 39.885C66.075 39.285 66.84 38.61 67.38 37.86C67.92 37.11 68.385 36.735 68.775 36.735C69.165 36.735 69.54 36.87 69.9 37.14C70.29 37.41 70.485 37.71 70.485 38.04C70.485 38.37 70.455 38.595 70.395 38.715Z" fill="white"/>
</svg>
