<svg width="142" height="98" viewBox="0 0 142 98" fill="none" xmlns="http://www.w3.org/2000/svg">
<circle cx="71" cy="49" r="48.5" stroke="white"/>
<path d="M64.59 43.44C65.85 41.97 67.515 40.68 69.585 39.57C71.655 38.43 73.38 37.86 74.76 37.86C76.17 37.86 77.28 38.235 78.09 38.985C78.9 39.735 79.305 40.8 79.305 42.18C79.305 43.56 78.75 44.82 77.64 45.96C76.53 47.07 74.31 48.48 70.98 50.19C67.65 51.87 64.56 53.94 61.71 56.4C65.82 55.77 69.645 55.455 73.185 55.455C73.995 55.455 74.64 55.485 75.12 55.545V58.38C74.46 58.5 74.01 58.56 73.77 58.56C73.56 58.53 73.2 58.53 72.69 58.56C72.18 58.59 71.19 58.65 69.72 58.74C68.25 58.8 66.735 58.905 65.175 59.055C63.645 59.205 62.595 59.325 62.025 59.415C61.485 59.475 61.155 59.505 61.035 59.505C60.555 59.505 60.135 59.205 59.775 58.605C59.415 57.975 59.235 57.375 59.235 56.805C59.475 55.875 60.66 54.525 62.79 52.755C64.95 50.985 67.71 49.23 71.07 47.49C72.06 46.98 72.975 46.32 73.815 45.51C74.655 44.7 75.075 43.935 75.075 43.215C75.075 41.835 74.34 41.145 72.87 41.145C70.92 41.145 68.415 42.405 65.355 44.925L64.59 43.44Z" fill="white"/>
</svg>
