<svg xmlns="http://www.w3.org/2000/svg" viewBox="0 0 81.52 77.34"><defs><style>.cls-1{fill:#96c6e7;}.cls-2{fill:#95d0c0;}.cls-3{fill:#f7b146;}</style></defs><g id="圖層_2" data-name="圖層 2"><g id="圖層_1-2" data-name="圖層 1"><path class="cls-1" d="M14.32,22.44s38.34-3.05,38.84,25.1c0,0,1.26,24.73-1.76,28.21H61c-.61-5.66-.71-11.48-1-17.17-.17-3.67-.26-7.34-.29-11,0-3.4-.21-6.55,1.15-9.72a13.57,13.57,0,0,1,11.85-8.34l1.3-.19L71.21,26.7c-.55-.51-4.21,1-4.76,1.18A13.91,13.91,0,0,0,62,30.65a12.35,12.35,0,0,0-1.8,2.09c-.5.74-.81,1.62-1.63,2.09-1.89,1.08-4.2-.13-5.27-1.76,0,0-6-9.16-16.14-11.22,0,0-1.59-.21-.33-1.89L48.72,7,47.11,5.64C43,10,38.92,14.36,34.85,18.71a6.35,6.35,0,0,1-4.65,1.84l-13.79-.69Z"/><path class="cls-1" d="M61.47,76.19H50.41l.65-.74c2.39-2.73,2-21.06,1.66-27.89-.12-6.72-2.46-12.19-6.94-16.26-10.94-9.92-31.22-8.43-31.43-8.41l-1,.08,2.9-3.56,14,.7a6,6,0,0,0,4.3-1.71l3.3-3.52c2.93-3.14,6-6.38,9-9.54L47.08,5l2.23,1.86L37.09,20.26c-.43.58-.38.84-.35.91a.91.91,0,0,0,.41.24c10.22,2.07,16.21,11,16.46,11.41,1,1.51,3,2.56,4.67,1.63a3.27,3.27,0,0,0,1.1-1.34c.12-.21.24-.42.38-.62a13.68,13.68,0,0,1,1.86-2.17,14.17,14.17,0,0,1,4.7-2.86l.18-.07c3.6-1.4,4.62-1.42,5-1L75,29.63,72.76,30A13.17,13.17,0,0,0,61.28,38c-1.19,2.77-1.16,5.57-1.12,8.53v1c0,3.65.12,7.34.28,11,.06,1.36.12,2.73.17,4.1.16,4.3.33,8.75.79,13ZM52.2,75.3h8.27c-.43-4.17-.59-8.45-.74-12.61-.06-1.37-.11-2.73-.17-4.09-.16-3.66-.26-7.36-.28-11v-1c0-3.06-.07-6,1.19-8.89A14.07,14.07,0,0,1,72.7,29L73,29,71,27c-.15,0-.89-.08-4.13,1.18l-.19.07A13.35,13.35,0,0,0,62.26,31a11.84,11.84,0,0,0-1.74,2c-.12.18-.24.38-.35.57a4,4,0,0,1-1.43,1.66c-2.08,1.19-4.66-.06-5.86-1.91-.24-.36-6-9-15.86-11a1.4,1.4,0,0,1-1.08-.77,1.88,1.88,0,0,1,.48-1.83L48,7l-.87-.73c-2.91,3.07-5.84,6.2-8.68,9.24L35.17,19a6.79,6.79,0,0,1-5,2l-13.59-.68L15.26,22c4.3-.17,21.28-.19,31.07,8.69,4.68,4.24,7.11,9.92,7.24,16.89C53.66,48.48,54.72,70,52.2,75.3Z"/><path class="cls-2" d="M81.05,33.89q-7.15-7.07-14.62-13.8T51.22,7C50.1,6,49,5.13,47.88,4.17a36.37,36.37,0,0,0-3.12-2.54A8.4,8.4,0,0,0,40.9,0a5.73,5.73,0,0,0-4,1.09c-2.75,2-5.42,4.15-8.08,6.27S23.6,11.6,21,13.75Q13.38,20.17,6,27a15.73,15.73,0,0,0-2.71,3.16,16.54,16.54,0,0,0-1.64,3.58,29,29,0,0,0-1.4,7.66c-.19,2.48-.18,5-.25,7.47C0,52.21,0,55.6.14,59c.09,1.58.25,3.16.27,4.74s0,3,.1,4.42a13.88,13.88,0,0,0,1.13,4.75,6.77,6.77,0,0,0,2.18,2.59A11.22,11.22,0,0,0,10,77.31a48.79,48.79,0,0,0,6.28-.17c2.71-.17,5.44-.07,8.16,0l10.46.09H40A1.62,1.62,0,0,0,40,74l-20.52-.2c-2,0-4,.16-6,.25-1,0-2.06.08-3.08,0-.51,0-1-.1-1.53-.12h0l-.36-.06-.71-.16a5.31,5.31,0,0,1-.68-.2l-.29-.1-.16-.06c-.19-.06.35.16.11,0a6.8,6.8,0,0,1-1.17-.67c-.21-.15.31.26,0,0l-.21-.2c-.17-.16-.31-.36-.49-.52,0,0,.24.33.1.12L4.85,72l-.16-.25c-.06-.11-.12-.21-.17-.32s-.19-.47-.08-.14a13.79,13.79,0,0,1-.56-2,1.06,1.06,0,0,0-.07-.46c-.07-.15,0,.27,0,0v-.27c0-.38-.07-.76-.09-1.15-.07-1.42,0-2.85-.07-4.27,0-1.59-.2-3.18-.28-4.77s-.13-3.33-.14-5c0-2.8.07-5.61.14-8.42,0-1.24.07-2.48.17-3.72a16.69,16.69,0,0,1,.17-1.86v-.56a6.46,6.46,0,0,1,.16-1,21,21,0,0,1,.9-3.46c.1-.26.22-.52.31-.78-.13.4,0,0,.06-.13L5.35,33a14,14,0,0,1,.89-1.54l.26-.36L6.64,31c.17-.23,0,0,0,.06.22-.21.4-.5.61-.73.48-.52,1-1,1.53-1.47q1.79-1.63,3.58-3.26,3.64-3.27,7.38-6.49Q27.17,12.77,34.9,6.76l.42-.33.25-.19h0l1-.79c.65-.5,1.29-1,2-1.48a7,7,0,0,1,.79-.49c.12-.07.12-.15-.07,0l.21-.08.41-.11h.21c0,.07-.36,0-.12,0h.41a1.41,1.41,0,0,0,.41,0s-.34-.07-.17,0h.25c.08,0,.8.17.8.25h-.09l.2.09.38.2a8.49,8.49,0,0,1,1.52,1c-.32-.29.06,0,.13.1l.36.3.7.6L46.21,7c2.41,2.07,4.91,4,7.34,6.1s5,4.24,7.39,6.41Q68.29,26,75.35,32.83q1.73,1.66,3.42,3.34a1.61,1.61,0,0,0,2.28-2.28Z"/><path class="cls-3" d="M16.59,50.92a10.2,10.2,0,0,1,.05-1.24c0-.24-.07.41,0,0v-.26a4.31,4.31,0,0,1,.16-.61,4.5,4.5,0,0,1,.16-.48c.07-.21.14-.1,0,.07a1.23,1.23,0,0,0,.12-.26c.07-.15.15-.28.23-.42l.1-.15c.09-.14.35-.34,0,0,.22-.19.39-.45.62-.65l.13-.11c.25-.22-.32.22-.05,0a1.83,1.83,0,0,1,.45-.29l.38-.2.16-.07c-.37.22-.19.08,0,0a6.37,6.37,0,0,1,.95-.26h.18c-.42.13-.22,0-.06,0h1.17c.15,0,.46.12,0,0,.32.09.66.11,1,.2l.49.16.3.11c.3.11-.32-.15.06,0a28,28,0,0,0,5.49,2.33,9.85,9.85,0,0,0,5.82-.64c.83-.31,1.65-.66,2.49-.94.38-.12.76-.22,1.15-.31h.23c.39-.08-.36,0,0,0h1c.09.08.46.1.58.14l.29.09c.1,0-.33-.18,0,0s.41.23.61.36-.17-.17,0,0l.22.2.41.42c.07.08.34.29,0,0l.14.19c.13.2.25.4.36.61a1,1,0,0,1,.15.31s-.13-.35,0-.06.16.46.22.69.12.46.17.7,0,.29.07.43v.15a26.89,26.89,0,0,1,0,3.11c-.07,2.23-.26,4.46-.53,6.68a6.12,6.12,0,0,1-.1.86v.32c0,.11-.07.54,0,.19-.07.58-.16,1.15-.24,1.73-.17,1.09-.34,2.19-.52,3.28l-.57,3.27c-.17,1-.32,1.89-.58,2.81-.11.37.11-.2,0,0l-.14.27-.06.1h0l-.16.17c-.26.29.28-.14,0,0l-.18.11c-.29.19.34-.08,0,0l-.31.08c-.34.11.37,0,0,0h-.43L38.18,74l-.32-.11c-.34-.11.24.14,0,0a3.53,3.53,0,0,1-.5-.28.87.87,0,0,1-.28-.19c.19.24.14.12.06,0s-.35-.32-.51-.5l-.22-.25c-.08-.09-.24-.31-.07-.09-.56-.77-1-1.6-1.55-2.4-1.1-1.69-2.68-3.35-4.74-3.76a5.43,5.43,0,0,0-5.37,2.13,20.75,20.75,0,0,0-1.52,2.22l-.32.49c0,.06-.29.39-.05.08l-.16.2c-.14.16-.28.32-.43.47l-.28.26c-.05,0-.38.28-.07.07a4.21,4.21,0,0,1-.52.34l-.11,0q-.24.12.06,0l-.23.08a1,1,0,0,1-.34.09h-.44c-.17-.06-.14,0,.07,0l-.24-.13c-.25-.14-.06,0,0,0s-.17-.15-.2-.18l-.18-.19c-.25-.26.14.22,0,0a5.36,5.36,0,0,1-.34-.57l-.12-.24c-.17-.33.09.25,0,0s-.15-.38-.21-.57c-.16-.47-.29-1-.42-1.44-.29-1-.56-2.06-.8-3.1s-.46-2.09-.64-3.15c-.09-.5-.17-1-.25-1.51a6.46,6.46,0,0,0-.11-.75c.05.35,0-.15,0-.18l-.06-.45A48.44,48.44,0,0,1,16.43,54c0-1,.07-2.11.12-3.16A1.64,1.64,0,0,0,15,49.3a1.66,1.66,0,0,0-1.62,1.62,59.33,59.33,0,0,0,0,6.8,58.24,58.24,0,0,0,.91,7.09,66.05,66.05,0,0,0,1.58,6.53c.57,2,1.56,4,3.7,4.59,2.4.65,4.51-.94,5.87-2.76.54-.71.95-1.51,1.47-2.23,0-.07.09-.13.13-.19.23-.32-.23.26,0,0s.25-.29.38-.42l.23-.23.09-.08c.13-.11.11-.09-.07,0,.1-.16.39-.25.55-.35s-.34.09,0,0l.21-.07a1.28,1.28,0,0,1,.34-.07h.31c.39,0-.34-.1.05,0a2.83,2.83,0,0,1,.7.21c-.35-.21,0,0,.06,0s.18.1.27.15l.27.17c.05,0,.37.3.07,0a9.44,9.44,0,0,1,1,1c.17.19-.22-.33,0,0l.23.33.36.56c.29.45.56.91.85,1.35a9.88,9.88,0,0,0,2,2.41,5.65,5.65,0,0,0,6.14.93c2.07-1.12,2.28-3.62,2.64-5.68q1.35-7,2-14.2c.3-4.28.73-9.77-3.47-12.38a7.2,7.2,0,0,0-5.9-.45c-.88.27-1.73.64-2.6,1-.4.15-.81.3-1.23.43a4.61,4.61,0,0,1-1.42.34h-.3a4.21,4.21,0,0,1-.71,0h0a1.78,1.78,0,0,1-.39-.07,5.58,5.58,0,0,1-.78-.2l-.63-.22-.38-.15c.36.15-.06,0-.11,0-.46-.2-.91-.43-1.35-.65A13.47,13.47,0,0,0,21,42.77a7.15,7.15,0,0,0-7.31,5.37,10.46,10.46,0,0,0-.32,2.78,1.62,1.62,0,0,0,3.23,0Z"/></g></g></svg>