<svg xmlns="http://www.w3.org/2000/svg" viewBox="0 0 187.81 79.77"><defs><style>.cls-1{fill:#96c6e7;}.cls-2,.cls-4,.cls-5,.cls-6{fill:#95d0c0;}.cls-3{fill:#f7b146;}.cls-4{font-size:19.64px;letter-spacing:0.25em;}.cls-4,.cls-5{font-family:MaruFoPro-Medium-90ms-RKSJ-H, A-OTF Maru Folk Pro;}.cls-5{font-size:22.96px;letter-spacing:0.25em;}.cls-6{font-size:7.52px;font-family:MaruFoPro-Regular-90ms-RKSJ-H, A-OTF Maru Folk Pro;}</style></defs><g id="圖層_2" data-name="圖層 2"><g id="圖層_1-2" data-name="圖層 1"><path class="cls-1" d="M14.34,22.41s38.34-3.05,38.84,25.1c0,0,1.26,24.73-1.76,28.21H61c-.61-5.66-.71-11.48-1-17.17-.17-3.67-.26-7.34-.29-11,0-3.4-.21-6.55,1.15-9.72a13.55,13.55,0,0,1,11.85-8.34l1.3-.19-2.78-2.63c-.55-.51-4.21,1-4.76,1.18A13.84,13.84,0,0,0,62,30.62a12.41,12.41,0,0,0-1.8,2.09c-.5.74-.81,1.62-1.63,2.09-1.89,1.08-4.2-.13-5.27-1.76,0,0-6-9.16-16.14-11.22,0,0-1.59-.21-.33-1.89l11.91-13L47.13,5.61C43,9.94,38.94,14.33,34.87,18.68a6.37,6.37,0,0,1-4.65,1.84l-13.79-.69Z"/><path class="cls-1" d="M61.49,76.16H50.43l.65-.74c2.39-2.73,2-21.06,1.66-27.89-.12-6.72-2.46-12.19-6.94-16.26-10.94-9.92-31.22-8.43-31.43-8.41l-1,.08,2.9-3.56,14,.7a6,6,0,0,0,4.3-1.71l3.3-3.52c2.93-3.14,6-6.38,9-9.54L47.1,5l2.23,1.86L37.11,20.23c-.43.58-.38.84-.35.91s.3.22.41.24c10.22,2.07,16.21,11,16.46,11.41,1,1.51,3,2.56,4.67,1.63a3.33,3.33,0,0,0,1.1-1.34c.12-.21.24-.42.38-.62a13.44,13.44,0,0,1,1.86-2.17,14,14,0,0,1,4.7-2.86l.18-.07c3.6-1.4,4.62-1.42,5-1L75,29.6l-2.22.32A13.17,13.17,0,0,0,61.3,38c-1.19,2.77-1.16,5.57-1.12,8.53v1c0,3.65.12,7.34.28,11,.06,1.36.12,2.73.17,4.1.16,4.3.33,8.75.79,13Zm-9.27-.89h8.27c-.43-4.17-.59-8.45-.74-12.61-.06-1.37-.11-2.73-.17-4.09-.16-3.66-.26-7.36-.28-11v-1c0-3.06-.07-6,1.19-8.89A14.06,14.06,0,0,1,72.72,29l.34-.05L71,27c-.15,0-.89-.08-4.13,1.18l-.19.07a13.24,13.24,0,0,0-4.4,2.68,11.72,11.72,0,0,0-1.74,2c-.12.18-.24.38-.35.57a4,4,0,0,1-1.43,1.66c-2.08,1.19-4.66-.06-5.86-1.91-.24-.36-6-9-15.86-11a1.43,1.43,0,0,1-1.08-.77,1.89,1.89,0,0,1,.48-1.83L48,7l-.87-.73c-2.91,3.07-5.84,6.2-8.68,9.24L35.19,19a6.79,6.79,0,0,1-5,2l-13.59-.68-1.32,1.63c4.3-.17,21.28-.19,31.07,8.69,4.68,4.24,7.11,9.92,7.24,16.89C53.68,48.45,54.74,70,52.22,75.27Z"/><path class="cls-2" d="M81.07,33.86q-7.16-7.07-14.62-13.8T51.24,6.93C50.12,6,49,5.1,47.9,4.14A36,36,0,0,0,44.78,1.6,8.43,8.43,0,0,0,40.92,0a5.67,5.67,0,0,0-4,1.09c-2.75,2-5.42,4.15-8.08,6.27s-5.22,4.21-7.79,6.36q-7.65,6.42-15,13.2a15.73,15.73,0,0,0-2.71,3.16A16.64,16.64,0,0,0,1.7,33.66,29.25,29.25,0,0,0,.3,41.32c-.19,2.48-.18,5-.25,7.47C0,52.18,0,55.57.16,59c.09,1.58.25,3.16.27,4.74s0,3,.1,4.42a13.88,13.88,0,0,0,1.13,4.75,6.84,6.84,0,0,0,2.18,2.59A11.3,11.3,0,0,0,10,77.28a50.61,50.61,0,0,0,6.28-.17c2.71-.17,5.44-.07,8.16,0l10.46.09,5.15,0A1.62,1.62,0,0,0,40,74L19.48,73.8c-2,0-4,.16-6,.25-1,0-2.06.08-3.08,0-.51,0-1-.1-1.53-.12.5,0,.11,0,0,0l-.36-.06-.71-.16a5.31,5.31,0,0,1-.68-.2l-.29-.1-.16-.06c-.19-.06.35.16.11,0a7.53,7.53,0,0,1-1.17-.67c-.21-.15.31.26,0,0l-.21-.2c-.17-.16-.31-.36-.49-.52,0,0,.24.33.1.12L4.87,72l-.16-.25c-.06-.11-.12-.21-.17-.32s-.19-.47-.08-.14a13.92,13.92,0,0,1-.56-2c0-.15,0-.31-.07-.46s0,.27,0,0l0-.27c0-.38-.07-.76-.09-1.15-.07-1.42,0-2.85-.07-4.27,0-1.59-.2-3.18-.28-4.77s-.13-3.33-.14-5c0-2.8.07-5.61.14-8.42,0-1.24.07-2.48.17-3.72,0-.62.1-1.24.17-1.86,0-.14,0-.27,0-.41s0,.31,0,.08a2.23,2.23,0,0,1,0-.23c0-.32.1-.64.16-1a21.72,21.72,0,0,1,.9-3.46c.1-.26.22-.52.31-.78-.13.4,0,0,.06-.13l.21-.45a14.67,14.67,0,0,1,.89-1.54l.26-.36L6.66,31c.17-.23,0,0,0,.06.22-.21.4-.5.61-.73.48-.52,1-1,1.53-1.47q1.78-1.64,3.58-3.26,3.64-3.28,7.38-6.49,7.43-6.38,15.16-12.38l.42-.33.25-.19c.25-.19.09-.07,0,0l1-.79c.65-.5,1.29-1,2-1.48a6.48,6.48,0,0,1,.79-.49c.12-.07.12-.15-.07,0a1.8,1.8,0,0,1,.21-.08l.41-.11.21,0c0,.07-.36,0-.12,0h.41a1.93,1.93,0,0,0,.41,0s-.34-.07-.17,0l.25,0c.08,0,.8.17.8.25l-.09,0,.2.09.38.2a8.19,8.19,0,0,1,1.52,1c-.32-.29.06,0,.13.1l.36.3.7.6L46.23,7c2.41,2.07,4.91,4,7.34,6.1s5,4.24,7.39,6.41Q68.31,26,75.37,32.8q1.72,1.66,3.42,3.34a1.61,1.61,0,1,0,2.28-2.28Z"/><path class="cls-3" d="M16.61,50.89c0-.42,0-.83.05-1.24,0-.24-.07.41,0,0,0-.08,0-.17,0-.26s.1-.41.16-.61a3.86,3.86,0,0,1,.16-.48c.07-.21.14-.1,0,.07a1.23,1.23,0,0,0,.12-.26c.07-.15.15-.28.23-.42l.1-.15c.09-.14.35-.34,0,0,.22-.19.39-.45.62-.65l.13-.11c.25-.22-.32.22-.05,0s.29-.2.45-.29l.38-.2.16-.07c-.37.22-.19.08,0,0a5.36,5.36,0,0,1,.95-.26l.18,0c-.42.13-.22,0-.06,0l.46,0h.47l.24,0c.15,0,.46.12,0,0,.32.09.66.11,1,.2l.49.16.3.11c.3.11-.32-.15.06,0a28.47,28.47,0,0,0,5.49,2.33,9.94,9.94,0,0,0,5.82-.64c.83-.31,1.65-.66,2.49-.94a11.48,11.48,0,0,1,1.15-.31l.23,0c.39-.08-.36,0,0,0a5.54,5.54,0,0,1,.7,0h.35c.18,0,.15,0-.08,0,.09.08.46.1.58.14s.19.06.29.09-.33-.18,0,0,.41.23.61.36-.17-.17,0,0l.22.2a5.44,5.44,0,0,1,.41.42c.07.08.34.29,0,0a1.15,1.15,0,0,1,.14.19c.13.2.25.4.36.61a.89.89,0,0,1,.15.31s-.13-.35,0-.06a7,7,0,0,1,.22.69c.07.23.12.46.17.7s.05.29.07.43c0-.37,0,.11,0,.15a24.81,24.81,0,0,1,0,3.11c-.07,2.23-.26,4.46-.53,6.68,0,.29-.06.58-.1.86,0,.11,0,.21,0,.32s-.07.54,0,.19c-.07.58-.16,1.15-.24,1.73-.17,1.09-.34,2.19-.52,3.28l-.57,3.27c-.17.95-.32,1.89-.58,2.81-.11.37.11-.2,0,0l-.14.27-.06.1c-.1.14-.09.13,0,0,0,0-.14.15-.16.17-.26.29.28-.14,0,0l-.18.11c-.29.19.34-.08,0,0l-.31.08c-.34.11.37,0,0,0H39l-.34,0c-.32,0,.1,0,.1,0s-.46-.1-.56-.13l-.32-.11c-.34-.11.24.14,0,0a4.91,4.91,0,0,1-.5-.28.92.92,0,0,1-.28-.19c.19.24.14.12.06,0s-.35-.32-.51-.5l-.22-.25c-.08-.09-.24-.31-.07-.09-.56-.77-1-1.6-1.55-2.4-1.1-1.69-2.68-3.35-4.74-3.76A5.42,5.42,0,0,0,24.7,68.5a19.79,19.79,0,0,0-1.52,2.22l-.32.49c0,.06-.29.39-.05.08l-.16.2c-.14.16-.28.32-.43.47l-.28.26c-.05,0-.38.28-.07.07a5.8,5.8,0,0,1-.52.34l-.11.05c-.16.08-.14.08.06,0a2,2,0,0,1-.23.08,1.31,1.31,0,0,1-.34.09l.2,0h-.18c-.05,0-.25,0-.29,0,.23,0,.25,0,.07,0l-.12,0-.12,0c-.17-.06-.14-.05.07,0,0,0-.2-.11-.24-.13-.25-.14-.06,0,0,0s-.17-.15-.2-.18-.12-.13-.18-.19c-.25-.26.14.22,0,0a6.59,6.59,0,0,1-.34-.57l-.12-.24c-.17-.33.09.25,0,0s-.15-.38-.21-.57c-.16-.47-.29-1-.42-1.44-.29-1-.56-2.06-.8-3.1s-.46-2.09-.64-3.15c-.09-.5-.17-1-.25-1.51,0-.25-.08-.5-.11-.75.05.35,0-.15,0-.18l-.06-.45a48.62,48.62,0,0,1-.34-6.38c0-1,.07-2.11.12-3.16A1.63,1.63,0,0,0,15,49.27a1.66,1.66,0,0,0-1.62,1.62,61.7,61.7,0,0,0,0,6.8,58.24,58.24,0,0,0,.91,7.09,66.74,66.74,0,0,0,1.58,6.53c.57,2,1.56,4,3.7,4.59,2.4.65,4.51-.94,5.87-2.76.54-.71.95-1.51,1.47-2.23,0-.07.09-.13.13-.19.23-.32-.23.26,0,0,.13-.14.25-.29.38-.42a2.5,2.5,0,0,1,.23-.23l.09-.08c.13-.11.11-.09-.07.05.1-.16.39-.25.55-.35s-.34.09,0,0l.21-.07a1,1,0,0,1,.34-.07l-.18,0h.49c.39,0-.34-.1.05,0a2.83,2.83,0,0,1,.7.21c-.35-.21,0,0,.06,0s.18.1.27.15l.27.17c.05,0,.37.3.07.05a8.84,8.84,0,0,1,1,1c.17.19-.22-.33,0,0l.23.33.36.56c.29.45.56.91.85,1.35a10.07,10.07,0,0,0,2,2.41,5.67,5.67,0,0,0,6.14.93c2.07-1.12,2.28-3.62,2.64-5.68a142.1,142.1,0,0,0,2-14.2c.3-4.28.73-9.77-3.47-12.38A7.16,7.16,0,0,0,36.35,44c-.88.27-1.73.64-2.6,1-.4.15-.81.3-1.23.43a4.68,4.68,0,0,1-1.42.34c.34,0,.17,0,.06,0l-.36,0a5.56,5.56,0,0,1-.71,0c-.1,0-.41,0,0,0a2.44,2.44,0,0,1-.39-.07,6.86,6.86,0,0,1-.78-.2l-.63-.22-.38-.15c.36.15-.06,0-.11,0-.46-.2-.91-.43-1.35-.65A13.35,13.35,0,0,0,21,42.74a7.14,7.14,0,0,0-7.31,5.37,10.41,10.41,0,0,0-.32,2.78,1.62,1.62,0,0,0,3.23,0Z"/><text class="cls-4" transform="translate(87.51 76.2)">牙醫診所</text><text class="cls-5" transform="translate(86.86 51.33)">長興</text><text class="cls-6" transform="translate(142 40.85)">Changxing <tspan x="0" y="10.94">Dental Clinic</tspan></text></g></g></svg>