<svg xmlns="http://www.w3.org/2000/svg" xmlns:xlink="http://www.w3.org/1999/xlink" viewBox="0 0 1952.47 623.68"><defs><style>.cls-1,.cls-3{fill:none;}.cls-2{clip-path:url(#clip-path);}.cls-3{stroke:#f9f9fb;stroke-miterlimit:10;}</style><clipPath id="clip-path" transform="translate(15.9 81.39)"><rect class="cls-1" width="1919.7" height="402.61"/></clipPath></defs><g id="圖層_2" data-name="圖層 2"><g id="圖層_1-2" data-name="圖層 1"><g class="cls-2"><path class="cls-3" d="M-15.65-12.85s93.91-54.78,192.52,0,186.26,29.74,263-31.3S665.22-89.54,735.65-1.89,1017,109.24,1119.7,9.06s325-81,411.08-26.6c108.66,68.61,280.18,172.8,405.39,14.4" transform="translate(15.9 81.39)"/><path class="cls-3" d="M-15.65,4.91s93.91-54.78,192.52,0,186.26,29.74,263-31.31S665.22-71.79,735.65,15.87,1017,127,1119.7,26.82s325-81,411.08-26.61C1639.44,68.82,1811,173,1936.17,14.61" transform="translate(15.9 81.39)"/><path class="cls-3" d="M-15.65,22.67s93.91-54.78,192.52,0,186.26,29.74,263-31.31S665.22-54,735.65,33.62s281.31,111.13,384.05,11,325-81,411.08-26.61c108.66,68.61,280.18,172.8,405.39,14.4" transform="translate(15.9 81.39)"/><path class="cls-3" d="M-15.65,40.43s93.91-54.79,192.52,0,186.26,29.74,263-31.31S665.22-36.27,735.65,51.38s281.31,111.13,384.05,11,325-81,411.08-26.61c108.66,68.61,280.18,172.8,405.39,14.4" transform="translate(15.9 81.39)"/><path class="cls-3" d="M-15.65,58.19s93.91-54.79,192.52,0,186.26,29.73,263-31.31S665.22-18.51,735.65,69.14,1017,180.27,1119.7,80.1s325-81,411.08-26.61c108.66,68.61,280.18,172.8,405.39,14.4" transform="translate(15.9 81.39)"/><path class="cls-3" d="M-15.65,75.94s93.91-54.78,192.52,0,186.26,29.74,263-31.3S665.22-.75,735.65,86.9,1017,198,1119.7,97.86s325-81,411.08-26.61c108.66,68.61,280.18,172.8,405.39,14.4" transform="translate(15.9 81.39)"/><path class="cls-3" d="M-15.65,93.7s93.91-54.78,192.52,0,186.26,29.74,263-31.3S665.22,17,735.65,104.66s281.31,111.13,384.05,11,325-81,411.08-26.61c108.66,68.61,280.18,172.8,405.39,14.4" transform="translate(15.9 81.39)"/><path class="cls-3" d="M-15.65,111.46s93.91-54.78,192.52,0,186.26,29.74,263-31.3,225.39-45.39,295.82,42.26,281.31,111.13,384.05,11,325-81,411.08-26.6c108.66,68.61,280.18,172.8,405.39,14.4" transform="translate(15.9 81.39)"/><path class="cls-3" d="M-15.65,129.22s93.91-54.78,192.52,0,186.26,29.74,263-31.3,225.39-45.39,295.82,42.26S1017,251.31,1119.7,151.13s325-81,411.08-26.6c108.66,68.61,280.18,172.8,405.39,14.4" transform="translate(15.9 81.39)"/><path class="cls-3" d="M-15.65,147s93.91-54.78,192.52,0,186.26,29.74,263-31.3,225.39-45.4,295.82,42.26S1017,269.07,1119.7,168.89s325-81,411.08-26.61c108.66,68.62,280.18,172.81,405.39,14.41" transform="translate(15.9 81.39)"/><path class="cls-3" d="M-15.65,164.74s93.91-54.78,192.52,0,186.26,29.74,263-31.31S665.22,88,735.65,175.69s281.31,111.14,384.05,11,325-81,411.08-26.61c108.66,68.61,280.18,172.8,405.39,14.4" transform="translate(15.9 81.39)"/><path class="cls-3" d="M-15.65,182.5s93.91-54.79,192.52,0,186.26,29.74,263-31.31,225.39-45.39,295.82,42.26,281.31,111.13,384.05,11,325-81,411.08-26.61c108.66,68.61,280.18,172.8,405.39,14.4" transform="translate(15.9 81.39)"/><path class="cls-3" d="M-15.65,200.26s93.91-54.79,192.52,0S363.13,230,439.83,169s225.39-45.39,295.82,42.26,281.31,111.13,384.05,11,325-81,411.08-26.61c108.66,68.61,280.18,172.8,405.39,14.4" transform="translate(15.9 81.39)"/><path class="cls-3" d="M-15.65,218s93.91-54.78,192.52,0,186.26,29.74,263-31.3S665.22,141.32,735.65,229s281.31,111.13,384.05,11,325-81,411.08-26.61c108.66,68.61,280.18,172.8,405.39,14.4" transform="translate(15.9 81.39)"/><path class="cls-3" d="M-15.65,235.77s93.91-54.78,192.52,0,186.26,29.74,263-31.3,225.39-45.39,295.82,42.26,281.31,111.13,384.05,11,325-81,411.08-26.61c108.66,68.61,280.18,172.8,405.39,14.4" transform="translate(15.9 81.39)"/><path class="cls-3" d="M-15.65,253.53s93.91-54.78,192.52,0,186.26,29.74,263-31.3,225.39-45.39,295.82,42.26S1017,375.62,1119.7,275.44s325-81,411.08-26.6c108.66,68.61,280.18,172.8,405.39,14.4" transform="translate(15.9 81.39)"/><path class="cls-3" d="M-15.65,271.29s93.91-54.78,192.52,0S363.13,301,439.83,240s225.39-45.39,295.82,42.26S1017,393.38,1119.7,293.2s325-81,411.08-26.6C1639.44,335.21,1811,439.4,1936.17,281" transform="translate(15.9 81.39)"/><path class="cls-3" d="M-15.65,289.05s93.91-54.78,192.52,0,186.26,29.74,263-31.3S665.22,212.35,735.65,300,1017,411.14,1119.7,311s325-81,411.08-26.61C1639.44,353,1811,457.16,1936.17,298.76" transform="translate(15.9 81.39)"/><path class="cls-3" d="M-15.65,306.81s93.91-54.78,192.52,0,186.26,29.74,263-31.31,225.39-45.39,295.82,42.27,281.31,111.13,384.05,11,325-81,411.08-26.61c108.66,68.61,280.18,172.8,405.39,14.4" transform="translate(15.9 81.39)"/><path class="cls-3" d="M-15.65,324.57s93.91-54.78,192.52,0,186.26,29.74,263-31.31,225.39-45.39,295.82,42.26,281.31,111.13,384.05,11,325-81,411.08-26.61c108.66,68.61,280.18,172.8,405.39,14.4" transform="translate(15.9 81.39)"/><path class="cls-3" d="M-15.65,342.33s93.91-54.79,192.52,0,186.26,29.73,263-31.31,225.39-45.39,295.82,42.26,281.31,111.13,384.05,11,325-81,411.08-26.61c108.66,68.61,280.18,172.8,405.39,14.4" transform="translate(15.9 81.39)"/><path class="cls-3" d="M-15.65,360.08s93.91-54.78,192.52,0,186.26,29.74,263-31.3S665.22,283.39,735.65,371,1017,482.17,1119.7,382s325-81,411.08-26.61c108.66,68.61,280.18,172.8,405.39,14.4" transform="translate(15.9 81.39)"/><path class="cls-3" d="M-15.65,377.84s93.91-54.78,192.52,0,186.26,29.74,263-31.3,225.39-45.39,295.82,42.26,281.31,111.13,384.05,11,325-81,411.08-26.61c108.66,68.61,280.18,172.8,405.39,14.4" transform="translate(15.9 81.39)"/><path class="cls-3" d="M-15.65,395.6s93.91-54.78,192.52,0,186.26,29.74,263-31.3,225.39-45.39,295.82,42.26,281.31,111.13,384.05,11,325-81,411.08-26.61c108.66,68.61,280.18,172.8,405.39,14.4" transform="translate(15.9 81.39)"/><path class="cls-3" d="M-15.65,413.36s93.91-54.78,192.52,0,186.26,29.74,263-31.3,225.39-45.39,295.82,42.26S1017,535.45,1119.7,435.27s325-81,411.08-26.6c108.66,68.61,280.18,172.8,405.39,14.4" transform="translate(15.9 81.39)"/><path class="cls-3" d="M-15.65,431.12s93.91-54.78,192.52,0,186.26,29.74,263-31.3,225.39-45.4,295.82,42.26S1017,553.21,1119.7,453s325-81,411.08-26.61C1639.44,495,1811,599.23,1936.17,440.83" transform="translate(15.9 81.39)"/><path class="cls-3" d="M-15.65,448.88s93.91-54.78,192.52,0,186.26,29.74,263-31.31,225.39-45.39,295.82,42.27S1017,571,1119.7,470.79s325-81,411.08-26.61c108.66,68.61,280.18,172.8,405.39,14.4" transform="translate(15.9 81.39)"/></g></g></g></svg>