<svg xmlns="http://www.w3.org/2000/svg" viewBox="0 0 1952.5 623.67"><defs><style>.cls-1{fill:none;stroke:#f9f9fb;stroke-miterlimit:10;}</style></defs><g id="圖層_2" data-name="圖層 2"><g id="圖層_1-2" data-name="圖層 1"><path class="cls-1" d="M.25,68.54s93.91-54.78,192.52,0,186.26,29.74,263-31.3S681.12-8.15,751.55,79.5s281.35,111.13,384,11,325-81,411.08-26.6c108.66,68.61,280.18,172.8,405.39,14.4"/><path class="cls-1" d="M.25,86.3s93.91-54.78,192.52,0S379,116,455.77,55,681.12,9.6,751.55,97.26s281.35,111.13,384,10.95,325-81,411.08-26.61c108.66,68.61,280.22,172.79,405.39,14.4"/><path class="cls-1" d="M.25,104.06s93.91-54.78,192.52,0S379,133.8,455.77,72.75,681.12,27.39,751.55,115s281.31,111.13,384,11,325-81,411.08-26.61c108.66,68.61,280.18,172.8,405.39,14.4"/><path class="cls-1" d="M.25,121.82s93.91-54.79,192.52,0,186.26,29.74,263-31.31,225.35-45.39,295.78,42.26,281.31,111.13,384,11,325-81,411.08-26.61c108.66,68.61,280.18,172.8,405.39,14.4"/><path class="cls-1" d="M.25,139.58s93.91-54.79,192.52,0,186.26,29.73,263-31.31,225.35-45.39,295.78,42.26,281.35,111.13,384,11,325-81,411.08-26.61c108.66,68.61,280.18,172.8,405.39,14.4"/><path class="cls-1" d="M.25,157.33s93.91-54.78,192.52,0S379,187.07,455.77,126s225.35-45.39,295.78,42.26,281.35,111.1,384,11,325-81,411.08-26.61c108.66,68.61,280.18,172.8,405.39,14.4"/><path class="cls-1" d="M.25,175.09s93.91-54.78,192.52,0,186.26,29.74,263-31.3,225.35-45.4,295.78,42.26,281.31,111.13,384,11,325-81,411.08-26.61c108.66,68.61,280.18,172.8,405.39,14.4"/><path class="cls-1" d="M.25,192.85s93.91-54.78,192.52,0,186.26,29.74,263-31.3,225.39-45.39,295.82,42.26,281.31,111.13,384.05,11,325-81,411.08-26.6c108.66,68.61,280.18,172.8,405.39,14.4"/><path class="cls-1" d="M.25,210.61s93.91-54.78,192.52,0,186.26,29.74,263-31.3,225.39-45.39,295.82,42.26,281.31,111.13,384,11,325-81,411.08-26.6c108.66,68.61,280.18,172.8,405.39,14.4"/><path class="cls-1" d="M.25,228.39s93.91-54.78,192.52,0,186.26,29.74,263-31.3,225.39-45.4,295.82,42.26,281.31,111.11,384,10.93,325-81,411.08-26.61c108.66,68.62,280.18,172.81,405.39,14.41"/><path class="cls-1" d="M.25,246.13s93.91-54.78,192.52,0,186.26,29.74,263-31.31,225.35-45.43,295.78,42.26,281.31,111.14,384,11,325-81,411.08-26.61c108.66,68.61,280.18,172.8,405.39,14.4"/><path class="cls-1" d="M.25,263.89s93.91-54.79,192.52,0,186.26,29.74,263-31.31,225.39-45.39,295.82,42.26,281.31,111.13,384.05,11,325-81,411.08-26.61c108.66,68.61,280.18,172.8,405.39,14.4"/><path class="cls-1" d="M.25,281.65s93.91-54.79,192.52,0,186.26,29.74,263-31.26S681.12,205,751.55,292.65s281.31,111.13,384,11,325-81,411.08-26.61c108.66,68.61,280.18,172.8,405.39,14.4"/><path class="cls-1" d="M.25,299.39s93.91-54.78,192.52,0,186.26,29.74,263-31.3,225.35-45.38,295.78,42.3,281.31,111.13,384,11,325-81,411.08-26.61c108.66,68.61,280.18,172.8,405.39,14.4"/><path class="cls-1" d="M.25,317.16s93.91-54.78,192.52,0,186.26,29.74,263-31.3,225.39-45.39,295.82,42.26,281.31,111.13,384.05,11,325-81,411.08-26.61c108.66,68.61,280.18,172.8,405.39,14.4"/><path class="cls-1" d="M.25,334.92s93.91-54.78,192.52,0,186.26,29.74,263-31.3,225.39-45.39,295.82,42.26,281.31,111.13,384,10.95,325-81,411.08-26.6c108.66,68.61,280.18,172.8,405.39,14.4"/><path class="cls-1" d="M.25,352.68s93.91-54.78,192.52,0,186.26,29.71,263-31.29S681.12,276,751.55,363.65s281.35,111.12,384,10.94,325-81,411.08-26.6c108.66,68.61,280.22,172.8,405.39,14.4"/><path class="cls-1" d="M.25,370.44s93.91-54.78,192.52,0,186.26,29.74,263-31.3,225.35-45.4,295.78,42.25,281.35,111.14,384,11,325-81,411.08-26.61c108.66,68.61,280.22,172.77,405.39,14.37"/><path class="cls-1" d="M.25,388.2s93.91-54.78,192.52,0,186.26,29.74,263-31.31,225.39-45.39,295.82,42.27,281.31,111.13,384.05,11,325-81,411.08-26.61c108.66,68.61,280.18,172.8,405.39,14.4"/><path class="cls-1" d="M.25,406s93.91-54.78,192.52,0,186.26,29.74,263-31.31,225.39-45.39,295.82,42.26,281.31,111.13,384.05,11,325-81,411.08-26.61c108.66,68.61,280.18,172.8,405.39,14.4"/><path class="cls-1" d="M.25,423.72s93.91-54.79,192.52,0,186.26,29.73,263-31.31S681.16,347,751.59,434.67s281.31,111.13,384.05,11,325-81,411.08-26.61c108.66,68.61,280.18,172.8,405.39,14.4"/><path class="cls-1" d="M.25,441.47s93.91-54.78,192.52,0,186.26,29.74,263-31.3,225.35-45.39,295.78,42.22,281.35,111.17,384,11,325-81,411.08-26.61c108.66,68.61,280.18,172.8,405.39,14.4"/><path class="cls-1" d="M.25,459.23s93.91-54.78,192.52,0S379,489,455.77,427.93s225.39-45.39,295.82,42.26,281.31,111.13,384.05,11,325-81,411.08-26.61c108.66,68.61,280.18,172.8,405.39,14.4"/><path class="cls-1" d="M.25,477s93.91-54.78,192.52,0,186.26,29.74,263-31.3S681.16,400.3,751.59,488s281.31,111.13,384.05,11,325-81,411.08-26.61c108.66,68.61,280.18,172.8,405.39,14.4"/><path class="cls-1" d="M.25,494.75s93.91-54.78,192.52,0,186.26,29.74,263-31.3,225.39-45.39,295.82,42.26,281.31,111.13,384,10.95,325-81,411.08-26.6c108.66,68.61,280.18,172.8,405.39,14.4"/><path class="cls-1" d="M.25,512.51s93.91-54.78,192.52,0,186.26,29.74,263-31.3,225.39-45.4,295.82,42.26,281.31,111.13,384,10.92,325-81,411.08-26.61c108.66,68.61,280.22,172.84,405.39,14.44"/><path class="cls-1" d="M.25,530.27s93.91-54.78,192.52,0S379,560,455.77,499s225.39-45.39,295.82,42.27,281.31,111.16,384,10.95,325-81,411.08-26.61c108.66,68.61,280.18,172.8,405.39,14.4"/></g></g></svg>