<?xml version="1.0" encoding="utf-8"?>
<!-- Generator: Adobe Illustrator 24.3.0, SVG Export Plug-In . SVG Version: 6.00 Build 0)  -->
<svg version="1.1" id="圖層_1" xmlns="http://www.w3.org/2000/svg" xmlns:xlink="http://www.w3.org/1999/xlink" x="0px" y="0px"
	 viewBox="0 0 60 60" style="enable-background:new 0 0 60 60;" xml:space="preserve">
<style type="text/css">
	.st0{fill:#A7C464;}
	.st1{fill:#FFFFFF;}
</style>
<circle class="st0" cx="30" cy="30" r="30"/>
<g id="圖層_2-2">
	<g id="圖層_2-2-2">
		<path class="st1" d="M26.8,15.2c0,0,1.2,0.2,1.6,3.3s0.2,4.5-1,4.7s-3.9-0.2-3.9,1c0.1,0.9,0.4,1.8,1,2.5L31.7,37
			c0,0,1.9,3.3,3.1,0.6s1-3.3,3.1-2.9s5.3,2.9,4.7,4.5c-0.4,3.2-3.1,5.7-6.4,5.8c-5.4,0.8-8.4-2.7-12.4-8.4S13,22.4,21,16.3
			C22.5,14.8,24.8,14.4,26.8,15.2z"/>
	</g>
</g>
</svg>
