<svg xmlns="http://www.w3.org/2000/svg" viewBox="0 0 141.93 122.76"><defs><style>.cls-1{fill:#b2ada9;}</style></defs><g id="圖層_2" data-name="圖層 2"><g id="圖層_2-2" data-name="圖層 2"><path class="cls-1" d="M17.85,70.88a37,37,0,0,0,18.93,4.84A36.75,36.75,0,0,0,55.45,71,33.92,33.92,0,0,0,68.37,57.78a38.61,38.61,0,0,0,4.66-19,39.22,39.22,0,0,0-4.57-19A33.23,33.23,0,0,0,55.63,6.55,36.75,36.75,0,0,0,37,1.79a38.65,38.65,0,0,0-19,4.67A33.76,33.76,0,0,0,4.76,19.38,36.94,36.94,0,0,0,0,38.22,38.8,38.8,0,0,0,4.76,57.51,34.68,34.68,0,0,0,17.85,70.88Zm.54-57.6q6-9,16.6-9,10.95,0,18.21,9.33t7.27,27.27q0,14.9-5.47,23.6t-16.24,8.7q-12,0-19.2-10.23t-7.18-26.2Q12.38,22.24,18.39,13.28Z"/><path class="cls-1" d="M86.67,27.27a1,1,0,0,0,.71-.18Q93.49,5.75,109.46,5.74q7.89,0,11.75,5.21t3.86,14.35q0,11.13-5.84,17.59t-19.82,10q-.54.18-.18,1.26c.24.72.54,1,.89.9A30.21,30.21,0,0,1,108.74,54Q119,54,124,60.65T129,77q0,12.74-9.24,24.94T89,120.76q-.72.18-.27,1.17t1.17.81q17-4.68,28.8-12.56T136.19,93q5.75-9.24,5.74-18a24.75,24.75,0,0,0-6.19-16.69q-6.18-7.18-18-8.44a29.44,29.44,0,0,0,13.82-11.21,29.36,29.36,0,0,0,5-16.42A20.53,20.53,0,0,0,131,7.81q-5.57-6-15.61-6a39,39,0,0,0-13.28,2.7,20.19,20.19,0,0,1-5.38,1.25c-2,0-3-1-3-3.05a9.62,9.62,0,0,1,.35-2c.12-.12,0-.27-.35-.45A2.4,2.4,0,0,0,92.59,0a1,1,0,0,0-.72.36l-6.64,26.2C85.11,27,85.59,27.27,86.67,27.27Z"/></g></g></svg>