<svg xmlns="http://www.w3.org/2000/svg" viewBox="0 0 199.98 231.37"><defs><style>.cls-1{fill:#ce9b6d;}</style></defs><g id="圖層_2" data-name="圖層 2"><g id="圖層_1-2" data-name="圖層 1"><path class="cls-1" d="M84.52,28.44a.94.94,0,0,1,.35-.25c.32-.12.64-.26,1-.41a15.84,15.84,0,0,0,1.71-1,19,19,0,0,0,3-2.34,44.44,44.44,0,0,0,4.87-5.82c.48-.65.95-1.33,1.45-2A39.9,39.9,0,0,1,110,5.63,48.55,48.55,0,0,1,126.23.4a39.37,39.37,0,0,1,16.89,1.22A36.8,36.8,0,0,1,157.86,10a33.41,33.41,0,0,1,8.28,13c4,11.21,3.06,22.4-1.16,33.2-3.82,9.79-11.12,16.87-19.9,22.57C135.48,85,124.77,88.35,114,91.55c-9.71,2.87-19.43,5.75-28.94,9.2A42.92,42.92,0,0,0,64.52,116c-3.28,4.52-4.75,9.35-3.38,15a10.92,10.92,0,0,1-.45,5.23,3.16,3.16,0,0,1-2.16,2,3.91,3.91,0,0,1-2.77-1.5c-1.47-1.93-1.38-4.28-.88-6.53a36.91,36.91,0,0,1,8-15.41c1.1-1.33,2.28-2.59,3.54-4a157.41,157.41,0,0,1-13.55-10.44A80.63,80.63,0,0,1,38.49,83.48a45.29,45.29,0,0,1-6.88-18.93C30.28,51.66,33,39.82,43.29,31c5.47-4.68,12.27-7.65,19.54-7.5a25.77,25.77,0,0,1,10.39,2.24c3.47,1.68,6.46,4.17,9.5,6.52s6.19,4.49,10,5.13A18.37,18.37,0,0,0,103.05,36a28.46,28.46,0,0,0,4.59-2.53c.74-.49,1.46-1,2.17-1.55.35-.27.7-.54,1-.82.12-.09.36-.39.51-.39.9-.05-.65,2-.86,2.37a25.69,25.69,0,0,1-1.94,2.59c-4.33,5-10.8,6.76-17.26,6.37-6.19-.37-11.79-2.71-17.22-5.55-6.08-3.18-12-3.15-17.93.66-7.81,5-11.36,12.23-12,21.21C43.43,69,46.45,78.65,51.91,87.58c3.76,6.15,8.93,11.15,14.47,15.74.76.63,1.5,1.28,2.29,1.86a4.12,4.12,0,0,0,1.16.71,2,2,0,0,0,1.33-.07,4.59,4.59,0,0,0,.94-.64l1-.73c.66-.49,1.33-1,2-1.43l2-1.3c1.81-1.16,3.65-2.27,5.53-3.31,2-1.13,4.12-2.18,6.23-3.17q1.53-.72,3.06-1.38c7.28-3.17,14.89-5.34,22.34-8,3.13-1.13,6.25-2.3,9.33-3.54a66.52,66.52,0,0,0,26.29-18.6c7.58-9,9.93-22.19,7.26-33.45a31.35,31.35,0,0,0-7-13.66,28.21,28.21,0,0,0-13.56-8,41.21,41.21,0,0,0-5.14-1.09,38.27,38.27,0,0,0-12.81.14c-9.13,1.72-16.09,6.82-22.2,13.49a34.36,34.36,0,0,1-6.8,6,11.65,11.65,0,0,1-4.56,1.74.81.81,0,0,1-.41,0C84.41,28.7,84.41,28.56,84.52,28.44Z"/><path class="cls-1" d="M146.48,127a11.28,11.28,0,0,1-1.27.59l-1.3.62c-1.43.68-2.85,1.39-4.28,2.07a41.23,41.23,0,0,0-4.16,2.19l0,0c-1.73,1.09-3.48,2.11-5.12,3.34a26.46,26.46,0,0,0-2.88,2.39,21.33,21.33,0,0,0-2.71,2.75c-.17.23-.3.61,0,.73a.47.47,0,0,0,.35,0l15.39-4.27c.12,0,.06.21,0,.28a84.6,84.6,0,0,1-17.41,9,5.23,5.23,0,0,0-3.11,3.52c-2.7,7.62-2.56,15.72,1.75,22.71.56.91,1.1,1.84,1.67,2.8-2-.24-5.32-3-8.15-6.5-3.92-4.92-4.53-11.36-3.61-17.41.11-.76.64-2.59-.64-2.74l-2.67-.29c-2.61-.29-5.29-.31-7.67-1.5-4.34-2.12-6-5-5.61-11.28a23.93,23.93,0,0,1,4.91-13.36c-10.14-1.23-19.27-4.66-28.4-9.16a46.45,46.45,0,0,1,3.53-3,2.28,2.28,0,0,1,1.75.06c4.69,1.75,9.26,3.83,14,5.3,15.34,4.73,30.2,3.71,44.41-4.18,5.59-3.11,11.59-6.47,15.69-11.5.56-.67,1.34-1.78.92-2.7-.36-.77-1.38-1-2.13-1-4.63-.25-8.8,1.5-12.89,3.26-8.17,3.52-15.68,8.08-21.7,14.8a2.87,2.87,0,0,1-1.62,1c-2.22.22-4.45.28-6.68.4-.4,0-.75-.18-.57-.64a1.53,1.53,0,0,1,.34-.46,69.48,69.48,0,0,1,14.44-11.21A61.7,61.7,0,0,1,130,99.27a57.46,57.46,0,0,1,9.65-2.66c3.21-.61,6.76-1.4,10-1.07a4.86,4.86,0,0,1,2.12.61c2.32,1.42.32,4.49-.68,6.1a32.31,32.31,0,0,1-9.85,9.66A74.53,74.53,0,0,1,124.8,120a50.15,50.15,0,0,1-12,2.68,2.54,2.54,0,0,0-2.37,1.59,33.91,33.91,0,0,0-1.46,3.78,26.32,26.32,0,0,0-1.46,9.09,5.93,5.93,0,0,0,2.51,4.85,5.45,5.45,0,0,0,5.35.39c1.53-.81,2.61-2.31,4-3.36s2.89-2.28,4.43-3.31a53.93,53.93,0,0,1,9.88-5.15,67.49,67.49,0,0,1,12.53-3.54Z"/><path class="cls-1" d="M.87,212.06H6.21v2.73a.77.77,0,0,0,.86.83.76.76,0,0,0,.85-.83v-2.73h6.71v2.73a.76.76,0,0,0,.85.83.75.75,0,0,0,.83-.83v-2.73H21.8a.78.78,0,0,0,.83-.88.75.75,0,0,0-.83-.83H16.31v-2.08a.76.76,0,0,0-.83-.85.77.77,0,0,0-.85.85v2.08H7.92v-2.08a.77.77,0,0,0-.85-.85.78.78,0,0,0-.86.85v2.08H.87a.76.76,0,0,0-.83.83A.78.78,0,0,0,.87,212.06Z"/><path class="cls-1" d="M21.75,229.46a23.88,23.88,0,0,1-9-3.56,19.86,19.86,0,0,0,5.6-8.45,1.06,1.06,0,0,0,0-.83.83.83,0,0,0-.52-.4.87.87,0,0,0-1.17.66,17.69,17.69,0,0,1-5.27,7.93,18.6,18.6,0,0,1-5.31-7.88.93.93,0,0,0-.46-.54.72.72,0,0,0-.59,0,.76.76,0,0,0-.48,1.07A20.62,20.62,0,0,0,10,225.89,27.36,27.36,0,0,1,.9,229.54c-.46.09-.74.26-.85.52a.75.75,0,0,0,.1.71,1,1,0,0,0,.88.51,1.35,1.35,0,0,0,.33,0,28.31,28.31,0,0,0,10-4.26,24.31,24.31,0,0,0,9.93,4.16,1,1,0,0,0,1.16-.4.78.78,0,0,0,.19-.77C22.51,229.71,22.23,229.54,21.75,229.46Z"/><path class="cls-1" d="M30.18,209.38a14.11,14.11,0,0,1,1.71,1.14,15.86,15.86,0,0,1,1.37,1.17.66.66,0,0,0,.5.28h0a.9.9,0,0,0,.62-.31.74.74,0,0,0,.13-1.09,16.66,16.66,0,0,0-3.51-2.5.82.82,0,0,0-1,.11.79.79,0,0,0-.33.65A.75.75,0,0,0,30.18,209.38Z"/><path class="cls-1" d="M51.23,229.1c-3.93.2-7.58.24-10.85.1s-5.61-1.08-6.83-2.93v-5.39a1.24,1.24,0,0,0-1.31-1.31h-3a.84.84,0,0,0,0,1.67h2.46c.08,0,.1,0,.1.13v5c-.9.9-1.94,1.85-3.07,2.85a.84.84,0,0,0-.16,1.17.91.91,0,0,0,.6.48.9.9,0,0,0,.75-.3c.82-.76,1.77-1.69,2.82-2.77,1.65,1.92,4.23,2.95,7.67,3.07,1.15,0,2.45,0,3.88,0,2,0,4.28,0,6.79-.1a.83.83,0,0,0,.56-.17,1.16,1.16,0,0,0,.29-.48,1,1,0,0,0,0-.8C51.82,229.07,51.38,229.1,51.23,229.1Z"/><path class="cls-1" d="M29.34,214.66A16.36,16.36,0,0,1,32.62,217a.69.69,0,0,0,.49.22h0a1,1,0,0,0,.67-.36.75.75,0,0,0,0-1.08,11.8,11.8,0,0,0-1.63-1.27h0a21,21,0,0,0-2.1-1.25.78.78,0,0,0-1,.23.74.74,0,0,0-.25.64A.79.79,0,0,0,29.34,214.66Z"/><path class="cls-1" d="M38,226.16H49.1a1.28,1.28,0,0,0,1-.36,1.32,1.32,0,0,0,.35-1V213.38a1.32,1.32,0,0,0-.35-.95,1.28,1.28,0,0,0-1-.36H44.19V208.3a.77.77,0,0,0-.83-.86.78.78,0,0,0-.86.86v3.77H38a1.24,1.24,0,0,0-1.31,1.31v11.47A1.24,1.24,0,0,0,38,226.16Zm6.24-12.41h4.43c.08,0,.1,0,.1.13v4.3H44.19Zm0,6.07h4.53v4.53c0,.13,0,.13-.1.13H44.19Zm-5.89-5.94c0-.13,0-.13.1-.13h4.1v4.43H38.3Zm0,5.94h4.2v4.66H38.4c-.08,0-.1,0-.1-.13Z"/><path class="cls-1" d="M70.6,221.14h0a.71.71,0,0,0-.29.55.68.68,0,0,0,.31.5.78.78,0,0,0,.46.16.79.79,0,0,0,.53-.22A17.16,17.16,0,0,0,73.68,220a10.63,10.63,0,0,1,1.29,1.1.63.63,0,0,0,1-.05.64.64,0,0,0,0-1,14.91,14.91,0,0,0-1.4-1.25,17.54,17.54,0,0,0,1.09-1.69.65.65,0,0,0,.08-.59.68.68,0,0,0-.49-.36.71.71,0,0,0-.86.34,13.47,13.47,0,0,1-1,1.54,11,11,0,0,0-1.53-.9.74.74,0,0,0-.9.22.66.66,0,0,0-.17.55.65.65,0,0,0,.38.42,15.51,15.51,0,0,1,1.41.84A13.16,13.16,0,0,1,70.6,221.14Z"/><path class="cls-1" d="M75.2,227.45a.63.63,0,0,0,.48.23.69.69,0,0,0,.5-.32.66.66,0,0,0,0-.91,13.3,13.3,0,0,0-1.39-1.3,13.51,13.51,0,0,0,1-2,.66.66,0,0,0,0-.58.69.69,0,0,0-.49-.35.67.67,0,0,0-.88.42,13,13,0,0,1-.85,1.62c-.76-.53-1.28-.88-1.6-1.05a.69.69,0,0,0-1,.19.62.62,0,0,0-.16.51.65.65,0,0,0,.35.44c.33.19.86.55,1.58,1.07a11.05,11.05,0,0,1-1.2,1.39h0a10.84,10.84,0,0,1-1,1,.79.79,0,0,0-.36.61.64.64,0,0,0,.29.51.76.76,0,0,0,.49.19.75.75,0,0,0,.51-.22A16.07,16.07,0,0,0,74,226.32,11.87,11.87,0,0,1,75.2,227.45Z"/><path class="cls-1" d="M62.15,221.05a.66.66,0,0,0-.31.54.69.69,0,0,0,.36.54.86.86,0,0,0,.44.14.68.68,0,0,0,.42-.16,23.06,23.06,0,0,0,2-2.13,9.35,9.35,0,0,1,1.22,1,.58.58,0,0,0,.47.2.76.76,0,0,0,.54-.33.65.65,0,0,0,0-.91A12.19,12.19,0,0,0,66,218.85a13.35,13.35,0,0,0,1.11-1.7.68.68,0,0,0,.06-.58.78.78,0,0,0-1.36,0c-.13.24-.45.75-.94,1.5l-1.42-.83a.69.69,0,0,0-.68.06.67.67,0,0,0-.37.52.66.66,0,0,0,.35.63c.45.24.87.48,1.27.74A19.94,19.94,0,0,1,62.15,221.05Z"/><path class="cls-1" d="M66.05,225.22a20.13,20.13,0,0,0,1.09-2,.73.73,0,0,0,0-.63.67.67,0,0,0-.47-.31.73.73,0,0,0-.93.44c-.2.44-.48,1-.84,1.64-.8-.56-1.28-.88-1.52-1a.71.71,0,0,0-.92.19.66.66,0,0,0-.18.56.6.6,0,0,0,.32.4q.35.19,1.53,1.08a15.38,15.38,0,0,1-2.09,2.28A.65.65,0,0,0,62,229a.67.67,0,0,0,.95-.06,18,18,0,0,0,2.28-2.5,12.4,12.4,0,0,1,1.19,1.12.65.65,0,0,0,.51.24.65.65,0,0,0,.49-.32.63.63,0,0,0,0-.92A14.09,14.09,0,0,0,66.05,225.22Z"/><path class="cls-1" d="M80.58,214.26a40.08,40.08,0,0,0-6.09-3.51,1,1,0,0,0-1.14.26.67.67,0,0,0-.22.59.76.76,0,0,0,.5.51,42,42,0,0,1,3.9,2.13H70v-3.57h9.81a.75.75,0,0,0,.8-.86.74.74,0,0,0-.8-.83H58.64a.74.74,0,0,0-.8.83.75.75,0,0,0,.8.86h9.64v3.57H61.64a22.13,22.13,0,0,0,3-2.28.73.73,0,0,0,.26-.61.66.66,0,0,0-.38-.5.87.87,0,0,0-1.14.1,18.48,18.48,0,0,1-5.4,3.44c-.34.16-.53.36-.56.6a.74.74,0,0,0,.33.67.9.9,0,0,0,1.07.16l.53-.27.28-.14v15.11a.78.78,0,0,0,.86.83.76.76,0,0,0,.83-.83V215.88h6.91v14.59a.87.87,0,0,0,1.74,0V215.88h7.26v13.57c0,.18,0,.27-.3.29-.55,0-1.39,0-2.51,0a1.62,1.62,0,0,0-.83.2.62.62,0,0,0-.24.8c.11.28.4.61,1.14.61a15.56,15.56,0,0,0,3.35-.21c.48-.12,1-.53,1-1.73V215.19l.45.3a.83.83,0,0,0,1.13-.06.85.85,0,0,0,.37-.69A.63.63,0,0,0,80.58,214.26Z"/><path class="cls-1" d="M108.6,218h-6.53v-6.87h5.26a.67.67,0,0,0,.72-.77.66.66,0,0,0-.72-.74H89.94a.67.67,0,0,0-.74.74.68.68,0,0,0,.74.77h10.62V218H91.72c.41-1.42.82-3,1.22-4.67a.63.63,0,0,0-.6-.85.71.71,0,0,0-.85.56c-.68,2.84-1.31,5.21-1.9,7a.53.53,0,0,0,0,.43.47.47,0,0,0,.25.23,1.89,1.89,0,0,0,.37.11.69.69,0,0,0,.83-.48c.12-.39.21-.69.27-.86h7.74a29.42,29.42,0,0,1-4.87,4.55,30,30,0,0,1-6.06,3.61.72.72,0,0,0-.49.47.76.76,0,0,0,.21.67.77.77,0,0,0,1,.26A34.18,34.18,0,0,0,95.42,225a31.14,31.14,0,0,0,5.14-5v8.93c0,.28-.12.4-.42.41-.54,0-1.39,0-2.54,0a1.35,1.35,0,0,0-.77.19.52.52,0,0,0-.17.71,1.06,1.06,0,0,0,1.11.58,16.22,16.22,0,0,0,3.25-.2,1.6,1.6,0,0,0,1-1.72v-9.34h6.53c.47,0,.72-.27.72-.77A.65.65,0,0,0,108.6,218Z"/><path class="cls-1" d="M139.11,210.67a.5.5,0,0,0-.51,0c-.17.1-.27.32-.29.69a1.34,1.34,0,0,1-.07.51c0,.13-.08.21-.13.23a2,2,0,0,1-.57.05h-.81c-.28,0-.33-.05-.33-.05h0a1.17,1.17,0,0,1-.06-.5V210a1.08,1.08,0,0,0-1.18-1.18H131a.65.65,0,0,0-.71.72v.74a2.33,2.33,0,0,1-1,1.95,1.56,1.56,0,0,0-.59.49.66.66,0,0,0,0,.75.62.62,0,0,0,.47.2,1.53,1.53,0,0,0,.69-.2,3.61,3.61,0,0,0,1.83-3.14v-.07c0-.1,0-.12.12-.12h3c.14,0,.17,0,.17.17v1.1c0,.87.14,1.36.41,1.54a1.64,1.64,0,0,0,1.18.38h1.1a2.21,2.21,0,0,0,1-.15,1,1,0,0,0,.63-.61,4.62,4.62,0,0,0,.17-1.16A.66.66,0,0,0,139.11,210.67Z"/><path class="cls-1" d="M119.79,219.14h8.48a.55.55,0,0,0,.6-.62.55.55,0,0,0-.6-.6h-8.12c-.14,0-.19,0-.19-.19V210.5c0-.12,0-.17.19-.17h2a.64.64,0,0,0-.27.33,6.46,6.46,0,0,1-1,1.72.67.67,0,0,0-.25.55.61.61,0,0,0,.33.43.63.63,0,0,0,.82-.14l.46-.63h1.54v1h-2.86a.6.6,0,0,0,0,1.2h2.65a3.78,3.78,0,0,1-2.44,1.93c-.2.07-.48.19-.52.42a.35.35,0,0,0,.15.34,1,1,0,0,0,1.1.23,5.92,5.92,0,0,0,2.53-1.83,26.11,26.11,0,0,1,2.68,1.71c.14.1.41.2.75-.17a.53.53,0,0,0,0-.82,20.18,20.18,0,0,0-2.93-1.78v0h3a.6.6,0,1,0,0-1.2H125v-1h2.21a.53.53,0,0,0,.58-.58.54.54,0,0,0-.58-.6h-4.36l.06-.11c0-.06,0-.12.09-.21a1.06,1.06,0,0,0,.07-.22.5.5,0,0,0,0-.24.44.44,0,0,0-.17-.26l-.08,0h5.37a.57.57,0,0,0,.6-.65.54.54,0,0,0-.6-.59h-8.38a1.09,1.09,0,0,0-1.17,1.17V218a1.07,1.07,0,0,0,1.17,1.17Z"/><path class="cls-1" d="M138.55,220h-20a.56.56,0,0,0-.62.62.59.59,0,0,0,.62.67h7.13v1h-5a1.15,1.15,0,0,0-.87.33,1.22,1.22,0,0,0-.31.85v5.43a1.19,1.19,0,0,0,.31.84,1.15,1.15,0,0,0,.87.33H136.8A1.1,1.1,0,0,0,138,228.9v-5.43a1.17,1.17,0,0,0-.31-.85,1.14,1.14,0,0,0-.86-.33h-5.55v-1h7.3a.59.59,0,0,0,.62-.67A.56.56,0,0,0,138.55,220ZM127,221.33h2.88v1H127Zm9.53,7.35c0,.13,0,.17-.17.17H121.11c-.16,0-.19,0-.19-.17V228h15.61Zm0-1.87H120.92v-3.13c0-.11,0-.17.19-.17h4.44c-.31.86-1.31,1.5-3,1.91a2.3,2.3,0,0,0-.83.34.57.57,0,0,0-.26.35.5.5,0,0,0,.11.37c.2.26.58.32,1.13.18,2.51-.67,3.92-1.73,4.21-3.15h2.93v.89q0,.94.51,1.23a4,4,0,0,0,1.82.26h4.32Zm-.17-3.3c.14,0,.17,0,.17.17v1l0,0a2.9,2.9,0,0,1-.55,0h-3.75a2.43,2.43,0,0,1-.85-.08s-.11-.05-.11-.26v-.92Z"/><path class="cls-1" d="M129,218.69a.58.58,0,0,0,.1.56.69.69,0,0,0,.83.35,15.22,15.22,0,0,0,3.6-1.3,13.74,13.74,0,0,0,4.45,1.63l.18,0a.81.81,0,0,0,.66-.33A.71.71,0,0,0,139,219a.81.81,0,0,0-.66-.38,13.87,13.87,0,0,1-3.48-1.09,7.9,7.9,0,0,0,2.35-2.62,1.15,1.15,0,0,0,0-1.08,1,1,0,0,0-.85-.33H130a.58.58,0,0,0-.62.65.57.57,0,0,0,.62.62h.36a.17.17,0,0,0,0,.05.62.62,0,0,0,.07.52,7.86,7.86,0,0,0,1.92,2.13,14.38,14.38,0,0,1-2.76.91C129.29,218.41,129.11,218.52,129,218.69Zm2.55-3.94h4.27a7.74,7.74,0,0,1-2.23,2A7.08,7.08,0,0,1,131.59,214.75Z"/><path class="cls-1" d="M169.65,215a19.52,19.52,0,0,1-3.29-2.78,20.11,20.11,0,0,1-2.74-3.51,1,1,0,0,0-.89-.49h-.07a1,1,0,0,0-.94.55,16.6,16.6,0,0,1-2.47,3.52h0a19.17,19.17,0,0,1-3.23,2.9.75.75,0,0,0-.39.49.3.3,0,0,0,0,.13.64.64,0,0,0-.55-.24h-5.93a.63.63,0,0,0-.69.7.62.62,0,0,0,.69.67h5.93a.61.61,0,0,0,.67-.67v-.08l0,.05a.68.68,0,0,0,1.05.16,21.62,21.62,0,0,0,3.48-3.18,18.8,18.8,0,0,0,2.41-3.34,20,20,0,0,0,2.57,3.29,23.79,23.79,0,0,0,3.47,3.06.76.76,0,0,0,.57.16.79.79,0,0,0,.48-.37.76.76,0,0,0,.16-.6A.69.69,0,0,0,169.65,215Z"/><path class="cls-1" d="M149.21,210.45H155a.62.62,0,0,0,.67-.69.6.6,0,0,0-.67-.65h-5.77a.6.6,0,0,0-.67.65A.62.62,0,0,0,149.21,210.45Z"/><path class="cls-1" d="M158.28,223.51c-.3.12-.47.28-.51.47a.71.71,0,0,0,.23.61.73.73,0,0,0,.54.25,1.08,1.08,0,0,0,.4-.09,20.48,20.48,0,0,0,7.36-5.53.65.65,0,0,0,.17-.55.77.77,0,0,0-.48-.45.67.67,0,0,0-.86.22A18.81,18.81,0,0,1,158.28,223.51Z"/><path class="cls-1" d="M168.44,221.78a.68.68,0,0,0-.95.33,14.36,14.36,0,0,1-4.07,4.25,21.77,21.77,0,0,1-6,2.9c-.4.11-.63.27-.71.49a.68.68,0,0,0,.16.62.88.88,0,0,0,.71.36,1.1,1.1,0,0,0,.31,0c5.05-1.61,8.71-4.26,10.9-7.88h0a.7.7,0,0,0,.11-.59A.78.78,0,0,0,168.44,221.78Z"/><path class="cls-1" d="M164,214.55a.67.67,0,0,0-.84.17,17.73,17.73,0,0,1-5.21,4c-.27.14-.42.31-.44.5a.67.67,0,0,0,.29.56.76.76,0,0,0,.5.21.82.82,0,0,0,.39-.11,23.27,23.27,0,0,0,3.09-2h0a20.71,20.71,0,0,0,2.53-2.38.64.64,0,0,0,.16-.56C164.45,214.79,164.29,214.65,164,214.55Z"/><path class="cls-1" d="M156.56,212.93a.62.62,0,0,0-.69-.68H148a.63.63,0,0,0-.7.68.64.64,0,0,0,.7.71h7.83A.64.64,0,0,0,156.56,212.93Z"/><path class="cls-1" d="M154.57,222h-4.95a1.09,1.09,0,0,0-1.17,1.17v5a1.18,1.18,0,0,0,.32.87,1.22,1.22,0,0,0,.85.31h4.95a1.19,1.19,0,0,0,.84-.31,1.15,1.15,0,0,0,.33-.87v-5a1.1,1.1,0,0,0-1.17-1.17Zm-.22,5.74c0,.13,0,.17-.17.17H150c-.17,0-.2-.06-.2-.17v-4.21c0-.11,0-.17.2-.17h4.15c.13,0,.17,0,.17.17Z"/><path class="cls-1" d="M155.1,218.76h-6a.67.67,0,1,0,0,1.34h6a.67.67,0,0,0,0-1.34Z"/><path class="cls-1" d="M187.71,221.57a1.21,1.21,0,0,0,.31-.86V215.4a1.22,1.22,0,0,0-.31-.85,1.15,1.15,0,0,0-.87-.33h-6.38v-2.34a46.46,46.46,0,0,0,6.87-2,.78.78,0,0,0,.43-.3.47.47,0,0,0,0-.43,1.5,1.5,0,0,0-.36-.37.84.84,0,0,0-.89-.22,41.44,41.44,0,0,1-6.39,2,.91.91,0,0,0-.84,0,.87.87,0,0,0-.29.74v7.9c0,4.31-.52,7.61-1.56,9.79a.84.84,0,0,0,.13,1.1.74.74,0,0,0,.49.22h.09c.21,0,.38-.19.52-.48a20.81,20.81,0,0,0,1.74-8.05h6.44A1.17,1.17,0,0,0,187.71,221.57Zm-1.13-1.3c0,.14,0,.17-.17.17h-6c0-.28,0-.66,0-1.13v-3.65h5.95c.13,0,.17,0,.17.17Z"/><path class="cls-1" d="M199.24,216.55h-8.43v-4.14a45.43,45.43,0,0,0,7.75-2.43c.12,0,.5-.22.46-.52a1.06,1.06,0,0,0-.42-.58.84.84,0,0,0-.93-.16,39.5,39.5,0,0,1-7,2.35,1.06,1.06,0,0,0-.9.06,1,1,0,0,0-.37.86v5.28c0,1,0,2-.11,2.91a28.1,28.1,0,0,1-.41,2.91,13.5,13.5,0,0,1-1,3.11,13.32,13.32,0,0,1-1.69,2.78c-.57.67-.28,1.1-.05,1.29a.71.71,0,0,0,.53.19,1,1,0,0,0,.64-.4c2.23-2.84,3.41-6.89,3.49-12.05h4.72v12a.74.74,0,0,0,1.48,0V218h2.24a.65.65,0,0,0,.74-.71A.67.67,0,0,0,199.24,216.55Z"/></g></g></svg>