<svg xmlns="http://www.w3.org/2000/svg" viewBox="0 0 130.09 73.93"><defs><style>.cls-1{fill:#b2ada9;}</style></defs><g id="圖層_2" data-name="圖層 2"><g id="圖層_2-2" data-name="圖層 2"><path class="cls-1" d="M55.63,4.76A36.75,36.75,0,0,0,37,0a38.65,38.65,0,0,0-19,4.67A33.69,33.69,0,0,0,4.76,17.59,36.94,36.94,0,0,0,0,36.43,38.82,38.82,0,0,0,4.76,55.72,34.65,34.65,0,0,0,17.85,69.08a37.05,37.05,0,0,0,18.94,4.85,36.74,36.74,0,0,0,18.66-4.76A33.79,33.79,0,0,0,68.37,56,38.61,38.61,0,0,0,73,37a39.28,39.28,0,0,0-4.57-19A33.2,33.2,0,0,0,55.63,4.76Zm-.63,58q-5.47,8.71-16.24,8.71-12,0-19.2-10.23T12.38,35q0-14.54,6-23.51t16.6-9q10.95,0,18.21,9.33t7.27,27.28Q60.47,54,55,62.71Z"/><path class="cls-1" d="M115.38,9a7,7,0,0,1,4.39-3.5,35.77,35.77,0,0,1,9.78-1q.54,0,.54-1.08t-.54-1.08q-5.39,0-8.43.18l-12,.18L96.89,2.51q-3-.18-8.25-.18-.54,0-.54,1.08t.54,1.08a41.22,41.22,0,0,1,10.14.89A6.1,6.1,0,0,1,103,8.79q1.06,2.52,1.07,8.08V57.06q0,5.38-1.25,7.9a7,7,0,0,1-4.4,3.5,35.72,35.72,0,0,1-9.78,1q-.54,0-.54,1.08t.54,1.08q5.39,0,8.43-.18l12-.18,12.2.18q3,.18,8.25.18.54,0,.54-1.08t-.54-1.08a40.78,40.78,0,0,1-10.14-.89,6.06,6.06,0,0,1-4.21-3.41q-1.08-2.52-1.08-8.08V16.87Q114.12,11.49,115.38,9Z"/></g></g></svg>