<svg id="圖層_1" data-name="圖層 1" xmlns="http://www.w3.org/2000/svg" viewBox="0 0 1920 1300"><defs><style>.cls-1{fill:#ecf3e6;fill-rule:evenodd;}</style></defs><path class="cls-1" d="M-62.31,9.88c-13.77.6-27.4.11-40.75-6.1-6.73-2.15-9,1.07-11.93,5.11a35.62,35.62,0,0,1-3.7,4.59l-2.13-8.87L-124,8.29c-2,2.34-4.1,4.67-6.13,7.1-5.92,3.8-11.29.22-17-3.55-.72-.48-1.43-1-2.16-1.42-6.41-4.06-13.42-7.09-21.68.95l2.48,5.78c-2.12-.22-5,.49-7.94,1.19-1.35.32-2.69.65-3.94.88-3.95.73-7.06.62-6.74-2.9a7.88,7.88,0,0,0-.35.94c-.65,1.87-1.76,5.1-3.89,2.81l-.46-4.64c-3.24,2.26-6.45,4.65-9.65,7-1.64,1.21-3.27,2.43-4.9,3.62-5.38-.54-5.81-4.44-6.24-8.34,0-.41-.09-.82-.14-1.22-.53-4.22-1.73-8.27-10.36-6.7-6.31,3.24-17,17.62-14.26,20.17A6.8,6.8,0,0,1-230,36l-5.51,3.72c0,2.08,0,4.18-.05,6.28-.23,11.88-.44,23.49,11.9,28.94l8.86-10.54,3.26,5.42v.66c-1.72.44-3.44.93-5.15,1.42l-2.49.7c3.44,3.55,5.64,1.79,7.66-1l2.18,1281.35c-1.49,2.48-2.15,4.43-1.21,4.9a6.31,6.31,0,0,1,1.21-.26V1364l-.24,1.36.24-.18v1.7l.86-.23c0,.91,0,1.81,0,2.72.08,8.78.16,17.33,12.21,18.73l8.25-9.62,3.67,3.6-7.67,3.35c4.37,2.38,6.58-1.07,8.84-4.6.36-.56.72-1.12,1.09-1.66,1.11,2.25,2.65,3.53,4.61,3.74l7.66-13c.6,1.27.35,2.86.12,4.36-.39,2.55-.74,4.8,3.25,4.64,1.65-2.77.68-4.49-.21-6.07-1.07-1.87-2-3.57,1.54-6.63a14.06,14.06,0,0,1,3.46,2.81c1.64,1.71,2.31,2.41,5.45-1.38,1,2.07.35,3.88-1.16,5.53a7.53,7.53,0,0,0-.56.57c.2-.19.38-.38.56-.57a25.66,25.66,0,0,1,5.63-3.71c3.32-1.79,6.55-3.53,7.57-7.17,2.3,1.75,5.51.73,8.46-.21,3.86-1.22,7.29-2.31,7.67,3.1a29.38,29.38,0,0,1,4.6-6.3c2.19-2.43,4.77-4.73,6.9-5.48-3.24,6.66.67,5.8,5.35,4.77s10.37-2.28,10,4.12c2.33-5.87,7.43-8.46,13.15-10.62l2.9-1.06c2-.71,3.94-1.43,5.88-2.25a37.19,37.19,0,0,0,4.24-2.11,23.34,23.34,0,0,0,3.91-2.57l0,0c-.42.81-1.16,2.2-2,2.46a13.81,13.81,0,0,1,7.78,1.89,19.21,19.21,0,0,0,3.48,1.44c0-5.73,3.93-9.41,7.88-13.09a39.76,39.76,0,0,0,5.42-5.79c4.38,3.67,2.74,6.66,1,9.86-1.38,2.5-2.83,5.14-1.56,8.35-.47-3.38,2.47-5.78,5.17-8s5.15-4.21,3.71-6.78a41.52,41.52,0,0,0,3.67,2.12c2,1,2.2,1.13,4.55,5.63.08-6,1.6-6.21,3.63-6.44,1.62-.18,3.55-.39,5.34-3.63a9.45,9.45,0,0,1,5.26,5c.85,1.76,1.17,2.41,5.92-.28,4.34,2.5-3.09,7.63-3.09,7.63,5.92-1,5.51-4.48,5.07-8.19a13,13,0,0,1,.08-5.28c6.65-2.66,7,.12,7.31,3.37.2,1.84.42,3.82,1.81,5.06,2.92-1.49,5.47-4,7.84-6.39,2.83-2.83,5.42-5.41,8.11-5.64a4.7,4.7,0,0,0,.43.87,2.06,2.06,0,0,1,0,2.55c3.12-3.45,7.89-4.35,12.87-5.29,5.6-1.06,11.46-2.17,15.56-7a4.33,4.33,0,0,1,1,1.35c.07.16.13.32.19.49a3.3,3.3,0,0,0-.19-.49,27.44,27.44,0,0,1-1.6-10.31,11.38,11.38,0,0,0,3.89-1.83c2.16-1.37,3.9-2.47,5,.78-1.82.13-2.34,1.34-2.93,2.69a14.25,14.25,0,0,1-.69,1.42l4.07-2.85c2.26,3.85.35,4.49-1.78,5.21-1.75.59-3.65,1.23-3.53,3.75a71.13,71.13,0,0,0,6.9-3.64c1.85-1.06,3.7-2.12,5.51-3,4.11-2,8-3.44,11.19-2.69.79,3.55-2.71,4.56-5.44,5.35s-4.83,1.39-.46,4.3l-3.39-.65c-2.13-.42-4.26-.83-6.39-1.12,3.86,5.2,2.52,5.3,1,5.41s-3.31.23.42,6.08a28.84,28.84,0,0,0,13.34-2.19,28.28,28.28,0,0,1,13.41-2.15,6.18,6.18,0,0,0,.77-5.17,6.18,6.18,0,0,1,.77-5.17c9.27-4.76,12.89,0,16,4.22,2.92,3.86,5.45,7.21,11.66,2.08a31.53,31.53,0,0,0,2-3.81c2.22-4.8,4.52-9.8,12-6.44l-3,8.55c5.74,0,7.6-2.69,9.26-5.09,1.91-2.77,3.55-5.15,10.53-2.61-1.32,2-4.43,2.84-6.38,3.36-1.35.35-2.14.56-1.37.93,4.91,3.48,6.08,1.22,7.44-1.38,1-1.9,2.08-4,4.8-4.15l1.48,7.33c6.42-.81,13.16-2.63,20.07-4.5,7.18-1.94,14.56-3.94,22-4.9a13.49,13.49,0,0,1-.67,1.47c-.91,1.79-1.84,3.63.84,5.29,9.16-2,19-1.84,28.69-.74,4.86.57,9.69,1.38,14.42,2.3,3.89.76,7.71,1.73,11.41,2.68l2.36.6,6.78-6.31c1.58.09,2.91,2.91,1.2,4.13,3.86,1.39,3.52,0,3.05-2-.37-1.55-.82-3.43.65-4.52,3.92-.41,5.17,3.72,2.68,5.62a93.22,93.22,0,0,1,23.57-6.7c8.78-1.15,17.64-.76,24,2.84l-2.52,1.82c4.76,1.37,7.58-1.48,10.24-4.15,2.9-2.93,5.61-5.65,10.43-2.4L327,1308.4c7.72,1.3,15.74,1.5,23.62,1.7,14.27.37,28,.72,38.63,7.52,1.53-4.17,6.22-3.38,11-2.58,5.55.93,11.21,1.87,12.1-5a60.61,60.61,0,0,1,8.9,6.09c3.56,2.85,6.14,4.92,17.2,8.24,2.39.43,4.2-1.58,6.18-3.78s3.92-4.35,6.75-4.85v6.72l8-6.59,4,8.23,5.47-1.4c-2.16-.51-4.52-3.27-4.16-5.18,8.54-2.54,20.55,5.84,20.68,9.29l20.16-4.51c-.37,2-2.31,2.88-4.38,3.86,3.45-1.47,3.75.16,4,1.77.33,1.81.65,3.59,5.51.8-.89-1.1-.17-2.57.44-3.81a6.42,6.42,0,0,0,.6-1.49c4.8,4.3,15.93,4.94,24.21,3.68l-1.67,4.54c8.3,1.1,17.13.8,26.23.5,7.17-.24,14.51-.49,21.87-.06-5.94-2.48-4.41-10.4.5-10.91l1.81,7.17c1.45-1.87.6-2.66-.2-3.4-1-.92-1.91-1.76,1.74-4.53,6.22,1.15,4,8.27.42,10.38l7.62-2.06a4.2,4.2,0,0,1-.79,3,9,9,0,0,0-1.12,2.79c1.39-1.85,4-.6,7,.79,3.78,1.78,8,3.79,10.64-.38l.38,2.12a167.11,167.11,0,0,0,22.21-.4c4.93-.33,9.75-.66,15.71-.54.23-3.6,2.17-4.51,4.58-5.63a14.49,14.49,0,0,0,5.23-3.59c3.12.76,6.34,1.8,9.67,2.88,7.28,2.37,15.07,4.89,23.34,4.93,5.06-1.57,5-3.07,4.95-4.74a4,4,0,0,1,1.48-3.76c.25,2.6,3,4,5.23,5.13,2.54,1.29,4.38,2.23,1,4.2,14.46-.23,18.48-.32,36.83-4.07a22.25,22.25,0,0,0-1.57-1.69c-1.33-1.33-2.27-2.27-1.4-3.61,3.33-.78,7.5,2.66,7,5.3l-.88.53c10-3.63,21.37.53,32.32,4.53,11.22,4.11,22,8.05,30.37,3.26l17-5.44c3.83.61,2.75,1.6,1.34,2.87s-3.26,3-.35,4.8c10-4.71,17.71-3.58,25.07-2.5,6.13.9,12,1.77,18.92-.79,6.28,9.21,18.1,8.43,30.08,7.63,9.86-.65,19.83-1.32,26.87,3.59l-.86-3.89c2.63-2.36,3.89-.74,5.24,1a6.31,6.31,0,0,0,2.64,2.34,5,5,0,0,0-1.68-2.84c-.92-.94-1.59-1.63-.14-2.79,17.24-1.85,35,.08,52.84,3,6.38,1.06,12.78,2.24,19.17,3.43l7.64,1.41c8.92,1.59,17.82,3.08,26.64,4.16,5.73.59,7.85-3.24,9.85-6.85,2.52-4.54,4.84-8.73,13.85-3.39l-4.68,7.07c13.49-4.16,27.26-3.6,40.94-3.05,12.81.52,25.54,1,37.9-2.33a7.82,7.82,0,0,0-1.15,1.65c-.67,1.14-1.24,2.11-2.93,2.07,5.36,5.31,19.92.58,20-3.69,2.23.31,2.24,1.49,2.25,2.86a3.91,3.91,0,0,0,1.09,3.22c2.58,1.52,5.82.1,8.81-1.22,3.23-1.41,6.16-2.7,7.64,0,.3.53-.38,1.07-1.18,1.47a25,25,0,0,1,5.37-.53c4.29-.14,8.43-.28,6.37-4,4.66,1.48,9.14,1,13.38.45,4.46-.53,8.66-1,12.56.86,2.33-3.08,6-2.56,9.5-2.07,4,.56,7.63,1.08,8.5-4-.73,9.83,16.74,8.09,22.82,3.54-1,1.38.12,2.15,1.3,3,1.35,1,2.83,2,1.56,4.23,6.91-.07,13.25-1.83,12.06-6.89,6.21,5.82,12.47,3.73,18.09,1.86,5.86-2,11-3.66,14.64,4.07a487.38,487.38,0,0,1,58-10.84c-.33,4.84-5.29,5.13-10.15,5.41s-9.87.57-9.48,5.78a125.79,125.79,0,0,0,16.14-5.07c9.25-3.39,17.5-6.42,28.86-4.82,3.2,1,.53,2.7-1.81,4.23a14.17,14.17,0,0,0-2.27,1.68c8.12-1.85,16-1.75,23.64-1.65,8.84.11,17.4.22,25.74-2.69-1.85-3.91,3.67-8,8.14-11.3,2.31-1.7,4.33-3.2,4.91-4.35-2.06,5.54,1,6.61,4.19,7.69,3.71,1.27,7.5,2.57,3.1,11.18,2-.85,4.55-3,4.08-6,3,.87,4,2.61.91,6,5.23-1.17,7.09-2.85,8.67-4.28,1.74-1.58,3.15-2.86,8.37-2.82a4.69,4.69,0,0,1-1.41,2.93,9.94,9.94,0,0,0-1.66,2.61c5-4.22,10.1-8.43,18.51-6.62a3.75,3.75,0,0,0-.19,1.19c0,.78-.06,1.47-1,1.69,5.54-.42,10.47-2.24,15.37-4,7.48-2.76,14.88-5.49,24.27-3.17-2.51,5.07-.75,5.56,1.54,6.2,2,.55,4.32,1.21,4.71,4.94l8.52-2.49-3.43-3.92c3.19,0,6.22-1,9.15-2.07,3.92-1.39,7.65-2.71,11.33-1.22l-5.54,3.38,14-1.66-7.93-3c3.48-2,3.57-4.3,3.63-6,.08-2,.13-3.21,5.47-2-.68.29,0,.38,1.28.57,2.53.37,7.52,1.09,10.1,4.21,0,0,0,0,0,0l0,0,.07,0c3.66-2.6,7.42-5.28,12.9-3.33.8,1.43.37,4,0,6.35-.31,1.88-.59,3.58-.17,4.35,1.78-3.37,6.06-3.91,10.5-4.47,4.27-.53,8.68-1.09,11.12-4.2-1.1,2-1.11,5.43-.64,6.2l3-5.52c3.47,1.72,4,2.57,3.43,6,5.08.41,4.4-2,3.81-4.12s-1.12-4,5.2-1.87a1.64,1.64,0,0,0-.73.72,3.32,3.32,0,0,1-1.78,1.42c6.11,1,12,.13,17.78-.76,5.95-.93,11.77-1.83,17.56-.55,1.76,4.21-1,4.63-3.48,5-2.33.36-4.45.68-2.59,4,6.57-.68,13.32-2.47,20.07-4.25,10.12-2.68,20.26-5.36,29.81-4.34l-3-.86c1.12-6.11,4.37-4.22,8.36-1.91,3.45,2,7.45,4.32,11.12,2.1-1.64,1.4-2.1,6.11-1.61,4.89,8,1.19,16.15-1.11,26.4-4,3.79-1.06,7.86-2.2,12.3-3.28l-2,3c3.86,1.51,9.18,1.63,14.32,1.74a68.56,68.56,0,0,1,9.52.63,8.57,8.57,0,0,1,2.44-2.2c1.57-1.07,2.73-1.86,1.12-4.65,10.75,8.2,20.92,5.74,30.79,2.92l1.36-.39c9.38-2.74,18.5-5.39,27.6,1.07-2.27.08-5.38,2.74-3.58,2.69l16.13-3.16c-.82-3.08-1.45-3.49-2.61-4.25a12.9,12.9,0,0,1-3-2.55,13.38,13.38,0,0,1,6.3-4.67l2.72,0c-3.88,2.9.39,6.3,3.49,8.77.48.39.94.75,1.33,1.09a4.86,4.86,0,0,1,.07-2.59,5.77,5.77,0,0,0,.16-2.21c4.06,4.14,4.56,2,5.2-.66.39-1.62.83-3.47,2.11-4.35l4.31,0,.1,0c.37.15.75.3,1.17.51l-.58,2.65a31.64,31.64,0,0,0,4.25-2c.81-.42,1.63-.84,2.45-1.22l6.5,0c.28,2-.93,2.49-2.25,3s-2.76,1.12-2.87,3.32c2.58-.2,5.1-2,7.58-3.76a35.32,35.32,0,0,1,3.93-2.55l6.51,0,.12.09a5.92,5.92,0,0,1,.59.46,18.17,18.17,0,0,1-4.77,1.77,18,18,0,0,0-4.72,1.74c5,5.11,6.6,5.25,9.25,5.48a21.89,21.89,0,0,1,2.78.36l-.48-.14,11.1,2.78-2.84-1.77c4.42-8.5,9-8.62,14.09-8.76,2.93-.08,6-.16,9.31-1.87h1c-3.11,3.33-2.34,4-1.17,4.92a4.1,4.1,0,0,1,1.75,4.22l1.58.92c2.59,1.48,5.34,3.06,4.35,4.61,2.33-2.5,4.35-1.92,6.53-1.3,2.63.74,5.5,1.56,9.45-2.81.13.79.94,1,1.85,1.21,1.52.38,3.3.82,2.61,4.17,4-1.14,2.64-2.22,1-3.48-1.1-.84-2.3-1.76-2.08-2.82,4.74-3.49,10.31-2.1,16.38-.58,7.17,1.79,15,3.75,23.09-1.9a41.69,41.69,0,0,0,12.28-6.82l15.12.07a17.36,17.36,0,0,0,8.88,0h4.79c.17,1.17,1.15,2.36,2.42,3.88,2.1-.31,3-1.77,3.83-3.14l.45-.72,5,0-.07.16c-1,2.34-2.28,5.34-4.25,7.4a67.88,67.88,0,0,0,8.41-4.12c2.19-1.2,4.39-2.41,6.62-3.41l2.73,0c.25,2.06-1.69,3.61-3.56,5.11a16,16,0,0,0-2.36,2.12c.86-.25,1.78-.5,2.74-.75,5.27-1.43,11.69-3.16,15-6.42l6.54,0a10.83,10.83,0,0,0,.47,6.75,19.2,19.2,0,0,1,4.09-5.55c.37-.36.74-.73,1.13-1.16l19.67.08-1.48,4.73,5.2-2.12a4.33,4.33,0,0,0,.5-2.59l3.85,0V100.47c6.8-2.2,15.42-5,17.24-12l-3.35-2c.82,1.81-.21,6.43-1.67,7.6-6,6.38-8.68-2.57-9-5.47l4.42-1.95c-3-10.69-9.36-6.56-15.9-2.31-3.76,2.44-7.59,4.92-10.85,4.63l3.62-12.41L2091.36,87c-2-3.17-3.37-10,1-12-3.23-3-4.64-1.85-5.93-.82s-2.49,2-5.27-1.34c-.62-1-.35-1.65.22-2.15l-6.23,3.81a9.11,9.11,0,0,0,.38-3.69c0-2.31-.09-4.37,2.37-3.29-5.84-3.55-10.46-.85-14.17,1.3-3.45,2-6.1,3.56-8.18-.91l.93-.78c-8.28,2.4-8.15,4.82-8,8.2.16,3,.36,6.68-5.07,11.76l-8-22.15L2034,74c-1.61-.3-4.8-.9-4.24-4.53-3.21,3.41-2.65,4.28-2,5.29s1.19,1.82-.39,4.54c-3.41-3.53-7.9-3.16-12-2.82-5.34.44-10.09.83-11.14-7.28-1.27,3.25.27,4.58,1.43,5.6,1.33,1.15,2.17,1.87-2.22,4.52-1.36-8.5-4.11-6.8-7.48-4.7-2.77,1.73-6,3.71-9.17.57a8.56,8.56,0,0,1,3.77-5.45c1.56-1.11,2-1.47-2.06-5.5-2.55,8.36-7.17,5.46-11.72,2.59-2.87-1.81-5.72-3.6-8-2.55-.12,6.81-5.27,6.9-11.56,7-3.65.06-7.69.14-11.36,1.53.36-2.19-6.61-3.75-14.25-5.46a104.06,104.06,0,0,1-14-3.76l.25-1.81C1916.5,70,1910.75,71,1905,72a37.27,37.27,0,0,0-5.54,1.25c.23-6.53,1.47-9.12,5.24-12.09l-6.57.17c-1.53,3.53-3.56,5.39-7.82,6.71l1.6-8.16c-3.13.22-6.27,1.55-9.53,2.93-5.84,2.47-12.07,5.11-19.32,1.76-.18,2.36.62,5.26,1.47,8.31,1.88,6.79,4,14.28-4.24,17.94-.45-3.94-.92-10.59,1.82-12.63l-.52.4c-1.25,1-3.2,2.5-4.83,1.16l4.7-7c-2.8-1.6-3.34.25-3.9,2.19-.48,1.63-1,3.32-2.85,3.07,0-3-.79-4-1.51-4.91a4.24,4.24,0,0,1-1-3.86c.38-.22,1,0,1.65.35,1.14.52,2.51,1.14,3.5-.33-4.63-1-10.24-4.34-12.12-8.73.42,3.33.06,7.88-3.32,8.69-5,.34-5.29-2-5.57-4.64-.2-1.94-.43-4-2.61-5.26-.81,1.59-2.16,2-3.51,2.3-2.11.55-4.22,1.11-4.28,6.45-2,0-2.71-2.36-3.41-4.53a19.9,19.9,0,0,0-.66-1.9c-1.6,1.4-4.73,2-7.87,2.6-5.7,1.08-11.44,2.18-8.11,8.12l1.16.58a1.33,1.33,0,0,1-.35.19,1.61,1.61,0,0,0-.39.2c-8.35,5.07-17.11,3-25.8,1-6.7-1.57-13.37-3.13-19.77-1.41V70a54.3,54.3,0,0,1-10.37,2.6c-5.85,1.06-11.52,2.09-15.42,6.08-2.61,0-6.17-5.26-5.08-8.75a35.09,35.09,0,0,0-4,1.7c-3.58,1.73-5.77,2.78-13.18-.76,4.08-3.16,2.35-4.14,2.41-4.28s.84.18,4.49.44a44,44,0,0,1-5.37-1.92c-4.78-2-7.64-3.16-14.72,3,3.15-7.55-6.63-9.34-10.76-7l6.14,5.28c-4.55,1.15-8.57.59-12.62,0l-.28,0,2.18-9.9c-8.43-5.51-16-1.2-23.16,2.83-8,4.54-15.4,8.72-22.66-1.84-2.29,3.4,0,4.61,2.41,5.9s5.28,2.8,3.13,7c-5.14-.76-10.44-6.53-14.31-10.76-2.34-2.54-4.16-4.52-5.12-4.52-5.71-2.7-8.32,1-11,5s-5.39,7.76-11.21,6c1.52,3.49,3,12.86-5.81,16.28-8.23-1.21-10.18-14.63-5-17.52,2-.32,2.94.78,2.85,2l.25-.12c2.61-1.29,5.79-2.85,2.61-6.52l-1.05,3.52c-1.52-1.32-4-2.07-6.48-2.8-4.1-1.23-7.95-2.39-6.3-6-5.31,2.94-3.44,5.1.09,6.79-4.85-1.85-8.75-1.62-12.78-1.39-3.81.21-7.74.44-12.69-1.06,1.73,1.91,3.34,6,1.62,6-9.07-2.36-10.08.15-11.25,3.07-.89,2.2-1.87,4.64-6.52,5.36-2.65-2.28-2.62-5-2.59-6.94,0-2.58,0-3.88-6.11-1.26-6.65-3.54-1.45-9.31,1.18-12.22-6.91,4.85-13.22.8-18.33-2.47-2.18-1.4-4.14-2.66-5.83-3l5.2-2.87c-3.08,1.69-5.61,1.69-8.18,1.69H1507l3,7c-.66-.26-1.3-.47-1.9-.66-2.16-.69-3.75-1.19-3.71-3.48-1.32,1.94-1.1,4.32-.86,6.88.33,3.55.69,7.47-2.92,11.14-1.63-1.4-3.92-1.07-6.18-.75-3.44.5-6.81,1-7.68-4.65,6.56,1.57,6-.91,5.41-3.92-.49-2.33-1-5,1.56-6.31a10.73,10.73,0,0,1-5.28-.82c-.46-1,.42-1.93,1.26-2.48-6.46-4.33-7.68-1.2-9.23,2.74-1.4,3.56-3.06,7.8-9.11,7.75,1.6-5.28-3-10-5.06-8.82,5.13.07,2.47,8.76-2.22,12.82-5.08-2.51-7.26-.7-9.22.93-1.19,1-2.3,1.9-3.92,1.73l4.89,1.89c-1.25,4-3.92,4.58-7.63,5.38-1.17.25-2.43.52-3.78.92a2.56,2.56,0,0,1,.84-2.46c-2.64,1.37-5.53-.67-8.61-2.85-3.81-2.68-7.91-5.58-12.2-2.51-2.1-1.83-2.15-4.4-2.19-6.79s-.07-4.33-1.81-5.49c-5,3.5-7.68,1.61-10.46-.35s-5.5-3.88-10.61-1.06c1.39,3.24,2.24,4.63,2.06,5.85-.22,1.44-1.89,2.66-5.83,6.4l17-5.1-10.94,10.36c2.5,0,5.13-1,7.52-2,2.55-1,4.83-2,6.42-1.34-2.73,3-3.88,4-4,5.08s.63,2,1.8,4.81c-3.72-5.57-7.4-3.52-11.23-1.38-3.45,1.93-7,3.92-10.88.53l.22-17.51c-6.34-4-11.94-1.47-18.07,1.33-5.72,2.6-11.89,5.42-19.56,3.31l5.11,3c-1.25,4.11-4.45,3.71-7.92,3.27-2.4-.3-4.93-.62-7,.54.36-4.4-1.36-6.69-3.17-9.1a28.16,28.16,0,0,1-1.77-2.52c.1,1.66-1.58,2-3.78,2.43-3.54.7-8.41,1.67-9.29,8.88l-7.1-7.7c-6.58-1.6-10.26,2.82-14,7.25-3.51,4.21-7,8.44-13,7.47a11.85,11.85,0,0,0,1.47-6.77c0-3,0-5.57,4.91-8.3-.72,0-1.42,0-2.1-.09-3.2-.18-5.73-.32-5.79,3-1.08-1.64-3.47-.24-6.13,1.32-3.29,1.93-7,4.1-9.09,1a15.91,15.91,0,0,0-1.29,2.76c-1.07,2.72-2.3,5.82-5.64,5.46a4.32,4.32,0,0,1-.14-2.23,6.05,6.05,0,0,1-1.72,2c-1.82,1.61-4,3.52-1.33,7.76-6.58-9.5-15.88-8.83-24.85-8.19-8.32.6-16.35,1.18-21.65-6.39-9,1.92-19.84,3.76-28,4.13a10.21,10.21,0,0,0,.28-1.35c.13-.93.2-1.39,1.29-1-5.45-2.67-7.25,1.18-9.12,5.16-2,4.23-4,8.62-10.64,5.46-4-5.8-.56-6.41,1.79-6.82,1.49-.27,2.54-.46,1-1.85-.93-10.42-5.37-8.83-10.62-7-4.45,1.59-9.49,3.4-13.43-1.79l2.09-1.13c-3.55-3.53-8-1.15-13,1.55-4.27,2.31-9,4.85-13.92,4.14a5.23,5.23,0,0,0,.07-2.91c-7,9.26-20,12.5-30.22,15l-1.5.38a21.91,21.91,0,0,1,2.7-4.77c1.17-1.61,1.35-1.86.09-6.83-1.93.42-2,2.61-2.15,5.17-.18,3.62-.39,8-5.82,9.17a29.7,29.7,0,0,0-3.25-3.57c-3.08-3.07-6.65-6.62-7.26-12.45l8.74-.34c-2.81-6.76-6.62-4.83-10.2-3-2.06,1-4,2-5.71,1.35l.6-4.61c-6.23.62-9.62,3.47-12.91,6.24-3.78,3.18-7.44,6.26-15.13,5.72l1.47,3.5c-4.11,5.94-5.73,4-7.43,1.84-1.57-2-3.23-4-7,.08l-2.31-11.73c-1.09.58-2.54,1.41-4.22,2.37-6.32,3.62-16,9.16-23.36,10.7,3.72-6,10.15-9.82,16-13.35,2.54-1.53,5-3,7-4.53-5.14-.15-17.5.63-20.21,6.32a17.16,17.16,0,0,0,1.6-1c1.73-1.17,3.61-2.44,5.15-1-6.36,9.07-14.71,13.41-25,13,1.06-12.16-6.73-13.06-15.29-14-7.38-.85-15.33-1.77-18.7-10-10.81,4.77-21.45,2.35-32.74-.21-7.72-1.75-15.75-3.57-24.34-3.2,3.67,8.9,2.13,9-.19,9.12s-5.41.32-4.85,9.4c-4.9,1-6.78.71-7.22-.46l1,.78-.5-.42c-.19-.15-.36-.29-.56-.47v.06L868,57.08c-1.95-3-.22-3.86,1.6-4.74,1.42-.69,2.89-1.4,2.71-3.19-6.14-1-6.72-3.38-7.4-6.2a9.81,9.81,0,0,0-4.12-6.64c1.39,6.52-3.84,9.17-10,6.5l8.55,8.62c-7.57,4.59-10.78.69-14-3.22s-6.47-7.84-14.11-3.29l4.86-5.56c-2.34.93-5.85,1.22-9.82,1.55-9.32.76-21.22,1.74-26.69,11.78-1.36-2.14-3.12-7.14.32-8.34-8.06-1.22-17,1.33-25.66,3.81-11.29,3.23-22.18,6.35-30.29.9l1.47-4.37a9.62,9.62,0,0,0-3.32,2.43c-2.14,2.05-4.27,4.09-7.12,1a13.36,13.36,0,0,1,.32-1.49c.37-1.48.73-3-.47-3.2l-.06,0c-2,1.53-9.32,7.3-13.83,4.57l4-4.82c-11-4-19.08,1-27.15,6.08-1.51.95-3,1.9-4.56,2.79q-1.37-7-2.86-13.87A116.7,116.7,0,0,0,675,43.31c-4.58-3.62-10.48-5.62-14.31-6.91l.28-1.84a51.71,51.71,0,0,0-18,1.13q1.32,5.94,2.53,11.94c-7.84-5.85-19.38-7.07-31.29-8.33-10.27-1.09-20.83-2.21-29.54-6.34,3.16,2.78-.75,11.2-4.52,12.45-1.94-1.26-4.51-.07-6.85,1-3.57,1.66-6.59,3.06-5.95-4.9l1.75.33c-2.81-10.7-10.09-10.79-17-10.86-1.58,0-3.14,0-4.61-.19L545.82,48c-10.1-13.07-23.71-11.73-36.17-9.89l-1.55.23c-11.84,1.75-22.42,3.32-27.58-7.83-2.56,2-5.38,2.88-8.2,3.77s-5.63,1.76-8.16,3.75l.49-9.26c-13.8-3.29-20.68-4.9-37.86-3.82l3.66-6.41c-5-.64-8.25,6.3-11.47,13.16-3,6.41-6,12.75-10.32,12.73l-2.33-14c-5.72-.3-11.42-2.07-17.12-3.84-11.11-3.45-22.21-6.9-33.44.55v-.09c.33-2,1-5.89,3.66-6.22a49.19,49.19,0,0,1-6.21-1.46c-9.3-2.54-22.49-6.14-22,7-1.58-8.77-15.74-1.48-24.7,3.13l-1.76.9,1.69-9c-1.35,1.85-2.48,3.48-3.47,4.92C298,33.46,296.28,36,287.27,38c-2.24-1.23-2.08-6.21.33-5.4-3.33-1.73-4.93-.09-6.64,1.66-2,2.05-4.14,4.25-9.38,1.31l4-5.52c-6.78-1.09-7.91.61-10.45,4.45-.72,1.08-1.55,2.33-2.65,3.74C256.89,41.48,246,34.39,245,26c-1.33,4.92-6.31,11.19-11.37,8.33a5.89,5.89,0,0,1,2.3-5.8c-7.1-3.75-12.56-1.7-17.44.14s-9.37,3.52-14.29-1.49c-.1-3-.7-4.6-1.51-5.6,10.63,1.19,19.33,2.47,20,3.11.06-3-1.14-5.29-2.29-7.45-2-3.73-3.83-7.21,1.08-14.07-1.2.87-2.54,1.92-4,3-7.76,6.07-18.41,14.4-26,10.34a12.64,12.64,0,0,1-1.12-3l1-.86c-2.07-1-4-.43-5.8.82l-.81-.47c-2.41-1.42-4.13-2.42-6.64-2.76C177.46,5,171.79,5,167,5a27.78,27.78,0,0,1-4.18-.2A13,13,0,0,1,161,12c-1.12,2-1.82,3.3,1.14,7.81-.12-.53,1.47-.77,4.19-.85l.51-.12a3,3,0,0,0,1.52-.64A7.75,7.75,0,0,1,168,19c3.07,0,7.06.2,11.6.47-3.84,4.33-7.83,7.9-12.79,2.32-2.6,5.67-5.44,11.51-7,14.23-3-6.71-7.46-12.09-11.39-16.79s-7.31-8.76-8-12.8a87.9,87.9,0,0,1-12.83,2.07c-11.53,1.29-23.48,2.63-30.4,14.42-3,1.32-4-2.21-4.9-5.32a19.13,19.13,0,0,0-1-3,10.06,10.06,0,0,1,2.9-1.11c1.47-.4,2.81-.76,3.64-2.2-2.74,1.19-6.29,1.51-9.92,1.84-7.33.67-14.93,1.37-16.52,9.32-5-3.22-3.47-5.86-2.45-7.62s1.54-2.63-5.52-2.33l2-3.5c-12.88-10.53-24-4.91-35.28.8l-1.59.8C17.14,16.45,5.47,21.48-8.84,9.87A5.1,5.1,0,0,1-6.95,13,78.4,78.4,0,0,0-33.5,8.11C-38,8-42.49,8-47,8.22l-13.56.88-.79.05-.79,0C-62.2,9.43-62.26,9.65-62.31,9.88Zm233.52,1.46a3.67,3.67,0,0,0,.17-.45,32.82,32.82,0,0,1,5.47-.59c-.37-1.92-1.35-3.84-4.49-2.82A16.61,16.61,0,0,0,171,12,6,6,0,0,1,171.21,11.34ZM31.31,45.16a9.18,9.18,0,0,1-4.49,1.53v.1c0,.3,0,.62-.08.93l8.73.28a2.17,2.17,0,0,1,1.32-.14C35.86,42.66,33.84,43.77,31.31,45.16ZM188.68,1305.8l-1.27.19,1.55-.19,2.75-.31v-.12Zm14.74-5.11c-1.76-.08-2.41,2.09-1.78,4.2a65.56,65.56,0,0,1,7.6.14,26.22,26.22,0,0,0-2.81-1.55C204.46,1302.49,202.78,1301.65,203.42,1300.69Zm1610.3,20.6a23.81,23.81,0,0,0,.31,4.55c3.24-1.13,4.82-2.71,5.42-4.51ZM1892.49,90.94l7.64,0c-.83-2.29-.4-4.61,2.81-6.61C1899.07,84.37,1894.75,87.22,1892.49,90.94Zm19.65-.09,17.69-.08c.28-.17.56-.32.84-.46,1.63-.83,3.11-1.59,2-5.87-3.21-.61-6.08,1.32-9,3.25a28.09,28.09,0,0,1-4.39,2.6l.61-3.61C1914.09,82.78,1912.88,87,1912.14,90.85Zm22.3-.12,4.76,0c.93-.43,1.91-.76,2.89-1.1a16.39,16.39,0,0,0,5-2.37c-3.74-4.72-7.6-1.16-11.56,2.49Zm31.7-.12,15-.07c.61-1.41,2-3.42,4.63-6.59-4.9,5.7-9.35,5.76-13.49,5.81A16.68,16.68,0,0,0,1966.14,90.61ZM2065,1322.41c1.21,2.44,3.76,5,7.95,1.45a3.91,3.91,0,0,0,1.14-1.42ZM2078.29,90.08a22.89,22.89,0,0,1-2.9-1.49s7.57-6.08,3.34-10.61c-6.13,2.53-9.82,6.22-13.59,10-.72.71-1.44,1.44-2.18,2.16Zm11.82-.06,3,0a4.57,4.57,0,0,1,.46-1.64A31.09,31.09,0,0,1,2090.11,90Zm10.66,0,4.91,0a.19.19,0,0,0,0-.07l.05-.14C2103.06,88.09,2101.73,88.66,2100.77,90ZM2116,91.88V98.1c2.07-2.13,4-4.43,2.9-7.71A31.85,31.85,0,0,0,2116,91.88Z"/></svg>