<svg id="圖層_1" data-name="圖層 1" xmlns="http://www.w3.org/2000/svg" viewBox="0 0 41 41"><defs><style>.cls-1{fill:none;}.cls-2{fill:#8da0a9;}.cls-3{fill:#fff;}</style></defs><rect class="cls-1" width="41" height="41"/><circle class="cls-2" cx="20.45" cy="20.45" r="20.03"/><path class="cls-3" d="M29.08,24.49a5.3,5.3,0,0,1-.81,2.82,5,5,0,0,1-2.51,2.13,8.52,8.52,0,0,1-2.24.46c-.86.07-2.4.11-4.61.11h-7V11h8.19a24.16,24.16,0,0,1,3.47.18A5.83,5.83,0,0,1,25.9,12a4.44,4.44,0,0,1,2.18,3.81,4.17,4.17,0,0,1-.73,2.38,4.51,4.51,0,0,1-2.15,1.71C27.79,20.59,29.08,22.12,29.08,24.49Zm-5-8.11a1.86,1.86,0,0,0-1.54-2,24.4,24.4,0,0,0-4.08-.18H16v4.35h4.5C22.88,18.56,24.05,17.83,24.05,16.38Zm.78,8a2.22,2.22,0,0,0-1.65-2.31,15,15,0,0,0-3.8-.31H16v5h3.83a14.32,14.32,0,0,0,3.27-.21A2.18,2.18,0,0,0,24.83,24.39Z"/></svg>