<svg xmlns="http://www.w3.org/2000/svg" viewBox="0 0 60 60"><defs><style>.cls-1{fill:#c1c1c1;}.cls-2{fill:#fff;}</style></defs><g id="圖層_2" data-name="圖層 2"><g id="圖層_1-2" data-name="圖層 1"><circle class="cls-1" cx="30" cy="30" r="30"/><g id="圖層_2-2" data-name="圖層 2"><g id="圖層_2-2-2" data-name="圖層 2-2"><path class="cls-2" d="M25.94,12s1.4.32,2.1,4.05.3,5.41-1.32,5.56S22.14,21.41,22,23c0,.9.4,1.6,1.38,3L32,38.41s2.33,4,3.83.62,1.18-4,3.68-3.28,6.59,3.56,5.86,5.61a8.32,8.32,0,0,1-7.69,7.11c-6.43,1-10.23-3.33-15-10.19S9.22,20.53,18.93,13.05A6.59,6.59,0,0,1,25.94,12Z"/></g></g></g></g></svg>