<?xml version="1.0" standalone="no"?>
<!DOCTYPE svg PUBLIC "-//W3C//DTD SVG 1.1//EN" "http://www.w3.org/Graphics/SVG/1.1/DTD/svg11.dtd">
<svg xmlns="http://www.w3.org/2000/svg">
<metadata>Copyright (C) 2020 by original authors @ fontello.com</metadata>
<defs>
<font id="fontello" horiz-adv-x="1000" >
<font-face font-family="fontello" font-weight="400" font-stretch="normal" units-per-em="1000" ascent="850" descent="-150" />
<missing-glyph horiz-adv-x="1000" />
<glyph glyph-name="dot-3" unicode="&#xe800;" d="M110 460q46 0 78-32t32-78q0-44-32-77t-78-33-78 33-32 77q0 46 32 78t78 32z m350 0q46 0 78-32t32-78q0-44-33-77t-77-33-77 33-33 77q0 46 32 78t78 32z m350 0q46 0 78-32t32-78q0-44-32-77t-78-33-78 33-32 77q0 46 32 78t78 32z" horiz-adv-x="920" />

<glyph glyph-name="network" unicode="&#xe801;" d="M224 504q-22 0-42-10-48 52-92 128 54 74 128 118 92-38 152-82-6-16-6-32 0-6 4-22-62-48-116-104-16 4-28 4z m-98-98q0-34 20-60-60-114-80-232-66 106-66 236 0 110 50 206 38-62 84-112-8-24-8-38z m336 318q-28 0-50-14-58 42-114 70 84 30 162 30 120 0 230-62-76-14-162-50-26 26-66 26z m146-460q-160 24-290 112 4 20 4 30 0 24-14 52 38 44 98 90 26-20 56-20 14 0 38 8 94-108 134-240-16-14-26-32z m128-132q38 14 54 60 58 4 108 18-46-146-166-232 6 48 6 98 0 10-1 28t-1 28z m-150 66q-190-96-304-272-90 36-158 110 12 144 80 274 6-2 20-2 30 0 52 14 142-98 310-124z m184 492q150-136 150-340 0-22-4-66-64-18-130-24-24 56-88 60-48 146-148 264 10 20 10 42l0 10q100 42 210 54z m-136-544q14-10 32-18 2-18 2-52 0-80-14-144-86-42-194-42-58 0-112 12 110 160 286 244z" horiz-adv-x="920" />

<glyph glyph-name="list" unicode="&#xe802;" d="M100 200q20 0 35-15t15-35-15-35-35-15l-50 0q-20 0-35 15t-15 35 14 35 36 15l50 0z m0 200q20 0 35-15t15-35-15-35-35-15l-50 0q-20 0-35 15t-15 35 14 35 36 15l50 0z m0 200q20 0 35-15t15-35-15-35-35-15l-50 0q-20 0-35 15t-15 35 14 35 36 15l50 0z m200-100q-20 0-35 15t-15 35 15 35 35 15l350 0q22 0 36-15t14-35-15-35-35-15l-350 0z m350-100q22 0 36-15t14-35-15-35-35-15l-350 0q-20 0-35 15t-15 35 15 35 35 15l350 0z m0-200q22 0 36-15t14-35-15-35-35-15l-350 0q-20 0-35 15t-15 35 15 35 35 15l350 0z" horiz-adv-x="700" />

<glyph glyph-name="clock" unicode="&#xe803;" d="M460 810q190 0 325-135t135-325-135-325-325-135-325 135-135 325 135 325 325 135z m0-820q150 0 255 106t105 254q0 150-105 255t-255 105q-148 0-254-105t-106-255q0-148 106-254t254-106z m36 620l0-244 150-150-50-50-170 170 0 274 70 0z" horiz-adv-x="920" />

<glyph glyph-name="home" unicode="&#xe804;" d="M521 819q322-279 500-429 20-16 20-40 0-21-15-37t-36-15l-105 0 0-364q0-21-15-37t-36-16l-156 0q-22 0-37 16t-16 37l0 208-209 0 0-208q0-21-15-37t-36-16l-156 0q-21 0-37 16t-16 37l0 364-103 0q-22 0-37 15t-16 37 19 40z" horiz-adv-x="1041" />

<glyph glyph-name="reply-outline" unicode="&#xe805;" d="M938-1q0-22-15-37t-38-15q-26 0-42 24-60 93-139 133t-183 48l0-75q0-42-31-73-30-30-74-30t-72 30l-329 322q-15 15-15 38t15 37l328 323q28 28 73 29t74-29q31-32 31-74l0-89q182-36 299-180t118-330l0-52z m-468 260q224-5 353-110-30 126-129 213t-231 103l-47 2 0 183-290-286 290-287 0 183q39-1 54-1z" horiz-adv-x="938" />

<glyph glyph-name="reply" unicode="&#xe806;" d="M365 702q20 0 36-16t15-36l0-133q178-20 298-153t120-313l0-53q-80 122-183 163t-235 46l0-130q0-21-15-37t-36-15q-22 0-37 15l-328 323 328 324q15 15 37 15z" horiz-adv-x="834" />

<glyph glyph-name="feather" unicode="&#xe807;" d="M453 922q188-35 310-182t122-338q0-180-109-322t-281-188l0-64q0-21-16-36t-36-15-37 15-16 36l0 64q-172 46-281 188t-109 322q0 191 123 338t311 182l9 1z m42-921q125 43 204 150t82 240l-163-164q-8-8-19-8-16 0-24 15t5 29l196 196q-11 77-45 142l-113-114q-8-8-19-8-16 0-24 17t5 28l123 123q-97 136-260 170-164-34-260-170l122-123q13-12 5-28t-24-17q-11 0-18 8l-114 114q-34-65-45-142l196-196q13-14 5-29t-24-15q-11 0-18 8l-163 164q4-134 82-240t203-150l0 608q0 22 16 37t37 16 36-16 16-37l0-608z" horiz-adv-x="885" />

<glyph glyph-name="address" unicode="&#xe808;" d="M933 533l-143-135-4-4q48-54 48-121 0-75-54-129t-129-54l-141 0-41-209-53 0-41 209-115 0q-69 0-117 49l-134 134 96 96q-47 21-76 66t-29 98q0 75 54 129t129 53l182 0 0 27q0 31 23 54t55 23 55-23 23-54l0-27 152 0q67 0 116-46z m-282-339q32 0 55 23t23 56-23 55-55 22l-391 0q-26 0-44-17l-60-60 60-60q19-19 44-19l391 0z m67 279l63 60-63 60q-19 19-45 19l-490 0q-33 0-56-24t-23-55q0-31 23-55t56-23l490 0q27 0 45 18z" horiz-adv-x="933" />

<glyph glyph-name="map" unicode="&#xe809;" d="M53-93q-23 0-38 16t-15 36l0 521q0 21 15 36l235 235q14 14 34 15t35-11l224-179 202 201q25 25 57 10t32-47l0-520q0-21-16-38l-234-233q-14-14-35-15t-35 11l-224 179-201-202q-15-15-36-15z m51 178q152 150 156 152l0 378-156-156 0-374z m215 149l202-162 0 389-208 165 0-389q1-1 3-2t3-1z m410 7l0 374q-153-151-156-154l0-376z" horiz-adv-x="834" />

<glyph glyph-name="quote-left" unicode="&#xe80a;" d="M911 16l-335 0 0 335q0 139 99 236t236 98l0-111q-93 0-158-66t-65-157l223 0 0-335z m-558 0l-335 0 0 335q0 139 98 236t237 98l0-111q-93 0-158-66t-65-157l223 0 0-335z" horiz-adv-x="928" />

<glyph glyph-name="quote-right" unicode="&#xe80b;" d="M18 685l335 0 0-334q0-140-98-238t-237-97l0 111q92 0 158 65t65 159l-223 0 0 334z m558 0l335 0 0-334q0-140-98-238t-237-97l0 111q92 0 158 65t65 159l-223 0 0 334z" horiz-adv-x="928" />

<glyph glyph-name="quote-left-alt" unicode="&#xe80c;" d="M911 16l-335 0 0 335 335 334 0-669z m-558 0l-335 0 0 335 335 334 0-669z" horiz-adv-x="928" />

<glyph glyph-name="quote-right-alt" unicode="&#xe80d;" d="M18 685l335 0 0-334-335-335 0 669z m558 0l335 0 0-334-335-335 0 669z" horiz-adv-x="928" />

<glyph glyph-name="call" unicode="&#xe80e;" d="M2 593q2 17 15 32l120 120q14 12 21-4l97-182q8-16-5-31l-44-44q-12-12-14-31 0-30 31-77t61-80l31-32q14-14 36-34t72-54 80-34q19 0 32 13l52 52q14 14 30 4l175-103q7-4 8-10t-4-12l-120-120q-15-13-32-15-49-7-111 14t-114 54-97 69-72 60l-26 25q-10 10-27 28t-57 69-71 100-52 112-15 111z" horiz-adv-x="800" />

<glyph glyph-name="line-03" unicode="&#xe80f;" d="M1022 510c-20 86-67 156-136 211h0c-6 5-12 11-18 15-113 85-242 119-382 113-130-5-247-46-346-132-80-69-131-155-139-262-10-135 47-241 149-326 6-5 11-10 17-15 77-58 164-90 259-105 29-5 43-22 43-51 0-27 0-54 0-81s13-34 36-21c49 28 98 56 146 86 99 62 193 129 271 217 90 101 132 216 100 351z m-603-203c-16-17-27-17-42 0l-26-8-5-3-131-1c-14 0-21 8-21 21q0 97 0 194c0 14 9 21 23 21 15-1 20-10 20-24 0-46 0-93 0-139 0-27 4-31 31-31 19 0 38 0 57 0 29 0 36-10 26-38l26 8c0 65 0 131 0 196 0 16 3 28 22 28 18-1 20-13 20-28-1-65-1-131-1-196 1 2 1 4 2 5 0-1-1-3-1-5z m226 215c0-69 1-138 0-208 0-6-7-17-11-17a32 32 0 0 0-23 9c-30 36-59 72-88 108a98 98 0 0 1-24 22v-116c0-12-2-23-16-25-13-2-24 1-27 16 0 64 0 128 1 192 0 9 7 17 11 26 9-4 20-7 26-13 20-22 38-45 57-67l52-66v109a43 43 0 0 0 1 11c3 9 5 23 11 24 8 3 20-3 30-5 2 3 4 6 6 8-2-2-4-5-6-8z m194-227c-45 0-91-1-137 1-6 0-17 11-17 18-1 65-1 131-1 196 0 14 8 21 21 21 42 0 85 0 127 0 14 0 22-6 22-22s-8-21-22-21c-27 0-55 0-82 0h-23v-55c33 0 65 1 97 0 7 0 17-3 21-9 11-13 0-31-17-31-26-1-53 0-80 0h-20v-56h20c30 0 59 0 89 0 13 0 21-7 21-22 0-12-6-20-19-20z" horiz-adv-x="1033" />

<glyph glyph-name="line-14" unicode="&#xe810;" d="M1000 625c0 47-11 91-38 130-45 64-109 93-185 94-172 2-344 1-515 1-21 0-41-1-61-3-33-2-63-11-92-28-73-43-106-110-108-193-2-92 0-184 0-275s-1-184 0-276c0-49 13-95 43-136 45-60 108-88 181-88 181-2 362-1 543-1 33 0 66 5 97 18 81 33 134 105 135 207 2 184 1 367 0 550z m-189-381c-36-48-80-88-129-123-53-38-109-73-163-108-10-6-21-10-33-14-13-3-19 4-17 17 2 15 5 30 7 45 2 28-7 40-36 44-86 13-162 45-224 108-52 54-81 118-77 194 3 73 35 132 88 181 62 58 136 88 220 98 18 3 36 3 49 4 107-2 200-30 276-99 55-49 88-110 92-184 3-61-17-115-53-163z m-207 202c0 29 4 26-26 26-9 0-12-4-12-12 1-24 0-48 0-72 0-3 0-6-1-10-19 27-39 52-56 78-9 13-19 17-34 16-11 0-14-4-14-15 0-41 0-82 0-124 0-28-2-25 26-25 9 0 12 3 12 12-1 27 0 53 0 79 0 1 1 1 2 1 19-25 39-50 56-76 9-13 18-17 33-17 12 1 14 5 14 16 0 41 0 82 0 123z m123 26c-30 0-60 0-91 0-3-1-9-6-9-9 0-49 0-97 0-146 0-3 6-9 9-9 31 0 61 0 91 0 7 0 10 3 10 10 0 3 0 7 0 10 0 17 0 17-18 17-18 0-36 0-54 0 0 10 0 17 0 25 1 0 2 1 3 1 18 0 36 0 53 0 16 0 16 0 16 16 0 2 0 3 0 5 0 17 0 17-18 17-18 0-36 0-54 0 0 9 0 16 0 25 16 0 31 0 46 0 29 0 26-3 26 28 0 7-3 10-10 10z m-360-126c-19-1-38-1-59-1 0 36 0 69 0 102 0 29 2 24-25 25-10 0-13-3-13-13 0-46 0-92 0-138 0-10 3-14 13-13 24 0 49 0 73 0 26 0 24-4 24 25 0 9-3 13-13 13z m71 44c0 20 0 39 0 59 0 26 2 23-22 23-15 0-15 0-15-16-1-41 0-82-1-124 0-27-1-24 25-24 11-1 14 4 14 14-1 23-1 45-1 68z" horiz-adv-x="1001" />

<glyph glyph-name="thumbs-up" unicode="&#xe811;" d="M143 100q0 15-11 25t-25 11-25-11-11-25 11-25 25-11 25 11 11 25z m643 321q0 29-22 50t-50 22h-196q0 32 27 89t26 89q0 55-17 81t-72 27q-14-15-21-48t-17-70-33-61q-13-13-43-51-2-3-13-16t-18-23-19-24-22-25-22-19-22-15-20-6h-18v-357h18q7 0 18-1t18-4 21-6 20-7 20-6 16-6q118-41 191-41h67q107 0 107 93 0 15-2 31 16 9 26 30t10 41-10 38q29 28 29 67 0 14-5 31t-14 26q18 1 30 26t12 45z m71 1q0-50-27-91 5-18 5-38 0-43-21-81 1-12 1-24 0-56-33-99 0-78-48-123t-126-45h-72q-54 0-106 13t-121 36q-65 23-77 23h-161q-29 0-50 21t-21 50v357q0 30 21 51t50 21h153q20 13 77 86 32 42 60 72 13 14 19 48t17 70 35 60q22 21 50 21 47 0 84-18t57-57 20-104q0-51-27-107h98q58 0 101-42t42-100z" horiz-adv-x="857.1" />

<glyph glyph-name="pencil" unicode="&#xe812;" d="M203-7l50 51-131 131-51-51v-60h72v-71h60z m291 518q0 12-12 12-5 0-9-4l-303-302q-4-4-4-10 0-12 13-12 5 0 9 4l303 302q3 4 3 10z m-30 107l232-232-464-465h-232v233z m381-54q0-29-20-50l-93-93-232 233 93 92q20 21 50 21 29 0 51-21l131-131q20-22 20-51z" horiz-adv-x="857.1" />

<glyph glyph-name="sun-inv" unicode="&#xe813;" d="M94 350q0 13 9 22t22 9h62q14 0 23-9t9-22-9-23-23-8h-62q-14 0-22 8t-9 23z m119-287q-22 21 0 45l45 43q21 21 43 0t0-43l-43-45q-24-22-45 0z m0 529q-22 23 0 45t45 0l43-45q21-22 0-43t-43 0z m68-242q0 90 65 154t154 64 154-64 64-154-64-154-154-65-154 65-65 154z m188-375v62q0 14 8 23t23 9 22-9 9-23v-62q0-14-9-23t-22-8-23 8-8 23z m0 687v63q0 13 8 22t23 9 22-9 9-22v-63q0-14-9-22t-22-9-23 9-8 22z m229-511q22 21 44 0l45-43q21-24 0-45t-45 0l-43 45q-24 21-1 43z m0 398q-23 21 1 43l43 45q23 21 45 0t0-45l-45-43q-22-22-44 0z m83-199q0 13 9 22t22 9h63q13 0 22-9t9-22-9-23-22-8h-63q-14 0-22 8t-9 23z" horiz-adv-x="1000" />

<glyph glyph-name="braces" unicode="&#xe814;" d="M1500 546c-9 5-15 15-23 23-88 83-182 158-288 217-119 66-243 83-374 41-17-6-34-21-51-21-17 0-34 15-52 21-111 35-220 31-326-18-128-60-235-148-339-242-37-34-56-69-43-118a66 66 0 0 0 1-8c18-139 79-257 178-355 160-161 358-231 589-236 24 2 56 3 88 7 163 18 310 77 436 184 134 114 216 256 230 434 2 28 0 53-26 71z m-183-115c5 29 18 50 41 62 9 4 23 0 34-1a447 447 0 0 0 62-8c-41-29-88-41-137-53z m68-38l-69-52a270 270 0 0 0 0 29 13 13 0 0 0 7 9 339 339 0 0 0 62 14z m-1178 244c72 57 148 108 235 140 82 30 164 27 247 4 20-6 38-18 56-30 12-7 23-10 35-1 36 31 80 39 126 45 104 15 197-17 285-69 83-49 158-109 229-175 1-1 3-3 7-8l-44 4c-111 11-223 22-335 32-60 5-119-3-177-17a468 468 0 0 0-220 1 600 600 0 0 1-209 13c-98-10-197-19-295-29l-43-4-2 5c35 30 69 61 105 89z m792-253l-206-9c-12 42 4 89 35 113 34 25 85 28 123 7 36-21 55-62 48-111z m1-52v-98l-209-17v107z m-8 195h69l-34-38z m147-19c62 10 117-29 123-92l-206-28c-14 55 25 110 83 120z m-85-172l210 28c0-14 0-29 0-43a14 14 0 0 0-8-10 834 834 0 0 0-202-65z m-527 48c-4 46 6 84 45 108s81 24 120 0c42-26 49-68 45-117z m209-60v-107l-209 16v99z m-262 12v-90a840 840 0 0 0-168 50l-5 2c-43 18-43 18-36 66z m-209 81c5 60 56 98 118 91 59-6 97-56 90-121z m201 110h69l-35-38z m-255-186l-69 52 2 3c20-6 40-11 60-17 3-1 6-6 7-10 1-7 0-15 0-28z m-137 145c15 2 31 4 47 6 12 1 24 4 36 3a45 45 0 0 0 23-10c16-12 27-29 30-54-49 12-96 24-137 50 0 1 0 3 1 5z m1366-165c-50-131-138-230-256-303-148-91-310-125-483-113-140 10-269 51-385 131-124 85-210 197-248 344-1 5-2 9-3 17 10-10 18-18 26-26 71-71 158-113 251-144 89-31 180-46 273-54a1689 1689 0 0 1 271-3c143 10 282 39 412 103a513 513 0 0 1 151 112c3 3 5 6 8 9 1 0 2 0 7 2-8-27-14-51-24-75z" horiz-adv-x="1526" />

<glyph glyph-name="implant" unicode="&#xe815;" d="M763 700c-30 58-74 103-134 128-74 32-149 27-223 0-4-2-9-3-12-2-41 19-84 22-128 23-67 0-123-24-170-69-84-82-108-183-91-295 11-66 39-123 78-176a28 28 0 0 1 25-12c37 0 74 0 111 0 4 0 8 0 11 0v-44c-11 0-22 0-33 0-6 0-9-2-8-8 0-8 0-16 0-24-1-7 2-9 9-9 11 1 22 0 32 0v-44h-41c0-12-1-24 0-35 0-2 4-5 6-5a276 276 0 0 1 28-1c6 1 9-2 8-8 0-9 0-18 0-28 1-6-2-8-8-8-9 0-18 0-27 0-2 0-7-3-7-4 0-12 0-24 0-38h42c0-11 0-21 1-31s-3-12-13-12c-32 0-32 0-30-33 0-6 3-8 9-8 11 0 22 0 34 0a18 18 0 0 0 16-7c25-31 52-60 87-78 17-10 37-15 56-22h20c13 4 27 7 40 13 42 19 74 51 102 86 5 5 9 8 17 8 11-1 23 0 34 0 6 0 9 2 9 8-1 8-1 16 0 24 0 7-2 9-9 9a263 263 0 0 0-27 0c-2 0-6 3-7 5 0 13 0 25 0 39h43c0 12 0 24-1 35 0 2-4 5-6 6a179 179 0 0 1-26 0c-7-1-11 2-10 9a209 209 0 0 1 0 26c0 7 2 10 9 9 11 0 22 0 33 0v42h-41v43c11 0 22 1 33 0 6 0 9 2 8 8a210 210 0 0 0 1 23c0 8-3 11-11 10-10 0-21 0-31 0v44h13c37 0 74 0 110 0a26 26 0 0 1 23 11c25 33 45 68 59 106 35 97 35 193-13 286z m-490-446v42h255v-42z m0-127h255v-43h-255z m204-198a408 408 0 0 0-51-32c-15-8-31-7-47-2-33 12-58 34-83 61h209c-10-10-18-20-28-27z m51 70h-255v42h255z m0 170h-255v43h255z m232 348c-6-65-30-122-68-173-3-3-9-5-14-5q-209-1-418 0-68 0-137-1a16 16 0 0 0-15 8c-44 60-70 128-68 203 2 83 30 156 94 212 36 31 78 47 126 46a772 772 0 0 0 77-6c22-2 41-12 59-24 37-23 76-42 118-52 8-2 11-1 12 7 1 11 3 21 4 29l-85 33 1 5c9 1 18 4 27 5 47 5 93 8 138-11 54-22 91-62 116-112a299 299 0 0 0 33-164z m-466 223c0 26 0 27-27 22-79-13-135-57-168-130-12-25-17-51-17-79h41c0 7 1 13 2 20a165 165 0 0 0 156 149c10 0 14 4 13 14a27 27 0 0 0 0 4z" horiz-adv-x="801" />

<glyph glyph-name="gp" unicode="&#xe816;" d="M892 608q-33 15-65 32a26 26 0 0 0-11 10c-12 24-24 47-35 71-5 9-11 16-22 16-11 0-17-6-21-15-11-23-23-46-35-69a34 34 0 0 0-13-13c-23-12-46-23-69-35-9-4-15-10-15-21s6-16 15-21c23-11 46-22 69-35a34 34 0 0 0 13-13c12-22 23-46 35-69 4-9 10-15 21-15s17 7 21 16c11 22 22 45 34 67a40 40 0 0 0 15 15c21 12 43 22 64 32 9 5 16 10 20 19v8c-4 10-12 15-21 20z m-93-46a57 57 0 0 1-18-18c-8-13-14-28-22-44-8 17-15 31-23 45a50 50 0 0 1-17 17c-13 8-28 14-44 22 16 8 29 15 43 22a37 37 0 0 1 19 19c7 14 14 27 22 43 8-16 14-30 22-44a51 51 0 0 1 17-17c14-8 28-14 45-23-16-8-31-14-44-22z m-263 20c-57 18-114 9-170-10a28 28 0 0 0-20 1c-53 17-107 25-162 11-107-27-180-129-167-255 6-66 32-124 72-177a27 27 0 0 0 5-12c3-24 5-48 9-71 11-68 31-131 75-186 14-16 29-27 49-31 32-8 63 10 71 41 3 9 3 18 3 27 1 33 1 65 3 98a283 283 0 0 0 12 62c8 24 28 33 53 27 21-5 29-22 32-40 6-35 9-71 13-107l-2 0c0-17 0-34 0-51 0-28 19-53 46-58s51 3 69 24a305 305 0 0 1 51 81c20 47 32 97 37 148 2 26 9 49 24 72 47 70 69 148 52 232-18 87-69 148-155 174z m79-366c-6-10-12-22-20-30-16-17-19-37-21-59-3-49-13-98-31-144-11-30-29-57-49-82-6-8-26-12-34-6-3 2-5 8-5 13-2 28 0 56-3 83-4 32-10 64-16 96-2 8-6 16-10 23-14 26-36 40-66 41-31 1-56-10-72-38-13-24-20-50-22-77-4-40-5-81-8-122 0-7 3-17-7-20-11-5-26 0-33 8a316 316 0 0 0-62 122 610 610 0 0 0-19 122 47 47 0 0 1-11 28c-34 43-59 91-67 146-8 63 5 121 47 170 30 36 69 56 116 57 25 1 50-2 75-5 41-5 70-28 95-58 6-6 11-13 17-20l35 25-44 50c14 3 27 6 41 7 35 4 70 4 103-10 55-23 87-67 102-123 20-70 4-135-31-197z m-168 522c14-7 28-14 42-22a25 25 0 0 0 9-9c8-13 14-27 21-41 4-6 8-11 16-11 8 0 12 5 15 11 7 14 14 28 21 41a25 25 0 0 0 10 9c12 7 25 13 38 20 7 3 13 7 13 16s-6 14-13 17c-13 7-27 14-40 21a19 19 0 0 0-7 7c-7 13-14 27-21 41-3 7-8 12-16 12s-12-4-16-11c-7-13-13-27-21-40a26 26 0 0 0-9-10c-14-7-27-14-41-21-6-3-10-8-10-15 0-7 3-12 9-15z m87 63c7-13 10-24 18-31s18-11 28-17c-10-6-21-10-28-17s-11-19-18-30c-7 23-21 39-45 46 23 9 38 24 45 49z" horiz-adv-x="913" />

<glyph glyph-name="root" unicode="&#xe817;" d="M911 602c-24 118-93 199-209 235-77 24-154 12-229-13a38 38 0 0 0-27 0c-71 24-144 35-218 16-145-36-243-175-226-344 9-89 44-168 97-239a36 36 0 0 0 7-16c4-32 7-64 12-96 15-91 42-177 102-250 18-22 39-36 66-43 43-10 85 14 96 57 3 11 3 23 3 35 2 44 1 89 5 132a381 381 0 0 0 16 84c10 33 37 45 70 37 29-7 40-30 44-54 7-48 12-96 17-145l-3 0c0-23 0-46 0-68 1-38 27-72 63-78s69 4 93 32a411 411 0 0 1 69 108c27 64 43 131 49 200 3 36 13 67 33 97 63 95 92 199 70 313z m-102-258c-8-14-16-30-28-42-21-22-25-49-27-78-5-67-18-132-42-195-16-41-40-76-67-110-8-11-35-17-45-9-5 4-7 12-8 18-1 38 0 76-4 113-4 43-13 85-21 128-2 11-8 22-14 32-18 35-47 53-88 55-42 2-75-14-97-52-18-31-27-67-31-103-4-54-6-110-10-164 0-10 4-23-9-28-15-6-35 0-45 11a427 427 0 0 0-84 164 821 821 0 0 0-25 165 64 64 0 0 1-14 38c-47 58-80 122-90 196-12 86 6 164 62 231 40 48 93 74 156 76 34 1 68-3 102-7 55-6 94-38 128-78 8-9 15-18 23-28l48 34-61 68c20 4 38 8 56 10 47 5 94 4 139-14 75-31 117-90 138-166 26-94 5-182-42-265z m-249 128c-40 0-81 0-121 1-9 0-13-3-16-10-30-69-61-137-90-206-4-9-9-16-20-18-15-3-21-12-23-25-1-4-4-10-8-13-7-6-17-9-26-14-5 7-10 13-13 20s-1 15-2 23c-12 1-16 12-23 19a17 17 0 0 0-4 13c2 17 5 35 7 53 5 33 9 66 13 100-18-11-39-71-46-117-12-90 10-173 65-252 2 4 4 8 6 11 32 61 63 122 96 183a125 125 0 0 0 21 30c57 57 159 43 196-27 33-62 65-125 98-187 1-3 3-6 5-9a25 25 0 0 1 2 2c66 100 83 205 45 316-23 67-83 107-162 107z m-286-234c-1-4 0-9 0-14l5-1c3 4 6 8 8 13q56 207 111 415c2 5 3 10 8 13 6 4 6 11 3 17a13 13 0 0 1-17 5c-6-3-8-8-7-16 1-5 2-10 0-15q-55-209-111-417z m-15 25c2 5 5 10 5 14 4 31 8 63 11 94q18 148 35 296a15 15 0 0 0 4 8c6 7 7 14 2 20a13 13 0 0 1-18 2c-6-3-8-12-4-19a18 18 0 0 0 2-9c0-9-2-19-3-28q-10-86-20-172c-7-63-15-127-22-190-1-6 0-11 8-16z m51 16c-2-4-1-9-2-14l6-2c3 4 6 8 8 13q71 183 142 366c2 5 7 10 10 14 5 5 7 10 3 17a12 12 0 0 1-16 6c-6-3-10-9-7-16s0-11-2-16q-71-184-142-368z" horiz-adv-x="918" />

<glyph glyph-name="periodontal" unicode="&#xe818;" d="M1077 466c0 36-25 62-60 63-100 1-192-64-223-159a61 61 0 0 0-4-7c-3 35 6 66 21 96 10 18 19 37 25 56 18 53 17 108 9 163-5 35-14 70-32 101-29 52-79 77-138 70-29-4-53-17-78-30-39-22-78-22-117 0-6 4-13 7-20 11-28 14-58 23-90 19-55-6-93-37-114-86a365 365 0 0 1-20-225c5-27 18-53 30-78 15-31 25-62 21-97-1 2-2 4-3 6-33 95-118 157-218 160-38 1-66-25-66-62 0-153 0-307 1-461 0-85 72-156 157-156q381 0 762 0a150 150 0 0 1 83 25c48 31 74 76 74 133 1 153 0 305 0 458z m-804 72c-16 69-11 136 13 202 14 37 38 64 79 72 26 4 50-1 73-12 21-10 43-22 65-29 38-12 74-3 109 14 20 10 40 20 61 25 42 11 81-7 105-43 18-28 25-60 31-92 7-44 7-87-2-131-3-12-7-18-20-19-26-4-53-10-79-16-32-7-47-37-34-67 4-11 2-17-8-23-26-15-33-44-17-69 10-13 11-24 7-40-8-25 5-47 29-57 16-7 32-13 49-21 2-1 6-6 6-9-9-70-20-139-50-203-7-16-20-31-31-45-3-4-11-4-16-6-2 5-4 11-4 16 7 95 3 189-36 278a318 318 0 0 1-27 48c-20 29-54 29-74 0a321 321 0 0 1-54-131c-7-42-10-83-14-114 2-36 4-60 5-85 1-4-1-10-4-12s-11 0-13 2c-12 16-26 32-35 50-21 41-31 86-39 132-4 23-6 47-10 71-2 7 0 9 6 12 14 5 27 10 40 16 26 11 38 33 30 60-4 14-3 24 5 36 19 26 11 55-16 72-9 5-11 11-7 20 14 35-2 63-39 70-23 5-46 9-68 13-9 2-14 5-16 15z m408-170c-6 8-4 15 6 21 25 15 33 37 22 64-6 13-3 18 10 21 20 4 41 8 64 13a94 94 0 0 0-4-11c-18-33-26-69-28-107-1-30-3-61-5-91a72 72 0 0 0-2-10c-16 7-31 13-45 19-7 3-11 8-8 16 10 24 6 45-10 65z m-295 19c7-4 8-10 4-17-5-8-12-15-13-23a122 122 0 0 1 1-38c2-16 2-19-13-25-10-4-20-8-32-13-2 17-3 31-4 46-2 31-3 64-8 95-4 25-15 48-23 72 19-3 39-6 58-11 8-2 9-9 7-17-12-35-8-47 23-69z m654-378a121 121 0 0 0-121-122h-380q-189 0-377 0c-72 0-125 53-125 125 0 149 1 298 0 446 0 33 17 36 39 34 80-7 163-65 182-164a261 261 0 0 1 9-40c5-13 9-27 18-37 15-14 16-31 19-49 9-66 20-132 48-193 11-26 25-49 47-66 16-13 34-16 52-7 19 8 26 24 25 45-1 37-4 74-2 112 2 63 15 125 48 181 15 28 18 28 34 1 27-47 40-98 46-152a683 683 0 0 0 0-139c-2-21 5-39 24-48s39-6 56 9c28 25 43 59 56 93 19 53 29 109 36 165 3 17 4 34 18 48 16 14 19 35 23 55 8 32 13 64 32 92 38 58 91 89 160 94 24 2 33-6 33-30q0-227 0-453z" horiz-adv-x="1078" />

<glyph glyph-name="braces-01" unicode="&#xe819;" d="M1190 446c-2 6-6 10-9 15-53 80-111 156-179 224-55 56-114 105-185 137-71 32-143 39-215 4-3-2-9-1-14 1-14 4-27 11-41 15-61 17-120 6-176-21-69-33-125-82-178-136-67-68-123-144-177-222-5-7-11-12-16-17v-17c2-3 4-6 5-10 34-82 66-164 102-245 33-73 71-143 121-206 23-28 48-53 82-68a537 537 0 0 1 206-49c33-1 66 1 100-1 68-2 134 5 200 24 41 13 82 27 114 58 34 31 60 68 84 107 75 124 129 257 178 392 1 5 0 11-2 15z m-1131 28c61 87 126 171 206 241 46 41 96 76 155 95 57 18 112 16 164-13 8-4 15-6 22-1 70 38 140 30 209-4 70-33 128-85 181-140 51-55 97-113 140-175 1-3 3-6 6-11-14 5-27 10-39 14q-216 74-431 148a224 224 0 0 1-151 0l-451-155c-4-2-8-3-14-5a34 34 0 0 0 3 7z m663-338c0 16-1 31 0 46a17 17 0 0 0 5 12 79 79 0 0 0 62 16 17 17 0 0 0 11-9 226 226 0 0 0 21-98 13 13 0 0 0-8-9c-27-5-54-9-81-14-8-1-11 3-11 10 1 15 1 31 1 47z m-18-47c0-7-3-11-10-10-28 2-55 4-82 6-3 0-6 5-6 7-1 27-1 54 0 81 0 5 5 12 10 15 26 15 54 16 82 4 3-2 5-8 6-12 0-15 0-30 0-45s0-31 0-46z m-1 120c-35 13-69 11-101-10a12 12 0 0 0-11 0c-33 22-67 23-103 9a19 19 0 0 0-14 2 110 110 0 0 1-69 18 17 17 0 0 0-12 6 127 127 0 0 1-53 43c-5 2-8 9-13 14-14 14-16 32-17 51q-4 46-9 91c-2 11 2 15 13 15 14-1 28-3 42-2 28 1 56 4 84 6 5 0 9 2 14 2 40-8 81-2 121 1a66 66 0 0 0 8 0v-59c0-20 0-41 0-61 0-12 5-18 14-17 10 0 13 8 13 17q0 55 0 109v11c30-1 58-5 87-4 35 2 70-2 105-5 25-2 50 1 74 2 17 0 17-1 16-18-4-37-7-75-11-112-1-5-4-9-6-14a95 95 0 0 0-39-37c-14-7-24-22-36-32-3-4-9-7-13-7a98 98 0 0 1-66-18c-6-4-11-4-18-1z m-115-111c0-9-2-14-12-14-25-1-50-3-74-5-10-1-13 3-13 12 0 15 0 30 0 45h0c0 15-1 30 0 45a16 16 0 0 0 8 12c26 11 51 9 76-2 10-5 15-13 15-25-1-22-1-45 0-68z m-116-9c0-7-3-10-10-9-27 4-54 9-81 14-4 0-8 6-9 10 0 33 7 65 20 96 3 7 8 10 16 11 20 1 39-3 56-16a22 22 0 0 0 7-14c1-15 1-30 1-45-1-16-1-31 0-47z m-268 359a13 13 0 0 0 8-8c6-18 11-36 17-56-5-4-8-8-12-9-14-5-28-10-43-14-4-1-10 0-13 2a120 120 0 0 0-41 89c0 9 5 12 13 11 24-5 47-10 71-15z m-40 28l41 14v-24l-41 7c0 1 0 2 0 3z m71-14c-8 0-13 3-12 12a42 42 0 0 1 0 11c-1 9 3 14 12 16 27 9 54 19 84 30 0-22 1-41 0-59 0-3-5-7-8-7-25-2-50-2-76-3z m47-109a21 21 0 0 0-1-5c-12 9-24 17-35 25a9 9 0 0 0-3 5c-4 22-7 44-11 68 11 0 24 0 36-1 2 0 6-4 6-6 3-29 6-57 8-86z m-127-8a14 14 0 0 0 4-5c17-46 52-76 91-103 7-5 18-8 21-15s-4-16-6-25c-2-9-4-19-6-31-10 9-19 17-26 25-40 48-81 95-119 143-18 22-16 50-15 76 0 8 1 17 2 25l3 0c6-36 23-66 51-90z m88-82c-23 17-44 38-60 63-9 16-9 17 9 23a35 35 0 0 1 4 2c29 15 52 6 72-16 17-19 34-38 50-57-13-13-22-24-32-33-3-3-9-4-12-2a243 243 0 0 0-31 20z m76-8c7 6 14 8 22 2 7-4 15-8 20-13 22-19 20-19 12-46-8-27-12-56-18-83a111 111 0 0 1-1-12c-30 9-53 26-74 44a11 11 0 0 0-3 7c0 40 11 75 42 101z m19 273c0 4 3 10 6 11 33 12 67 23 103 36v-29q0-29 0-58c0-17 0-18-16-20-27-2-54-3-80-4-10-1-14 3-14 14 1 16 0 33 1 50z m126-47c0 30 0 60 0 90 0 3 4 10 7 11 34 10 68 20 102 30a73 73 0 0 0 13 1 74 74 0 0 0 2-9c0-40 0-79 0-119 0-6 0-11-8-11q-52-3-104-6c-10 0-13 4-12 13z m266 0c0-8-3-13-12-13-35 2-70 4-105 6-2 0-7 5-7 8 0 43 0 85 0 128 0 1 1 1 2 4 14-3 29-5 43-9 23-7 46-15 69-22 8-2 10-6 9-13 0-30 0-59 1-89z m126-7c0-7-4-10-10-10-31 2-62 3-93 5a10 10 0 0 0-7 8c0 31 0 62 1 93 0 0 0 1 2 4 34-12 67-23 101-35a11 11 0 0 0 5-9c1-19 0-37 1-56z m17 57c10-4 17-6 24-8 21-7 41-15 62-22 8-2 11-7 11-16-1-23 0-23-23-23-21 0-42 2-63 2-8 0-11 3-11 11 0 18 0 36 0 56z m119-83c21 5 42 9 63 14 15 3 18 1 17-18a119 119 0 0 0-38-79 19 19 0 0 0-15-4c-15 4-28 9-43 13-8 2-11 7-9 14 4 17 9 35 14 51 1 4 7 8 11 9z m-5 31c0 3 1 6 2 11l40-14c0-1 0-2-1-2-9-2-18-4-27-6-13-3-14-2-14 11z m-26-33c-4-24-8-46-12-68a10 10 0 0 0-3-5c-11-9-23-17-37-27 4 32 6 62 9 92 1 3 4 7 6 7 13 1 25 1 37 1z m-146-235c-2 5-2 12 1 15 11 11 24 22 37 32 6 5 13 3 19-2 33-26 44-62 44-102a10 10 0 0 0-3-7c-21-18-44-35-72-44-4 25-8 48-13 70-3 13-9 25-13 38z m99 32l-36 36c14 21 33 42 54 62 18 17 36 21 59 12 29-11 31-11 12-37a245 245 0 0 0-69-64 145 145 0 0 0-20-9z m26-7c41 26 76 57 94 103a20 20 0 0 0 6 8 139 139 0 0 1 46 77c1 1 2 3 5 4 2-12 4-24 4-36-1-26-7-51-25-72-42-47-83-95-124-143a142 142 0 0 0-11-10c-5 20-10 39-15 59a179 179 0 0 1 20 10z m-851 213c-4-23-7-45-10-69l-37 53z m1004-194a1837 1837 0 0 0-116-224c-46-76-113-120-199-138-55-11-110-17-166-14-33 2-66-1-99 1-68 3-133 18-195 48-32 15-54 39-75 66-43 55-76 116-105 179-26 56-50 114-74 171a28 28 0 0 0-3 13c9-13 19-26 29-39 49-64 100-127 160-183 53-49 115-73 186-81a624 624 0 0 1 141 2 210 210 0 0 0 45-1c59-6 118-6 176 6 56 11 104 37 146 75 66 62 122 133 177 206 3 5 7 10 11 15l2-1c-14-34-27-68-41-101z m21 125c-3 24-7 47-10 69l47-16z m-504-114c0-9-1-18-13-19-9 0-14 6-14 19 0 3-1 6 0 8 4 5 9 12 14 12s9-7 12-12c2-2 1-5 1-8z" horiz-adv-x="1193" />

<glyph glyph-name="school" unicode="&#xe834;" d="M638 800c-49 0-88-39-88-87s39-88 88-88 87 39 87 88-39 87-87 87z m-400-100c-49 0-88-39-88-87s39-88 88-88 87 39 87 88-39 87-87 87z m462-100c-19 0-49-7-75-25l-162-116c-45-31-4-86 37-59l106 70s70-150 44-220c-1-2-2-4-2-6l-109-291c-12-33 12-53 36-53 16 0 31 10 39 28l136 322s25-150 125-150c60 0 104 0 138 0 37 0 37 38 37 38s0 37-37 37c-25 0-88 0-113 0-53 0-50 80-50 125 0 75-50 200-50 200l150-100c45-30 85 23 41 56l-166 119c-30 22-40 25-75 25 0 0-25 0-50 0z m-525-100c-25 0-37-12-50-25l-106-106c-14-14-19-26-19-44 0-25 38-37 59-16l91 91c50 0 69-125 50-175l-75-200c-21-55 57-72 75-25l75 200s25-50 75-50l150 0c50 0 50 75 0 75l-125 0c-25 0-25 50-25 75 0 100-50 200-100 200z" horiz-adv-x="1050" />

<glyph glyph-name="chat" unicode="&#xf03d;" d="M0 480q0 107 68 199t186 145 255 53q104 0 198-32t162-84 108-127 41-154q0-65-26-126t-73-109-109-86-140-57-161-20q-103 0-194 30l-116-81q-65-42-91-25t-11 97l23 121q-57 53-88 119t-32 137z m650-468q118 23 215 82t158 145 75 186q89-35 142-102t54-147q0-49-22-96t-62-83l17-86q10-55-8-67t-64 17l-82 57q-63-21-136-21-87 0-163 31t-124 84z" horiz-adv-x="1294.4" />

<glyph glyph-name="angle-double-left" unicode="&#xf100;" d="M350 82q0-7-6-13l-28-28q-5-5-12-5t-13 5l-260 261q-6 5-6 12t6 13l260 260q5 6 13 6t12-6l28-28q6-5 6-13t-6-12l-219-220 219-219q6-6 6-13z m214 0q0-7-5-13l-28-28q-6-5-13-5t-13 5l-260 261q-6 5-6 12t6 13l260 260q6 6 13 6t13-6l28-28q5-5 5-13t-5-12l-220-220 220-219q5-6 5-13z" horiz-adv-x="571.4" />

<glyph glyph-name="angle-double-right" unicode="&#xf101;" d="M332 314q0-7-5-12l-261-261q-5-5-12-5t-13 5l-28 28q-6 6-6 13t6 13l219 219-219 220q-6 5-6 12t6 13l28 28q5 6 13 6t12-6l261-260q5-5 5-13z m214 0q0-7-5-12l-260-261q-6-5-13-5t-13 5l-28 28q-5 6-5 13t5 13l219 219-219 220q-5 5-5 12t5 13l28 28q6 6 13 6t13-6l260-260q5-5 5-13z" horiz-adv-x="571.4" />

<glyph glyph-name="angle-double-up" unicode="&#xf102;" d="M600 118q0-7-6-13l-28-28q-5-5-12-5t-13 5l-220 219-219-219q-5-5-13-5t-12 5l-28 28q-6 6-6 13t6 13l260 260q5 5 12 5t13-5l260-260q6-6 6-13z m0 214q0-7-6-13l-28-28q-5-5-12-5t-13 5l-220 220-219-220q-5-5-13-5t-12 5l-28 28q-6 6-6 13t6 13l260 260q5 6 12 6t13-6l260-260q6-6 6-13z" horiz-adv-x="642.9" />

<glyph glyph-name="angle-double-down" unicode="&#xf103;" d="M600 368q0-7-6-13l-260-260q-5-6-13-6t-12 6l-260 260q-6 6-6 13t6 13l28 28q5 5 12 5t13-5l219-220 220 220q5 5 13 5t12-5l28-28q6-6 6-13z m0 214q0-7-6-13l-260-260q-5-5-13-5t-12 5l-260 260q-6 6-6 13t6 13l28 28q5 6 12 6t13-6l219-219 220 219q5 6 13 6t12-6l28-28q6-6 6-13z" horiz-adv-x="642.9" />

<glyph glyph-name="thumbs-up-alt" unicode="&#xf164;" d="M143 100q0 15-11 25t-25 11q-15 0-25-11t-11-25q0-15 11-25t25-11q15 0 25 11t11 25z m89 286v-357q0-15-10-25t-26-11h-160q-15 0-25 11t-11 25v357q0 14 11 25t25 10h160q15 0 26-10t10-25z m661 0q0-48-31-83 9-25 9-43 1-42-24-76 9-31 0-66-9-31-31-52 5-62-27-101-36-43-110-44h-72q-37 0-80 9t-68 16-67 22q-69 24-88 25-15 0-25 11t-11 25v357q0 14 10 25t24 11q13 1 42 33t57 67q38 49 56 67 10 10 17 27t10 27 8 34q4 22 7 34t11 29 19 28q10 11 25 11 25 0 46-6t33-15 22-22 14-25 7-28 2-25 1-22q0-21-6-43t-10-33-16-31q-1-4-5-10t-6-13-5-13h155q43 0 75-32t32-75z" horiz-adv-x="928.6" />

<glyph glyph-name="pagelines" unicode="&#xf18c;" d="M782 235q-17-45-42-77t-51-50-55-26-57-8-54 5-48 12-39 15-25 13l-10 6q-63-128-161-201t-215-74q-10 0-18 7t-7 18 7 18 18 7q97 0 180 60t140 164q-20-8-40-13t-46-7-51 1-52 16-51 33-47 56-42 81q64 27 120 32t93-4 70-31 49-43 32-46q29 73 44 162-4 0-10-1t-26-2-39 1-46 5-49 13-47 24-42 36-30 53-16 71q39 16 74 20t63 0 52-17 41-28 31-34 23-35 16-31 9-22l2-9q6 68 6 109-4 3-12 8t-27 25-35 40-30 52-19 63 7 71 39 77q41-14 71-34t47-43 27-47 11-50 0-48-7-42-11-35-9-23l-4-9q0-2 0-28t0-40q2 4 5 10t17 24 29 33 39 31 51 25 63 8 74-14q-1-43-12-79t-28-58-39-40-45-25-48-14-44-5-38 1-26 2l-9 2q-13-82-41-158 3 4 10 10t28 23 43 29 55 24 66 11 72-13 76-43z" horiz-adv-x="785.7" />

<glyph glyph-name="paper-plane-empty" unicode="&#xf1d9;" d="M984 844q19-13 15-36l-142-857q-3-16-18-25-8-5-18-5-6 0-13 3l-294 120-166-182q-10-12-27-12-7 0-12 2-11 4-17 13t-6 21v252l-264 108q-20 8-22 30-2 22 18 33l928 536q20 12 38-1z m-190-837l123 739-800-462 187-76 482 356-267-444z" horiz-adv-x="1000" />

<glyph glyph-name="angellist" unicode="&#xf209;" d="M532 639l-64-183 66-12q92 252 92 289 0 32-22 32-31 0-72-126z m-167-383l18-49q21 23 40 37l-18 3t-22 4-18 5z m-163 500q0-55 89-291 9 6 27 6 9 0 42-3l-68 196q-41 122-68 122-11 0-16-9t-6-21z m-44-424q0-20 29-66t65-86 56-39q8 0 14 8t7 15q0 13-18 57-7 17-18 40t-26 49-35 46-34 17q-12 0-26-15t-14-26z m-88-187q0-23 14-58 33-81 102-127t157-45q127 0 213 95 85 94 85 238 0 24 0 37t-7 35-17 31q-31 28-118 42t-151 15q-20 0-27-6-7-3-7-20 0-19 12-33t31-22 43-14 49-6 48-2 39 0h13q13 0 22-11 8-10 11-30-16-16-54-31-34-12-52-25-36-26-60-64t-25-76q0-18 10-50t10-49l-1-6q-3-7-3-8-76 5-81 120-5-1-23-1 1-4 1-11 0-30-22-50t-53-21q-46 0-93 44t-47 89q0 19 18 37 29-36 34-42 43-58 74-58 7 0 15 4t8 12q0 19-49 81t-65 62q-24 0-39-25t-15-51z m-64-5q0 57 24 91t76 49q-16 42-16 58 0 35 34 69t69 34q16 0 39-8-91 257-91 316 0 45 23 73t66 28q73 0 181-324 4-10 5-13 3 9 16 44t24 66 30 72 36 68 40 49 42 20q40 0 63-28t23-68q0-60-89-307 34-8 56-25t33-44 14-52 4-62q0-83-26-156t-74-126-117-83-156-31q-62 0-124 23-83 32-144 107t-61 160z" horiz-adv-x="714.3" />

<glyph glyph-name="sign-language" unicode="&#xf2a7;" d="M464 474q18 0 33-10l124-82q34-22 61-54l81-95q23-26 17-59l-41-231q-3-18-16-30t-31-14l-294-31-196-18h-6q-21 0-37 16t-16 38q0 20 15 35t36 18l145 18h-250q-23 0-38 17t-15 39q1 22 18 37t38 14l247 1-291 35q-23 3-37 21t-10 41q3 19 19 32t36 12h6l268-33-195 52q-22 6-35 24t-10 38q3 20 18 32t35 13q3 0 11-1l250-54 121-20q1 0 2-1t2 0q12 0 17 13t-7 20l-104 70q-20 13-24 35t10 41q15 21 43 21z m-39-112l104-70-122 21-3 1-20 21-133 146q0 1-1 2t-2 2q-13 17-10 39t21 36q17 13 38 10t36-19l79-82q-1-1-3-2t-2-3q-18-25-13-55t31-47z m495 253l8-148q2-41-6-82l-27-123q-7-32-37-48l-59-30q1 34-22 61l-82 94q-29 34-65 58l-124 83q-19 12-42 12-29 0-49-20l-131 174q-14 18-11 41t23 35q19 13 40 8t35-22l149-197-147 254q-11 20-5 42t26 33q20 10 40 3t33-25l134-235-76 188q-8 20-2 42t24 31q21 11 43 3t31-28l108-232 56-109q5-9 13-10t15 4 6 15l-6 125q-2 23 14 39t39 18q21 0 37-16t17-38z" horiz-adv-x="928.6" />

<glyph glyph-name="facebook" unicode="&#xf30c;" d="M500 644l-142 0q-14 0-25-15t-11-37l0-102 178 0 0-148-178 0 0-442-170 0 0 442-152 0 0 148 152 0 0 86q0 94 59 159t147 65l142 0 0-156z" horiz-adv-x="500" />

<glyph glyph-name="instagram" unicode="&#xf32d;" d="M690 350q0 26-6 50l176 0 0-344q0-56-39-96t-95-40l-592 0q-56 0-95 40t-39 96l0 344 174 0q-4-32-4-50 0-106 76-183t184-77q106 0 183 77t77 183z m36 430q56 0 95-39t39-95l0-146-218 0q-78 110-212 110-138 0-212-110l-218 0 0 146q0 56 39 95t95 39l592 0z m64-166l0 72q0 24-24 24l-72 0q-24 0-24-24l0-72q0-8 7-16t17-8l72 0q24 0 24 24z m-200-264q0-66-47-113t-113-47-113 47-47 113q0 68 47 114t113 46 113-46 47-114z" horiz-adv-x="860" />
</font>
</defs>
</svg>
