<svg width="322" height="20" viewBox="0 0 322 20" fill="none" xmlns="http://www.w3.org/2000/svg">
<path d="M174 18.84C175.05 18.73 175.73 18.54 176.05 18.27C176.37 18.01 176.53 17.33 176.53 16.25V3.45997C176.53 2.40997 176.38 1.73997 176.07 1.43997C175.76 1.13997 175.07 0.949966 174 0.879966V0.339966H181.76C184.37 0.339966 186.58 0.769966 188.39 1.62997C191.65 3.17997 193.28 5.93997 193.28 9.91997C193.28 11.35 192.99 12.72 192.4 14.01C191.82 15.3 190.93 16.39 189.75 17.28C189 17.84 188.22 18.27 187.42 18.56C185.95 19.1 184.14 19.37 182 19.37H174V18.84ZM179.8 18.08C180.03 18.23 180.5 18.3 181.23 18.3C183.48 18.3 185.33 17.85 186.78 16.96C189.01 15.59 190.12 13.25 190.12 9.93997C190.12 6.98997 189.2 4.76997 187.37 3.26997C185.79 2.01997 183.7 1.37997 181.11 1.37997C180.46 1.37997 180.02 1.44997 179.8 1.58997C179.57 1.72997 179.45 2.03997 179.45 2.51997V17.16C179.45 17.62 179.57 17.93 179.8 18.08Z" fill="#EFB79B"/>
<path d="M201.84 18.84C202.9 18.73 203.58 18.54 203.9 18.27C204.21 18.01 204.37 17.33 204.37 16.25V3.45997C204.37 2.43997 204.21 1.76997 203.91 1.45997C203.6 1.14997 202.91 0.949966 201.85 0.879966V0.339966H217.14L217.24 4.45997H216.51C216.27 3.18997 215.9 2.36997 215.41 1.99997C214.92 1.62997 213.84 1.43997 212.15 1.43997H208.23C207.81 1.43997 207.55 1.50997 207.45 1.63997C207.35 1.77997 207.3 2.02997 207.3 2.40997V8.82997H211.74C212.97 8.82997 213.75 8.64997 214.09 8.28997C214.43 7.92997 214.7 7.18997 214.91 6.07997H215.58V12.73H214.91C214.69 11.62 214.42 10.88 214.08 10.52C213.74 10.16 212.97 9.97997 211.75 9.97997H207.31V17.1C207.31 17.67 207.49 18.01 207.85 18.11C208.21 18.21 209.29 18.27 211.09 18.27C213.04 18.27 214.48 18.06 215.41 17.63C216.34 17.2 217.17 16.17 217.91 14.53H218.71L217.4 19.39H201.84V18.84Z" fill="#EFB79B"/>
<path d="M226.6 18.84C227.79 18.72 228.55 18.45 228.89 18.03C229.23 17.61 229.4 16.65 229.4 15.13V2.45997L229.01 1.99997C228.59 1.49997 228.23 1.19997 227.94 1.07997C227.64 0.959966 227.2 0.899966 226.61 0.879966V0.339966H231.52L242.62 14.1V4.53997C242.62 2.96997 242.38 1.93997 241.92 1.46997C241.61 1.15997 240.93 0.959966 239.87 0.869966V0.339966H246.63V0.879966C245.53 0.989966 244.8 1.25997 244.44 1.67997C244.07 2.09997 243.89 3.06997 243.89 4.56997V19.72H243.4L230.66 3.92997V15.13C230.66 16.7 230.89 17.73 231.35 18.2C231.65 18.51 232.32 18.72 233.36 18.83V19.36H226.6V18.84Z" fill="#EFB79B"/>
<path d="M254.82 0.339966H271.09L271.24 5.22997H270.55C270.21 3.69997 269.78 2.68997 269.26 2.22997C268.74 1.76997 267.65 1.52997 265.98 1.52997H264.38V16.25C264.38 17.36 264.55 18.05 264.9 18.31C265.25 18.58 266.01 18.75 267.18 18.83V19.36H258.79V18.83C260.01 18.74 260.77 18.54 261.06 18.23C261.36 17.92 261.51 17.15 261.51 15.91V1.52997H259.9C258.31 1.52997 257.22 1.75997 256.65 2.21997C256.07 2.67997 255.64 3.67997 255.35 5.22997H254.65L254.82 0.339966Z" fill="#EFB79B"/>
<path d="M277.16 19.38V18.85C277.9 18.77 278.46 18.49 278.82 18.02C279.19 17.55 279.82 16.25 280.72 14.13L286.72 0H287.29L294.46 16.31C294.94 17.39 295.32 18.06 295.61 18.32C295.9 18.58 296.38 18.75 297.05 18.84V19.37H289.73V18.84C290.57 18.77 291.11 18.67 291.36 18.57C291.6 18.46 291.73 18.2 291.73 17.78C291.73 17.64 291.68 17.39 291.59 17.04C291.5 16.69 291.37 16.31 291.2 15.92L290.05 13.15H282.47C281.72 15.03 281.28 16.18 281.13 16.6C280.99 17.01 280.91 17.34 280.91 17.59C280.91 18.07 281.11 18.41 281.5 18.6C281.74 18.71 282.2 18.8 282.87 18.85V19.38H277.16V19.38ZM289.55 11.99L286.25 4.07L282.94 11.99H289.55Z" fill="#EFB79B"/>
<path d="M305.03 18.84C306.09 18.73 306.77 18.54 307.09 18.27C307.4 18.01 307.56 17.33 307.56 16.25V3.45997C307.56 2.43997 307.4 1.76997 307.1 1.45997C306.79 1.14997 306.1 0.949966 305.04 0.879966V0.339966H313.16V0.879966C312.1 0.939966 311.39 1.10997 311.03 1.39997C310.67 1.68997 310.49 2.30997 310.49 3.26997V17.1C310.49 17.42 310.54 17.67 310.65 17.85C310.76 18.03 311 18.15 311.36 18.2C311.58 18.23 311.8 18.25 312.04 18.26C312.28 18.27 312.73 18.27 313.38 18.27C315.94 18.27 317.67 18.06 318.57 17.64C319.47 17.22 320.34 16.14 321.19 14.41H321.92L320.51 19.4H305.03V18.84V18.84Z" fill="#EFB79B"/>
<path d="M18.1669 10.6769C17.2675 10.1117 16.1556 9.67808 14.8393 9.39161C15.289 9.27547 15.7059 9.15159 16.0984 9.00448C16.7279 8.77221 17.2839 8.47025 17.7663 8.10636C18.9191 7.27791 19.4996 6.2172 19.4996 4.93969C19.4996 3.27506 18.4858 1.96659 16.4827 1.05297C15.6896 0.704564 14.8311 0.433578 13.9318 0.263244C13.0242 0.0851671 12.035 0 10.9803 0H0V0.828443H2.73893V18.1561C2.16662 18.1561 0.474203 18.1483 0.17987 18.1561L0 18.1638V18.9613H11.667C13.7355 18.9613 15.5833 18.6051 17.1694 17.9083C19.1725 17.0102 20.1863 15.7017 20.1863 14.0216C20.1863 12.6512 19.5077 11.5285 18.1669 10.6769ZM15.0927 16.9328C14.6104 17.3431 14.0871 17.6528 13.5311 17.8541C12.9752 18.0554 12.3456 18.1638 11.667 18.1638H7.73442C6.47533 18.1638 5.83761 17.676 5.83761 16.7082V2.39242C5.83761 1.68011 6.16464 0.828443 7.73442 0.828443H10.9884C11.6589 0.828443 12.2884 0.929095 12.8525 1.1304C13.4085 1.3317 13.9318 1.6414 14.4223 2.07498C15.3789 2.85697 15.8695 3.82478 15.8695 4.93969C15.8695 6.07009 15.3789 7.05338 14.4223 7.87408C13.4903 8.67156 12.3375 9.07417 10.9966 9.07417H9.90104V9.90261H11.6834C13.0079 9.90261 14.1607 10.313 15.1091 11.1337C16.0657 11.9156 16.5562 12.8912 16.5562 14.0293C16.5399 15.1365 16.0493 16.1121 15.0927 16.9328Z" fill="#EFB79B"/>
<path d="M56.9861 0.828443H59.725V18.1561H56.9861V18.9613H65.5626V18.1561H62.8237V0.828443H65.5626V0H56.9861V0.828443Z" fill="#EFB79B"/>
<path d="M115.281 0.828443H117.995V8.60962C117.946 8.75672 117.782 8.86512 117.602 8.8806H107.873C107.644 8.86512 107.464 8.71801 107.456 8.51671V0.828443H110.195V0H101.619V0.828443H104.357V18.1561H101.619V18.9613H110.195V18.1561H107.456V10.2588C107.464 10.0575 107.661 9.90261 107.906 9.90261H117.562C117.766 9.90261 117.946 10.0187 117.995 10.1736V18.1561H115.281V18.9613H123.833V18.1561H121.118V0.828443H123.833V0H115.281V0.828443Z" fill="#EFB79B"/>
<path d="M150.282 0H131.943L131.346 2.96536H132.287C132.287 2.70212 132.458 2.16015 132.581 1.88142C132.777 1.3859 133.439 0.828443 134.077 0.828443H139.571V18.1561H136.857V18.9613H145.393V18.1561H142.678V0.828443H148.172C148.802 0.828443 149.464 1.3859 149.669 1.88916C149.791 2.16015 149.963 2.70212 149.963 2.96536H150.903L150.282 0Z" fill="#EFB79B"/>
<path d="M90.6956 9.32182C89.2975 9.32957 87.9076 9.33731 86.5259 9.33731H86.3379V10.1812H89.1831V16.2591C89.1831 16.8475 88.7661 17.374 88.1366 17.5675C85.553 18.3805 83.1411 18.2179 81.1543 17.1107C79.094 15.9571 77.5406 13.9054 77.001 11.6058C76.5186 9.54635 76.7639 7.30104 77.7123 5.11767C78.767 2.68654 81.416 1.02191 84.3102 0.983194C86.5096 0.952224 88.6598 1.83486 90.0334 3.36013C90.1478 3.48401 90.2623 3.63112 90.3768 3.77822L90.7283 4.24277C90.8428 4.38988 90.9409 4.54473 91.039 4.70732L91.3088 5.17186C91.3906 5.31123 91.4641 5.45059 91.5296 5.58996C91.5541 5.6519 91.5868 5.70609 91.6031 5.75255C91.6358 5.81449 91.6604 5.86869 91.6849 5.92288L91.734 6.03128H92.5025V0.177979H91.6113L91.6031 0.34057C91.5786 0.688981 91.5132 0.990937 91.4396 1.12256C91.3579 1.25418 91.2597 1.32386 91.1208 1.34709C91.0308 1.36257 90.9327 1.36257 90.8264 1.35483C90.7201 1.34709 90.6139 1.3316 90.5157 1.30064C90.3931 1.26967 90.2705 1.23095 90.1478 1.19224C90.0252 1.16127 89.9271 1.1303 89.829 1.09159C89.0768 0.867057 88.3001 0.696723 87.6296 0.549617C82.1109 -0.642722 76.8538 1.13804 74.2293 5.09444C72.8313 7.20039 72.5615 9.97993 73.5017 12.5349L73.5262 12.6046C74.5237 15.2371 76.6821 17.1494 79.7644 18.1327C81.3424 18.636 83.1329 18.8915 84.997 18.8915C86.1498 18.8915 87.3271 18.7909 88.5045 18.5973C88.8724 18.5353 89.2158 18.4579 89.5183 18.3728C89.7963 18.2876 90.0497 18.2102 90.295 18.1405C90.5484 18.0708 90.7855 17.9934 91.0063 17.9082C91.2516 17.8153 91.4969 17.7301 91.7503 17.6372C91.9956 17.5521 92.2409 17.4669 92.5025 17.3817L92.6251 17.343V13.797C92.6251 13.7815 92.6578 12.0162 92.6578 11.211C92.6578 10.4213 93.2628 10.1425 93.7779 10.1425H95.0534V9.2986H94.8653C93.4836 9.30634 92.0937 9.31408 90.6956 9.32182Z" fill="#EFB79B"/>
<path d="M48.3362 18.0864C47.862 17.9238 47.167 17.0179 47.167 15.9727V14.0293C47.167 11.7143 45.6872 10.2046 42.752 9.51548C43.2344 9.40709 43.6841 9.28321 44.101 9.1361C44.7715 8.90383 45.3765 8.60187 45.8916 8.25346C47.1834 7.39405 47.8456 6.27914 47.8456 4.93969C47.8456 3.27506 46.8318 1.96659 44.8287 1.05297C44.0356 0.704564 43.1772 0.433578 42.2778 0.263244C41.3785 0.0851671 40.3892 0 39.3345 0H28.3542V0.828443H31.0932V18.1561H29.5643C29.5643 18.1561 28.8857 18.1483 28.5259 18.1561L28.3461 18.1638V18.9613H36.9226V18.1561H36.7427C36.7427 18.1561 36.3503 18.1483 35.5899 18.1561H35.5817C35.222 18.1561 34.8786 18.0244 34.617 17.7767C34.339 17.5134 34.1837 17.1573 34.1837 16.7934V2.73309C34.1837 1.43236 34.8541 0.828443 36.2931 0.828443H39.3263C40.0049 0.828443 40.6263 0.929095 41.1904 1.1304C41.7464 1.3317 42.2696 1.6414 42.7602 2.07498C43.7168 2.85697 44.2073 3.82478 44.2073 4.93969C44.2073 6.07009 43.7168 7.05338 42.7602 7.87408C41.8281 8.67156 40.6753 9.07416 39.3345 9.07416H36.5629V9.90261H38.6477C39.9722 9.90261 41.125 10.313 42.0734 11.1337C43.03 11.9156 43.5206 12.8912 43.5206 14.0293C43.5206 15.4617 43.6514 16.9482 45.1639 18.0399C46.1532 18.7522 47.6167 19 48.5733 19H50.7399V18.1793C50.7399 18.1716 48.745 18.2258 48.3362 18.0864Z" fill="#EFB79B"/>
</svg>
