<svg width="20" height="322" viewBox="0 0 20 322" fill="none" xmlns="http://www.w3.org/2000/svg">
<path d="M0.980042 174C1.09004 175.05 1.28004 175.73 1.55004 176.05C1.81004 176.37 2.49004 176.53 3.57004 176.53L16.36 176.53C17.41 176.53 18.08 176.38 18.38 176.07C18.68 175.76 18.87 175.07 18.94 174L19.48 174L19.48 181.76C19.48 184.37 19.05 186.58 18.19 188.39C16.64 191.65 13.88 193.28 9.90004 193.28C8.47004 193.28 7.10004 192.99 5.81004 192.4C4.52004 191.82 3.43004 190.93 2.54004 189.75C1.98004 189 1.55004 188.22 1.26004 187.42C0.720041 185.95 0.45004 184.14 0.45004 182L0.450041 174L0.980042 174ZM1.74004 179.8C1.59004 180.03 1.52004 180.5 1.52004 181.23C1.52004 183.48 1.97004 185.33 2.86004 186.78C4.23004 189.01 6.57004 190.12 9.88004 190.12C12.83 190.12 15.05 189.2 16.55 187.37C17.8 185.79 18.44 183.7 18.44 181.11C18.44 180.46 18.37 180.02 18.23 179.8C18.09 179.57 17.78 179.45 17.3 179.45L2.66004 179.45C2.20004 179.45 1.89004 179.57 1.74004 179.8Z" fill="#EFB79B"/>
<path d="M0.980042 201.84C1.09004 202.9 1.28004 203.58 1.55004 203.9C1.81004 204.21 2.49004 204.37 3.57004 204.37L16.36 204.37C17.38 204.37 18.05 204.21 18.36 203.91C18.67 203.6 18.87 202.91 18.94 201.85L19.48 201.85L19.48 217.14L15.36 217.24L15.36 216.51C16.63 216.27 17.45 215.9 17.82 215.41C18.19 214.92 18.38 213.84 18.38 212.15L18.38 208.23C18.38 207.81 18.31 207.55 18.18 207.45C18.04 207.35 17.79 207.3 17.41 207.3L10.99 207.3L10.99 211.74C10.99 212.97 11.17 213.75 11.53 214.09C11.89 214.43 12.63 214.7 13.74 214.91L13.74 215.58L7.09004 215.58L7.09004 214.91C8.20004 214.69 8.94004 214.42 9.30004 214.08C9.66004 213.74 9.84004 212.97 9.84004 211.75L9.84004 207.31L2.72004 207.31C2.15004 207.31 1.81004 207.49 1.71004 207.85C1.61004 208.21 1.55004 209.29 1.55004 211.09C1.55004 213.04 1.76004 214.48 2.19004 215.41C2.62004 216.34 3.65004 217.17 5.29004 217.91L5.29004 218.71L0.430042 217.4L0.430042 201.84L0.980042 201.84Z" fill="#EFB79B"/>
<path d="M0.980042 226.6C1.10004 227.79 1.37004 228.55 1.79004 228.89C2.21004 229.23 3.17004 229.4 4.69004 229.4L17.36 229.4L17.82 229.01C18.32 228.59 18.62 228.23 18.74 227.94C18.86 227.64 18.92 227.2 18.94 226.61L19.48 226.61L19.48 231.52L5.72004 242.62L15.28 242.62C16.85 242.62 17.88 242.38 18.35 241.92C18.66 241.61 18.86 240.93 18.95 239.87L19.48 239.87L19.48 246.63L18.94 246.63C18.83 245.53 18.56 244.8 18.14 244.44C17.72 244.07 16.75 243.89 15.25 243.89L0.100042 243.89L0.100042 243.4L15.89 230.66L4.69004 230.66C3.12004 230.66 2.09004 230.89 1.62004 231.35C1.31004 231.65 1.10004 232.32 0.990041 233.36L0.460041 233.36L0.460041 226.6L0.980042 226.6Z" fill="#EFB79B"/>
<path d="M19.48 254.82L19.48 271.09L14.59 271.24L14.59 270.55C16.12 270.21 17.13 269.78 17.59 269.26C18.05 268.74 18.29 267.65 18.29 265.98L18.29 264.38L3.57004 264.38C2.46004 264.38 1.77004 264.55 1.51004 264.9C1.24004 265.25 1.07004 266.01 0.990041 267.18L0.46004 267.18L0.460041 258.79L0.990042 258.79C1.08004 260.01 1.28004 260.77 1.59004 261.06C1.90004 261.36 2.67004 261.51 3.91004 261.51L18.29 261.51L18.29 259.9C18.29 258.31 18.06 257.22 17.6 256.65C17.14 256.07 16.14 255.64 14.59 255.35L14.59 254.65L19.48 254.82Z" fill="#EFB79B"/>
<path d="M0.440008 277.16L0.970007 277.16C1.05001 277.9 1.33001 278.46 1.80001 278.82C2.27001 279.19 3.57001 279.82 5.69001 280.72L19.82 286.72L19.82 287.29L3.51001 294.46C2.43001 294.94 1.76001 295.32 1.50001 295.61C1.24001 295.9 1.07001 296.38 0.980006 297.05L0.450006 297.05L0.450006 289.73L0.980007 289.73C1.05001 290.57 1.15001 291.11 1.25001 291.36C1.36001 291.6 1.62001 291.73 2.04001 291.73C2.18001 291.73 2.43001 291.68 2.78001 291.59C3.13001 291.5 3.51001 291.37 3.90001 291.2L6.67001 290.05L6.67001 282.47C4.79001 281.72 3.64001 281.28 3.22001 281.13C2.81001 280.99 2.48001 280.91 2.23001 280.91C1.75001 280.91 1.41001 281.11 1.22001 281.5C1.11001 281.74 1.02001 282.2 0.970007 282.87L0.440008 282.87L0.440008 277.16ZM7.83001 289.55L15.75 286.25L7.83001 282.94L7.83001 289.55Z" fill="#EFB79B"/>
<path d="M0.980042 305.03C1.09004 306.09 1.28004 306.77 1.55004 307.09C1.81004 307.4 2.49004 307.56 3.57004 307.56L16.36 307.56C17.38 307.56 18.05 307.4 18.36 307.1C18.67 306.79 18.87 306.1 18.94 305.04L19.48 305.04L19.48 313.16L18.94 313.16C18.88 312.1 18.71 311.39 18.42 311.03C18.13 310.67 17.51 310.49 16.55 310.49L2.72004 310.49C2.40004 310.49 2.15004 310.54 1.97004 310.65C1.79004 310.76 1.67004 311 1.62004 311.36C1.59004 311.58 1.57004 311.8 1.56004 312.04C1.55004 312.28 1.55004 312.73 1.55004 313.38C1.55004 315.94 1.76004 317.67 2.18004 318.57C2.60004 319.47 3.68004 320.34 5.41004 321.19L5.41004 321.92L0.420041 320.51L0.420042 305.03L0.980042 305.03Z" fill="#EFB79B"/>
<path d="M9.14315 18.1669C9.70835 17.2675 10.1419 16.1556 10.4284 14.8393C10.5445 15.289 10.6684 15.7059 10.8155 16.0984C11.0478 16.7279 11.3498 17.2839 11.7136 17.7663C12.5421 18.9191 13.6028 19.4996 14.8803 19.4996C16.5449 19.4996 17.8534 18.4858 18.767 16.4827C19.1154 15.6896 19.3864 14.8311 19.5568 13.9318C19.7348 13.0242 19.82 12.035 19.82 10.9803L19.82 0L18.9916 -3.62124e-08L18.9916 2.73893L1.66393 2.73893C1.66393 2.16662 1.67168 0.474203 1.66393 0.179869L1.65619 -7.93966e-07L0.858719 -8.28824e-07L0.858718 11.667C0.858718 13.7355 1.21487 15.5833 1.91169 17.1694C2.80982 19.1725 4.11829 20.1863 5.79841 20.1863C7.16882 20.1863 8.29148 19.5077 9.14315 18.1669ZM2.88724 15.0927C2.47689 14.6104 2.1672 14.0871 1.96589 13.5311C1.76459 12.9752 1.65619 12.3456 1.65619 11.667L1.65619 7.73442C1.65619 6.47533 2.14397 5.83761 3.11177 5.83761L17.4276 5.83761C18.1399 5.83761 18.9916 6.16464 18.9916 7.73442L18.9916 10.9884C18.9916 11.6589 18.8909 12.2884 18.6896 12.8525C18.4883 13.4085 18.1786 13.9318 17.745 14.4223C16.963 15.3789 15.9952 15.8695 14.8803 15.8695C13.7499 15.8695 12.7666 15.3789 11.9459 14.4223C11.1484 13.4903 10.7458 12.3375 10.7458 10.9966L10.7458 9.90104L9.9174 9.90104L9.9174 11.6834C9.9174 13.0079 9.50705 14.1607 8.68635 15.1091C7.90436 16.0657 6.92881 16.5562 5.79067 16.5562C4.68349 16.5399 3.70794 16.0493 2.88724 15.0927Z" fill="#EFB79B"/>
<path d="M18.9916 56.9861L18.9916 59.725L1.66393 59.725L1.66393 56.9861L0.858719 56.9861L0.858718 65.5626L1.66393 65.5626L1.66393 62.8237L18.9916 62.8237L18.9916 65.5626L19.82 65.5626L19.82 56.9861L18.9916 56.9861Z" fill="#EFB79B"/>
<path d="M18.9916 115.281L18.9916 117.995L11.2104 117.995C11.0633 117.946 10.9549 117.782 10.9394 117.602L10.9394 107.873C10.9549 107.644 11.102 107.464 11.3033 107.456L18.9916 107.456L18.9916 110.195L19.82 110.195L19.82 101.619L18.9916 101.619L18.9916 104.357L1.66393 104.357L1.66393 101.619L0.858719 101.619L0.858718 110.195L1.66393 110.195L1.66393 107.456L9.56125 107.456C9.76255 107.464 9.9174 107.661 9.9174 107.906L9.9174 117.562C9.9174 117.766 9.80126 117.946 9.64641 117.995L1.66393 117.995L1.66393 115.281L0.858718 115.281L0.858718 123.833L1.66393 123.833L1.66393 121.118L18.9916 121.118L18.9916 123.833L19.82 123.833L19.82 115.281L18.9916 115.281Z" fill="#EFB79B"/>
<path d="M19.82 150.282L19.82 131.943L16.8546 131.346L16.8546 132.287C17.1179 132.287 17.6599 132.458 17.9386 132.581C18.4341 132.777 18.9916 133.439 18.9916 134.077L18.9916 139.571L1.66393 139.571L1.66393 136.857L0.858719 136.857L0.858718 145.393L1.66393 145.393L1.66393 142.678L18.9916 142.678L18.9916 148.172C18.9916 148.802 18.4341 149.464 17.9308 149.669C17.6599 149.791 17.1179 149.963 16.8546 149.963L16.8546 150.903L19.82 150.282Z" fill="#EFB79B"/>
<path d="M10.4981 90.6956C10.4904 89.2975 10.4826 87.9076 10.4826 86.5259L10.4826 86.3379L9.63871 86.3379L9.63871 89.1831L3.56088 89.1831C2.97245 89.1831 2.44596 88.7661 2.2524 88.1366C1.43944 85.553 1.60204 83.1411 2.70921 81.1543C3.86283 79.094 5.91459 77.5406 8.2141 77.001C10.2736 76.5186 12.5189 76.7639 14.7023 77.7123C17.1334 78.767 18.798 81.416 18.8368 84.3102C18.8677 86.5096 17.9851 88.6598 16.4598 90.0334C16.3359 90.1478 16.1888 90.2623 16.0417 90.3768L15.5772 90.7283C15.4301 90.8428 15.2752 90.9409 15.1126 91.039L14.6481 91.3088C14.5087 91.3906 14.3694 91.4641 14.23 91.5296C14.168 91.5541 14.1139 91.5868 14.0674 91.6031C14.0055 91.6358 13.9513 91.6604 13.8971 91.6849L13.7887 91.734L13.7887 92.5025L19.642 92.5025L19.642 91.6113L19.4794 91.6031C19.131 91.5786 18.829 91.5132 18.6974 91.4396C18.5658 91.3579 18.4961 91.2598 18.4729 91.1208C18.4574 91.0308 18.4574 90.9327 18.4651 90.8264C18.4729 90.7201 18.4883 90.6139 18.5193 90.5157C18.5503 90.3931 18.589 90.2705 18.6277 90.1478C18.6587 90.0252 18.6896 89.9271 18.7284 89.829C18.9529 89.0768 19.1232 88.3001 19.2703 87.6296C20.4627 82.1109 18.6819 76.8538 14.7255 74.2293C12.6196 72.8313 9.84001 72.5615 7.285 73.5017L7.21532 73.5262C4.58288 74.5237 2.6705 76.6821 1.6872 79.7644C1.18394 81.3424 0.928443 83.1329 0.928443 84.997C0.928443 86.1498 1.02909 87.3271 1.22266 88.5045C1.28459 88.8724 1.36202 89.2158 1.44719 89.5183C1.53236 89.7963 1.60978 90.0497 1.67946 90.295C1.74914 90.5484 1.82657 90.7855 1.91174 91.0063C2.00465 91.2516 2.08981 91.4969 2.18272 91.7503C2.26789 91.9956 2.35306 92.2409 2.43822 92.5025L2.47694 92.6251L6.02298 92.6251C6.03847 92.6251 7.80375 92.6578 8.60896 92.6578C9.39869 92.6578 9.67742 93.2628 9.67742 93.7779L9.67742 95.0534L10.5213 95.0534L10.5213 94.8653C10.5136 93.4836 10.5059 92.0937 10.4981 90.6956Z" fill="#EFB79B"/>
<path d="M1.73362 48.3362C1.89621 47.862 2.80208 47.167 3.84731 47.167L5.79067 47.167C8.10566 47.167 9.61544 45.6872 10.3045 42.752C10.4129 43.2344 10.5368 43.6841 10.6839 44.101C10.9162 44.7715 11.2181 45.3765 11.5665 45.8916C12.426 47.1834 13.5409 47.8456 14.8803 47.8456C16.5449 47.8456 17.8534 46.8318 18.767 44.8287C19.1154 44.0356 19.3864 43.1772 19.5568 42.2778C19.7348 41.3785 19.82 40.3892 19.82 39.3345L19.82 28.3542L18.9916 28.3542L18.9916 31.0932L1.66394 31.0932L1.66394 29.5643C1.66394 29.5643 1.67168 28.8857 1.66394 28.5259L1.65619 28.3461L0.858721 28.3461L0.85872 36.9226L1.66394 36.9226L1.66394 36.7427C1.66394 36.7427 1.67168 36.3503 1.66394 35.5899L1.66394 35.5817C1.66394 35.222 1.79556 34.8786 2.04332 34.617C2.30656 34.339 2.66271 34.1837 3.02661 34.1837L17.0869 34.1837C18.3877 34.1837 18.9916 34.8541 18.9916 36.2931L18.9916 39.3263C18.9916 40.0049 18.8909 40.6263 18.6896 41.1904C18.4883 41.7464 18.1786 42.2696 17.745 42.7602C16.963 43.7168 15.9952 44.2073 14.8803 44.2073C13.7499 44.2073 12.7666 43.7168 11.9459 42.7602C11.1485 41.8281 10.7458 40.6753 10.7458 39.3345L10.7458 36.5629L9.9174 36.5629L9.9174 38.6477C9.9174 39.9722 9.50705 41.125 8.68635 42.0734C7.90436 43.03 6.92881 43.5206 5.79067 43.5206C4.35831 43.5206 2.87176 43.6514 1.78007 45.1639C1.06777 46.1532 0.820006 47.6167 0.820006 48.5733L0.820006 50.7399L1.64071 50.7399C1.64845 50.7399 1.59425 48.745 1.73362 48.3362Z" fill="#EFB79B"/>
</svg>
