<svg width="151" height="19" viewBox="0 0 151 19" fill="none" xmlns="http://www.w3.org/2000/svg">
<path d="M18.1669 10.6769C17.2675 10.1117 16.1556 9.67808 14.8393 9.39161C15.289 9.27547 15.7059 9.15159 16.0984 9.00448C16.7279 8.77221 17.2839 8.47025 17.7663 8.10636C18.9191 7.27791 19.4996 6.2172 19.4996 4.93969C19.4996 3.27506 18.4858 1.96659 16.4827 1.05297C15.6896 0.704564 14.8311 0.433578 13.9318 0.263244C13.0242 0.0851671 12.035 0 10.9803 0H0V0.828443H2.73893V18.1561C2.16662 18.1561 0.474203 18.1483 0.17987 18.1561L0 18.1638V18.9613H11.667C13.7355 18.9613 15.5833 18.6051 17.1694 17.9083C19.1725 17.0102 20.1863 15.7017 20.1863 14.0216C20.1863 12.6512 19.5077 11.5285 18.1669 10.6769ZM15.0927 16.9328C14.6104 17.3431 14.0871 17.6528 13.5311 17.8541C12.9752 18.0554 12.3456 18.1638 11.667 18.1638H7.73442C6.47533 18.1638 5.83761 17.676 5.83761 16.7082V2.39242C5.83761 1.68011 6.16464 0.828443 7.73442 0.828443H10.9884C11.6589 0.828443 12.2884 0.929095 12.8525 1.1304C13.4085 1.3317 13.9318 1.6414 14.4223 2.07498C15.3789 2.85697 15.8695 3.82478 15.8695 4.93969C15.8695 6.07009 15.3789 7.05338 14.4223 7.87408C13.4903 8.67156 12.3375 9.07417 10.9966 9.07417H9.90104V9.90261H11.6834C13.0079 9.90261 14.1607 10.313 15.1091 11.1337C16.0657 11.9156 16.5562 12.8912 16.5562 14.0293C16.5399 15.1365 16.0493 16.1121 15.0927 16.9328Z" fill="#EFB79B"/>
<path d="M56.9861 0.828443H59.725V18.1561H56.9861V18.9613H65.5626V18.1561H62.8237V0.828443H65.5626V0H56.9861V0.828443Z" fill="#EFB79B"/>
<path d="M115.281 0.828443H117.995V8.60962C117.946 8.75672 117.782 8.86512 117.602 8.8806H107.873C107.644 8.86512 107.464 8.71801 107.456 8.51671V0.828443H110.195V0H101.619V0.828443H104.357V18.1561H101.619V18.9613H110.195V18.1561H107.456V10.2588C107.464 10.0575 107.661 9.90261 107.906 9.90261H117.562C117.766 9.90261 117.946 10.0187 117.995 10.1736V18.1561H115.281V18.9613H123.833V18.1561H121.118V0.828443H123.833V0H115.281V0.828443Z" fill="#EFB79B"/>
<path d="M150.282 0H131.943L131.346 2.96536H132.287C132.287 2.70212 132.458 2.16015 132.581 1.88142C132.777 1.3859 133.439 0.828443 134.077 0.828443H139.571V18.1561H136.857V18.9613H145.393V18.1561H142.678V0.828443H148.172C148.802 0.828443 149.464 1.3859 149.669 1.88916C149.791 2.16015 149.963 2.70212 149.963 2.96536H150.903L150.282 0Z" fill="#EFB79B"/>
<path d="M90.6956 9.32182C89.2976 9.32957 87.9077 9.33731 86.5259 9.33731H86.3379V10.1812H89.1831V16.2591C89.1831 16.8475 88.7661 17.374 88.1366 17.5675C85.553 18.3805 83.1411 18.2179 81.1544 17.1107C79.094 15.9571 77.5406 13.9054 77.001 11.6058C76.5186 9.54635 76.7639 7.30104 77.7123 5.11767C78.767 2.68654 81.416 1.02191 84.3103 0.983194C86.5096 0.952224 88.6598 1.83486 90.0334 3.36013C90.1479 3.48401 90.2623 3.63112 90.3768 3.77822L90.7283 4.24277C90.8428 4.38988 90.9409 4.54473 91.039 4.70732L91.3088 5.17186C91.3906 5.31123 91.4642 5.45059 91.5296 5.58996C91.5541 5.6519 91.5868 5.70609 91.6032 5.75255C91.6359 5.81449 91.6604 5.86869 91.6849 5.92288L91.734 6.03128H92.5025V0.177979H91.6113L91.6032 0.34057C91.5786 0.688981 91.5132 0.990937 91.4396 1.12256C91.3579 1.25418 91.2598 1.32386 91.1208 1.34709C91.0309 1.36257 90.9327 1.36257 90.8265 1.35483C90.7202 1.34709 90.6139 1.3316 90.5158 1.30064C90.3931 1.26967 90.2705 1.23095 90.1479 1.19224C90.0252 1.16127 89.9271 1.1303 89.829 1.09159C89.0768 0.867057 88.3001 0.696723 87.6297 0.549617C82.1109 -0.642722 76.8538 1.13804 74.2294 5.09444C72.8313 7.20039 72.5615 9.97993 73.5017 12.5349L73.5262 12.6046C74.5237 15.2371 76.6821 17.1495 79.7645 18.1327C81.3424 18.636 83.1329 18.8915 84.997 18.8915C86.1498 18.8915 87.3272 18.7909 88.5045 18.5973C88.8724 18.5354 89.2158 18.4579 89.5183 18.3728C89.7963 18.2876 90.0497 18.2102 90.295 18.1405C90.5485 18.0708 90.7856 17.9934 91.0063 17.9082C91.2516 17.8153 91.4969 17.7301 91.7503 17.6372C91.9956 17.5521 92.2409 17.4669 92.5025 17.3817L92.6252 17.343V13.797C92.6252 13.7815 92.6579 12.0162 92.6579 11.211C92.6579 10.4213 93.2629 10.1425 93.778 10.1425H95.0534V9.2986H94.8654C93.4836 9.30634 92.0937 9.31408 90.6956 9.32182Z" fill="#EFB79B"/>
<path d="M48.3361 18.0864C47.8619 17.9238 47.167 17.0179 47.167 15.9727V14.0293C47.167 11.7143 45.6871 10.2046 42.752 9.51548C43.2344 9.40709 43.684 9.28321 44.101 9.1361C44.7714 8.90383 45.3765 8.60187 45.8915 8.25346C47.1833 7.39405 47.8456 6.27914 47.8456 4.93969C47.8456 3.27506 46.8318 1.96659 44.8287 1.05297C44.0356 0.704564 43.1771 0.433578 42.2778 0.263244C41.3784 0.0851671 40.3892 0 39.3345 0H28.3542V0.828443H31.0931V18.1561H29.5643C29.5643 18.1561 28.8856 18.1483 28.5259 18.1561L28.346 18.1638V18.9613H36.9226V18.1561H36.7427C36.7427 18.1561 36.3503 18.1483 35.5899 18.1561H35.5817C35.222 18.1561 34.8786 18.0244 34.617 17.7767C34.339 17.5134 34.1836 17.1573 34.1836 16.7934V2.73309C34.1836 1.43236 34.8541 0.828443 36.293 0.828443H39.3263C40.0049 0.828443 40.6263 0.929095 41.1904 1.1304C41.7464 1.3317 42.2696 1.6414 42.7602 2.07498C43.7167 2.85697 44.2073 3.82478 44.2073 4.93969C44.2073 6.07009 43.7167 7.05338 42.7602 7.87408C41.8281 8.67156 40.6753 9.07416 39.3345 9.07416H36.5628V9.90261H38.6477C39.9722 9.90261 41.125 10.313 42.0734 11.1337C43.03 11.9156 43.5205 12.8912 43.5205 14.0293C43.5205 15.4617 43.6513 16.9482 45.1639 18.0399C46.1532 18.7522 47.6167 19 48.5732 19H50.7399V18.1793C50.7399 18.1716 48.7449 18.2258 48.3361 18.0864Z" fill="#EFB79B"/>
</svg>
