<svg width="1920" height="966" viewBox="0 0 1920 966" fill="none" xmlns="http://www.w3.org/2000/svg">
<path d="M1875.95 960.558C1881.54 960.064 1890.44 959.569 1892.16 957.831L1889.5 957.373C1890.13 957.771 1889.29 958.773 1888.12 959.02C1883.33 960.378 1881.21 958.416 1880.93 957.789L1884.48 957.385C1880.84 953.698 1870.25 957.976 1863.11 957.765L1865.53 955.58H1920V0H0.265254V952.443C0.176915 952.552 0.176915 952.642 0.265254 952.72V955.574H1.00141C-0.0390253 958.392 -2.48307 961.216 8.11761 963.183L15.9994 961.349L18.5416 962.803L11.9064 962.893C15.6657 964.263 18.0607 963.05 20.7305 962.218C21.3685 962.99 22.4678 963.533 24.0383 963.823L31.7728 960.951C32.7151 962.127 28.2982 963.286 33.5004 963.931C37.1223 962.598 30.0257 961.3 36.0229 960.42C39.7921 961.783 38.6927 962.894 43.1195 961.729C43.7379 962.501 42.8054 962.996 41.0484 963.334C44.9942 962.405 51.4724 962.942 53.5042 961.349C57.4304 963.032 66.8042 960.908 66.4214 963.75C67.6581 963.069 73.3609 961.518 76.9828 961.403C70.3672 964.806 90.5281 961.602 88.781 965.253C93.6691 962.194 106.459 963.895 115.116 962.194C114.713 962.399 113.977 962.773 113.3 962.797C117.864 963.081 119.297 963.968 122.35 964.529C122.978 962.001 130.575 961.421 134.668 959.865C140.646 962.302 131.036 962.833 132.911 965.174C132.607 963.129 143.296 963.129 141.264 961.427C145.838 962.936 145.2 962.157 147.556 964.251C148.361 961.089 151.816 963.72 155.605 961.777C162.22 963.334 157.312 964.74 164.576 963.774C168.031 964.746 161.572 965.862 161.572 965.862C168.973 965.917 165.047 963.527 166.617 962.163C175.451 961.488 170.71 963.919 173.714 965.138C179.23 964.511 183.461 962.32 187.573 962.411C187.878 962.803 188.683 962.948 187.74 963.437C193.571 961.542 205.055 963.346 211.847 960.963C212.357 961.174 212.613 961.373 212.74 961.554C211.641 960.359 211.474 959.147 211.7 958.284C215.017 958.241 217.854 956.781 219.11 958.338C217.079 958.29 216.912 958.923 215.96 959.406L219.434 958.73C222.566 960.969 214.694 959.503 214.694 961.162C221.476 960.432 229.377 958.579 234.57 959.213C235.659 961.403 222.418 959.949 229.358 961.898L221.319 961.059C227.463 964.517 216.441 960.818 222.085 964.517C232.666 965.15 233.922 963.4 244.464 964.04C246.839 962.821 243.679 962.242 246.054 961.023C261.052 958.839 257.862 966.532 268.885 963.611C271.741 962.151 272.85 959.382 280.702 960.848L278.023 963.322C288.27 963.563 283.873 959.762 294.601 961.427C292.697 962.399 286.552 962.248 288.103 962.544C295.053 964.499 293.021 961.138 298.36 961.138L299.47 963.328C310.375 962.984 322.389 961.397 334.462 960.999C333.794 961.651 331.723 962.338 334.55 963.008C349.784 961.91 367.059 963.274 381.752 964.577L387.367 962.682C388.672 962.707 389.791 963.539 388.378 963.901C394.1 964.619 388.672 962.701 391.43 961.958C394.689 961.826 395.739 963.044 393.668 963.611C403.768 962.006 422.447 960.154 433.097 962.182L431.026 962.743C439.32 963.509 440.38 958.863 448.066 960.631L446.593 960.969C464.585 961.789 484.471 960.058 498.193 962.912C500.804 960.184 515.998 964.125 517.157 960.323C527.433 962.206 524.489 962.888 538.957 964.155C542.824 964.33 544.718 961.777 549.489 961.385L549.606 963.376L556.094 961.288L559.549 963.666L564.035 963.153C562.249 963.038 560.237 962.26 560.511 961.687C567.51 960.788 577.571 963.075 577.747 964.088L594.306 962.405C594.031 962.996 592.451 963.298 590.753 963.624C596.77 962.568 591.214 965.935 598.684 964.221C597.594 963.768 599.273 963.038 599.459 962.634C603.493 963.835 612.69 963.847 619.492 963.34L618.187 964.71C630.466 965.06 644.08 964.052 657.861 964.076C652.914 963.437 654.053 961.059 658.097 960.836L659.716 962.936C662.327 961.638 655.496 962.145 660.855 960.558C666.008 960.8 664.32 962.948 661.365 963.63L667.627 962.9C667.991 963.527 666.528 963.859 666.145 964.655C668.717 963.352 676.952 966.761 680.662 964.499L681.016 965.126C694.797 965.144 701.049 964.42 712.268 964.318C712.484 962.501 716.881 962.906 720.219 961.439C728.464 962.019 737.621 963.443 747.564 963.292C754.553 962.387 749.606 961.759 752.747 960.679C753.257 962.326 763.191 962.176 758.037 963.358C769.963 963.093 773.271 963.032 788.357 961.687C786.718 961.011 784.883 960.715 785.835 960.154C788.573 959.883 792.068 960.848 791.675 961.639L790.949 961.807C807.576 959.376 829.229 966.357 842.774 963.352L856.751 961.56C863.181 961.844 852.894 962.803 857.654 963.823C872.741 961.065 881.486 964.221 893.913 962.387C903.532 967.262 928.031 962.043 941.017 965.156L940.271 964.01C943.628 962.881 944.325 964.668 946.798 964.927C946.445 964.034 943.157 963.895 945.238 963.274C973.653 961.892 1003.89 964.951 1033.03 965.989C1043.68 966.297 1039.07 960.052 1052.5 962.791L1048.69 964.921C1070.2 962.363 1092.67 965.011 1113.71 962.839C1112.45 963.328 1112.42 963.968 1110.36 963.962C1114.81 965.506 1126.8 964.034 1126.88 962.773C1130.16 962.918 1127.64 963.913 1129.66 964.559C1134.12 965.47 1140.85 962.586 1143.23 964.124C1143.48 964.281 1142.91 964.438 1142.26 964.565C1146.08 964.161 1154.42 964.752 1151.92 963.147C1159.82 963.998 1167.04 962.351 1173.34 963.413C1177.45 961.415 1186.86 964.372 1188.17 961.548C1187.6 964.462 1202.02 963.901 1207.02 962.525C1205.35 963.406 1211.35 963.437 1209.4 964.662C1215.1 964.619 1220.33 964.082 1219.33 962.58C1229.84 966.067 1240.45 959.768 1246.36 964.245C1263.29 962.676 1278.96 961.62 1294.2 960.933C1293.65 963.841 1277.35 961.222 1278.01 964.275C1292.46 963.075 1300.8 960.583 1315.12 961.283C1318.83 961.681 1313.01 962.544 1311.77 963.038C1326.19 961.844 1339.67 963.304 1352.52 961.723C1350.21 959.955 1361.87 958.097 1363.3 957.089C1359.58 960.667 1376.04 957.964 1369.29 962.694C1370.96 962.447 1373.05 961.82 1372.67 960.933C1375.14 961.192 1375.93 961.711 1373.42 962.713C1382.49 961.995 1379.27 960.589 1387.48 960.619C1387.45 961.258 1385.79 961.506 1384.95 962.26C1389.11 961.011 1393.29 959.762 1400.23 960.305C1399.87 960.643 1400.43 961.065 1399.22 961.162C1410.79 960.866 1419.13 957.879 1431.97 959.062C1428.11 961.844 1436.41 959.979 1437.11 962.387L1444.15 961.669L1441.32 960.498C1447.48 960.54 1452.93 958.784 1458.22 959.575L1453.64 960.564L1465.18 960.106L1458.64 959.195C1464.88 957.952 1457.98 956.148 1466.18 956.817C1464.51 957.059 1472.35 956.848 1475.56 958.266C1475.56 958.266 1475.54 958.266 1475.54 958.272C1478.58 957.505 1481.72 956.697 1486.27 957.294C1487.46 958.06 1485.32 959.955 1486.1 960.468C1489.1 958.459 1500.53 959.907 1504.34 957.765C1503.07 958.266 1503 959.533 1503.41 959.786L1505.94 958.151C1508.79 958.676 1509.2 958.929 1508.74 959.937C1517.33 960.239 1506.01 956.884 1516.2 958.199C1515.4 958.332 1515.78 958.573 1514.12 958.827C1524.36 959.515 1533.9 957.789 1543.3 958.591C1546.08 961.017 1535.09 959.183 1538.26 961.228C1551.81 960.788 1566.34 958.326 1579.45 958.893L1577.01 958.628C1578.82 955.206 1586.79 960.317 1593.42 958.706C1591.8 958.959 1591.29 960.607 1591.73 960.227C1600.72 960.776 1610.11 959.382 1623.72 958.308L1622.03 959.189C1627.33 959.973 1635.98 959.641 1641.7 960.04C1643.4 959.165 1646.67 959.303 1644.69 958.03C1662.32 963.032 1678.33 955.345 1693.98 959.515C1692.1 959.527 1689.52 960.281 1691.01 960.281L1704.33 959.472C1703.28 957.982 1702.59 958.567 1699.79 957.409C1701.48 956.528 1705.24 955.84 1708.55 955.84C1702.55 956.83 1708.59 958.235 1711.19 959.062C1710.75 958.603 1711.64 958.103 1711.42 957.638C1718.38 960.287 1712.59 954.639 1722.1 956.425L1721.6 957.21C1725.15 956.811 1728.43 955.774 1732.28 955.997C1733.87 957.723 1728.49 956.799 1728.25 958.217C1733.63 958.121 1738.89 954.953 1743.76 956.667C1741.48 957.149 1738.18 957.155 1735.89 957.632C1741.2 959.653 1741.82 959.14 1745.77 959.46L1745.37 959.412L1754.5 960.329L1752.18 959.78C1758.92 955.285 1765.91 958.959 1775 956.015C1766.16 958.803 1773.53 957.626 1772.86 959.581C1775.17 960.124 1778.71 960.733 1777.7 961.283C1781.98 959.708 1784.86 962.519 1790.93 960.221C1791.2 960.848 1795.52 960.281 1794.55 961.862C1800.13 961.367 1793.23 960.77 1793.69 959.979C1802.3 957.831 1813.92 962.586 1826.3 959.635C1836.1 958.525 1838.58 956.649 1846.57 955.532H1849.53C1851.11 956.48 1846.12 957.542 1846.12 957.542C1851.51 958.465 1855.57 958.296 1860.66 957.578C1859.63 958.127 1860.69 958.591 1862.24 959.297C1866.32 959.134 1864.96 957.011 1870.34 957.934C1869.42 958.634 1868.23 959.756 1866.27 960.462C1871.08 959.883 1875.82 958.706 1880.8 958.139C1882.02 959.279 1877.71 959.846 1875.95 960.558ZM334.442 960.444C332.95 960.486 331.684 960.522 330.869 960.546C331.615 960.522 332.646 960.486 334.442 960.408V960.444ZM342.677 960.311C342.167 959.684 342.716 959.038 344.179 959.074C343.384 959.49 346.809 959.852 348.979 960.383C347.202 960.311 345.003 960.299 342.677 960.311ZM1674.39 957.113C1674.22 956.679 1674.05 956.099 1674.2 955.574H1679.07C1678.73 956.214 1677.45 956.757 1674.39 957.113ZM1820.56 957.107L1818.59 955.58H1824.41C1823.96 956.021 1822.92 956.522 1820.56 957.107ZM1858.77 957.306C1857.83 956.884 1857.07 956.166 1857.41 955.58H1864.45L1858.77 957.306Z" fill="#E4CFC4"/>
</svg>
