<svg id="圖層_1" data-name="圖層 1" xmlns="http://www.w3.org/2000/svg" viewBox="0 0 1920 1000"><defs><style>.cls-1{fill:#aed1e9;}.cls-2{fill:#9dcae2;}</style></defs><path class="cls-1" d="M2146.3,71.85,2143,70.38c.82,1.3-.21,4.65-1.67,5.49-6,4.61-8.68-1.86-9-4l4.42-1.41c-4.7-12.18-17.81,2.25-26.75,1.68l3.62-9-9.08,7.55c-2-2.3-3.37-7.25,1-8.66-6.46-4.31-5.63,3.25-11.2-1.57-.62-.75-.35-1.19.22-1.55l-6.23,2.76c1.2-1.9-1.12-6.28,2.75-5-11.3-5-18.05,7-22.35.28l.93-.56c-15.55,3.25-1.43,6.57-13,14.44l-8-16L2047,61.38c-1.61-.22-4.8-.65-4.24-3.28-5.94,4.58,1,2.83-2.38,7.11-7.81-5.84-21.31,3.1-23.18-7.3-2.73,5,7.45,3.73-.79,7.31-2.48-11.18-9.52,2.07-16.65-3,2.11-5.82,8.85-2.86,1.71-7.92-4.16,9.85-13.8-1.93-19.74,0-.19,7.79-12.93,3.43-22.92,6.19.6-2.63-18.89-4-28.22-6.68l.25-1.31c-1.72,7.91-11.35,6.56-18.32,8.28.23-4.73,1.47-6.6,5.24-8.75l-6.57.13c-1.53,2.55-3.56,3.89-7.82,4.85l1.6-5.9c-8.75.43-17.55,7.16-28.85,3.39-.58,5.5,9.1,15.16-2.77,19-.47-3-1-8,2.15-9.29-1,.4-3.61,2.51-5.68,1.28l4.7-5.06c-5.15-2.13-2.64,4.22-6.75,3.81,0-4.24-3.07-3-2.51-6.35,1-.42,3.59,1.71,5.15,0-4.63-.69-10.24-3.14-12.12-6.32.42,2.41.06,5.7-3.32,6.29-8.76.42-3-5.05-8.18-7.16-2.09,3-7.69,0-7.79,6.33-2.56,0-3.07-3-4.07-4.65-4.5,2.86-21.15,1.09-16,7.75l1.16.42c-.22.13-.47.14-.74.28-14.79,6.5-30.87-3.17-45.57-.3V58.47c-8.77,2.53-19.55,1.66-25.79,6.28-2.61,0-6.17-3.8-5.08-6.33-6.71,1.67-7.45,4-17.18.68,6.73-3.77-2.35-3.25,6.9-2.78-8.76-1.73-10.76-5.1-20.09.79,3.15-5.45-6.63-6.75-10.76-5.08l6.14,3.82c-4.65.84-8.75.41-12.9,0l2.18-7.17c-17.92-8.48-32.11,15.15-45.82.72-4.69,5,9.74,3.42,5.54,9.3-8.23-.88-16.86-11.05-19.43-11.05-11.29-3.86-10.44,10.52-22.23,7.91,1.52,2.53,3,9.31-5.81,11.78-8.23-.87-10.18-10.58-5-12.67,2-.23,2.94.56,2.85,1.43,2.66-1,6.14-2.06,2.86-4.8l-1,2.55c-4.1-2.56-15.41-2.19-12.78-6.4-5.31,2.13-3.44,3.69.09,4.91-9.42-2.59-15.27.46-25.47-1.77,1.73,1.39,3.34,4.36,1.62,4.36-15.94-3-7,4.89-17.77,6.1-6.15-3.82,2.15-9.28-8.7-5.93-6.65-2.57-1.45-6.74,1.18-8.84-9.86,5-18.51-3.1-24.16-4l5.2-2.07a20.48,20.48,0,0,1-8.26,1.22l3,5.07c-3.06-.87-5.66-.89-5.61-3-3.14,3.36,2.45,8.46-3.78,13-4.1-2.56-12.42,2.85-13.86-3.9,11.64,2,1-5.19,7-7.41a14.53,14.53,0,0,1-5.28-.59c-.46-.75.42-1.4,1.26-1.79-12.31-6-5.62,7.66-18.34,7.58,1.6-3.82-3-7.2-5.06-6.38,5.13,0,2.47,6.34-2.22,9.28-8.17-2.92-8.86,2.25-13.14,1.92l4.89,1.37c-1.64,3.81-5.72,3.33-11.41,4.56a1.61,1.61,0,0,1,.84-1.78c-5.91,2.2-13.05-7.89-20.81-3.88-4.08-2.56-.41-7.15-4-8.88-9.85,5-10.7-5.16-21.07-1,3,5.1,3.53,3.86-3.77,8.87l17-3.69-10.94,7.5c5.16,0,10.85-3.28,13.94-2.43-5.2,4.21-4.66,2.93-2.19,7.17-7.07-7.65-13.95,4.56-22.11-.62l.22-12.67c-12.26-5.62-21.74,6.52-37.63,3.36l5.11,2.19c-2.12,5-9.82.72-15,2.75.48-4.24-2.74-5.76-4.94-8.4.27,3.14-11.64-.27-13.07,8.18l-7.1-5.57c-12.84-2.27-14.65,12.08-27,10.65,3.72-4.6-1.89-7.6,6.38-10.9-4.12,0-7.82-.81-7.89,2.12-2.4-2.65-11.42,5.72-15.22,1.71-1.73,1.85-2.3,6.3-6.93,5.94a2.35,2.35,0,0,1-.14-1.61c-1,1.75-6.77,2.71-3,7-12.68-13.24-35.47.84-46.5-10.54a258,258,0,0,1-28,3c.53-1.26,0-2.11,1.57-1.66-11.25-4-7,12.12-19.76,7.69-6.52-6.87,6.81-3.68,2.74-6.28-1.72-13.94-15.47,1.84-24-6.32l2.09-.82c-6.58-4.74-16.1,5.23-26.87,4.11a2.79,2.79,0,0,0,.07-2.1c-7.39,7-21.34,9.27-31.72,11.15,3.25-5.42,4.73-2.84,2.79-8.39-4.65.74,1.31,8.9-8,10.38-3-3-9.66-5.68-10.51-11.6l8.74-.24c-4.42-7.69-11.31.15-15.91-1.22l.6-3.33c-13.39,1-13.65,9.38-28,8.65l1.47,2.53c-7.93,8.28-6.56-4.75-14.46,1.39l-2.31-8.48c-5.21,2-18.25,8-27.58,9.45,5.34-6.17,16.26-9.26,23-12.94-5.14-.1-17.5.46-20.21,4.58,2.08-.79,4.71-2.82,6.75-1.49-6.36,6.56-14.71,9.7-25,9.4,2-16.37-26.7-4.53-34-17.4-18.21,5.81-35.95-3.12-57.08-2.47,7.34,12.88-6.17.27-5,13.4-4.9.76-6.78.52-7.22-.33l1,.56c-.44-.27-.7-.41-1.06-.64v0l-14.79-8.15c-3.48-3.89,4.72-2.78,4.31-5.74-10.76-1.24-4.44-5.65-11.52-9.29,1.39,4.72-3.84,6.64-9.95,4.71l8.55,6.24c-15.15,6.63-12.85-11.29-28.12-4.72l4.86-4c-7.82,2.27-28.71-.72-36.51,9.65-1.36-1.56-3.12-5.17.32-6-18.57-2-41.61,10.38-56,3.41l1.46-3.17c-3.49.82-6.16,5.85-10.44,2.49.26-1.32,1.47-3.15-.14-3.4-1.86,1.06-9.34,5.35-13.89,3.35l4-3.49c-18.05-4.72-28,8-43.31,9.72.25-9.43-14-12.93-21-14.66l.28-1.33a70.52,70.52,0,0,0-18,.82,355,355,0,0,1,15.54,104.09c0,199.36-164.63,361-367.69,361s-367.7-161.62-367.7-361A354.57,354.57,0,0,1-41.88,14.69c-16.25.72-32.38,1.17-48.1-4.12-9.21-2.13-10.13,3-15.63,7l-2.13-6.42c-3.13,2.61-6.25,5.12-9.35,7.8-6.66,3.09-12.63-.57-19.11-3.6s-13.42-5.12-21.69.69l2.48,4.18c-3.1-.23-7.92,1-11.88,1.5s-7.05.45-6.74-2.1c-.57.86-1.64,4.73-4.24,2.72l-.46-3.36c-4.88,2.47-9.73,5.16-14.55,7.71-5.94-.43-5.84-3.83-6.37-6.92s-1.74-6-10.37-4.84c-6.3,2.34-16.95,12.75-14.25,14.59,2.57-.25,6.77,1,7.37,4.35l-5.52,2.69c.19,10-2.67,20.84,11.86,25.48l8.86-7.62,3.26,3.92v.47c-2.56.48-5.1,1-7.65,1.54,3.44,2.56,5.65,1.29,7.66-.76l2.18,927c-1.49,1.79-2.14,3.2-1.21,3.55a9,9,0,0,1,1.21-.2l0,4.66-.25,1,.25-.13v1.23l.86-.16c.23,7-1,14.4,12.24,15.51l8.26-7,3.67,2.6-7.67,2.42c5.05,2,7.22-1.67,9.92-4.52a6,6,0,0,0,4.61,2.7l7.66-9.39c1.63,2.48-3,6.7,3.37,6.51,3.61-4.37-5.26-5.1,1.34-9.19,5,2,4.24,5.1,8.91,1,1.06,1.66.18,3.1-1.73,4.4,4.21-3.31,12-3.88,13.76-8.27,5.31,2.91,15.46-4.82,16.14,2.09A22.68,22.68,0,0,1-110.3,991a20.65,20.65,0,0,1,6.9-4c-6.53,9.72,16.1-2.75,15.34,6.43,2.32-4.26,7.43-6.13,13.15-7.69,2.86-.78,5.87-1.5,8.78-2.4a42.62,42.62,0,0,0,4.24-1.52A25.93,25.93,0,0,0-58,980c-.42.58-1.17,1.62-2,1.81,5.51-.21,7.48,1.65,11.26,2.41,0-6.22,8.85-9.1,13.3-13.66,7.79,4.73-3.49,7.88-.6,13.17-.93-4.88,11.76-7,8.89-10.68,5.84,2.75,4.88,1,8.22,5.61.13-7.86,4.93-2,9-7.29,8.28,2.74,2.74,6.9,11.18,3.44,4.34,1.81-3.1,5.53-3.1,5.53,8.82-1,3.59-6.19,5.16-9.75,10.4-3,5.27,3.62,9.11,6.09,6.43-2.35,11-8.39,16-8.7.44.91,1.43,1.17.4,2.48,6.62-5.29,20.68-2.3,28.42-8.88a3.14,3.14,0,0,1,1.17,1.33,14.91,14.91,0,0,1-1.8-7.81c4-.5,7.18-4.4,8.93-.76-2.45.13-2.56,1.68-3.63,3L66,955.2c4.11,5.07-5.57,2.45-5.31,6.48,4-1.25,8.31-3.35,12.42-4.8s8-2.49,11.19-2c1.6,5.23-14.51,2.84-5.91,7-3.26-.42-6.52-1-9.78-1.28,7.88,7.68-5.88,0,1.43,8.32,12.75.55,14-3.77,26.76-3.14,2.7-3.17-1.17-4.32,1.54-7.48,17.8-6.62,14.76,12.28,27.71,4.56,3.28-3.72,4.37-10.54,14-7.42l-3,6.19c12.33,0,6.75-9,19.78-5.58-2.23,2.49-9.62,2.46-7.75,3.1,8.5,4.37,5.81-3.72,12.25-4l1.48,5.3c13.09-1.19,27.48-5.43,42-6.8-.79,1.61-3.26,3.35.17,4.89,9.15-1.43,19-1.33,28.68-.54,4.86.41,9.7,1,14.43,1.67s9.34,1.56,13.77,2.37l6.77-4.56c1.58.06,2.91,2.1,1.2,3,6.9,1.8.38-2.92,3.7-4.71,3.93-.3,5.18,2.69,2.68,4.06A121.32,121.32,0,0,1,299.74,955c8.78-.84,17.64-.55,24,2l-2.52,1.32c10,2.07,11.44-9.24,20.66-4.74l-1.79.78c21.7,2.64,45.82-1,62.25,6.67,3.32-6.53,21.45,3.74,23.09-5.47,12.3,5,8.7,6.59,26.1,10.37,4.66.61,7.13-5.51,12.94-6.24v4.85l8-4.76,4,5.95,5.47-1c-2.16-.37-4.53-2.37-4.16-3.75,8.53-1.83,20.55,4.23,20.68,6.73l20.16-3.27c-.38,1.42-2.32,2.09-4.39,2.79,7.36-2.27.39,5.66,9.55,1.86-1.28-1.15.8-2.86,1.05-3.83,4.8,3.11,15.92,3.57,24.2,2.66l-1.67,3.28c14.85,1.42,31.41-.38,48.1.32-5.94-1.79-4.41-7.52.5-7.89l1.82,5.19c3.25-3-5.06-2.13,1.54-5.74,6.22.83,4,6,.41,7.51l7.63-1.49c.4,1.55-1.4,2.28-1.92,4.22,3.2-3.07,12.95,5.65,17.59.29l.39,1.54c16.69.61,24.3-.89,37.92-.68.37-4.41,5.67-3.24,9.81-6.68,10,1.76,21,5.62,33,5.65,8.51-1.9,2.55-3.66,6.42-6.14.53,4,12.56,4.07,6.26,6.75,14.46-.17,18.47-.23,36.82-3-1.95-1.72-4.15-2.5-3-3.83,3.34-.56,7.51,1.92,7,3.83l-.89.38c20.26-5.31,46.14,12.48,62.7,5.64l17-3.93c7.79.9-4.74,2.91,1,5.55,18.4-6.26,28.85,1.7,44-2.39,11.44,12.16,41.35.26,57,8.13l-.86-2.82c4.11-2.67,4.89,1.7,7.88,2.41-.39-2.18-4.36-2.6-1.82-4.08,17.24-1.33,35,.07,52.84,2.19,8.93,1.07,17.87,2.32,26.81,3.5s17.82,2.23,26.64,3c12.91,1,7.51-14.35,23.7-7.4l-4.68,5.11c26.13-5.83,53.28,1.14,78.84-3.9-1.53,1.18-1.59,2.75-4.08,2.69,5.36,3.85,19.92.43,20-2.66,4,.4.9,2.79,3.34,4.39,5.38,2.3,13.6-4.65,16.45-.87.3.39-.38.77-1.18,1.07,4.64-.94,14.73.64,11.74-3.31,9.56,2.19,18.33-1.72,25.94.95,5-4.81,16.38,2.47,18-4.4-.73,7.11,16.74,5.86,22.82,2.57-2,2.14,5.24,2.26,2.86,5.22,6.91-.05,13.25-1.32,12.06-5,12.68,8.6,25.61-6.66,32.73,4.29,20.54-3.62,39.53-6.25,58-7.84-.67,7.1-20.4.65-19.63,8.1,17.53-2.87,27.64-8.93,45-7.16,4.49,1-2.56,3.06-4.08,4.27,17.5-2.88,33.82.79,49.38-3.13-2.8-4.3,11.33-8.87,13-11.33-4.49,8.73,15.44,2.11,7.29,13.66,2-.62,4.55-2.14,4.08-4.31,3,.63,4,1.89.91,4.35,11-1.77,7.08-5.19,17-5.14,0,1.56-2,2.16-3.07,4,5-3,10.1-6.1,18.51-4.79-.44.82.24,1.84-1.22,2.09,14-.77,24.1-8,39.64-5.22-4.66,6.8,5.39,2.2,6.25,8.06l8.52-1.81-3.43-2.83c7.47,0,14-4.26,20.48-2.38l-5.54,2.45,14-1.21-7.93-2.18c7.54-3.07-.84-7.42,9.1-5.84-2,.6,7.47,0,11.38,3.46h0c3.69-1.89,7.47-3.88,13-2.46,1.44,1.87-1.12,6.5-.18,7.74,3.61-4.93,17.48-1.47,22.06-6.72-1.53,1.23-1.6,4.31-1.08,4.94l3-4c3.47,1.25,4,1.86,3.43,4.32,10.4.62-3.35-7.4,9-4.33-1,.33-.5.92-2.51,1.55,12.41,1.54,23.93-2.78,35.34-1,3.4,5.87-9.94,1.55-6.07,6.5,16.43-1.24,34-7.45,49.88-6.22l-3-.62c2.13-8.37,11.88,4,19.88,0-2,.65-2.54,4.67-2,3.72,10.89,1.18,22.24-2.38,38.7-5.26l-2,2.18c6.44,1.82,16.91.84,23.84,1.71,2-2.16,6-1.88,3.56-5,10.75,5.94,20.92,4.16,30.79,2.12s19.42-4.41,29,.49c-2.27.06-5.38,2-3.58,1.94l16.13-2.28c-1.33-3.61-2.15-2.15-5.58-4.92a13.93,13.93,0,0,1,6.3-3.38h2.72c-4.49,2.44,1.93,5.35,4.82,7.14-.54-1.1.52-2.35.23-3.47,6.48,4.78,3.88-1.92,7.31-3.63h4.31c.4.12.81.23,1.27.4l-.58,1.92c2.28-.56,4.46-1.55,6.7-2.29l6.5,0c.57,2.89-4.9,1.42-5.12,4.58,3.94-.22,7.77-3.15,11.51-4.56h6.51c.24.13.47.25.71.4-2.75,1.23-6.74,1.32-9.49,2.54,6.51,4.8,7.24,3.53,12,4.23l-.48-.11,11.1,2-2.84-1.28c7-9.7,14.4-4.31,23.4-7.68h1c-5.54,4.28,1.24,2.41.58,6.61,2.84,1.25,7.13,2.64,5.93,4,5.14-4,8.74,2.82,16-3,.35,1.53,5.56,0,4.46,3.9,6.74-1.37-1.65-2.63-1.1-4.56,10.33-5.5,24.61,5.76,39.47-1.8a47.66,47.66,0,0,0,12.28-4.93l15.12,0a23.9,23.9,0,0,0,8.88,0h4.79c.17.85,1.15,1.7,2.42,2.81,2.48-.27,3.28-1.7,4.28-2.8l5,0a18.31,18.31,0,0,1-4.32,5.47c5-1.36,9.92-3.8,15-5.45h2.73c.38,2.19-4,3.6-5.92,5.23,5.57-1.15,13.84-2.39,17.7-5.19l6.54,0a5.82,5.82,0,0,0,.47,4.88c2.35-3.15,3.64-3.58,5.22-4.86l19.67.07-1.48,3.42,5.2-1.54a2.42,2.42,0,0,0,.5-1.87h3.85V80.52C2135.86,78.93,2144.48,76.88,2146.3,71.85ZM200.49,952.67c.9-.08,2.14-.23,4.31-.44v.09Zm14.23-.79c-.63-1.52,0-3.1,1.79-3-.95,1,3.2,1.87,5.81,3.14C220.2,951.83,217.54,951.83,214.72,951.88ZM1827.12,967a12.6,12.6,0,0,1-.31-3.3l5.73,0C1831.94,965.08,1830.36,966.22,1827.12,967Zm86.1-893.44-7.64,0a14.92,14.92,0,0,1,10.45-4.8C1912.82,70.27,1912.39,72,1913.22,73.6Zm29.7-.1-17.69.07c.74-2.81,2-5.85,7.81-3l-.61,2.62c4.45-1.4,8.51-4.9,13.34-4.23C1947.06,72.55,1944.81,72.68,1942.92,73.5Zm9.37,0-4.76,0c4.34-2.85,8.55-6.26,12.64-2.53C1957.91,72.25,1954.88,72.59,1952.29,73.46Zm42-.13-15,.06c6-1.72,12.47,1.53,20-5.15C1996.38,70.72,1994.9,72.27,1994.26,73.33Zm91.79,892.27c-4.19,2.55-6.74.72-8-1.05l9.09,0A3.12,3.12,0,0,1,2086.05,965.6Zm2.43-893.67a27.34,27.34,0,0,0,2.9,1.07l-15.33,0c4.64-3.25,8.47-6.62,15.77-8.8C2096.05,67.53,2088.48,71.93,2088.48,71.93Zm17.74,1h-3c1.13-.32,2.28-.73,3.48-1.2A2.69,2.69,0,0,0,2106.22,73Zm12.55,0h-4.91c1-.94,2.29-1.35,5-.16Zm10.28,5.9v-4.5c1-.4,1.93-.77,2.9-1.08C2133.06,75.6,2131.12,77.27,2129.05,78.81Z"/><path class="cls-2" d="M304.31,611.83c260.11,0,471-199,471-444.37A421.53,421.53,0,0,0,755.39,39.31c-16.3,2.61-30.88,8.43-48.34,10.93C691.83,37.07,654.5,43,629.7,35.06c3.76,2.24-.88,9-5.37,10-5.79-2.57-16.46,7.48-15.2-3.13l2.08.26c-4.1-10.6-16.24-8.26-25.64-8.89l-2,13.88c-12-10.52-28.16-9.45-43-8S512.4,42.49,506,33.12C500,36.34,492.59,36,486.58,39.18l.57-7.46c-16.38-2.65-24.56-3.94-45-3.08l4.35-5.15c-11.44-1-15.28,20.88-25.88,20.85L417.88,33c-20-.71-39.88-11.73-60.06-2.65.39-1.62,1.1-4.81,4.36-5.07-9.08-.78-34.24-8.9-33.51,4.43-2-7.54-21.06-.33-31.43,3.25l2-7.26c-9.53,8.9-9.93,11.44-22.79,13.36-2.66-1-2.47-5,.39-4.35-8.59-3-7.5,6.78-19,2.4l4.76-4.45C252.24,31.58,253,34.13,247,39.29c-6.65,2.63-19.55-3.08-20.78-9.79-1.58,4-7.5,9-13.51,6.7-.7-2.56,1.58-4,2.73-4.67-17.06-6.1-26.13,6.89-37.68-1.09-.13-2.44-.84-3.7-1.81-4.51,12.63,1,23,2,23.73,2.51.19-6.67-10.65-8.6-1.44-17.34-9.15,4.53-24.93,14.66-35.59,10.78a8.28,8.28,0,0,1-1.32-2.43l1.16-.7a8.92,8.92,0,0,0-6.89.67c-3.4-1.34-5.55-2.31-8.86-2.61-1-5.67-12.57-3.83-18.09-4.46.08,7.37-6.92,5.84-.82,12.13-.14-.43,1.76-.62,5-.68a7.15,7.15,0,0,0,2.4-.61,6.89,6.89,0,0,1-.42.63c3.65,0,8.39.16,13.79.38-4.56,3.48-9.3,6.35-15.2,1.86-3.09,4.57-6.46,9.27-8.34,11.46C118,26.7,103.71,20.19,102,13.69,84.89,16.81,62.05,13.82,50.65,27c-4.91,1.45-5.31-4.37-7-6.69,2.85-1.19,6.15-.75,7.76-2.66-9.81,2.9-28.59-.58-31.4,9-11.91-5.19,7.3-8.5-9.47-8L13,15.77c-16-8.88-29.72-3.5-43.79,1.3-13.59,4.7-27.46,8.75-44.46-.6A4.19,4.19,0,0,1-73,19a133.33,133.33,0,0,0-31.54-4c-5.32-.11-10.68-.08-16,.09l-16.1.71-1.88.08a421.26,421.26,0,0,0-28.09,151.5C-166.69,412.88,44.19,611.83,304.31,611.83ZM138.79,17.29c-.13.27-.36.57-.48.88A10.66,10.66,0,0,1,140,14.54c3.73-.82,4.9.73,5.33,2.27A58.19,58.19,0,0,0,138.79,17.29ZM-32.94,46.12c5.31.16,10.14-5.54,11.83,1a3.74,3.74,0,0,0-1.57.11L-33,47C-33,46.67-33,46.39-32.94,46.12Z"/></svg>