<svg width="1920" height="978" viewBox="0 0 1920 978" fill="none" xmlns="http://www.w3.org/2000/svg">
<path d="M1875.95 972.491C1881.54 971.99 1890.44 971.489 1892.16 969.73L1889.5 969.265C1890.13 969.669 1889.29 970.683 1888.12 970.933C1883.33 972.308 1881.21 970.322 1880.93 969.687L1884.48 969.278C1880.84 965.545 1870.25 969.876 1863.11 969.663L1865.53 967.451H1920V0H0.265254V964.275C0.176915 964.385 0.176915 964.476 0.265254 964.556V967.445H1.00141C-0.0390252 970.298 -2.48307 973.157 8.11761 975.148L15.9994 973.291L18.5416 974.763L11.9064 974.855C15.6657 976.242 18.0607 975.014 20.7305 974.171C21.3685 974.953 22.4678 975.503 24.0383 975.796L31.7728 972.888C32.7151 974.079 28.2982 975.252 33.5004 975.906C37.1223 974.556 30.0257 973.242 36.0229 972.35C39.7921 973.731 38.6927 974.855 43.1195 973.676C43.7379 974.458 42.8054 974.959 41.0484 975.301C44.9942 974.36 51.4724 974.904 53.5042 973.291C57.4304 974.996 66.8042 972.845 66.4214 975.722C67.6581 975.032 73.3609 973.462 76.9828 973.346C70.3672 976.792 90.5281 973.548 88.781 977.244C93.6691 974.146 106.459 975.869 115.116 974.146C114.713 974.354 113.977 974.733 113.3 974.757C117.864 975.044 119.297 975.942 122.35 976.511C122.978 973.951 130.575 973.364 134.668 971.788C140.646 974.256 131.036 974.794 132.911 977.164C132.607 975.093 143.296 975.093 141.264 973.371C145.838 974.898 145.2 974.11 147.556 976.229C148.361 973.028 151.816 975.692 155.605 973.725C162.22 975.301 157.312 976.724 164.576 975.747C168.031 976.73 161.572 977.861 161.572 977.861C168.973 977.916 165.047 975.496 166.617 974.116C175.451 973.432 170.71 975.894 173.714 977.128C179.23 976.492 183.461 974.275 187.573 974.366C187.878 974.763 188.683 974.91 187.74 975.405C193.571 973.487 205.055 975.313 211.847 972.9C212.357 973.114 212.613 973.316 212.74 973.499C211.641 972.289 211.474 971.062 211.7 970.188C215.017 970.145 217.854 968.667 219.11 970.243C217.079 970.194 216.912 970.835 215.96 971.324L219.434 970.64C222.566 972.906 214.694 971.422 214.694 973.102C221.476 972.363 229.377 970.487 234.57 971.129C235.659 973.346 222.418 971.874 229.358 973.847L221.319 972.998C227.463 976.498 216.441 972.754 222.085 976.498C232.666 977.14 233.922 975.368 244.464 976.016C246.839 974.782 243.679 974.195 246.054 972.961C261.052 970.75 257.862 978.539 268.885 975.582C271.741 974.104 272.85 971.3 280.702 972.784L278.023 975.289C288.27 975.533 283.873 971.685 294.601 973.371C292.697 974.354 286.552 974.201 288.103 974.501C295.053 976.48 293.021 973.077 298.36 973.077L299.47 975.295C310.375 974.947 322.389 973.34 334.462 972.937C333.794 973.597 331.723 974.293 334.55 974.971C349.784 973.859 367.059 975.24 381.752 976.559L387.367 974.641C388.672 974.666 389.791 975.509 388.378 975.875C394.1 976.602 388.672 974.66 391.43 973.908C394.689 973.774 395.739 975.008 393.668 975.582C403.768 973.957 422.447 972.082 433.097 974.134L431.026 974.702C439.32 975.478 440.38 970.774 448.066 972.564L446.593 972.906C464.585 973.737 484.471 971.984 498.193 974.873C500.804 972.112 515.998 976.101 517.157 972.253C527.433 974.159 524.489 974.849 538.957 976.132C542.824 976.309 544.718 973.725 549.489 973.328L549.606 975.344L556.094 973.23L559.549 975.637L564.035 975.118C562.249 975.002 560.237 974.214 560.511 973.633C567.51 972.723 577.571 975.038 577.747 976.065L594.306 974.36C594.031 974.959 592.451 975.264 590.753 975.594C596.77 974.525 591.214 977.934 598.684 976.199C597.594 975.741 599.273 975.002 599.459 974.592C603.493 975.808 612.69 975.82 619.492 975.307L618.187 976.694C630.466 977.048 644.08 976.028 657.861 976.052C652.914 975.405 654.053 972.998 658.097 972.772L659.716 974.898C662.327 973.584 655.496 974.098 660.855 972.491C666.008 972.735 664.32 974.91 661.365 975.6L667.627 974.861C667.991 975.496 666.528 975.832 666.145 976.639C668.717 975.319 676.952 978.771 680.662 976.48L681.016 977.115C694.797 977.134 701.049 976.401 712.268 976.297C712.484 974.458 716.881 974.867 720.219 973.383C728.464 973.969 737.621 975.411 747.564 975.258C754.553 974.342 749.606 973.707 752.747 972.613C753.257 974.281 763.191 974.128 758.037 975.325C769.963 975.057 773.271 974.996 788.357 973.633C786.718 972.949 784.883 972.65 785.835 972.082C788.573 971.807 792.068 972.784 791.675 973.584L790.949 973.755C807.576 971.294 829.229 978.361 842.774 975.319L856.751 973.505C863.181 973.792 852.894 974.763 857.654 975.796C872.741 973.004 881.486 976.199 893.913 974.342C903.532 979.278 928.031 973.994 941.017 977.146L940.271 975.985C943.628 974.843 944.325 976.651 946.798 976.914C946.445 976.01 943.157 975.869 945.238 975.24C973.653 973.841 1003.89 976.938 1033.03 977.989C1043.68 978.3 1039.07 971.978 1052.5 974.751L1048.69 976.908C1070.2 974.318 1092.67 976.999 1113.71 974.8C1112.45 975.295 1112.42 975.942 1110.36 975.936C1114.81 977.5 1126.8 976.01 1126.88 974.733C1130.16 974.88 1127.64 975.887 1129.66 976.541C1134.12 977.464 1140.85 974.544 1143.23 976.101C1143.48 976.26 1142.91 976.419 1142.26 976.547C1146.08 976.138 1154.42 976.737 1151.92 975.112C1159.82 975.973 1167.04 974.305 1173.34 975.381C1177.45 973.359 1186.86 976.352 1188.17 973.493C1187.6 976.443 1202.02 975.875 1207.02 974.482C1205.35 975.374 1211.35 975.405 1209.4 976.645C1215.1 976.602 1220.33 976.058 1219.33 974.537C1229.84 978.068 1240.45 971.691 1246.36 976.223C1263.29 974.635 1278.96 973.566 1294.2 972.87C1293.65 975.814 1277.35 973.163 1278.01 976.254C1292.46 975.038 1300.8 972.515 1315.12 973.224C1318.83 973.627 1313.01 974.501 1311.77 975.002C1326.19 973.792 1339.67 975.27 1352.52 973.67C1350.21 971.88 1361.87 969.999 1363.3 968.978C1359.58 972.601 1376.04 969.864 1369.29 974.653C1370.96 974.403 1373.05 973.768 1372.67 972.87C1375.14 973.132 1375.93 973.658 1373.42 974.672C1382.49 973.945 1379.27 972.522 1387.48 972.552C1387.45 973.2 1385.79 973.45 1384.95 974.214C1389.11 972.949 1393.29 971.685 1400.23 972.234C1399.87 972.576 1400.43 973.004 1399.22 973.102C1410.79 972.802 1419.13 969.779 1431.97 970.976C1428.11 973.792 1436.41 971.904 1437.11 974.342L1444.15 973.615L1441.32 972.43C1447.48 972.473 1452.93 970.695 1458.22 971.495L1453.64 972.497L1465.18 972.033L1458.64 971.11C1464.88 969.852 1457.98 968.025 1466.18 968.703C1464.51 968.948 1472.35 968.734 1475.56 970.17C1475.56 970.17 1475.54 970.17 1475.54 970.176C1478.58 969.4 1481.72 968.581 1486.27 969.186C1487.46 969.962 1485.32 971.88 1486.1 972.399C1489.1 970.365 1500.53 971.831 1504.34 969.663C1503.07 970.17 1503 971.453 1503.41 971.709L1505.94 970.054C1508.79 970.585 1509.2 970.842 1508.74 971.862C1517.33 972.167 1506.01 968.771 1516.2 970.102C1515.4 970.237 1515.78 970.481 1514.12 970.738C1524.36 971.434 1533.9 969.687 1543.3 970.499C1546.08 972.955 1535.09 971.098 1538.26 973.169C1551.81 972.723 1566.34 970.231 1579.45 970.805L1577.01 970.536C1578.82 967.072 1586.79 972.247 1593.42 970.615C1591.8 970.872 1591.29 972.54 1591.73 972.155C1600.72 972.711 1610.11 971.3 1623.72 970.212L1622.03 971.104C1627.33 971.899 1635.98 971.562 1641.7 971.966C1643.4 971.08 1646.67 971.22 1644.69 969.931C1662.32 974.996 1678.33 967.213 1693.98 971.434C1692.1 971.446 1689.52 972.21 1691.01 972.21L1704.33 971.391C1703.28 969.882 1702.59 970.475 1699.79 969.302C1701.48 968.41 1705.24 967.714 1708.55 967.714C1702.55 968.716 1708.59 970.139 1711.19 970.976C1710.75 970.512 1711.64 970.005 1711.42 969.534C1718.38 972.216 1712.59 966.498 1722.1 968.306L1721.6 969.101C1725.15 968.697 1728.43 967.647 1732.28 967.873C1733.87 969.62 1728.49 968.685 1728.25 970.121C1733.63 970.023 1738.89 966.816 1743.76 968.551C1741.48 969.039 1738.18 969.046 1735.89 969.528C1741.2 971.575 1741.82 971.055 1745.77 971.379L1745.37 971.33L1754.5 972.259L1752.18 971.703C1758.92 967.152 1765.91 970.872 1775 967.891C1766.16 970.713 1773.53 969.522 1772.86 971.501C1775.17 972.051 1778.71 972.668 1777.7 973.224C1781.98 971.63 1784.86 974.476 1790.93 972.149C1791.2 972.784 1795.52 972.21 1794.55 973.81C1800.13 973.309 1793.23 972.705 1793.69 971.905C1802.3 969.73 1813.92 974.544 1826.3 971.556C1836.1 970.432 1838.58 968.532 1846.57 967.402H1849.53C1851.11 968.361 1846.12 969.436 1846.12 969.436C1851.51 970.371 1855.57 970.2 1860.66 969.473C1859.63 970.029 1860.69 970.499 1862.24 971.214C1866.32 971.049 1864.96 968.899 1870.34 969.834C1869.42 970.542 1868.23 971.678 1866.27 972.393C1871.08 971.807 1875.82 970.615 1880.8 970.041C1882.02 971.196 1877.71 971.77 1875.95 972.491ZM334.442 972.375C332.95 972.418 331.684 972.454 330.869 972.479C331.615 972.454 332.646 972.418 334.442 972.338V972.375ZM342.677 972.241C342.167 971.605 342.716 970.951 344.179 970.988C343.384 971.41 346.809 971.776 348.979 972.314C347.202 972.24 345.003 972.228 342.677 972.241ZM1674.39 969.003C1674.22 968.563 1674.05 967.977 1674.2 967.445H1679.07C1678.73 968.093 1677.45 968.642 1674.39 969.003ZM1820.56 968.997L1818.59 967.451H1824.41C1823.96 967.897 1822.92 968.404 1820.56 968.997ZM1858.77 969.198C1857.83 968.771 1857.07 968.044 1857.41 967.451H1864.45L1858.77 969.198Z" fill="#F1F3FF"/>
</svg>
