<svg width="445" height="97" viewBox="0 0 445 97" fill="none" xmlns="http://www.w3.org/2000/svg">
<path fill-rule="evenodd" clip-rule="evenodd" d="M25.0002 1C11.7454 1 1.00024 11.7452 1.00024 25V72C1.00024 85.2548 11.7454 96 25.0002 96H369H381H444.49C408.186 92.7568 405.016 72 405.016 72L405 72.0108C405 72.0072 405 72.0036 405 72V25C405 11.7452 394.255 1 381 1H25.0002Z" fill="white"/>
<path d="M444.49 96L444.535 95.502L444.49 96.5V96ZM405.016 72L404.739 71.5839L405.392 71.1486L405.511 71.9245L405.016 72ZM405 72.0108L405.278 72.4269L404.5 72.9449V72.0108H405ZM0.500244 25C0.500244 11.469 11.4693 0.5 25.0002 0.5V1.5C12.0216 1.5 1.50024 12.0213 1.50024 25H0.500244ZM0.500244 72V25H1.50024V72H0.500244ZM25.0002 96.5C11.4692 96.5 0.500244 85.531 0.500244 72H1.50024C1.50024 84.9787 12.0215 95.5 25.0002 95.5V96.5ZM369 96.5H25.0002V95.5H369V96.5ZM381 96.5H369V95.5H381V96.5ZM444.49 96.5H381V95.5H444.49V96.5ZM405.016 72C405.511 71.9245 405.511 71.9242 405.511 71.924C405.511 71.924 405.511 71.9238 405.511 71.9238C405.511 71.9239 405.511 71.9243 405.511 71.925C405.511 71.9265 405.511 71.9291 405.512 71.933C405.513 71.9408 405.516 71.9534 405.519 71.9709C405.525 72.0057 405.535 72.0595 405.55 72.1312C405.58 72.2745 405.63 72.4892 405.706 72.7658C405.858 73.3192 406.116 74.1204 406.538 75.0953C407.382 77.0446 408.881 79.6893 411.501 82.4389C416.733 87.9303 426.481 93.8891 444.535 95.502L444.446 96.498C426.196 94.8676 416.206 88.8265 410.777 83.1287C408.067 80.2837 406.505 77.5365 405.62 75.4926C405.178 74.4708 404.905 73.625 404.741 73.0306C404.66 72.7334 404.606 72.4989 404.572 72.3366C404.555 72.2555 404.543 72.1923 404.535 72.1484C404.531 72.1265 404.528 72.1093 404.526 72.0971C404.525 72.091 404.524 72.0861 404.523 72.0825C404.523 72.0807 404.523 72.0792 404.523 72.0781C404.522 72.0775 404.522 72.0768 404.522 72.0765C404.522 72.076 404.522 72.0755 405.016 72ZM404.723 71.5948L404.739 71.5839L405.294 72.4161L405.278 72.4269L404.723 71.5948ZM405.5 72C405.5 72.002 405.5 72.0039 405.5 72.0057C405.5 72.0075 405.5 72.0092 405.5 72.0108H404.5C404.5 72.0089 404.5 72.0069 404.5 72.0051C404.5 72.0033 404.5 72.0016 404.5 72H405.5ZM405.5 25V72H404.5V25H405.5ZM381 0.5C394.531 0.5 405.5 11.469 405.5 25H404.5C404.5 12.0213 393.979 1.5 381 1.5V0.5ZM25.0002 0.5H381V1.5H25.0002V0.5Z" fill="#BB8080"/>
</svg>
