<?xml version="1.0" encoding="utf-8"?>
<!-- Generator: Adobe Illustrator 24.3.0, SVG Export Plug-In . SVG Version: 6.00 Build 0)  -->
<svg version="1.1" id="圖層_1" xmlns="http://www.w3.org/2000/svg" xmlns:xlink="http://www.w3.org/1999/xlink" x="0px" y="0px"
	 viewBox="0 0 25 25" style="enable-background:new 0 0 25 25;" xml:space="preserve">
<style type="text/css">
	.st0{fill:#FFFFFF;}
	.st1{fill:none;}
	.st2{fill:#585959;}
</style>
<ellipse class="st0" cx="12.5" cy="12.1" rx="8.4" ry="8"/>
<g>
	<path class="st1" d="M12.5,5c-4.2,0-7.7,2.9-7.7,6.4c0,3.3,3,6,6.8,6.4c0.1,0,0.5,0.1,0.5,0.5c0,0.7-0.5,1.4-0.4,1.6
		c0.2,0.2,0.5,0.3,2.3-1c1-0.7,2.5-1.6,3.8-2.9c0.9-0.7,1.6-1.7,2-2.7c0.2-0.6,0.4-1.2,0.3-1.9C20.2,7.9,16.7,5,12.5,5z M9.5,13.8
		c-0.1,0.1-0.2,0.1-0.3,0.1H7.5c-0.2,0-0.3,0-0.3-0.1c-0.1-0.1-0.1-0.2-0.1-0.3v-2.7c0-0.1,0-0.3,0.1-0.3c0.1-0.1,0.2-0.1,0.3-0.1
		c0.1,0,0.2,0,0.3,0.1c0.1,0.1,0.1,0.2,0.1,0.3v2.6h1.5c0.1,0,0.2,0,0.3,0.1c0.1,0.1,0.1,0.1,0.1,0.2C9.6,13.7,9.6,13.8,9.5,13.8z
		 M10.8,13.5c0,0.1,0,0.3-0.1,0.3c-0.1,0.1-0.2,0.1-0.3,0.1c-0.1,0-0.2,0-0.3-0.1c-0.1-0.1-0.1-0.2-0.1-0.3v-2.8
		c0-0.1,0-0.3,0.1-0.3c0.1-0.1,0.2-0.1,0.3-0.1c0.1,0,0.2,0,0.3,0.1c0.1,0.1,0.1,0.2,0.1,0.3V13.5z M14.6,13.5
		c0,0.3-0.1,0.5-0.4,0.5c-0.1,0-0.1,0-0.2,0c-0.1,0-0.1,0-0.1-0.1c0,0-0.1-0.1-0.1-0.1c0-0.1-0.1-0.1-0.1-0.2l-1.3-2.1v2.1
		c0,0.1,0,0.2-0.1,0.3C12.2,13.9,12.1,14,12,14c-0.1,0-0.2,0-0.2-0.1c-0.1-0.1-0.1-0.2-0.1-0.3v-2.7c0-0.1,0-0.2,0-0.3
		c0-0.1,0.1-0.1,0.2-0.2c0.1,0,0.1-0.1,0.2-0.1c0.1,0,0.1,0,0.2,0c0,0,0.1,0,0.1,0.1c0,0,0.1,0.1,0.1,0.1c0,0.1,0.1,0.1,0.1,0.2
		l1.4,2.1v-2.1c0-0.1,0-0.2,0.1-0.3c0.1-0.1,0.1-0.1,0.2-0.1c0.1,0,0.2,0,0.2,0.1c0.1,0.1,0.1,0.2,0.1,0.3V13.5z M18,13.8
		c-0.1,0.1-0.1,0.1-0.3,0.1h-1.9c-0.2,0-0.3,0-0.3-0.1c-0.1-0.1-0.1-0.2-0.1-0.3v-2.7c0-0.1,0-0.2,0-0.3c0-0.1,0.1-0.1,0.1-0.1
		c0.1,0,0.1,0,0.2,0h1.9c0.1,0,0.2,0,0.3,0.1c0.1,0.1,0.1,0.1,0.1,0.2c0,0.1,0,0.2-0.1,0.2c-0.1,0.1-0.1,0.1-0.3,0.1h-1.6v0.9h1.5
		c0.1,0,0.2,0,0.2,0.1c0.1,0,0.1,0.1,0.1,0.2c0,0.1,0,0.1-0.1,0.2c-0.1,0.1-0.1,0.1-0.2,0.1h-1.5v1h1.7c0.1,0,0.2,0,0.3,0.1
		c0.1,0.1,0.1,0.1,0.1,0.2C18.1,13.7,18.1,13.8,18,13.8z"/>
	<path class="st2" d="M10.5,10.3c-0.1,0-0.2,0-0.3,0.1c-0.1,0.1-0.1,0.2-0.1,0.3v2.8c0,0.1,0,0.3,0.1,0.3c0.1,0.1,0.2,0.1,0.3,0.1
		c0.1,0,0.2,0,0.3-0.1c0.1-0.1,0.1-0.2,0.1-0.3v-2.8c0-0.1,0-0.3-0.1-0.3C10.7,10.3,10.6,10.3,10.5,10.3z"/>
	<path class="st2" d="M14.3,10.3c-0.1,0-0.2,0-0.2,0.1c-0.1,0.1-0.1,0.2-0.1,0.3v2.1l-1.4-2.1c0-0.1-0.1-0.1-0.1-0.2
		c0-0.1-0.1-0.1-0.1-0.1c0,0-0.1-0.1-0.1-0.1c0,0-0.1,0-0.2,0c-0.1,0-0.2,0-0.2,0.1c-0.1,0-0.1,0.1-0.2,0.2c0,0.1,0,0.2,0,0.3v2.7
		c0,0.1,0,0.2,0.1,0.3c0.1,0.1,0.1,0.1,0.2,0.1c0.1,0,0.2,0,0.2-0.1c0.1-0.1,0.1-0.2,0.1-0.3v-2.1l1.3,2.1c0,0.1,0.1,0.1,0.1,0.2
		c0,0.1,0.1,0.1,0.1,0.1c0,0,0.1,0.1,0.1,0.1c0.1,0,0.1,0,0.2,0c0.3,0,0.4-0.2,0.4-0.5v-2.8c0-0.1,0-0.2-0.1-0.3
		C14.4,10.3,14.4,10.3,14.3,10.3z"/>
	<path class="st2" d="M9.3,13.3H7.8v-2.6c0-0.1,0-0.3-0.1-0.3c-0.1-0.1-0.2-0.1-0.3-0.1c-0.1,0-0.2,0-0.3,0.1
		c-0.1,0.1-0.1,0.2-0.1,0.3v2.7c0,0.2,0,0.3,0.1,0.3c0.1,0.1,0.2,0.1,0.3,0.1h1.7c0.1,0,0.2,0,0.3-0.1c0.1-0.1,0.1-0.1,0.1-0.2
		c0-0.1,0-0.2-0.1-0.2C9.5,13.3,9.4,13.3,9.3,13.3z"/>
	<path class="st2" d="M12.5,0.3C5.8,0.3,0.3,5.8,0.3,12.5c0,6.7,5.4,12.2,12.2,12.2c6.7,0,12.2-5.5,12.2-12.2
		C24.7,5.8,19.2,0.3,12.5,0.3z M19.8,13.3c-0.4,1-1.1,2-2,2.7c-1.3,1.2-2.8,2.2-3.8,2.9c-1.8,1.3-2.2,1.2-2.3,1
		c-0.2-0.2,0.3-0.9,0.4-1.6c0-0.4-0.4-0.5-0.5-0.5c-3.8-0.3-6.8-3.1-6.8-6.4C4.8,7.9,8.3,5,12.5,5c4.2,0,7.7,2.9,7.7,6.4
		C20.2,12.1,20.1,12.7,19.8,13.3z"/>
	<path class="st2" d="M17.8,13.3h-1.7v-1h1.5c0.1,0,0.2,0,0.2-0.1c0.1-0.1,0.1-0.1,0.1-0.2c0-0.1,0-0.1-0.1-0.2
		c-0.1,0-0.1-0.1-0.2-0.1h-1.5v-0.9h1.6c0.1,0,0.2,0,0.3-0.1c0.1-0.1,0.1-0.1,0.1-0.2c0-0.1,0-0.1-0.1-0.2c-0.1-0.1-0.1-0.1-0.3-0.1
		h-1.9c-0.1,0-0.2,0-0.2,0c-0.1,0-0.1,0.1-0.1,0.1c0,0.1,0,0.1,0,0.3v2.7c0,0.2,0,0.3,0.1,0.3c0.1,0.1,0.2,0.1,0.3,0.1h1.9
		c0.1,0,0.2,0,0.3-0.1c0.1-0.1,0.1-0.1,0.1-0.2c0-0.1,0-0.2-0.1-0.2C18,13.4,17.9,13.3,17.8,13.3z"/>
</g>
</svg>
