<svg width="98" height="98" viewBox="0 0 98 98" fill="none" xmlns="http://www.w3.org/2000/svg">
<circle cx="49" cy="49" r="48.5" fill="#585E4F" stroke="white"/>
<path d="M47.59 43.44C48.85 41.97 50.515 40.68 52.585 39.57C54.655 38.43 56.38 37.86 57.76 37.86C59.17 37.86 60.28 38.235 61.09 38.985C61.9 39.735 62.305 40.8 62.305 42.18C62.305 43.56 61.75 44.82 60.64 45.96C59.53 47.07 57.31 48.48 53.98 50.19C50.65 51.87 47.56 53.94 44.71 56.4C48.82 55.77 52.645 55.455 56.185 55.455C56.995 55.455 57.64 55.485 58.12 55.545V58.38C57.46 58.5 57.01 58.56 56.77 58.56C56.56 58.53 56.2 58.53 55.69 58.56C55.18 58.59 54.19 58.65 52.72 58.74C51.25 58.8 49.735 58.905 48.175 59.055C46.645 59.205 45.595 59.325 45.025 59.415C44.485 59.475 44.155 59.505 44.035 59.505C43.555 59.505 43.135 59.205 42.775 58.605C42.415 57.975 42.235 57.375 42.235 56.805C42.475 55.875 43.66 54.525 45.79 52.755C47.95 50.985 50.71 49.23 54.07 47.49C55.06 46.98 55.975 46.32 56.815 45.51C57.655 44.7 58.075 43.935 58.075 43.215C58.075 41.835 57.34 41.145 55.87 41.145C53.92 41.145 51.415 42.405 48.355 44.925L47.59 43.44Z" fill="white"/>
</svg>
