<svg width="98" height="98" viewBox="0 0 98 98" fill="none" xmlns="http://www.w3.org/2000/svg">
<circle cx="49" cy="49" r="48.5" fill="#585E4F" stroke="white"/>
<path d="M50.155 58.2C50.155 56.61 50.59 54.69 51.46 52.44C49.57 52.59 48.025 52.785 46.825 53.025C45.655 53.265 45.025 53.385 44.935 53.385C44.245 53.385 43.705 53.13 43.315 52.62C42.955 52.11 42.775 51.645 42.775 51.225C42.775 50.775 42.79 50.49 42.82 50.37C43 49.41 44.26 47.865 46.6 45.735C48.94 43.575 51.4 41.625 53.98 39.885C56.56 38.145 58.255 37.275 59.065 37.275C59.575 37.275 59.98 37.44 60.28 37.77C60.61 38.1 60.775 38.535 60.775 39.075C60.775 39.585 60.49 40.305 59.92 41.235C59.35 42.135 58.855 42.975 58.435 43.755C58.045 44.535 57.715 45.225 57.445 45.825C56.905 47.055 56.47 48.12 56.14 49.02C57.16 48.96 58.015 48.93 58.705 48.93C59.395 48.93 59.98 48.96 60.46 49.02C60.07 50.97 59.815 51.99 59.695 52.08L54.835 52.17C54.055 53.58 53.425 55.935 52.945 59.235L50.335 59.64C50.215 59.25 50.155 58.77 50.155 58.2ZM52.585 49.335C53.275 47.475 54.685 44.565 56.815 40.605C55.015 41.535 52.915 43.05 50.515 45.15C48.115 47.25 46.48 48.99 45.61 50.37C48.67 49.83 50.995 49.485 52.585 49.335Z" fill="white"/>
</svg>
