<svg width="98" height="98" viewBox="0 0 98 98" fill="none" xmlns="http://www.w3.org/2000/svg">
<circle cx="49" cy="49" r="48.5" fill="#585E4F" stroke="white"/>
<path d="M62.215 41.82C62.215 43.29 61.42 44.61 59.83 45.78C58.27 46.95 56.695 47.775 55.105 48.255C56.335 48.975 57.265 49.65 57.895 50.28C58.555 50.91 58.885 51.63 58.885 52.44C58.885 54.42 57.775 56.16 55.555 57.66C53.335 59.13 50.95 59.865 48.4 59.865C47.17 59.865 45.94 59.67 44.71 59.28C43.51 58.89 42.67 58.425 42.19 57.885L44.215 55.995C44.635 56.415 45.19 56.79 45.88 57.12C46.6 57.45 47.215 57.615 47.725 57.615C49.495 57.615 51.1 57.165 52.54 56.265C54.01 55.335 54.745 54.225 54.745 52.935C54.745 52.155 54.385 51.465 53.665 50.865C52.945 50.265 51.985 49.8 50.785 49.47C50.095 49.26 49.75 48.915 49.75 48.435C49.75 47.775 51.1 47.13 53.8 46.5C54.79 46.26 55.705 45.87 56.545 45.33C57.385 44.76 57.805 44.145 57.805 43.485C57.805 42.795 57.565 42.27 57.085 41.91C56.635 41.52 56.065 41.325 55.375 41.325C54.685 41.325 53.62 41.7 52.18 42.45C50.77 43.17 49.3 44.115 47.77 45.285L47.05 43.8C48.31 42.3 50.02 40.98 52.18 39.84C54.37 38.7 56.125 38.13 57.445 38.13C58.765 38.13 59.89 38.505 60.82 39.255C61.75 39.975 62.215 40.83 62.215 41.82Z" fill="white"/>
</svg>
