<svg xmlns="http://www.w3.org/2000/svg" viewBox="0 0 128.97 176.36"><defs><style>.cls-1{fill:#60a993;}.cls-2{fill:#badbab;}</style></defs><g id="圖層_2" data-name="圖層 2"><g id="圖層_1-2" data-name="圖層 1"><path class="cls-1" d="M30.09,132.31l1.71,2.82c.35-.21,35.52-21.3,65-25l-.42-3.27c-15.77,2-32.95,8.83-44.58,14.21-12.57,5.81-21.57,11.23-21.66,11.28"/><path class="cls-1" d="M54.32,121.34s5.42-19,5.74-23.38,6.19-16.32,14.55-7.78-9.7,32.88-20.29,31.16"/><path class="cls-1" d="M128.92,110.13s2.56,11.49-28.17,6.32,11.23-31.83,28.17-6.32"/><path class="cls-1" d="M54.46,121.51s15.41,12.34,18.22,15.74S87.17,147,89,135.17,62.1,114,54.46,121.51"/><path class="cls-2" d="M37.93,106.5a7.56,7.56,0,0,0-2.66,1.18c-5.75,3.82-8,11.13-8.4,18.11a13.81,13.81,0,0,1-.07,1.7c0-.56,0-1.13.07-1.7A16.42,16.42,0,0,0,18.81,112a10.69,10.69,0,0,0-8.87-1.16,11.37,11.37,0,0,0-3.54,2.28,19.1,19.1,0,0,0-6.38,13,16.72,16.72,0,0,0,5.42,13.27,10.1,10.1,0,0,0,5.33,2.55,11.09,11.09,0,0,1,3-.43,5.85,5.85,0,0,1-3,.43,12.24,12.24,0,0,0-8.88,9.58c-.81,5.59,3.49,11.54,9.1,12.16a17.68,17.68,0,0,0,5.27-.42,12.22,12.22,0,0,0,5.95-2.58,7.62,7.62,0,0,1,1.38-2.24,4.82,4.82,0,0,1-1.38,2.24,9.9,9.9,0,0,0,.29,7.66,14.59,14.59,0,0,0,7.64,6.92,9.86,9.86,0,0,0,7,.74A6.71,6.71,0,0,0,41,167.42l.53-1c4.29,1.84,9.27,2.85,13.56,1s7.21-7.26,5-11.35c-1.52-2.82-4.79-4.13-7.8-5.23a17.8,17.8,0,0,0,14.22-2.2c1.76-1.14,3.41-2.82,3.51-4.91A7.61,7.61,0,0,0,69,140.1c-2.18-4.38-5.19-8.66-9.63-10.72-4-1.86-9.39-1.27-12.22,2-.26.39-.53.77-.82,1.14a7.86,7.86,0,0,1,.82-1.14,18.22,18.22,0,0,0,3.11-11.95,15.77,15.77,0,0,0-7-11.57,7.49,7.49,0,0,0-5.27-1.33m-6.24,45.35a.62.62,0,0,1-.25-.28.46.46,0,0,1,.16-.46,1.31,1.31,0,0,1,.45-.24,1.67,1.67,0,0,1,1.32-.13.46.46,0,0,1,.25.28.61.61,0,0,1-.06.32l-.2.54-.28.32a2,2,0,0,1-1.39-.35m-1-2.88a1.7,1.7,0,0,1,.17.51,1.68,1.68,0,0,1-.25,1.42,2,2,0,0,1-1.49.38l0-.28A1.35,1.35,0,0,1,28,149.87a1.37,1.37,0,0,1,.84-1.41,1.83,1.83,0,0,1,.7-.09,1.4,1.4,0,0,1,1.2.6m4.43.65a1.62,1.62,0,0,1,1.82.57,1.43,1.43,0,0,1-.21,1.85.71.71,0,0,1-.56.21s0,.05,0,.06a.18.18,0,0,1-.16,0,2.64,2.64,0,0,1-1.26-.6,1.3,1.3,0,0,1-.43-1.27,1.32,1.32,0,0,1,.84-.82M31.4,145.4a1.3,1.3,0,0,1,.54.41A.84.84,0,0,1,30.79,147l.36.25a.16.16,0,0,1-.08.22.57.57,0,0,1-.26,0A6.26,6.26,0,0,1,29,146.9a1.33,1.33,0,0,1-.53-.43.89.89,0,0,1,.27-1.1,1.74,1.74,0,0,1,1.16-.32,3.61,3.61,0,0,1,1.48.35m3.22.73a.63.63,0,0,1,.23.38.53.53,0,0,1-.31.63l.13.24a1.57,1.57,0,0,1-1.79-.18,1.42,1.42,0,0,1,.64-1.07,1,1,0,0,1,1.1,0m3.08,1.19a.61.61,0,0,1-.29.73l-.18.32a1.9,1.9,0,0,1-.91-.21.67.67,0,0,1-.32-.8.66.66,0,0,1,.24-.28,1.18,1.18,0,0,1,.8-.25.81.81,0,0,1,.66.49m-6.39-5.42a.85.85,0,0,1,.22.95.84.84,0,0,1-.85.48l-.32-.14a3.76,3.76,0,0,1-.69-.69.44.44,0,0,1-.12-.28c0-.13.14-.21.25-.27a1.36,1.36,0,0,1,1.51,0m2.26,1.79a1,1,0,0,1,.11-.41,1,1,0,0,1,.48-.48,1.13,1.13,0,0,1,1,.23.86.86,0,0,1,.4.42c.05.19-.08.45-.27.43l-.43.51a2,2,0,0,1-.77-.11.73.73,0,0,1-.47-.59m.45-2.82a.7.7,0,0,1,.08.6,1.25,1.25,0,0,1-1.24.89l-.24-.41-.12,0a.7.7,0,0,1-.68-.5,1,1,0,0,1,.19-.87.74.74,0,0,1,.31-.24,1.12,1.12,0,0,1,.78.06l.4.14a1,1,0,0,1,.52.3m5.53,2.5a.55.55,0,0,1,.2.23.77.77,0,0,1,0,.3,4.45,4.45,0,0,1-.18,1.15,2.26,2.26,0,0,1-1.14,1.32l.07-.1a.28.28,0,0,1-.24,0c-.6-.13-1.29-.34-1.51-.92a1.41,1.41,0,0,1,.12-1.08A2.18,2.18,0,0,1,38,143.2a1.58,1.58,0,0,1,1.52.17m-1.67-2.65a.52.52,0,0,1,.19.2.45.45,0,0,1,0,.34.77.77,0,0,1-.84.42l-.14.14-1.08-.4a.67.67,0,0,1-.27-.16.45.45,0,0,1-.12-.27c-.05-.49.48-.88,1-.87a2.35,2.35,0,0,1,1.32.6"/><path class="cls-2" d="M8.17,55.43c3.11.72,5.22,3.59,6.75,6.4s2.85,5.9,5.41,7.82a30.43,30.43,0,0,1,6.8-17.53,89.16,89.16,0,0,1,7.19,14.15c2.46-6,.26-13.73,4.29-18.86a4.05,4.05,0,0,1,1.52-1.3,4,4,0,0,1,3.18.2c4.63,2,6.2,7.72,6.79,12.72a78.47,78.47,0,0,1,0,19.55A64.47,64.47,0,0,1,46.71,92.4c-.89,2.44-1.93,4.82-3,7.2l-4.89,11.15v.46l-.72-.65c1.88-4.81,3.76-9.63,5.18-14.6A82.14,82.14,0,0,0,46,80.63c.12-1.31-1.9-1.74-2-.41a81.33,81.33,0,0,1-2.67,15.33c-1.11,3.82-2.48,7.56-3.92,11.27a185,185,0,0,1,3.88-28.7,1,1,0,0,0-2-.41A186.2,186.2,0,0,0,35.5,104a90.62,90.62,0,0,1-6-25.14c-.12-1.32-2.18-1.21-2.06.12a92.64,92.64,0,0,0,7.19,28.35C26.82,99.8,19.74,91.23,17.47,80.37c-.28-1.31-2.23-.65-2,.64,2.67,12.75,11.82,22.5,21.17,31A35,35,0,0,1,23.46,107a70.57,70.57,0,0,1-10-8.37C10.3,95.56,7,92.42,5.3,88.4a24.25,24.25,0,0,1-1.41-4.82A42.59,42.59,0,0,1,8.17,55.43"/><path class="cls-1" d="M34,117.83l2.23-1-1.11.48,1.11-.47a23.21,23.21,0,0,1-1.18-9c.22-5.2,1.92-13.44,8.79-23.18,4.81-6.81,11.54-13.53,20-20a74.35,74.35,0,0,0,14.52-14A83.07,83.07,0,0,0,89.23,33.37,78.46,78.46,0,0,0,96,9.19l-2.41-.27A78.4,78.4,0,0,1,76.56,49.11,73.36,73.36,0,0,1,62.48,62.69l-.06,0c-8.69,6.61-15.61,13.51-20.56,20.53-7.27,10.3-9,19.09-9.24,24.65A24.82,24.82,0,0,0,34,117.83"/><path class="cls-1" d="M45.32,85.69c3.23-.07,8.85-.5,8.59,4.26a4.8,4.8,0,0,1-4.1,4.54c-2.44.44-4.45-1-5.79-3A17.58,17.58,0,0,1,42.21,88s-.65-2.25,3.11-2.32"/><path class="cls-1" d="M37.08,86.56c-3.18-.54-8.78-1.17-7.64-5.79a4.8,4.8,0,0,1,4.88-3.69c2.48,0,4.18,1.87,5.13,4a16.6,16.6,0,0,1,1.12,3.78s.22,2.33-3.49,1.69"/><path class="cls-1" d="M54.63,75.12c4.59-.1,12.6-.71,12.23,6.06A6.83,6.83,0,0,1,61,87.64c-3.48.63-6.35-1.49-8.25-4.24a24,24,0,0,1-2.57-5s-.93-3.2,4.42-3.3"/><path class="cls-1" d="M42.9,76.37C38.38,75.6,30.4,74.7,32,68.11A6.84,6.84,0,0,1,39,62.86c3.54,0,6,2.66,7.31,5.72A24.55,24.55,0,0,1,47.87,74s.31,3.31-5,2.42"/><path class="cls-1" d="M62.54,65.84l.32-.13a19.27,19.27,0,0,1,3.24-1,6.2,6.2,0,0,1,7.18,3.81c.7,1.5,1.71,3.32.87,5-2,3.83-7.5,2.66-10.42.8a7.33,7.33,0,0,1-3-3.43A5.82,5.82,0,0,1,60.29,68c.18-1.12,1.27-1.72,2.25-2.13"/><path class="cls-1" d="M56.63,66.78l-.34,0a18.28,18.28,0,0,1-3.39.12A6.2,6.2,0,0,1,47,61.38c-.28-1.63-.78-3.65.47-5,2.9-3.19,7.93-.61,10.26,2a7.36,7.36,0,0,1,2,4.1,5.75,5.75,0,0,1-.33,2.88,3.2,3.2,0,0,1-2.74,1.47"/><path class="cls-1" d="M77.45,53.11c2.93,0,8-.45,7.79,3.87a4.36,4.36,0,0,1-3.71,4.11c-2.22.4-4-1-5.26-2.7a15.33,15.33,0,0,1-1.63-3.17s-.59-2,2.81-2.11"/><path class="cls-1" d="M70,53.91c-2.88-.49-8-1.06-6.92-5.25a4.36,4.36,0,0,1,4.42-3.35c2.25,0,3.79,1.7,4.65,3.64a15.66,15.66,0,0,1,1,3.42s.19,2.11-3.17,1.54"/><path class="cls-1" d="M90.46,39.46c4.82-.1,13.24-.75,12.85,6.37a7.17,7.17,0,0,1-6.13,6.79c-3.66.66-6.67-1.57-8.67-4.45a25.72,25.72,0,0,1-2.7-5.24s-1-3.36,4.65-3.47"/><path class="cls-1" d="M78.13,40.77C73.38,40,65,39,66.71,32.1A7.18,7.18,0,0,1,74,26.58c3.72.05,6.26,2.8,7.68,6a25.46,25.46,0,0,1,1.67,5.65s.33,3.49-5.22,2.54"/><path class="cls-1" d="M94.49,27.51c3.48-.07,9.56-.54,9.28,4.6A5.2,5.2,0,0,1,99.34,37c-2.64.47-4.82-1.14-6.26-3.22a18.53,18.53,0,0,1-2-3.78s-.71-2.43,3.36-2.51"/><path class="cls-1" d="M85.58,28.46c-3.44-.59-9.49-1.27-8.25-6.27a5.2,5.2,0,0,1,5.27-4c2.68,0,4.51,2,5.54,4.34a18.22,18.22,0,0,1,1.21,4.08s.23,2.52-3.77,1.84"/><path class="cls-1" d="M97.2,14.22c2.82-.61,7.69-2,8.28,2.28a4.3,4.3,0,0,1-2.83,4.69c-2.08.8-4.1-.16-5.61-1.63a15.38,15.38,0,0,1-2.18-2.77s-1-1.86,2.34-2.57"/><path class="cls-1" d="M90.09,16.4c-2.88.07-7.92.47-7.7-3.8a4.29,4.29,0,0,1,3.66-4.07c2.19-.4,4,.93,5.2,2.65a16.05,16.05,0,0,1,1.63,3.13s.58,2-2.79,2.09"/><path class="cls-1" d="M93.32,8.09,93.17,8a11.67,11.67,0,0,1-1.45-1.36,3.63,3.63,0,0,1-.12-4.74C92.16,1.08,92.79.05,93.87,0c2.51-.1,3.5,3.05,3.4,5.06a4.32,4.32,0,0,1-.88,2.52,3.41,3.41,0,0,1-1.34,1,1.85,1.85,0,0,1-1.73-.53"/></g></g></svg>