<svg xmlns="http://www.w3.org/2000/svg" viewBox="0 0 92.26 85.46"><defs><style>.cls-1{fill:#60a993;}.cls-2{fill:#badbab;}</style></defs><g id="圖層_2" data-name="圖層 2"><g id="圖層_1-2" data-name="圖層 1"><path class="cls-1" d="M18.78,81.65c.15-.36,3.64-9,13.11-21.67A180.15,180.15,0,0,1,51.08,38.29,219.43,219.43,0,0,1,81.23,14l1.22,1.82c-24.74,16.64-40.19,33.9-48.8,45.45-9.3,12.48-12.8,21.09-12.83,21.18Z"/><path class="cls-1" d="M31.89,59.33s-3.73-16.56-5-19.66-1.17-14.8-3.21-15.55-2.32,16.43,1,26.59,7.19,8.62,7.19,8.62"/><path class="cls-1" d="M36.27,57.38S54,51.9,66,55.5c0,0-9.15,6.8-27.39,6.85,0,0-9.34-.1-2.38-5"/><path class="cls-1" d="M42.51,44S38,21.56,38,20.15s-2-4.86-2.77-.66a36.26,36.26,0,0,0,.45,11.82c.4,1.57,4.47,13,4.47,13s2.22,3.42,2.4-.38"/><path class="cls-1" d="M46.71,45.66s22.61-3.21,26.77-.75-11.59,3.23-11.59,3.23S45.83,51,45.41,49.35s1.3-3.69,1.3-3.69"/><path class="cls-1" d="M60,33.34s13.42-2.64,17.38.53-11.18,2.89-11.18,2.89l-7.48-.57S55.3,35.34,60,33.34"/><path class="cls-1" d="M57,15s3.23,13.29.23,17.39-3.38-11-3.38-11l.25-7.5S54.76,10.38,57,15"/><path class="cls-1" d="M74.22,20.74s13.42-2.64,17.38.53-11.18,2.89-11.18,2.89l-7.48-.57s-3.43-.85,1.28-2.85"/><path class="cls-1" d="M71.17,2.4s3.23,13.29.24,17.39S68,8.75,68,8.75l.25-7.5S69-2.22,71.17,2.4"/><path class="cls-1" d="M90,7s-6.18,9.37-10.32,9.86,4.75-8.21,4.75-8.21l4.65-4S91.5,3.13,90,7"/><path class="cls-2" d="M51.23,65.81A11.31,11.31,0,0,0,48,62a10.18,10.18,0,0,0-4.29-1.38,28.43,28.43,0,0,0-8.59.13,55.6,55.6,0,0,0,5.48-2.69,15.44,15.44,0,0,0,4.36-3.12c1.85-2.08,2.51-4.93,3.11-7.65.43-1.91.67-4.31-.92-5.44a4.38,4.38,0,0,0-1.87-.63c-4.78-.72-10,1.19-12.7,5.21a22.41,22.41,0,0,0-2.2,4.83l-3,8.22.21.69.7-.56,4.1-3.49c2.43-2.08,4.83-4.51,7.71-5.95a1.67,1.67,0,0,1,1.1-.1c.14,0,.63.22.29.39-2.82,1.41-5.15,3.78-7.54,5.81l-3.86,3.28a25.86,25.86,0,0,0-2,1.68l7.32,2.08c1.29.36,2.61.68,3.87,1.11.7.24,1.44.81,1.3,1.63s-1.57.59-1.53-.22l-.06,0-.3-.08-.61-.18-1.53-.43-3.07-.87-5.62-1.6A31.38,31.38,0,0,0,32.33,76c.25.41-1.29.41-1.57,0A31.67,31.67,0,0,1,26.4,63.62,82.94,82.94,0,0,0,22,71.37a43.14,43.14,0,0,1-2.58,4.13,13.51,13.51,0,0,0-2.13,4c-.21.79-1.76.4-1.52-.48A13.59,13.59,0,0,1,18,74.94a42.22,42.22,0,0,0,2.67-4.3,69.08,69.08,0,0,1,4.71-8.18,94.32,94.32,0,0,0-13.53,1.29c-.27,0-.82,0-.85-.38s.49-.5.76-.55a96,96,0,0,1,14.46-1.31,6,6,0,0,1,.69-.74,46.86,46.86,0,0,1-2.05-8.18,44.09,44.09,0,0,0-2.43-9.32c0-.09.45.24.5.28.21.16.63.42.73.68A42,42,0,0,1,26,53a53.57,53.57,0,0,0,1.35,6.21A50.68,50.68,0,0,0,27.92,38a9.43,9.43,0,0,0-1.43-3.9,5.27,5.27,0,0,0-5.63-1.85A6.83,6.83,0,0,0,16.92,36a18.58,18.58,0,0,0-1.36,5.38C15,45,14.75,48.91,16.72,52a16.73,16.73,0,0,0,2.15,2.53L22,57.78a29.31,29.31,0,0,0-9.92-3.29c-1.52-.27-3-.48-4.58-.67s-3.36-.32-4.73.54A6,6,0,0,0,.51,57.87C-.64,61.69.08,66.47,3.45,68.6c2.66,1.68,6.12,1.24,9.13.35a35.78,35.78,0,0,0,5-1.88l-1.13.75a22.94,22.94,0,0,0-5.65,4.71,7.78,7.78,0,0,0-1.63,6.91c1,3.2,4.89,4.92,8.16,4.16s5.81-3.5,7.09-6.6a17.33,17.33,0,0,0,1-3.53c.13,1.44.31,2.87.54,4.3A12.43,12.43,0,0,0,27.21,82a6.93,6.93,0,0,0,11.89.24,5.18,5.18,0,0,0,.85-3.3c-.24-2-1.87-3.49-3.2-5-2.66-3-4.48-6.75-7-9.88l6,6.12a16,16,0,0,0,4.11,3.38c2.82,1.41,6.21,1,9.22.07a5.47,5.47,0,0,0,3.08-1.94c1.12-1.76.15-4.06-.92-5.85"/></g></g></svg>