<svg xmlns="http://www.w3.org/2000/svg" viewBox="0 0 142.6 129.51"><defs><style>.cls-1{fill:#60a993;}</style></defs><g id="圖層_2" data-name="圖層 2"><g id="圖層_1-2" data-name="圖層 1"><path class="cls-1" d="M142.6,93.73l-1.95,1.75,1-.88-1,.88a24.45,24.45,0,0,0-8.29-5.24c-5.19-2.14-14-4.21-26.65-1.89C96.89,90,87.27,93.51,77.12,98.89a79.72,79.72,0,0,1-20.23,7.87A89.72,89.72,0,0,1,35,109.53a84.37,84.37,0,0,1-26.7-4.3l.82-2.48a84.32,84.32,0,0,0,47,1.5A78.43,78.43,0,0,0,75.8,96.63l.07,0c10.39-5.51,20.27-9.15,29.37-10.82,13.36-2.45,22.75-.21,28.28,2.11a26.71,26.71,0,0,1,9.08,5.84"/><path class="cls-1" d="M106.05,90.26c-1.52,3.12-4.49,8.42.28,10.32a5.17,5.17,0,0,0,6.29-2c1.54-2.19,1-4.83-.29-7a18.39,18.39,0,0,0-2.61-3.35s-1.9-1.65-3.67,2"/><path class="cls-1" d="M110.64,82.6c.9-3.35,2.82-9.12-2.22-10.09a5.17,5.17,0,0,0-5.81,3.1c-1.1,2.44-.07,4.93,1.6,6.83a18.1,18.1,0,0,0,3.19,2.8s2.18,1.27,3.24-2.64"/><path class="cls-1" d="M91.5,94.58c-2.16,4.44-6.39,12,.41,14.7a7.37,7.37,0,0,0,9-2.78c2.18-3.12,1.41-6.88-.42-10a26.37,26.37,0,0,0-3.7-4.77S94,89.4,91.5,94.58"/><path class="cls-1" d="M98,83.67c1.29-4.77,4-13-3.15-14.35a7.35,7.35,0,0,0-8.27,4.41c-1.56,3.47-.1,7,2.28,9.72a26.44,26.44,0,0,0,4.53,4s3.1,1.8,4.61-3.77"/><path class="cls-1" d="M78.86,98.11l-.27.26a20.34,20.34,0,0,0-2.45,2.72,6.68,6.68,0,0,0,.48,8.74c1.15,1.36,2.47,3.17,4.46,3.09,4.64-.2,6-6.13,5.49-9.82a7.85,7.85,0,0,0-2-4.5A6.09,6.09,0,0,0,82,96.88c-1.19-.33-2.26.46-3.1,1.23"/><path class="cls-1" d="M82.45,92.77l.19-.32a20.35,20.35,0,0,0,1.65-3.26c1.26-3.36.12-6.33-2.75-8.32-1.47-1-3.22-2.41-5.11-1.81C72,80.46,72.25,86.55,73.7,90a7.82,7.82,0,0,0,3.11,3.81,6.06,6.06,0,0,0,3,1c1.23,0,2.06-1,2.67-2"/><path class="cls-1" d="M59.67,106.94c-1.38,2.83-4.07,7.64.26,9.36a4.69,4.69,0,0,0,5.7-1.77c1.39-2,.89-4.38-.27-6.36a16.79,16.79,0,0,0-2.36-3s-1.72-1.5-3.33,1.8"/><path class="cls-1" d="M63.83,100c.82-3,2.56-8.27-2-9.15a4.71,4.71,0,0,0-5.27,2.81c-1,2.22-.06,4.47,1.45,6.2a17,17,0,0,0,2.89,2.53s2,1.15,2.94-2.39"/><path class="cls-1" d="M40.43,113.48c-2.27,4.67-6.71,12.61.43,15.45a7.73,7.73,0,0,0,9.4-2.92c2.3-3.28,1.49-7.23-.43-10.49a27.81,27.81,0,0,0-3.9-5s-2.84-2.46-5.5,3"/><path class="cls-1" d="M47.3,102c1.36-5,4.22-13.64-3.32-15.09a7.74,7.74,0,0,0-8.69,4.64c-1.64,3.65-.1,7.38,2.4,10.22A27.54,27.54,0,0,0,42.45,106s3.26,1.89,4.85-4"/><path class="cls-1" d="M26.93,112c-1.64,3.38-4.85,9.11.31,11.16A5.58,5.58,0,0,0,34,121.06c1.66-2.37,1.07-5.22-.31-7.58a20.12,20.12,0,0,0-2.82-3.62s-2-1.78-4,2.15"/><path class="cls-1" d="M31.89,103.73c1-3.62,3-9.85-2.4-10.9a5.59,5.59,0,0,0-6.28,3.35c-1.18,2.64-.07,5.33,1.73,7.38a19.88,19.88,0,0,0,3.45,3s2.35,1.37,3.5-2.86"/><path class="cls-1" d="M12.71,108.65c-1.87,2.49-5.39,6.65-1.52,9.13a4.65,4.65,0,0,0,5.87-.64c1.73-1.67,1.7-4.09.94-6.22a16.33,16.33,0,0,0-1.71-3.39s-1.4-1.78-3.58,1.12"/><path class="cls-1" d="M18.06,102.69c1.37-2.79,4-7.53-.23-9.25a4.64,4.64,0,0,0-5.64,1.73c-1.38,2-.9,4.33.24,6.29a16.59,16.59,0,0,0,2.33,3s1.7,1.48,3.3-1.78"/><path class="cls-1" d="M8.47,102.09a1.6,1.6,0,0,0-.05-.21,12,12,0,0,0-.67-2,3.91,3.91,0,0,0-4.58-2.27c-1,.19-2.32.34-2.85,1.38-1.24,2.41,1.39,4.8,3.41,5.61a4.58,4.58,0,0,0,2.85.28A3.78,3.78,0,0,0,8.21,104a2,2,0,0,0,.26-1.94"/><path class="cls-1" d="M80.24,81.31c-.33-.19-8.14-4.9-19-16A177.37,177.37,0,0,1,43.11,43.33a216.35,216.35,0,0,1-18.93-33l1.95-.91C38.49,36,52.87,53.64,62.76,63.77c10.68,10.94,18.5,15.65,18.58,15.69Z"/><path class="cls-1" d="M60.58,65.17S44,66.25,40.75,67s-14.54-1.13-15.59.73,15.59,4.77,26,3.09,9.46-5.66,9.46-5.66"/><path class="cls-1" d="M59.36,60.62s-2.59-18,2.75-29.17c0,0,5.19,9.92,2.44,27.62,0,0-1.53,9.05-5.19,1.55"/><path class="cls-1" d="M47.31,52.51s-22.43.91-23.81.76-5,1.22-1.07,2.6A36,36,0,0,0,34,57.24c1.58-.15,13.33-2.34,13.33-2.34s3.66-1.63,0-2.39"/><path class="cls-1" d="M49.6,48.7S49.94,26.26,53,22.6s1.36,11.75,1.36,11.75.34,16-1.36,16.18S49.6,48.7,49.6,48.7"/><path class="cls-1" d="M39.68,33.89s-.51-13.43,3.18-16.78S44,28.4,44,28.4l-1.7,7.17s-1.35,3.21-2.57-1.68"/><path class="cls-1" d="M21.42,34s13.39-1.1,16.9,2.44-11.23,1.59-11.23,1.59l-7.24-1.39s-3.26-1.2,1.57-2.64"/><path class="cls-1" d="M29.63,18.18S29.12,4.75,32.81,1.39s1.09,11.3,1.09,11.3l-1.7,7.17s-1.35,3.2-2.57-1.68"/><path class="cls-1" d="M11.37,18.33s13.39-1.1,16.91,2.44S17,22.35,17,22.35L9.8,21s-3.26-1.21,1.57-2.64"/><path class="cls-1" d="M18.75.81s8.14,7.45,8,11.54S19.5,6.48,19.5,6.48L16.29,1.35s-1.1-2.64,2.46-.54"/></g></g></svg>