<svg xmlns="http://www.w3.org/2000/svg" viewBox="0 0 113.28 104.55"><defs><style>.cls-1{fill:#60a993;}.cls-2{fill:#badbab;}</style></defs><g id="圖層_2" data-name="圖層 2"><g id="圖層_1-2" data-name="圖層 1"><path class="cls-1" d="M51.76,104.55l-.23-2,.12,1-.12-1a19.25,19.25,0,0,0,7.1-2.88c3.71-2.31,9-7,13.31-16a78.71,78.71,0,0,0,6.31-22.93,62.58,62.58,0,0,1,4.2-16.41,70.25,70.25,0,0,1,8.19-15.13,66.1,66.1,0,0,1,14.87-15l1.2,1.65A65.85,65.85,0,0,0,84.38,44.93a61.08,61.08,0,0,0-4.09,15.93v.06a80.9,80.9,0,0,1-6.49,23.55c-4.52,9.59-10.22,14.52-14.2,17a20.88,20.88,0,0,1-7.83,3.1"/><path class="cls-1" d="M70.58,82.94c-1.29-2.38-3.31-6.67-6.68-4.51a4,4,0,0,0-1.62,4.88c.69,2,2.61,2.82,4.58,3a14.69,14.69,0,0,0,3.31-.13s1.91-.46.41-3.24"/><path class="cls-1" d="M73.35,89.34c1.71,2.1,4.5,5.93,7.41,3.18a4,4,0,0,0,.67-5.1c-1.05-1.8-3.1-2.28-5.06-2.09a15,15,0,0,0-3.23.75s-1.79.81.21,3.26"/><path class="cls-1" d="M74.45,71.75c-1.84-3.39-4.71-9.5-9.51-6.43a5.75,5.75,0,0,0-2.3,7c1,2.8,3.72,4,6.52,4.27a20.1,20.1,0,0,0,4.71-.18s2.72-.65.58-4.61"/><path class="cls-1" d="M78.4,80.85c2.44,3,6.4,8.45,10.54,4.53a5.74,5.74,0,0,0,1-7.25c-1.49-2.57-4.41-3.25-7.2-3a20.23,20.23,0,0,0-4.6,1.07s-2.55,1.14.3,4.63"/><path class="cls-1" d="M78,62.12a2.89,2.89,0,0,1,0-.29,16.41,16.41,0,0,0-.61-2.78,5.21,5.21,0,0,0-5.77-3.67c-1.39.11-3.13.12-4,1.42-2,3,1.17,6.59,3.74,8a6.1,6.1,0,0,0,3.76.77,4.83,4.83,0,0,0,2.28-.87A2.67,2.67,0,0,0,78,62.12"/><path class="cls-1" d="M79.72,66.83c0,.09.07.18.11.27a16,16,0,0,0,1.32,2.53,5.22,5.22,0,0,0,6.52,2c1.31-.47,3-.94,3.48-2.42,1.12-3.44-2.85-6-5.69-6.69a6.12,6.12,0,0,0-3.83.23,4.83,4.83,0,0,0-2,1.45,2.65,2.65,0,0,0,.06,2.6"/><path class="cls-1" d="M81.08,45.94c-1.17-2.16-3-6.06-6-4.1a3.66,3.66,0,0,0-1.47,4.43c.63,1.78,2.37,2.56,4.15,2.72a13.1,13.1,0,0,0,3-.12s1.73-.41.37-2.93"/><path class="cls-1" d="M83.6,51.73c1.55,1.9,4.07,5.38,6.71,2.89A3.66,3.66,0,0,0,90.92,50c-1-1.64-2.81-2.07-4.59-1.9a13.19,13.19,0,0,0-2.92.68s-1.63.73.19,2.95"/><path class="cls-1" d="M85.68,30.76c-1.93-3.57-5-10-10-6.75a6,6,0,0,0-2.43,7.29c1,2.95,3.92,4.23,6.85,4.5a21.68,21.68,0,0,0,5-.2s2.85-.68.61-4.84"/><path class="cls-1" d="M89.83,40.32c2.56,3.15,6.73,8.89,11.08,4.76a6,6,0,0,0,1-7.62c-1.57-2.7-4.64-3.41-7.58-3.13a22.2,22.2,0,0,0-4.82,1.12s-2.68,1.21.31,4.87"/><path class="cls-1" d="M92.75,22.86c-1.39-2.57-3.57-7.21-7.22-4.88a4.37,4.37,0,0,0-1.75,5.27c.75,2.13,2.83,3.06,5,3.25a15.32,15.32,0,0,0,3.58-.14s2.06-.49.44-3.5"/><path class="cls-1" d="M95.75,29.77c1.85,2.27,4.86,6.42,8,3.44a4.36,4.36,0,0,0,.73-5.51c-1.13-1.95-3.35-2.47-5.47-2.26a16.09,16.09,0,0,0-3.49.81s-1.93.87.23,3.52"/><path class="cls-1" d="M101.35,15.37c-.73-2.32-1.77-6.44-5.11-5.11a3.61,3.61,0,0,0-2.26,4c.28,1.85,1.82,2.93,3.52,3.43a13.24,13.24,0,0,0,2.93.45s1.76-.08.92-2.78"/><path class="cls-1" d="M102.7,21.47c1.14,2.14,2.94,6,6,4.06a3.6,3.6,0,0,0,1.46-4.36c-.61-1.77-2.33-2.54-4.09-2.71a13.41,13.41,0,0,0-3,.11s-1.71.4-.37,2.9"/><path class="cls-1" d="M107.43,15.66l.16.07a9.75,9.75,0,0,0,1.59.49,3.05,3.05,0,0,0,3.52-1.88c.34-.73.84-1.62.42-2.43-1-1.88-3.68-1.3-5.11-.39a3.56,3.56,0,0,0-1.47,1.69,2.72,2.72,0,0,0-.21,1.41c.09.55.62.84,1.1,1"/><path class="cls-1" d="M34.6,80l2.33-1.25c-.16-.29-15.64-29.29-17.46-53l-2.64.2c1,12.71,5.76,26.73,9.6,36.26C30.58,72.54,34.56,80,34.6,80"/><path class="cls-1" d="M26.78,60.19s-15-5.09-18.49-5.52-12.82-5.61-5.65-12,25.94,9.07,24.14,17.48"/><path class="cls-1" d="M20.79,0s9.3-1.59,3.93,22.8S-.32,12.57,20.79,0"/><path class="cls-1" d="M26.92,60.09s10.5-11.84,13.34-14,8.36-11.22-1-13.19-18,20.72-12.33,27.14"/><path class="cls-2" d="M14.24,72.73a6,6,0,0,0,.85,2.17c2.83,4.76,8.58,6.83,14.16,7.45a12.51,12.51,0,0,1,1.36.13l-1.36-.13a13.16,13.16,0,0,0-11.36,5.91,8.6,8.6,0,0,0-1.28,7,9,9,0,0,0,1.69,2.93,15.29,15.29,0,0,0,10.13,5.62,13.41,13.41,0,0,0,10.85-3.81,8.05,8.05,0,0,0,2.25-4.16,9.1,9.1,0,0,1-.22-2.44,4.72,4.72,0,0,1,.22,2.44,9.8,9.8,0,0,0,7.32,7.49c4.44.87,9.38-2.33,10.1-6.8a14.3,14.3,0,0,0-.13-4.23A9.82,9.82,0,0,0,57,87.47a6,6,0,0,1-1.74-1.19A4.08,4.08,0,0,1,57,87.47a7.88,7.88,0,0,0,6.14.08A11.68,11.68,0,0,0,69,81.71a7.9,7.9,0,0,0,.87-5.58,5.35,5.35,0,0,0-6.7-3.43l-.82-.48C64,68.87,65,64.92,63.7,61.41S58.18,55.35,54.81,57c-2.32,1.11-3.5,3.67-4.5,6a14.26,14.26,0,0,0-1.19-11.47c-.84-1.45-2.12-2.84-3.79-3a6.23,6.23,0,0,0-2.94.69c-3.6,1.58-7.14,3.81-9,7.29C31.77,59.65,32,64,34.51,66.37c.3.22.59.45.88.7a6.76,6.76,0,0,1-.88-.7,14.64,14.64,0,0,0-9.44-3,12.63,12.63,0,0,0-9.54,5.16,6,6,0,0,0-1.29,4.17m36.07,6.8a.5.5,0,0,1-.24.19.37.37,0,0,1-.36-.14,1.21,1.21,0,0,1-.18-.38,1.33,1.33,0,0,1,0-1,.36.36,0,0,1,.23-.19A.43.43,0,0,1,50,78l.42.18.24.24a1.59,1.59,0,0,1-.33,1.09M48,80.2a1.44,1.44,0,0,1,.42-.11,1.3,1.3,0,0,1,1.12.26,1.51,1.51,0,0,1,.25,1.2l-.23,0a1.07,1.07,0,0,1-.94.9,1.09,1.09,0,0,1-1.1-.72,1.37,1.37,0,0,1,0-.57A1.15,1.15,0,0,1,48,80.2m.7-3.51a1.32,1.32,0,0,1,.52-1.44,1.16,1.16,0,0,1,1.48.24.57.57,0,0,1,.15.46s0,0,0,0a.19.19,0,0,1,0,.13,2.27,2.27,0,0,1-.53,1,1,1,0,0,1-1.66-.41m-3.53,2.82a1.19,1.19,0,0,1,.35-.42.68.68,0,0,1,.91,1l.21-.28a.13.13,0,0,1,.17.08.28.28,0,0,1,0,.2,4.53,4.53,0,0,1-.54,1.42.93.93,0,0,1-.36.4.71.71,0,0,1-.87-.26,1.45,1.45,0,0,1-.21-.94,3,3,0,0,1,.34-1.17M45.84,77a.56.56,0,0,1,.32-.17.44.44,0,0,1,.49.27l.19-.09a1.26,1.26,0,0,1-.21,1.43,1.16,1.16,0,0,1-.83-.56.78.78,0,0,1,0-.88m1.08-2.42a.49.49,0,0,1,.57.26l.25.16a1.62,1.62,0,0,1-.2.72.55.55,0,0,1-.66.23.6.6,0,0,1-.21-.21.94.94,0,0,1-.17-.65.65.65,0,0,1,.42-.51m-4.59,4.9a.65.65,0,0,1,1.11.56l-.12.25a3.23,3.23,0,0,1-.58.53.34.34,0,0,1-.23.08c-.1,0-.16-.12-.2-.2a1.1,1.1,0,0,1,0-1.22m1.52-1.74a.75.75,0,0,1-.32-.1.84.84,0,0,1-.37-.4.89.89,0,0,1,.22-.75.68.68,0,0,1,.36-.31c.15,0,.35.08.33.24l.39.36a1.79,1.79,0,0,1-.12.61.58.58,0,0,1-.49.35m-2.24-.47a.58.58,0,0,1,.48,0,1,1,0,0,1,.67,1l-.34.17a.34.34,0,0,1,0,.1A.56.56,0,0,1,42,79a.8.8,0,0,1-.69-.19.58.58,0,0,1-.18-.26.9.9,0,0,1,.08-.62l.12-.32a.86.86,0,0,1,.27-.4m2.22-4.33a.55.55,0,0,1,.19-.15.7.7,0,0,1,.25,0,3.51,3.51,0,0,1,.91.19,1.81,1.81,0,0,1,1,1l-.08-.07a.23.23,0,0,1,0,.2c-.13.48-.33,1-.8,1.17a1.14,1.14,0,0,1-.86-.14,1.76,1.76,0,0,1-.83-1,1.28,1.28,0,0,1,.2-1.21m-2.19,1.23a.58.58,0,0,1,.17-.14.36.36,0,0,1,.27,0,.63.63,0,0,1,.3.7l.11.11-.36.85a.52.52,0,0,1-.14.21.36.36,0,0,1-.22.09.72.72,0,0,1-.66-.81,2,2,0,0,1,.53-1"/></g></g></svg>