<svg xmlns="http://www.w3.org/2000/svg" viewBox="0 0 28.42 29.4"><defs><style>.cls-1{fill:#f4bbd2;}.cls-2{fill:#60a993;}</style></defs><g id="圖層_2" data-name="圖層 2"><g id="圖層_1-2" data-name="圖層 1"><path class="cls-1" d="M14.27,27.77c-2.44-.9-4-2.46-4-5.25,0-1.22-.41-2.43-.47-3.65a4.37,4.37,0,0,1,.59-1.48c.48.26,1.24.43,1.39.82A30.93,30.93,0,0,1,13,22.54c.4,1.87,1.89,2.5,3.64,1.8,3.28-1.3,4.53-4.17,5.82-7,.49-1.08-.5-1.69-1.56-2.63-1.31-1.17-.36-3.5.79-4.73a3.18,3.18,0,0,1,4.45-.14A6.84,6.84,0,0,1,28,17.28C26,22.06,23,26,17.84,27.72a16.61,16.61,0,0,1-3.51.44,1,1,0,0,0-.05-.39"/><path class="cls-2" d="M0,10.56C.05,10-.1,9.3.18,9a2.08,2.08,0,0,1,1.65-.62,49.28,49.28,0,0,1,5.93,1.78,10.51,10.51,0,0,0,5.81.7c1.4-.25,2.22.16,2.37,1.11a1.93,1.93,0,0,1-1.57,2.23l-.21,0a12,12,0,0,1-6.37-.51c-2-.74-4-1.47-6-2.24C1.18,11.21.58,10.9,0,10.56"/><path class="cls-2" d="M17.35,6.72a14.06,14.06,0,0,1-3.11.1C10.85,6.18,7.91,4.39,5,2.73c-.73-.41-1.35-1.09-.94-2S5.37-.1,6.18.23c1,.4,1.94.92,3,1.29,2.41.87,4.85,1.69,7.28,2.53.24.08.55.06.73.21.37.31.84.67.93,1.08s-.35.78-.68,1.4"/><path class="cls-2" d="M5.82,28.78c-.49.18-1.16.69-1.77.61-1-.11-1.19-1-1-1.89.47-3.14.94-6.29,1.38-9.44a17.89,17.89,0,0,0,.14-2.19c0-.75.24-1.55,1.08-1.42a1.85,1.85,0,0,1,1.14,1.37c0,3.17-.19,6.34-.37,9.51-.06,1-.32,2-.55,3.45"/></g></g></svg>