<svg xmlns="http://www.w3.org/2000/svg" viewBox="0 0 60 60"><defs><style>.cls-1{fill:#67b868;}.cls-2{fill:#fff;}</style></defs><g id="圖層_2" data-name="圖層 2"><g id="圖層_1-2" data-name="圖層 1"><circle class="cls-1" cx="30" cy="30" r="30"/><g id="圖層_2-2" data-name="圖層 2"><g id="圖層_2-2-2" data-name="圖層 2-2"><path class="cls-2" d="M26.76,15.23s1.24.2,1.65,3.29.21,4.53-1,4.74-3.91-.21-3.91,1a4.85,4.85,0,0,0,1,2.47l7.2,10.3s1.86,3.29,3.09.61,1-3.29,3.09-2.88,5.35,2.88,4.73,4.53a6.61,6.61,0,0,1-6.38,5.76c-5.35.83-8.44-2.67-12.35-8.44S13,22.43,21,16.26A5.31,5.31,0,0,1,26.76,15.23Z"/></g></g></g></g></svg>