<svg width="56" height="61" viewBox="0 0 56 61" fill="none" xmlns="http://www.w3.org/2000/svg">
<g clip-path="url(#clip0)">
<path d="M21.7682 38.8857C21.5508 38.9726 21.4204 39.19 21.3334 39.4074C20.8117 40.0596 20.9856 41.5813 21.7682 43.1031C22.6378 44.8422 24.0291 45.9292 24.8552 45.5378C25.116 45.4074 25.2899 45.1031 25.3769 44.7118C25.7247 43.9726 25.5508 42.6248 24.8552 41.277C23.9421 39.5378 22.5943 38.4509 21.7682 38.8857Z" fill="#E1E0DD"/>
<path d="M51.1592 11.4941C48.1157 8.2767 43.4201 6.18974 38.9853 6.58105C37.4636 6.71148 35.8114 6.668 34.3766 6.05931C32.6375 5.32018 31.4201 3.97235 29.8984 2.92887C26.8114 0.79844 22.507 0.102788 18.9418 1.40714C16.594 2.2767 14.2462 3.10279 11.8984 3.97235C11.681 4.05931 11.4636 4.14627 11.2462 4.18974C11.2462 4.23322 11.2027 4.23322 11.2027 4.23322C8.89835 4.84192 6.72444 5.97235 4.94183 7.45061C3.07227 9.01583 1.72444 11.1028 0.941831 13.3637C0.0287881 16.0158 0.202701 18.8854 0.98531 21.5376C1.59401 23.6245 2.50705 25.4071 3.63748 27.2332C3.98531 27.8419 4.15922 28.1897 4.28966 28.8854C4.46357 29.8854 4.33314 31.0158 4.2027 32.0593C3.85487 35.0593 3.89835 37.8854 4.63748 40.8419C5.24618 43.2767 6.28966 45.7115 7.76792 47.755C8.76792 49.1028 10.1157 50.6245 11.8549 50.9289C12.507 51.0158 13.1592 50.9289 13.681 50.668C13.7244 50.668 13.7244 50.668 13.7679 50.668C14.8549 50.2767 15.8984 49.8419 16.9853 49.4506C16.8549 50.0593 16.681 50.668 16.4636 51.2332C16.3331 51.5376 16.2027 51.7984 16.0288 52.0158C15.8549 52.1897 15.7244 52.3637 15.507 52.4941C15.3331 52.581 15.2462 52.7115 15.1592 52.8419C14.5505 53.3637 14.9853 54.3202 15.681 54.4071C15.9418 54.5376 16.2462 54.5376 16.594 54.3637C18.9853 52.9724 19.4636 49.5376 19.4636 47.0593C19.4636 45.581 19.4636 44.1028 19.4636 42.6245C19.4636 39.9724 19.4636 37.3202 19.4636 34.7115C19.4636 34.0158 19.4636 33.2767 19.4636 32.581C19.4636 32.5376 19.4636 32.4941 19.4636 32.4506C19.5505 32.3202 19.4636 32.3202 19.681 32.2332C19.8549 32.1463 20.2462 32.3637 20.4201 32.4071C22.681 33.1463 24.9418 33.9289 27.2462 34.668H27.2897C27.2897 36.6245 27.2897 38.581 27.2897 40.4941C27.2897 43.4506 27.2897 46.3637 27.2897 49.3202C27.2897 51.1463 27.3331 53.0158 28.0288 54.7115C28.681 56.2332 29.8549 57.1897 31.3766 57.2767C31.4636 57.668 31.594 58.0158 31.7244 58.3637C31.9418 58.9289 32.3331 59.4071 32.7679 59.755C33.5505 60.4071 34.594 60.755 35.6375 60.755C35.8983 60.755 36.1592 60.7115 36.3766 60.668C37.507 60.4506 38.4636 59.755 39.2462 58.9723C40.2027 58.0158 38.7244 56.5376 37.7679 57.4941C37.0723 58.1897 36.2027 58.8419 35.1592 58.668C34.4636 58.5376 33.8983 58.1463 33.6375 57.581C33.5505 57.3636 33.4636 57.1463 33.4201 56.9289C33.6375 56.8419 33.8549 56.755 34.0723 56.668H34.1157C36.2027 55.8854 38.2897 55.0593 40.4201 54.2767C43.3766 53.1463 45.8983 51.2332 47.594 48.5376C49.2462 45.9289 49.9853 42.8419 50.1157 39.755C50.1157 39.1897 50.1157 38.581 50.0723 38.0158C50.0288 37.0158 49.9853 35.9724 50.1592 34.9724C50.2027 34.581 50.2897 34.2332 50.4201 33.8419C50.4636 33.7115 50.507 33.581 50.5505 33.4506C50.594 33.3637 50.594 33.3202 50.6375 33.2332V33.1897C50.681 33.0593 50.7679 32.9289 50.8549 32.7984C51.0723 32.755 51.8983 31.7115 51.9853 31.5376C52.3766 31.0593 52.7244 30.581 53.0723 30.1028C54.2897 28.2332 55.0288 26.0593 55.2462 23.8419C55.7244 19.4071 54.1592 14.6245 51.1592 11.4941ZM19.4636 32.3637C19.4636 32.3202 19.507 32.2767 19.4636 32.3637V32.3637ZM21.3766 30.4506C20.8984 30.2767 20.3766 30.1463 19.8984 30.1028C19.3766 30.0158 18.8549 30.0593 18.2897 30.3637C17.4636 30.8854 17.2462 31.755 17.2462 32.6245C17.2462 34.8419 17.2462 37.1028 17.2462 39.3202C17.2462 41.668 17.2462 43.9724 17.2462 46.3202C17.2462 46.581 17.2462 46.8419 17.2462 47.0593C16.7244 47.2767 16.1592 47.4506 15.6375 47.668C15.681 47.1463 15.7244 46.6245 15.7244 46.1463C15.7244 45.0158 15.7244 43.8854 15.7244 42.7984C15.7244 39.4506 15.7244 36.1028 15.7244 32.7115C15.7244 31.4941 15.7244 30.2332 15.7244 29.0158C15.7244 28.581 15.594 27.6245 15.9418 27.3202C16.4636 26.8854 17.8549 27.581 18.507 27.7984C19.4636 28.1028 20.4201 28.4506 21.3766 28.755C21.3766 29.3202 21.3766 29.8854 21.3766 30.4506ZM27.2897 31.9724C27.2897 32.1028 27.2897 32.2767 27.2897 32.4071C26.0288 31.9724 24.7679 31.581 23.507 31.1463C23.507 30.581 23.507 30.0158 23.507 29.4506C24.5505 29.7984 25.6375 30.0593 26.6375 30.4941C27.3331 30.7984 27.2897 31.3202 27.2897 31.9724ZM31.0288 53.8854C31.0288 54.2767 31.0723 54.7115 31.0723 55.1028C30.681 54.9723 30.3766 54.6245 30.1157 54.1897C29.7679 53.581 29.6375 52.8854 29.507 52.1897C29.4201 51.668 29.3766 50.9289 29.3766 50.2332C29.3766 48.0593 29.3766 45.8854 29.3766 43.7115C29.3766 40.9289 29.3766 38.1463 29.3766 35.3202C29.594 35.4071 29.8549 35.4941 30.0723 35.5376C30.5505 35.7115 30.9853 35.9289 31.0288 36.4941C31.2027 38.3637 31.0288 40.3202 31.0288 42.2332C31.0288 44.8854 31.0288 47.581 31.0288 50.2332C31.0288 51.4506 30.9853 52.668 31.0288 53.8854ZM34.1157 54.1463C33.8114 54.3202 33.507 54.5376 33.1592 54.7115C33.1592 54.3202 33.1157 53.9289 33.1157 53.5376C33.1157 52.3202 33.1157 51.0593 33.1157 49.8419C33.1157 45.3637 33.2462 40.8854 33.1157 36.4506C33.0288 34.2767 31.1157 33.6245 29.3766 33.1028C29.3766 32.5376 29.3766 31.9724 29.3766 31.4506C29.3766 30.0593 28.4636 28.9289 27.1592 28.4941C24.594 27.581 21.9853 26.755 19.3766 25.9289C18.594 25.668 17.7679 25.3202 16.9418 25.1897C15.6375 25.0158 14.3331 25.5376 13.8114 26.7984C13.6375 27.2332 13.5505 27.755 13.5505 28.2332C13.4636 30.4506 13.5505 32.668 13.5505 34.8854C13.5505 38.0593 13.5505 41.2332 13.5505 44.3637C13.5505 45.1463 13.5505 45.9289 13.5505 46.7115C13.5505 47.2332 13.5505 47.755 13.3331 48.2332C13.2897 48.3637 13.1592 48.5376 13.1157 48.581C13.0723 48.6245 13.0288 48.668 12.9853 48.7115C12.9853 48.7115 12.9418 48.755 12.8984 48.755C12.8549 48.755 12.8549 48.7984 12.8114 48.7984C12.8114 48.7984 12.7679 48.7984 12.7679 48.8419C12.681 48.8854 12.2897 48.9289 12.6375 48.8854C12.2027 48.9289 12.2027 48.9289 11.8549 48.7984C11.2897 48.581 10.6375 47.9724 10.2027 47.4506C8.72444 45.7984 7.72444 43.668 7.07227 41.5376C6.24618 38.8854 5.89835 36.0593 6.2027 33.2767C6.42009 31.2332 6.8114 29.1028 5.98531 27.1463C5.33314 25.668 4.33314 24.4506 3.72444 22.9289C2.72444 20.4506 2.07227 17.755 2.63748 15.1028C3.63748 10.668 7.15922 7.58105 11.4201 6.36366C13.6375 5.71148 15.9853 5.62453 18.2462 6.32018C19.9853 6.84192 21.2462 7.8854 22.6375 8.97235C23.594 9.75496 24.681 10.4071 25.7679 10.9724C25.3331 11.0593 24.8984 11.1463 24.4201 11.1897C23.681 11.2332 22.8114 11.1463 22.2027 10.8854C21.5505 10.581 21.2027 10.3202 20.7679 9.92887C19.7244 9.05931 18.2462 10.5376 19.2897 11.4071C20.5505 12.4506 21.8114 13.1897 23.507 13.3202C24.7244 13.4071 25.9418 13.1897 27.1157 12.8854C28.3331 12.5376 29.507 11.9724 30.7679 11.755C35.2462 11.0593 40.2462 13.4941 42.8549 17.1028C45.681 21.0158 46.4201 26.6245 44.1157 30.9289C43.507 32.1028 42.681 33.1028 41.7244 34.0593C41.4636 34.3202 41.2462 34.6245 41.0723 34.9724C40.2027 36.7984 40.0723 38.9724 40.2027 40.9289C40.3331 43.2332 40.0723 45.4071 39.3331 47.581C38.681 49.4941 37.6375 51.2332 36.2027 52.581C35.594 53.1463 34.8549 53.668 34.1157 54.1463ZM50.8549 32.7115C50.8549 32.668 50.8549 32.668 50.8549 32.7115C51.0288 32.3637 50.9418 32.668 50.8549 32.7115ZM52.2897 27.0593C51.8983 27.9723 51.3766 28.8854 50.7244 29.668C50.2462 30.2767 49.594 30.7984 49.1157 31.4506C47.8114 33.3637 47.8983 36.1028 47.9853 38.2767C48.1157 40.581 47.7679 42.8419 46.9418 45.0158C45.8549 47.9724 43.4636 50.7115 40.507 51.8854C40.0288 52.0593 39.5505 52.2332 39.0723 52.4506C41.0723 49.8419 42.0723 46.5376 42.2897 43.2332C42.3331 42.4506 42.3331 41.668 42.2897 40.8854C42.2027 39.755 42.2027 38.581 42.4201 37.4941C42.507 37.1028 42.594 36.668 42.7244 36.3202C42.8549 35.9724 42.7679 36.1028 42.9853 35.755C43.0288 35.7115 43.0288 35.668 43.0723 35.6245C43.0723 35.668 43.2462 35.4071 43.3766 35.3202C43.6375 35.0593 43.8984 34.755 44.1592 34.4941C45.0288 33.4506 45.8114 32.3202 46.3331 31.0593C47.3766 28.668 47.7679 26.0158 47.4636 23.4506C46.8114 18.3202 43.9418 13.7984 39.3331 11.3637C37.1157 10.1897 34.594 9.45061 32.0723 9.49409C31.0288 9.49409 29.9853 9.668 28.9853 9.97235C27.0288 9.40714 25.1157 8.40714 23.6375 7.10279C22.0288 5.71148 20.2027 4.62453 18.1157 4.14627C18.0288 4.14627 17.9418 4.10279 17.8984 4.10279C18.594 3.79844 19.2897 3.53757 19.9853 3.2767C21.8114 2.62453 24.0723 2.79844 25.8984 3.32018C27.0288 3.66801 28.0723 4.18974 29.0723 4.8854C29.5505 5.23322 29.9853 5.668 30.4636 6.05931C32.2462 7.49409 34.1592 8.40714 36.4636 8.66801C37.9853 8.84192 39.507 8.53757 41.0288 8.66801C43.1157 8.84192 45.1592 9.62453 46.9418 10.7115C50.5505 12.9289 52.8549 16.7984 53.2027 21.0158C53.3766 23.0593 53.1157 25.1897 52.2897 27.0593Z" fill="#E1E0DD"/>
</g>
<defs>
<clipPath id="clip0">
<rect width="55" height="60" fill="white" transform="translate(0.333435 0.755371)"/>
</clipPath>
</defs>
</svg>
