<svg width="61" height="62" viewBox="0 0 61 62" fill="none" xmlns="http://www.w3.org/2000/svg">
<path fill-rule="evenodd" clip-rule="evenodd" d="M39.7817 59.292H40.1V59.1865C51.9604 55.1832 60.5 43.9666 60.5 30.7554C60.5 17.5442 51.9604 6.32754 40.1 2.32424V2.21879H39.7817C36.859 1.26882 33.7395 0.755371 30.5 0.755371C18.8979 0.755371 8.83405 7.3415 3.84323 16.979L3.82249 16.9949L3.82996 17.0047C1.70186 21.1238 0.500046 25.7993 0.500046 30.7554C0.500046 44.0605 9.1616 55.3427 21.1537 59.2709V59.292H21.2184C24.141 60.2419 27.2606 60.7554 30.5 60.7554C33.7395 60.7554 36.859 60.2419 39.7817 59.292ZM38.6366 58.1152C36.0581 58.8809 33.3271 59.292 30.5 59.292C27.7655 59.292 25.1208 58.9073 22.6171 58.1892V39.537L38.6366 19.6148V58.1152ZM21.1537 57.7262V39.5281L4.82115 18.2934C2.99041 22.0587 1.96346 26.2871 1.96346 30.7554C1.96346 43.2423 9.98362 53.856 21.1537 57.7262ZM5.56737 16.8632L21.8982 38.0957L38.6366 17.2794V3.39555C36.0581 2.62988 33.3271 2.21879 30.5 2.21879C19.783 2.21879 10.4457 8.1266 5.56737 16.8632ZM40.1 3.87377V17.2455L58.4384 36.596C58.8305 34.7107 59.0366 32.7571 59.0366 30.7554C59.0366 18.3632 51.1377 7.81592 40.1 3.87377ZM57.7831 39.1463C55.1396 47.7516 48.5367 54.6238 40.1 57.637V39.1463H57.7831ZM40.1 19.373V37.6828H57.4522L40.1 19.373Z" fill="#E1E0DD" stroke="#E1E0DD"/>
</svg>
